<svg version="1.1" xmlns="http://www.w3.org/2000/svg" xmlns:xlink="http://www.w3.org/1999/xlink" width="35.2692" height="28.24075" viewBox="0,0,35.2692,28.24075"><g transform="translate(-222.3654,-165.87963)"><g data-paper-data="{&quot;isPaintingLayer&quot;:true}" fill-rule="nonzero" stroke-linecap="butt" stroke-linejoin="miter" stroke-miterlimit="10" stroke-dasharray="" stroke-dashoffset="0" style="mix-blend-mode: normal"><path d="M227.88639,168.7779c5.17752,-4.2436 13.90383,-3.79577 18.48837,1.13715c0.0834,0.09288 0.16434,0.18303 0.24529,0.27319c0.56401,0.58897 1.13193,1.15951 1.56061,1.85678c0.72826,1.27219 1.70694,2.081 2.84097,2.98162c0.62474,-0.52027 1.00902,-0.8252 1.85577,-0.76803c0.11731,0.01188 0.23116,0.02341 0.34502,0.03494c0.46924,0.03262 0.9382,0.06589 1.40701,0.10424c0.17011,0.01441 0.33523,0.02839 0.50034,0.04238c0.58691,0.04839 1.17381,0.09696 1.76063,0.14662c0.13413,0.49442 0.18804,0.97582 0.2267,1.48691c0.01287,0.18158 0.01287,0.18158 0.02548,0.35957c0.02899,0.39408 0.05763,0.78817 0.08545,1.18233c0.01474,0.21044 0.01474,0.21044 0.02918,0.41672c0.12267,1.72972 0.23897,3.45909 0.31035,5.19178c0.00672,0.18207 0.01324,0.35878 0.01977,0.5355c0.02137,0.55834 0.05589,1.11834 0.03668,1.67695c-0.14672,0.14662 -0.14672,0.14662 -0.50893,0.16609c-0.15121,-0.00038 -0.29798,-0.00076 -0.44474,-0.00114c-0.26906,0.00069 -0.53829,-0.00389 -0.80696,-0.01833c-0.04988,-0.04985 -0.0983,-0.09823 -0.14672,-0.14662c-0.402,-0.02042 -0.77446,-0.03183 -1.17376,0c-0.69113,0.24024 -1.27052,0.37081 -2.00306,0.36197c-0.40819,-0.08145 -0.54045,-0.19171 -0.80295,-0.50858c-0.09354,-0.14955 -0.18431,-0.29471 -0.2751,-0.43986c-0.45356,0.60954 -0.94806,1.07084 -1.54055,1.54866c-0.69855,0.55003 -1.3241,1.09977 -1.86494,1.80925c-0.52672,0.73825 -1.02284,1.43536 -1.74057,1.99596c-0.09607,0.074 -0.18931,0.14582 -0.28255,0.21764c-0.39093,0.33538 -0.78247,0.66791 -1.18292,0.99196c-3.00086,2.281 -6.79827,3.05998 -10.49961,2.56353c-3.72553,-0.66564 -7.19653,-2.59999 -9.39291,-5.74103c-0.06762,-0.10437 -0.13325,-0.20568 -0.19888,-0.30698c-1.47476,-2.24957 -2.23171,-4.66124 -2.38878,-7.34008c-0.08558,-3.59181 1.00062,-7.28117 3.52184,-9.92537c0.16874,-0.16602 0.16874,-0.16602 0.33413,-0.32875c0.53716,-0.5381 1.083,-1.06178 1.66034,-1.55696z" data-paper-data="{&quot;index&quot;:null}" fill="#f7f274" stroke="none" stroke-width="1"/><path d="M252.03149,174.48602c0.39031,-0.2418 0.39031,-0.2418 1.6276,-0.16552c0.15357,0.01266 0.30263,0.02495 0.45169,0.03723c0.2489,0.02025 0.2489,0.02025 0.49288,0.04009c0.17265,0.01441 0.34022,0.02839 0.50779,0.04238c0.59301,0.04851 1.18602,0.09716 1.77897,0.14662c0.13413,0.49443 0.18804,0.97582 0.2267,1.48691c0.00866,0.12226 0.01708,0.24091 0.02548,0.35957c0.02899,0.39408 0.05763,0.78817 0.08545,1.18233c0.00993,0.14168 0.01955,0.2792 0.02918,0.41672c0.12267,1.72973 0.23897,3.45909 0.31035,5.19178c0.00672,0.18207 0.01324,0.35878 0.01977,0.5355c0.02137,0.55834 0.05589,1.11834 0.03668,1.67695c-0.14672,0.14662 -0.14672,0.14662 -0.50893,0.16609c-0.15121,-0.00038 -0.29798,-0.00076 -0.44474,-0.00114c-0.26906,0.00069 -0.53829,-0.00389 -0.80696,-0.01833c-0.0741,-0.07404 -0.0741,-0.07404 -0.14672,-0.14662c-0.402,-0.02042 -0.77446,-0.03183 -1.17376,0c-0.79862,0.27758 -1.50147,0.39663 -2.34751,0.29323c-0.32026,-0.32003 -0.52341,-0.62625 -0.7336,-1.02633c0.04988,-0.0997 0.0983,-0.19646 0.14672,-0.29323c0.78342,-1.49513 1.3787,-2.71939 1.33824,-4.44838c-0.00604,-0.13261 -0.01191,-0.26132 -0.01777,-0.39003c-0.04439,-1.05114 -0.3436,-2.05284 -0.93018,-2.93466c-0.37,-0.49298 -0.62689,-0.83899 -0.68374,-1.46389c0.06587,-0.06543 0.12979,-0.12894 0.19372,-0.19244c0.09003,-0.08412 0.1774,-0.16577 0.26478,-0.24742c0.08769,-0.08412 0.1728,-0.16578 0.25791,-0.24742z" data-paper-data="{&quot;index&quot;:null}" fill="#38333a" stroke="none" stroke-width="1"/><path d="M251.90196,184.11698c0.04988,0.2991 0.0983,0.5894 0.14672,0.87971c0.94781,0.04985 1.86774,0.09823 2.78767,0.14662c0,0.04985 0,0.09823 0,0.14662c-0.88191,0.39169 -1.67136,0.57854 -2.64095,0.43986c-0.31638,-0.31616 -0.51028,-0.64087 -0.7336,-1.02633c0.14965,-0.1994 0.29491,-0.39294 0.44016,-0.58647z" data-paper-data="{&quot;index&quot;:null}" fill="#4d484f" stroke="none" stroke-width="1"/><path d="M251.02164,175.02666c0.47103,-0.35304 0.78495,-0.53984 1.32047,-0.73309c-0.35931,0.33145 -0.68255,0.58434 -0.84363,1.05382c-0.03668,0.26575 -0.03668,0.26575 -0.1834,0.55898c-0.6485,-0.64805 -1.27793,-1.27703 -1.90735,-1.90603c0.09977,-0.04985 0.1966,-0.09824 0.29344,-0.14662c0.44896,0.3988 0.88471,0.78587 1.32047,1.17294z" data-paper-data="{&quot;index&quot;:null}" fill="#ded175" stroke="none" stroke-width="1"/><path d="M257.62403,184.11697c0.00176,0.09639 0.00346,0.18994 0.00516,0.2835c0.00136,0.12482 0.00268,0.24598 0.00401,0.36712c0.00315,0.22299 0.00137,0.4462 -0.00917,0.66895c-0.14672,0.14662 -0.14672,0.14662 -0.482,0.16094c-0.13855,-0.00175 -0.27302,-0.00345 -0.40749,-0.00515c-0.24149,-0.00236 -0.48296,-0.00522 -0.72443,-0.00916c0.04988,-0.14956 0.0983,-0.29471 0.14672,-0.43986c0.44896,0 0.88471,0 1.32047,0c0,-0.34894 0,-0.68763 0,-1.02632c0.04988,0 0.0983,0 0.14672,0z" data-paper-data="{&quot;index&quot;:null}" fill="#6e6583" stroke="none" stroke-width="1"/><path d="M252.11287,185.13417c0.42622,0.01039 0.42912,0.14146 0.82587,0.20217c0.12452,0.01227 0.24538,0.02417 0.36623,0.03608c0.18552,0.0188 0.18552,0.0188 0.36737,0.03723c0.14327,0.01359 0.14327,0.01359 0.2837,0.02691c-0.29344,0.29324 -0.29344,0.29324 -0.62757,0.34249c-0.1327,0.00195 -0.2615,0.00384 -0.3903,0.00573c-0.38915,0.0126 -0.38915,0.0126 -0.74277,-0.05498c-0.2665,-0.29668 -0.2665,-0.29668 -0.44016,-0.58648c0.1806,-0.00462 0.1806,-0.00462 0.35763,-0.00916z" data-paper-data="{&quot;index&quot;:null}" fill="#8c878b" stroke="none" stroke-width="1"/><path d="M251.90196,184.117c0.04988,0.34894 0.0983,0.68763 0.14672,1.02632c-0.14966,0 -0.29491,0 -0.44016,0c-0.04988,-0.14955 -0.0983,-0.29471 -0.14672,-0.43986c0.21091,-0.32072 0.21091,-0.32072 0.44016,-0.58647z" data-paper-data="{&quot;index&quot;:null}" fill="#605b55" stroke="none" stroke-width="1"/><path d="M252.03148,174.48601c0.39031,-0.2418 0.39031,-0.2418 1.6276,-0.16552c0.15357,0.01266 0.30263,0.02495 0.45169,0.03723c0.2489,0.02025 0.2489,0.02025 0.49288,0.04009c0.17265,0.01441 0.34022,0.02839 0.50779,0.04238c0.59301,0.04851 1.18602,0.09716 1.77897,0.14662c0.13413,0.49443 0.18804,0.97582 0.2267,1.48691c0.00866,0.12226 0.01708,0.24091 0.02548,0.35957c0.02899,0.39408 0.05763,0.78817 0.08545,1.18233c0.00993,0.14168 0.01955,0.2792 0.02918,0.41672c0.12267,1.72973 0.23897,3.45909 0.31035,5.19178c0.00672,0.18207 0.01324,0.35878 0.01977,0.5355c0.02137,0.55834 0.05589,1.11834 0.03668,1.67695c-0.14672,0.14662 -0.14672,0.14662 -0.50893,0.16609c-0.15121,-0.00038 -0.29798,-0.00076 -0.44474,-0.00114c-0.26906,0.00069 -0.53829,-0.00389 -0.80696,-0.01833c-0.0741,-0.07404 -0.0741,-0.07404 -0.14672,-0.14662c-0.402,-0.02042 -0.77446,-0.03183 -1.17376,0c-0.79862,0.27758 -1.50147,0.39663 -2.34751,0.29323c-0.32026,-0.32003 -0.52341,-0.62625 -0.7336,-1.02633c0.04988,-0.0997 0.0983,-0.19646 0.14672,-0.29323c0.78342,-1.49513 1.3787,-2.71939 1.33824,-4.44838c-0.00604,-0.13261 -0.01191,-0.26132 -0.01777,-0.39003c-0.04439,-1.05114 -0.3436,-2.05284 -0.93018,-2.93466c-0.37,-0.49298 -0.62689,-0.83899 -0.68374,-1.46389c0.06587,-0.06543 0.12979,-0.12894 0.19372,-0.19244c0.09003,-0.08412 0.1774,-0.16577 0.26478,-0.24742c0.08769,-0.08412 0.1728,-0.16578 0.25791,-0.24742z" data-paper-data="{&quot;index&quot;:null}" fill="#000000" stroke="none" stroke-width="1"/><path d="M243.40772,181.8501v-4h10.75v4z" fill="none" stroke="#000000" stroke-width="0.5"/></g></g></svg>