<svg version="1.1" xmlns="http://www.w3.org/2000/svg" xmlns:xlink="http://www.w3.org/1999/xlink" width="93.86792" height="126.33024" viewBox="0,0,93.86792,126.33024"><g transform="translate(-187.73076,-78.87256)"><g data-paper-data="{&quot;isPaintingLayer&quot;:true}" fill-rule="nonzero" stroke="none" stroke-width="1" stroke-linecap="butt" stroke-linejoin="miter" stroke-miterlimit="10" stroke-dasharray="" stroke-dashoffset="0" style="mix-blend-mode: normal"><g><path d="M247.83055,81.48156c1.70255,1.87038 2.248,3.90606 3.00309,6.28705c0.70766,2.40595 0.70766,2.40595 2.48326,4.00763c1.68163,0.30259 2.82396,-0.02931 4.46261,-0.49538c0.54125,-0.15045 1.08249,-0.30088 1.64015,-0.45588c0.93287,-0.26948 1.86335,-0.54776 2.7884,-0.84304c2.74568,-0.60789 5.99657,-0.35703 8.41459,1.12746c1.574,1.44221 2.93471,2.96567 3.43255,5.07016c0.00786,3.08906 -0.7308,5.18259 -2.33483,7.80068c-0.309,0.53997 -0.618,1.07995 -0.93636,1.63629c-0.30589,0.53422 -0.61175,1.06844 -0.92691,1.61884c-0.30899,0.53997 -0.61799,1.07995 -0.93635,1.63629c-0.43455,0.75051 -0.87829,1.49648 -1.35329,2.22202c0.47054,0.32923 0.94109,0.65844 1.4259,0.99762c1.37003,0.95855 2.25735,2.03956 3.28655,3.352c0.67278,0.63817 1.35055,1.2711 2.03244,1.89954c4.90533,4.9354 7.14961,11.92649 7.28632,18.78791c-0.05295,3.20545 -0.67392,6.22574 -1.30071,9.35916c-0.37679,1.9166 -0.73217,3.836 -1.0767,5.75862c-0.05747,0.31434 -0.11494,0.62867 -0.17415,0.95254c-0.30621,1.72125 -0.54892,3.43403 -0.73402,5.17266c-0.29248,2.60593 -0.81492,5.14538 -1.36006,7.70861c-1.97781,9.31149 -3.27209,18.71224 -4.53269,28.14297c-0.15501,1.15123 -0.31017,2.30242 -0.46546,3.45362c-0.37525,2.78393 -0.74883,5.56808 -1.12103,8.35241c-1.4046,-0.16405 -1.4046,-0.16405 -2.75448,-0.7966c-0.97732,0.15493 -0.97732,0.15493 -1.98414,0.48063c-1.03171,0.30988 -1.03171,0.30988 -1.92562,0.48744c-0.29095,-0.19068 -0.58191,-0.38139 -0.88169,-0.57787c0.03612,-0.30923 0.07223,-0.61844 0.10944,-0.93702c-1.74434,-0.21806 -3.48937,-0.42993 -5.23457,-0.64104c-0.47544,-0.0595 -0.95085,-0.11901 -1.44071,-0.18033c-3.22165,-0.3862 -6.43747,-0.65036 -9.67444,-0.85629c-5.0364,-0.32612 -10.04516,-0.82584 -15.05876,-1.40165c-1.43316,-0.16274 -2.86717,-0.3154 -4.30142,-0.46805c-7.30997,-0.8147 -14.15644,-2.47769 -21.17416,-4.63974c-2.01624,-0.59879 -3.60215,-0.74176 -5.69061,-0.5459c-0.46351,-0.05413 -0.92704,-0.10827 -1.4046,-0.16405c-0.46445,-1.98998 -0.6863,-3.82892 -0.70845,-5.87064c-0.01524,-0.85944 -0.01524,-0.85944 -0.03081,-1.73625c-0.00554,-0.31272 -0.01107,-0.62541 -0.01678,-0.9476c-0.04294,-1.98455 -0.11545,-3.96792 -0.18966,-5.95149c-0.01331,-0.40174 -0.0266,-0.80346 -0.04031,-1.21737c0.07888,-1.83731 0.07888,-1.83731 -0.57084,-3.45465c-0.07939,-1.2351 -0.13926,-2.46648 -0.19044,-3.70274c-0.01822,-6.51914 -0.01822,-6.51914 -2.71662,-12.04148c-0.4353,-0.29571 -0.87061,-0.59143 -1.3191,-0.8961c-1.58481,-2.68459 -1.58481,-2.68459 -1.43505,-3.96683c-0.44546,-0.20875 -0.89092,-0.4175 -1.34988,-0.63256c-1.46951,-4.90838 -1.95821,-9.99236 0.29169,-14.68797c1.12469,-1.92473 2.33636,-3.75488 3.77099,-5.46249c0.90405,-1.28181 1.20083,-2.30575 1.5558,-3.829c2.01688,-7.75533 5.32307,-14.63324 11.80774,-19.5761c0.19063,-0.29118 0.38125,-0.58236 0.57763,-0.88234c0.30902,0.03609 0.61803,0.07218 0.93641,0.10937c0.03612,-0.30923 0.07223,-0.61845 0.10944,-0.93704c0.30901,0.03609 0.61803,0.07218 0.9364,0.10936c-0.73354,-3.1247 -1.71739,-5.95682 -3.10972,-8.85025c-0.91787,-2.04897 -0.80164,-3.62808 -0.39892,-5.80666c1.2728,-2.79282 2.63116,-4.05121 5.46594,-5.14952c3.01031,-0.52046 5.30805,-0.36523 8.15549,0.77442c1.24962,0.46296 1.24962,0.46296 2.48579,0.55747c1.58509,-0.80209 2.58,-2.02129 3.71516,-3.36534c7.4977,-7.96549 7.4977,-7.96549 11.04857,-8.50451c3.71533,0.06745 6.45412,0.59873 9.63195,2.60902z" fill="#110613"/><path d="M261.01269,110.32813c0.78932,0.49947 1.5787,0.99882 2.3706,1.49417c4.14239,2.61638 7.22898,5.43833 9.8586,9.57505c0.63911,0.99532 0.63911,0.99532 1.90815,1.97963c5.48687,11.67028 2.7288,25.53317 -1.04541,37.39534c-0.19063,0.29118 -0.38124,0.58236 -0.57764,0.88235c-1.09171,3.8482 -1.5369,7.87209 -2.1094,11.82288c-0.10036,0.68423 -0.20088,1.36845 -0.30154,2.05263c-0.26225,1.78527 -0.52253,3.57079 -0.78239,5.35641c-0.26643,1.82827 -0.53474,3.65625 -0.80288,5.48427c-0.52416,3.57533 -1.04627,7.15097 -1.56703,10.72681c-0.997,0.19147 -1.99441,0.38081 -2.99199,0.56928c-0.55539,0.10569 -1.11079,0.21136 -1.68299,0.32024c-2.21016,0.37095 -4.37586,0.4921 -6.61311,0.52282c-0.42418,0.0088 -0.84837,0.01761 -1.2854,0.02668c-3.48606,0.04282 -6.83608,-0.2548 -10.28316,-0.78418c0.22534,-5.15481 0.59797,-10.2782 1.15874,-15.40745c0.08221,-0.77164 0.15938,-1.54378 0.23161,-2.31641c0.48258,-5.14443 1.03501,-10.43073 4.96049,-14.23451c0.81251,-0.58186 0.81251,-0.58186 2.47386,-1.44152c0.2914,-0.15815 0.58279,-0.31631 0.88302,-0.47924c1.17019,-0.63079 2.36261,-1.21562 3.55176,-1.80956c2.2539,-1.15816 3.76083,-2.63207 5.44288,-4.4918c0.26111,-0.2505 0.52223,-0.50099 0.79127,-0.75907c0.30901,0.03609 0.61802,0.07218 0.9364,0.10936c0.10936,-0.34963 0.21872,-0.69928 0.33138,-1.05952c0.41042,-1.22836 0.41042,-1.22836 1.04277,-2.57924c0.18836,-0.92569 0.34324,-1.85849 0.47463,-2.79398c0.07506,-0.49078 0.15012,-0.98155 0.22746,-1.48719c0.08695,-1.37105 0.08695,-1.37105 -0.81189,-2.30239c-1.38164,-0.97202 -2.04403,-1.11126 -3.7514,-0.99096c-2.79613,1.26904 -5.0284,3.10598 -7.23699,5.20238c-1.3907,1.2295 -2.85905,2.32442 -4.35883,3.4163c-0.27434,0.20227 -0.54867,0.40454 -0.83132,0.61295c-1.99043,1.43201 -1.99043,1.43201 -3.04157,1.30924c-0.03611,0.30922 -0.07223,0.61844 -0.10944,0.93703c-1.26118,0.38743 -2.52251,0.77432 -3.78396,1.16086c-0.35503,0.10913 -0.71006,0.21826 -1.07587,0.3307c-2.9365,0.89908 -5.80878,1.68359 -8.85169,2.13098c-0.44163,0.0727 -0.88325,0.1454 -1.33825,0.22029c-3.76019,0.57015 -7.00145,0.55533 -10.67912,-0.43657c-6.27721,-1.62573 -12.7516,-1.25949 -18.54934,1.87026c-1.3802,2.39234 -1.02433,5.79149 -0.51674,8.48793c1.28155,2.15083 3.4562,2.82796 5.75828,3.52195c4.73682,0.86679 9.34988,1.05897 14.15545,0.70343c0.68092,-0.03157 0.68092,-0.03157 1.3756,-0.06381c2.33368,-0.07712 2.33368,-0.07712 4.45075,-0.94941c1.00205,-0.5638 1.00205,-0.5638 2.87485,-0.34508c-0.06021,4.62512 -2.07175,8.19674 -4.32096,12.13969c-1.53986,2.70608 -2.54328,5.44055 -3.48313,8.41046c-0.44082,1.28232 -0.44082,1.28232 -0.96374,1.69616c-4.29586,-0.39757 -8.4013,-1.76883 -12.48257,-3.09035c-0.50051,-0.16169 -1.00101,-0.32339 -1.51669,-0.48996c-2.17127,-0.71826 -4.17303,-1.43383 -6.16379,-2.57382c-0.00407,-0.35106 -0.00816,-0.70213 -0.01235,-1.06384c0.77974,-11.91303 0.77974,-11.91303 -1.93369,-22.90867c-0.00821,-0.87903 0.00934,-1.75838 0.04101,-2.63686c0.01614,-0.47867 0.03229,-0.95736 0.04891,-1.45054c0.01445,-0.36991 0.0289,-0.73981 0.04379,-1.12093c7.7616,-1.99122 7.7616,-1.99122 11.67455,-2.43574c-0.13644,-0.17265 -0.27291,-0.34531 -0.41348,-0.52319c-1.34823,0.11426 -2.68132,0.25726 -4.02377,0.42049c-8.59509,0.96431 -8.59509,0.96431 -11.64571,-0.35095c0.05417,-0.46383 0.10834,-0.92766 0.16416,-1.40555c0.47763,0.03803 0.95527,0.07607 1.44737,0.11525c5.69832,0.40954 10.90029,0.15004 16.31378,-1.84011c0.31794,-0.11377 0.6359,-0.22754 0.96349,-0.34475c1.11747,-0.40222 2.23071,-0.81469 3.3434,-1.22995c0.35947,-0.13042 0.71894,-0.26084 1.0893,-0.39521c2.44977,-0.93737 4.17279,-2.13493 6.1932,-3.80009c0.30902,0.03609 0.61803,0.07218 0.9364,0.10936c-0.85236,2.89466 -3.50959,4.69418 -6.05041,6.09042c-0.45537,0.21129 -0.91073,0.42255 -1.37989,0.64024c-0.86262,0.61154 -0.86262,0.61154 -1.56876,1.2415c-0.52292,0.41383 -1.04583,0.82767 -1.56876,1.24149c0.82187,-0.37417 0.82187,-0.37417 1.66035,-0.7559c1.31554,-0.59892 1.75429,-0.74492 3.24053,-0.57134c0.03611,-0.30922 0.07223,-0.61844 0.10944,-0.93703c0.36988,-0.16555 0.73976,-0.33111 1.12085,-0.50167c1.49599,-0.68133 2.41533,-1.46899 3.60139,-2.59762c0.65605,-0.62311 1.32624,-1.2324 2.02098,-1.81199c0.30902,0.03609 0.61803,0.07218 0.93641,0.10937c0.18711,0.3255 0.37423,0.651 0.56702,0.98636c0.56063,1.17971 0.56063,1.17971 1.96858,1.68432c-0.03611,0.30922 -0.07223,0.61844 -0.10944,0.93702c0.35197,0.12925 0.35197,0.12925 0.71104,0.26114c1.10703,0.42612 1.10703,0.42612 2.47935,1.12066c3.30181,1.34502 6.56195,1.07044 9.83979,-0.18645c2.26996,-1.01083 4.24688,-2.22096 6.24503,-3.69317c-1.99583,0.68549 -3.87196,1.5872 -5.778,2.48812c-2.14858,0.87469 -3.90256,0.74214 -6.19905,0.50593c-0.52769,-0.04939 -1.0554,-0.09878 -1.59908,-0.14966c-1.55346,-0.35066 -2.16595,-0.70328 -3.13918,-1.94717c0.03612,-0.30923 0.07223,-0.61845 0.10944,-0.93703c0.70735,0.06425 0.70735,0.06425 1.42899,0.1298c4.33777,0.34304 8.15469,0.12714 12.42241,-0.88657c0.48158,-0.10048 0.96314,-0.20095 1.45932,-0.30447c0.05417,-0.46382 0.10834,-0.92766 0.16416,-1.40554c-0.47213,0.15056 -0.94426,0.3011 -1.43069,0.45621c-6.09439,1.80432 -11.63663,1.91586 -17.51619,-0.76946c0.03611,-0.30922 0.07223,-0.61845 0.10944,-0.93703c0.34364,0.02239 0.68729,0.04476 1.04136,0.06782c6.79614,0.36288 13.64319,0.32909 20.14522,-1.83598c0.37802,-0.12562 0.75605,-0.25122 1.14553,-0.38065c1.43962,-0.48503 2.87518,-0.98146 4.30906,-1.48319c0.86702,-0.27879 0.86702,-0.27879 2.32635,-0.58327c0.03611,-0.30922 0.07223,-0.61844 0.10944,-0.93702c0.71544,-0.3801 1.43308,-0.75667 2.16158,-1.11104c2.5202,-1.26499 4.57942,-2.68098 6.15041,-5.04174c0.46026,-1.52731 0.76811,-3.05561 1.01539,-4.63045c-0.7732,-0.39921 -1.54772,-0.79582 -2.32277,-1.19142c-0.43116,-0.22115 -0.86233,-0.44231 -1.30656,-0.67017c-7.15966,-3.37628 -17.034,-3.16718 -24.53983,-1.01283c-0.65838,0.24685 -1.31181,0.50732 -1.95981,0.78028c-0.40436,0.15174 -0.80873,0.30346 -1.22534,0.4598c-4.83883,1.95692 -8.05475,5.18447 -10.85653,9.52683c-0.61803,-0.07218 -1.23605,-0.14436 -1.8728,-0.21873c0.56402,-6.82911 2.51836,-13.21298 7.88255,-17.8251c1.83978,-1.24243 3.88258,-2.03931 5.92604,-2.88266c0.49963,-0.25509 0.99927,-0.51016 1.51404,-0.77298c4.46901,-1.39472 8.65134,-1.06667 13.23194,-0.53231c0.53753,0.06208 1.07506,0.12419 1.62889,0.18816c3.18184,0.41317 6.12012,1.07086 9.12681,2.19592c0.05417,-0.46382 0.10834,-0.92766 0.16416,-1.40554c-3.17292,-1.39321 -6.27233,-1.8653 -9.70224,-2.26105c-0.84156,-0.09714 -0.84156,-0.09714 -1.70012,-0.19625c-4.40895,-0.45342 -8.25707,-0.34977 -12.58528,0.60552c-0.6791,0.11811 -0.6791,0.11811 -1.37192,0.23861c-4.94472,1.03165 -9.25079,4.46398 -12.0051,8.64695c-0.74775,1.47579 -1.38501,2.96725 -1.95179,4.52109c-1.62508,0.32406 -2.21786,0.31354 -3.62558,-0.62379c-1.78423,-1.15329 -3.21385,-1.30526 -5.29342,-1.48641c-0.35092,-0.03579 -0.70183,-0.07157 -1.06338,-0.10844c-2.43487,-0.23514 -4.83952,-0.34232 -7.28631,-0.27312c-0.03611,0.30922 -0.07223,0.61844 -0.10944,0.93702c-0.56109,0.11078 -1.12217,0.22155 -1.70026,0.33569c-2.05979,0.49721 -3.66355,1.39369 -5.43825,2.5315c-0.84516,0.47451 -0.84516,0.47451 -1.78157,0.36515c-0.05015,-1.69096 0.2208,-2.28103 1.33806,-3.58359c3.21749,-2.80374 7.16645,-5.34699 11.53265,-5.1255c0.88374,0.08238 1.76644,0.17665 2.64781,0.28142c0.45676,0.05243 0.91352,0.10485 1.38411,0.15888c3.7661,0.52395 6.33841,1.61549 9.20097,4.19395c0.07223,-0.61844 0.14446,-1.23688 0.21888,-1.87406c-0.38977,-0.18266 -0.77956,-0.36531 -1.18115,-0.55348c-0.91572,-0.4291 -1.82566,-0.87142 -2.72273,-1.33829c-3.93367,-1.67919 -9.55042,-2.80297 -13.72357,-1.59169c-1.10116,0.45598 -2.15129,0.9495 -3.20054,1.51469c-0.81866,0.39042 -0.81866,0.39042 -1.75506,0.28105c0.07459,-4.19696 4.24967,-8.05045 7.12711,-10.83801c0.2573,-0.24237 0.5146,-0.48475 0.7797,-0.73445c0.24944,-0.23534 0.49889,-0.47065 0.75589,-0.71312c1.17786,-1.07059 1.85796,-1.64156 3.44343,-1.97235c0.03612,-0.30923 0.07223,-0.61845 0.10944,-0.93704c2.51131,-1.94787 5.17364,-3.11241 8.25116,-3.82247c1.32011,-0.29106 1.32011,-0.29106 2.86716,-0.819c1.92566,-0.58143 3.80083,-0.7116 5.80177,-0.80277c2.37358,-0.0595 2.37358,-0.0595 4.66565,-0.58297c8.99613,-0.53383 17.51073,1.48148 24.84506,6.70094z" fill="#8d57aa"/><path d="M242.43237,81.68587c1.67482,0.6007 2.47837,1.28501 3.57939,2.67014c-0.03611,0.30921 -0.07223,0.61844 -0.10944,0.93702c0.43251,0.09184 0.43251,0.09184 0.87375,0.18553c0.94433,0.50171 0.94433,0.50171 1.29621,1.63175c0.07024,0.46185 0.1405,0.92367 0.21289,1.3995c0.48802,2.31215 1.03808,3.87409 2.77326,5.50888c2.21559,1.32595 4.57915,0.6918 6.95221,0.10889c1.61317,-0.53864 1.61317,-0.53864 2.99045,-1.22386c2.62918,-0.70283 5.74141,-0.62142 8.16483,0.74212c0.78477,0.66414 1.44261,1.39897 2.08011,2.20562c-0.04841,3.16025 -0.72236,5.59576 -2.38954,8.2692c-0.4906,0.17778 -0.4906,0.17778 -0.99111,0.35915c-0.46513,0.81243 -0.89368,1.64615 -1.2993,2.48992c-0.22075,0.45477 -0.44148,0.90957 -0.66891,1.37812c-0.25072,0.52813 -0.25072,0.52813 -0.5065,1.0669c-1.90548,-0.38076 -3.30119,-1.10715 -4.91042,-2.14662c-7.01324,-4.2667 -14.49963,-5.46011 -22.6344,-5.81946c-0.4906,0.17776 -0.4906,0.17776 -0.99111,0.35914c-0.75258,0.01817 -1.50538,0.02746 -2.25815,0.03307c-3.04711,0.13131 -5.986,0.63797 -8.98014,1.20698c-0.46125,0.08487 -0.92249,0.16973 -1.39772,0.25716c-2.53375,0.49932 -4.55181,1.1512 -6.80334,2.40615c-0.30902,-0.03609 -0.61803,-0.07218 -0.93641,-0.10937c-0.03612,0.30923 -0.07223,0.61845 -0.10944,0.93703c-1.51404,0.77297 -1.51404,0.77297 -2.91863,0.60893c-0.11338,-0.45401 -0.22675,-0.90803 -0.34357,-1.37579c-0.4934,-1.72978 -1.26424,-3.20387 -2.11038,-4.78776c-1.10567,-2.2268 -1.49271,-3.73357 -1.10564,-6.18416c0.47462,-1.1351 0.84402,-1.48527 1.92374,-2.09048c2.89535,-0.76395 5.48753,-0.40693 8.42341,0.00431c0.87352,0.11836 1.74731,0.23474 2.62139,0.34882c0.38272,0.05324 0.76543,0.10645 1.15975,0.1613c1.09613,0.13374 1.09613,0.13374 2.47381,-0.22483c0.59261,-0.81071 0.59261,-0.81071 1.15527,-1.76468c0.79878,-0.86161 1.62647,-1.68711 2.45913,-2.51585c0.82936,-0.8804 0.82936,-0.8804 1.35197,-1.98844c2.49703,-4.44209 6.14987,-5.79469 10.97259,-5.04436z" fill="#fd48d4"/><path d="M264.34906,147.28543c1.29135,0.62573 1.29135,0.62573 1.84128,1.75849c0.26693,3.11947 -1.71608,5.63293 -3.51711,8.01878c-1.74725,1.59787 -3.71821,2.79031 -5.69738,4.08363c-0.64881,0.52661 -0.64881,0.52661 -1.31072,1.06386c-3.44358,2.65501 -3.44358,2.65501 -5.26836,2.44189c-0.03612,0.30923 -0.07223,0.61844 -0.10944,0.93703c-2.09304,0.79347 -4.1501,1.50283 -6.32029,2.05189c-1.85244,0.48215 -3.57917,1.1032 -5.34628,1.83917c-1.85605,0.77207 -3.63902,1.39295 -5.59897,1.82819c-1.15695,0.2602 -2.29524,0.57107 -3.43855,0.88584c-0.4144,0.112 -0.82881,0.22399 -1.25576,0.33936c-0.73663,0.19994 -1.47246,0.40279 -2.20693,0.61045c-4.28169,1.15634 -8.38815,1.14754 -12.76503,0.59798c-0.64295,-0.06959 -0.64295,-0.06959 -1.29889,-0.14058c-3.42815,-0.41049 -5.50209,-1.21095 -7.81091,-3.89154c-1.14501,-2.04623 -0.56867,-4.10385 -0.12359,-6.30692c0.76001,-1.23771 1.61908,-1.45345 2.98133,-1.90759c2.76404,-0.48075 5.08951,-0.46833 7.85236,-0.05868c0.7631,0.10116 1.52623,0.20201 2.28939,0.30262c1.17847,0.16098 2.35635,0.32498 3.53361,0.49456c7.47586,1.06333 13.92836,0.75756 21.10515,-1.90034c0.75699,-0.25869 0.75699,-0.25869 1.52929,-0.52261c2.83384,-0.98235 5.37055,-2.10269 7.96842,-3.59207c0.30901,0.03609 0.61803,0.07218 0.9364,0.10936c0.38124,-0.58236 0.76249,-1.1647 1.15528,-1.7647c0.30901,0.03609 0.61803,0.07218 0.9364,0.10936c0.31301,-0.66866 0.31301,-0.66866 0.63235,-1.35085c0.30902,0.03609 0.61803,0.07218 0.9364,0.10936c0.15345,-0.25573 0.30689,-0.51145 0.46499,-0.77492c0.74,-1.06104 1.53146,-1.8451 2.49276,-2.70856c0.31076,-0.28265 0.62151,-0.5653 0.94169,-0.85652c2.50227,-2.0359 2.50227,-2.0359 4.47108,-1.80596z" fill="#904437"/><path d="M231.29191,173.81846c-0.06021,4.62512 -2.07175,8.19674 -4.32096,12.13969c-1.53986,2.70608 -2.54328,5.44055 -3.48313,8.41046c-0.44082,1.28232 -0.44082,1.28232 -0.96374,1.69616c-4.29586,-0.39757 -8.4013,-1.76882 -12.48257,-3.09035c-0.50051,-0.16169 -1.00101,-0.32339 -1.51669,-0.48996c-2.17127,-0.71826 -4.17303,-1.43383 -6.16379,-2.57382c-0.05841,-2.13384 -0.11526,-4.26771 -0.17185,-6.40159c-0.01645,-0.60032 -0.0329,-1.20066 -0.04985,-1.81919c-0.08228,-3.13143 -0.13644,-6.25533 -0.0947,-9.38762c3.40061,0.75833 3.40061,0.75833 4.93158,1.5369c1.72337,0.74908 3.3702,1.00037 5.22025,1.19219c0.52376,0.0574 0.52376,0.0574 1.05811,0.11593c3.13482,0.31246 6.19502,0.26191 9.33616,0.0295c0.45395,-0.02104 0.90788,-0.04211 1.3756,-0.06381c2.33368,-0.07712 2.33368,-0.07712 4.45075,-0.94941c1.00205,-0.5638 1.00205,-0.5638 2.87485,-0.34508z" fill="#8c57a9"/><path d="M242.43237,81.68587c1.67482,0.6007 2.47837,1.28501 3.57939,2.67014c-0.03611,0.30921 -0.07223,0.61844 -0.10944,0.93702c0.28719,0.06048 0.5744,0.12096 0.8703,0.18327c0.94778,0.50398 0.94778,0.50398 1.33065,1.65433c0.11731,0.70056 0.11731,0.70056 0.23699,1.4153c0.48055,2.38244 1.02591,3.69836 2.71843,5.42272c-0.32708,0.11851 -0.65414,0.23703 -0.99111,0.35914c-1.96669,-1.25694 -3.70978,-3.01693 -5.12593,-4.87281c0.03611,-0.30922 0.07223,-0.61845 0.10944,-0.93702c-0.48327,-0.26215 -0.48327,-0.26215 -0.97631,-0.52958c-0.78105,-0.42366 -1.55231,-0.86664 -2.30567,-1.33781c-1.55177,-0.72717 -2.74174,-0.89916 -4.45855,-0.93626c-1.45052,0.7576 -1.45052,0.7576 -2.71455,1.90907c-0.65444,0.54341 -0.65444,0.54341 -1.32209,1.09778c-1.93719,1.83795 -3.04176,3.07538 -3.24923,5.7887c-0.03564,0.41517 -0.07129,0.83038 -0.10801,1.25812c-0.03004,0.46939 -0.03004,0.46939 -0.06071,0.94829c2.01026,0.3184 3.75375,0.58812 5.76432,0.16865c2.8666,-0.36023 5.53769,0.38153 8.3364,1.00331c-0.03611,0.30921 -0.07223,0.61844 -0.10944,0.93702c0.5999,0.14353 0.5999,0.14353 1.21193,0.28995c1.63341,0.5365 2.77077,1.27782 4.1876,2.2403c0.8928,0.43657 1.79095,0.86295 2.69976,1.26511c-1.59948,0.33371 -2.71504,0.20477 -4.3323,-0.00138c-0.84175,-0.10383 -0.84175,-0.10383 -1.70051,-0.20974c-0.58625,-0.07458 -1.17248,-0.14918 -1.77647,-0.22602c-1.15995,-0.14754 -2.32016,-0.29306 -3.48065,-0.43621c-0.51512,-0.06566 -1.03026,-0.13134 -1.56099,-0.199c-1.22843,-0.18475 -1.22843,-0.18475 -2.24092,0.25956c-0.75258,0.01817 -1.50538,0.02746 -2.25815,0.03307c-3.04711,0.13131 -5.986,0.63797 -8.98014,1.20698c-0.46125,0.08487 -0.92249,0.16973 -1.39772,0.25716c-2.53375,0.49932 -4.55181,1.1512 -6.80334,2.40615c-0.30902,-0.03609 -0.61803,-0.07218 -0.93641,-0.10937c-0.03612,0.30923 -0.07223,0.61845 -0.10944,0.93703c-1.51404,0.77297 -1.51404,0.77297 -2.91863,0.60893c-0.11338,-0.45401 -0.22675,-0.90803 -0.34357,-1.37579c-0.4934,-1.72978 -1.26424,-3.20387 -2.11038,-4.78776c-1.10567,-2.2268 -1.49271,-3.73357 -1.10564,-6.18416c0.47462,-1.1351 0.84402,-1.48527 1.92374,-2.09048c2.89535,-0.76395 5.48753,-0.40693 8.42341,0.00431c0.87352,0.11836 1.74731,0.23474 2.62139,0.34882c0.38272,0.05324 0.76543,0.10645 1.15975,0.1613c1.09613,0.13374 1.09613,0.13374 2.47381,-0.22483c0.59261,-0.81071 0.59261,-0.81071 1.15527,-1.76468c0.79878,-0.86161 1.62647,-1.68711 2.45913,-2.51585c0.82936,-0.8804 0.82936,-0.8804 1.35197,-1.98844c2.49703,-4.44209 6.14987,-5.79469 10.97259,-5.04436z" fill="#e73ba8"/><path d="M244.7541,168.2672c0.44546,0.20873 0.89091,0.41749 1.34988,0.63255c-0.21769,0.55764 -0.43538,1.11528 -0.65966,1.68983c-0.9353,2.69719 -1.28617,5.41567 -1.64556,8.2384c-0.07273,0.54414 -0.14547,1.08825 -0.22043,1.64889c-0.2296,1.72453 -0.45322,3.44978 -0.67667,5.17511c-0.15536,1.175 -0.31112,2.34993 -0.46729,3.52483c-0.38038,2.86834 -0.75587,5.73727 -1.12756,8.60673c-3.8465,-0.13897 -7.65199,-0.34791 -11.47052,-0.83508c-0.39447,-0.04823 -0.78893,-0.09644 -1.19535,-0.1461c-0.94676,-0.11603 -1.89316,-0.23507 -2.83945,-0.35481c1.61966,-6.80873 1.61966,-6.80873 3.4901,-9.56538c0.28594,-0.43676 0.57186,-0.87352 0.86646,-1.32351c0.58471,-0.89314 1.17154,-1.78492 1.76033,-2.67539c1.15012,-2.01692 1.43249,-4.10904 1.75942,-6.38196c0.06386,-0.4079 0.12771,-0.81581 0.1935,-1.23608c0.1552,-0.99671 0.30275,-1.99462 0.44871,-2.99272c0.50345,-0.1463 1.00689,-0.29258 1.52558,-0.44328c1.6992,-0.50543 3.37045,-1.06927 5.03907,-1.66913c0.50875,-0.18117 1.01748,-0.36235 1.54165,-0.54901c1.30749,-0.4563 1.30749,-0.4563 2.32781,-1.34391z" fill="#fe48d6"/><path d="M269.31894,132.66894c-0.09029,0.77305 -0.18057,1.54609 -0.27359,2.34257c-0.61803,-0.07218 -1.23606,-0.14436 -1.8728,-0.21873c0.05417,-0.46382 0.10834,-0.92766 0.16416,-1.40554c-3.95393,-1.34265 -7.90129,-2.13256 -12.00905,-2.82728c-0.02971,0.50587 -0.05944,1.01173 -0.09004,1.53292c-0.31142,2.66643 -1.15353,5.30171 -2.40893,7.6733c-0.48158,0.10046 -0.96314,0.20096 -1.45932,0.30446c-0.39017,0.58488 -0.77438,1.17374 -1.15528,1.76469c-2.00653,1.76786 -4.00101,3.07458 -6.69222,3.37938c-2.77494,-0.17754 -4.60128,-0.62983 -6.52757,-2.69725c-2.14114,-2.76909 -2.14114,-2.76909 -2.08906,-4.49401c0.05466,-0.37377 0.10934,-0.74755 0.16565,-1.13266c0.05267,-0.37768 0.10536,-0.75538 0.15962,-1.1445c0.0445,-0.28681 0.08903,-0.57364 0.13487,-0.86913c-2.58614,1.39475 -4.68814,2.8081 -6.74324,4.91129c-0.34512,0.27313 -0.69025,0.54626 -1.04583,0.82766c-0.29095,-0.19069 -0.5819,-0.3814 -0.88168,-0.57788c3.69265,-5.81186 8.55886,-9.29762 15.2546,-11.00926c1.21615,-0.23494 2.42647,-0.40237 3.65566,-0.55439c0.48419,-0.07568 0.96837,-0.15137 1.46723,-0.22934c7.60254,-1.00434 15.92265,-0.21439 22.24682,4.42368z" fill="#0f0812"/><path d="M261.01269,110.32813c0.69544,0.46138 1.39312,0.91941 2.094,1.37247c0.4728,0.30988 0.94561,0.61978 1.43274,0.93905c-1.70125,0.38405 -2.54826,0.07169 -4.06308,-0.75094c-0.40825,-0.21604 -0.8165,-0.43206 -1.23711,-0.65464c-0.43083,-0.23152 -0.86166,-0.46305 -1.30556,-0.70158c-3.68178,-1.90871 -7.05307,-3.51008 -11.1616,-4.24207c-0.4821,-0.08875 -0.96422,-0.17749 -1.46094,-0.26895c-7.01921,-1.05312 -14.06118,-0.25998 -20.06137,3.72128c-4.51043,3.37902 -6.45895,7.19654 -7.87678,12.58515c0.30902,0.03609 0.61803,0.07218 0.9364,0.10936c0.22674,-0.60039 0.45348,-1.20078 0.68708,-1.81937c0.32699,0.00268 0.65397,0.00536 0.99086,0.00813c4.16828,-0.09523 6.86641,-1.36825 10.29034,-3.64737c0.53481,-0.30485 0.53481,-0.30485 1.08043,-0.61585c0.44546,0.20873 0.89092,0.41749 1.34988,0.63255c-0.05417,0.46383 -0.10834,0.92766 -0.16416,1.40554c-2.25222,1.63658 -2.25222,1.63658 -3.49628,1.49128c-0.03611,0.30922 -0.07223,0.61844 -0.10944,0.93703c-0.82901,0.39049 -1.66499,0.76631 -2.50515,1.13212c-0.24179,0.22643 -0.48358,0.45287 -0.73269,0.68615c-1.31866,0.87591 -2.62776,0.6752 -4.16819,0.64108c-0.03611,0.30922 -0.07223,0.61844 -0.10944,0.93703c-0.27354,-0.05131 -0.5471,-0.10263 -0.82893,-0.15548c-1.26215,-0.2331 -2.52577,-0.45696 -3.78961,-0.68075c-0.43012,-0.08084 -0.86023,-0.16169 -1.30338,-0.24497c-3.59009,-0.62509 -7.09971,-0.91571 -10.40007,0.89644c-1.7208,0.92693 -1.7208,0.92693 -2.73433,0.80856c0.07459,-4.19696 4.24967,-8.05045 7.12711,-10.83801c0.2573,-0.24237 0.5146,-0.48475 0.7797,-0.73445c0.24944,-0.23534 0.49889,-0.47065 0.75589,-0.71312c1.17786,-1.07059 1.85796,-1.64156 3.44343,-1.97235c0.03612,-0.30923 0.07223,-0.61845 0.10944,-0.93704c2.51131,-1.94787 5.17364,-3.11241 8.25116,-3.82247c1.32011,-0.29106 1.32011,-0.29106 2.86716,-0.819c1.92566,-0.58143 3.80083,-0.7116 5.80177,-0.80277c2.37358,-0.0595 2.37358,-0.0595 4.66565,-0.58297c8.9472,-0.53093 17.57538,1.44081 24.84506,6.70094z" fill="#79379c"/><path d="M255.32765,130.55995c4.35985,0.34875 8.03052,0.89314 12.00905,2.82728c-0.95928,3.52689 -3.79242,5.86376 -6.77402,7.82576c-8.3331,4.49283 -17.72385,6.94175 -27.16723,5.9597c-0.50013,-0.04848 -0.50013,-0.04848 -1.01038,-0.09794c-2.62333,-0.33091 -4.04006,-1.18397 -5.65998,-3.23372c-0.10636,-1.47806 0.0619,-2.43801 0.93116,-3.65523c1.95501,-2.15671 4.22697,-3.99884 6.77274,-5.41799c0.30902,0.03609 0.61803,0.07218 0.9364,0.10936c-0.04484,0.39972 -0.04484,0.39972 -0.0906,0.80751c-0.17774,2.67863 0.23624,4.171 1.83445,6.32493c1.88392,2.13725 3.62384,2.37922 6.36155,2.67414c2.98468,-0.20566 5.04317,-1.91204 7.32094,-3.73077c0.2891,-0.19152 0.57821,-0.38304 0.87607,-0.58035c2.32414,-2.21825 2.99963,-6.74601 3.65988,-9.81268z" fill="#f5d2ed"/><path d="M225.65497,148.94c0.30902,0.03609 0.61803,0.07218 0.9364,0.10936c-0.85236,2.89466 -3.50959,4.69418 -6.05041,6.09042c-0.45537,0.21129 -0.91073,0.42255 -1.37989,0.64024c-0.86261,0.61154 -0.86261,0.61154 -1.56876,1.2415c-0.52292,0.41383 -1.04583,0.82767 -1.56876,1.24149c0.54792,-0.24945 1.09583,-0.49889 1.66035,-0.7559c1.31554,-0.59892 1.75429,-0.74492 3.24053,-0.57134c0.03611,-0.30922 0.07223,-0.61844 0.10944,-0.93703c0.36988,-0.16555 0.73976,-0.33111 1.12085,-0.50167c1.496,-0.68133 2.41533,-1.46899 3.60139,-2.59762c0.65605,-0.62311 1.32624,-1.23242 2.02098,-1.81199c0.30902,0.03609 0.61803,0.07218 0.93641,0.10937c0.18711,0.3255 0.37423,0.651 0.56702,0.98636c0.56063,1.17971 0.56063,1.17971 1.96858,1.68432c-0.03611,0.30922 -0.07223,0.61844 -0.10944,0.93702c0.23465,0.08617 0.46928,0.17235 0.71104,0.26114c1.10703,0.42612 1.10703,0.42612 2.47935,1.12066c2.79612,1.16769 5.91394,1.10865 8.75746,0.19172c0.40144,-0.1686 0.80287,-0.3372 1.21647,-0.51091c0.43643,0.28605 0.43643,0.28605 0.88169,0.57787c-0.19727,0.8637 -0.19727,0.8637 -0.68707,1.81937c-1.05301,0.44468 -1.05301,0.44468 -2.34023,0.73585c-0.42024,0.09907 -0.84046,0.19814 -1.27344,0.3002c-0.42477,0.09609 -0.84956,0.19218 -1.28721,0.29118c-0.42651,0.11609 -0.853,0.23218 -1.29243,0.35179c-1.50106,0.40421 -3.00955,0.64035 -4.54484,0.86608c-0.44163,0.0727 -0.88325,0.14538 -1.33825,0.22029c-3.76019,0.57015 -7.00145,0.55533 -10.67912,-0.43657c-6.27721,-1.62573 -12.7516,-1.25949 -18.54934,1.87026c-1.40739,2.43949 -0.93052,5.73921 -0.51674,8.48793c0.25484,0.49992 0.50969,0.99984 0.77224,1.51491c-0.61803,-0.07218 -1.23605,-0.14436 -1.8728,-0.21873c-0.04919,-0.41163 -0.09839,-0.82324 -0.14908,-1.24734c-0.06568,-0.53231 -0.13139,-1.06462 -0.19906,-1.61307c-0.06462,-0.53095 -0.12925,-1.06192 -0.19583,-1.60897c-0.08335,-1.2525 -0.08335,-1.2525 -0.61748,-1.84002c-0.00822,-0.87901 0.00934,-1.75838 0.04101,-2.63686c0.02421,-0.71802 0.02421,-0.71802 0.04891,-1.45054c0.01445,-0.36991 0.0289,-0.73981 0.04379,-1.12093c7.7616,-1.99122 7.7616,-1.99122 11.67455,-2.43574c-0.13644,-0.17264 -0.27291,-0.34531 -0.41348,-0.52319c-1.34823,0.11426 -2.68132,0.25726 -4.02377,0.42049c-8.59509,0.96431 -8.59509,0.96431 -11.64571,-0.35095c0.05417,-0.46383 0.10834,-0.92766 0.16416,-1.40555c0.47763,0.03803 0.95527,0.07607 1.44737,0.11525c5.69832,0.40954 10.90029,0.15004 16.31378,-1.84011c0.31794,-0.11377 0.6359,-0.22754 0.96349,-0.34475c1.11747,-0.40222 2.23071,-0.81469 3.3434,-1.22995c0.35947,-0.13042 0.71894,-0.26084 1.0893,-0.39521c2.44977,-0.93739 4.17279,-2.13493 6.1932,-3.80009z" fill="#8652a1"/><path d="M221.01533,131.77647c1.03116,0.84687 1.704,1.59193 2.53561,2.67066c0.02168,1.3382 0.02168,1.3382 -0.27359,2.34257c-0.4738,-0.1337 -0.94761,-0.26738 -1.43577,-0.40514c-6.42698,-1.56265 -11.20137,-1.43735 -17.30385,0.90453c-1.30782,0.48355 -1.30782,0.48355 -2.76715,0.78802c-0.05417,0.46382 -0.10834,0.92766 -0.16416,1.40554c0.42351,-0.1795 0.84702,-0.359 1.28336,-0.54392c5.84173,-2.3638 11.71723,-2.85886 17.93712,-1.48541c1.27404,0.63112 1.27404,0.63112 2.23156,1.21044c-0.03612,0.30923 -0.07223,0.61844 -0.10944,0.93703c-0.51138,-0.05299 -1.02274,-0.10599 -1.5496,-0.16057c-6.77345,-0.61021 -13.37852,-0.19969 -19.71993,2.46444c-0.86958,0.33438 -0.86958,0.33438 -1.80599,0.22502c-0.03611,0.30922 -0.07223,0.61845 -0.10944,0.93703c-0.95411,0.12364 -0.95411,0.12364 -1.92752,0.24979c-0.03611,0.30922 -0.07223,0.61844 -0.10944,0.93703c-0.77111,0.49918 -1.54312,0.99716 -2.32352,1.4817c-0.90743,0.63673 -1.41326,1.31247 -1.91455,2.29746c-0.46352,-0.05414 -0.92703,-0.10827 -1.4046,-0.16405c0.32599,-4.94855 0.93804,-7.9898 4.42838,-11.50381c1.09674,-0.93431 2.05519,-1.69827 3.35452,-2.30923c0.30902,0.03609 0.61802,0.07218 0.9364,0.10936c0.11851,-0.26042 0.23702,-0.52083 0.35912,-0.78914c1.8553,-2.27335 4.92042,-2.66355 7.67927,-3.02108c0.41674,-0.07437 0.83347,-0.14874 1.26284,-0.22538c4.18435,-0.72778 7.26403,-0.89801 10.91036,1.64712z" fill="#8953a6"/><path d="M264.34906,147.28543c1.29135,0.62573 1.29135,0.62573 1.84128,1.75849c0.26693,3.11947 -1.71608,5.63293 -3.51711,8.01878c-1.74725,1.59787 -3.71821,2.79031 -5.69738,4.08363c-0.64881,0.52661 -0.64881,0.52661 -1.31072,1.06386c-3.44358,2.65501 -3.44358,2.65501 -5.26836,2.44189c-0.03612,0.30923 -0.07223,0.61844 -0.10944,0.93703c-7.59051,2.87756 -7.59051,2.87756 -10.8533,2.7691c-2.20419,0.03136 -3.32778,0.58223 -5.30866,1.51706c-1.89858,0.667 -3.27473,0.66151 -5.25964,0.33552c-0.20868,0.44578 -0.41735,0.89156 -0.63236,1.35086c-1.23605,-0.14436 -2.4721,-0.28872 -3.7456,-0.43746c1.23103,-1.44983 1.31018,-1.36325 3.02808,-1.54597c0.19063,-0.29118 0.38124,-0.58236 0.57764,-0.88235c0.96696,-0.25586 1.94484,-0.47059 2.92547,-0.6675c8.67392,-1.87866 17.5982,-5.07324 24.96303,-10.08686c0.9634,-0.59798 0.9634,-0.59798 2.42271,-0.90245c0.62709,-0.79719 0.62709,-0.79719 1.15527,-1.7647c0.38509,-0.58824 0.77019,-1.17646 1.15527,-1.7647c-0.59011,0.40123 -0.59011,0.40123 -1.19215,0.81058c-1.36773,0.79007 -1.36773,0.79007 -2.77233,0.62602c-0.31302,0.66866 -0.31302,0.66866 -0.63236,1.35085c-1.42132,0.9293 -3.01225,1.58676 -4.54211,2.31894c-0.65219,0.33118 -1.30395,0.66323 -1.95535,0.99599c-0.7032,0.35113 -1.4066,0.70183 -2.1102,1.0521c-0.50008,0.25845 -0.50008,0.25845 -1.01027,0.52213c-2.37174,1.1587 -4.12507,1.42213 -6.76289,1.27104c0.05417,-0.46382 0.10834,-0.92766 0.16416,-1.40554c0.79676,-0.277 0.79676,-0.277 1.60962,-0.5596c0.71103,-0.25133 1.422,-0.50285 2.13292,-0.7545c0.34841,-0.12062 0.69684,-0.24122 1.05582,-0.36551c1.79315,-0.63854 3.45314,-1.33414 5.10922,-2.27775c1.57237,-0.87561 1.57237,-0.87561 2.50878,-0.76624c0.38124,-0.58236 0.76249,-1.1647 1.15528,-1.7647c0.30901,0.03609 0.61803,0.07218 0.9364,0.10936c0.31301,-0.66866 0.31301,-0.66866 0.63235,-1.35085c0.30902,0.03609 0.61803,0.07218 0.9364,0.10936c0.15345,-0.25573 0.30689,-0.51145 0.46499,-0.77492c0.74,-1.06104 1.53146,-1.8451 2.49276,-2.70856c0.31076,-0.28265 0.62151,-0.5653 0.94169,-0.85652c2.50227,-2.0359 2.50227,-2.0359 4.47108,-1.80596z" fill="#bd6850"/><path d="M264.60214,145.11855c1.78703,0.61304 2.44427,0.95122 3.434,2.5975c0.13064,3.41182 -0.61948,6.3786 -2.49898,9.20623c-1.28829,1.12583 -1.28829,1.12583 -2.6146,2.06915c-0.29667,0.3192 -0.59334,0.63838 -0.89899,0.96724c-1.63339,1.51451 -3.42814,2.52483 -5.36084,3.61464c-0.54936,0.31554 -0.54936,0.31554 -1.10983,0.63746c-1.4669,0.83976 -2.93285,1.65597 -4.4386,2.42471c-0.67042,0.89527 -0.67042,0.89527 -1.15527,1.76469c-0.34147,-1.63992 -0.26234,-2.24893 0.43775,-3.7481c1.01472,-0.71999 1.01472,-0.71999 2.2262,-1.28344c0.39795,-0.19105 0.79589,-0.38209 1.20589,-0.57893c1.11002,-0.45657 1.11002,-0.45657 2.56934,-0.76104c0.20868,-0.44577 0.41735,-0.89157 0.63235,-1.35085c0.81181,-0.61755 0.81181,-0.61755 1.7736,-1.21757c1.2547,-0.78632 1.94977,-1.34931 2.93267,-2.50691c0.30902,0.03609 0.61803,0.07218 0.9364,0.10936c0.16392,-0.31388 0.32782,-0.62776 0.49669,-0.95116c0.7133,-1.28204 0.7133,-1.28204 1.65386,-2.47818c1.0616,-1.94394 0.95999,-3.55333 0.81662,-5.7222c-1.28307,-0.3488 -1.28307,-0.3488 -2.80921,-0.32809c-1.32353,0.83376 -1.32353,0.83376 -2.61459,2.06916c-0.6172,0.48504 -1.23717,0.96653 -1.85948,1.44499c-1.03195,0.81306 -1.95224,1.60516 -2.87758,2.54303c-4.54349,4.38575 -10.71285,6.43281 -16.62365,8.23924c-0.56158,0.19888 -1.12317,0.39774 -1.70178,0.60265c-6.0021,1.44938 -11.4847,0.85638 -17.50086,0.00405c-6.597,-1.05518 -6.597,-1.05518 -13.12744,-0.10847c-0.95413,0.12363 -0.95413,0.12363 -1.92752,0.24978c-0.31702,1.37344 -0.63405,2.74688 -0.96067,4.16195c-0.72237,0.1507 -0.72237,0.1507 -1.45932,0.30447c-0.34399,-3.41239 -0.34399,-3.41239 0.9067,-4.96965c4.99347,-3.23558 11.40995,-3.36889 17.04289,-2.43205c1.07559,0.27856 2.14995,0.56196 3.22268,0.85129c3.61299,0.70794 6.85255,0.38926 10.46455,-0.20252c0.57702,-0.07954 1.15403,-0.15906 1.74852,-0.24101c3.43401,-0.65658 6.7658,-1.68305 10.08308,-2.77743c0.8888,-0.24496 0.8888,-0.24496 1.82519,-0.1356c0.03612,-0.30923 0.07223,-0.61845 0.10944,-0.93703c0.73191,-0.58421 0.73191,-0.58421 1.74776,-1.25026c3.04791,-2.03644 6.08505,-4.09809 8.9607,-6.37383c4.21603,-3.33652 4.21603,-3.33652 6.31229,-3.50724z" fill="#140913"/><path d="M222.60475,141.78668c1.36308,1.2552 2.03098,1.98136 2.49686,3.76436c-0.3984,2.02939 -1.14503,2.80051 -2.83347,3.94321c-3.74167,2.46741 -7.63453,3.6936 -11.94815,4.77829c-0.38095,0.11896 -0.76191,0.23792 -1.15441,0.36049c-5.02557,1.17545 -11.13906,0.83333 -15.81023,-1.39202c-0.09617,-2.64935 1.0706,-3.93498 2.72036,-5.83192c0.93181,-0.88885 1.79086,-1.49119 2.94658,-2.0545c0.30902,0.03609 0.61802,0.07218 0.9364,0.10936c0.10424,0.33848 0.20848,0.67694 0.31587,1.02566c1.03053,3.40012 1.03053,3.40012 3.65479,5.61185c2.09428,0.88105 4.36245,1.48818 6.58991,0.81417c2.25673,-0.97963 3.86898,-2.05374 5.19409,-4.18693c0.68208,-2.9073 0.27006,-5.26595 -0.47438,-8.12878c2.68272,-0.40588 5.08751,-0.37296 7.3658,1.18677z" fill="#f7d4f0"/><path d="M244.7541,168.2672c0.44546,0.20873 0.89091,0.41749 1.34988,0.63255c-0.21769,0.55764 -0.43538,1.11528 -0.65966,1.68983c-0.9353,2.69719 -1.28617,5.41567 -1.64556,8.2384c-0.07273,0.54414 -0.14547,1.08825 -0.22043,1.64889c-0.2296,1.72453 -0.45322,3.44978 -0.67667,5.17511c-0.15536,1.175 -0.31112,2.34993 -0.46729,3.52483c-0.38038,2.86834 -0.75587,5.73727 -1.12756,8.60673c-0.44546,-0.20874 -0.89092,-0.41748 -1.34988,-0.63256c0.92092,-7.88507 1.84184,-15.77017 2.79067,-23.89418c-1.36347,-0.39432 -1.36347,-0.39432 -2.75448,-0.79662c-0.11275,0.32109 -0.2255,0.64218 -0.34166,0.97298c-0.92653,2.55288 -1.94208,4.98609 -3.18722,7.40061c-1.52367,2.99826 -2.71222,6.07313 -3.84916,9.23683c-0.86411,2.38022 -1.86564,4.58475 -3.068,6.8144c-1.23605,-0.14436 -2.4721,-0.28872 -3.7456,-0.43746c1.61966,-6.80873 1.61966,-6.80873 3.4901,-9.56538c0.28594,-0.43676 0.57186,-0.87352 0.86646,-1.32351c0.58471,-0.89314 1.17154,-1.78492 1.76033,-2.67539c1.15012,-2.01692 1.43249,-4.10904 1.75942,-6.38196c0.06386,-0.4079 0.12771,-0.81581 0.1935,-1.23608c0.1552,-0.99671 0.30275,-1.99462 0.44871,-2.99272c0.50345,-0.1463 1.00689,-0.29258 1.52558,-0.44328c1.6992,-0.50543 3.37045,-1.06927 5.03907,-1.66913c0.50875,-0.18117 1.01748,-0.36235 1.54165,-0.54901c1.30749,-0.4563 1.30749,-0.4563 2.32781,-1.34391z" fill="#e83cac"/><path d="M260.76999,153.04118c-0.22545,1.93038 -1.0268,2.60709 -2.36527,3.9979c-10.01412,7.0799 -22.71642,11.16546 -34.7439,13.03871c-0.5181,0.11457 -1.03619,0.22913 -1.56998,0.3472c-2.46003,0.28035 -4.73464,-0.03235 -7.17874,-0.3598c-0.476,-0.05989 -0.952,-0.11975 -1.44242,-0.18146c-1.16599,-0.14728 -2.33122,-0.29895 -3.4961,-0.45468c-0.06422,-0.7911 -0.12845,-1.58218 -0.1946,-2.39726c0.43898,0.03903 0.87795,0.07805 1.33023,0.11826c8.85601,0.64839 18.59469,-0.00817 26.90362,-3.36923c1.14714,-0.4411 1.14714,-0.4411 2.74253,-0.89479c2.09841,-0.6112 4.06694,-1.47158 6.05993,-2.36242c0.37466,-0.16656 0.74932,-0.33312 1.13535,-0.50473c2.80731,-1.2644 5.62322,-2.53852 8.03747,-4.47898c1.00961,-0.7858 2.09578,-1.22208 3.26783,-1.72572c0.49963,-0.25509 0.99927,-0.51017 1.51404,-0.77298z" fill="#180b0f"/><path d="M214.14541,124.05832c0.45676,0.05243 0.91351,0.10485 1.38411,0.15888c3.7661,0.52395 6.33841,1.61549 9.20097,4.19395c0.22674,-0.60039 0.45348,-1.20079 0.68708,-1.81938c0.32051,1.96284 0.0516,2.95903 -1.0154,4.63045c-2.58658,-0.66565 -2.58658,-0.66565 -3.49019,-1.37042c-1.52801,-0.86528 -3.13367,-0.94718 -4.85078,-1.1175c-0.3549,-0.03839 -0.70978,-0.07679 -1.07544,-0.11633c-2.45223,-0.25229 -4.86307,-0.37108 -7.32936,-0.30134c-0.03611,0.30922 -0.07223,0.61844 -0.10944,0.93702c-0.84163,0.16618 -0.84163,0.16618 -1.70026,0.33569c-2.05979,0.49721 -3.66355,1.39369 -5.43825,2.5315c-0.84516,0.47451 -0.84516,0.47451 -1.78157,0.36515c-0.05015,-1.69096 0.2208,-2.28103 1.33806,-3.58359c4.32222,-3.76642 8.49468,-5.51986 14.18046,-4.84408z" fill="#8550a2"/><path d="M269.16387,93.64745c0.78714,0.66238 1.44425,1.39685 2.08216,2.20401c-0.04841,3.16025 -0.72236,5.59576 -2.38954,8.2692c-0.4906,0.17778 -0.4906,0.17778 -0.99111,0.35915c-0.46513,0.81243 -0.89368,1.64615 -1.2993,2.48992c-0.22075,0.45477 -0.44148,0.90957 -0.66891,1.37812c-0.25072,0.52813 -0.25072,0.52813 -0.5065,1.0669c-2.88918,-0.57733 -5.18112,-2.18467 -7.63108,-3.74069c1.76177,-0.28286 3.39523,-0.17384 5.16618,-0.02735c1.11905,-0.11727 1.11905,-0.11727 1.9601,-1.11602c0.82975,-1.39921 1.13065,-2.52428 1.40842,-4.12264c0.08798,-0.4862 0.17596,-0.97239 0.26662,-1.47334c0.11569,-0.72126 0.22244,-1.44426 0.30718,-2.16982c-2.87226,-0.49409 -5.44156,-0.63231 -8.33753,-0.23172c-2.69982,0.36453 -4.62987,0.16824 -7.22252,-0.63578c-0.10033,-0.48185 -0.20068,-0.96375 -0.30404,-1.46022c0.52772,0.09102 1.05546,0.18204 1.59918,0.27581c2.95784,0.34016 5.5507,-0.26001 8.19499,-1.59549c2.54976,-1.1639 5.94371,-0.84003 8.36572,0.52998z" fill="#df39a2"/><path d="M221.06961,94.74026c-0.03612,0.30923 -0.07223,0.61845 -0.10944,0.93704c0.88791,0.19187 0.88791,0.19187 1.79376,0.38758c1.79376,0.3876 1.79376,0.3876 2.72409,1.56477c-0.13787,1.32328 -0.13787,1.32328 -0.79652,2.75641c-1.14089,0.79716 -2.09587,1.35433 -3.33931,1.92515c-0.30115,0.15583 -0.60229,0.31166 -0.91256,0.47221c-2.3692,1.13391 -3.97232,1.10789 -6.541,0.61626c-2.23255,-6.07525 -2.23255,-6.07525 -1.35606,-8.70666c2.5112,-1.92332 5.79065,-0.9909 8.53705,0.04724z" fill="#fd47d3"/><path d="M233.3774,164.08905c-0.48158,0.10046 -0.96314,0.20095 -1.45932,0.30447c-0.45356,0.904 -0.45356,0.904 -0.68707,1.81937c-5.2111,0.82414 -10.13416,0.47346 -15.35982,0.00552c-2.31533,-0.2027 -4.59552,-0.25528 -6.91918,-0.23303c-0.28091,1.06422 -0.56181,2.12844 -0.85123,3.22493c1.62795,1.36222 3.40474,1.47241 5.44018,1.67422c0.48802,0.05653 0.48802,0.05653 0.98589,0.11422c1.92295,0.20809 3.76476,0.25118 5.69242,0.10181c-0.63236,1.35085 -0.63236,1.35085 -1.42548,1.79249c-1.67274,0.38918 -3.28588,0.37656 -4.98944,0.30771c-0.35486,-0.01022 -0.70972,-0.02046 -1.07532,-0.03099c-2.72231,-0.18207 -4.16596,-0.88982 -6.197,-2.71797c-0.66629,-1.84177 -0.3026,-3.81317 0.18843,-5.67686c1.64009,-1.52903 3.302,-1.86498 5.47852,-2.20958c1.60252,0.09442 1.60252,0.09442 3.32448,0.32891c0.30888,0.03967 0.61778,0.07934 0.93602,0.12022c1.30834,0.16818 2.6151,0.3475 3.92208,0.52601c3.88013,0.52323 9.77911,-0.84157 12.99587,0.54853z" fill="#ca6f55"/><path d="M267.69547,134.37894c0.43642,0.28605 0.43642,0.28605 0.88169,0.57787c0.05845,1.71803 -0.30401,2.38418 -1.33272,3.79199c-1.93268,1.99896 -4.33238,3.47452 -6.78466,4.75805c-0.30902,-0.03609 -0.61803,-0.07218 -0.9364,-0.10936c-0.03611,0.30922 -0.07223,0.61844 -0.10944,0.93702c-1.31578,0.53326 -2.63333,1.06121 -3.95232,1.58643c-0.36644,0.14912 -0.73286,0.29824 -1.1104,0.45188c-2.5586,1.01279 -5.06221,1.67395 -7.76712,2.16211c-0.51167,0.10676 -1.02335,0.2135 -1.55053,0.3235c-4.9222,0.61853 -9.69029,0.41231 -14.58715,-0.30864c-0.19063,0.29118 -0.38125,0.58235 -0.57764,0.88235c0.3556,-0.98841 0.68699,-1.81922 1.26471,-2.70172c0.84345,-0.0739 0.84345,-0.0739 1.92543,-0.02555c0.59386,0.02097 0.59386,0.02097 1.19971,0.04238c0.42447,0.01755 0.84893,0.03511 1.28626,0.05318c9.99578,0.26526 21.1092,-2.29956 28.90361,-9.00146c0.84558,-0.98258 1.53498,-1.97904 2.25584,-3.06087c0.32707,-0.11851 0.65413,-0.23704 0.99111,-0.35914z" fill="#19101b"/><path d="M230.3127,153.75813c0.30901,0.03609 0.61803,0.07218 0.9364,0.10936c-0.03611,0.30922 -0.07223,0.61844 -0.10944,0.93702c0.23465,0.08617 0.46928,0.17235 0.71104,0.26114c1.10703,0.42612 1.10703,0.42612 2.47935,1.12066c2.79612,1.16769 5.91394,1.10865 8.75746,0.19172c0.40144,-0.1686 0.80287,-0.3372 1.21647,-0.51091c0.29095,0.19069 0.58191,0.3814 0.88169,0.57787c-0.19727,0.8637 -0.19727,0.8637 -0.68707,1.81937c-1.05301,0.44468 -1.05301,0.44468 -2.34023,0.73585c-0.42024,0.09907 -0.84046,0.19814 -1.27344,0.3002c-0.63717,0.14414 -0.63717,0.14414 -1.28721,0.29118c-0.42651,0.11609 -0.853,0.23218 -1.29243,0.35179c-1.50106,0.40421 -3.00955,0.64035 -4.54484,0.86608c-0.44163,0.0727 -0.88325,0.14538 -1.33825,0.22029c-3.16948,0.48057 -5.96733,0.54393 -9.1263,-0.01776c0.49963,-0.25509 0.99926,-0.51018 1.51404,-0.77298c-0.4274,-0.36336 -0.8548,-0.72672 -1.29516,-1.10108c0.48134,-1.82356 1.21173,-3.02414 2.41999,-4.4664c1.34988,0.63255 1.34988,0.63255 2.12213,2.14746c0.17809,-0.3514 0.35615,-0.70282 0.53963,-1.06487c0.67036,-1.16833 0.67036,-1.16833 1.7162,-1.99599z" fill="#804f9b"/><path d="M227.84418,166.76714c-6.11822,1.39414 -11.92358,1.20655 -18.0652,0.26464c0.08228,0.63649 0.16455,1.27297 0.24932,1.92873c1.64522,0.21997 3.29165,0.42899 4.93853,0.63614c0.4629,0.06202 0.92581,0.12405 1.40274,0.18795c2.61378,0.32291 4.77542,0.4077 7.34598,-0.17533c3.28887,-0.61846 3.28887,-0.61846 4.26853,0.02363c-0.9812,0.35555 -1.96242,0.71112 -2.97336,1.07744c1.08155,0.12632 2.16309,0.25263 3.2774,0.38278c0.19062,-0.29117 0.38124,-0.58235 0.57763,-0.88234c0.86274,-0.13298 0.86274,-0.13298 1.94994,-0.1878c2.29891,-0.18722 4.9964,-0.63213 6.86069,-2.10751c0.93844,0.09023 1.87535,0.19883 2.8092,0.32809c-3.89977,2.31088 -7.35451,3.27391 -11.84767,3.67686c-1.73225,0.15662 -3.22237,0.38343 -4.8372,1.02312c-0.72859,0.10499 -1.46072,0.18762 -2.1943,0.24832c-1.23566,0.10546 -2.36976,0.24682 -3.58826,0.50104c-0.73464,-0.05378 -1.46779,-0.13099 -2.19811,-0.22704c-0.56689,-0.07263 -0.56689,-0.07263 -1.14523,-0.14673c-0.28725,-0.03907 -0.57451,-0.07811 -0.87047,-0.11837c0.01806,-0.1546 0.03611,-0.30921 0.05472,-0.46851c1.89018,-0.09269 3.78038,-0.18536 5.72784,-0.28085c0.03611,-0.30921 0.07223,-0.61844 0.10944,-0.93702c-0.31776,0.03881 -0.63552,0.0776 -0.9629,0.11758c-1.75503,0.09496 -3.45028,-0.05239 -5.1921,-0.2428c-0.32825,-0.02853 -0.65649,-0.05709 -0.99468,-0.08649c-2.11004,-0.23031 -3.36485,-0.68907 -4.91408,-2.14705c0.78587,-3.17319 0.78587,-3.17319 1.37415,-3.63875c3.89538,-0.0901 7.74803,0.26889 11.62642,0.59544c0.48548,0.03894 0.97096,0.07789 1.47115,0.11802c0.43824,0.03679 0.87648,0.0736 1.32801,0.11151c3.77156,0.14137 3.77156,0.14137 4.41186,0.42531z" fill="#9f4d3d"/><path d="M264.34906,147.28543c1.29135,0.62573 1.29135,0.62573 1.84128,1.75849c0.12408,1.4499 -0.02515,2.28951 -0.62891,3.60706c-0.34514,0.27314 -0.69026,0.54626 -1.04583,0.82767c0.09029,-0.77305 0.18057,-1.54609 0.27359,-2.34257c-0.30902,-0.03609 -0.61803,-0.07218 -0.93641,-0.10937c0.03611,-0.30922 0.07223,-0.61845 0.10944,-0.93703c-0.96315,0.20095 -1.9263,0.40189 -2.91863,0.60894c0.59997,0.22678 1.19994,0.45358 1.81808,0.68724c-0.24479,0.755 -0.48958,1.51 -0.74179,2.28789c-0.5444,0.00988 -0.5444,0.00988 -1.09981,0.01996c-1.41289,0.19096 -1.80224,0.53677 -2.86466,1.41664c-0.46352,-0.05414 -0.92703,-0.10827 -1.4046,-0.16405c-0.31302,0.66866 -0.31302,0.66866 -0.63236,1.35085c-1.42132,0.9293 -3.01225,1.58676 -4.54211,2.31894c-0.65219,0.33118 -1.30395,0.66323 -1.95535,0.99599c-0.7032,0.35113 -1.4066,0.70183 -2.1102,1.0521c-0.50008,0.25845 -0.50008,0.25845 -1.01027,0.52213c-2.37174,1.1587 -4.12507,1.42213 -6.76289,1.27104c0.05417,-0.46382 0.10834,-0.92766 0.16416,-1.40554c0.79676,-0.277 0.79676,-0.277 1.60962,-0.5596c0.71103,-0.25133 1.422,-0.50285 2.13292,-0.7545c0.34841,-0.12062 0.69684,-0.24122 1.05582,-0.36551c1.79315,-0.63854 3.45314,-1.33414 5.10922,-2.27775c1.57237,-0.87561 1.57237,-0.87561 2.50878,-0.76624c0.38124,-0.58236 0.76249,-1.1647 1.15528,-1.7647c0.30901,0.03609 0.61803,0.07218 0.9364,0.10936c0.20868,-0.44578 0.41736,-0.89157 0.63235,-1.35085c0.30902,0.03609 0.61803,0.07218 0.9364,0.10936c0.15345,-0.25573 0.30689,-0.51145 0.46499,-0.77492c0.74,-1.06104 1.53146,-1.8451 2.49276,-2.70856c0.31076,-0.28265 0.62151,-0.5653 0.94169,-0.85652c2.50227,-2.0359 2.50227,-2.0359 4.47108,-1.80596z" fill="#b5614b"/><path d="M199.95869,145.46395c0.11031,0.33368 0.2206,0.66735 0.33425,1.01111c1.02008,3.35879 1.02008,3.35879 3.11349,6.04023c1.49831,0.60149 3.01332,1.06841 4.57257,1.48386c-0.03612,0.30923 -0.07223,0.61844 -0.10944,0.93703c-10.29987,0.31254 -10.29987,0.31254 -14.5142,-1.69515c-0.09617,-2.64935 1.0706,-3.93498 2.72036,-5.83192c2.24027,-2.137 2.24027,-2.137 3.88298,-1.94514z" fill="#f1cfe9"/><path d="M253.50287,116.97772c0.81218,0.09383 0.81218,0.09383 1.64077,0.18955c3.04835,0.39572 5.75734,1.00695 8.61746,2.13644c-0.01806,0.1546 -0.03612,0.30923 -0.05472,0.46852c-0.57088,-0.05688 -1.14173,-0.11375 -1.72991,-0.17236c-0.48166,-0.048 -0.48166,-0.048 -0.97306,-0.09695c-1.04262,-0.16814 -1.04262,-0.16814 -2.0659,-0.51769c-7.36205,-2.2872 -14.70508,-1.4837 -21.5439,1.95461c-3.70403,2.08815 -7.20365,5.02955 -9.03919,8.95067c-0.72237,0.15071 -0.72237,0.15071 -1.45932,0.30447c1.09551,-3.80759 3.55105,-7.38161 6.82222,-9.65111c1.63535,-0.84902 3.30828,-1.56183 5.01031,-2.26425c0.49963,-0.25509 0.99927,-0.51016 1.51404,-0.77298c4.47885,-1.39778 8.67052,-1.06443 13.26121,-0.52889z" fill="#763896"/><path d="M264.65302,173.3813c0.42089,0.05772 0.84178,0.11546 1.27541,0.17492c0.32042,0.04844 0.64083,0.09689 0.97096,0.14679c-0.2816,0.88724 -0.2816,0.88724 -0.68707,1.81937c-1.08911,0.39466 -1.79454,0.37434 -2.94638,0.33856c-1.49613,-0.02497 -2.90976,0.04382 -4.39051,0.25894c-1.77779,0.2376 -1.77779,0.2376 -3.65059,0.01887c-0.05417,0.46381 -0.10834,0.92765 -0.16416,1.40554c-1.56311,-0.02585 -3.12624,-0.05169 -4.73672,-0.07832c0.07223,-0.61845 0.14446,-1.23687 0.21887,-1.87404c0.28013,-0.09891 0.56025,-0.19781 0.84885,-0.29971c0.36324,-0.12959 0.72646,-0.2592 1.10071,-0.39272c0.36188,-0.12854 0.72377,-0.25707 1.09663,-0.3895c0.89327,-0.29285 0.89327,-0.29285 1.44122,-0.7685c1.43718,0.03228 2.86773,0.12184 4.30265,0.20756c2.0405,-0.02959 3.19048,-0.87276 5.32013,-0.56776z" fill="#7e3ba1"/><path d="M239.11366,168.05365c0.6791,0.09401 0.6791,0.09401 1.37191,0.18991c-3.89977,2.31088 -7.35451,3.27391 -11.84767,3.67686c-1.73225,0.15662 -3.22237,0.38343 -4.8372,1.02312c-0.72859,0.10499 -1.46072,0.18762 -2.1943,0.24832c-1.23566,0.10546 -2.36976,0.24682 -3.58826,0.50104c-0.73464,-0.05378 -1.46779,-0.13099 -2.19811,-0.22704c-0.56689,-0.07263 -0.56689,-0.07263 -1.14523,-0.14673c-0.28725,-0.03907 -0.57451,-0.07811 -0.87047,-0.11837c0.01806,-0.1546 0.03611,-0.30921 0.05472,-0.46851c1.89018,-0.09269 3.78038,-0.18536 5.72784,-0.28085c0.24479,-0.75499 0.48959,-1.50998 0.7418,-2.28788c0.80361,-0.13152 1.60728,-0.26264 2.41128,-0.39178c0.94408,-0.15723 1.88494,-0.33348 2.82556,-0.51036c1.53684,-0.20636 1.53684,-0.20636 2.41853,0.37152c-0.9812,0.35555 -1.96242,0.71112 -2.97336,1.07744c1.08155,0.12632 2.16309,0.25263 3.2774,0.38278c0.19062,-0.29117 0.38124,-0.58235 0.57763,-0.88234c0.86274,-0.13298 0.86274,-0.13298 1.94994,-0.1878c2.8217,-0.22979 5.70165,-2.21894 8.29797,-1.96933z" fill="#b05b47"/><path d="M248.87038,149.27687c0.30902,0.03609 0.61803,0.07218 0.93641,0.10937c-0.07223,0.61844 -0.14446,1.23687 -0.21888,1.87405c0.44546,0.20874 0.89092,0.4175 1.34988,0.63256c-0.494,0.20677 -0.98797,0.41353 -1.49694,0.62657c-1.72466,0.73027 -3.40094,1.53983 -5.07401,2.38111c-1.99396,0.82059 -3.80921,0.61822 -5.92901,0.40018c-0.79155,-0.07409 -0.79155,-0.07409 -1.59908,-0.14966c-1.55346,-0.35066 -2.16595,-0.70328 -3.13918,-1.94717c0.03612,-0.30923 0.07223,-0.61845 0.10944,-0.93703c0.47157,0.04283 0.94314,0.08566 1.42899,0.1298c4.33777,0.34304 8.15469,0.12714 12.42241,-0.88657c0.48158,-0.10046 0.96314,-0.20095 1.45932,-0.30447c-0.08228,-0.63648 -0.16455,-1.27296 -0.24932,-1.92873z" fill="#743e90"/><path d="M216.37062,134.97387c0.55057,0.06308 1.10114,0.12616 1.66839,0.19114c1.50768,0.23544 2.90335,0.58743 4.35665,1.04681c-0.01806,0.1546 -0.03612,0.30923 -0.05472,0.46851c-0.79059,0.06437 -1.58118,0.12878 -2.39572,0.1951c-0.01806,0.1546 -0.03612,0.30923 -0.05472,0.46852c-0.31422,-0.00846 -0.62846,-0.01692 -0.9522,-0.02564c-8.4361,-0.18892 -8.4361,-0.18892 -16.39547,2.2737c-0.30902,-0.03609 -0.61803,-0.07218 -0.93641,-0.10937c0.05417,-0.46383 0.10834,-0.92766 0.16416,-1.40554c4.59963,-2.76897 9.31213,-3.73259 14.60004,-3.10323z" fill="#1f1026"/><path d="M242.2185,165.59654c-0.41736,0.89157 -0.83472,1.78313 -1.26471,2.70171c-0.4777,-0.01662 -0.95539,-0.03321 -1.44754,-0.05033c-2.06572,0.04613 -3.5145,0.76556 -5.38086,1.62734c-1.89858,0.667 -3.27474,0.66151 -5.25964,0.33552c-0.20868,0.44578 -0.41735,0.89156 -0.63236,1.35086c-1.23605,-0.14436 -2.4721,-0.28872 -3.7456,-0.43746c1.23102,-1.44983 1.31018,-1.36325 3.02808,-1.54597c0.19063,-0.29118 0.38124,-0.58236 0.57764,-0.88235c1.03839,-0.27773 2.08781,-0.51462 3.14057,-0.73143c2.62899,-0.5588 5.08991,-1.29055 7.57083,-2.33067c1.24589,-0.36087 2.147,-0.26479 3.41359,-0.03726z" fill="#be6750"/><path d="M224.06768,125.95921c0.29096,0.19069 0.58191,0.38141 0.88168,0.57788c-0.07223,0.61845 -0.14446,1.23688 -0.21888,1.87406c-1.22663,-0.65705 -2.39321,-1.31976 -3.54765,-2.10062c-2.18008,-1.25127 -4.49316,-1.42112 -6.95611,-1.67875c-0.45232,-0.05833 -0.90464,-0.11667 -1.37067,-0.17679c-2.60141,-0.29299 -4.28715,-0.20152 -6.74415,0.83184c-0.44546,-0.20873 -0.89091,-0.4175 -1.34988,-0.63255c1.73394,-1.68325 3.06027,-2.4302 5.55968,-2.57112c4.91741,0.20366 9.62807,1.05815 13.74597,3.87607z" fill="#0d0511"/><path d="M263.99266,153.89246c-0.23984,2.05354 -0.94363,2.84758 -2.50625,4.1892c-1.46962,1.08098 -2.98367,2.06691 -4.51057,3.06466c-0.43254,0.35106 -0.86507,0.70215 -1.31072,1.06386c-3.44358,2.65501 -3.44358,2.65501 -5.26836,2.44189c-0.03612,0.30923 -0.07223,0.61844 -0.10944,0.93703c-3.06416,1.18863 -6.12552,2.00294 -9.33355,2.70914c1.047,-1.87276 2.01643,-2.23284 3.98692,-2.8828c1.8178,-0.51106 3.65397,-0.8931 5.51078,-1.23188c0.03612,-0.30923 0.07223,-0.61845 0.10944,-0.93703c0.47982,-0.16924 0.95964,-0.33849 1.45399,-0.51286c2.22173,-0.92742 3.92479,-2.40744 5.75053,-3.95127c0.99803,-0.75163 0.99803,-0.75163 1.93443,-0.64226c0.20867,-0.44577 0.41735,-0.89157 0.63235,-1.35085c0.30901,0.03609 0.61803,0.07218 0.93641,0.10937c0.07136,-0.27571 0.14271,-0.55144 0.21622,-0.83551c0.59928,-1.2522 1.28496,-1.56936 2.50781,-2.17068z" fill="#9a4a3c"/><path d="M256.75198,127.25357c0.64372,0.06245 0.64372,0.06245 1.30046,0.12614c4.10405,0.48457 7.54151,1.88716 10.90774,4.29752c-0.76919,0.23667 -0.76919,0.23667 -1.92752,0.24979c-1.05197,-0.57062 -2.0895,-1.16843 -3.11325,-1.78832c-7.7851,-3.11429 -17.205,-1.86155 -25.14292,-0.08708c0.03612,-0.30923 0.07223,-0.61844 0.10944,-0.93703c6.20276,-2.36231 11.34717,-2.53522 17.86604,-1.86102z" fill="#763796"/><path d="M239.84704,161.52033c-0.03612,0.30923 -0.07223,0.61845 -0.10944,0.93703c0.94509,-0.04634 1.89019,-0.09268 2.86392,-0.14042c-1.37676,1.21213 -2.61607,1.54736 -4.40697,1.93959c-1.43492,0.36153 -2.76873,0.91483 -4.12869,1.49347c-1.13156,0.26578 -1.69515,0.02202 -2.72541,-0.47413c0.5177,-0.40969 1.03537,-0.81939 1.56876,-1.2415c-1.42423,0.09872 -2.79778,0.25999 -4.20961,0.48784c-2.1397,0.2929 -4.13316,0.05262 -6.25495,-0.28531c1.43714,-0.73372 1.98614,-0.87562 3.5225,-0.95395c2.27391,-0.15396 4.52442,-0.40251 6.78433,-0.69172c0.49226,-0.06086 0.49226,-0.06086 0.99447,-0.12293c1.97301,-0.25584 4.14798,-1.17609 6.1011,-0.94798z" fill="#924a3b"/><path d="M245.82333,90.03286c0.2733,0.31566 0.2733,0.31566 0.55212,0.6377c1.54788,1.73959 3.01246,3.1001 5.04201,4.28979c-0.03612,0.30923 -0.07223,0.61845 -0.10944,0.93702c2.56934,0.4334 4.74949,0.48114 7.33918,0.14482c2.60325,-0.32713 4.76886,-0.41059 7.33919,0.1448c0.75608,0.63741 0.75608,0.63741 1.24045,1.56958c-0.06592,1.29458 -0.06592,1.29458 -0.38,2.7457c-0.09613,0.4773 -0.19224,0.95458 -0.29128,1.44635c-0.49156,1.49071 -1.07392,2.40253 -2.13175,3.55397c-1.69478,0.69443 -3.00083,0.70381 -4.79144,0.3902c1.10642,-0.41943 2.07074,-0.73077 3.24888,-0.89686c1.32138,-0.39677 1.32138,-0.39677 1.93662,-1.85151c0.67856,-1.94212 1.1147,-3.95272 1.52728,-5.96571c-1.24616,0.00074 -2.49222,0.00395 -3.73838,0.0086c-0.35422,-0.00004 -0.70842,-0.00009 -1.07337,-0.00015c-1.92388,-0.01948 -1.92388,-0.01948 -3.78002,0.4128c-6.44516,-0.28712 -6.44516,-0.28712 -8.73166,-2.44451c-1.18263,-1.34052 -2.32715,-2.68876 -3.30785,-4.18556c0.03611,-0.30922 0.07223,-0.61845 0.10944,-0.93703z" fill="#f542bf"/><path d="M231.3581,116.36278c0.44546,0.20873 0.89092,0.41749 1.34988,0.63255c-0.05417,0.46383 -0.10834,0.92766 -0.16416,1.40554c-2.25221,1.63658 -2.25221,1.63658 -3.49628,1.49128c-0.03611,0.30922 -0.07223,0.61844 -0.10944,0.93703c-3.61521,1.53267 -6.27093,2.51621 -10.16051,1.66274c0.07223,-0.61844 0.14446,-1.23687 0.21888,-1.87405c0.49047,0.00402 0.49047,0.00402 0.99086,0.00813c4.16828,-0.09523 6.86642,-1.36825 10.29034,-3.64737c0.35654,-0.20324 0.71308,-0.40646 1.08043,-0.61585z" fill="#160c1b"/><path d="M240.90436,103.70549c7.60035,0.63389 13.79576,2.05505 20.10833,6.62264c0.69544,0.46138 1.39311,0.9194 2.094,1.37247c0.4728,0.30988 0.94561,0.61978 1.43274,0.93905c-1.713,0.3889 -2.58094,0.05938 -4.11245,-0.75671c-0.41813,-0.2175 -0.83627,-0.43499 -1.26708,-0.65907c-0.43363,-0.23156 -0.86724,-0.46309 -1.31401,-0.70165c-2.89193,-1.53574 -5.64691,-2.8666 -8.8131,-3.73717c-0.42378,-0.16365 -0.42378,-0.16365 -0.8561,-0.3306c-0.11839,-0.32727 -0.23679,-0.65453 -0.35877,-0.9917c-1.17653,-0.28578 -2.31461,-0.51397 -3.50656,-0.70636c-0.33073,-0.05698 -0.66147,-0.11398 -1.00223,-0.17271c-0.81915,-0.14056 -1.63925,-0.27564 -2.45949,-0.40968c0.01806,-0.1546 0.03612,-0.30923 0.05472,-0.46853z" fill="#6f338e"/><path d="M266.98456,177.0373c0.352,1.69059 0.1523,3.03852 -0.07899,4.73982c-0.58191,-0.38139 -1.16382,-0.76281 -1.76336,-1.15575c0.09029,-0.77305 0.18057,-1.5461 0.27359,-2.34257c-2.48433,-0.02813 -4.72969,0.17673 -7.18716,0.58531c-0.61803,-0.07218 -1.23605,-0.14436 -1.8728,-0.21873c0.36596,-0.84771 0.36596,-0.84771 1.15527,-1.76471c2.94037,-0.78493 6.67918,-1.15277 9.47344,0.15663z" fill="#7d3aa0"/><path d="M228.8225,113.69211c0.44546,0.20874 0.89091,0.4175 1.34988,0.63257c-0.46839,1.77452 -1.26411,2.47377 -2.77875,3.47468c-2.78702,1.51789 -4.61819,1.61873 -7.71008,0.99914c0.07223,-0.61844 0.14446,-1.23688 0.21888,-1.87406c0.40729,-0.02221 0.40729,-0.02221 0.82279,-0.04489c2.63758,-0.19858 4.64021,-0.67419 6.99672,-1.89128c0.36318,-0.42774 0.72637,-0.85548 1.10055,-1.29618z" fill="#190e1f"/><path d="M264.95291,113.16284c3.54791,2.12369 6.06227,4.74772 8.27447,8.21611c0.65099,1.01098 0.65099,1.01098 1.92268,1.99803c0.5411,1.14472 0.5411,1.14472 1.01737,2.46366c0.16215,0.43461 0.32428,0.86923 0.49133,1.317c0.2851,1.1779 0.2851,1.1779 -0.34725,2.52875c-1.54153,-1.6557 -2.61962,-3.92572 -2.83777,-6.17869c-0.04678,-0.26993 -0.09356,-0.53985 -0.14176,-0.81796c-0.27212,-0.17382 -0.54424,-0.34761 -0.82463,-0.5267c-1.01935,-0.68309 -1.38565,-1.21526 -1.99334,-2.26599c-1.29863,-2.04738 -2.96604,-3.4631 -4.82611,-4.99546c-0.27865,-0.26456 -0.55732,-0.52913 -0.84442,-0.8017c0.03612,-0.30923 0.07223,-0.61845 0.10944,-0.93703z" fill="#6f338e"/><path d="M209.05527,156.97427c0.1184,0.32726 0.23679,0.65453 0.35876,0.9917c-9.97185,1.3188 -9.97185,1.3188 -13.27376,-0.12556c0.05417,-0.46383 0.10834,-0.92766 0.16416,-1.40555c0.74185,0.05175 0.74185,0.05175 1.49868,0.10455c4.3149,0.30543 4.3149,0.30543 8.62537,0.0687c1.7451,-0.21172 1.7451,-0.21172 2.62679,0.36616z" fill="#7d4c97"/><path d="M224.51117,93.71752c-0.01806,0.1546 -0.03612,0.30923 -0.05472,0.46852c-0.3355,-0.01788 -0.67099,-0.03574 -1.01665,-0.05415c-1.51922,-0.07713 -3.03872,-0.14424 -4.55842,-0.21111c-0.79202,-0.04245 -0.79202,-0.04245 -1.60005,-0.08577c-0.50686,-0.02093 -1.01371,-0.04188 -1.53593,-0.06344c-0.70069,-0.03334 -0.70069,-0.03334 -1.41554,-0.06734c-1.36787,0.11941 -1.86537,0.34783 -2.78841,1.34797c-0.30706,1.15752 -0.30706,1.15752 -0.37165,2.42016c-0.03663,0.42364 -0.07326,0.84729 -0.111,1.28375c-0.0213,0.32382 -0.0426,0.64761 -0.06454,0.98123c-0.85145,-0.8884 -1.22608,-1.35344 -1.30901,-2.6016c0.04595,-0.36195 0.09188,-0.72389 0.13922,-1.09679c0.0387,-0.36278 0.0774,-0.72558 0.11727,-1.09937c0.3772,-1.22432 0.78728,-1.57548 1.8733,-2.22993c4.31073,-1.08742 8.45475,0.05665 12.69612,1.00791z" fill="#bf318c"/><path d="M227.77709,151.08746c0.30902,0.03609 0.61803,0.07218 0.93641,0.10937c0.51975,0.7879 0.51975,0.7879 1.0375,1.78334c0.17327,0.32878 0.34655,0.65756 0.52508,0.9963c0.13048,0.25521 0.26096,0.51043 0.39539,0.77337c-0.48158,0.10046 -0.96314,0.20095 -1.45932,0.30447c-0.2448,0.755 -0.48959,1.50999 -0.74179,2.28789c-0.25358,-0.34306 -0.50717,-0.68611 -0.76843,-1.03956c-0.75892,-1.14693 -0.75892,-1.14693 -1.82189,-1.1626c-0.87358,0.8288 -0.87358,0.8288 -1.62348,1.71001c0.05417,-0.46383 0.10834,-0.92766 0.16416,-1.40554c-0.29095,-0.19069 -0.58191,-0.3814 -0.88168,-0.57788c0.68394,-0.63528 1.37144,-1.26671 2.06051,-1.89641c0.57373,-0.52803 0.57373,-0.52803 1.15904,-1.06673c0.33611,-0.26929 0.67222,-0.53857 1.01852,-0.81602z" fill="#82509c"/><path d="M264.34906,147.28543c1.29135,0.62573 1.29135,0.62573 1.84128,1.75849c0.12408,1.4499 -0.02515,2.28951 -0.62891,3.60706c-0.34514,0.27314 -0.69026,0.54626 -1.04583,0.82767c0.09029,-0.77305 0.18057,-1.54609 0.27359,-2.34257c-0.30902,-0.03609 -0.61803,-0.07218 -0.93641,-0.10937c0.03611,-0.30922 0.07223,-0.61845 0.10944,-0.93703c-2.27543,-0.11139 -2.27543,-0.11139 -4.32475,0.71184c-0.19012,0.20308 -0.38023,0.40616 -0.57612,0.61539c-0.29096,-0.19069 -0.58191,-0.38141 -0.88168,-0.57788c3.86352,-3.82291 3.86352,-3.82291 6.1694,-3.55359z" fill="#98483a"/><path d="M267.58074,200.37725c-0.31083,3.16932 -0.31083,3.16932 -0.96067,4.16194c-1.7664,-0.62184 -1.7664,-0.62184 -2.23157,-1.21043c-1.24761,-0.25816 -2.4888,-0.49108 -3.74408,-0.70442c-0.35281,-0.06171 -0.70564,-0.12343 -1.06915,-0.18701c-0.87409,-0.15262 -1.74862,-0.30256 -2.62325,-0.45201c0.01806,-0.1546 0.03611,-0.30921 0.05472,-0.46852c0.28967,-0.0182 0.57932,-0.0364 0.87776,-0.05517c2.63387,-0.18698 5.18515,-0.52305 7.77675,-1.03031c0.9831,-0.16344 0.9831,-0.16344 1.91949,-0.05408z" fill="#8957a4"/><path d="M210.21203,160.38732c0.24634,0.20078 0.49268,0.40158 0.74649,0.60846c-2.08149,0.80597 -4.17436,1.19582 -6.3602,1.6317c-0.31702,1.37344 -0.63405,2.74688 -0.96067,4.16195c-0.48158,0.10046 -0.96314,0.20095 -1.45932,0.30447c-0.13841,-1.37302 -0.23603,-2.45722 -0.03045,-3.80279c1.6704,-1.92629 5.53982,-4.2624 8.06415,-2.90378z" fill="#1f0f1a"/><path d="M271.13172,198.41746c0.1545,0.01804 0.30902,0.03609 0.4682,0.05468c-0.2528,2.16453 -0.5056,4.32907 -0.76607,6.55919c-1.45717,-0.17019 -2.75686,-0.53865 -4.15908,-0.96065c0.62602,-1.33735 1.25207,-2.67471 1.89707,-4.05258c0.61803,0.07218 1.23605,0.14436 1.8728,0.21873c0.22673,-0.6004 0.45347,-1.20078 0.68707,-1.81937z" fill="#000008"/><path d="M276.83442,129.27255c2.5531,3.23056 1.40863,8.96104 0.98015,12.76449c-0.31152,2.55437 -0.63974,5.10596 -0.99207,7.65501c-0.1545,-0.01804 -0.30901,-0.03609 -0.4682,-0.05468c0.01483,-0.33056 0.02965,-0.66113 0.04493,-1.00172c0.06682,-1.52671 0.1293,-3.05356 0.19176,-4.58044c0.02338,-0.51978 0.04678,-1.03954 0.07087,-1.57505c0.1178,-2.96057 0.10384,-5.85063 -0.14712,-8.80383c-0.08561,-1.51884 0.07681,-2.90503 0.31967,-4.40377z" fill="#6c3588"/><path d="M233.82134,168.41504c-0.22674,0.60039 -0.45348,1.20079 -0.68707,1.81938c-2.11292,-0.01171 -2.11292,-0.01171 -4.26853,-0.02363c-0.20868,0.44578 -0.41735,0.89156 -0.63236,1.35086c-1.23605,-0.14436 -2.4721,-0.28872 -3.7456,-0.43746c1.23102,-1.44983 1.31018,-1.36325 3.02808,-1.54597c0.19063,-0.29118 0.38124,-0.58236 0.57764,-0.88235c1.99335,-0.43987 3.71354,-0.64081 5.72784,-0.28084z" fill="#c46b52"/><path d="M218.19995,123.37428c2.49338,0.77971 4.61442,1.60564 6.74941,3.1628c-0.07223,0.61845 -0.14446,1.23688 -0.21888,1.87406c-1.23373,-0.66086 -2.42131,-1.33371 -3.59627,-2.09703c-1.94792,-1.12124 -3.92896,-1.41972 -6.12956,-1.7399c-0.38531,-0.06122 -0.77061,-0.12245 -1.16758,-0.18553c-0.94056,-0.14863 -1.88232,-0.28966 -2.82428,-0.42911c0.01806,-0.1546 0.03611,-0.30922 0.05472,-0.46852c2.33564,0.11608 4.67129,0.23213 7.07772,0.35173c0.01806,-0.1546 0.03612,-0.30923 0.05472,-0.46852z" fill="#201028"/><path d="M226.16553,132.37798c0.15451,0.01805 0.30901,0.03609 0.4682,0.05468c0.01005,1.25493 0.02009,2.50985 0.03045,3.8028c0.44547,0.20874 0.89091,0.41749 1.34988,0.63255c0.20868,-0.44578 0.41736,-0.89157 0.63235,-1.35085c1.00329,-0.20933 1.00329,-0.20933 1.92753,-0.24978c-0.231,0.26502 -0.46201,0.53006 -0.70001,0.80313c-0.30073,0.34871 -0.60147,0.69744 -0.91131,1.05672c-0.2991,0.34522 -0.5982,0.69047 -0.90636,1.04615c-0.85019,0.98707 -0.85019,0.98707 -1.41636,2.33339c-0.61803,-0.07218 -1.23605,-0.14436 -1.8728,-0.21873c0.25979,-2.71345 0.69583,-5.27546 1.39842,-7.91005z" fill="#743596"/><path d="M225.93475,154.67152c1.34988,0.63255 1.34988,0.63255 1.77592,1.81022c0.23678,1.27427 0.23678,1.27427 0.07262,2.67982c-2.18898,0.73799 -2.18898,0.73799 -3.51264,0.36146c-0.24944,-0.12706 -0.49888,-0.25416 -0.75589,-0.3851c0.48134,-1.82356 1.21173,-3.02414 2.41999,-4.4664z" fill="#140a18"/><path d="M229.54002,115.67554c0.11839,0.32727 0.23679,0.65454 0.35876,0.99171c0.29096,0.19069 0.58191,0.38141 0.88168,0.57788c-0.72345,0.45184 -1.44864,0.9009 -2.17452,1.34883c-0.40365,0.25039 -0.8073,0.50075 -1.22317,0.75872c-1.65846,0.94033 -2.67322,1.45755 -4.58598,1.23415c0.03611,-0.30922 0.07223,-0.61844 0.10944,-0.93703c-0.92704,-0.10827 -1.85407,-0.21654 -2.80921,-0.32809c0.01806,-0.1546 0.03611,-0.30922 0.05472,-0.46851c0.55494,0.02564 1.10989,0.05126 1.68164,0.07767c2.18388,-0.00494 3.65402,-0.67916 5.61496,-1.6c0.30901,0.03609 0.61803,0.07218 0.9364,0.10936c0.38124,-0.58235 0.76249,-1.1647 1.15527,-1.7647z" fill="#784a90"/><path d="M240.48557,168.24356c-3.6914,2.21095 -6.99544,3.32891 -11.31579,3.42745c1.31166,-1.20462 2.58973,-1.63748 4.28407,-2.14132c5.25186,-1.57466 5.25186,-1.57466 7.03172,-1.28613z" fill="#8f4437"/><path d="M250.41486,152.30668c-0.14788,1.26618 -0.26259,2.10892 -0.85123,3.22492c-1.03406,0.47286 -1.03406,0.47286 -1.98225,0.7183c-0.03611,0.30922 -0.07223,0.61844 -0.10944,0.93703c-1.11765,0.1829 -2.23531,0.3658 -3.38684,0.55425c0.86082,-1.91881 1.72922,-2.71734 3.55136,-3.74064c0.40966,-0.23375 0.81931,-0.46751 1.24139,-0.70836c0.50197,-0.28297 0.50197,-0.28297 1.01408,-0.57165c0.17257,-0.13655 0.34513,-0.27314 0.52292,-0.41383z" fill="#7f4b9b"/><path d="M240.14403,81.77109c-0.48797,0.28092 -0.48797,0.28092 -0.98579,0.56755c-1.84879,1.21338 -3.51004,2.59539 -5.20368,4.01513c-1.07668,0.74245 -1.07668,0.74245 -2.48127,0.57841c0.90606,-1.57106 2.01014,-2.60772 3.40504,-3.75773c0.59068,-0.50033 0.59068,-0.50033 1.19328,-1.01079c1.54929,-0.88384 2.3606,-0.7651 4.07242,-0.39255z" fill="#a72b7a"/><path d="M214.55805,150.49338c-0.05417,0.46383 -0.10834,0.92766 -0.16416,1.40555c0.27291,0.34531 0.5458,0.69062 0.82697,1.04639c-0.76614,0.21985 -1.53324,0.43632 -2.30071,0.65143c-0.42707,0.12092 -0.85414,0.24184 -1.29415,0.36643c-2.27442,0.53879 -3.887,0.57902 -6.11534,-0.16327c-0.39861,-0.12797 -0.79722,-0.25595 -1.20791,-0.3878c-0.31384,-0.14134 -0.6277,-0.28267 -0.95106,-0.4283c-0.1184,-0.32726 -0.23678,-0.65454 -0.35876,-0.99171c0.63389,0.16677 0.63389,0.16677 1.2806,0.33693c3.25966,0.75727 5.52514,1.28007 8.48587,-0.46702c0.6118,-0.43963 1.20789,-0.90109 1.79865,-1.36862z" fill="#a48ca0"/><path d="M228.74394,154.99962c0.92703,0.10827 1.85408,0.21654 2.8092,0.32809c0.31278,1.64356 0.31796,2.21242 -0.63233,3.63634c-0.28092,0.31001 -0.56183,0.62003 -0.85126,0.93943c-0.44546,-0.20873 -0.89091,-0.4175 -1.34988,-0.63256c0.00801,-1.40954 0.01601,-2.81907 0.02427,-4.2713z" fill="#100813"/><path d="M248.87038,149.27687c0.30902,0.03609 0.61803,0.07218 0.93641,0.10937c-0.07223,0.61844 -0.14446,1.23687 -0.21888,1.87405c0.44546,0.20874 0.89092,0.4175 1.34988,0.63256c-0.87645,0.36141 -1.75289,0.72283 -2.62934,1.08424c-0.94294,0.40242 -0.94294,0.40242 -1.91278,1.2347c-1.46997,-0.11231 -1.46997,-0.11231 -2.8092,-0.32809c0.61751,-1.19862 0.92879,-1.68595 2.22578,-2.13683c0.39292,-0.06429 0.78585,-0.1286 1.19068,-0.19485c0.3959,-0.06885 0.79181,-0.1377 1.19971,-0.20864c0.45395,-0.0682 0.45395,-0.0682 0.91706,-0.13778c-0.08228,-0.63648 -0.16455,-1.27296 -0.24932,-1.92873z" fill="#814c9d"/><path d="M255.4618,161.91931c0.11839,0.32727 0.23679,0.65453 0.35877,0.99171c-1.20641,2.02782 -2.64765,2.68622 -4.70628,3.72448c-0.76511,0.90812 -0.76511,0.90812 -1.15527,1.76469c-0.34163,-1.6407 -0.2671,-2.24965 0.43775,-3.7481c1.04765,-0.71614 1.04765,-0.71614 2.28474,-1.2766c0.6132,-0.28468 0.6132,-0.28468 1.2388,-0.57509c0.33614,-0.1542 0.67226,-0.30839 1.01858,-0.46725c0.17257,-0.13655 0.34514,-0.27314 0.52292,-0.41383z" fill="#1f0f1a"/><path d="M223.81262,152.52406c-0.16416,1.40554 -0.16416,1.40554 -0.9588,2.11413c-0.25546,0.17587 -0.51092,0.35172 -0.77412,0.53291c0.11839,0.32726 0.23678,0.65453 0.35876,0.9917c-0.46352,-0.05414 -0.92704,-0.10827 -1.4046,-0.16405c-0.03612,0.30923 -0.07223,0.61845 -0.10944,0.93703c-0.64032,0.24414 -1.28178,0.48529 -1.92372,0.72514c-0.3571,0.1346 -0.71418,0.2692 -1.08209,0.40789c-0.95868,0.30357 -0.95868,0.30357 -1.89507,0.1942c0.20868,-0.44578 0.41736,-0.89157 0.63235,-1.35085c0.64251,-0.08327 1.28501,-0.16652 1.92752,-0.24979c0.20868,-0.44577 0.41735,-0.89157 0.63235,-1.35085c1.06731,-0.74167 1.06731,-0.74167 2.33794,-1.47816c0.42094,-0.24652 0.84188,-0.49305 1.27557,-0.74703c0.3245,-0.18555 0.64899,-0.37109 0.98332,-0.56227z" fill="#24142c"/><path d="M231.13349,146.73042c1.69957,0.1985 3.39913,0.39699 5.1502,0.60151c-0.34514,0.27314 -0.69026,0.54626 -1.04584,0.82767c0.4274,0.36335 0.85481,0.72671 1.29516,1.10108c-2.00858,-0.23459 -4.01715,-0.46917 -6.0866,-0.71087c-0.19063,0.29118 -0.38125,0.58235 -0.57764,0.88235c0.3556,-0.98841 0.68698,-1.81922 1.26471,-2.70172z" fill="#2d2031"/><path d="M253.20642,201.54785c1.84002,0.15974 3.67737,0.34057 5.51503,0.52539c0.78312,0.06759 0.78312,0.06759 1.58207,0.13654c0.50164,0.05248 1.00328,0.10494 1.52013,0.15899c0.4621,0.04403 0.92421,0.08805 1.4003,0.1334c1.53882,0.4519 2.01136,1.13102 2.8732,2.45083c-1.81732,0.32203 -1.81732,0.32203 -2.80921,-0.32809c0.03612,-0.30923 0.07223,-0.61844 0.10944,-0.93702c-0.5879,-0.05765 -1.17582,-0.1153 -1.78154,-0.17469c-0.77404,-0.08147 -1.54804,-0.16324 -2.32205,-0.24522c-0.38719,-0.03727 -0.77436,-0.07452 -1.17328,-0.11291c-0.37455,-0.04068 -0.7491,-0.08136 -1.13498,-0.12328c-0.34384,-0.03519 -0.68767,-0.07038 -1.04193,-0.10662c-1.11203,-0.25301 -1.82505,-0.70458 -2.73717,-1.37733z" fill="#170096"/><path d="M245.68432,160.30246c-0.42339,0.86325 -0.42339,0.86325 -1.15527,1.76469c-1.16095,0.25769 -1.16095,0.25769 -2.46793,0.30539c-0.43428,0.0203 -0.86856,0.0406 -1.316,0.06149c-0.33248,0.00769 -0.66495,0.01539 -1.00752,0.02332c0.05417,-0.46382 0.10834,-0.92766 0.16416,-1.40554c0.6998,-0.15838 1.40034,-0.31339 2.10119,-0.46696c0.39004,-0.08668 0.78007,-0.17336 1.18192,-0.26267c1.09485,-0.18378 1.09485,-0.18378 2.49945,-0.01974z" fill="#b2604a"/><path d="M262.86167,151.38585c-0.24479,0.755 -0.48958,1.51 -0.74179,2.28789c-0.5444,0.00988 -0.5444,0.00988 -1.09981,0.01996c-1.37816,0.18626 -1.87992,0.47239 -2.86466,1.41664c-0.44546,-0.20873 -0.89091,-0.4175 -1.34988,-0.63256c0.65284,-0.56261 1.31236,-1.11751 1.97463,-1.66899c0.54981,-0.46471 0.54981,-0.46471 1.11072,-0.93881c1.09801,-0.70284 1.09801,-0.70284 2.9708,-0.48411z" fill="#a5503f"/><path d="M218.47355,121.03171c0.10034,0.48187 0.20068,0.96376 0.30405,1.46022c2.49325,0.07973 4.74959,0.04005 7.18716,-0.5853c-0.03611,0.30922 -0.07223,0.61844 -0.10944,0.93703c-1.66027,0.5176 -2.54616,0.65244 -4.32325,0.44489c-0.03611,0.30922 -0.07223,0.61844 -0.10944,0.93703c-1.99052,-0.38919 -3.98104,-0.7784 -6.03188,-1.17939c0.01806,-0.1546 0.03611,-0.30922 0.05472,-0.46852c0.92703,0.10827 1.85408,0.21654 2.8092,0.32809c0.07223,-0.61845 0.14446,-1.23688 0.21888,-1.87405z" fill="#663d7b"/><path d="M263.99266,153.89246c-0.24656,2.1111 -0.99205,2.89083 -2.60431,4.26679c-1.32972,0.97259 -1.32972,0.97259 -2.84375,1.74558c-0.10034,-0.48187 -0.20068,-0.96376 -0.30404,-1.46022c0.48158,-0.10046 0.96314,-0.20096 1.45932,-0.30447c0.20867,-0.44577 0.41735,-0.89157 0.63235,-1.35085c0.30901,0.03609 0.61803,0.07218 0.93641,0.10937c0.07136,-0.27571 0.14271,-0.55144 0.21622,-0.83551c0.59928,-1.2522 1.28496,-1.56936 2.50781,-2.17068z" fill="#914538"/><path d="M266.14539,202.76222c0.58412,0.83994 0.58412,0.83994 0.47468,1.77696c-1.7664,-0.62184 -1.7664,-0.62184 -2.23157,-1.21043c-1.24761,-0.25816 -2.4888,-0.49108 -3.74408,-0.70442c-0.35281,-0.06171 -0.70564,-0.12343 -1.06915,-0.18701c-0.87409,-0.15262 -1.74862,-0.30256 -2.62325,-0.45201c0.01806,-0.1546 0.03611,-0.30921 0.05472,-0.46852c7.06654,-0.19983 7.06654,-0.19983 9.13865,1.24543z" fill="#f814ff"/><path d="M249.53318,151.7288c0.44546,0.20874 0.89092,0.41749 1.34988,0.63256c-4.28781,3.14051 -4.28781,3.14051 -6.57908,3.50576c-0.2729,-0.34532 -0.5458,-0.69062 -0.82696,-1.04639c0.34955,-0.15384 0.6991,-0.30771 1.05923,-0.46621c0.45559,-0.20268 0.91117,-0.40537 1.38056,-0.6142c0.45289,-0.20054 0.90577,-0.40109 1.37238,-0.60773c1.22467,-0.53491 1.22467,-0.53491 2.24398,-1.4038z" fill="#190c20"/><path d="M220.91208,140.78759c-0.01806,0.1546 -0.03612,0.30923 -0.05472,0.46852c-2.11292,-0.01171 -2.11292,-0.01171 -4.26852,-0.02363c0.10937,0.40458 0.21872,0.80914 0.3314,1.22596c0.32311,1.97886 0.13874,3.46839 -0.16107,5.44259c-0.15451,-0.01805 -0.30902,-0.03609 -0.4682,-0.05468c-0.05046,-0.40076 -0.10093,-0.80151 -0.15293,-1.2144c-0.06668,-0.52385 -0.13336,-1.04771 -0.20205,-1.58744c-0.06589,-0.5201 -0.13179,-1.04019 -0.19968,-1.57604c-0.13197,-0.96145 -0.29954,-1.9185 -0.49735,-2.86855c1.9367,-0.40406 3.73408,-0.07163 5.67312,0.18767z" fill="#957e92"/><path d="M215.573,109.29525c-0.16416,1.40555 -0.16416,1.40555 -1.55285,2.6291c-0.58327,0.45311 -1.16979,0.90205 -1.75909,1.34727c-0.29855,0.23051 -0.5971,0.46103 -0.90469,0.69853c-0.73813,0.56911 -1.48,1.13332 -2.22256,1.69662c-0.29096,-0.19069 -0.58191,-0.3814 -0.88169,-0.57788c0.85843,-0.77332 1.71984,-1.54275 2.58343,-2.31025c0.24417,-0.22064 0.48835,-0.44127 0.73992,-0.66861c0.63628,-0.5628 1.29706,-1.09758 1.96057,-1.62797c0.30902,0.03609 0.61803,0.07218 0.9364,0.10936c0.03612,-0.30923 0.07223,-0.61845 0.10944,-0.93704c0.32708,-0.11851 0.65414,-0.23704 0.99111,-0.35914z" fill="#672e85"/><path d="M261.62122,149.81627c1.23929,0.05569 1.23929,0.05569 2.341,0.27341c0.02811,1.10031 0.05622,2.20062 0.08516,3.33428c-0.48157,0.10047 -0.96315,0.20095 -1.45932,0.30447c0.09029,-0.77305 0.18057,-1.54609 0.27359,-2.34257c-0.77253,-0.09023 -1.54506,-0.18045 -2.341,-0.27341c0.36318,-0.42773 0.72637,-0.85548 1.10055,-1.29617z" fill="#cc7056"/><path d="M223.08274,134.39245c0.15451,0.01805 0.30902,0.03609 0.4682,0.05468c-0.09029,0.77306 -0.18057,1.54609 -0.27359,2.34257c-3.05401,-0.67012 -6.10801,-1.34024 -9.25456,-2.03067c0.01806,-0.15461 0.03612,-0.30923 0.05472,-0.46852c0.60626,0.04204 1.2125,0.08406 1.83713,0.12737c0.79045,0.05225 1.5809,0.10437 2.37135,0.15637c0.60028,0.04211 0.60028,0.04211 1.21268,0.08505c0.38101,0.0246 0.76203,0.0492 1.15459,0.07456c0.52893,0.03566 0.52893,0.03566 1.06856,0.07204c0.83956,0.08712 0.83956,0.08712 1.36093,-0.41347z" fill="#7b3f9b"/><path d="M265.63468,176.40475c-0.01806,0.1546 -0.03612,0.30923 -0.05472,0.46852c-0.45264,0.00468 -0.90529,0.00937 -1.37166,0.01418c-0.59642,0.00992 -1.19283,0.01986 -1.80732,0.03008c-0.59009,0.00821 -1.18018,0.01641 -1.78817,0.02489c-1.49537,0.09016 -2.72815,0.30963 -4.14753,0.76594c0.03612,-0.30923 0.07223,-0.61845 0.10944,-0.93704c-0.44547,-0.20873 -0.89092,-0.41748 -1.34989,-0.63254c3.73038,-0.67558 6.76301,-0.8541 10.40984,0.26597z" fill="#874ca7"/><path d="M201.87429,165.63367c0.86258,1.69211 0.82235,2.55994 0.74777,4.39116c0.00146,1.0717 0.00146,1.0717 0.82717,2.44145c-0.61803,-0.07218 -1.23605,-0.14436 -1.8728,-0.21873c-0.06243,-0.93664 -0.12023,-1.87358 -0.17598,-2.81063c-0.03266,-0.52171 -0.06534,-1.04343 -0.09899,-1.58097c-0.00479,-1.33994 -0.00479,-1.33994 0.57284,-2.22228z" fill="#7c4c95"/><path d="M264.32098,151.08139c0.15451,0.01805 0.30902,0.03609 0.46821,0.05468c-0.00759,1.33478 -0.00759,1.33478 -0.32831,2.81108c-1.11311,0.64172 -1.11311,0.64172 -2.50516,1.13212c-0.86051,0.5218 -1.71586,1.05252 -2.55987,1.60065c-0.29095,-0.19069 -0.58191,-0.38141 -0.88168,-0.57787c1.28825,-1.38014 2.26439,-2.39502 4.12863,-2.84214c0.30902,0.03609 0.61803,0.07218 0.9364,0.10936c0.2448,-0.755 0.48959,-1.51 0.74179,-2.28789z" fill="#b05c48"/><path d="M206.7809,135.81285c0.1184,0.32726 0.23678,0.65454 0.35876,0.99171c-1.75904,1.39208 -3.34422,2.16442 -5.53324,2.67809c0.05417,-0.46383 0.10834,-0.92766 0.16416,-1.40554c1.11204,-0.63257 1.11204,-0.63257 2.51541,-1.21998c0.46354,-0.19748 0.92707,-0.39493 1.40466,-0.59838c0.35978,-0.14715 0.71956,-0.29429 1.09024,-0.4459z" fill="#23142b"/><path d="M245.30084,127.01437c0.29096,0.19069 0.58191,0.3814 0.88169,0.57787c-1.33343,1.25843 -2.57895,1.57253 -4.35135,1.95537c-0.48416,0.10691 -0.96832,0.2138 -1.46716,0.32396c-0.36938,0.07745 -0.73877,0.15492 -1.11934,0.23472c-0.11839,-0.32727 -0.23679,-0.65453 -0.35876,-0.99171c1.04915,-0.36678 2.10032,-0.7278 3.15235,-1.08622c0.58516,-0.20163 1.17031,-0.40327 1.7732,-0.61101c0.49149,-0.13299 0.98298,-0.26597 1.48936,-0.40299z" fill="#7c3c9d"/><path d="M249.28386,149.80006c-0.05417,0.46383 -0.10834,0.92766 -0.16416,1.40554c-2.85631,1.09112 -2.85631,1.09112 -3.90976,0.96809c0.03612,-0.30923 0.07223,-0.61845 0.10944,-0.93703c-0.29095,-0.19069 -0.58191,-0.3814 -0.88168,-0.57788c0.6316,-0.1656 1.26384,-0.32877 1.89636,-0.49087c0.52802,-0.13668 0.52802,-0.13668 1.0667,-0.27612c0.9467,-0.20109 0.9467,-0.20109 1.8831,-0.09172z" fill="#201227"/><path d="M230.05103,135.6812c0.23678,0.65453 0.47356,1.30905 0.71752,1.98342c-1.03513,1.03755 -2.04228,2.04145 -3.19224,2.9515c-0.29095,-0.19069 -0.5819,-0.3814 -0.88168,-0.57788c0.96913,-1.58633 2.1404,-2.95476 3.3564,-4.35704z" fill="#211427"/><path d="M205.39439,123.30339c0.29095,0.19069 0.58191,0.38141 0.88168,0.57788c-2.01186,2.49574 -2.01186,2.49574 -3.71515,3.36533c0.05417,-0.46382 0.10834,-0.92766 0.16416,-1.40554c-0.29095,-0.1907 -0.5819,-0.38141 -0.88168,-0.57788c0.20868,-0.44578 0.41736,-0.89157 0.63236,-1.35086c-0.03611,0.30922 -0.07223,0.61845 -0.10944,0.93703c0.99927,-0.51016 1.99854,-1.02034 3.02808,-1.54597z" fill="#1c0d24"/><path d="M235.60235,120.65771c0.29095,0.19069 0.58191,0.3814 0.88168,0.57787c-2.07077,1.63878 -4.14151,3.27755 -6.27503,4.96598c0.25074,-2.14686 1.73842,-3.03502 3.3564,-4.35704c1.21799,-0.77787 1.21799,-0.77787 2.03696,-1.18681z" fill="#693087"/><path d="M252.23295,152.99392c-0.16416,1.40554 -0.16416,1.40554 -0.95867,2.12898c-0.33213,0.24036 -0.66425,0.48073 -1.00644,0.72838c-1.28817,0.93624 -1.80181,1.32181 -2.49184,2.79585c-0.30901,-0.03609 -0.61802,-0.07218 -0.9364,-0.10936c0.462,-2.00846 1.09107,-2.73467 2.8198,-3.82608c0.37043,-0.23833 0.74086,-0.47669 1.1225,-0.72224c0.30629,-0.19197 0.61256,-0.38393 0.92813,-0.5817c0.17257,-0.13655 0.34513,-0.27314 0.52292,-0.41382z" fill="#1e0e22"/><path d="M199.86734,134.05558c0.29096,0.19069 0.5819,0.38141 0.88168,0.57788c-1.72564,1.36563 -3.45127,2.73129 -5.22919,4.13831c-0.29096,-0.19069 -0.58191,-0.38141 -0.88169,-0.57788c3.28905,-3.16953 3.28905,-3.16953 5.2292,-4.13832z" fill="#764192"/><path d="M239.21468,162.87119c-1.94278,1.05811 -3.14354,1.21245 -5.31435,0.80403c1.77597,-1.61876 3.13497,-1.79685 5.31435,-0.80403z" fill="#c56b52"/><path d="M226.29307,119.09556c-0.03611,0.30922 -0.07223,0.61844 -0.10944,0.93702c-1.31943,0.53956 -1.93284,0.72407 -3.38684,0.55425c0.03611,-0.30922 0.07223,-0.61844 0.10944,-0.93703c-0.92704,-0.10827 -1.85408,-0.21654 -2.80921,-0.32809c0.01806,-0.1546 0.03611,-0.30922 0.05472,-0.46851c0.76021,0.00876 1.52039,0.0186 2.28057,0.0289c0.42334,0.00536 0.84666,0.01073 1.28283,0.01625c1.17333,0.03315 1.17333,0.03315 2.57793,0.1972z" fill="#784b90"/><path d="M248.16433,90.30627c1.38761,1.29689 2.34925,2.27124 2.83965,4.13089c-2.64809,-1.19972 -2.64809,-1.19972 -3.11325,-1.78832c0.07215,-0.78284 0.16243,-1.56431 0.27359,-2.34257z" fill="#c83392"/><path d="M206.19753,165.18878c0.15451,0.01805 0.30901,0.03609 0.4682,0.05468c-0.02031,0.27862 -0.04062,0.55723 -0.06153,0.8443c-0.11145,2.49401 0.02653,3.95116 1.63646,5.9883c-0.89091,-0.4175 -1.78185,-0.83499 -2.69976,-1.26513c0.21669,-1.85531 0.43337,-3.71063 0.65663,-5.62216z" fill="#ae5844"/><path d="M234.9219,167.11887c0.29095,0.19069 0.5819,0.3814 0.88168,0.57787c-0.17256,0.13655 -0.34514,0.27314 -0.52292,0.41383c0.2729,0.34531 0.5458,0.69062 0.82696,1.04639c-0.96314,0.20095 -1.92631,0.4019 -2.91863,0.60894c0.20868,-0.44577 0.41735,-0.89157 0.63235,-1.35085c-0.44547,-0.20874 -0.89092,-0.4175 -1.34988,-0.63256c1.17012,-0.36793 1.17012,-0.36793 2.45045,-0.66362z" fill="#af5d48"/><path d="M230.44642,148.5498c1.39056,0.16241 2.78111,0.32481 4.2138,0.49214c-0.49061,0.17778 -0.49061,0.17778 -0.99111,0.35914c-0.03612,0.30923 -0.07223,0.61845 -0.10944,0.93703c-0.92703,-0.10827 -1.85408,-0.21654 -2.8092,-0.32809c-0.10034,-0.48186 -0.20067,-0.96375 -0.30404,-1.46022z" fill="#7d4d96"/><path d="M199.94633,129.31576c0.10033,0.48187 0.20067,0.96375 0.30404,1.46023c0.44546,0.20873 0.89092,0.41749 1.34988,0.63256c-1.91991,1.20048 -1.91991,1.20048 -2.97336,1.07744c0.07144,-1.11956 0.07144,-1.11956 0.27359,-2.34257c0.34514,-0.27314 0.69026,-0.54626 1.04584,-0.82767z" fill="#663083"/><path d="M242.51017,150.90857c0.92704,0.10827 1.85408,0.21654 2.80921,0.32809c-0.20868,0.44577 -0.41735,0.89157 -0.63235,1.35085c-0.94508,0.04633 -1.89019,0.09269 -2.86392,0.14042c0.22674,-0.60039 0.45348,-1.20079 0.68707,-1.81937z" fill="#150a1b"/><path d="M269.55592,118.44948c1.74757,0.46164 2.44158,1.33056 3.472,2.78004c-0.20867,0.44577 -0.41735,0.89157 -0.63235,1.35085c-0.48509,-0.59938 -0.96828,-1.20029 -1.45061,-1.8019c-0.26927,-0.33448 -0.53853,-0.66896 -0.81596,-1.01357c-0.6278,-0.84689 -0.6278,-0.84689 -0.57307,-1.31542z" fill="#7a3a9b"/><path d="M216.29759,192.48812c-0.07223,0.61845 -0.14446,1.23687 -0.21888,1.87406c-1.08154,-0.12632 -2.16308,-0.25263 -3.2774,-0.38278c1.9161,-1.67584 1.9161,-1.67584 3.49628,-1.49128z" fill="#7a3a9c"/><path d="M223.81262,152.52406c-0.16416,1.40554 -0.16416,1.40554 -0.9588,2.11413c-0.25546,0.17587 -0.51092,0.35172 -0.77412,0.53291c0.11839,0.32726 0.23678,0.65453 0.35876,0.9917c-0.46352,-0.05414 -0.92704,-0.10827 -1.4046,-0.16405c-0.19063,0.29118 -0.38124,0.58236 -0.57764,0.88235c-0.05588,-1.04538 -0.05588,-1.04538 0.27359,-2.34257c0.97021,-0.83186 1.96084,-1.38087 3.0828,-2.01447z" fill="#1d0e24"/><path d="M259.42011,152.40861c1.07245,0.21431 1.07245,0.21431 1.81808,0.68724c-2.2766,1.63558 -2.2766,1.63558 -3.08279,2.01447c-0.44546,-0.20873 -0.89091,-0.4175 -1.34988,-0.63256c1.19367,-1.07753 1.19367,-1.07753 2.61459,-2.06916z" fill="#934739"/><path d="M207.2491,135.86753c0.77253,0.09023 1.54506,0.18045 2.341,0.27341c-0.03611,0.30922 -0.07223,0.61845 -0.10944,0.93703c-1.18054,0.54096 -1.74367,0.78729 -3.01517,0.41957c-0.2591,-0.1282 -0.51819,-0.25642 -0.78515,-0.38851c0.48158,-0.10046 0.96315,-0.20095 1.45932,-0.30447c0.03611,-0.30922 0.07223,-0.61844 0.10944,-0.93703z" fill="#0a040d"/><path d="M211.29831,101.19753c1.10908,1.64917 1.83931,3.06662 2.26202,5.01323c-1.34988,-0.63255 -1.34988,-0.63255 -2.01344,-1.80828c-0.46746,-1.33089 -0.46746,-1.33089 -0.24858,-3.20495z" fill="#5e1847"/><path d="M218.78333,93.99835c3.48442,0.17316 3.48442,0.17316 4.80666,1.51121c0.19564,0.33628 0.39129,0.67257 0.59286,1.01904c-1.06348,-0.28092 -2.12696,-0.56186 -3.22268,-0.85129c0.03611,-0.30922 0.07223,-0.61845 0.10944,-0.93704c-0.77253,-0.09023 -1.54506,-0.18045 -2.341,-0.27341c0.01805,-0.15459 0.03611,-0.30921 0.05472,-0.46851z" fill="#f340b8"/><path d="M234.07067,170.34378c-1.65488,1.15248 -2.89925,1.33332 -4.90088,1.32724c1.38244,-1.26866 3.16372,-2.46581 4.90088,-1.32724z" fill="#99493a"/><path d="M246.78487,159.00628c-0.03612,0.30923 -0.07223,0.61845 -0.10944,0.93703c0.29096,0.1907 0.58191,0.38141 0.88168,0.57788c-0.9812,0.35555 -0.9812,0.35555 -1.98224,0.7183c0.03612,-0.30923 0.07223,-0.61845 0.10944,-0.93703c-0.79059,0.06438 -1.58118,0.12877 -2.39572,0.1951c0.84737,-1.29437 1.96996,-1.66955 3.49628,-1.49128z" fill="#9c5442"/><path d="M243.17299,153.3605c-0.05417,0.46382 -0.10834,0.92766 -0.16416,1.40554c-1.23605,-0.14436 -2.4721,-0.28872 -3.7456,-0.43746c1.02179,-1.56079 2.17566,-1.17061 3.90976,-0.96808z" fill="#8e57ab"/><path d="M212.9156,91.41341c1.85408,0.21654 3.70815,0.43308 5.6184,0.65619c-0.01806,0.1546 -0.03612,0.30923 -0.05472,0.46853c-1.89019,0.09267 -3.78037,0.18535 -5.72784,0.28083c0.05417,-0.46383 0.10834,-0.92765 0.16416,-1.40555z" fill="#551640"/><path d="M252.37283,155.85968c0.29095,0.19069 0.58191,0.38141 0.88169,0.57788c-0.83071,1.07836 -0.83071,1.07836 -1.6782,2.17852c-0.44547,-0.20874 -0.89091,-0.41749 -1.34988,-0.63256c1.03139,-1.7198 1.03139,-1.7198 2.1464,-2.12384z" fill="#c46b52"/><path d="M249.53318,151.7288c0.44546,0.20874 0.89092,0.41749 1.34988,0.63256c-1.52599,0.99717 -1.52599,0.99717 -3.0828,2.01447c-0.2729,-0.34531 -0.54579,-0.69062 -0.82696,-1.04639c1.19557,-0.83986 1.19557,-0.83986 2.55987,-1.60064z" fill="#22112b"/><path d="M204.12968,126.00512c-0.16416,1.40554 -0.16416,1.40554 -0.96894,2.07399c-0.33275,0.20906 -0.6655,0.41813 -1.00834,0.63355c-0.33317,0.21271 -0.66634,0.42538 -1.00961,0.64452c-0.25839,0.15899 -0.51676,0.31797 -0.78298,0.48178c0.87397,-1.99647 1.87398,-2.79366 3.76987,-3.83384z" fill="#794395"/><path d="M229.05373,127.96625c0.30404,1.46022 0.30404,1.46022 -0.16338,2.41481c-0.68785,0.81011 -0.68785,0.81011 -2.14717,1.11456c0.43509,-1.70042 0.82203,-2.56579 2.31055,-3.52937z" fill="#6f348e"/><path d="M227.44834,117.33086c0.08228,0.63648 0.16455,1.27297 0.24932,1.92874c-2.75371,0.21264 -2.75371,0.21264 -3.7456,-0.43746c1.15377,-0.49213 2.30754,-0.98425 3.49628,-1.49128z" fill="#69417e"/><path d="M207.37663,122.5851c0.29096,0.19069 0.58191,0.3814 0.88169,0.57787c-0.42791,0.87016 -0.42791,0.87016 -1.15528,1.7647c-1.27006,0.20784 -1.27006,0.20784 -2.39572,0.19509c0.88087,-0.83744 1.76174,-1.67486 2.66931,-2.53766z" fill="#15091b"/><path d="M209.77236,122.39c0.44546,0.20874 0.89091,0.4175 1.34988,0.63256c-0.90485,0.63635 -0.90485,0.63635 -2.03696,1.18681c-1.03635,-0.26945 -1.03635,-0.26945 -1.81808,-0.68724c1.16821,-0.60559 1.16821,-0.60559 2.50516,-1.13212z" fill="#0b040f"/><path d="M210.68404,90.20298c0.29096,0.19069 0.58191,0.38141 0.88169,0.57788c-0.88087,0.83744 -1.76175,1.67486 -2.66931,2.53766c-0.10034,-0.48185 -0.20068,-0.96375 -0.30404,-1.46021c0.69026,-0.54626 1.38051,-1.09252 2.09168,-1.65533z" fill="#010001"/><path d="M273.82531,191.60848c0.2729,0.34532 0.5458,0.69063 0.82697,1.04641c-0.30902,-0.03609 -0.61803,-0.07218 -0.93641,-0.10937c0.03612,-0.30923 0.07223,-0.61845 0.10944,-0.93704z" fill="#000000"/><path d="M188.61243,145.08861c0,0 0,0 -0.88168,-0.57788z" fill="#000000"/></g></g></g></svg>