<svg version="1.1" xmlns="http://www.w3.org/2000/svg" xmlns:xlink="http://www.w3.org/1999/xlink" width="176.2718" height="162.45303" viewBox="0,0,176.2718,162.45303"><g transform="translate(-146.81503,-102.59227)"><g data-paper-data="{&quot;isPaintingLayer&quot;:true}" fill-rule="nonzero" stroke="none" stroke-width="1" stroke-linecap="butt" stroke-linejoin="miter" stroke-miterlimit="10" stroke-dasharray="" stroke-dashoffset="0" style="mix-blend-mode: normal"><path d="M225.8844,113.71153c0.2578,0.16817 0.51649,0.33369 0.78129,0.50722c0.755,0.48934 1.50818,0.98395 2.25873,1.47765c0.22358,0.14757 0.44716,0.29514 0.67865,0.44542c1.28181,0.8531 2.46522,1.76073 3.64347,2.752c0.42673,0.31167 0.85527,0.61807 1.28827,0.92011c2.60264,1.87573 5.07143,3.92634 7.55809,5.95069c0.16637,0.13379 0.33448,0.27111 0.50523,0.40935c1.60844,1.31002 3.11659,2.68866 4.60385,4.13668c0.79325,0.74697 1.61418,1.45632 2.44929,2.15877c1.42501,1.20867 2.7373,2.49639 4.03231,3.84297c0.72623,0.74455 1.47299,1.46374 2.23038,2.17776c1.08265,1.0291 2.1068,2.09108 3.10492,3.20304c0.79033,0.87556 1.59845,1.73367 2.40568,2.59443c0.15551,0.16539 0.31274,0.33433 0.47262,0.50418c0.79238,0.84387 1.5883,1.686 2.38514,2.52551c2.50583,2.63771 4.89549,5.34738 7.0911,8.2525c0.20138,0.26364 0.40274,0.52728 0.61021,0.7989l-0.18114,0.52681c0.14115,0.09566 0.28229,0.19132 0.4287,0.28878c1.25148,0.88981 2.0054,1.59674 2.5397,3.08823c-0.00261,0.2907 -0.00522,0.58139 -0.00792,0.88091l0.52757,0.1814c0.39172,1.06545 0.65431,2.17191 0.94079,3.26892c0.06256,0.23555 0.12452,0.47285 0.18588,0.7119c0.53025,2.1381 0.58361,4.24771 0.60887,6.43897c0.01041,0.5102 0.03055,1.01784 0.06213,1.52648c0.04014,1.12717 -0.09587,2.22619 -0.20913,3.3448c-0.0514,0.54982 -0.0561,1.07249 -0.01409,1.56802c0.03612,0.98442 -0.09929,1.9187 -0.25439,2.88448c-0.03182,0.20408 -0.06628,0.40726 -0.09992,0.6166c-0.28415,1.68428 -0.64662,3.34754 -1.04437,5.01044c-0.05587,0.23115 -0.10912,0.4632 -0.16772,0.70225c-0.99419,4.04098 -2.6366,7.68529 -5.10911,11.05007c0.17643,0.096 0.35548,0.19292 0.53718,0.29074c0.71575,0.4405 1.28998,0.92365 1.91024,1.48743c2.13304,1.92043 4.28667,3.80671 6.54361,5.58124c1.37585,1.08572 2.66813,2.24286 3.9593,3.42906c1.03595,0.92467 2.11838,1.78286 3.21407,2.63676c0.8328,0.66631 1.63888,1.35877 2.44315,2.05651c3.64964,3.14587 7.31787,6.28045 11.33518,8.94892c0.16043,0.10818 0.32349,0.21726 0.4883,0.32989c2.13557,1.4412 4.31585,2.7181 6.61799,3.8808c0.23948,0.14419 0.47632,0.28747 0.72283,0.43703c0.8984,0.43262 1.6173,0.52076 2.60795,0.59924c3.52537,0.29023 6.37537,1.24072 8.79766,3.94984c0.14223,0.16966 0.28537,0.3367 0.43463,0.51174c0.22096,0.24091 0.44286,0.47921 0.66993,0.72813c0.1246,0.16949 0.2483,0.34162 0.37727,0.51557l-0.18114,0.5268l0.52756,0.1814l-0.18114,0.5268c0.13708,0.12176 0.27474,0.24469 0.41298,0.3688c1.54274,1.74987 1.69762,5.61453 1.6536,7.86149c-0.20486,3.06646 -1.20139,5.89604 -2.31535,8.74123c-0.13328,0.37046 -0.20911,0.75969 -0.22748,1.1677c-0.07043,0.77106 -0.4568,1.07118 -0.97956,1.63075c-1.16948,1.36809 -1.7497,2.82392 -2.35564,4.49183c-0.25768,0.5378 -0.54228,0.93085 -0.8538,1.17915c-0.39718,0.09711 -0.87758,0.13026 -1.44118,0.09944c-1.17162,0.03602 -1.6319,0.41383 -2.54849,1.12369c-0.48402,0.36964 -0.97413,0.7313 -1.47644,1.07699l-0.52756,-0.1814c-0.12558,0.13354 -0.25115,0.2671 -0.3776,0.40329c-0.95602,0.87597 -1.90519,1.08862 -3.16592,1.32375c-0.34549,0.06971 -0.6936,0.13853 -1.04881,0.21079c-0.38696,0.07018 -0.7739,0.14037 -1.15994,0.20794c-0.19788,0.03504 -0.39668,0.07273 -0.60073,0.1086c-3.23099,0.51789 -6.76331,-0.27546 -9.49509,-2.11017c-2.92986,-2.5626 -4.67483,-5.95487 -5.32041,-9.78206l0.18114,-0.5268c-0.16058,0.00369 -0.32022,0.00476 -0.48605,0.00666c-3.08158,-0.49994 -6.46741,-4.83342 -8.44215,-7.09411c-0.55895,-0.61339 -1.13934,-1.1988 -1.72763,-1.78693c-2.30945,-2.30804 -4.505,-4.73302 -6.48818,-7.32945l0.18114,-0.52681c-0.17211,-0.08275 -0.34334,-0.16812 -0.52075,-0.25269c-0.91716,-0.60106 -1.49024,-1.31062 -2.19179,-2.15271l0.18114,-0.5268c-0.21169,-0.09636 -0.41984,-0.19444 -0.63682,-0.2926c-1.03865,-0.62516 -1.78386,-1.41747 -2.6033,-2.2942c-0.39939,-0.40832 -0.7988,-0.81662 -1.20173,-1.2232c-0.7691,-0.78285 -1.53823,-1.56571 -2.30198,-2.35554c-0.15296,-0.15568 -0.30237,-0.3131 -0.45969,-0.47322c-0.29362,-0.30419 -0.58986,-0.6093 -0.88348,-0.91348c-0.98143,-1.00607 -2.01327,-1.89988 -3.10963,-2.77757l0.18114,-0.52681c-0.17905,-0.09691 -0.35898,-0.19412 -0.5398,-0.29164c-0.71483,-0.44312 -1.25998,-0.92512 -1.86328,-1.51251c-0.21075,-0.20207 -0.42322,-0.40766 -0.64097,-0.61508c-0.2081,-0.20115 -0.41794,-0.40585 -0.63306,-0.61235c-0.37251,-0.35783 -0.74856,-0.71393 -1.12553,-1.0674c-0.15739,-0.15133 -0.31834,-0.30091 -0.4801,-0.45668c-0.26175,-0.25102 -0.57298,-0.42676 -0.9337,-0.52722c-0.31929,0.19654 -0.64477,0.42826 -0.97645,0.69516c-0.33168,0.2669 -0.65716,0.49863 -0.97645,0.69517l-0.52756,-0.1814l-0.18114,0.5268l-0.52756,-0.1814c-0.23648,0.40468 -0.47298,0.80936 -0.71663,1.22631l-0.52756,-0.1814l-0.18114,0.5268l-0.52757,-0.1814c-0.12918,0.14409 -0.25837,0.28819 -0.38936,0.43754c-0.33365,0.28979 -0.79445,0.43178 -1.38239,0.42599c-0.1767,0.23084 -0.35342,0.46167 -0.53549,0.69951c-0.78608,0.3188 -1.40421,0.40081 -1.8544,0.24602c-0.10523,0.12876 -0.21077,0.25839 -0.3166,0.38891c-0.78746,0.66884 -1.63904,0.91504 -2.60877,1.25612c-0.16218,0.08561 -0.32699,0.17033 -0.49535,0.25677c-0.71736,0.32771 -1.42169,0.48022 -2.1931,0.63912c-0.28013,0.05979 -0.56025,0.11958 -0.84748,0.18283c-0.474,0.07462 -0.88686,0.05146 -1.23857,-0.06948l-0.18114,0.5268c-3.75301,0.70068 -6.48933,0.93801 -8.20895,0.71197l-0.18114,0.5268c-0.18775,-0.01154 -0.37552,-0.02308 -0.57209,-0.03471c-1.07552,-0.05759 -2.1479,-0.0385 -3.21715,0.05727c-1.32695,0.14462 -2.57594,-0.04037 -3.89921,-0.20671c-0.48484,-0.09405 -0.86262,-0.06195 -1.13334,0.09632c-0.4156,-0.0781 -0.83014,-0.17646 -1.24022,-0.27917c-0.25784,-0.0651 -0.51568,-0.13019 -0.7797,-0.19446c-0.2763,-0.07144 -0.5535,-0.14025 -0.84036,-0.21532c-0.28249,-0.07062 -0.56407,-0.14388 -0.85447,-0.21721c-0.84564,-0.21713 -1.68865,-0.43335 -2.53338,-0.65312c-0.2332,-0.05956 -0.46638,-0.11913 -0.70659,-0.18405c-3.73736,-0.9748 -5.99135,-1.9658 -6.76197,-2.97302c-0.32795,-0.21291 -0.67985,-0.41049 -1.05571,-0.59274c-0.20719,-0.10658 -0.41614,-0.21378 -0.62685,-0.32158c-0.21599,-0.10961 -0.43288,-0.21658 -0.65324,-0.33064c-1.29945,-0.65593 -2.46181,-1.25589 -3.53951,-2.24793c-0.57452,-0.35365 -1.16083,-0.67306 -1.75413,-0.99782c-0.98936,-0.61412 -1.88967,-1.32425 -2.80489,-2.04247c-0.18303,-0.1454 -0.3696,-0.28908 -0.557,-0.43893c-0.57365,-0.45056 -1.1464,-0.90374 -1.71915,-1.35693c-1.30577,-1.03217 -2.61426,-2.05644 -3.94771,-3.051c-0.93822,-0.7114 -1.75083,-1.46208 -2.55369,-2.31839c-0.42661,-0.42355 -0.869,-0.75828 -1.35715,-1.1058c-1.57798,-1.167 -2.88778,-2.63355 -4.24306,-4.04503c-0.56975,-0.59059 -1.14658,-1.17773 -1.72432,-1.76224c-0.29015,-0.29711 -0.58384,-0.59249 -0.87399,-0.8896l0.18114,-0.5268c-0.57945,-0.29644 -1.1589,-0.59288 -1.75591,-0.89829l0.18114,-0.52681c-0.78112,-0.5592 -1.56983,-1.12493 -2.36612,-1.6972l0.18114,-0.5268c-0.40535,-0.23659 -0.81071,-0.47315 -1.22834,-0.7169l0.18114,-0.5268c-0.21343,-0.09989 -0.42686,-0.19978 -0.64465,-0.30413c-0.97468,-0.57961 -1.69943,-1.29418 -2.47086,-2.11318c-0.13924,-0.14409 -0.27963,-0.29054 -0.42117,-0.43935c-0.33814,-0.35485 -0.67628,-0.70969 -1.01351,-1.06718l0.18114,-0.5268c-0.16859,-0.08447 -0.33717,-0.16894 -0.51366,-0.25614c-0.9085,-0.58336 -1.61017,-1.31357 -2.34937,-2.08907c-0.30936,-0.31845 -0.61608,-0.63598 -0.92545,-0.95442c-0.15378,-0.16185 -0.31109,-0.32199 -0.46924,-0.48829c-0.73317,-0.7587 -1.47433,-1.51133 -2.2155,-2.26395l-1.31099,-1.3344l0.18114,-0.5268c-0.54956,-0.38335 -1.09912,-0.76672 -1.66534,-1.1617l0.18114,-0.52681c-0.15538,-0.11429 -0.31252,-0.22919 -0.47142,-0.3447c-0.74683,-0.71039 -1.24814,-1.45713 -1.80933,-2.31281c-0.42041,-0.62172 -0.86579,-1.21372 -1.32971,-1.80327c-0.82567,-1.06445 -1.56631,-2.17033 -2.29079,-3.30602c-0.30975,-0.47174 -0.64347,-0.92522 -0.98692,-1.37614l0.18114,-0.52681c-0.12689,-0.11137 -0.25204,-0.21921 -0.3833,-0.33502c-0.626,-0.71008 -0.95077,-1.4727 -1.35676,-2.32509c-0.17923,-0.2737 -0.36019,-0.55094 -0.54288,-0.83172c-0.13558,-0.22335 -0.27116,-0.4467 -0.41376,-0.67539l0.18114,-0.52681l-0.52757,-0.1814c-0.01357,-0.15783 -0.02715,-0.31567 -0.04245,-0.47704c-0.11479,-1.06449 -0.22924,-1.87259 -0.71711,-2.83855c-0.61715,-1.30202 -0.7026,-2.5891 -0.85122,-4.00984c-0.14474,-1.16609 -0.28709,-2.30485 -0.58644,-3.44163c0.0253,-0.45963 0.05324,-0.91834 0.08736,-1.37788c0.02044,-0.44264 0.00816,-0.90733 -0.03685,-1.39409c-0.65989,-8.90711 2.56623,-18.78729 7.54588,-26.13232c0.11887,-0.17414 0.23511,-0.3492 0.35669,-0.53124c1.56691,-2.30947 3.23326,-4.4964 5.09095,-6.57924c0.1586,-0.17816 0.32074,-0.35804 0.48469,-0.5432c0.76605,-0.83819 1.48131,-1.52007 2.44377,-2.13168c0.32034,-0.31399 0.63194,-0.63689 0.94008,-0.96687c2.30236,-2.29518 5.33678,-4.39461 8.20624,-5.90276l0.52757,0.1814l0.18114,-0.52681l0.52756,0.1814c0.08434,-0.1595 0.17132,-0.31811 0.25748,-0.48289c0.12225,-0.15825 0.24187,-0.31741 0.36858,-0.48002c0.29103,0.00287 0.58207,0.00574 0.88192,0.00869c0.17671,-0.23083 0.35342,-0.46167 0.53549,-0.69951c0.51181,-0.2246 1.07267,-0.44314 1.68257,-0.6556c0.30025,-0.10687 0.60404,-0.21546 0.91138,-0.32579c0.51228,-0.1459 0.94428,-0.15838 1.29599,-0.03745l0.18114,-0.5268l0.52756,0.1814c0.12293,-0.13447 0.24321,-0.26982 0.37059,-0.40865c1.33991,-1.19463 3.45684,-1.40634 5.18009,-1.68271c0.82944,-0.13895 1.6494,-0.30178 2.4729,-0.46634c1.51357,-0.30135 2.9926,-0.58807 4.54477,-0.57277c0.79026,0.00073 1.56871,-0.05854 2.35772,-0.1142c0.62128,-0.03968 1.24166,-0.07674 1.86467,-0.11288c0.25946,-0.01682 0.52245,-0.03537 0.79164,-0.05474c10.30948,-0.47279 19.92227,5.51578 28.21652,10.91253z" fill="#840ea0"/><path d="M270.11813,154.37239c11.37088,12.10492 5.14849,36.38738 -13.89807,54.23638c-19.04658,17.84901 -43.7048,22.50551 -55.07568,10.4006c-11.37087,-12.10491 -5.14849,-36.38738 13.89809,-54.23638c19.04657,-17.84901 43.70479,-22.50551 55.07566,-10.4006z" fill="#5c0072"/><path d="M225.6487,113.53918c0.25779,0.16817 0.51649,0.3337 0.78129,0.50722c0.755,0.48934 1.50818,0.98395 2.25873,1.47766c0.22357,0.14756 0.44716,0.29513 0.67865,0.44542c1.2818,0.8531 2.46522,1.76073 3.64347,2.752c0.42673,0.31167 0.85527,0.61808 1.28826,0.92011c2.60265,1.87573 5.07144,3.92633 7.5581,5.95068c0.16637,0.13379 0.33448,0.27112 0.50523,0.40936c1.60844,1.31001 3.1166,2.68865 4.60385,4.13668c0.79324,0.74697 1.61417,1.45633 2.44928,2.15877c1.42502,1.20866 2.73731,2.49639 4.03231,3.84297c0.72624,0.74454 1.473,1.46374 2.23039,2.17776c1.08265,1.0291 2.1068,2.09108 3.10491,3.20304c0.79033,0.87556 1.59846,1.73368 2.40569,2.59444c0.15551,0.16539 0.31274,0.33433 0.47262,0.50418c0.79238,0.84387 1.5883,1.686 2.38514,2.52551c2.50584,2.63771 4.89549,5.3474 7.09109,8.25251c0.20137,0.26363 0.40275,0.52727 0.61021,0.7989l-0.18114,0.5268c0.14115,0.09566 0.28229,0.19132 0.4287,0.28878c1.25148,0.88979 2.0054,1.59674 2.53971,3.08822c-0.00261,0.2907 -0.00522,0.5814 -0.00792,0.88091l0.52757,0.1814c0.39172,1.06545 0.6543,2.17191 0.9408,3.26893c0.06256,0.23555 0.12452,0.47285 0.18588,0.7119c0.53024,2.1381 0.58359,4.2477 0.60887,6.43897c0.01041,0.51019 0.03054,1.01783 0.06213,1.52648c0.04012,1.12718 -0.09589,2.22619 -0.20913,3.34481c-0.0514,0.54981 -0.0561,1.07248 -0.01411,1.56801c0.03612,0.98441 -0.09928,1.91869 -0.25437,2.88449c-0.03183,0.20407 -0.06629,0.40724 -0.09991,0.61658c-0.28417,1.68429 -0.64663,3.34754 -1.04437,5.01045c-0.05589,0.23114 -0.10912,0.46321 -0.16772,0.70226c-0.99419,4.04097 -2.63661,7.68528 -5.10911,11.05006c0.17641,0.096 0.35547,0.19291 0.53716,0.29074c0.71575,0.4405 1.29,0.92365 1.91026,1.48743c2.13303,1.92043 4.28665,3.80671 6.5436,5.58124c1.37585,1.08572 2.66815,2.24287 3.9593,3.42906c1.03596,0.92468 2.1184,1.78287 3.21408,2.63677c0.8328,0.66631 1.63888,1.35878 2.44315,2.05652c3.64962,3.14585 7.31787,6.28045 11.33517,8.94891c0.16043,0.10818 0.32351,0.21726 0.4883,0.32989c2.13557,1.4412 4.31585,2.7181 6.61799,3.8808c0.23949,0.14419 0.47632,0.28748 0.72283,0.43703c0.8984,0.43262 1.6173,0.52076 2.60797,0.59925c3.52536,0.29023 6.37537,1.24072 8.79764,3.94984c0.14224,0.16967 0.28538,0.3367 0.43463,0.51174c0.22098,0.24093 0.44286,0.47921 0.66995,0.72814c0.12459,0.16949 0.24828,0.34162 0.37726,0.51557l-0.18114,0.52681l0.52756,0.1814l-0.18114,0.5268c0.13708,0.12175 0.27474,0.24468 0.41298,0.36879c1.54276,1.74988 1.69764,5.61453 1.6536,7.86149c-0.20486,3.06646 -1.20138,5.89605 -2.31535,8.74123c-0.13329,0.37046 -0.20911,0.7597 -0.22748,1.1677c-0.07043,0.77106 -0.45681,1.07119 -0.97956,1.63075c-1.16948,1.36809 -1.7497,2.82392 -2.35564,4.49183c-0.25767,0.5378 -0.54227,0.93085 -0.8538,1.17916c-0.39717,0.0971 -0.87756,0.13025 -1.44117,0.09945c-1.17163,0.03601 -1.6319,0.41383 -2.5485,1.12368c-0.484,0.36964 -0.97412,0.73131 -1.47643,1.07698l-0.52756,-0.1814c-0.12557,0.13356 -0.25113,0.26711 -0.37759,0.40331c-0.95604,0.87596 -1.9052,1.08861 -3.16592,1.32374c-0.3455,0.06971 -0.69362,0.13852 -1.04882,0.21078c-0.38696,0.07018 -0.7739,0.14037 -1.15992,0.20794c-0.19788,0.03505 -0.39668,0.07274 -0.60075,0.10861c-3.23099,0.51788 -6.76329,-0.27547 -9.49509,-2.11017c-2.92986,-2.5626 -4.67483,-5.95486 -5.32041,-9.78206l0.18114,-0.52681c-0.16056,0.0037 -0.3202,0.00477 -0.48604,0.00666c-3.0816,-0.49994 -6.46741,-4.83342 -8.44217,-7.09411c-0.55895,-0.61339 -1.13934,-1.1988 -1.72763,-1.78693c-2.30946,-2.30804 -4.50498,-4.73301 -6.48817,-7.32944l0.18114,-0.5268c-0.17213,-0.08275 -0.34335,-0.16813 -0.52075,-0.25269c-0.91716,-0.60107 -1.49025,-1.31064 -2.19181,-2.15272l0.18114,-0.52681c-0.21169,-0.09635 -0.41984,-0.19443 -0.63681,-0.29259c-1.03866,-0.62517 -1.78388,-1.41748 -2.6033,-2.2942c-0.39939,-0.40831 -0.7988,-0.81662 -1.20175,-1.22321c-0.7691,-0.78284 -1.53822,-1.5657 -2.30198,-2.35553c-0.15294,-0.15569 -0.30235,-0.31309 -0.45967,-0.47322c-0.29362,-0.30419 -0.58986,-0.60929 -0.88348,-0.91348c-0.98144,-1.00607 -2.01327,-1.89988 -3.10963,-2.77757l0.18114,-0.5268c-0.17906,-0.09691 -0.35899,-0.19412 -0.5398,-0.29165c-0.71484,-0.44313 -1.25998,-0.92512 -1.86329,-1.51252c-0.21073,-0.20206 -0.42321,-0.40766 -0.64097,-0.61508c-0.2081,-0.20114 -0.41794,-0.40585 -0.63305,-0.61235c-0.37251,-0.35783 -0.74856,-0.71393 -1.12553,-1.0674c-0.15739,-0.15132 -0.31833,-0.30091 -0.48011,-0.45668c-0.26175,-0.25101 -0.57299,-0.42675 -0.9337,-0.52722c-0.31928,0.19655 -0.64477,0.42827 -0.97645,0.69517c-0.33167,0.2669 -0.65716,0.49862 -0.97644,0.69516l-0.52756,-0.1814l-0.18114,0.5268l-0.52757,-0.1814c-0.23648,0.40469 -0.47297,0.80937 -0.71662,1.22632l-0.52756,-0.1814l-0.18114,0.5268l-0.52757,-0.1814c-0.12918,0.14409 -0.25837,0.28818 -0.38936,0.43754c-0.33365,0.28978 -0.79444,0.43178 -1.38239,0.42598c-0.17671,0.23083 -0.35342,0.46167 -0.53549,0.69951c-0.78608,0.3188 -1.40422,0.40081 -1.85441,0.24601c-0.10523,0.12876 -0.21076,0.2584 -0.3166,0.38892c-0.78747,0.66883 -1.63903,0.91504 -2.60877,1.25612c-0.16218,0.08561 -0.32699,0.17033 -0.49535,0.25676c-0.71736,0.32771 -1.42169,0.48022 -2.1931,0.63913c-0.28013,0.05978 -0.56025,0.11958 -0.84748,0.18281c-0.47401,0.07462 -0.88687,0.05146 -1.23858,-0.06947l-0.18114,0.5268c-3.75301,0.70069 -6.48933,0.93801 -8.20895,0.71197l-0.18114,0.52681c-0.18775,-0.01154 -0.37552,-0.02309 -0.57209,-0.03471c-1.07552,-0.05759 -2.1479,-0.0385 -3.21715,0.05727c-1.32694,0.14461 -2.57595,-0.04037 -3.89921,-0.2067c-0.48484,-0.09405 -0.86262,-0.06195 -1.13334,0.09631c-0.41559,-0.0781 -0.83013,-0.17645 -1.24022,-0.27917c-0.25784,-0.0651 -0.51568,-0.13018 -0.77971,-0.19445c-0.2763,-0.07144 -0.5535,-0.14026 -0.84035,-0.21531c-0.28249,-0.07063 -0.56407,-0.14389 -0.85447,-0.21723c-0.84564,-0.21713 -1.68865,-0.43335 -2.53339,-0.65311c-0.2332,-0.05956 -0.46638,-0.11913 -0.70659,-0.18405c-3.73736,-0.97479 -5.99135,-1.9658 -6.76197,-2.97302c-0.32796,-0.21291 -0.67986,-0.41049 -1.05572,-0.59274c-0.20719,-0.10659 -0.41614,-0.21378 -0.62685,-0.32157c-0.21598,-0.10961 -0.43287,-0.21658 -0.65323,-0.33064c-1.29945,-0.65593 -2.46182,-1.25589 -3.53951,-2.24793c-0.57452,-0.35365 -1.16083,-0.67306 -1.75413,-0.99783c-0.98936,-0.61411 -1.88967,-1.32425 -2.8049,-2.04246c-0.18303,-0.14541 -0.3696,-0.28909 -0.557,-0.43894c-0.57365,-0.45056 -1.14641,-0.90374 -1.71915,-1.35692c-1.30576,-1.03218 -2.61426,-2.05644 -3.9477,-3.05101c-0.93822,-0.71139 -1.75084,-1.46208 -2.55369,-2.31839c-0.42661,-0.42356 -0.869,-0.75828 -1.35715,-1.1058c-1.57798,-1.167 -2.88778,-2.63354 -4.24306,-4.04503c-0.56975,-0.59059 -1.14658,-1.17773 -1.72433,-1.76223c-0.29015,-0.29711 -0.58384,-0.5925 -0.87399,-0.8896l0.18114,-0.52681c-0.57945,-0.29644 -1.1589,-0.59287 -1.75591,-0.89829l0.18114,-0.52681c-0.78112,-0.5592 -1.56983,-1.12493 -2.36612,-1.69719l0.18114,-0.52681c-0.40536,-0.23658 -0.81071,-0.47315 -1.22835,-0.71689l0.18114,-0.5268c-0.21343,-0.09989 -0.42685,-0.19979 -0.64465,-0.30413c-0.97468,-0.57961 -1.69943,-1.29418 -2.47086,-2.11317c-0.13924,-0.14409 -0.27963,-0.29055 -0.42117,-0.43936c-0.33814,-0.35485 -0.67628,-0.70969 -1.01352,-1.06717l0.18114,-0.5268c-0.16858,-0.08448 -0.33717,-0.16895 -0.51367,-0.25614c-0.9085,-0.58337 -1.61017,-1.31357 -2.34937,-2.08907c-0.30936,-0.31844 -0.61608,-0.63598 -0.92545,-0.95442c-0.15378,-0.16185 -0.31109,-0.32199 -0.46924,-0.48828c-0.73317,-0.75871 -1.47433,-1.51133 -2.21549,-2.26396l-1.31099,-1.3344l0.18114,-0.5268c-0.54956,-0.38336 -1.09912,-0.76673 -1.66534,-1.1617l0.18114,-0.5268c-0.15538,-0.11429 -0.31252,-0.2292 -0.47141,-0.3447c-0.74683,-0.7104 -1.24814,-1.45713 -1.80933,-2.31282c-0.42042,-0.62171 -0.86579,-1.21372 -1.32971,-1.80326c-0.82567,-1.06445 -1.56631,-2.17033 -2.29079,-3.30603c-0.30975,-0.47173 -0.64348,-0.92521 -0.98693,-1.37614l0.18114,-0.52681c-0.12689,-0.11137 -0.25204,-0.2192 -0.3833,-0.33502c-0.62601,-0.71007 -0.95077,-1.4727 -1.35676,-2.32509c-0.17923,-0.2737 -0.36019,-0.55094 -0.54288,-0.83172c-0.13558,-0.22334 -0.27117,-0.44669 -0.41376,-0.67539l0.18114,-0.52681l-0.52757,-0.1814c-0.01357,-0.15783 -0.02715,-0.31566 -0.04246,-0.47703c-0.11479,-1.06449 -0.22923,-1.8726 -0.71711,-2.83856c-0.61715,-1.30202 -0.7026,-2.5891 -0.85032,-4.01247c-0.14474,-1.16609 -0.28709,-2.30485 -0.58644,-3.44164c0.0253,-0.45962 0.05324,-0.91834 0.08736,-1.37788c0.02045,-0.44264 0.00816,-0.90734 -0.03685,-1.39408c-0.67481,-8.91519 2.55131,-18.79537 7.53005,-26.13776c0.11887,-0.17415 0.23511,-0.34921 0.35669,-0.53124c1.56691,-2.30948 3.23326,-4.4964 5.09095,-6.57925c0.15859,-0.17815 0.32074,-0.35804 0.48469,-0.54319c0.76606,-0.8382 1.48131,-1.52008 2.44378,-2.13169c0.32034,-0.31399 0.63194,-0.63689 0.94008,-0.96686c2.30236,-2.29518 5.33678,-4.39461 8.20625,-5.90278l0.52757,0.1814l0.18114,-0.5268l0.52757,0.1814c0.08434,-0.1595 0.17132,-0.31811 0.25747,-0.48288c0.12226,-0.15826 0.24188,-0.31742 0.36858,-0.48003c0.29103,0.00287 0.58206,0.00574 0.88192,0.00869c0.17671,-0.23084 0.35342,-0.46167 0.53549,-0.69951c0.51181,-0.2246 1.07267,-0.44313 1.68256,-0.6556c0.30025,-0.10687 0.60405,-0.21547 0.91139,-0.32579c0.51228,-0.1459 0.94428,-0.15838 1.29599,-0.03745l0.18114,-0.5268l0.52757,0.1814c0.12292,-0.13446 0.24321,-0.26982 0.37058,-0.40864c1.33991,-1.19463 3.45684,-1.40634 5.18009,-1.68272c0.82945,-0.13895 1.6494,-0.30178 2.4729,-0.46634c1.51356,-0.30135 2.9926,-0.58807 4.54477,-0.57277c0.79026,0.00074 1.56871,-0.05854 2.35772,-0.11419c0.62128,-0.03969 1.24166,-0.07675 1.86467,-0.11289c0.25946,-0.01682 0.52246,-0.03537 0.79164,-0.05474c10.30948,-0.47279 19.92227,5.51578 28.21652,10.91253zM197.22698,106.12302l-0.18114,0.52681c-0.24531,-0.05293 -0.49267,-0.10558 -0.7421,-0.15796c-0.32312,-0.06397 -0.64623,-0.12795 -0.9799,-0.19555c-0.31958,-0.0657 -0.63915,-0.1314 -0.97018,-0.1981c-0.94105,-0.10266 -1.37693,0.0155 -2.24497,0.32674c-0.4397,-0.01373 -0.88981,-0.04577 -1.35035,-0.09612c-1.45008,-0.08918 -2.49993,0.23613 -3.84083,0.75591c-0.70338,0.24415 -1.31821,0.35085 -2.05528,0.41847c-1.1026,0.10983 -1.72871,0.48953 -2.6516,1.11474c-0.33147,0.08043 -0.66294,0.16086 -1.00414,0.24382c-0.64257,0.11877 -1.1306,0.41144 -1.46407,0.87801c-0.15061,0.17207 -0.30212,0.34677 -0.45717,0.5232c-0.20426,-0.04078 -0.41145,-0.08159 -0.62159,-0.12242c-1.14306,-0.09848 -1.71248,0.45093 -2.62144,1.09566c-0.34086,0.24214 -0.55914,0.55098 -0.65483,0.92651c-0.1702,-0.00256 -0.33686,-0.00685 -0.51234,-0.01122c-0.88126,0.21244 -1.31842,0.66888 -1.96777,1.27917c-0.66214,0.56171 -1.43226,0.87128 -2.21703,1.2406c-0.54244,0.39374 -1.07441,0.79991 -1.59854,1.21762c-0.27085,0.20436 -0.54169,0.40872 -0.82053,0.61917c-0.69009,0.53148 -1.36089,1.07548 -2.0222,1.64337c-0.26422,0.21941 -0.5308,0.43996 -0.79975,0.66166c-0.87924,0.77277 -1.56888,1.64608 -2.23895,2.59975c-0.11879,0.16534 -0.23668,0.32804 -0.35728,0.49865c-0.24203,0.33502 -0.48143,0.67097 -0.71992,1.00427c-0.48415,0.67887 -0.98231,1.34704 -1.47783,2.0161c-1.0207,1.39865 -1.98526,2.83131 -2.94371,4.27197c-0.47375,0.70012 -0.96054,1.37808 -1.46496,2.05587c-3.93794,5.47352 -5.50451,13.04072 -5.99374,19.67942l0.17321,0.3541c-0.06282,0.25134 -0.12567,0.50562 -0.18855,0.76283c-0.33258,1.57633 -0.08959,3.19445 0.05045,4.78601l0.52757,0.1814c-0.01104,0.24656 -0.02298,0.49577 -0.0341,0.75115c0.01845,1.08731 0.18627,2.04043 0.42279,3.1026c0.07563,0.35196 0.15211,0.70716 0.22944,1.06561c0.29369,0.98168 0.67745,1.65853 1.25553,2.49941c0.08944,0.2546 0.17885,0.51214 0.26824,0.77262c0.36417,0.99118 0.8426,1.83019 1.37777,2.73583c0.47769,0.82402 0.92439,1.66097 1.37281,2.50145c1.60977,2.92752 3.54673,5.56403 5.63665,8.15887c0.49534,0.62686 0.95102,1.24892 1.38868,1.91486c0.7889,1.03413 1.685,1.7222 2.7518,2.45424l-0.18114,0.52681c0.14197,0.10183 0.28627,0.20544 0.43291,0.31084c1.02164,0.75186 1.75592,1.38724 2.45285,2.44865c0.60566,0.52047 1.21238,1.02068 1.83856,1.5158c1.83293,1.45495 3.47203,2.98465 5.0432,4.71189c1.16264,1.35409 2.48545,2.4854 3.96844,3.39392l-0.18114,0.52681c1.30705,1.38017 2.61738,2.69078 4.10519,3.8798c1.09357,0.8944 1.96897,1.82278 2.84544,2.92826c1.08574,1.37182 2.23312,2.46147 3.59834,3.55236c0.6979,0.56102 1.34966,1.1533 2.00481,1.76148c1.34911,1.21496 2.82094,2.21882 4.32807,3.22303c0.92642,0.61702 1.45257,1.05418 1.57844,1.31149c0.54367,0.25467 1.09269,0.50236 1.64261,0.74741c2.24927,1.05909 4.01959,2.61033 5.8516,4.26527c0.88995,0.78316 1.68593,1.12754 2.8,1.50766c0.30071,0.1034 0.60406,0.2077 0.91532,0.31472c0.54164,0.18624 1.10596,0.26933 1.69296,0.24927c0.49858,0.26569 0.99535,0.53664 1.49212,0.8076c4.48268,1.62379 9.46305,2.14334 14.18538,1.63751c0.47203,-0.01737 0.94405,-0.03474 1.4169,-0.04594c3.49866,-0.17255 6.84612,-0.69457 10.15443,-1.86626c0.29108,-0.1002 0.5857,-0.20214 0.88651,-0.30489c0.82815,-0.28961 1.65373,-0.58894 2.47586,-0.89534c0.22655,-0.08411 0.45574,-0.1673 0.68846,-0.25223c1.16998,-0.44305 2.1511,-0.97167 3.20939,-1.64752c0.33509,-0.12238 0.67253,-0.24592 1.01234,-0.37061c1.0471,-0.41167 1.77637,-0.8855 2.62175,-1.61984l0.18114,-0.52681l0.52756,0.1814c0.60241,-0.42515 1.07752,-0.94906 1.42533,-1.57172c-0.37078,-0.35428 -0.73892,-0.70767 -1.1097,-1.06196c-0.20637,-0.19762 -0.41275,-0.39522 -0.62349,-0.59729c-0.52313,-0.47737 -1.04305,-0.92122 -1.59651,-1.36189c-1.06207,-0.86591 -1.96247,-1.85884 -2.883,-2.87049c-1.51113,-1.63591 -3.07449,-3.15427 -4.77619,-4.58768c-0.85696,-0.72469 -1.58493,-1.47277 -2.29951,-2.33702l-0.52756,-0.1814l0.18114,-0.52681c-0.71221,-1.61746 -1.45756,-2.98417 -2.79568,-4.14529c-1.28077,-1.16495 -2.36246,-2.4971 -2.61391,-4.25363c-0.01012,-1.32598 0.17429,-2.60864 0.49188,-3.89262c0.04666,-0.18719 0.08979,-0.37266 0.13562,-0.56602c0.66661,-2.33333 2.26408,-4.01965 4.29101,-5.30793c1.84731,-0.92886 4.19531,-1.72679 6.23226,-1.08826c1.52949,0.67317 2.89498,1.34297 4.17472,2.42511c0.90195,0.72248 1.86637,1.16896 2.93685,1.59006c1.79741,0.79474 3.27822,1.97841 4.8332,3.15224c2.6073,1.94802 5.35398,3.69653 8.11145,5.42227c0.26924,0.16916 0.5385,0.33832 0.8183,0.5111c1.28847,0.79942 2.57015,1.56706 3.93835,2.22895c1.88772,-1.79269 2.66159,-3.7946 3.45261,-6.23242c0.0634,-0.18439 0.12416,-0.36967 0.18763,-0.56286c1.69521,-5.10182 2.70186,-10.03687 2.73617,-15.42113c0.00506,-0.56378 0.01986,-1.1301 0.03639,-1.69289c0.04383,-1.63733 -0.07299,-3.06479 -0.42024,-4.6628c-0.02205,-0.35907 -0.04466,-0.72227 -0.06782,-1.08957c-0.0888,-1.01137 -0.27502,-1.7823 -0.69183,-2.70616l-0.52757,-0.1814c0.0047,-0.22813 0.01294,-0.45798 0.01771,-0.69492c-0.10211,-0.90402 -0.27643,-1.13479 -0.96643,-1.6931l0.18114,-0.5268c-0.28901,-0.42337 -0.62872,-0.86516 -1.01913,-1.32535c-0.20764,-0.25401 -0.41617,-0.50538 -0.6299,-0.76738c-0.20416,-0.24693 -0.40833,-0.49385 -0.6186,-0.74877c-0.5964,-0.7647 -1.02858,-1.32075 -1.29652,-1.66816c-0.24957,-0.29788 -0.63365,-0.5134 -1.15224,-0.64655l0.18114,-0.52681c-0.25894,-0.36786 -0.57822,-0.7604 -0.95784,-1.17762c-0.2311,-0.26011 -0.46422,-0.52289 -0.69938,-0.78833c-1.46275,-1.62222 -2.93968,-3.23754 -4.41578,-4.84667c-0.19129,-0.20715 -0.38432,-0.41785 -0.57908,-0.63208c-0.40963,-0.44718 -0.82281,-0.89262 -1.23245,-1.3398c-0.20729,-0.2264 -0.41691,-0.45458 -0.62888,-0.68455c-0.18692,-0.20271 -0.37384,-0.40542 -0.56687,-0.61611c-0.62171,-0.69683 -1.19909,-1.41964 -1.76041,-2.16344c-0.98072,-1.08536 -2.17773,-1.75612 -3.46835,-2.41197c-0.88324,-0.45096 -1.74363,-0.89113 -2.56237,-1.45245l0.18114,-0.52681c-0.24811,-0.1992 -0.49855,-0.40018 -0.75133,-0.60295c-0.33184,-0.27021 -0.66195,-0.53688 -0.9938,-0.80708c-0.16201,-0.12935 -0.32575,-0.26223 -0.49212,-0.39602c-1.09711,-0.89268 -2.00146,-1.83984 -2.92143,-2.91314c-0.30696,-0.29111 -0.62018,-0.57259 -0.94675,-0.84098c-0.14444,-0.12036 -0.29153,-0.24163 -0.44035,-0.36643c-0.34698,-0.25479 -0.84917,-0.47852 -1.50659,-0.67118l0.18114,-0.5268c-0.25582,-0.19106 -0.51164,-0.38211 -0.77356,-0.58115c-2.06836,-1.55947 -4.08078,-3.16156 -6.04657,-4.84776c-1.32955,-1.1346 -2.703,-2.19299 -4.10124,-3.23928c-1.03979,-0.79345 -2.01813,-1.65413 -3.00445,-2.50872c-1.28742,-1.11128 -2.52846,-2.0829 -4.07323,-2.82319c-0.59587,-0.33448 -1.07775,-0.69162 -1.61019,-1.11622c-1.23057,-0.95919 -2.55856,-1.67796 -3.93322,-2.40686c-1.50803,-0.80423 -2.97008,-1.6221 -4.39302,-2.57086c-1.96629,-1.23866 -4.06955,-1.9589 -6.2591,-2.69408c-0.20839,-0.07165 -0.41414,-0.1424 -0.6278,-0.21586c-3.35803,-1.14579 -6.64167,-1.93316 -10.19283,-2.19987z" fill="#221c25"/><path d="M311.38689,231.07628c2.64942,0.79611 5.29175,2.28194 6.73031,4.7294l-0.18114,0.52681c0.13564,0.12027 0.27126,0.24054 0.40952,0.36172c1.30264,1.4788 1.36964,3.93478 1.35532,5.82083c-0.26422,3.68519 -1.37617,7.77699 -3.24219,10.98212c-0.20429,0.02794 -0.41034,0.05528 -0.61814,0.082c-0.36182,0.51181 -0.69822,1.04414 -1.02145,1.581c-0.17727,0.2925 -0.35453,0.58501 -0.53714,0.8845c-0.13436,0.22773 -0.27043,0.45192 -0.41015,0.68664c0.90272,0.2456 1.78464,0.25429 2.64576,0.02608c0.32424,-0.45402 0.62919,-0.92059 0.92188,-1.39432c0.58798,-0.94654 1.18662,-1.80401 1.9367,-2.63004c0.11433,0.23371 0.22865,0.46742 0.34642,0.70821c-0.30263,0.70005 -0.62509,1.34616 -0.98832,2.01653c-0.29693,0.55474 -0.59122,1.11039 -0.88552,1.66602c-0.14529,0.26816 -0.28704,0.53457 -0.43769,0.80972c-0.26379,0.49839 -0.47409,0.99848 -0.6309,1.50026c-0.13756,0.38863 -0.36474,0.70618 -0.68153,0.95268c-0.81416,0.20607 -1.16506,0.09424 -1.90412,-0.30421c-0.32452,-0.49743 -0.64367,-1.00185 -0.95665,-1.50711l-1.05512,-0.36279c-0.12166,0.12507 -0.24481,0.2516 -0.36944,0.37959c-1.34531,1.30469 -2.6865,2.15132 -4.50883,2.65577l-0.52756,-0.1814c-0.1779,0.23142 -0.3564,0.46459 -0.53549,0.69951c-2.46143,1.15362 -4.45012,0.64066 -6.89079,-0.2221c-1.46714,-0.54569 -2.81861,-1.20478 -4.11335,-2.08884l0.18114,-0.5268c-0.23141,-0.15909 -0.46284,-0.31819 -0.70216,-0.48001c-0.23111,-0.19433 -0.46218,-0.38866 -0.6994,-0.59099c0.00261,-0.29071 0.00523,-0.5814 0.00792,-0.88091c-0.23183,-0.1779 -0.46543,-0.3564 -0.70078,-0.5355l0.18114,-0.5268c-0.15365,-0.07639 -0.30821,-0.15015 -0.46715,-0.22837c-0.3316,-0.26522 -0.55644,-0.60074 -0.67451,-1.00657c-0.02423,-0.24691 -0.05111,-0.49474 -0.07618,-0.74783c-0.02926,-0.27515 -0.05681,-0.54676 -0.08601,-0.83074c-0.02468,-0.29713 -0.04935,-0.59427 -0.07393,-0.90021c-0.02714,-0.31565 -0.05429,-0.63132 -0.08046,-0.95843c-0.19522,-2.61492 0.13939,-4.51456 0.9862,-6.97738c0.08611,-0.25904 0.17314,-0.52072 0.25934,-0.78856c0.08604,-0.25024 0.17299,-0.5031 0.26175,-0.76124c0.07789,-0.22652 0.15668,-0.45568 0.23465,-0.69102c0.32663,-0.71831 0.74367,-1.19346 1.27105,-1.77499c0.1701,-0.28024 0.33846,-0.56402 0.51482,-0.85389c0.95101,-1.49623 2.25482,-2.69737 3.49736,-3.95199c0.15083,-0.16413 0.30256,-0.3309 0.45521,-0.50031c1.93252,-2.06889 4.31746,-3.5404 7.1673,-3.65328c0.98054,-0.07227 1.2132,-0.14838 2.03554,-0.77283c0.92793,0.08932 1.75843,0.32481 2.65945,0.56097z" fill="#451d56"/><path d="M208.73431,107.99138c0.18201,0.06258 0.36139,0.12426 0.54867,0.18865c2.7196,0.93511 5.11336,2.01149 7.54791,3.55254c0.74764,0.42497 1.50689,0.8333 2.26441,1.23809c0.19134,0.10408 0.38004,0.20725 0.57665,0.31315c1.09717,0.59226 2.20355,1.14056 3.32946,1.67497c2.8088,1.41347 5.47841,3.3947 7.85545,5.44617c0.53212,0.45983 1.067,0.80868 1.67062,1.16351c0.57378,0.33866 1.02381,0.60828 1.48876,1.08331l-0.18114,0.5268c0.33567,0.13897 0.67044,0.28059 1.01666,0.4232c1.12245,0.52732 1.89276,1.17804 2.76254,2.04557c0.52916,0.49416 1.07428,0.88188 1.67568,1.28602c0.93441,0.64528 1.64868,1.34742 2.39507,2.20493c0.88524,1.01129 1.7172,1.67142 2.88618,2.32078c0.66315,0.40474 1.08739,0.89523 1.52264,1.53383c0.02727,0.20378 0.05455,0.40756 0.08264,0.61751c0.43858,0.46596 0.89495,0.91447 1.36111,1.35164l0.76085,0.7211c0.49508,0.45888 0.9991,0.87175 1.51206,1.23859c0.43553,0.34612 0.77947,0.70983 1.03182,1.09114c0.73236,1.04414 1.88713,1.60614 2.94379,2.29051c0.82511,0.63716 1.25382,1.21755 1.75108,2.12194c-0.64119,-0.29705 -1.28146,-0.59673 -1.92084,-0.89904c-0.17831,-0.08193 -0.35925,-0.16476 -0.54284,-0.24851c-1.24882,-0.59728 -2.16082,-1.28199 -3.14876,-2.25201l0.18114,-0.5268c-0.27542,-0.16834 -0.5544,-0.33495 -0.83948,-0.50956c-1.15747,-0.75144 -2.11513,-1.65508 -3.10141,-2.61274c-1.30906,-1.25422 -2.65171,-2.40216 -4.11411,-3.47641l0.18114,-0.5268c-0.14484,-0.0763 -0.29141,-0.15617 -0.44153,-0.23428c-1.75346,-0.97404 -3.25554,-2.14734 -4.78477,-3.43897c-0.23373,-0.19524 -0.46574,-0.38693 -0.70648,-0.58753c-1.28601,-1.0725 -2.55775,-2.16072 -3.8197,-3.2603c-0.63987,-0.54106 -1.30569,-1.04099 -1.97679,-1.54271c-0.50275,-0.39083 -0.99042,-0.7912 -1.47619,-1.20565c-1.55282,-1.3174 -3.02877,-2.54947 -4.87197,-3.45128c-0.59933,-0.34156 -1.08822,-0.70407 -1.62767,-1.13402c-1.23057,-0.95919 -2.55684,-1.67441 -3.93412,-2.40423c-1.50539,-0.80332 -2.9648,-1.62029 -4.38511,-2.56813c-1.81806,-1.14646 -3.73907,-1.83055 -5.76772,-2.5104c-0.61906,-0.20697 -1.2345,-0.42447 -1.8473,-0.64107c-2.22805,-0.76904 -4.29604,-1.29159 -6.65552,-1.47254c-0.97171,-0.12499 -1.81153,-0.40196 -2.7248,-0.74839l-0.18114,0.5268c-0.25107,-0.03331 -0.50214,-0.06661 -0.76203,-0.10001c-0.33127,-0.04027 -0.66253,-0.08054 -1.00526,-0.12179c-0.32833,-0.04024 -0.66017,-0.08169 -0.99553,-0.12434c-0.91778,-0.04164 -1.41729,0.08999 -2.26489,0.38469c-0.4397,-0.01373 -0.88982,-0.04577 -1.35035,-0.09612c-1.45008,-0.08917 -2.49993,0.23613 -3.84082,0.7559c-0.70339,0.24416 -1.31821,0.35086 -2.05529,0.41848c-1.09996,0.11073 -1.73398,0.48771 -2.6516,1.11474c-0.26859,0.05197 -0.53546,0.10749 -0.81114,0.16292c-0.54462,0.0798 -1.02071,0.32061 -1.42827,0.72243c-0.19462,0.16282 -0.39279,0.32738 -0.5954,0.49629c-0.17351,-0.02725 -0.34438,-0.05361 -0.52407,-0.08005c-0.91349,-0.02838 -1.30278,0.40034 -2.01075,0.95808c-0.83585,0.65515 -1.29761,1.00298 -2.33817,1.27553c-0.29548,0.23025 -0.57881,0.48236 -0.84999,0.75631c-0.55942,0.48314 -1.13309,0.72181 -1.72104,0.71602c-0.28449,0.24974 -0.5811,0.54048 -0.88984,0.87221c-0.5276,0.41063 -1.0622,0.8159 -1.59854,1.21762c-0.97149,0.73221 -1.92187,1.47168 -2.84273,2.26254c-0.26422,0.2194 -0.5308,0.43996 -0.79975,0.66167c-0.87924,0.77276 -1.56888,1.64607 -2.23895,2.59974c-0.11879,0.16534 -0.23668,0.32804 -0.35728,0.49865c-0.24203,0.33503 -0.48143,0.67097 -0.71992,1.00428c-0.48415,0.67887 -0.98231,1.34703 -1.47783,2.0161c-1.0207,1.39864 -1.98526,2.83131 -2.94371,4.27196c-0.47376,0.70012 -0.96054,1.37809 -1.46496,2.05588c-3.93794,5.47353 -5.50451,13.04072 -5.99374,19.67942l0.17321,0.3541c-0.06329,0.26984 -0.12393,0.54059 -0.18993,0.81833c-0.23491,1.11213 -0.12229,2.12286 0.02112,3.24136c0.02575,0.40551 -0.05194,0.87166 -0.23308,1.39847l0.52757,0.1814c0.14095,0.7053 0.27926,1.40969 0.41757,2.11408c0.03791,0.19859 0.07935,0.39547 0.12072,0.60114c0.16771,0.86767 0.3059,1.68394 0.34471,2.56619c0.04637,0.82594 0.33457,0.94859 0.91065,1.52075c0.18439,0.4846 0.36968,0.96656 0.54344,1.45635c0.34508,0.85795 0.81269,1.62551 1.28361,2.41775c0.47686,0.81785 0.92183,1.65124 1.36853,2.48818c0.88588,1.62711 1.88134,3.13283 2.94999,4.64016c0.30221,0.45933 0.48087,0.89483 0.53597,1.3065c-0.46811,-0.32001 -0.93529,-0.67701 -1.40156,-1.071c0.00143,-0.29013 0.00408,-0.58377 0.00792,-0.88091c-0.29147,-0.21607 -0.61299,-0.4248 -0.96456,-0.6262c-1.10182,-1.1535 -1.85914,-2.36527 -2.52349,-3.81311c-0.37675,-0.6715 -0.76148,-1.33692 -1.14977,-2.00061c-0.23967,-0.41818 -0.46162,-0.845 -0.67294,-1.27701l0.27171,-0.79021c-0.17602,-0.14005 -0.35468,-0.28101 -0.53598,-0.42287c-1.04703,-0.96972 -1.19159,-1.86181 -1.43483,-3.25617c-0.09257,-0.49427 -0.2205,-0.98007 -0.35198,-1.46415c-1.29984,-5.12429 -0.94295,-9.89396 0.13591,-15.01331c0.05068,-0.24177 0.09782,-0.48182 0.15123,-0.73149c0.04517,-0.21716 0.09298,-0.4334 0.13996,-0.65583c0.07451,-0.43976 0.01245,-0.95986 -0.18618,-1.5603c0.14014,-0.54483 0.32158,-1.1383 0.54433,-1.7804c0.05887,-0.17121 0.11774,-0.34243 0.17842,-0.5189c0.12408,-0.36086 0.2517,-0.72345 0.37842,-1.08341c0.19456,-0.54869 0.38385,-1.09921 0.57314,-1.64972c0.65852,-1.89233 1.24498,-3.25766 1.75937,-4.09598c0.12069,-0.37674 0.23347,-0.75622 0.3348,-1.13669c0.62292,-1.88886 1.75993,-3.47136 2.84639,-5.12131c0.43914,-0.67667 0.84935,-1.37214 1.26393,-2.06315c1.431,-2.30025 3.09862,-4.82545 5.12422,-6.65027l0.52757,0.1814c0.23649,-0.40468 0.47297,-0.80937 0.71663,-1.22632l0.52757,0.1814c0.15001,-0.20467 0.29913,-0.40671 0.45095,-0.61664c1.03128,-1.30074 2.03518,-2.20444 3.51149,-2.9722c1.34709,-0.71794 2.61099,-1.50277 3.86596,-2.37315c0.17198,-0.09697 0.34223,-0.19749 0.51865,-0.29882l0.52757,0.1814c0.12194,-0.12302 0.24297,-0.2434 0.36672,-0.37169c0.17171,-0.16482 0.34432,-0.33226 0.52311,-0.50053c0.16643,-0.16663 0.33377,-0.33589 0.50465,-0.50688c1.61405,-1.17695 3.5165,-1.66564 5.42875,-2.16569l0.86462,-0.4214c1.7753,-0.86525 3.52202,-1.20131 5.46485,-1.47288c0.18898,-0.02632 0.38151,-0.05438 0.57667,-0.08152c0.8733,-0.11209 1.43647,-0.16292 2.28321,0.12822l0.27171,-0.79021l2.81896,0.38018l0.18114,-0.5268c0.18706,0.05646 0.37589,0.11353 0.56647,0.17121c1.55018,0.43286 2.71643,0.60118 4.29511,0.31633c3.32745,-0.45528 7.10601,1.20035 10.17999,2.25436z" fill="#461e57"/><path d="M307.50709,244.11012c1.2637,0.70844 1.91257,1.52358 2.31522,2.94328c-0.00127,1.71087 -0.7507,3.35005 -1.6411,4.77288c-0.75919,0.66382 -1.3831,0.89995 -2.38988,0.94552c-1.41558,-0.19808 -2.36245,-0.63558 -3.3827,-1.64027c-0.70904,-1.28354 -1.15452,-2.15835 -0.77699,-3.6338c0.2708,-0.78757 0.55826,-1.56353 0.87392,-2.33568l0.52756,0.1814c0.1105,-0.12695 0.22219,-0.25447 0.33505,-0.38257c1.40559,-1.23979 2.41581,-1.56988 4.13719,-0.85431z" fill="#261e29"/><path d="M244.71621,208.21118c0.98279,0.65897 1.86494,1.32754 2.73346,2.13867c1.20317,1.06464 2.48741,2.03933 3.74676,3.03493c-0.57344,1.29028 -1.03483,1.98877 -2.25663,2.70265c-0.26691,0.15859 -0.53291,0.31455 -0.81044,0.47831c-0.27897,0.15935 -0.56119,0.31955 -0.84663,0.4806c-0.27491,0.16468 -0.55154,0.32581 -0.83352,0.49395c-1.46202,0.84631 -2.83756,1.4926 -4.46284,1.95584c-0.71046,0.24761 -1.29999,0.58098 -1.94381,0.96931c-1.17409,0.70379 -2.21946,1.11901 -3.56357,1.40793l-1.05513,-0.3628c-0.17672,0.23084 -0.35342,0.46168 -0.53548,0.69951c-3.01972,1.05297 -8.43671,1.81184 -11.47284,0.7679l-0.18114,0.5268c-3.80496,0.10258 -7.4342,-0.70054 -11.09104,-1.6722c-1.23718,-0.32231 -2.24437,-0.52429 -3.53133,-0.41011c-2.71429,-1.03636 -4.68646,-3.28735 -6.74402,-5.2643c0.83738,-0.04197 1.12294,0.07979 1.78844,0.61494c0.23146,0.21901 0.46584,0.44098 0.70314,0.66591c1.69685,1.48181 3.65119,2.48073 5.94153,2.50243c0.49859,0.26569 0.99536,0.53664 1.49213,0.80759c4.48268,1.6238 9.46304,2.14334 14.18538,1.63751c0.47202,-0.01736 0.94405,-0.03474 1.4169,-0.04594c3.49602,-0.17345 6.84611,-0.69457 10.15443,-1.86626c0.29726,-0.10103 0.59278,-0.20559 0.89803,-0.31271c0.82461,-0.28788 1.64493,-0.58903 2.46434,-0.88754c0.19729,-0.06765 0.39549,-0.13793 0.59633,-0.20732c0.88748,-0.31633 1.67052,-0.6892 2.46439,-1.18794c0.2755,-0.16643 0.55454,-0.33459 0.83713,-0.50448l0.52757,0.1814l0.53549,-0.69951l1.06306,-0.51811c0.27446,-0.2149 0.54893,-0.4298 0.83231,-0.65342c0.25274,-0.18604 0.50816,-0.37411 0.76624,-0.5642l0.52756,0.1814c0.15242,-0.17734 0.30574,-0.35731 0.46351,-0.54164c0.3446,-0.39599 0.66521,-0.73934 0.96182,-1.03008c-0.16942,-0.09065 -0.34236,-0.17957 -0.51705,-0.27203c-2.02341,-1.26127 -3.83927,-3.14333 -5.34504,-4.98358z" fill="#361e40"/><path d="M165.82144,183.73494c1.06803,0.69417 1.7464,1.26909 2.44877,2.3147c0.60565,0.52047 1.21238,1.02069 1.83855,1.5158c1.82155,1.44515 3.45372,2.96069 5.01261,4.68077c1.21489,1.33081 2.52978,2.52517 3.90846,3.68845l-0.18114,0.5268c0.12968,0.09467 0.25673,0.18842 0.38815,0.28663c2.00364,1.49893 3.75053,3.20412 5.5056,4.97986c0.14684,0.1477 0.29369,0.29538 0.44401,0.45016c0.70529,0.71967 1.39023,1.44707 2.04841,2.20944c0.59112,0.66569 1.17165,1.23348 1.85629,1.79877c0.86487,0.72741 1.6652,1.47093 2.43837,2.29346l-0.09057,0.2634c-1.00821,-0.2848 -1.47812,-0.59954 -2.19291,-1.34309c-0.30113,-0.18797 -0.60429,-0.37861 -0.90949,-0.57191c-1.06382,-0.67211 -1.98269,-1.47405 -2.76763,-2.45968c-0.02727,-0.20378 -0.05454,-0.40755 -0.08264,-0.61751c-0.41357,-0.4014 -0.8423,-0.78445 -1.27993,-1.15878c-0.74565,-0.64518 -1.4562,-1.27241 -2.13685,-1.98655c-0.64436,-0.63096 -1.3038,-1.05505 -2.06514,-1.52596c-0.68641,-0.46576 -1.22805,-1.04374 -1.78174,-1.65532l0.18114,-0.52681c-0.17559,-0.08982 -0.35382,-0.18055 -0.53468,-0.2722c-0.80331,-0.51184 -1.33085,-1.08792 -1.95949,-1.79891c-1.01568,-1.12093 -2.0503,-2.19536 -3.14697,-3.23517c-1.77523,-1.69137 -3.48999,-3.43854 -5.20204,-5.1936c-0.437,-0.4448 -0.874,-0.8896 -1.31099,-1.3344l0.18114,-0.52681c-0.23126,-0.17672 -0.46251,-0.35343 -0.70078,-0.5355l0.09057,-0.26341z" fill="#3e1e4b"/><path d="M208.73431,107.99138c0.17937,0.06168 0.36139,0.12426 0.54603,0.18775c2.71169,0.93238 5.15068,1.98013 7.54964,3.55608c0.49043,0.28939 0.98267,0.57351 1.47492,0.85764c0.32638,0.19175 0.6554,0.3844 0.98177,0.57615l-0.18114,0.5268c0.28402,0.12908 0.57038,0.25994 0.85906,0.39258c2.07812,0.9649 4.01423,1.93105 5.81022,3.37331c0.28122,0.21156 0.5598,0.42222 0.84712,0.64178c0.18336,0.14159 0.36817,0.28466 0.55444,0.42922l-0.18114,0.5268c0.14422,0.14678 0.28842,0.29357 0.437,0.44481c-1.5991,-0.77958 -3.118,-1.55221 -4.49692,-2.68905c-1.57537,-1.26036 -3.31967,-2.17529 -5.09546,-3.11871c-1.25347,-0.66957 -2.4476,-1.36587 -3.62767,-2.15453c-1.8207,-1.14737 -3.7408,-1.83409 -5.77036,-2.51131c-0.61906,-0.20697 -1.2345,-0.42447 -1.8473,-0.64106c-2.22805,-0.76904 -4.29604,-1.29159 -6.65551,-1.47255c-0.97171,-0.12499 -1.81153,-0.40196 -2.72481,-0.74838l-0.18114,0.52681c-0.63922,-0.1226 -1.27845,-0.24519 -1.93704,-0.37149c4.84915,-1.26927 9.01937,0.08802 13.64001,1.6709z" fill="#471f58"/><path d="M273.64839,168.67579c2.36813,4.02478 0.40418,12.4303 -0.57105,16.71638c-0.27838,1.04122 -0.59277,2.06711 -0.93008,3.09102c-0.07533,0.23625 -0.14802,0.47339 -0.22516,0.7149c-0.24699,0.78693 -0.50097,1.5685 -0.75585,2.35272c-0.07896,0.24677 -0.15792,0.49355 -0.23695,0.74914c-0.50198,1.48568 -1.00777,2.51056 -2.19986,3.54984c-0.29046,-0.00169 -0.58444,-0.00459 -0.88192,-0.00869c0.38712,-0.67983 0.77552,-1.30327 1.25211,-1.92583c2.71387,-6.6661 4.38806,-13.3539 4.41858,-20.57152c0.00416,-0.36381 0.00921,-0.73024 0.01435,-1.10549c0.00787,-0.5805 0.00956,-1.16017 0.00861,-1.74075c0.00727,-0.6131 0.04531,-1.21266 0.10723,-1.8217z" fill="#341e3d"/><path d="M244.71621,208.21118c0.98279,0.65897 1.86494,1.32754 2.73346,2.13867c1.20317,1.06464 2.48741,2.03933 3.74676,3.03493c-0.57344,1.29028 -1.03483,1.98877 -2.25663,2.70265c-0.26691,0.15859 -0.53291,0.31455 -0.81044,0.47831c-0.27837,0.1576 -0.56028,0.31692 -0.84663,0.4806c-0.27491,0.16468 -0.55154,0.32581 -0.83352,0.49395c-1.46202,0.84631 -2.83756,1.4926 -4.46284,1.95584c-0.71046,0.24761 -1.29999,0.58098 -1.94381,0.96931c-1.17409,0.70379 -2.21946,1.11901 -3.56357,1.40793l-1.05513,-0.3628c-0.17672,0.23084 -0.35342,0.46168 -0.53548,0.69951c-0.69732,0.15787 -1.36168,0.27995 -2.06461,0.37697c-0.19253,0.02806 -0.38242,0.05702 -0.58113,0.0859c-0.4725,0.07023 -0.94672,0.13691 -1.41741,0.20187l0.27171,-0.79021c0.50162,-0.13777 1.07806,-0.25866 1.72932,-0.36266c1.77566,-0.31727 3.38964,-0.79911 5.07807,-1.42031c0.52108,-0.17723 1.04218,-0.35445 1.565,-0.52814c0.48128,-0.16441 0.96346,-0.33144 1.44303,-0.4994c0.1902,-0.0642 0.38041,-0.1284 0.57506,-0.19696c0.89457,-0.31979 1.68469,-0.69611 2.48566,-1.1983c0.2758,-0.16731 0.5507,-0.33199 0.83713,-0.50448l0.52757,0.1814c0.17613,-0.23202 0.35463,-0.46519 0.53549,-0.69951l1.06306,-0.51811c0.27446,-0.2149 0.54893,-0.4298 0.83231,-0.65342c0.25274,-0.18604 0.50816,-0.37411 0.76624,-0.5642l0.52756,0.1814c0.15242,-0.17734 0.30574,-0.35731 0.46351,-0.54164c0.3446,-0.39599 0.66521,-0.73934 0.96182,-1.03008c-0.16942,-0.09065 -0.34236,-0.17957 -0.51705,-0.27203c-2.02341,-1.26127 -3.83927,-3.14333 -5.34504,-4.98358z" fill="#351e3e"/><path d="M149.78724,152.30187c0.73268,1.20624 0.73034,2.05372 0.58645,3.44162c-0.01855,0.23123 -0.03769,0.4642 -0.05744,0.69894c-0.01544,0.14786 -0.02734,0.29399 -0.04105,0.44538l0.52757,0.1814c0.14095,0.70529 0.27926,1.40968 0.41757,2.11408c0.03791,0.19859 0.07935,0.39546 0.12072,0.60114c0.16772,0.86766 0.3059,1.68394 0.34471,2.5662c0.04638,0.82594 0.33457,0.94859 0.91066,1.52074c0.18439,0.4846 0.36968,0.96656 0.54344,1.45634c0.34508,0.85796 0.81269,1.62551 1.2836,2.41775c0.47686,0.81785 0.92183,1.65125 1.36853,2.48817c0.88588,1.62711 1.88134,3.13283 2.94999,4.64018c0.30222,0.45933 0.48087,0.89483 0.53597,1.3065c-0.46811,-0.32001 -0.93529,-0.67701 -1.40156,-1.071c0.00262,-0.2907 0.00523,-0.58141 0.00792,-0.88091c-0.29147,-0.21607 -0.61299,-0.4248 -0.96456,-0.62619c-1.10182,-1.1535 -1.85914,-2.36528 -2.52349,-3.81312c-0.37675,-0.67149 -0.76148,-1.33692 -1.14976,-2.00061c-0.23967,-0.41818 -0.46162,-0.845 -0.67295,-1.277l0.27171,-0.79021c-0.17602,-0.14006 -0.35468,-0.28102 -0.53598,-0.42287c-1.04702,-0.96972 -1.19159,-1.86183 -1.43482,-3.25618c-0.09258,-0.49426 -0.2205,-0.98007 -0.35198,-1.46414c-1.01194,-3.98851 -1.25495,-6.74752 -0.72905,-8.27701z" fill="#41204f"/><path d="M158.58822,124.98994c-0.04011,1.22329 -0.57418,1.96159 -1.26823,2.93351c-1.02216,1.46294 -1.92132,2.7826 -2.4641,4.48989c-0.28497,0.89169 -0.54451,1.50641 -0.77863,1.84416c-0.74021,1.20054 -1.10309,2.61623 -1.56046,3.94642c-0.19019,0.55314 -0.38657,1.1071 -0.58204,1.65844c-0.12136,0.35296 -0.24272,0.70592 -0.36409,1.05888c-0.11049,0.32135 -0.22008,0.64006 -0.33593,0.96841c-0.19382,0.56368 -0.1789,1.16085 0.04475,1.79149c-0.04837,0.40948 -0.12107,0.84397 -0.21811,1.30348c-0.05076,0.25058 -0.10152,0.50116 -0.15501,0.75965c-0.05439,0.26112 -0.11141,0.52133 -0.16587,0.79125c-0.28284,1.30871 -0.47492,2.628 -0.57626,3.95788c-0.01339,0.80245 -0.12999,1.11581 -0.63815,1.71869c-0.05376,-2.55451 0.04586,-4.90313 0.61877,-7.41005c0.12738,-0.56493 0.17381,-1.11743 0.13927,-1.65752c0.04739,-1.15011 0.34556,-2.13739 0.71244,-3.21299c0.07246,-0.21072 0.14054,-0.42589 0.21307,-0.64542c0.2293,-0.68403 0.46387,-1.36624 0.70198,-2.05018c0.0797,-0.2318 0.16001,-0.46535 0.24091,-0.70065c1.51406,-4.37767 3.16862,-8.19453 6.44095,-11.5435z" fill="#351e3e"/><path d="M300.2283,233.7784c0.0377,0.31928 0.00486,0.70072 -0.0985,1.1443c-0.38157,0.3548 -0.76486,0.70607 -1.16737,1.03599c-1.63985,1.39782 -2.97881,2.97568 -4.08901,4.81481l-0.53549,0.69951c-0.38918,0.90887 -0.70189,1.84403 -1.02778,2.77466c-0.09222,0.25107 -0.18444,0.50212 -0.27939,0.76107c-0.58845,1.68569 -0.81039,3.1204 -0.7082,4.89923c0.01207,0.3252 0.02769,0.64868 0.03967,0.98269c0.05826,0.87715 0.12271,1.75349 0.19242,2.63165c0.01492,0.20542 0.02983,0.41083 0.04556,0.62243c0.02969,0.35973 0.09715,0.76976 0.20238,1.23009c0.23126,0.17671 0.46252,0.35343 0.70078,0.5355c0.08764,0.25988 0.17434,0.52237 0.26188,0.79106c0.38174,1.00017 0.86492,1.50797 1.65139,2.22316l-0.18114,0.5268c1.8647,0.86501 3.73935,1.70104 5.62207,2.52218l-0.09057,0.26341c-3.50999,-1.01837 -5.82102,-2.3039 -6.93307,-3.85658c-0.20647,-0.28307 -0.41297,-0.56614 -0.62465,-0.85983c-0.1092,-0.21428 -0.21841,-0.42856 -0.33199,-0.64728l0.18114,-0.5268c-0.13653,-0.11764 -0.27215,-0.23791 -0.41307,-0.36c-1.41419,-1.62614 -1.33792,-4.71325 -1.29926,-6.75587c0.31056,-2.95353 1.55798,-6.02381 2.73423,-8.7327l0.35434,-0.1727c0.21408,-0.36527 0.41944,-0.73941 0.62123,-1.11185c1.12532,-1.95175 3.0986,-4.43077 5.17065,-5.43846z" fill="#331e3c"/><path d="M242.94086,131.01926c2.05058,1.37958 3.74496,2.84285 5.42842,4.63816c0.44904,0.4784 0.92859,0.89953 1.43864,1.26342c0.44026,0.34382 0.78568,0.70608 1.03627,1.08678c0.73236,1.04414 1.88713,1.60614 2.94379,2.29051c0.82511,0.63716 1.25382,1.21755 1.75108,2.12194c-0.64119,-0.29705 -1.28147,-0.59672 -1.92084,-0.89904c-0.17831,-0.08193 -0.35925,-0.16477 -0.54284,-0.2485c-1.24881,-0.59729 -2.16082,-1.282 -3.14875,-2.25201l0.18114,-0.5268c-0.27542,-0.16834 -0.5535,-0.33758 -0.83948,-0.50955c-1.15747,-0.75144 -2.11513,-1.65509 -3.1014,-2.61275c-1.30906,-1.25422 -2.65172,-2.40215 -4.11412,-3.4764l0.18114,-0.52681l0.52757,0.1814l0.18114,-0.5268z" fill="#491f5b"/><path d="M297.39799,224.85253c1.49696,0.66494 2.85734,1.40956 4.21261,2.33209c-0.20659,0.31777 -0.4132,0.63553 -0.62606,0.96292c-0.17079,-0.03516 -0.34364,-0.07005 -0.51854,-0.10466c-0.20728,0.00236 -0.41368,0.00209 -0.62715,0.00527c-0.11312,0.12311 -0.22625,0.24621 -0.34291,0.37104c-0.81463,0.74786 -1.78362,1.10392 -2.78785,1.55388c-1.78289,0.8273 -3.03435,1.60169 -4.23326,3.20119l-0.52756,-0.1814c-0.08962,0.1577 -0.17923,0.31539 -0.2733,0.47744c-0.56267,0.97587 -1.12602,1.92796 -1.7764,2.8501c-1.00345,1.44286 -1.64348,2.97827 -2.2017,4.63607c-0.06068,0.17648 -0.12227,0.3556 -0.1874,0.53643c-0.40122,1.16688 -0.66809,2.30337 -0.87305,3.5171c-0.02728,-0.20378 -0.05453,-0.40754 -0.08264,-0.6175l-0.52756,-0.1814c0.58108,-4.29789 2.37591,-8.31688 5.58815,-11.25943c0.54174,-0.5118 1.00968,-1.0578 1.49544,-1.62125c1.16116,-1.12943 2.18304,-1.77657 3.75816,-2.15395c0.87116,-0.26894 1.58542,-0.74204 2.34575,-1.23758c0.14948,-0.08017 0.30133,-0.16148 0.45555,-0.24395l0.52756,0.1814l0.27171,-0.79022c-0.17114,-0.09418 -0.33964,-0.18746 -0.51516,-0.28611c-0.222,-0.12639 -0.44402,-0.25281 -0.67392,-0.38193c-0.22028,-0.12287 -0.44319,-0.24663 -0.67047,-0.37486c-0.39809,-0.26059 -0.80054,-0.65718 -1.20735,-1.18979z" fill="#311e3a"/><path d="M246.00776,133.25196l1.49212,0.8076l-0.18114,0.5268c0.24516,0.10197 0.49032,0.20394 0.74249,0.31126c1.30827,0.65602 2.22544,1.74602 3.1984,2.81104l-0.18114,0.5268c0.25909,0.12149 0.52082,0.24388 0.79047,0.369c0.34426,0.16549 0.68851,0.33099 1.03277,0.49649c0.17039,0.07921 0.34341,0.15932 0.51909,0.24034c1.45599,0.70681 2.19499,1.40567 2.87155,2.86949c0.58165,1.13076 1.31993,1.9089 2.20531,2.8083c0.3303,0.34332 0.65798,0.68573 0.98565,1.02814c0.16078,0.16721 0.32329,0.33797 0.48845,0.50962c0.87104,0.92394 1.68432,1.89575 2.50023,2.86848c0.32868,0.39381 0.72672,0.75747 1.19411,1.09098l-0.18114,0.5268l0.79135,0.2721l-0.18114,0.5268c-0.93666,-0.49289 -1.56432,-1.01798 -2.25564,-1.8212c-0.18767,-0.2177 -0.37625,-0.43275 -0.57093,-0.65581c-0.19377,-0.22567 -0.38754,-0.45135 -0.58743,-0.68502c-0.38407,-0.44427 -0.76816,-0.88855 -1.15051,-1.3293c-0.18503,-0.21678 -0.37361,-0.43184 -0.56565,-0.65398c-0.81187,-0.93305 -1.64235,-1.85481 -2.47556,-2.76868c-0.43607,-0.4818 -0.78514,-0.89636 -1.04721,-1.2437l0.18114,-0.5268c-0.65793,-0.59147 -1.334,-1.13024 -2.05438,-1.64303c-0.16299,-0.1179 -0.32689,-0.23316 -0.49779,-0.35378c-0.34181,-0.24123 -0.68097,-0.48156 -1.02369,-0.72016c-0.88248,-0.63332 -1.4207,-1.10114 -1.85015,-2.09121c-0.33561,-0.27641 -0.70018,-0.53725 -1.09369,-0.78252c-1.26318,-0.86438 -2.21988,-1.87372 -3.19363,-3.04799l0.09057,-0.26341z" fill="#351e3f"/><path d="M193.69274,105.24949l2.37404,0.81629c-1.06919,0.41586 -1.94961,0.43713 -3.09067,0.41003c-0.32092,0.08406 -0.64184,0.16811 -0.97248,0.25471c-0.44253,-0.02551 -0.88672,-0.06336 -1.32645,-0.10558c-1.45634,-0.07955 -2.49045,0.26001 -3.83398,0.77888c-0.79074,0.24945 -1.42266,0.29432 -2.24819,0.29323c-1.73069,0.02346 -3.05505,0.66675 -4.60407,1.38005c-0.35305,0.12602 -0.71138,0.25024 -1.06789,0.36917c-1.37047,0.57147 -2.65646,1.36049 -3.71981,2.40278l-0.79135,-0.2721c0.29282,-0.294 0.59001,-0.58356 0.88984,-0.87221c0.16643,-0.16662 0.33377,-0.33589 0.50465,-0.50688c1.61405,-1.17695 3.5165,-1.66564 5.42875,-2.1657l0.86462,-0.4214c1.77529,-0.86524 3.52203,-1.20131 5.46485,-1.47287c0.18898,-0.02633 0.38151,-0.05439 0.57668,-0.08154c0.8733,-0.11209 1.43647,-0.16292 2.28321,0.12823l0.27171,-0.79021c0.93026,0.12546 1.86051,0.25092 2.81896,0.38018l0.18114,-0.5268z" fill="#422051"/><path d="M155.17039,132.35654l0.26378,0.0907c-0.43119,1.32839 -0.77164,2.17841 -1.02135,2.55008c-2.71622,4.27949 -3.54316,11.1025 -3.90895,16.07823c0.05716,0.11686 0.11432,0.23371 0.17321,0.3541c-0.1407,0.44351 -0.29104,0.88076 -0.45284,1.31701c-0.29133,-0.29653 -0.44998,-0.63581 -0.47594,-1.01783c0.08085,-1.83077 0.34694,-3.56545 0.72996,-5.35713c0.10861,-0.50461 0.2155,-1.01278 0.31883,-1.5192c0.04608,-0.21979 0.09479,-0.43868 0.14359,-0.66638c0.07808,-0.44442 0.01693,-0.96715 -0.18346,-1.5682c0.13772,-0.5378 0.31705,-1.12512 0.53799,-1.76196c0.11864,-0.34506 0.23729,-0.69011 0.36046,-1.04834c0.06159,-0.17912 0.12672,-0.35996 0.19275,-0.54343c0.19275,-0.54342 0.38023,-1.08867 0.56771,-1.63392c1.00615,-2.88618 1.92454,-4.64497 2.75518,-5.27638z" fill="#522167"/><path d="M233.55577,184.05023l0.26378,0.0907c-0.09524,0.25983 -0.19227,0.522 -0.29107,0.78649c-0.87461,2.41498 -1.49275,4.75319 -1.89841,7.297l0.52756,0.1814c0.0864,0.29775 0.1728,0.59549 0.26268,0.90032c0.45659,1.30572 1.36525,1.87146 2.44107,2.68024c0.86412,0.71243 1.26492,1.35685 1.74094,2.36587c0.0193,0.20693 0.03977,0.41622 0.06139,0.62787c0.17526,1.0087 0.89261,1.56462 1.58811,2.29564l-0.18114,0.5268c0.19141,0.09528 0.38457,0.19409 0.58126,0.29117c0.69969,0.46149 0.8427,0.74041 1.16673,1.48804c-1.58721,-1.15446 -2.63705,-2.10453 -3.14954,-2.8502l0.18114,-0.5268c-0.23244,-0.17614 -0.46604,-0.35464 -0.70078,-0.5355c-0.08235,-0.25806 -0.16561,-0.51347 -0.25143,-0.77862c-0.42586,-1.09486 -0.98569,-1.61136 -1.84201,-2.40652c-1.6665,-1.62158 -2.83024,-3.04968 -2.86695,-5.43927c0.15676,-2.52337 0.66372,-5.05296 2.36841,-6.99108z" fill="#351e3e"/><path d="M218.85058,112.72157c-1.38699,-0.43566 -2.47982,-0.92041 -3.70482,-1.71568c-2.02027,-1.21893 -4.20959,-1.98055 -6.43063,-2.74423c-0.34028,-0.117 -0.67965,-0.23664 -1.02958,-0.35989c-3.27906,-1.10097 -6.59101,-1.78025 -10.02814,-2.1727c1.26375,-0.96456 2.5687,-0.62484 4.07775,-0.42409c4.77483,0.81705 14.08268,3.44604 17.11543,7.41659z" fill="#2e1e35"/><path d="M212.61036,110.28139c2.19553,0.85506 4.17547,1.7538 6.14829,3.05068c1.27618,0.79225 2.61075,1.46615 3.9524,2.13659c1.26599,0.6503 2.21393,1.35916 3.23788,2.3445c0.44722,0.28926 0.85667,0.52823 1.22835,0.71689l-0.18114,0.52681l0.437,0.4448c-1.5991,-0.77957 -3.118,-1.5522 -4.49692,-2.68905c-1.58939,-1.27107 -3.35486,-2.18444 -5.13841,-3.1482c-1.80638,-0.97456 -3.55764,-1.99791 -5.27712,-3.12226l0.09057,-0.26341z" fill="#4f2063"/><path d="M252.20962,188.99144c0.99366,0.26704 1.64042,0.6308 1.94027,1.09128c0.52076,0.74164 1.01052,1.00724 1.80761,1.42565c0.26685,0.14182 0.5337,0.28365 0.80757,0.43083c0.2774,0.14545 0.55571,0.28828 0.84366,0.43735c0.28177,0.1499 0.56181,0.29626 0.85059,0.45152c0.69346,0.36804 1.38874,0.73081 2.08401,1.09358l-0.18114,0.5268c0.2851,0.07446 0.57314,0.14896 0.86411,0.22348c2.07868,0.7059 3.8223,2.28331 5.45082,3.71511l-0.18114,0.5268c0.27299,0.1783 0.54889,0.35957 0.82771,0.5438c0.27882,0.18423 0.55803,0.3902 0.83763,0.6179c0.02816,0.20408 0.05571,0.40991 0.08265,0.6175c-0.38648,-0.27428 -0.77035,-0.54764 -1.15683,-0.82191c-0.21296,-0.15275 -0.42945,-0.30376 -0.64941,-0.46187c-0.37325,-0.27561 -0.70554,-0.56168 -0.99687,-0.85822l0.18114,-0.5268c-2.43006,-1.84584 -5.17558,-3.13448 -7.89764,-4.48279l0.18114,-0.5268c-0.19166,-0.06884 -0.37977,-0.13942 -0.5767,-0.21007c-2.10923,-0.84011 -3.60122,-1.95694 -5.21067,-3.54712l0.09057,-0.2634z" fill="#321e3b"/><path d="M319.4097,238.90099c1.10219,1.70149 0.97053,3.88591 0.65325,5.82096c-1.2165,4.43876 -2.69263,8.62034 -5.66619,12.18985l-0.52758,-0.1814c0.55829,-1.27192 1.06692,-2.41659 2.05931,-3.41555l0.52758,0.1814c1.55077,-4.14414 2.51309,-8.40127 2.88697,-12.77139c-0.03056,-0.62316 -0.00414,-1.20611 0.06667,-1.82388z" fill="#331e3c"/><path d="M282.06582,242.84972c0.66489,0.40829 1.22634,0.84287 1.78503,1.38842c0.14602,0.14151 0.29377,0.28658 0.44416,0.43254c0.14949,0.1486 0.29988,0.29457 0.45637,0.44852c0.15475,0.15041 0.30688,0.29992 0.46603,0.45478c0.3777,0.36845 0.75805,0.73781 1.13483,1.1089c0.09229,-0.55147 0.18456,-1.10294 0.27962,-1.67112c0.26839,0.36327 0.52954,0.7476 0.78343,1.15301l-0.18114,0.5268c0.16895,0.10915 0.33966,0.2189 0.51213,0.32925c0.21831,0.14576 0.43661,0.29151 0.66192,0.44262c0.21804,0.1437 0.43783,0.288 0.65937,0.4329c0.35514,0.32829 0.58508,0.71761 0.68981,1.16794c0.00188,0.18327 0.00549,0.37006 0.00819,0.5595c-0.45421,-0.19741 -0.90752,-0.39746 -1.36084,-0.5975c-0.25389,-0.11086 -0.50515,-0.22082 -0.76607,-0.33705c-0.45549,-0.21945 -0.91682,-0.50768 -1.384,-0.86467l0.18114,-0.52681c-0.31334,-0.16959 -0.6276,-0.33655 -0.94886,-0.50887c-1.46232,-0.88571 -2.50432,-2.11878 -3.60226,-3.41234z" fill="#341e3e"/><path d="M255.4735,188.93551c1.80954,0.81954 3.46189,1.85601 5.13873,2.91562c0.47973,0.30338 0.96035,0.60413 1.44008,0.90752c1.80933,1.13757 3.59459,2.30221 5.35029,3.51854c0.14682,-0.14392 0.29364,-0.28783 0.44492,-0.4361l-0.45284,1.31701c-0.37213,-0.20454 -0.74335,-0.4117 -1.11366,-0.62151c-0.208,-0.1157 -0.41335,-0.23049 -0.62571,-0.35063c-0.58228,-0.37399 -1.06665,-0.74966 -1.59093,-1.19797c-0.94888,-0.80047 -1.95719,-1.36808 -3.05542,-1.94009c-1.35792,-0.72611 -2.60984,-1.46879 -3.80672,-2.44879c-0.59203,-0.4657 -1.23637,-0.80507 -1.90988,-1.13679z" fill="#361e40"/><path d="M246.88301,183.03632c-0.99657,-0.00983 -1.27869,-0.21876 -2.11026,-0.72559c-1.87071,-0.88181 -3.31161,-1.30655 -5.31084,-0.6479c-1.22707,0.51473 -2.41332,1.09947 -3.59016,1.71689c-0.48357,0.22253 -0.90121,0.27333 -1.25291,0.1524l-0.27171,0.79021l-0.52757,-0.1814c1.37846,-2.14748 3.4077,-2.8076 5.77651,-3.46877c2.73941,-0.58087 5.1465,0.67976 7.28695,2.36416z" fill="#3a1e45"/><path d="M282.42577,212.63543c1.57015,0.95814 2.97306,1.87938 4.21234,3.24214c0.6357,0.61328 1.37129,1.00464 2.13468,1.44384c0.6498,0.41783 1.05065,0.95917 1.53565,1.55598c0.48067,0.39502 0.98012,0.76114 1.4813,1.13081c0.7288,0.55692 1.42202,1.14872 2.11961,1.74498c0.84731,0.71842 1.67656,1.38647 2.62387,1.96844c0.25779,0.16816 0.51824,0.33725 0.78393,0.50813c0.02815,0.20408 0.0557,0.40991 0.08264,0.6175c-1.31204,-0.62786 -2.43447,-1.35252 -3.57924,-2.24392c-0.15415,-0.1178 -0.30924,-0.23298 -0.46779,-0.35525c-0.71824,-0.55328 -1.26942,-1.05207 -1.82299,-1.77552c-0.54858,-0.39481 -1.10604,-0.78089 -1.66534,-1.1617c-0.46779,-0.35524 -0.93559,-0.71049 -1.40156,-1.07101l0.18113,-0.5268c-0.18868,-0.10317 -0.37649,-0.20898 -0.57047,-0.31397c-0.24485,-0.1372 -0.49322,-0.27268 -0.74508,-0.41525c-0.24575,-0.13457 -0.48794,-0.27086 -0.74071,-0.41079c-0.4422,-0.25809 -0.8969,-0.56563 -1.36409,-0.92263l0.18114,-0.5268c-0.26262,-0.11976 -0.52437,-0.24216 -0.79492,-0.36464c-0.94869,-0.52648 -1.55421,-1.06457 -2.27197,-1.86806l0.09057,-0.2634z" fill="#351e3f"/><path d="M201.95858,215.89477c1.0232,0.48142 1.80023,1.06964 2.6403,1.80914c1.59773,1.32402 3.60684,2.21512 5.70225,2.23754c0.44648,0.23992 0.85593,0.47889 1.22835,0.7169c-1.37121,0.35914 -2.55469,0.63556 -3.97259,0.40133c-1.22044,-0.71417 -2.21337,-1.61817 -3.24012,-2.5868c-0.24669,-0.22619 -0.49338,-0.4524 -0.7488,-0.6875c-0.57377,-0.53601 -1.14045,-1.07547 -1.69996,-1.6272z" fill="#41224f"/><path d="M266.49565,150.01646c1.4593,1.4178 2.94292,2.87636 4.01562,4.62071l-0.18114,0.52681c-0.55218,-0.09267 -1.10436,-0.18533 -1.67327,-0.2808l0.18114,-0.5268l-0.79134,-0.27209l0.18114,-0.5268c-0.18269,-0.08637 -0.36536,-0.17276 -0.55505,-0.26448c-0.83373,-0.5606 -1.20415,-1.0532 -1.62994,-1.95952c0.13478,-0.47206 0.28573,-0.91107 0.45284,-1.31702z" fill="#2f1d41"/><path d="M219.19701,113.42977c4.55856,1.52324 8.71422,4.10672 12.19288,7.43238l-0.09057,0.26341c-1.01841,-0.32661 -1.69164,-0.65627 -2.01969,-0.989l0.18114,-0.5268c-0.27492,-0.12692 -0.55158,-0.2574 -0.83705,-0.38796c-1.63331,-0.80018 -3.15732,-1.78957 -4.70102,-2.74744c-1.11047,-0.68226 -2.20279,-1.32293 -3.39307,-1.85885c-0.65746,-0.31835 -1.10166,-0.71359 -1.33261,-1.18573z" fill="#341e3e"/><path d="M302.50728,245.16559l0.52756,0.1814c-0.0628,0.21698 -0.12825,0.43306 -0.19286,0.65532c-0.07847,0.28819 -0.15953,0.57547 -0.2407,0.87156c-0.08017,0.28465 -0.15946,0.56667 -0.24233,0.85922c-0.1584,0.94109 -0.08977,1.54789 0.19135,2.45455c0.82927,0.95964 1.75995,1.33266 2.98426,1.61519c0.97621,-0.14543 1.80303,-0.54841 2.48045,-1.20893l0.52756,0.1814c-0.24152,0.70241 -0.51735,1.1672 -0.8275,1.39438c-1.21306,0.52545 -2.02954,0.69536 -3.31555,0.30914c-1.55702,-0.65318 -2.1732,-1.57195 -2.8661,-3.08263c-0.16409,-1.56449 0.38588,-2.79509 0.97649,-4.22968z" fill="#331e3d"/><path d="M310.84298,230.35908c0.58975,0.1321 1.23131,0.32225 1.92468,0.57047c0.34115,0.1173 0.68553,0.2367 1.03313,0.35818c2.38796,1.03314 3.85725,2.71358 5.06109,4.97724c0.20168,0.52294 0.21195,1.04781 0.03082,1.57462c-0.6096,-0.93222 -1.01669,-1.66128 -1.22129,-2.18719c-1.26118,-2.16556 -3.56068,-3.32733 -5.85492,-4.09263c-0.32972,-0.11337 -0.6639,-0.22239 -1.00509,-0.33675c-0.25149,-0.08353 -0.50562,-0.16796 -0.76596,-0.25158c0.26377,-0.20091 0.52753,-0.40182 0.79927,-0.60881z" fill="#331e3c"/><path d="M183.5309,107.35179l0.437,0.4448c-1.11018,0.7238 -2.00842,1.1572 -2.69472,1.30021c-0.53044,0.07288 -0.99944,0.31023 -1.40701,0.71206c-0.19462,0.16282 -0.39278,0.32737 -0.5954,0.49629c-0.17351,-0.02726 -0.34438,-0.05361 -0.52407,-0.08005c-0.91349,-0.02839 -1.30278,0.40034 -2.01075,0.95808c-0.83585,0.65515 -1.29761,1.00298 -2.33817,1.27553c-0.30076,0.22844 -0.58936,0.47873 -0.86581,0.75087c-0.54886,0.48677 -1.02934,0.75749 -1.44143,0.81216l0.36227,-1.05362l0.61814,-0.08201c0.4563,-0.4263 0.90031,-0.85978 1.33476,-1.30832l0.79135,0.2721c0.12407,-0.16353 0.2455,-0.32795 0.37402,-0.49583c1.42824,-1.50299 3.31884,-2.14597 5.21296,-2.88495c0.51432,-0.20901 1.02864,-0.41801 1.54386,-0.62966c0.401,-0.16255 0.79937,-0.32602 1.20038,-0.48856z" fill="#4e2161"/><path d="M312.09743,257.59393c1.01842,0.32661 1.69165,0.65628 2.01969,0.989l-0.18114,0.5268c-0.57945,-0.29643 -1.1589,-0.59287 -1.75591,-0.89829c-0.12284,0.12566 -0.24568,0.25131 -0.36944,0.37959c-1.34531,1.30469 -2.6865,2.15132 -4.50883,2.65577l-0.52756,-0.1814l-0.53549,0.69951c-1.2347,0.57985 -2.03434,0.6407 -3.35445,0.31933l0.18114,-0.5268c1.42855,-0.29426 2.34066,-0.37337 2.73633,-0.23732l0.18114,-0.5268c0.46498,-0.11699 0.92905,-0.23135 1.3975,-0.34125c0.89772,-0.27748 1.61857,-0.79544 2.40979,-1.29509c0.204,-0.02706 0.40796,-0.05413 0.61813,-0.08201c0.29658,-0.22202 0.59046,-0.4705 0.88164,-0.74544c0.2659,-0.24141 0.53269,-0.48545 0.80746,-0.7356z" fill="#361e40"/><path d="M171.15597,188.80914c1.40634,0.63673 2.24499,1.53479 3.24913,2.66354c1.46117,1.60106 2.95882,3.07033 4.62474,4.46197l-0.18114,0.5268c-1.28144,-0.30511 -1.8719,-0.947 -2.73372,-1.9149c-0.23637,-0.26193 -0.4739,-0.52622 -0.71258,-0.79286c-0.41467,-0.47542 -0.82489,-0.95519 -1.22712,-1.44106c-0.94611,-1.10879 -2.08972,-2.02925 -3.19781,-2.97578l0.18114,-0.52681z" fill="#4d2160"/><path d="M305.67266,246.25398c0.76808,0.37406 1.23527,0.73106 1.40156,1.071c-0.17429,0.61556 -0.38562,1.23017 -0.63398,1.84382c-0.23387,0.11399 -0.46775,0.22797 -0.70872,0.34541c-0.43509,-0.1987 -0.84454,-0.43766 -1.22834,-0.7169c-0.11405,-0.85215 0.13441,-1.41177 0.46077,-2.19792z" fill="#431e53"/><path d="M254.79882,214.91796c1.1176,0.57574 2.15799,1.20445 3.15747,1.9693c0.02728,0.20378 0.05454,0.40756 0.08265,0.61751c0.4766,0.35533 0.95494,0.71419 1.4351,1.0678c0.82833,0.67066 1.57411,1.40131 2.32228,2.15929c0.13547,0.13789 0.27448,0.27406 0.41522,0.41375c0.65313,0.66835 1.01026,1.23394 1.07137,1.69677c-3.10475,-2.24277 -5.82468,-5.00417 -8.57465,-7.66101z" fill="#331e3c"/><path d="M183.97582,106.91567l0.437,0.4448c-0.34218,0.09441 -0.68436,0.18884 -1.03981,0.28752c-1.07714,0.31887 -2.0292,0.75438 -3.03126,1.25812c-0.38585,0.14421 -0.77433,0.2875 -1.16191,0.42816c-1.47275,0.56869 -2.84914,1.40616 -3.98014,2.51651l-0.79135,-0.2721c0.29282,-0.29401 0.59001,-0.58357 0.88984,-0.87222c0.16731,-0.16633 0.33553,-0.33529 0.50465,-0.50688c1.61405,-1.17695 3.5165,-1.66564 5.42875,-2.16569c0.59523,-0.28133 1.18609,-0.56712 1.77175,-0.86352c0.32092,-0.08406 0.64184,-0.16811 0.97249,-0.25471z" fill="#321e3a"/><path d="M195.47042,211.60208c1.15675,0.57054 1.7998,0.988 1.92913,1.2524c0.78587,0.39098 1.57362,0.76788 2.37473,1.1317c1.02312,0.49022 1.65098,0.89462 2.1843,1.9086c-0.73836,-0.28038 -1.47845,-0.56431 -2.21407,-0.85259c-0.20658,-0.07692 -0.41226,-0.15647 -0.62674,-0.23612c-1.45191,-0.57286 -2.53352,-1.22752 -3.65526,-2.32307c0.00262,-0.2907 0.00523,-0.5814 0.00792,-0.88091z" fill="#49205b"/><path d="M246.79244,183.29973c0.23264,0.12122 0.46437,0.24508 0.70138,0.37076c0.5478,0.28555 1.09054,0.54287 1.66355,0.77229c1.56426,0.63211 2.88437,1.44241 4.23901,2.43542c0.16472,0.12144 0.33208,0.24378 0.50209,0.36704c0.70349,0.5276 1.18265,0.89264 1.57503,1.69028c-1.47168,-0.33519 -2.40541,-1.15401 -3.52668,-2.10508c-1.07074,-0.88361 -2.13696,-1.38572 -3.42071,-1.92432c-0.32512,-0.13535 -0.65197,-0.27424 -0.98765,-0.41323c-0.24779,-0.10287 -0.49823,-0.20666 -0.75394,-0.31225c0.00261,-0.2907 0.00523,-0.5814 0.00792,-0.8809z" fill="#381e43"/><path d="M211.12616,108.59289l-0.09057,0.2634c-0.17327,-0.05369 -0.34654,-0.10737 -0.52508,-0.16287c-4.25353,-1.31231 -8.41946,-2.45901 -12.85311,-2.96435c0.85522,-0.65143 1.14409,-0.70233 2.17778,-0.60315c3.87347,0.61611 7.60708,2.17085 11.29098,3.46698z" fill="#361e40"/><path d="M300.05959,223.11679c0.34496,0.152 0.70744,0.35027 1.08744,0.59482c0.18769,0.11756 0.37684,0.2366 0.56744,0.35711c0.53365,0.38673 0.96916,0.80156 1.41466,1.28168c-0.26406,0.20179 -0.53049,0.40473 -0.79928,0.60881c-0.46672,-0.17815 -0.93075,-0.36421 -1.3965,-0.55381c-0.25926,-0.10387 -0.51942,-0.20511 -0.78394,-0.31078c-0.42039,-0.26433 -0.68741,-0.61731 -0.80104,-1.05892c0.00257,-0.18763 0.00342,-0.37879 0.00514,-0.57259l0.70872,-0.34541z" fill="#351943"/><path d="M270.72752,160.01333c0.40344,0.18781 0.81289,0.42678 1.22834,0.7169c0.10599,0.44095 0.16109,0.85262 0.1653,1.23501l0.52756,0.1814c-0.00124,0.23521 -0.00338,0.47305 -0.00732,0.71617c0.02588,0.25927 0.05268,0.5159 0.08205,0.78224l0.70077,0.5355c0.17236,0.74261 0.30796,1.4549 0.42115,2.20661c0.0491,0.22896 0.09817,0.46085 0.14721,0.69567c0.02119,0.68474 -0.22113,0.95193 -0.60798,1.50226c-0.02687,-0.24782 -0.05111,-0.49474 -0.07882,-0.74874c-0.19099,-1.64639 -0.6187,-3.22199 -1.28312,-4.7268c-0.30081,-0.58354 -0.59361,-1.17316 -0.86607,-1.77052l0.18114,-0.5268c-0.23127,-0.17671 -0.46252,-0.35343 -0.70078,-0.5355z" fill="#331e3c"/><path d="M185.65951,204.10508c2.39093,0.99882 4.10609,2.5046 5.87002,4.3747l-0.09057,0.2634c-1.00821,-0.2848 -1.47812,-0.59954 -2.19291,-1.34309c-0.47098,-0.29448 -0.9437,-0.59252 -1.41468,-0.887c-0.86235,-0.61462 -1.54352,-1.37018 -2.26244,-2.1446z" fill="#441f54"/><path d="M170.86483,113.30574c-0.18114,0.52681 -0.48958,0.92344 -0.92533,1.1899c-0.92975,0.60224 -1.5461,1.271 -2.26361,2.10527c-0.48323,0.4789 -0.9129,0.69051 -1.52404,0.9752c-0.16584,0.19923 -0.33078,0.39583 -0.50107,0.59941c-0.15769,0.17553 -0.31629,0.35369 -0.47934,0.5362l-0.88192,-0.00869l0.71663,-1.22632l0.52757,0.1814c0.15001,-0.20467 0.29913,-0.40671 0.45095,-0.61664c1.39081,-1.75443 2.91807,-2.69612 4.88016,-3.73573z" fill="#381e43"/><path d="M308.40622,244.06876c1.02047,0.68666 1.51501,1.59895 1.82352,2.79485c0.02793,0.91386 -0.24462,1.60362 -0.55925,2.45861c-0.11123,0.30637 -0.22248,0.61273 -0.33471,0.93055c-0.08588,0.23261 -0.1744,0.46432 -0.263,0.70483l-0.52756,-0.1814c0.06588,-0.16584 0.1344,-0.33081 0.20472,-0.50102c0.57731,-1.52458 0.90132,-2.63847 0.54359,-4.24893c-0.91979,-1.28825 -2.17363,-1.81952 -3.59446,-2.4141c1.21205,-0.31666 1.62633,-0.0888 2.70715,0.45661z" fill="#361e41"/><path d="M268.2449,200.69043c1.31014,0.35033 1.78274,0.76024 2.62991,1.7879c0.36794,0.27673 0.74389,0.54738 1.12255,0.81012c1.17365,0.81591 2.30182,1.68687 3.25533,2.75698l0.08265,0.6175c-0.35449,-0.20436 -0.70716,-0.41399 -1.0572,-0.6227c-0.19654,-0.1147 -0.39307,-0.2294 -0.59663,-0.34948c-0.35938,-0.24728 -0.74248,-0.63722 -1.14929,-1.16982c-0.30819,-0.25324 -0.62618,-0.49511 -0.94598,-0.73174c-1.19238,-0.89009 -2.31178,-1.85523 -3.43191,-2.83536z" fill="#341e3e"/><path d="M244.39355,204.86024l1.05513,0.3628l-0.18114,0.52681c0.28137,0.19395 0.56011,0.38699 0.8485,0.58629c1.69422,1.28356 3.0678,2.91635 4.48603,4.48792c-0.31665,0.03447 -0.69855,0.00134 -1.1457,-0.09939c-0.56149,-0.52884 -1.05957,-1.04473 -1.5624,-1.62409c-0.28554,-0.31909 -0.57199,-0.63554 -0.85844,-0.952c-0.13886,-0.15378 -0.2777,-0.30756 -0.4183,-0.46488c-0.7538,-0.81882 -1.57712,-1.55551 -2.40482,-2.29665z" fill="#331e3c"/><path d="M275.33534,206.66293c1.49754,0.30284 2.18705,1.11134 3.18375,2.18452c0.57956,0.57923 1.16566,1.01934 1.84332,1.47619c0.95551,0.65255 1.52948,1.2652 2.06337,2.31179l-1.31893,-0.4535l0.00793,-0.88091c-0.21475,-0.05028 -0.43157,-0.10028 -0.65045,-0.15001c-1.28722,-0.54568 -2.15979,-1.39651 -3.1735,-2.34299c-0.19771,-0.17991 -0.39543,-0.35981 -0.5966,-0.5468c-0.48465,-0.4435 -0.96574,-0.88874 -1.44684,-1.33398l0.09057,-0.26341z" fill="#351e40"/><path d="M250.01546,138.75358c2.97884,1.10476 4.85023,2.23912 5.61416,3.40309c-0.72708,-0.03007 -1.25465,-0.21147 -1.5827,-0.54419c-0.81819,-0.42564 -1.64627,-0.83113 -2.47788,-1.23489c-0.77806,-0.47372 -1.11968,-0.83565 -1.55357,-1.624z" fill="#592470"/><path d="M154.56018,131.55763l0.26378,0.0907c-0.25533,1.38885 -0.50308,2.26093 -0.74324,2.61625c-0.42769,0.67767 -0.69144,1.36753 -0.97511,2.11533c-0.11561,0.30192 -0.23122,0.60385 -0.35309,0.91538c-0.12014,0.31509 -0.23937,0.62755 -0.36314,0.95317c-0.12105,0.31773 -0.24473,0.63454 -0.36939,0.9628c-0.30253,0.7855 -0.60152,1.56927 -0.90142,2.35568l-0.26378,-0.0907c0.44123,-1.3004 0.88245,-2.60078 1.32632,-3.90027c0.15215,-0.44251 0.30076,-0.8833 0.45028,-1.32673c0.21563,-0.63571 0.43126,-1.27141 0.64953,-1.90622c0.06793,-0.19756 0.13322,-0.39601 0.20032,-0.59974c0.2871,-0.83499 0.53809,-1.47916 1.07893,-2.18566z" fill="#3b1e47"/><path d="M169.61272,115.23156l0.437,0.4448c-0.19767,0.07734 -0.39683,0.15613 -0.59747,0.23638c-0.89261,0.49424 -1.47455,1.0629 -2.18048,1.78629c-0.48232,0.47626 -1.00409,0.82704 -1.57275,1.19409c-0.3042,0.28421 -0.60139,0.57376 -0.88984,0.87222c-0.0551,-0.41167 0.01247,-0.76546 0.2027,-1.06135c0.13108,-0.15817 0.26479,-0.31543 0.40122,-0.48059c0.12844,-0.15907 0.25951,-0.31724 0.3924,-0.48067c0.47161,-0.46227 0.90656,-0.67206 1.49998,-0.94813c0.15604,-0.18787 0.31298,-0.37838 0.47437,-0.57325c0.58084,-0.64269 1.00114,-0.79271 1.83287,-0.98978z" fill="#522167"/><path d="M308.18931,231.21391c-0.44619,0.08812 -0.89412,0.17268 -1.34206,0.25724c-0.24856,0.04806 -0.50007,0.09609 -0.75451,0.14409c-0.48688,0.06627 -0.9335,0.06979 -1.33986,0.01058c-0.37707,-0.04718 -0.69981,0.07651 -0.96823,0.37105c-0.15053,0.16326 -0.30015,0.32388 -0.45777,0.49059c-0.43995,0.27582 -0.88774,0.5401 -1.33981,0.79113c-0.23048,0.12989 -0.46006,0.25713 -0.69763,0.39046c-0.17461,0.09607 -0.34924,0.19213 -0.53094,0.29166c0.49269,-1.43292 1.98867,-2.03485 3.28765,-2.69865c1.98937,-0.67285 3.3713,-0.6886 4.14579,-0.04724z" fill="#311e39"/><path d="M239.57974,181.11426l0.43699,0.4448c-0.23195,0.09697 -0.46745,0.19567 -0.7065,0.2961c-0.3081,0.1297 -0.61856,0.26055 -0.93139,0.39255c-0.30368,0.12827 -0.60736,0.25655 -0.92076,0.38737c-0.56845,0.24636 -1.13089,0.50951 -1.68292,0.79391c-0.41918,0.18969 -0.80463,0.22407 -1.15634,0.10314l-0.27171,0.79021l-0.52757,-0.1814c0.8892,-1.48803 1.90469,-1.81632 3.48165,-2.30206c0.21939,-0.07184 0.43876,-0.14368 0.66433,-0.21634c0.53782,-0.17442 1.07647,-0.34267 1.61512,-0.51091z" fill="#301e37"/><path d="M239.75637,190.89495c-0.0097,0.98044 -0.12687,1.06386 -0.63398,1.84382c-0.23764,0.6311 -0.45855,1.26499 -0.67244,1.90424c-0.11412,0.33189 -0.22386,0.66822 -0.33896,1.01156c-0.08431,0.25377 -0.16952,0.51018 -0.25392,0.77276c-0.52794,-1.02097 -0.67589,-1.44002 -0.32782,-2.581c0.28088,-0.73109 0.52579,-1.28898 0.98557,-1.90555l0.52756,0.1814c0.23649,-0.40467 0.47298,-0.80936 0.71662,-1.22631z" fill="#361e40"/><path d="M231.29932,121.12555c0.37245,0.1693 0.74398,0.34123 1.11552,0.51316l0.62626,0.28897c0.36053,0.1868 0.68646,0.42847 0.97779,0.725l-0.18114,0.5268c0.16429,0.07121 0.32858,0.14243 0.49551,0.21456c0.21259,0.09372 0.42166,0.18916 0.63862,0.28733c0.20996,0.09281 0.42256,0.18653 0.64044,0.28206c0.16669,0.09855 0.33429,0.19447 0.5089,0.29575c0.02727,0.20377 0.05455,0.40754 0.08264,0.6175c-2.02218,-0.81018 -3.42452,-1.99043 -4.99602,-3.4851l0.09057,-0.26341z" fill="#341e3d"/><path d="M160.32162,177.42572c0.93806,0.72901 1.47638,1.47963 2.09441,2.48741c0.78205,1.01115 1.66641,1.82774 2.62198,2.66881c-0.32654,0.02321 -0.70844,-0.00993 -1.1457,-0.0994c-0.48458,-0.44938 -0.92158,-0.89418 -1.31099,-1.3344l0.18114,-0.5268c-0.20131,-0.10653 -0.40438,-0.21366 -0.60921,-0.3214c-0.2052,-0.13241 -0.40866,-0.26127 -0.61913,-0.3955c-0.02727,-0.20378 -0.05455,-0.40754 -0.08264,-0.61751c-0.18823,-0.15602 -0.37909,-0.31295 -0.57432,-0.47434c-0.18725,-0.16746 -0.37185,-0.33403 -0.56346,-0.50595c0.00262,-0.2907 0.00523,-0.5814 0.00792,-0.88091z" fill="#3b1f47"/><path d="M153.47336,134.71847l0.26378,0.0907c-0.04371,0.15287 -0.09096,0.30745 -0.13649,0.46558c-0.82359,2.7899 -1.59849,5.59261 -2.32471,8.40813c-0.19566,-0.27739 -0.36887,-0.63149 -0.51964,-1.06231c0.12678,-0.56317 0.30838,-1.17425 0.5448,-1.83325c0.05977,-0.17384 0.11955,-0.34769 0.18377,-0.5259c0.19637,-0.55396 0.39539,-1.10702 0.59704,-1.65918c0.13479,-0.37485 0.26694,-0.75061 0.39909,-1.12637c0.32581,-0.92182 0.65599,-1.8392 0.99235,-2.7574z" fill="#471f57"/><path d="M268.06251,152.32247c1.14165,0.54866 1.75348,1.26565 2.44877,2.3147l-0.18114,0.52681c-0.55218,-0.09267 -1.10436,-0.18533 -1.67327,-0.2808c-0.00798,-0.19126 -0.01333,-0.3816 -0.02213,-0.57903c-0.05231,-0.4598 -0.26467,-0.80871 -0.63709,-1.04672c-0.1563,-0.0773 -0.31406,-0.15609 -0.47327,-0.23636c0.17671,-0.23083 0.35342,-0.46168 0.53549,-0.69951z" fill="#341849"/><path d="M236.20477,124.87405c0.97846,0.55146 1.89291,1.16043 2.80432,1.81252c0.26819,0.18941 0.53463,0.37529 0.80983,0.57005c0.63904,0.53489 0.91924,0.86098 1.1981,1.62842c-1.87438,-0.76821 -3.32889,-1.93398 -4.73224,-3.3944l-0.08265,-0.61751z" fill="#351e3e"/><path d="M193.69274,105.24949l2.37404,0.81629c-0.9717,0.36396 -1.74709,0.47436 -2.78298,0.42451c-0.24158,-0.00943 -0.4858,-0.01977 -0.7362,-0.02928c-0.73391,-0.0874 -1.34877,-0.27231 -2.03873,-0.539l0.18114,-0.5268c0.93026,0.12546 1.86052,0.25092 2.81896,0.38018l0.18114,-0.5268z" fill="#3e204a"/><path d="M198.35619,214.36159c2.47652,0.89571 4.27746,1.88607 6.05115,3.84788c-0.96692,0.12703 -1.57155,-0.50795 -2.33234,-1.04052c-0.32433,-0.22345 -0.64956,-0.44426 -0.97125,-0.6668c-0.29804,-0.20556 -0.5987,-0.41203 -0.90638,-0.62386c-0.63915,-0.42301 -1.28369,-0.83901 -1.92912,-1.2524l0.09057,-0.2634z" fill="#321e3b"/><path d="M239.81868,203.58177c2.11843,0.9935 4.0842,2.38809 4.89753,4.62941c-1.16799,-0.85814 -2.22407,-1.80151 -3.2842,-2.78458c-0.16621,-0.15141 -0.32889,-0.30454 -0.49948,-0.46039c-0.40325,-0.37134 -0.80561,-0.74533 -1.20532,-1.1184l0.09057,-0.26341z" fill="#361e40"/><path d="M152.75115,165.98637c0.90745,1.09257 1.52922,2.17526 2.12979,3.45685c0.42265,0.864 0.91903,1.66795 1.43298,2.48088l-0.61813,0.08201c-0.96873,-1.43763 -1.88833,-2.84658 -2.60614,-4.43062c-0.10755,-0.20193 -0.21601,-0.40121 -0.32439,-0.60932c-0.13017,-0.30199 -0.13488,-0.62859 -0.01412,-0.9798z" fill="#351e3f"/><path d="M211.52948,220.65834c-1.35531,0.35578 -2.15115,0.19112 -3.45431,-0.24813c-0.27788,-0.09259 -0.55666,-0.18257 -0.8451,-0.27879c-0.48026,-0.2103 -0.92379,-0.58175 -1.3306,-1.11435c0.24811,0.06764 0.49358,0.13437 0.74697,0.20383c0.32087,0.0848 0.64496,0.17169 0.97226,0.26067c0.31851,0.08595 0.63966,0.17281 0.96962,0.25975c1.50449,0.34844 2.48487,0.65411 2.94115,0.91703z" fill="#4a235b"/><path d="M277.95965,238.49241c1.211,0.58723 1.9371,1.44366 2.78888,2.44932c0.13705,0.15906 0.27237,0.31456 0.41377,0.47805c0.33256,0.38827 0.6651,0.77654 0.995,1.16391c-0.35863,-0.00353 -0.74053,-0.03666 -1.14569,-0.09939c-0.29569,-0.36677 -0.58784,-0.73525 -0.85602,-1.122c-0.67997,-0.88769 -1.54229,-1.6054 -2.37617,-2.34571l0.18114,-0.52681z" fill="#361e40"/><path d="M296.63834,221.0568c0.37245,0.1693 0.74399,0.34123 1.11552,0.51316l0.62627,0.28898c0.36053,0.18679 0.68645,0.42846 0.97778,0.72499l-0.36227,1.05362c-0.39719,-0.26028 -0.78995,-0.52492 -1.18444,-0.79311c-0.22094,-0.14666 -0.43833,-0.29505 -0.66629,-0.44706c-0.16975,-0.14968 -0.34126,-0.3029 -0.51801,-0.45794c0.00261,-0.2907 0.00522,-0.58141 0.00792,-0.88091z" fill="#33143b"/><path d="M183.34976,107.87859c0.23126,0.17671 0.46251,0.35343 0.70078,0.5355c-1.4894,0.65428 -2.99473,1.31486 -4.51599,1.98175c0.18114,-0.52681 0.53612,-0.93297 1.06494,-1.21848c0.32411,-0.14481 0.64732,-0.28699 0.97852,-0.43526l0.99573,-0.4853zM178.7432,110.12375l0.437,0.4448c-0.43785,0.14104 -0.87571,0.28209 -1.32684,0.42741c0.29365,-0.28783 0.5873,-0.57567 0.88984,-0.87222z" fill="#782c99"/><path d="M264.09785,151.8429c1.6557,0.9581 2.66322,2.30008 3.66919,3.91251l0.08264,0.6175c-0.40654,-0.236 -0.81598,-0.47497 -1.22834,-0.7169l0.18114,-0.5268c-0.15327,-0.12045 -0.30744,-0.23826 -0.46508,-0.36315c-0.87652,-0.80505 -1.63587,-1.69352 -2.33012,-2.65976z" fill="#341e3e"/><path d="M319.37351,252.73213l0.34642,0.70821c-0.51441,1.23302 -1.11027,2.10813 -1.7876,2.62534c-0.14419,-0.14677 -0.28841,-0.29357 -0.43699,-0.4448c-0.14682,0.14392 -0.29363,0.28784 -0.44491,0.43612c0.6995,-1.18508 1.3756,-2.31929 2.32308,-3.32486z" fill="#371940"/><path d="M237.85444,196.42641c0.37702,0.73934 0.67639,1.48144 0.95692,2.26124c0.38964,1.00288 0.78553,1.50718 1.64922,2.16938l0.25586,0.97161c-1.63873,-1.17905 -2.47756,-2.15376 -3.04681,-4.07552c-0.05793,-0.35766 0.00367,-0.7999 0.18481,-1.32671z" fill="#351e3e"/><path d="M156.22336,172.1875c1.14083,0.54249 1.61738,1.19824 2.26132,2.26793c0.16602,0.2721 0.33376,0.54774 0.50588,0.82783c0.12247,0.21 0.24849,0.41828 0.37533,0.63273l-0.61814,0.08201c-0.38164,-0.38846 -0.73071,-0.80303 -1.04721,-1.2437l0.18114,-0.52681c-0.14575,-0.07368 -0.2915,-0.14736 -0.43898,-0.22457c-0.67011,-0.51318 -0.89194,-1.05188 -1.21844,-1.81803z" fill="#40204d"/><path d="M165.82144,183.73494c1.06803,0.69417 1.7464,1.26909 2.44877,2.3147c0.59231,0.53355 1.21238,1.02069 1.83855,1.5158c-0.85302,0.11317 -1.10156,-0.20203 -1.78675,-0.70566c-0.20331,-0.14648 -0.40834,-0.29652 -0.61866,-0.44835c-0.5307,-0.42106 -0.99423,-0.85731 -1.45548,-1.35168l0.18114,-0.52681c-0.23126,-0.1767 -0.46252,-0.35342 -0.70078,-0.53549l0.09057,-0.2634z" fill="#422050"/><path d="M205.52927,220.95159c0.39544,0.16248 0.78189,0.34249 1.163,0.52948c0.209,0.10132 0.41946,0.20412 0.63138,0.3084c0.16157,0.07912 0.32225,0.16088 0.48646,0.2409c-0.2066,0.31777 -0.41319,0.63553 -0.62606,0.96292c-0.93681,-0.44386 -1.55239,-0.90687 -1.84676,-1.38902c-0.05503,-0.15736 -0.10916,-0.31735 -0.16501,-0.48089l0.35435,-0.17271z" fill="#421459"/><path d="M272.02283,231.73839c1.03418,0.53527 1.74877,1.20217 2.53932,2.0513l-0.18114,0.5268c0.15977,0.08439 0.31863,0.17142 0.48367,0.25762c0.15853,0.12225 0.31799,0.24188 0.4809,0.36859l-0.00793,0.88091c-1.39611,-1.0868 -2.58496,-2.46757 -3.31482,-4.08521z" fill="#351e3e"/><path d="M183.5309,107.35179l0.437,0.4448c-1.11018,0.7238 -2.00842,1.1572 -2.69472,1.30021c-0.90756,0.19456 -1.33873,0.57354 -2.00241,1.20835l-0.437,-0.4448c1.48062,-1.14919 2.94055,-1.86074 4.69713,-2.50856z" fill="#56246c"/><path d="M250.5115,211.08746c1.41908,0.29943 2.12709,1.20854 3.0669,2.23269l0.76474,0.7784c0.18181,0.18328 0.36097,0.36565 0.54624,0.556l-0.61813,0.082c-0.5974,-0.45871 -1.16034,-0.92325 -1.72387,-1.42039c-0.15756,-0.13371 -0.31421,-0.27004 -0.47613,-0.40818c-0.66247,-0.5783 -1.17002,-1.02379 -1.55975,-1.82052z" fill="#301e38"/><path d="M173.88078,111.3973l0.437,0.4448c-0.44047,0.43175 -0.88094,0.86349 -1.33476,1.30832l-0.52756,-0.1814l-0.27171,0.79021c-0.40797,0.05412 -0.82006,0.10879 -1.23627,0.16401c0.55095,-1.24205 1.2717,-1.55386 2.48838,-2.08984z" fill="#401e4f"/><path d="M195.47042,211.60208c0.57945,0.29644 1.15891,0.59288 1.75591,0.89829c-0.00262,0.29071 -0.00523,0.5814 -0.00792,0.88091c0.40535,0.23658 0.81071,0.47315 1.22835,0.7169c-0.94629,-0.0102 -1.41378,-0.20335 -2.13774,-0.80867c-0.15995,-0.12962 -0.32223,-0.26102 -0.48684,-0.3942c-0.24154,-0.27548 -0.35967,-0.70686 -0.35439,-1.29414z" fill="#3a1f46"/><path d="M185.65951,204.10508c1.34387,0.62113 2.28232,1.3061 3.33069,2.32339l-0.18114,0.52681c-1.36323,-0.62485 -2.2453,-1.49955 -3.24012,-2.5868z" fill="#351e3e"/><path d="M244.115,186.79728l0.437,0.4448c-0.32562,0.31218 -0.65388,0.62346 -0.98386,0.93119c-0.18324,0.17263 -0.36827,0.34759 -0.55509,0.52488c-0.63059,0.48714 -1.15456,0.68989 -1.92192,0.88848c0.46993,-0.76623 1.01038,-1.42869 1.60647,-2.09853l0.52756,0.1814z" fill="#321e3a"/><path d="M241.244,202.01004c1.28735,0.72542 2.36204,1.36591 3.24011,2.58681c-0.97192,-0.0043 -1.41362,-0.22097 -2.13635,-0.86416c-0.16103,-0.14078 -0.32031,-0.27803 -0.48571,-0.42326c-0.11897,-0.10865 -0.23795,-0.21731 -0.36219,-0.32778l0.18114,-0.5268z" fill="#341e3e"/><path d="M267.84968,156.37291c0.78218,0.44174 1.33729,0.82898 1.66534,1.1617l-0.18114,0.52681c0.18129,0.14186 0.36522,0.28463 0.55444,0.42922c0.38889,0.36739 0.66862,0.87495 0.8392,1.52269c-0.83006,-0.67421 -1.48706,-1.37138 -2.12943,-2.22258c-0.16039,-0.21125 -0.32169,-0.41988 -0.48554,-0.63822c-0.11578,-0.16941 -0.23156,-0.33882 -0.35081,-0.51531l0.09057,-0.26341z" fill="#331e3d"/><path d="M242.76765,130.66516c1.65963,0.42338 2.31139,1.01566 3.33068,2.3234l-0.09057,0.2634c-1.45172,-0.29887 -2.31843,-1.31262 -3.33068,-2.32339z" fill="#351e3f"/><path d="M252.20962,188.99144c1.24675,0.33737 1.69316,0.61753 2.36612,1.6972c0.45707,0.36924 0.92305,0.72974 1.40155,1.071c-0.86211,0.04524 -1.15007,-0.10385 -1.85175,-0.63671c-0.23877,-0.22348 -0.47581,-0.44343 -0.7216,-0.67225c-0.24232,-0.22176 -0.48373,-0.44615 -0.73306,-0.67326c-0.18279,-0.17183 -0.36467,-0.3463 -0.55183,-0.52258z" fill="#361e41"/><path d="M263.2829,222.84238c1.15393,0.55582 1.94022,1.19436 2.80311,2.14199c-0.73124,0.00777 -1.06252,-0.0325 -1.63955,-0.49894c-0.15022,-0.16359 -0.29692,-0.32889 -0.45152,-0.49692c-0.15288,-0.16448 -0.30311,-0.32807 -0.46035,-0.49701c-0.11264,-0.12709 -0.22526,-0.25418 -0.34226,-0.38572z" fill="#321e3c"/><path d="M209.56866,222.92958c-0.17672,0.23084 -0.35343,0.46167 -0.53549,0.69951l-1.58269,-0.54419l0.27171,-0.79021c0.82475,-0.10816 1.16065,0.20174 1.84648,0.63489z" fill="#310c37"/><path d="M177.06994,109.84296l0.43699,0.4448c-0.47085,0.27991 -0.94081,0.55719 -1.41166,0.83711c-0.31627,0.18776 -0.61479,0.42974 -0.89558,0.72592l-0.79135,-0.2721c0.75747,-0.86472 1.6263,-1.26405 2.66159,-1.73574z" fill="#3e1e4c"/><path d="M183.30923,200.64607c0.34964,0.25277 0.69838,0.50817 1.04621,0.7662c0.19275,0.14286 0.38905,0.28399 0.58971,0.42958c0.3127,0.27442 0.4966,0.61747 0.5517,1.02913c-1.21403,-0.54408 -1.70492,-0.97796 -2.18499,-2.224z" fill="#522167"/><path d="M264.31067,147.79246c0.51849,0.47086 1.04342,0.9459 1.57478,1.4251l-0.27171,0.79021c-0.52757,-0.1814 -0.92716,-0.50337 -1.19877,-0.96592c-0.19029,-0.48172 -0.22506,-0.89819 -0.10431,-1.24939z" fill="#2d1d50"/><path d="M253.09028,140.10537c1.24386,0.56023 1.79448,1.12068 2.44877,2.3147c-0.4927,-0.26563 -0.99008,-0.53483 -1.49213,-0.8076l0.18114,-0.5268c-0.40535,-0.23657 -0.81071,-0.47315 -1.22834,-0.7169z" fill="#4b235d"/><path d="M245.21641,132.97986c0.57791,0.36954 1.12137,0.74492 1.66534,1.1617l-0.2717,0.7902c-0.46811,-0.32 -0.93529,-0.677 -1.40156,-1.071c0.00261,-0.2907 0.00522,-0.5814 0.00792,-0.88091z" fill="#431e53"/><path d="M298.13047,221.8644c0.40417,0.23715 0.81362,0.47612 1.22834,0.7169l-0.36227,1.05361c-0.31832,-0.20664 -0.6366,-0.41329 -0.96457,-0.6262z" fill="#38233d"/><path d="M280.24078,210.41142c1.11538,0.53078 1.58071,1.1591 2.185,2.22401l-1.31893,-0.4535c0.00264,-0.29069 0.00525,-0.58139 0.00793,-0.88091c-0.31114,-0.25033 -0.63267,-0.45906 -0.96457,-0.6262z" fill="#321e3b"/><path d="M150.53898,156.9785c0.58595,0.94667 0.55862,1.7296 0.5038,2.82412c-0.3376,-0.44793 -0.65648,-0.9503 -0.95664,-1.5071c0.11153,-0.50165 0.26247,-0.94065 0.45284,-1.31701z" fill="#452054"/><path d="M267.10587,150.81537c0.67333,0.54668 1.09967,0.9024 1.48421,1.6885c-0.46513,-0.06273 -0.93027,-0.12546 -1.40949,-0.19009c-0.02466,-0.49447 -0.04932,-0.98895 -0.07472,-1.49841z" fill="#2a1437"/><path d="M192.89347,105.8583c-0.29984,0.19145 -0.65419,0.36415 -1.06305,0.51811c-0.48452,-0.12929 -0.92416,-0.28045 -1.31891,-0.45349l0.18114,-0.5268c0.86164,0.00761 1.40618,0.16539 2.20083,0.46218z" fill="#331e3c"/><path d="M253.08361,189.88104c1.45202,1.34461 3.06335,2.23443 4.82281,3.13099l-0.18114,0.5268c0.16429,0.07122 0.33122,0.14334 0.50079,0.21637c2.64789,1.16082 5.24121,2.30876 7.39685,4.26641l-0.18114,0.52681c1.09738,0.82895 2.24996,1.56889 3.45773,2.2198c0.97374,0.48798 1.29739,0.88497 1.97529,1.71009c0.36794,0.27673 0.74389,0.54738 1.12255,0.81012c1.00538,0.6962 1.87702,1.45538 2.75759,2.30012c0.50039,0.45777 1.01889,0.86285 1.56473,1.26555c0.69567,0.51607 1.30034,1.04798 1.89352,1.68197c0.62731,0.66341 1.26478,1.17714 2.0178,1.68936c1.22543,0.8455 2.19796,1.86029 3.22377,2.93464c0.71593,0.71449 1.46198,1.31563 2.28491,1.89902c0.30251,0.22969 0.5962,0.49365 0.88106,0.79189c0.4773,0.47338 0.94392,0.76342 1.53013,1.09164c0.92118,0.54648 1.47626,1.10258 2.15408,1.9365c0.48064,0.39501 0.98008,0.76114 1.48126,1.13081c0.7288,0.55692 1.42203,1.14874 2.11963,1.74498c0.84639,0.72107 1.67571,1.38029 2.6293,1.95264c0.25596,0.17343 0.5146,0.34778 0.77759,0.52657c-0.00262,0.2907 -0.00523,0.5814 -0.00792,0.88091c0.17021,0.09682 0.33692,0.19538 0.51242,0.29401c0.22111,0.12904 0.44311,0.25544 0.67123,0.38985c0.21936,0.1255 0.44047,0.25455 0.66684,0.38539c0.40352,0.24479 0.83888,0.54568 1.30607,0.90268c-0.18114,0.52681 -0.56218,0.95444 -1.14314,1.2829c-0.60023,0.24722 -1.07619,0.31037 -1.4279,0.18944c-0.10792,0.13372 -0.2123,0.26572 -0.32205,0.40472c-0.37852,0.31166 -0.87478,0.53964 -1.48877,0.68394c-1.20085,0.34409 -1.8516,0.9156 -2.71046,1.7749c-0.17253,0.15864 -0.34598,0.31991 -0.52295,0.48292c-2.20238,2.06446 -4.14966,4.39926 -5.12284,7.28107c-0.10053,0.29237 -0.20106,0.58475 -0.30522,0.88767c-0.10415,0.30291 -0.20304,0.60763 -0.30818,0.92199c-0.10566,0.3073 -0.21165,0.61842 -0.31797,0.93336c-0.2582,0.75951 -0.51375,1.51992 -0.76932,2.28033l0.52756,0.1814l-0.18114,0.5268c0.14437,0.12917 0.28875,0.25834 0.43837,0.38931c0.29041,0.33353 0.43297,0.79393 0.4277,1.3812c0.5814,0.4709 1.19724,0.8417 1.83137,1.23646c0.3565,0.30716 0.58654,0.68473 0.69011,1.13271c0.00362,0.1868 0.00458,0.3727 0.0073,0.56214c-0.45422,-0.19741 -0.90754,-0.39746 -1.36085,-0.59751c-0.25389,-0.11085 -0.50515,-0.22081 -0.76607,-0.33704c-0.45547,-0.21944 -0.9168,-0.50766 -1.38399,-0.86467l0.18114,-0.5268c-0.31335,-0.16961 -0.62761,-0.33656 -0.94887,-0.50888c-1.46232,-0.88571 -2.50432,-2.11879 -3.60223,-3.41232l0.18114,-0.5268c-0.17997,-0.09429 -0.35903,-0.1912 -0.54336,-0.28993c-0.71394,-0.44576 -1.22033,-0.92032 -1.79876,-1.52862c-0.18262,-0.18946 -0.36262,-0.37799 -0.55135,-0.57543c-0.17125,-0.17964 -0.34423,-0.36283 -0.51986,-0.54692c-0.29015,-0.29711 -0.58031,-0.59422 -0.87399,-0.8896l0.18114,-0.52681c-0.17736,-0.09044 -0.35647,-0.18148 -0.53733,-0.27312c-0.80678,-0.51893 -1.31666,-1.09483 -1.93189,-1.82771c-0.21992,-0.26118 -0.43982,-0.52236 -0.66584,-0.79152c-0.2059,-0.25047 -0.4127,-0.49832 -0.6247,-0.75676c-0.16145,-0.19101 -0.32554,-0.38291 -0.4931,-0.58192c-0.66667,-0.79769 -1.26105,-1.59115 -1.78838,-2.48526c-0.30176,-0.57503 -0.70395,-1.03241 -1.20657,-1.37213l0.18114,-0.5268c-0.69378,-0.53016 -1.38754,-1.0603 -2.10234,-1.6065l0.18114,-0.5268c-0.14741,-0.08604 -0.29743,-0.17297 -0.4492,-0.26345c-0.19564,-0.11734 -0.39126,-0.23467 -0.59218,-0.35382c-0.1939,-0.1138 -0.38779,-0.22759 -0.58605,-0.34584c-0.75393,-0.50959 -1.29925,-0.97396 -1.69221,-1.80421c-0.32233,-0.64101 -0.68748,-0.93445 -1.2453,-1.37956c-1.0024,-0.83361 -1.92221,-1.72719 -2.82663,-2.66554c-1.20679,-1.25144 -2.46109,-2.41614 -3.80505,-3.5174l0.18114,-0.52681c-0.30098,-0.17123 -0.60024,-0.33893 -0.91087,-0.51643c-2.01748,-1.23564 -3.78803,-2.76047 -5.30558,-4.56647c-0.29598,-0.23726 -0.60121,-0.45905 -0.91569,-0.66536c-1.24507,-0.91705 -2.24582,-2.02991 -3.27808,-3.17127c-0.72049,-0.79558 -1.44673,-1.54012 -2.28117,-2.21878l0.18114,-0.52681c-0.30966,-0.0888 -0.62314,-0.17793 -0.94045,-0.26741c-1.24513,-0.41928 -2.04165,-1.09669 -3.00837,-1.97399l0.18114,-0.5268c-0.28862,-0.17287 -0.5755,-0.34221 -0.87114,-0.52044c-1.63877,-1.07599 -2.62633,-2.18431 -3.10029,-4.10866c-0.04055,-0.1995 -0.08282,-0.40254 -0.12418,-0.60822c-0.04401,-0.20659 -0.08975,-0.41671 -0.13722,-0.63038c-0.29212,-1.6468 -0.07347,-2.8146 0.79258,-4.27819c0.09194,-0.12155 0.18033,-0.24138 0.27318,-0.36556l0.52756,0.1814c0.09514,-0.18229 0.18936,-0.36197 0.28894,-0.54864c0.44738,-0.70919 0.90836,-1.16628 1.53861,-1.71245c0.19289,-0.16636 0.38314,-0.33364 0.58048,-0.50436c0.14576,-0.12366 0.29152,-0.24732 0.44173,-0.37535l0.52756,0.1814c0.13643,-0.16516 0.27286,-0.33033 0.41201,-0.50339c0.9524,-1.06278 1.89948,-1.82695 3.22999,-2.36797c2.94296,0.02814 5.02345,1.61239 7.02364,3.59319z" fill="#451e56"/></g></g></svg>