<svg viewBox="0,0,35.2692,28.24075" height="28.24075" width="35.2692" xmlns:xlink="http://www.w3.org/1999/xlink" xmlns="http://www.w3.org/2000/svg" version="1.1"><g transform="translate(-215.03682,-160.05793)"><g style="mix-blend-mode: normal" stroke-dashoffset="0" stroke-dasharray="" stroke-miterlimit="10" stroke-linejoin="miter" stroke-linecap="butt" fill-rule="nonzero" data-paper-data="{&quot;isPaintingLayer&quot;:true}"><path stroke-width="1" stroke="none" fill="#baf7cb" d="M244.78504,162.95621c0.57734,0.49518 1.12318,1.01886 1.66034,1.55696c0.16539,0.16273 0.16539,0.16273 0.33413,0.32875c2.52122,2.6442 3.60742,6.33356 3.52184,9.92537c-0.15707,2.67884 -0.91402,5.09051 -2.38878,7.34008c-0.06563,0.1013 -0.13126,0.20261 -0.19888,0.30698c-2.19638,3.14104 -5.66738,5.07539 -9.39291,5.74103c-3.70134,0.49645 -7.49875,-0.28253 -10.49961,-2.56353c-0.40045,-0.32405 -0.79199,-0.65658 -1.18292,-0.99196c-0.09324,-0.07182 -0.18648,-0.14364 -0.28255,-0.21764c-0.71773,-0.5606 -1.21385,-1.25771 -1.74057,-1.99596c-0.54084,-0.70948 -1.16639,-1.25922 -1.86494,-1.80925c-0.59249,-0.47782 -1.08699,-0.93912 -1.54055,-1.54866c-0.09079,0.14515 -0.18156,0.29031 -0.2751,0.43986c-0.2625,0.31687 -0.39476,0.42713 -0.80295,0.50858c-0.73254,0.00884 -1.31193,-0.12173 -2.00306,-0.36197c-0.3993,-0.03183 -0.77176,-0.02042 -1.17376,0c-0.04842,0.04839 -0.09684,0.09677 -0.14672,0.14662c-0.26867,0.01444 -0.5379,0.01902 -0.80696,0.01833c-0.14676,0.00038 -0.29353,0.00076 -0.44474,0.00114c-0.36221,-0.01947 -0.36221,-0.01947 -0.50893,-0.16609c-0.01921,-0.55861 0.01531,-1.11861 0.03668,-1.67695c0.00653,-0.17672 0.01305,-0.35343 0.01977,-0.5355c0.07138,-1.73269 0.18768,-3.46206 0.31035,-5.19178c0.01444,-0.20628 0.01444,-0.20628 0.02918,-0.41672c0.02782,-0.39416 0.05646,-0.78825 0.08545,-1.18233c0.01261,-0.17799 0.01261,-0.17799 0.02548,-0.35957c0.03866,-0.51109 0.09257,-0.99249 0.2267,-1.48691c0.58682,-0.04966 1.17372,-0.09823 1.76063,-0.14662c0.16511,-0.01399 0.33023,-0.02797 0.50034,-0.04238c0.46881,-0.03835 0.93777,-0.07162 1.40701,-0.10424c0.11386,-0.01153 0.22771,-0.02306 0.34502,-0.03494c0.84675,-0.05717 1.23103,0.24776 1.85577,0.76803c1.13403,-0.90062 2.11271,-1.70943 2.84097,-2.98162c0.42868,-0.69727 0.9966,-1.26781 1.56061,-1.85678c0.08095,-0.09016 0.16189,-0.18031 0.24529,-0.27319c4.58454,-4.93292 13.31085,-5.38075 18.48837,-1.13715z"></path><path stroke-width="1" stroke="none" fill="#38333a" d="M220.63994,168.66431c0.08511,0.08164 0.17022,0.1633 0.25791,0.24742c0.08738,0.08165 0.17475,0.1633 0.26478,0.24742c0.06393,0.0635 0.12785,0.12701 0.19372,0.19244c-0.05685,0.6249 -0.31374,0.97091 -0.68374,1.46389c-0.58658,0.88182 -0.88579,1.88352 -0.93018,2.93466c-0.00586,0.12871 -0.01173,0.25742 -0.01777,0.39003c-0.04046,1.72899 0.55482,2.95325 1.33824,4.44838c0.04842,0.09677 0.09684,0.19353 0.14672,0.29323c-0.21019,0.40008 -0.41334,0.7063 -0.7336,1.02633c-0.84604,0.1034 -1.54889,-0.01565 -2.34751,-0.29323c-0.3993,-0.03183 -0.77176,-0.02042 -1.17376,0c-0.07262,0.07258 -0.07262,0.07258 -0.14672,0.14662c-0.26867,0.01444 -0.5379,0.01902 -0.80696,0.01833c-0.14676,0.00038 -0.29353,0.00076 -0.44474,0.00114c-0.36221,-0.01947 -0.36221,-0.01947 -0.50893,-0.16609c-0.01921,-0.55861 0.01531,-1.11861 0.03668,-1.67695c0.00653,-0.17672 0.01305,-0.35343 0.01977,-0.5355c0.07138,-1.73269 0.18768,-3.46205 0.31035,-5.19178c0.00963,-0.13752 0.01925,-0.27504 0.02918,-0.41672c0.02782,-0.39416 0.05646,-0.78825 0.08545,-1.18233c0.0084,-0.11866 0.01682,-0.23731 0.02548,-0.35957c0.03866,-0.51109 0.09257,-0.99248 0.2267,-1.48691c0.59295,-0.04946 1.18596,-0.09811 1.77897,-0.14662c0.16757,-0.01399 0.33514,-0.02797 0.50779,-0.04238c0.24398,-0.01984 0.24398,-0.01984 0.49288,-0.04009c0.14906,-0.01228 0.29812,-0.02457 0.45169,-0.03723c1.23729,-0.07628 1.23729,-0.07628 1.6276,0.16552z"></path><path stroke-width="1" stroke="none" fill="#4d484f" d="M220.76947,178.29529c0.14525,0.19353 0.29051,0.38707 0.44016,0.58647c-0.22332,0.38546 -0.41722,0.71017 -0.7336,1.02633c-0.96959,0.13868 -1.75904,-0.04817 -2.64095,-0.43986c0,-0.04839 0,-0.09677 0,-0.14662c0.91993,-0.04839 1.83986,-0.09677 2.78767,-0.14662c0.04842,-0.29031 0.09684,-0.58061 0.14672,-0.87971z"></path><path stroke-width="1" stroke="none" fill="#ded175" d="M222.97026,168.03202c0.09684,0.04838 0.19367,0.09677 0.29344,0.14662c-0.62942,0.629 -1.25885,1.25798 -1.90735,1.90603c-0.14672,-0.29323 -0.14672,-0.29323 -0.1834,-0.55898c-0.16108,-0.46948 -0.48432,-0.72237 -0.84363,-1.05382c0.53552,0.19325 0.84944,0.38005 1.32047,0.73309c0.43576,-0.38707 0.87151,-0.77414 1.32047,-1.17294z"></path><path stroke-width="1" stroke="none" fill="#6e6583" d="M215.04741,178.29529c0.04842,0 0.09684,0 0.14672,0c0,0.33869 0,0.67738 0,1.02632c0.43576,0 0.87151,0 1.32047,0c0.04842,0.14515 0.09684,0.2903 0.14672,0.43986c-0.24147,0.00394 -0.48294,0.0068 -0.72443,0.00916c-0.13447,0.0017 -0.26894,0.0034 -0.40749,0.00515c-0.33528,-0.01432 -0.33528,-0.01432 -0.482,-0.16094c-0.01054,-0.22275 -0.01232,-0.44596 -0.00917,-0.66895c0.00133,-0.12114 0.00265,-0.2423 0.00401,-0.36712c0.0017,-0.09356 0.0034,-0.18711 0.00516,-0.2835z"></path><path stroke-width="1" stroke="none" fill="#8c878b" d="M220.55856,179.31246c0.17703,0.00454 0.17703,0.00454 0.35763,0.00916c-0.17366,0.2898 -0.17366,0.2898 -0.44016,0.58648c-0.35362,0.06758 -0.35362,0.06758 -0.74277,0.05498c-0.1288,-0.00189 -0.2576,-0.00378 -0.3903,-0.00573c-0.33413,-0.04925 -0.33413,-0.04925 -0.62757,-0.34249c0.14043,-0.01332 0.14043,-0.01332 0.2837,-0.02691c0.18185,-0.01843 0.18185,-0.01843 0.36737,-0.03723c0.12085,-0.01191 0.24171,-0.02381 0.36623,-0.03608c0.39675,-0.06071 0.39965,-0.19178 0.82587,-0.20217z"></path><path stroke-width="1" stroke="none" fill="#605b55" d="M220.76947,178.29529c0.22925,0.26575 0.22925,0.26575 0.44016,0.58647c-0.04842,0.14515 -0.09684,0.29031 -0.14672,0.43986c-0.14525,0 -0.2905,0 -0.44016,0c0.04842,-0.33869 0.09684,-0.67738 0.14672,-1.02632z"></path><path stroke-width="1" stroke="none" fill="#000000" d="M220.73627,168.81224c0.08657,0.08305 0.17315,0.16611 0.26234,0.25167c0.08888,0.08305 0.17776,0.1661 0.26933,0.25167c0.06502,0.06459 0.13005,0.1292 0.19705,0.19575c-0.05783,0.63564 -0.31914,0.98759 -0.69549,1.48905c-0.59666,0.89698 -0.90101,1.9159 -0.94617,2.9851c-0.00596,0.13092 -0.01193,0.26184 -0.01807,0.39673c-0.04116,1.75871 0.56436,3.00401 1.36125,4.52484c0.04925,0.09843 0.0985,0.19686 0.14925,0.29828c-0.2138,0.40696 -0.42045,0.71843 -0.74621,1.04397c-0.86058,0.10518 -1.57551,-0.01592 -2.38786,-0.29828c-0.40616,-0.03238 -0.78503,-0.02078 -1.19393,0c-0.07387,0.07382 -0.07387,0.07383 -0.14924,0.14914c-0.27328,0.01469 -0.54715,0.01934 -0.82083,0.01864c-0.14929,0.00038 -0.29857,0.00077 -0.45239,0.00116c-0.36844,-0.01981 -0.36844,-0.01981 -0.51768,-0.16895c-0.01954,-0.56822 0.01557,-1.13783 0.03731,-1.70577c0.00664,-0.17975 0.01327,-0.35951 0.02011,-0.54471c0.07261,-1.76247 0.19091,-3.52156 0.31568,-5.28102c0.00979,-0.13988 0.01959,-0.27976 0.02968,-0.42389c0.0283,-0.40094 0.05743,-0.8018 0.08692,-1.20265c0.00855,-0.1207 0.01711,-0.24139 0.02591,-0.36575c0.03933,-0.51987 0.09416,-1.00953 0.23059,-1.51246c0.60314,-0.0503 1.20634,-0.0998 1.80955,-0.14914c0.17045,-0.01423 0.3409,-0.02845 0.51652,-0.04311c0.24817,-0.02018 0.24817,-0.02019 0.50136,-0.04078c0.15162,-0.0125 0.30324,-0.02499 0.45946,-0.03787c1.25856,-0.07759 1.25856,-0.07759 1.65557,0.16836z"></path><path stroke-width="0.5" stroke="#000000" fill="none" d="M216.32914,175.9034v-3.125h12.875v3.125z"></path></g></g></svg>