<svg version="1.1" xmlns="http://www.w3.org/2000/svg" xmlns:xlink="http://www.w3.org/1999/xlink" width="93.97522" height="126.67864" viewBox="0,0,93.97522,126.67864"><g transform="translate(-192.90269,-118.88224)"><g data-paper-data="{&quot;isPaintingLayer&quot;:true}" fill-rule="nonzero" stroke="none" stroke-width="1" stroke-linecap="butt" stroke-linejoin="miter" stroke-miterlimit="10" stroke-dasharray="" stroke-dashoffset="0" style="mix-blend-mode: normal"><path d="M253.87175,121.62472c1.67642,1.89384 2.19355,3.93689 2.91552,6.32813c0.67419,2.41555 0.67419,2.41555 2.42738,4.04172c1.67727,0.32591 2.82409,0.0099 4.46906,-0.43338c0.54328,-0.14292 1.08656,-0.28582 1.64632,-0.43307c0.93652,-0.25651 1.87078,-0.52184 2.79984,-0.80424c2.75385,-0.56972 6.00095,-0.27375 8.39813,1.24417c1.55383,1.46392 2.89326,3.00613 3.36183,5.11733c-0.03503,3.08887 -0.80268,5.17195 -2.4429,7.76752c-0.31646,0.53563 -0.63293,1.07127 -0.95898,1.62313c-0.31327,0.52992 -0.62653,1.05984 -0.9493,1.60582c-0.31645,0.53563 -0.63293,1.07127 -0.95897,1.62313c-0.44492,0.7444 -0.89898,1.48414 -1.38401,2.20302c0.46593,0.33573 0.93186,0.67144 1.41191,1.01732c1.35659,0.97748 2.22882,2.07071 3.2397,3.39731c0.66386,0.64745 1.33278,1.28973 2.00587,1.92757c4.83634,5.00303 6.98334,12.02461 7.02477,18.88725c-0.09745,3.2044 -0.76029,6.21579 -1.43053,9.3402c-0.40336,1.91118 -0.78535,3.82547 -1.15655,5.74311c-0.06183,0.31351 -0.12366,0.62701 -0.18736,0.95003c-0.33008,1.71683 -0.59654,3.42608 -0.80576,5.16197c-0.32864,2.60162 -0.88628,5.13357 -1.46695,7.68898c-2.10689,9.28313 -3.53156,18.665 -4.92297,28.07733c-0.17098,1.14897 -0.34211,2.29789 -0.51336,3.44683c-0.41387,2.77846 -0.82606,5.55715 -1.23689,8.33605c-1.40219,-0.18353 -1.40219,-0.18353 -2.74315,-0.83476c-0.97938,0.14135 -0.97938,0.14135 -1.99062,0.45303c-1.03592,0.29553 -1.03592,0.29553 -1.9322,0.46066c-0.28828,-0.1947 -0.57655,-0.38943 -0.87358,-0.59006c0.04041,-0.3087 0.08081,-0.61737 0.12244,-0.93541c-1.74114,-0.24226 -3.48307,-0.47834 -5.22516,-0.71365c-0.47457,-0.0661 -0.94911,-0.1322 -1.43807,-0.20031c-3.21598,-0.43089 -6.42782,-0.73968 -9.66162,-0.99052c-5.03139,-0.39601 -10.03272,-0.96522 -15.03785,-1.61059c-1.43076,-0.18262 -2.86251,-0.35518 -4.29451,-0.52773c-7.29796,-0.91611 -14.12068,-2.674 -21.10771,-4.93326c-2.00773,-0.62672 -3.59151,-0.7917 -5.68248,-0.62485c-0.46271,-0.06056 -0.92545,-0.12113 -1.40219,-0.18353c-0.43678,-1.99624 -0.63308,-3.83808 -0.62688,-5.87991c-0.00331,-0.85957 -0.00331,-0.85957 -0.0067,-1.73651c-0.0012,-0.31277 -0.00239,-0.6255 -0.00362,-0.94775c-0.01539,-1.98495 -0.06035,-3.96914 -0.10702,-5.95355c-0.00773,-0.40188 -0.01545,-0.80375 -0.02341,-1.21781c0.10438,-1.83604 0.10438,-1.83604 -0.52282,-3.46225c-0.06223,-1.23608 -0.105,-2.46817 -0.13902,-3.70503c0.07229,-6.51876 0.07229,-6.51876 -2.54918,-12.07804c-0.43116,-0.30173 -0.86231,-0.60346 -1.30654,-0.91433c-1.54738,-2.70633 -1.54738,-2.70633 -1.37984,-3.98637c-0.44252,-0.21492 -0.88504,-0.42983 -1.34097,-0.65124c-1.40122,-4.92831 -1.8193,-10.01859 0.49558,-14.6825c1.1513,-1.90893 2.38826,-3.72208 3.84647,-5.40961c0.92176,-1.26914 1.23273,-2.28886 1.60881,-3.80703c2.12435,-7.72658 5.52571,-14.55793 12.07838,-19.41028c0.19465,-0.28851 0.3893,-0.57701 0.58983,-0.87423c0.30849,0.04038 0.61697,0.08075 0.9348,0.12236c0.04041,-0.3087 0.08081,-0.61738 0.12244,-0.93543c0.30848,0.04038 0.61697,0.08075 0.93479,0.12235c-0.69009,-3.13458 -1.63452,-5.98009 -2.98655,-8.89257c-0.88933,-2.06152 -0.75119,-3.63886 -0.31826,-5.81164c1.31145,-2.77488 2.68715,-4.01429 5.53691,-5.07314c3.01724,-0.47861 5.31261,-0.2915 8.14396,0.88757c1.24307,0.48026 1.24307,0.48026 2.47781,0.59192c1.59607,-0.78 2.60781,-1.98527 3.76152,-3.31343c7.60757,-7.86063 7.60757,-7.86063 11.16558,-8.35029c3.71403,0.11902 6.44518,0.68828 9.5948,2.74249z" fill="#110613"/><path d="M266.65214,150.65152c0.78231,0.51038 1.56468,1.02064 2.34963,1.52694c4.10566,2.67364 7.15278,5.53817 9.72472,9.711c0.62523,1.0041 0.62523,1.0041 1.88048,2.00593c5.32432,11.74533 2.37404,25.5686 -1.56448,37.37723c-0.19465,0.28851 -0.38929,0.57701 -0.58983,0.87424c-1.14503,3.83267 -1.64605,7.84999 -2.27333,11.79246c-0.10985,0.68277 -0.21986,1.36552 -0.33001,2.04824c-0.28701,1.78146 -0.57206,3.56319 -0.85668,5.34503c-0.29178,1.82439 -0.58545,3.64848 -0.87894,5.47259c-0.57375,3.56771 -1.14545,7.13575 -1.71581,10.70402c-0.99956,0.17761 -1.99951,0.35308 -2.9996,0.52769c-0.5568,0.09797 -1.11362,0.19592 -1.68728,0.29684c-2.2151,0.34023 -4.38227,0.4313 -6.61973,0.43096c-0.42427,0.00291 -0.84853,0.00583 -1.28565,0.00883c-3.48632,-0.00558 -6.83189,-0.34969 -10.27128,-0.92687c0.29689,-5.15119 0.74061,-10.26891 1.37254,-15.38988c0.09291,-0.77043 0.1808,-1.54142 0.26374,-2.31297c0.55396,-5.13723 1.17972,-10.41535 5.15764,-14.16427c0.82051,-0.57053 0.82051,-0.57053 2.49364,-1.40704c0.29357,-0.15409 0.58712,-0.30819 0.88958,-0.46694c1.17884,-0.61448 2.37926,-1.18271 3.57654,-1.76007c2.26976,-1.12675 3.79701,-2.5796 5.50472,-4.4158c0.26456,-0.24685 0.52914,-0.49369 0.80173,-0.74802c0.30848,0.04038 0.61696,0.08075 0.93479,0.12235c0.1142,-0.34808 0.2284,-0.69618 0.34605,-1.05482c0.42743,-1.22255 0.42743,-1.22255 1.07848,-2.56451c0.20119,-0.92299 0.36901,-1.85355 0.51337,-2.78713c0.08187,-0.48969 0.16373,-0.97937 0.24808,-1.48389c0.10598,-1.36971 0.10598,-1.36971 -0.77985,-2.31344c-1.36801,-0.99111 -2.0284,-1.13953 -3.73728,-1.04295c-2.81348,1.2301 -5.07103,3.03587 -7.30852,5.10141c-1.40763,1.21008 -2.89105,2.2845 -4.40584,3.35546c-0.27712,0.19844 -0.55424,0.39689 -0.83975,0.60135c-2.01012,1.40424 -2.01012,1.40424 -3.05946,1.26689c-0.0404,0.30869 -0.08081,0.61737 -0.12244,0.93542c-1.26644,0.36989 -2.53302,0.73922 -3.79971,1.10822c-0.35651,0.10419 -0.71303,0.20838 -1.08035,0.31573c-2.9487,0.85823 -5.83159,1.60279 -8.88043,2.00789c-0.44259,0.06656 -0.88518,0.13312 -1.34118,0.20169c-3.76774,0.51789 -7.00848,0.45807 -10.67203,-0.58479c-6.25403,-1.71272 -12.73289,-1.43641 -18.57352,1.61256c-1.41328,2.37295 -1.10464,5.77671 -0.63454,8.47994c1.25156,2.16841 3.4166,2.87567 5.70883,3.60156c4.72433,0.93247 9.33428,1.18867 14.14432,0.89989c0.68129,-0.02212 0.68129,-0.02212 1.37635,-0.0447c2.33453,-0.04472 2.33453,-0.04472 4.46351,-0.88753c1.00978,-0.54984 1.00978,-0.54984 2.87936,-0.30513c-0.12442,4.62384 -2.18535,8.16718 -4.48908,12.07853c-1.57728,2.68444 -2.61857,5.40472 -3.59957,8.36129c-0.45858,1.27608 -0.45858,1.27608 -0.98719,1.68262c-4.28993,-0.45718 -8.37593,-1.8853 -12.43846,-3.26336c-0.49822,-0.16863 -0.99643,-0.33725 -1.50974,-0.51097c-2.16109,-0.74833 -4.15272,-1.49163 -6.12746,-2.65915c0.0008,-0.35109 0.00159,-0.70217 0.00242,-1.0639c0.94505,-11.90105 0.94505,-11.90105 -1.61545,-22.93331c0.00399,-0.87906 0.03375,-1.75808 0.07762,-2.63604c0.02278,-0.4784 0.04557,-0.95682 0.06904,-1.44972c0.01958,-0.36967 0.03916,-0.73934 0.05935,-1.12021c7.7885,-1.88327 7.7885,-1.88327 11.70725,-2.27342c-0.13403,-0.17453 -0.26808,-0.34907 -0.40618,-0.52888c-1.34968,0.09553 -2.68463,0.22001 -4.02922,0.36459c-8.60765,0.84489 -8.60765,0.84489 -11.63972,-0.5126c0.06061,-0.46303 0.12121,-0.92607 0.18366,-1.40313c0.47706,0.04466 0.95412,0.08932 1.44563,0.13533c5.69209,0.48862 10.89715,0.30136 16.33775,-1.61344c0.31949,-0.10934 0.639,-0.21869 0.96818,-0.33134c1.12295,-0.38667 2.2418,-0.78364 3.36015,-1.18341c0.36124,-0.12542 0.72249,-0.25083 1.09468,-0.38005c2.46255,-0.90327 4.20203,-2.07679 6.24536,-3.71374c0.30849,0.04038 0.61697,0.08075 0.93479,0.12235c-0.89246,2.88254 -3.57442,4.64501 -6.13439,6.00584c-0.45825,0.20495 -0.91651,0.40987 -1.38864,0.62102c-0.87102,0.59951 -0.87102,0.59951 -1.58585,1.2196c-0.52861,0.40653 -1.05722,0.81307 -1.58584,1.21959c0.82699,-0.36272 0.82699,-0.36272 1.67068,-0.73277c1.32373,-0.58059 1.76446,-0.7205 3.24815,-0.5263c0.0404,-0.30869 0.08081,-0.61737 0.12244,-0.93542c0.37214,-0.1604 0.74429,-0.32081 1.12771,-0.48606c1.5053,-0.66049 2.43549,-1.43531 3.63711,-2.54737c0.66464,-0.61394 1.34322,-1.21387 2.04594,-1.78376c0.30849,0.04038 0.61697,0.08075 0.9348,0.12236c0.18258,0.32807 0.36515,0.65613 0.55327,0.99413c0.5442,1.18738 0.5442,1.18738 1.94501,1.71148c-0.0404,0.30869 -0.08081,0.61737 -0.12244,0.93541c0.35014,0.13413 0.35014,0.13413 0.70734,0.27098c1.10101,0.44145 1.10101,0.44145 2.46355,1.15497c3.28282,1.39074 6.54645,1.16144 9.84143,-0.04982c2.28377,-0.97922 4.27731,-2.16178 6.2957,-3.60612c-2.00516,0.65772 -3.89363,1.53329 -5.81199,2.40766c-2.16052,0.84478 -3.91249,0.68788 -6.20548,0.41982c-0.52696,-0.05671 -1.05392,-0.11342 -1.59685,-0.17185c-1.54844,-0.37219 -2.15598,-0.73328 -3.11185,-1.99057c0.04041,-0.3087 0.08081,-0.61738 0.12244,-0.93542c0.70639,0.07406 0.70639,0.07406 1.42705,0.14962c4.33259,0.40323 8.15214,0.24034 12.43352,-0.71402c0.48293,-0.09379 0.96584,-0.18756 1.46341,-0.28418c0.0606,-0.46302 0.12121,-0.92607 0.18365,-1.40312c-0.47418,0.14399 -0.94835,0.28797 -1.43689,0.43631c-6.11886,1.71953 -11.66211,1.75411 -17.50382,-1.01257c0.0404,-0.30869 0.08081,-0.61738 0.12244,-0.93542c0.3433,0.02715 0.6866,0.0543 1.04032,0.08227c6.79044,0.4572 13.63731,0.51847 20.16877,-1.55612c0.37973,-0.12036 0.75946,-0.2407 1.15071,-0.36471c1.44621,-0.465 2.88852,-0.94145 4.32924,-1.42323c0.87081,-0.26673 0.87081,-0.26673 2.33422,-0.55092c0.0404,-0.30869 0.08081,-0.61737 0.12244,-0.93541c0.72065,-0.37013 1.44345,-0.73671 2.1768,-1.08092c2.53752,-1.22988 4.6162,-2.61714 6.21981,-4.95587c0.48142,-1.52077 0.81046,-3.04465 1.07958,-4.61591c-0.76758,-0.40991 -1.53652,-0.81724 -2.30601,-1.22355c-0.42804,-0.22711 -0.85611,-0.45424 -1.29713,-0.68825c-7.1121,-3.47535 -16.98838,-3.40336 -24.52341,-1.35343c-0.66174,0.23769 -1.31872,0.48906 -1.97045,0.753c-0.40643,0.14611 -0.81287,0.29221 -1.23161,0.44274c-4.86553,1.88955 -8.12595,5.07214 -10.98775,9.37519c-0.61697,-0.08075 -1.23393,-0.16151 -1.86958,-0.24471c0.65878,-6.82062 2.70156,-13.17675 8.12927,-17.71395c1.85685,-1.21676 3.91052,-1.98521 5.96549,-2.8001c0.50313,-0.24813 1.00625,-0.49624 1.52463,-0.75189c4.48794,-1.33254 8.66531,-0.94646 13.23806,-0.34856c0.53661,0.06954 1.07323,0.1391 1.62612,0.21075c3.1758,0.4573 6.10467,1.15573 9.09544,2.32242c0.0606,-0.46302 0.12121,-0.92607 0.18365,-1.40312c-3.15327,-1.43713 -6.24583,-1.9522 -9.66992,-2.39553c-0.84013,-0.10882 -0.84013,-0.10882 -1.69723,-0.21983c-4.40223,-0.51459 -8.25142,-0.46437 -12.59247,0.43074c-0.68067,0.10867 -0.68067,0.10867 -1.3751,0.21954c-4.95856,0.9629 -9.31188,4.33511 -12.12399,8.47944c-0.76816,1.46527 -1.42608,2.94773 -2.01437,4.49355c-1.62943,0.30147 -2.222,0.28271 -3.61657,-0.67407c-1.76805,-1.17795 -3.19542,-1.34976 -5.27227,-1.55976c-0.35039,-0.04066 -0.70076,-0.0813 -1.06177,-0.12319c-2.43137,-0.26892 -4.8343,-0.40947 -7.28182,-0.37425c-0.0404,0.30869 -0.08081,0.61737 -0.12244,0.93541c-0.56257,0.10298 -1.12513,0.20595 -1.70476,0.31205c-2.06649,0.46857 -3.68254,1.3427 -5.47287,2.45576c-0.85167,0.46273 -0.85167,0.46273 -1.78646,0.34038c-0.02667,-1.6915 0.25245,-2.27774 1.38768,-3.56467c3.2561,-2.7588 7.23999,-5.24698 11.6027,-4.96489c0.88251,0.09465 1.76382,0.20115 2.64365,0.31815c0.45599,0.05877 0.91198,0.11752 1.38178,0.17808c3.75846,0.57619 6.31537,1.70333 9.14186,4.32128c0.08081,-0.61737 0.16162,-1.23476 0.24487,-1.87084c-0.3872,-0.18805 -0.77441,-0.3761 -1.17335,-0.56983c-0.90968,-0.44178 -1.81338,-0.89668 -2.70389,-1.37597c-3.90998,-1.73364 -9.51059,-2.9353 -13.70015,-1.78207c-1.10738,0.44065 -2.16427,0.91954 -3.22126,1.47011c-0.824,0.37901 -0.824,0.37901 -1.7588,0.25666c0.13285,-4.19552 4.36103,-7.99068 7.27689,-10.73801c0.26064,-0.23877 0.52128,-0.47756 0.78982,-0.72355c0.25269,-0.23186 0.50537,-0.46368 0.76572,-0.70256c1.19261,-1.05414 1.88057,-1.61561 3.47048,-1.92436c0.04041,-0.3087 0.08081,-0.61738 0.12244,-0.93543c2.53811,-1.91282 5.21635,-3.04028 8.30343,-3.70754c1.32402,-0.2727 1.32402,-0.2727 2.87826,-0.77911c1.93355,-0.55464 3.81034,-0.65876 5.81236,-0.72214c2.37417,-0.02654 2.37417,-0.02654 4.67329,-0.51814c9.00268,-0.40889 17.48848,1.72445 24.74963,7.04523z" fill="#8d57aa"/><path d="M248.47126,121.75406c1.66632,0.6239 2.46029,1.31929 3.54197,2.71958c-0.0404,0.30868 -0.08081,0.61737 -0.12244,0.93541c0.43119,0.09784 0.43119,0.09784 0.87109,0.19764c0.93728,0.51478 0.93728,0.51478 1.27343,1.64959c0.06382,0.46278 0.12766,0.92554 0.19344,1.40233c0.45587,2.3187 0.98419,3.88813 2.69651,5.54685c2.19697,1.35658 4.56911,0.75531 6.95003,0.2054c1.62049,-0.51619 1.62049,-0.51619 3.00716,-1.18222c2.63869,-0.66626 5.74948,-0.54165 8.15374,0.8554c0.77547,0.67497 1.42305,1.41887 2.04929,2.23429c-0.09228,3.15927 -0.79998,5.58519 -2.50412,8.23523c-0.49302,0.17095 -0.49302,0.17095 -0.99601,0.34536c-0.47636,0.80589 -0.91645,1.63359 -1.33375,2.47164c-0.22704,0.45166 -0.45407,0.90335 -0.68798,1.3687c-0.25803,0.5246 -0.25803,0.5246 -0.52127,1.05976c-1.90001,-0.40718 -3.2855,-1.15287 -4.88015,-2.21459c-6.95333,-4.36366 -14.42242,-5.66089 -22.55142,-6.13314c-0.49302,0.17093 -0.49302,0.17093 -0.996,0.34535c-0.75276,0.00772 -1.50561,0.00655 -2.25839,0.00171c-3.04864,0.08899 -5.99428,0.5548 -8.99603,1.08219c-0.46238,0.07845 -0.92476,0.15691 -1.40115,0.23773c-2.54044,0.46409 -4.56736,1.0879 -6.83609,2.31146c-0.30849,-0.04038 -0.61697,-0.08075 -0.9348,-0.12236c-0.04041,0.3087 -0.08081,0.61738 -0.12244,0.93542c-1.52463,0.75188 -1.52463,0.75188 -2.92681,0.56835c-0.10706,-0.45554 -0.21413,-0.9111 -0.32444,-1.38043c-0.46934,-1.73647 -1.21964,-3.22111 -2.0437,-4.81659c-1.07464,-2.24193 -1.44073,-3.75393 -1.01967,-6.19891c0.49033,-1.1284 0.86455,-1.47341 1.95258,-2.06357c2.90568,-0.72368 5.49265,-0.33071 8.42254,0.12126c0.87179,0.13048 1.74388,0.25898 2.6163,0.38518c0.38194,0.05854 0.76388,0.11707 1.1574,0.17739c1.09416,0.14894 1.09416,0.14894 2.47669,-0.19046c0.6038,-0.8024 0.6038,-0.8024 1.17966,-1.74847c0.81067,-0.85044 1.64974,-1.66437 2.49382,-2.48146c0.8415,-0.86881 0.8415,-0.86881 1.37944,-1.96948c2.55846,-4.407 6.22973,-5.70875 11.04156,-4.89154z" fill="#fd48d4"/><path d="M269.47509,187.65158c1.28254,0.64359 1.28254,0.64359 1.81669,1.78388c0.2236,3.12287 -1.79412,5.60856 -3.6281,7.96918c-1.76926,1.57346 -3.75659,2.73842 -5.75353,4.00414c-0.65606,0.51755 -0.65606,0.51755 -1.32537,1.04556c-3.48011,2.60695 -3.48011,2.60695 -5.30175,2.36852c-0.04041,0.3087 -0.08081,0.61737 -0.12244,0.93542c-2.10385,0.76433 -4.17057,1.44506 -6.34817,1.96395c-1.85895,0.45639 -3.59414,1.0534 -5.37129,1.76476c-1.86659,0.74623 -3.658,1.3423 -5.62381,1.75028c-1.16046,0.24411 -2.30295,0.53915 -3.45051,0.83802c-0.41592,0.10624 -0.83184,0.21246 -1.26036,0.32189c-0.73933,0.18969 -1.47791,0.38231 -2.2152,0.57975c-4.29733,1.09679 -8.40327,1.03097 -12.7721,0.4207c-0.64192,-0.07851 -0.64192,-0.07851 -1.29681,-0.1586c-3.42212,-0.45805 -5.48475,-1.28722 -7.75613,-3.99961c-1.11649,-2.06193 -0.51164,-4.11135 -0.03601,-6.30802c0.77712,-1.22704 1.6391,-1.43083 3.00752,-1.86602c2.77045,-0.44232 5.09552,-0.39762 7.85242,0.05034c0.76162,0.11174 1.52328,0.22318 2.28497,0.33438c1.17612,0.17733 2.35161,0.35766 3.52641,0.54357c7.46038,1.16702 13.9165,0.95086 21.1295,-1.60715c0.76051,-0.24816 0.76051,-0.24816 1.5364,-0.50133c2.8472,-0.94292 5.39922,-2.02792 8.01752,-3.48109c0.30848,0.04038 0.61697,0.08075 0.93479,0.12235c0.38929,-0.57701 0.77858,-1.154 1.17967,-1.74849c0.30848,0.04038 0.61697,0.08075 0.93479,0.12235c0.32226,-0.66425 0.32226,-0.66425 0.65105,-1.34194c0.30849,0.04038 0.61697,0.08075 0.93479,0.12235c0.15699,-0.25357 0.31396,-0.50714 0.47571,-0.76839c0.75466,-1.05066 1.55693,-1.82366 2.53013,-2.67369c0.31465,-0.27831 0.6293,-0.55662 0.95349,-0.84337c2.53029,-2.00097 2.53029,-2.00097 4.49573,-1.74371z" fill="#904437"/><path d="M236.05275,213.72311c-0.12442,4.62384 -2.18535,8.16718 -4.48908,12.07853c-1.57728,2.68444 -2.61857,5.40472 -3.59957,8.36129c-0.45858,1.27608 -0.45858,1.27608 -0.98719,1.68262c-4.28993,-0.45718 -8.37593,-1.88529 -12.43846,-3.26336c-0.49822,-0.16863 -0.99643,-0.33725 -1.50974,-0.51097c-2.16109,-0.74833 -4.15272,-1.49163 -6.12746,-2.65915c-0.02878,-2.13445 -0.05599,-4.2689 -0.08296,-6.40336c-0.00812,-0.60049 -0.01623,-1.201 -0.02459,-1.8197c-0.03879,-3.13227 -0.04958,-6.25662 0.03565,-9.38803c3.38975,0.80547 3.38975,0.80547 4.90976,1.60522c1.7128,0.77293 3.35598,1.04706 5.2032,1.26455c0.52291,0.06466 0.52291,0.06466 1.05639,0.13061c3.13018,0.35595 6.19079,0.34789 9.33485,0.15912c0.45419,-0.01474 0.90838,-0.0295 1.37635,-0.0447c2.33453,-0.04472 2.33453,-0.04472 4.46351,-0.88753c1.00978,-0.54984 1.00978,-0.54984 2.87936,-0.30513z" fill="#8c57a9"/><path d="M248.47126,121.75406c1.66632,0.6239 2.46029,1.31929 3.54197,2.71958c-0.0404,0.30868 -0.08081,0.61737 -0.12244,0.93541c0.28633,0.06447 0.57266,0.12892 0.86767,0.19533c0.9407,0.51709 0.9407,0.51709 1.30756,1.67265c0.10758,0.70212 0.10758,0.70212 0.21732,1.41845c0.44743,2.38888 0.97447,3.71225 2.64289,5.45994c-0.32869,0.11396 -0.65737,0.22792 -0.996,0.34535c-1.94905,-1.28412 -3.66754,-3.06814 -5.05778,-4.9435c0.0404,-0.30869 0.08081,-0.61738 0.12244,-0.93541c-0.47959,-0.26884 -0.47959,-0.26884 -0.96886,-0.54308c-0.77509,-0.43446 -1.54012,-0.88811 -2.28688,-1.36969c-1.54153,-0.74865 -2.729,-0.93714 -4.44512,-0.99807c-1.4609,0.73739 -1.4609,0.73739 -2.74079,1.8712c-0.66192,0.53427 -0.66192,0.53427 -1.33721,1.07932c-1.96252,1.81087 -3.08417,3.03285 -3.32928,5.74303c-0.0414,0.41463 -0.08281,0.82931 -0.12546,1.2565c-0.03656,0.46893 -0.03656,0.46893 -0.07387,0.94736c2.00564,0.34628 3.74522,0.64018 5.76142,0.24867c2.87133,-0.3204 5.53186,0.45838 8.32167,1.11895c-0.0404,0.30868 -0.08081,0.61737 -0.12244,0.93541c0.59785,0.15184 0.59785,0.15184 1.20778,0.30674c1.6258,0.55913 2.75277,1.31616 4.15609,2.29823c0.88666,0.44892 1.7788,0.88774 2.68193,1.30247c-1.60396,0.31147 -2.71762,0.16705 -4.33186,-0.06153c-0.84023,-0.1155 -0.84023,-0.1155 -1.69743,-0.23333c-0.58515,-0.08271 -1.1703,-0.16544 -1.77316,-0.25067c-1.15779,-0.16363 -2.31587,-0.32524 -3.47425,-0.4845c-0.51416,-0.0728 -1.02834,-0.14563 -1.55808,-0.22065c-1.22575,-0.20179 -1.22575,-0.20179 -2.24431,0.22842c-0.75276,0.00772 -1.50561,0.00655 -2.25839,0.00171c-3.04864,0.08899 -5.99428,0.5548 -8.99603,1.08219c-0.46238,0.07845 -0.92476,0.15691 -1.40115,0.23773c-2.54044,0.46409 -4.56736,1.0879 -6.83609,2.31146c-0.30849,-0.04038 -0.61697,-0.08075 -0.9348,-0.12236c-0.04041,0.3087 -0.08081,0.61738 -0.12244,0.93542c-1.52463,0.75188 -1.52463,0.75188 -2.92681,0.56835c-0.10706,-0.45554 -0.21413,-0.9111 -0.32444,-1.38043c-0.46934,-1.73647 -1.21964,-3.22111 -2.0437,-4.81659c-1.07464,-2.24193 -1.44073,-3.75393 -1.01967,-6.19891c0.49033,-1.1284 0.86455,-1.47341 1.95258,-2.06357c2.90568,-0.72368 5.49265,-0.33071 8.42254,0.12126c0.87179,0.13048 1.74388,0.25898 2.6163,0.38518c0.38194,0.05854 0.76388,0.11707 1.1574,0.17739c1.09416,0.14894 1.09416,0.14894 2.47669,-0.19046c0.6038,-0.8024 0.6038,-0.8024 1.17966,-1.74847c0.81067,-0.85044 1.64974,-1.66437 2.49382,-2.48146c0.8415,-0.86881 0.8415,-0.86881 1.37944,-1.96948c2.55846,-4.407 6.22973,-5.70875 11.04156,-4.89154z" fill="#e73ba8"/><path d="M249.59072,208.35928c0.44252,0.2149 0.88503,0.42982 1.34097,0.65123c-0.22541,0.55457 -0.45082,1.10913 -0.68306,1.6805c-0.97266,2.68395 -1.36124,5.39729 -1.75978,8.21476c-0.08028,0.54307 -0.16057,1.08613 -0.2433,1.64567c-0.25352,1.72117 -0.50107,3.44315 -0.74846,5.16522c-0.17166,1.17273 -0.34372,2.34539 -0.51618,3.518c-0.42016,2.86278 -0.83545,5.72622 -1.24694,8.59025c-3.8442,-0.19236 -7.64642,-0.45411 -11.45782,-0.99425c-0.39376,-0.0537 -0.78751,-0.10738 -1.19321,-0.16268c-0.94506,-0.12916 -1.88972,-0.26133 -2.83425,-0.3942c1.71403,-6.78559 1.71403,-6.78559 3.62256,-9.51601c0.29197,-0.43275 0.58394,-0.8655 0.88475,-1.31135c0.59705,-0.88494 1.19621,-1.76848 1.7973,-2.65069c1.17801,-2.00076 1.4894,-4.08875 1.84786,-6.35691c0.06952,-0.40697 0.13902,-0.81396 0.21064,-1.23327c0.16902,-0.99445 0.33041,-1.99022 0.49021,-2.9862c0.50543,-0.13929 1.01085,-0.27857 1.53159,-0.42206c1.70606,-0.48179 3.38497,-1.02238 5.06175,-1.59901c0.51122,-0.17409 1.02242,-0.34819 1.54912,-0.52755c1.3137,-0.4381 1.3137,-0.4381 2.34625,-1.31146z" fill="#fe48d6"/><path d="M274.64742,173.10549c-0.10101,0.77172 -0.20202,1.54343 -0.30609,2.33854c-0.61697,-0.08075 -1.23393,-0.16151 -1.86958,-0.24471c0.0606,-0.46302 0.12121,-0.92607 0.18365,-1.40312c-3.93491,-1.39741 -7.87092,-2.24205 -11.96864,-2.99373c-0.03673,0.50541 -0.07348,1.0108 -0.11132,1.53153c-0.34841,2.66185 -1.22702,5.28518 -2.51523,7.63911c-0.48292,0.09377 -0.96584,0.18757 -1.46341,0.28417c-0.39825,0.5794 -0.7906,1.16288 -1.17967,1.74848c-2.03088,1.73983 -4.04331,3.01874 -6.7385,3.28614c-2.77221,-0.21605 -4.59209,-0.69365 -6.48949,-2.78761c-2.10249,-2.79855 -2.10249,-2.79855 -2.02647,-4.52258c0.05984,-0.37298 0.11971,-0.74596 0.18136,-1.13025c0.05791,-0.37691 0.11584,-0.75384 0.1755,-1.14217c0.04848,-0.28617 0.09698,-0.57234 0.14693,-0.86718c-2.60525,1.35871 -4.72668,2.74275 -6.81077,4.8172c-0.34888,0.26831 -0.69777,0.53662 -1.05722,0.81306c-0.28828,-0.19471 -0.57655,-0.38944 -0.87357,-0.59006c3.77298,-5.76004 8.68711,-9.17789 15.40598,-10.79641c1.2193,-0.21803 2.43182,-0.36864 3.66301,-0.50358c0.48519,-0.06895 0.97038,-0.13791 1.47027,-0.20895c7.61576,-0.8987 15.92409,0.00669 22.18326,4.73212z" fill="#0f0812"/><path d="M266.65214,150.65152c0.68897,0.47099 1.38022,0.93866 2.07474,1.40141c0.46846,0.31641 0.93691,0.63285 1.41956,0.95885c-1.70642,0.36039 -2.54901,0.03631 -4.05226,-0.80728c-0.40521,-0.22168 -0.81042,-0.44336 -1.2279,-0.67175c-0.42758,-0.23748 -0.85515,-0.47497 -1.29569,-0.71963c-3.65492,-1.95964 -7.00366,-3.60767 -11.10163,-4.39662c-0.48082,-0.09544 -0.96166,-0.19086 -1.45707,-0.28921c-7.00392,-1.15047 -14.05622,-0.45517 -20.1111,3.4424c-4.55691,3.31608 -6.55824,7.10617 -8.05074,12.47458c0.30849,0.04038 0.61697,0.08075 0.93479,0.12235c0.23505,-0.59718 0.4701,-1.19437 0.71228,-1.80965c0.32692,0.00722 0.65384,0.01444 0.99065,0.02188c4.1692,-0.03735 6.88474,-1.27279 10.33999,-3.50415c0.539,-0.29739 0.539,-0.29739 1.08887,-0.60079c0.44252,0.2149 0.88504,0.42982 1.34097,0.65123c-0.06061,0.46303 -0.12121,0.92607 -0.18365,1.40312c-2.27472,1.60516 -2.27472,1.60516 -3.51665,1.4426c-0.0404,0.30869 -0.08081,0.61737 -0.12244,0.93542c-0.83435,0.37894 -1.67546,0.74312 -2.52063,1.09724c-0.24491,0.22305 -0.48982,0.44611 -0.74215,0.67591c-1.3307,0.85752 -2.63688,0.63865 -4.17669,0.58315c-0.0404,0.30869 -0.08081,0.61737 -0.12244,0.93542c-0.27281,-0.0551 -0.54562,-0.11021 -0.82669,-0.16697c-1.25879,-0.2506 -2.51919,-0.49198 -3.77979,-0.73329c-0.42895,-0.0868 -0.8579,-0.17362 -1.29986,-0.26304c-3.58106,-0.67487 -7.08631,-1.01419 -10.41152,0.75196c-1.7335,0.90295 -1.7335,0.90295 -2.74529,0.77052c0.13285,-4.19552 4.36103,-7.99068 7.27689,-10.73801c0.26064,-0.23877 0.52128,-0.47756 0.78982,-0.72355c0.25269,-0.23186 0.50537,-0.46368 0.76572,-0.70256c1.19261,-1.05414 1.88057,-1.61561 3.47048,-1.92436c0.04041,-0.3087 0.08081,-0.61738 0.12244,-0.93543c2.53811,-1.91282 5.21635,-3.04028 8.30343,-3.70754c1.32402,-0.2727 1.32402,-0.2727 2.87826,-0.77911c1.93355,-0.55464 3.81034,-0.65876 5.81236,-0.72214c2.37417,-0.02654 2.37417,-0.02654 4.67329,-0.51814c8.9537,-0.40666 17.55368,1.68467 24.74963,7.04523z" fill="#79379c"/><path d="M260.68676,170.80246c4.35459,0.40924 8.01734,1.00455 11.96864,2.99373c-1.00815,3.51323 -3.87347,5.81054 -6.88202,7.73096c-8.39467,4.3767 -17.81852,6.69502 -27.24736,5.58195c-0.49941,-0.05542 -0.49941,-0.05542 -1.00892,-0.11196c-2.61849,-0.3673 -4.02323,-1.23994 -5.61454,-3.31199c-0.08583,-1.47939 0.09574,-2.43692 0.98182,-3.64195c1.98476,-2.12936 4.28208,-3.93977 6.84731,-5.32344c0.30849,0.04038 0.61697,0.08075 0.93479,0.12235c-0.05039,0.39906 -0.05039,0.39906 -0.1018,0.80618c-0.21491,2.6759 0.17831,4.17388 1.74646,6.34979c1.85406,2.1632 3.59045,2.42931 6.32381,2.7622c2.98725,-0.16421 5.06923,-1.84184 7.37203,-3.62877c0.29173,-0.18748 0.58347,-0.37498 0.88404,-0.56813c2.35471,-2.18577 3.093,-6.70372 3.79576,-9.76092z" fill="#f5d2ed"/><path d="M230.76176,188.76878c0.30849,0.04038 0.61697,0.08075 0.93479,0.12235c-0.89246,2.88254 -3.57442,4.64501 -6.13439,6.00584c-0.45825,0.20495 -0.91651,0.40987 -1.38864,0.62102c-0.87101,0.59951 -0.87101,0.59951 -1.58585,1.2196c-0.52861,0.40653 -1.05722,0.81307 -1.58584,1.21959c0.55133,-0.24182 1.10265,-0.48363 1.67068,-0.73277c1.32373,-0.58059 1.76446,-0.7205 3.24815,-0.5263c0.0404,-0.30869 0.08081,-0.61737 0.12244,-0.93542c0.37214,-0.1604 0.74429,-0.32081 1.12771,-0.48606c1.50531,-0.66049 2.43549,-1.43531 3.63711,-2.54737c0.66464,-0.61394 1.34322,-1.21389 2.04594,-1.78376c0.30849,0.04038 0.61697,0.08075 0.9348,0.12236c0.18258,0.32807 0.36515,0.65613 0.55327,0.99413c0.5442,1.18738 0.5442,1.18738 1.94501,1.71148c-0.0404,0.30869 -0.08081,0.61737 -0.12244,0.93541c0.23343,0.08942 0.46685,0.17885 0.70734,0.27098c1.10101,0.44145 1.10101,0.44145 2.46355,1.15497c2.77964,1.20639 5.89798,1.19065 8.75396,0.31328c0.40374,-0.16301 0.80747,-0.32602 1.22345,-0.49398c0.43242,0.29208 0.43242,0.29208 0.87358,0.59006c-0.20925,0.86087 -0.20925,0.86087 -0.71227,1.80966c-1.05909,0.43002 -1.05909,0.43002 -2.35022,0.70329c-0.42157,0.09323 -0.84313,0.18645 -1.27749,0.28249c-0.42607,0.09019 -0.85214,0.18036 -1.29113,0.27329c-0.42808,0.11015 -0.85614,0.22031 -1.29719,0.33381c-1.50653,0.38333 -3.01815,0.59851 -4.55643,0.80289c-0.44259,0.06656 -0.88518,0.1331 -1.34118,0.20169c-3.76774,0.51789 -7.00848,0.45807 -10.67203,-0.58479c-6.25403,-1.71272 -12.73289,-1.43641 -18.57352,1.61256c-1.44113,2.41971 -1.01011,5.72574 -0.63454,8.47994c0.24787,0.50341 0.49576,1.00682 0.75113,1.52549c-0.61697,-0.08075 -1.23393,-0.16151 -1.86958,-0.24471c-0.04347,-0.41227 -0.08696,-0.82453 -0.13175,-1.24929c-0.05829,-0.53317 -0.11659,-1.06634 -0.17665,-1.61568c-0.05725,-0.5318 -0.11449,-1.06361 -0.17348,-1.61153c-0.06595,-1.25354 -0.06595,-1.25354 -0.59187,-1.84842c0.00399,-0.87904 0.03375,-1.75808 0.07762,-2.63604c0.03417,-0.71761 0.03417,-0.71761 0.06904,-1.44972c0.01958,-0.36967 0.03916,-0.73934 0.05935,-1.12021c7.7885,-1.88327 7.7885,-1.88327 11.70725,-2.27342c-0.13403,-0.17452 -0.26808,-0.34907 -0.40618,-0.52888c-1.34968,0.09553 -2.68463,0.22001 -4.02922,0.36459c-8.60765,0.84489 -8.60765,0.84489 -11.63972,-0.5126c0.06061,-0.46303 0.12121,-0.92607 0.18366,-1.40313c0.47706,0.04466 0.95412,0.08932 1.44563,0.13533c5.69209,0.48862 10.89715,0.30136 16.33775,-1.61344c0.31949,-0.10934 0.639,-0.21869 0.96818,-0.33134c1.12295,-0.38667 2.2418,-0.78364 3.36015,-1.18341c0.36124,-0.12542 0.72249,-0.25083 1.09468,-0.38005c2.46255,-0.90329 4.20203,-2.07679 6.24536,-3.71374z" fill="#8652a1"/><path d="M226.36085,171.54249c1.0193,0.8611 1.68174,1.61543 2.49829,2.70561c0.0031,1.33837 0.0031,1.33837 -0.30609,2.33854c-0.4719,-0.14026 -0.94381,-0.28051 -1.43,-0.42503c-6.40466,-1.65172 -11.18034,-1.59273 -17.31474,0.6642c-1.31441,0.46535 -1.31441,0.46535 -2.77782,0.74953c-0.0606,0.46302 -0.12121,0.92607 -0.18365,1.40312c0.42596,-0.17361 0.85193,-0.3472 1.29079,-0.52605c5.87399,-2.28247 11.75579,-2.69591 17.95602,-1.23623c1.26515,0.64875 1.26515,0.64875 2.21454,1.24131c-0.04041,0.3087 -0.08081,0.61737 -0.12244,0.93542c-0.51059,-0.06008 -1.02117,-0.12018 -1.54723,-0.18207c-6.76433,-0.70419 -13.37446,-0.38541 -19.75224,2.19042c-0.87414,0.32228 -0.87414,0.32228 -1.80894,0.19992c-0.0404,0.30869 -0.08081,0.61738 -0.12244,0.93542c-0.95574,0.11039 -0.95574,0.11039 -1.9308,0.223c-0.0404,0.30869 -0.08081,0.61737 -0.12244,0.93542c-0.77797,0.48842 -1.55682,0.97564 -2.34387,1.44929c-0.91618,0.62407 -1.43135,1.29272 -1.94626,2.27066c-0.46272,-0.06057 -0.92544,-0.12113 -1.40219,-0.18353c0.39467,-4.94355 1.04888,-7.97601 4.58766,-11.44122c1.1096,-0.91899 2.07857,-1.66958 3.38625,-2.26244c0.30849,0.04038 0.61696,0.08075 0.93479,0.12235c0.12211,-0.25875 0.24423,-0.51749 0.37004,-0.78408c1.88669,-2.24738 4.95693,-2.59498 7.72048,-2.91417c0.41773,-0.06858 0.83546,-0.13715 1.26585,-0.20782c4.19405,-0.66962 7.2758,-0.79708 10.88644,1.79843z" fill="#8953a6"/><path d="M269.47509,187.65158c1.28254,0.64359 1.28254,0.64359 1.81669,1.78388c0.2236,3.12287 -1.79412,5.60856 -3.6281,7.96918c-1.76926,1.57346 -3.75659,2.73842 -5.75353,4.00414c-0.65606,0.51755 -0.65606,0.51755 -1.32537,1.04556c-3.48011,2.60695 -3.48011,2.60695 -5.30175,2.36852c-0.04041,0.3087 -0.08081,0.61737 -0.12244,0.93542c-7.62973,2.7719 -7.62973,2.7719 -10.8907,2.61815c-2.20441,0.00075 -3.33554,0.53598 -5.32921,1.44321c-1.90766,0.64058 -3.2836,0.61599 -5.26379,0.26247c-0.21485,0.44284 -0.42969,0.88568 -0.65105,1.34195c-1.23393,-0.16151 -2.46785,-0.32302 -3.73917,-0.48942c1.25104,-1.4326 1.32898,-1.34493 3.04925,-1.50378c0.19465,-0.28851 0.38929,-0.57701 0.58983,-0.87424c0.97042,-0.24241 1.95119,-0.44354 2.93446,-0.62682c8.69917,-1.75806 17.66694,-4.82842 25.10067,-9.73932c0.97161,-0.58455 0.97161,-0.58455 2.43501,-0.86872c0.6381,-0.7884 0.6381,-0.7884 1.17966,-1.74849c0.39322,-0.58284 0.78645,-1.16565 1.17966,-1.74849c-0.59562,0.393 -0.59562,0.393 -1.20329,0.79395c-1.37856,0.77101 -1.37856,0.77101 -2.78075,0.58747c-0.32227,0.66425 -0.32227,0.66425 -0.65106,1.34194c-1.43408,0.90947 -3.03399,1.54479 -4.57387,2.25566c-0.65673,0.32209 -1.31303,0.64507 -1.96899,0.96874c-0.70801,0.34133 -1.41621,0.68223 -2.12461,1.0227c-0.50362,0.25149 -0.50362,0.25149 -1.01742,0.50805c-2.38759,1.12566 -4.14442,1.36472 -6.77989,1.17702c0.0606,-0.46302 0.12121,-0.92607 0.18365,-1.40312c0.80053,-0.26591 0.80053,-0.26591 1.61724,-0.5372c0.71445,-0.24144 1.42885,-0.48306 2.14319,-0.72481c0.35006,-0.11577 0.70012,-0.23152 1.06079,-0.35081c1.80184,-0.61358 3.47133,-1.28607 5.14035,-2.20659c1.58437,-0.8537 1.58437,-0.8537 2.51917,-0.73134c0.38929,-0.57701 0.77858,-1.154 1.17967,-1.74849c0.30848,0.04038 0.61697,0.08075 0.93479,0.12235c0.32226,-0.66425 0.32226,-0.66425 0.65105,-1.34194c0.30849,0.04038 0.61697,0.08075 0.93479,0.12235c0.15699,-0.25357 0.31396,-0.50714 0.47571,-0.76839c0.75466,-1.05066 1.55693,-1.82366 2.53013,-2.67369c0.31465,-0.27831 0.6293,-0.55662 0.95349,-0.84337c2.53029,-2.00097 2.53029,-2.00097 4.49573,-1.74371z" fill="#bd6850"/><path d="M269.75823,185.48842c1.77835,0.63779 2.43082,0.98506 3.39761,2.64492c0.08326,3.4133 -0.70797,6.36939 -2.62656,9.17065c-1.3038,1.10784 -1.3038,1.10784 -2.64308,2.03266c-0.30107,0.31505 -0.60215,0.63008 -0.91234,0.95467c-1.65426,1.49168 -3.46286,2.47699 -5.4105,3.53987c-0.55369,0.30788 -0.55369,0.30788 -1.11857,0.62199c-1.47842,0.81932 -2.95556,1.61509 -4.47184,2.36286c-0.68279,0.88588 -0.68279,0.88588 -1.17966,1.74848c-0.31867,-1.64451 -0.23109,-2.25235 0.48975,-3.74166c1.02462,-0.70583 1.02462,-0.70583 2.24381,-1.2524c0.40056,-0.1855 0.80112,-0.37101 1.21381,-0.56213c1.11625,-0.44111 1.11625,-0.44111 2.57966,-0.7253c0.21485,-0.44283 0.42969,-0.88569 0.65105,-1.34194c0.8203,-0.60622 0.8203,-0.60622 1.79033,-1.19282c1.26549,-0.76882 1.96831,-1.32211 2.96719,-2.46596c0.30849,0.04038 0.61697,0.08075 0.93479,0.12235c0.16826,-0.31158 0.3365,-0.62315 0.50985,-0.94418c0.73103,-1.27201 0.73103,-1.27201 1.68811,-2.45498c1.08849,-1.92902 1.00923,-3.53966 0.89599,-5.71031c-1.2781,-0.36658 -1.2781,-0.36658 -2.80438,-0.36706c-1.33497,0.81531 -1.33497,0.81531 -2.64307,2.03266c-0.62388,0.47642 -1.25047,0.94926 -1.87936,1.41903c-1.04313,0.79865 -1.97433,1.5779 -2.91261,2.50283c-4.60394,4.32224 -10.80113,6.28346 -16.73643,8.00765c-0.56429,0.19106 -1.12859,0.38211 -1.70998,0.57896c-6.02164,1.36591 -11.49548,0.69685 -17.49923,-0.23892c-6.58172,-1.14667 -6.58172,-1.14667 -13.12467,-0.29072c-0.95576,0.11037 -0.95576,0.11037 -1.9308,0.22299c-0.33606,1.3689 -0.67213,2.73781 -1.01836,4.14821c-0.72439,0.14066 -0.72439,0.14066 -1.46341,0.28418c-0.29658,-3.41684 -0.29658,-3.41684 0.97561,-4.95658c5.03791,-3.16594 11.45562,-3.21016 17.07501,-2.1952c1.07162,0.29347 2.14194,0.59175 3.21055,0.89595c3.60281,0.75803 6.84648,0.48436 10.46636,-0.05722c0.57807,-0.07152 1.15613,-0.14302 1.7517,-0.21671c3.4428,-0.60884 6.78851,-1.58896 10.12067,-2.63718c0.89211,-0.2326 0.89211,-0.2326 1.8269,-0.11024c0.04041,-0.3087 0.08081,-0.61738 0.12244,-0.93542c0.73995,-0.57399 0.73995,-0.57399 1.76495,-1.22588c3.07589,-1.99393 6.14136,-4.01321 9.04832,-6.24881c4.26195,-3.27766 4.26195,-3.27766 6.36037,-3.41926z" fill="#140913"/><path d="M227.81115,181.5738c1.34553,1.274 2.00327,2.00936 2.44435,3.79866c-0.42653,2.02366 -1.1838,2.78434 -2.88794,3.90349c-3.77557,2.41522 -7.68507,3.58725 -12.01334,4.61195c-0.38257,0.11366 -0.76514,0.22732 -1.15931,0.34443c-5.0414,1.10556 -11.14956,0.6786 -15.78938,-1.61139c-0.05938,-2.65043 1.12513,-3.91974 2.80107,-5.79359c0.94406,-0.87582 1.81139,-1.46618 2.97482,-2.0134c0.30849,0.04038 0.61696,0.08075 0.93479,0.12235c0.09953,0.33989 0.19906,0.67977 0.3016,1.02994c0.98322,3.4141 0.98322,3.4141 3.57652,5.66205c2.08185,0.91004 4.34137,1.5486 6.57797,0.90559c2.27011,-0.94821 3.89712,-1.99982 5.25172,-4.11442c0.72238,-2.89755 0.34314,-5.2617 -0.36148,-8.13458c2.68809,-0.3686 5.0922,-0.3023 7.34861,1.28891z" fill="#f7d4f0"/><path d="M249.59072,208.35928c0.44252,0.2149 0.88503,0.42982 1.34097,0.65123c-0.22541,0.55457 -0.45082,1.10913 -0.68306,1.6805c-0.97266,2.68395 -1.36124,5.39729 -1.75978,8.21476c-0.08028,0.54307 -0.16057,1.08613 -0.2433,1.64567c-0.25352,1.72117 -0.50107,3.44315 -0.74846,5.16522c-0.17166,1.17273 -0.34372,2.34539 -0.51618,3.518c-0.42016,2.86278 -0.83545,5.72622 -1.24694,8.59025c-0.44252,-0.21491 -0.88503,-0.42981 -1.34097,-0.65124c1.0303,-7.87153 2.06061,-15.74308 3.12213,-23.85313c-1.35787,-0.41321 -1.35787,-0.41321 -2.74316,-0.83479c-0.1172,0.31949 -0.23439,0.63898 -0.35513,0.96814c-0.96188,2.53977 -2.01112,4.95865 -3.28966,7.35565c-1.56515,2.97682 -2.79627,6.03489 -3.97703,9.1825c-0.89707,2.36799 -1.92911,4.55841 -3.16231,6.77115c-1.23393,-0.16151 -2.46785,-0.32302 -3.73917,-0.48942c1.71403,-6.78559 1.71403,-6.78559 3.62256,-9.51601c0.29197,-0.43275 0.58394,-0.8655 0.88475,-1.31135c0.59705,-0.88494 1.19621,-1.76848 1.7973,-2.65069c1.17801,-2.00076 1.4894,-4.08875 1.84786,-6.35691c0.06952,-0.40697 0.13902,-0.81396 0.21064,-1.23327c0.16902,-0.99445 0.33041,-1.99022 0.49021,-2.9862c0.50543,-0.13929 1.01085,-0.27857 1.53159,-0.42206c1.70606,-0.48179 3.38497,-1.02238 5.06175,-1.59901c0.51122,-0.17409 1.02242,-0.34819 1.54912,-0.52755c1.3137,-0.4381 1.3137,-0.4381 2.34625,-1.31146z" fill="#e83cac"/><path d="M265.81645,193.35709c-0.25223,1.92706 -1.06289,2.59258 -2.42055,3.96468c-10.11144,6.94019 -22.86924,10.849 -34.92157,12.55509c-0.51964,0.10737 -1.03927,0.21473 -1.57465,0.32537c-2.46369,0.24617 -4.73374,-0.09808 -7.17305,-0.45943c-0.47512,-0.06649 -0.95024,-0.13296 -1.43976,-0.20147c-1.16383,-0.16346 -2.32684,-0.33129 -3.48945,-0.50318c-0.05323,-0.79192 -0.10647,-1.58381 -0.1613,-2.39973c0.43839,0.04512 0.87678,0.09023 1.32846,0.13672c8.84616,0.77128 18.59301,0.24999 26.9478,-2.99539c1.15316,-0.42514 1.15316,-0.42514 2.75469,-0.85662c2.10669,-0.58201 4.08698,-1.41498 6.09215,-2.27806c0.37694,-0.16134 0.75388,-0.32269 1.14224,-0.48892c2.82459,-1.2253 5.65792,-2.46021 8.09888,-4.36696c1.02042,-0.7717 2.11254,-1.19287 3.29148,-1.68018c0.50313,-0.24813 1.00626,-0.49625 1.52463,-0.75189z" fill="#180b0f"/><path d="M219.59875,163.72971c0.45599,0.05877 0.91197,0.11752 1.38178,0.17808c3.75846,0.57619 6.31537,1.70333 9.14186,4.32128c0.23505,-0.59718 0.47011,-1.19438 0.71228,-1.80966c0.29322,1.9671 0.01051,2.95946 -1.07959,4.61591c-2.57709,-0.7015 -2.57709,-0.7015 -3.47083,-1.41874c-1.51585,-0.88641 -3.12022,-0.9906 -4.8348,-1.18473c-0.35434,-0.04331 -0.70865,-0.08663 -1.07372,-0.13125c-2.44849,-0.28631 -4.85745,-0.43856 -7.32447,-0.40307c-0.0404,0.30869 -0.08081,0.61737 -0.12244,0.93541c-0.84386,0.15448 -0.84386,0.15448 -1.70476,0.31205c-2.06649,0.46857 -3.68254,1.3427 -5.47287,2.45576c-0.85167,0.46273 -0.85167,0.46273 -1.78646,0.34038c-0.02667,-1.6915 0.25245,-2.27774 1.38768,-3.56467c4.3741,-3.70605 8.57049,-5.40139 14.24635,-4.64674z" fill="#8550a2"/><path d="M275.03412,134.08562c0.77787,0.67325 1.42472,1.41677 2.05136,2.2327c-0.09228,3.15927 -0.79998,5.58519 -2.50412,8.23523c-0.49302,0.17095 -0.49302,0.17095 -0.99601,0.34536c-0.47636,0.80589 -0.91645,1.63359 -1.33375,2.47164c-0.22704,0.45166 -0.45407,0.90335 -0.68798,1.3687c-0.25803,0.5246 -0.25803,0.5246 -0.52127,1.05976c-2.88089,-0.61738 -5.15029,-2.25639 -7.57841,-3.84628c1.76552,-0.25837 3.39731,-0.12669 5.16606,0.04438c1.12057,-0.10172 1.12057,-0.10172 1.9754,-1.08869c0.84909,-1.38756 1.16559,-2.50834 1.46552,-4.10269c0.09473,-0.48493 0.18944,-0.96986 0.28705,-1.46949c0.12569,-0.71958 0.24247,-1.44103 0.33728,-2.16535c-2.86513,-0.53392 -5.43225,-0.7078 -8.33351,-0.34745c-2.70463,0.32701 -4.63176,0.10395 -7.213,-0.73599c-0.09363,-0.4832 -0.18728,-0.96644 -0.28374,-1.4643c0.52641,0.09834 1.05283,0.19667 1.5952,0.29799c2.95283,0.38119 5.55377,-0.18292 8.21635,-1.48156c2.56568,-1.12839 5.9548,-0.75742 8.35756,0.64607z" fill="#df39a2"/><path d="M226.92932,134.51061c-0.04041,0.3087 -0.08081,0.61738 -0.12244,0.93543c0.88516,0.20418 0.88516,0.20418 1.78821,0.41245c1.7882,0.41247 1.7882,0.41247 2.7021,1.60244c-0.15623,1.32124 -0.15623,1.32124 -0.83471,2.74509c-1.15184,0.78125 -2.11447,1.32511 -3.36572,1.87861c-0.30328,0.15163 -0.60656,0.30326 -0.91903,0.45949c-2.38472,1.10091 -3.98732,1.05264 -6.54892,0.52539c-2.14799,-6.10566 -2.14799,-6.10566 -1.23505,-8.72465c2.53766,-1.88827 5.80385,-0.91041 8.53557,0.16576z" fill="#fd47d3"/><path d="M238.27312,204.02359c-0.48292,0.09377 -0.96584,0.18756 -1.46341,0.28418c-0.46607,0.89761 -0.46607,0.89761 -0.71227,1.80966c-5.22204,0.75172 -10.13976,0.33272 -15.35842,-0.20772c-2.31229,-0.23482 -4.59153,-0.31906 -6.91528,-0.32907c-0.29566,1.06022 -0.59131,2.12043 -0.89592,3.2128c1.60888,1.38469 3.38397,1.51953 5.41641,1.74958c0.48718,0.0633 0.48718,0.0633 0.98421,0.12789c1.91988,0.23476 3.76091,0.30343 5.69046,0.18083c-0.65106,1.34194 -0.65106,1.34194 -1.45023,1.77253c-1.67798,0.36592 -3.29079,0.3309 -4.99323,0.23841c-0.35468,-0.01515 -0.70937,-0.03031 -1.07479,-0.04592c-2.71952,-0.21985 -4.15321,-0.94757 -6.15867,-2.80374c-0.64065,-1.85084 -0.24963,-3.817 0.26723,-5.67369c1.66116,-1.50611 3.32757,-1.81895 5.50867,-2.1333c1.60105,0.11666 1.60105,0.11666 3.31959,0.37504c0.3083,0.04395 0.61662,0.08791 0.93426,0.13321c1.30588,0.18633 2.61003,0.38377 3.9144,0.58041c3.87249,0.57705 9.78985,-0.70572 12.987,0.7289z" fill="#ca6f55"/><path d="M273.00036,174.79279c0.43241,0.29208 0.43241,0.29208 0.87358,0.59006c0.03459,1.71867 -0.33708,2.37973 -1.38524,3.77312c-1.96024,1.97193 -4.3802,3.41404 -6.85006,4.6634c-0.30849,-0.04038 -0.61697,-0.08075 -0.93479,-0.12235c-0.0404,0.30869 -0.08081,0.61737 -0.12244,0.93541c-1.32306,0.51494 -2.64781,1.02454 -3.97396,1.5314c-0.36848,0.14402 -0.73693,0.28803 -1.11656,0.43642c-2.57242,0.97717 -5.08496,1.60351 -7.79639,2.05407c-0.5131,0.09964 -1.02621,0.19927 -1.55487,0.30194c-4.93032,0.55013 -9.69508,0.27773 -14.58146,-0.51113c-0.19465,0.28851 -0.3893,0.577 -0.58983,0.87424c0.36929,-0.98338 0.71218,-1.80951 1.3021,-2.6839c0.84439,-0.06218 0.84439,-0.06218 1.9256,0.00118c0.59351,0.02921 0.59351,0.02921 1.19901,0.05903c0.42419,0.02344 0.84836,0.04689 1.2854,0.07103c9.99114,0.40401 21.13909,-2.00627 29.0258,-8.59931c0.85914,-0.97075 1.56231,-1.95754 2.29812,-3.02925c0.32868,-0.11396 0.65736,-0.22793 0.996,-0.34535z" fill="#19101b"/><path d="M235.35215,193.65111c0.30848,0.04038 0.61697,0.08075 0.93479,0.12235c-0.0404,0.30869 -0.08081,0.61737 -0.12244,0.93541c0.23343,0.08942 0.46685,0.17885 0.70734,0.27098c1.10101,0.44145 1.10101,0.44145 2.46355,1.15497c2.77964,1.20639 5.89798,1.19065 8.75396,0.31328c0.40374,-0.16301 0.80747,-0.32602 1.22345,-0.49398c0.28828,0.19471 0.57656,0.38944 0.87358,0.59006c-0.20925,0.86087 -0.20925,0.86087 -0.71227,1.80966c-1.05909,0.43002 -1.05909,0.43002 -2.35022,0.70329c-0.42157,0.09323 -0.84313,0.18645 -1.27749,0.28249c-0.63911,0.13528 -0.63911,0.13528 -1.29113,0.27329c-0.42808,0.11015 -0.85614,0.22031 -1.29719,0.33381c-1.50653,0.38333 -3.01815,0.59851 -4.55643,0.80289c-0.44259,0.06656 -0.88518,0.1331 -1.34118,0.20169c-3.17584,0.43652 -5.97431,0.46103 -9.12518,-0.14446c0.50313,-0.24813 1.00625,-0.49625 1.52463,-0.75189c-0.42232,-0.36926 -0.84463,-0.73851 -1.27975,-1.11895c0.50661,-1.81671 1.2536,-3.00703 2.48177,-4.43238c1.34097,0.65123 1.34097,0.65123 2.09211,2.17672c0.18295,-0.3489 0.36588,-0.69781 0.55436,-1.05727c0.68651,-1.15891 0.68651,-1.15891 1.74375,-1.97197z" fill="#804f9b"/><path d="M232.70325,206.62459c-6.13699,1.30907 -11.93919,1.04089 -18.06714,0.0138c0.07344,0.63757 0.14686,1.27513 0.22252,1.93201c1.64201,0.24279 3.28537,0.47465 4.92922,0.70465c0.462,0.06844 0.924,0.13689 1.39999,0.20741c2.60904,0.35917 4.76929,0.47396 7.34771,-0.07332c3.29714,-0.57274 3.29714,-0.57274 4.26779,0.08289c-0.98604,0.34189 -1.97211,0.68381 -2.98803,1.03606c1.07969,0.14132 2.15937,0.28264 3.27177,0.42824c0.19465,-0.2885 0.38929,-0.577 0.58983,-0.87423c0.8645,-0.12099 0.8645,-0.12099 1.95236,-0.16071c2.30129,-0.15529 5.0047,-0.56271 6.88929,-2.01206c0.9371,0.10325 1.8724,0.22485 2.80437,0.36706c-3.93148,2.25652 -7.39925,3.17149 -11.89757,3.51202c-1.73426,0.13255 -3.22739,0.33865 -4.85094,0.95587c-0.72998,0.09486 -1.46318,0.16732 -2.19754,0.21783c-1.237,0.0883 -2.37296,0.2139 -3.59487,0.45117c-0.73382,-0.06398 -1.46583,-0.15136 -2.19475,-0.25754c-0.56583,-0.0805 -0.56583,-0.0805 -1.14308,-0.16262c-0.28668,-0.04305 -0.57337,-0.08608 -0.86874,-0.13044c0.0202,-0.15433 0.0404,-0.30868 0.06122,-0.4677c1.89129,-0.06644 3.78258,-0.13286 5.73119,-0.2013c0.0404,-0.30868 0.08081,-0.61737 0.12244,-0.93541c-0.31827,0.0344 -0.63654,0.06877 -0.96444,0.1042c-1.75618,0.07058 -3.44922,-0.10029 -5.18823,-0.31487c-0.32782,-0.03309 -0.65563,-0.0662 -0.99339,-0.10029c-2.10664,-0.25958 -3.35496,-0.73572 -4.8838,-2.21507c0.82985,-3.16197 0.82985,-3.16197 1.42453,-3.61932c3.89626,-0.03601 7.74355,0.37643 11.61703,0.7568c0.48489,0.04568 0.96978,0.09136 1.46937,0.13843c0.43769,0.04287 0.87537,0.08576 1.32633,0.12993c3.76924,0.19372 3.76924,0.19372 4.40553,0.48652z" fill="#9f4d3d"/><path d="M269.47509,187.65158c1.28254,0.64359 1.28254,0.64359 1.81669,1.78388c0.10394,1.45149 -0.05694,2.28894 -0.67893,3.59798c-0.34889,0.26832 -0.69778,0.53662 -1.05722,0.81307c0.10101,-0.77172 0.20202,-1.54343 0.30609,-2.33854c-0.30849,-0.04038 -0.61697,-0.08075 -0.9348,-0.12236c0.0404,-0.30869 0.08081,-0.61738 0.12244,-0.93542c-0.96585,0.18756 -1.93169,0.37511 -2.92681,0.56836c0.59677,0.23509 1.19353,0.4702 1.80836,0.71242c-0.25524,0.75153 -0.5105,1.50306 -0.77348,2.27737c-0.54449,0.00232 -0.54449,0.00232 -1.09998,0.00469c-1.41541,0.17132 -1.80952,0.51169 -2.88405,1.37673c-0.46272,-0.06057 -0.92544,-0.12113 -1.40219,-0.18353c-0.32227,0.66425 -0.32227,0.66425 -0.65106,1.34194c-1.43408,0.90947 -3.03399,1.54479 -4.57387,2.25566c-0.65673,0.32209 -1.31303,0.64507 -1.96899,0.96874c-0.70801,0.34133 -1.41621,0.68223 -2.12461,1.0227c-0.50362,0.25149 -0.50362,0.25149 -1.01742,0.50805c-2.38759,1.12566 -4.14442,1.36472 -6.77989,1.17702c0.0606,-0.46302 0.12121,-0.92607 0.18365,-1.40312c0.80053,-0.26591 0.80053,-0.26591 1.61724,-0.5372c0.71445,-0.24144 1.42885,-0.48306 2.14319,-0.72481c0.35006,-0.11577 0.70012,-0.23152 1.06079,-0.35081c1.80184,-0.61358 3.47133,-1.28607 5.14035,-2.20659c1.58437,-0.8537 1.58437,-0.8537 2.51917,-0.73134c0.38929,-0.57701 0.77858,-1.154 1.17967,-1.74849c0.30848,0.04038 0.61697,0.08075 0.93479,0.12235c0.21485,-0.44284 0.4297,-0.88569 0.65105,-1.34194c0.30849,0.04038 0.61697,0.08075 0.93479,0.12235c0.15699,-0.25357 0.31396,-0.50714 0.47571,-0.76839c0.75466,-1.05066 1.55693,-1.82366 2.53013,-2.67369c0.31465,-0.27831 0.6293,-0.55662 0.95349,-0.84337c2.53029,-2.00097 2.53029,-2.00097 4.49573,-1.74371z" fill="#b5614b"/><path d="M205.11621,184.93631c0.10566,0.33518 0.21132,0.67034 0.32018,1.01565c0.97335,3.37263 0.97335,3.37263 3.02933,6.08287c1.48981,0.62223 2.9982,1.11014 4.55153,1.5472c-0.04041,0.3087 -0.08081,0.61737 -0.12244,0.93542c-10.30322,0.16951 -10.30322,0.16951 -14.48927,-1.8965c-0.05938,-2.65043 1.12513,-3.91974 2.80107,-5.79359c2.26972,-2.10569 2.26972,-2.10569 3.90961,-1.89104z" fill="#f1cfe9"/><path d="M258.88077,158.49464c0.8108,0.1051 0.8108,0.1051 1.63798,0.21231c3.04257,0.43801 5.7428,1.08679 8.58697,2.25587c-0.0202,0.15433 -0.04041,0.3087 -0.06122,0.46771c-0.57003,-0.0648 -1.14004,-0.12959 -1.72735,-0.19636c-0.48095,-0.05468 -0.48095,-0.05468 -0.97162,-0.11045c-1.04019,-0.1826 -1.04019,-0.1826 -2.05852,-0.54632c-7.32958,-2.38919 -14.68307,-1.68771 -21.56896,1.65532c-3.73267,2.03653 -7.27279,4.92906 -9.16259,8.82432c-0.72439,0.14067 -0.72439,0.14067 -1.46341,0.28418c1.14827,-3.79202 3.65319,-7.3316 6.95555,-9.55546c1.64698,-0.82624 3.32965,-1.51575 5.04126,-2.19447c0.50313,-0.24813 1.00625,-0.49624 1.52463,-0.75189c4.49782,-1.33547 8.68446,-0.94395 13.26728,-0.34473z" fill="#763896"/><path d="M269.41672,213.74916c0.42004,0.06356 0.8401,0.12714 1.27286,0.19261c0.31972,0.05288 0.63942,0.10578 0.96883,0.16025c-0.29389,0.88325 -0.29389,0.88325 -0.71227,1.80966c-1.09448,0.37951 -1.79957,0.34939 -2.95079,0.29763c-1.49564,-0.04574 -2.91009,0.00342 -4.39368,0.19796c-1.78091,0.2129 -1.78091,0.2129 -3.6505,-0.03181c-0.0606,0.46301 -0.12121,0.92606 -0.18365,1.40312c-1.5626,-0.04755 -3.12522,-0.09508 -4.73518,-0.14407c0.08081,-0.61738 0.16162,-1.23475 0.24487,-1.87082c0.28147,-0.09501 0.56294,-0.19002 0.85293,-0.2879c0.365,-0.12453 0.72999,-0.24909 1.10606,-0.37741c0.36363,-0.1235 0.72727,-0.24699 1.10193,-0.37423c0.89725,-0.28042 0.89725,-0.28042 1.45175,-0.74842c1.43659,0.05223 2.86576,0.16164 4.29935,0.26727c2.04071,-0.00126 3.20229,-0.82838 5.3275,-0.49384z" fill="#7e3ba1"/><path d="M243.95379,208.06744c0.67773,0.10343 0.67773,0.10343 1.36914,0.20894c-3.93148,2.25652 -7.39925,3.17149 -11.89757,3.51202c-1.73426,0.13255 -3.22739,0.33865 -4.85094,0.95587c-0.72998,0.09486 -1.46318,0.16732 -2.19754,0.21783c-1.237,0.0883 -2.37296,0.2139 -3.59487,0.45117c-0.73382,-0.06398 -1.46583,-0.15136 -2.19475,-0.25754c-0.56583,-0.0805 -0.56583,-0.0805 -1.14308,-0.16262c-0.28668,-0.04305 -0.57337,-0.08608 -0.86874,-0.13044c0.0202,-0.15433 0.0404,-0.30868 0.06122,-0.4677c1.89129,-0.06644 3.78258,-0.13286 5.73119,-0.2013c0.25525,-0.75152 0.51051,-1.50304 0.77349,-2.27736c0.80536,-0.12035 1.61077,-0.2403 2.41648,-0.35826c0.94618,-0.14411 1.88939,-0.30728 2.83237,-0.47108c1.53956,-0.18501 1.53956,-0.18501 2.41314,0.40506c-0.98604,0.34189 -1.97211,0.68381 -2.98803,1.03606c1.07969,0.14132 2.15937,0.28264 3.27177,0.42824c0.19465,-0.2885 0.38929,-0.577 0.58983,-0.87423c0.8645,-0.12099 0.8645,-0.12099 1.95236,-0.16071c2.82462,-0.1906 5.73191,-2.13956 8.32451,-1.85393z" fill="#b05b47"/><path d="M253.97025,189.42793c0.30849,0.04038 0.61697,0.08075 0.9348,0.12236c-0.08081,0.61737 -0.16162,1.23475 -0.24487,1.87083c0.44252,0.21491 0.88504,0.42983 1.34097,0.65124c-0.49682,0.19989 -0.99362,0.39978 -1.5055,0.60573c-1.73463,0.70626 -3.42199,1.49247 -5.10658,2.31043c-2.00516,0.79283 -3.81743,0.56527 -5.934,0.31783c-0.79044,-0.08508 -0.79044,-0.08508 -1.59685,-0.17185c-1.54844,-0.37219 -2.15598,-0.73328 -3.11185,-1.99057c0.04041,-0.3087 0.08081,-0.61738 0.12244,-0.93542c0.47093,0.04938 0.94186,0.09874 1.42705,0.14962c4.33259,0.40323 8.15214,0.24034 12.43352,-0.71402c0.48292,-0.09377 0.96584,-0.18756 1.46341,-0.28418c-0.07344,-0.63756 -0.14686,-1.27512 -0.22252,-1.93201z" fill="#743e90"/><path d="M221.6722,174.6751c0.54964,0.07072 1.09928,0.14143 1.66558,0.21429c1.50426,0.25635 2.89491,0.62768 4.3417,1.10719c-0.0202,0.15433 -0.04041,0.3087 -0.06122,0.4677c-0.7914,0.05339 -1.58282,0.10681 -2.39819,0.16182c-0.0202,0.15433 -0.04041,0.3087 -0.06122,0.46771c-0.31407,-0.01282 -0.62816,-0.02564 -0.95176,-0.03886c-8.43266,-0.30602 -8.43266,-0.30602 -16.42546,2.04585c-0.30849,-0.04038 -0.61697,-0.08075 -0.9348,-0.12236c0.06061,-0.46303 0.12121,-0.92607 0.18365,-1.40312c4.63762,-2.70484 9.36305,-3.60295 14.64171,-2.90024z" fill="#1f1026"/><path d="M247.09244,205.65367c-0.4297,0.88569 -0.85939,1.77137 -1.3021,2.68389c-0.47742,-0.02325 -0.95483,-0.04647 -1.44671,-0.07042c-2.06616,0.01745 -3.52479,0.71669 -5.40293,1.55248c-1.90766,0.64058 -3.28361,0.61598 -5.26379,0.26247c-0.21485,0.44284 -0.42969,0.88568 -0.65105,1.34195c-1.23393,-0.16151 -2.46785,-0.32302 -3.73917,-0.48942c1.25103,-1.4326 1.32898,-1.34493 3.04925,-1.50378c0.19465,-0.28851 0.38929,-0.57701 0.58983,-0.87424c1.04214,-0.26328 2.09476,-0.48558 3.15042,-0.68776c2.6365,-0.52225 5.10734,-1.21976 7.60246,-2.22533c1.25078,-0.34354 2.15047,-0.23495 3.41378,0.01014z" fill="#be6750"/><path d="M229.49368,165.76817c0.28829,0.19471 0.57656,0.38945 0.87357,0.59006c-0.08081,0.61738 -0.16162,1.23476 -0.24487,1.87084c-1.21739,-0.67402 -2.37466,-1.35286 -3.51814,-2.14968c-2.16249,-1.28141 -4.473,-1.48336 -6.93213,-1.77517c-0.45146,-0.06461 -0.90294,-0.12922 -1.36808,-0.1958c-2.5971,-0.32908 -4.28394,-0.26102 -6.75505,0.73812c-0.44252,-0.2149 -0.88503,-0.42983 -1.34097,-0.65123c1.75714,-1.65901 3.09372,-2.38748 5.59484,-2.49369c4.91411,0.27191 9.61245,1.19172 13.69083,4.06654z" fill="#0d0511"/><path d="M269.027,194.25303c-0.26833,2.05001 -0.98308,2.8342 -2.56417,4.154c-1.48449,1.06047 -3.01208,2.02528 -4.55268,3.00174c-0.43737,0.34503 -0.87474,0.69007 -1.32537,1.04556c-3.48011,2.60695 -3.48011,2.60695 -5.30175,2.36852c-0.04041,0.3087 -0.08081,0.61737 -0.12244,0.93542c-3.08037,1.14597 -6.15274,1.9177 -9.37027,2.5793c1.0729,-1.85804 2.04724,-2.20463 4.02656,-2.82717c1.82472,-0.48577 3.66602,-0.84229 5.52735,-1.15526c0.04041,-0.3087 0.08081,-0.61738 0.12244,-0.93542c0.48213,-0.16256 0.96424,-0.32514 1.46097,-0.49263c2.2344,-0.89649 3.95784,-2.35272 5.80483,-3.87105c1.00837,-0.7377 1.00837,-0.7377 1.94316,-0.61535c0.21484,-0.44283 0.42969,-0.88569 0.65105,-1.34194c0.30848,0.04038 0.61697,0.08075 0.9348,0.12236c0.07518,-0.2747 0.15035,-0.5494 0.2278,-0.83243c0.6166,-1.24375 1.30662,-1.55137 2.5377,-2.13565z" fill="#9a4a3c"/><path d="M262.15686,167.51617c0.64279,0.07138 0.64279,0.07138 1.29858,0.14418c4.09692,0.5415 7.51458,1.99168 10.84703,4.44854c-0.7724,0.22597 -0.7724,0.22597 -1.9308,0.223c-1.04394,-0.58517 -2.07308,-1.19733 -3.08812,-1.83137c-7.74111,-3.22207 -17.1775,-2.10024 -25.13929,-0.43615c0.04041,-0.3087 0.08081,-0.61737 0.12244,-0.93542c6.23496,-2.27597 11.38128,-2.37743 17.89016,-1.6128z" fill="#763796"/><path d="M244.7778,201.54493c-0.04041,0.3087 -0.08081,0.61738 -0.12244,0.93542c0.94564,-0.03321 1.8913,-0.06642 2.8656,-0.10065c-1.39345,1.1929 -2.6373,1.51089 -4.43348,1.87822c-1.4398,0.34158 -2.78116,0.8763 -4.14903,1.436c-1.13514,0.25004 -1.69529,-0.00151 -2.71856,-0.51192c0.52334,-0.40246 1.04665,-0.80494 1.58585,-1.2196c-1.42546,0.07894 -2.80112,0.22112 -4.21598,0.42935c-2.14356,0.26317 -4.13349,-0.00477 -6.25039,-0.37212c1.44719,-0.7137 1.99811,-0.84796 3.53541,-0.90495c2.27583,-0.12237 4.52957,-0.33965 6.79327,-0.59746c0.49306,-0.05402 0.49306,-0.05402 0.99608,-0.10911c1.97637,-0.22842 4.1639,-1.11839 6.11367,-0.86318z" fill="#924a3b"/><path d="M251.74601,130.14732c0.26889,0.31943 0.26889,0.31943 0.54321,0.64531c1.52358,1.76091 2.96913,3.14162 4.98196,4.35937c-0.04041,0.3087 -0.08081,0.61738 -0.12244,0.93541c2.56308,0.46903 4.74235,0.54703 7.33646,0.2467c2.60754,-0.29096 4.7741,-0.34435 7.33647,0.24668c0.74716,0.64785 0.74716,0.64785 1.21854,1.58665c-0.08389,1.29354 -0.08389,1.29354 -0.41808,2.74016c-0.10275,0.47592 -0.20548,0.95182 -0.31133,1.44216c-0.51221,1.48374 -1.10718,2.38739 -2.18088,3.52403c-1.70426,0.67083 -3.01032,0.66208 -4.7964,0.32364c1.11213,-0.40403 2.08069,-0.70195 3.26102,-0.85167c1.32676,-0.37839 1.32676,-0.37839 1.96214,-1.82445c0.70546,-1.93251 1.16947,-3.93686 1.60996,-5.94393c-1.24605,-0.01657 -2.49204,-0.03065 -3.73814,-0.0433c-0.35418,-0.00496 -0.70835,-0.00993 -1.07326,-0.01505c-1.92342,-0.04619 -1.92342,-0.04619 -3.78538,0.36028c-6.44055,-0.37658 -6.44055,-0.37658 -8.69688,-2.5655c-1.1639,-1.35681 -2.2896,-2.72081 -3.24942,-4.23108c0.0404,-0.30869 0.08081,-0.61738 0.12244,-0.93542z" fill="#f542bf"/><path d="M236.91662,156.27388c0.44252,0.2149 0.88504,0.42982 1.34097,0.65123c-0.06061,0.46303 -0.12121,0.92607 -0.18365,1.40312c-2.27471,1.60516 -2.27471,1.60516 -3.51665,1.4426c-0.0404,0.30869 -0.08081,0.61737 -0.12244,0.93542c-3.63614,1.48233 -6.30526,2.42891 -10.18262,1.52152c0.08081,-0.61737 0.16162,-1.23475 0.24487,-1.87083c0.49037,0.01083 0.49037,0.01083 0.99065,0.02188c4.1692,-0.03735 6.88475,-1.27279 10.33999,-3.50415c0.35933,-0.19827 0.71865,-0.39653 1.08887,-0.60079z" fill="#160c1b"/><path d="M246.63769,143.75034c7.59081,0.73935 13.7659,2.24639 20.01445,6.90118c0.68897,0.47099 1.38021,0.93866 2.07474,1.40141c0.46846,0.31641 0.93691,0.63285 1.41956,0.95885c-1.71823,0.36508 -2.58152,0.02354 -4.10155,-0.81373c-0.41507,-0.22329 -0.83015,-0.44656 -1.25781,-0.67659c-0.43037,-0.23755 -0.86073,-0.47509 -1.30414,-0.71982c-2.87033,-1.57575 -5.60656,-2.94472 -8.76037,-3.85916c-0.42146,-0.16952 -0.42146,-0.16952 -0.85143,-0.34246c-0.11384,-0.32889 -0.22768,-0.65775 -0.34497,-0.99659c-1.17245,-0.30209 -2.30725,-0.54606 -3.49642,-0.75497c-0.32991,-0.06157 -0.65983,-0.12316 -0.99974,-0.18661c-0.81712,-0.15192 -1.63527,-0.29837 -2.45357,-0.44378c0.0202,-0.15433 0.04041,-0.3087 0.06122,-0.46772z" fill="#6f338e"/><path d="M271.69728,217.43717c0.3285,1.69531 0.1101,3.04034 -0.14479,4.73826c-0.57655,-0.38943 -1.15312,-0.77889 -1.74715,-1.18012c0.10101,-0.77172 0.20202,-1.54344 0.30609,-2.33854c-2.4837,-0.06262 -4.73169,0.11105 -7.19459,0.48547c-0.61697,-0.08075 -1.23393,-0.16151 -1.86958,-0.24471c0.37769,-0.84255 0.37769,-0.84255 1.17966,-1.7485c2.95098,-0.74404 6.69454,-1.05993 9.47035,0.28814z" fill="#7d3aa0"/><path d="M234.41834,153.56827c0.44252,0.21491 0.88503,0.42983 1.34097,0.65125c-0.49299,1.76785 -1.29833,2.45598 -2.82672,3.43577c-2.80782,1.47905 -4.64022,1.55446 -7.72321,0.892c0.08081,-0.61737 0.16162,-1.23476 0.24487,-1.87084c0.40756,-0.01656 0.40756,-0.01656 0.82334,-0.03346c2.64009,-0.16194 4.64912,-0.6097 7.02231,-1.79396c0.36908,-0.42265 0.73818,-0.84532 1.11844,-1.28078z" fill="#190e1f"/><path d="M270.55261,153.54066c3.51808,2.17274 5.99577,4.83143 8.1596,8.3302c0.63689,1.01992 0.63689,1.01992 1.89476,2.02453c0.52516,1.15212 0.52516,1.15212 0.98307,2.47755c0.1561,0.43682 0.31218,0.87364 0.473,1.32369c0.26872,1.18174 0.26872,1.18174 -0.38232,2.52369c-1.51839,-1.67694 -2.56486,-3.96171 -2.75172,-6.21749c-0.04303,-0.27055 -0.08605,-0.54109 -0.13039,-0.81985c-0.26968,-0.17758 -0.53936,-0.35513 -0.81724,-0.53809c-1.00977,-0.69718 -1.36864,-1.23438 -1.96169,-2.29345c-1.27008,-2.06521 -2.91767,-3.50395 -4.75629,-5.06199c-0.27495,-0.2684 -0.54992,-0.53682 -0.83321,-0.81335c0.04041,-0.3087 0.08081,-0.61738 0.12244,-0.93542z" fill="#6f338e"/><path d="M214.05212,196.57181c0.11384,0.32888 0.22768,0.65775 0.34496,0.99659c-9.9892,1.18023 -9.9892,1.18023 -13.27074,-0.30983c0.06061,-0.46303 0.12121,-0.92607 0.18366,-1.40313c0.74106,0.06204 0.74106,0.06204 1.49708,0.12535c4.31024,0.36531 4.31024,0.36531 8.62359,0.18845c1.74787,-0.18747 1.74787,-0.18747 2.62145,0.40259z" fill="#7d4c97"/><path d="M230.38475,133.53574c-0.0202,0.15433 -0.04041,0.3087 -0.06122,0.46771c-0.33522,-0.02254 -0.67043,-0.04505 -1.0158,-0.06826c-1.518,-0.09821 -3.03643,-0.18641 -4.55505,-0.27438c-0.79136,-0.05345 -0.79136,-0.05345 -1.59871,-0.10798c-0.50652,-0.02796 -1.01303,-0.05595 -1.5349,-0.08476c-0.70016,-0.04306 -0.70016,-0.04306 -1.41447,-0.08699c-1.36939,0.10041 -1.87002,0.3219 -2.80685,1.30913c-0.3231,1.15315 -0.3231,1.15315 -0.40521,2.41476c-0.04251,0.42309 -0.08502,0.84619 -0.12881,1.28209c-0.02579,0.32349 -0.05159,0.64696 -0.07816,0.98024c-0.83903,-0.90014 -1.20717,-1.37033 -1.27276,-2.61953c0.05097,-0.36128 0.10193,-0.72254 0.15444,-1.09476c0.04373,-0.36221 0.08747,-0.72443 0.13252,-1.09763c0.39416,-1.21896 0.80907,-1.5644 1.90408,-2.20371c4.32541,-1.02747 8.45315,0.17402 12.68091,1.18408z" fill="#bf318c"/><path d="M232.85386,190.94549c0.30849,0.04038 0.61697,0.08075 0.9348,0.12236c0.50876,0.79504 0.50876,0.79504 1.01264,1.79758c0.16869,0.33115 0.33739,0.66231 0.5112,1.00349c0.12692,0.257 0.25385,0.514 0.38461,0.77878c-0.48292,0.09377 -0.96584,0.18756 -1.46341,0.28418c-0.25525,0.75153 -0.51051,1.50305 -0.77348,2.27737c-0.24879,-0.34655 -0.4976,-0.69308 -0.75393,-1.05013c-0.74293,-1.15736 -0.74293,-1.15736 -1.80558,-1.18778c-0.885,0.81659 -0.885,0.81659 -1.64706,1.68731c0.06061,-0.46303 0.12121,-0.92607 0.18365,-1.40312c-0.28828,-0.19471 -0.57656,-0.38944 -0.87357,-0.59006c0.6927,-0.62572 1.3889,-1.24755 2.08664,-1.86763c0.581,-0.52001 0.581,-0.52001 1.17374,-1.05053c0.33981,-0.2646 0.67964,-0.52918 1.02975,-0.8018z" fill="#82509c"/><path d="M269.47509,187.65158c1.28254,0.64359 1.28254,0.64359 1.81669,1.78388c0.10394,1.45149 -0.05694,2.28894 -0.67893,3.59798c-0.34889,0.26832 -0.69778,0.53662 -1.05722,0.81307c0.10101,-0.77172 0.20202,-1.54343 0.30609,-2.33854c-0.30849,-0.04038 -0.61697,-0.08075 -0.9348,-0.12236c0.0404,-0.30869 0.08081,-0.61738 0.12244,-0.93542c-2.27366,-0.14297 -2.27366,-0.14297 -4.33422,0.65172c-0.19292,0.20042 -0.38584,0.40085 -0.58461,0.60733c-0.28829,-0.19471 -0.57656,-0.38945 -0.87357,-0.59006c3.91622,-3.7689 3.91622,-3.7689 6.21814,-3.4676z" fill="#98483a"/><path d="M271.96935,240.78314c-0.3548,3.1647 -0.3548,3.1647 -1.01836,4.1482c-1.7576,-0.6463 -1.7576,-0.6463 -2.21455,-1.2413c-1.2439,-0.27546 -2.48174,-0.52558 -3.73394,-0.75633c-0.35192,-0.06661 -0.70385,-0.13321 -1.06645,-0.20183c-0.87188,-0.16474 -1.74425,-0.32681 -2.61672,-0.48839c0.0202,-0.15433 0.0404,-0.30868 0.06122,-0.46771c0.28989,-0.01418 0.57977,-0.02836 0.87844,-0.04298c2.63621,-0.1504 5.19191,-0.45101 7.79031,-0.92224c0.98527,-0.14978 0.98527,-0.14978 1.92006,-0.02742z" fill="#8957a4"/><path d="M215.16138,200.0006c0.24353,0.20418 0.48706,0.40839 0.73797,0.61877c-2.09248,0.77699 -4.19056,1.13775 -6.38224,1.54324c-0.33606,1.3689 -0.67213,2.73781 -1.01836,4.14821c-0.48292,0.09377 -0.96584,0.18756 -1.46341,0.28418c-0.11933,-1.3748 -0.20189,-2.46026 0.02235,-3.80284c1.69698,-1.90292 5.59846,-4.18508 8.10369,-2.79154z" fill="#1f0f1a"/><path d="M275.54721,238.87284c0.15423,0.02019 0.30849,0.04038 0.46739,0.06118c-0.28283,2.16081 -0.56566,4.32164 -0.85706,6.54792c-1.45466,-0.1904 -2.74911,-0.57688 -4.14534,-1.0183c0.64453,-1.32853 1.28908,-2.65707 1.95316,-4.02585c0.61697,0.08075 1.23393,0.16151 1.86958,0.24471c0.23504,-0.5972 0.47009,-1.19437 0.71227,-1.80966z" fill="#000008"/><path d="M282.20932,169.81377c2.508,3.2657 1.28409,8.97973 0.80284,12.77687c-0.34695,2.5498 -0.71057,5.09659 -1.09825,7.6405c-0.15423,-0.02019 -0.30848,-0.04038 -0.46739,-0.06118c0.01941,-0.33032 0.03883,-0.66066 0.05883,-1.001c0.08801,-1.52563 0.17168,-3.05147 0.25534,-4.57733c0.0306,-0.5194 0.0612,-1.03879 0.09273,-1.57392c0.1589,-2.95865 0.18506,-5.84863 -0.02488,-8.80503c-0.06451,-1.51989 0.11714,-2.90369 0.38078,-4.3989z" fill="#6c3588"/><path d="M238.65696,208.35532c-0.23505,0.59718 -0.47011,1.19438 -0.71227,1.80967c-2.11255,-0.04104 -2.11255,-0.04104 -4.26779,-0.08289c-0.21485,0.44284 -0.42969,0.88568 -0.65105,1.34195c-1.23393,-0.16151 -2.46785,-0.32302 -3.73917,-0.48942c1.25103,-1.4326 1.32898,-1.34493 3.04925,-1.50378c0.19465,-0.28851 0.38929,-0.57701 0.58983,-0.87424c1.99927,-0.41216 3.72208,-0.58919 5.73119,-0.20129z" fill="#c46b52"/><path d="M223.6624,163.10202c2.48232,0.81425 4.59169,1.66955 6.70485,3.2562c-0.08081,0.61738 -0.16162,1.23476 -0.24487,1.87084c-1.22443,-0.67792 -2.40256,-1.36719 -3.5668,-2.14676c-1.93217,-1.14817 -3.90887,-1.47413 -6.10481,-1.82483c-0.38442,-0.06656 -0.76883,-0.13314 -1.16489,-0.20172c-0.9384,-0.16168 -1.87811,-0.31577 -2.81805,-0.46827c0.0202,-0.15433 0.0404,-0.30869 0.06122,-0.46771c2.33381,0.14849 4.66762,0.29696 7.07216,0.44996c0.0202,-0.15433 0.04041,-0.3087 0.06122,-0.46771z" fill="#201028"/><path d="M231.50221,172.21544c0.15424,0.02019 0.30848,0.04038 0.46739,0.06118c-0.00737,1.25495 -0.01475,2.50988 -0.02235,3.80285c0.44253,0.2149 0.88503,0.42982 1.34097,0.65123c0.21485,-0.44284 0.4297,-0.88569 0.65105,-1.34194c1.0061,-0.19538 1.0061,-0.19538 1.93081,-0.223c-0.23466,0.26179 -0.46932,0.5236 -0.71109,0.79333c-0.30554,0.3445 -0.61109,0.68902 -0.92589,1.04396c-0.30386,0.34104 -0.60772,0.6821 -0.92079,1.03347c-0.86382,0.97517 -0.86382,0.97517 -1.44861,2.3135c-0.61697,-0.08075 -1.23393,-0.16151 -1.86958,-0.24471c0.29743,-2.70958 0.76901,-5.26529 1.5081,-7.88987z" fill="#743596"/><path d="M230.96193,194.50364c1.34097,0.65123 1.34097,0.65123 1.75061,1.8347c0.21906,1.27743 0.21906,1.27743 0.03541,2.68057c-2.19901,0.70753 -2.19901,0.70753 -3.51732,0.31266c-0.24766,-0.13052 -0.49531,-0.26106 -0.75047,-0.39555c0.50661,-1.81671 1.2536,-3.00703 2.48177,-4.43238z" fill="#140a18"/><path d="M235.10826,155.56146c0.11384,0.32889 0.22768,0.65776 0.34496,0.9966c0.28829,0.19471 0.57656,0.38945 0.87357,0.59006c-0.72965,0.44175 -1.46101,0.88071 -2.19304,1.31851c-0.40709,0.24476 -0.81417,0.48949 -1.23359,0.74166c-1.67135,0.91721 -2.6932,1.42029 -4.60267,1.17036c0.0404,-0.30869 0.08081,-0.61737 0.12244,-0.93542c-0.92545,-0.12113 -1.85088,-0.24226 -2.80438,-0.36706c0.0202,-0.15433 0.0404,-0.30869 0.06122,-0.4677c0.55453,0.03334 1.10907,0.06666 1.6804,0.10101c2.18374,0.02538 3.66309,-0.62837 5.63663,-1.52189c0.30848,0.04038 0.61697,0.08075 0.93479,0.12235c0.38929,-0.577 0.77858,-1.154 1.17966,-1.74849z" fill="#784a90"/><path d="M245.32293,208.27638c-3.72174,2.15949 -7.04098,3.23147 -11.36229,3.27002c1.32825,-1.1863 2.61221,-1.60136 4.31339,-2.08163c5.27322,-1.5016 5.27322,-1.5016 7.0489,-1.18839z" fill="#8f4437"/><path d="M255.47252,192.47888c-0.16545,1.26401 -0.29184,2.10507 -0.89592,3.21279c-1.04053,0.45845 -1.04053,0.45845 -1.99203,0.69071c-0.0404,0.30869 -0.08081,0.61737 -0.12244,0.93542c-1.12008,0.16737 -2.24017,0.33474 -3.39421,0.50718c0.88738,-1.90667 1.76678,-2.69307 3.60295,-3.69098c0.41287,-0.22804 0.82573,-0.45609 1.25111,-0.69105c0.50585,-0.27597 0.50585,-0.27597 1.02192,-0.55752c0.17445,-0.13414 0.34888,-0.26832 0.52861,-0.40653z" fill="#7f4b9b"/><path d="M246.18196,121.8075c-0.49183,0.27412 -0.49183,0.27412 -0.99358,0.5538c-1.86546,1.1876 -3.54574,2.54641 -5.25893,3.9425c-1.08688,0.72743 -1.08688,0.72743 -2.48906,0.5439c0.92778,-1.55833 2.04615,-2.57956 3.45688,-3.71009c0.59757,-0.49208 0.59757,-0.49208 1.2072,-0.99412c1.56141,-0.86225 2.371,-0.73225 4.07748,-0.33597z" fill="#a72b7a"/><path d="M219.64434,190.16795c-0.06061,0.46303 -0.12121,0.92607 -0.18366,1.40313c0.26808,0.34907 0.53616,0.69813 0.81236,1.05777c-0.76911,0.20919 -1.53915,0.415 -2.30953,0.61942c-0.42871,0.11498 -0.85742,0.22996 -1.29912,0.34842c-2.28168,0.50716 -3.89467,0.525 -6.11248,-0.24815c-0.39679,-0.1335 -0.79359,-0.26699 -1.20241,-0.40453c-0.31185,-0.14568 -0.62371,-0.29136 -0.94502,-0.44146c-0.11384,-0.32888 -0.22767,-0.65776 -0.34496,-0.9966c0.63152,0.17555 0.63152,0.17555 1.2758,0.35468c3.24883,0.80245 5.50683,1.35666 8.49153,-0.34916c0.61784,-0.43109 1.22028,-0.88424 1.81748,-1.34352z" fill="#a48ca0"/><path d="M233.7663,194.8707c0.92544,0.12113 1.85089,0.24226 2.80437,0.36706c0.28993,1.64774 0.28721,2.21662 -0.68275,3.62721c-0.2852,0.30608 -0.57038,0.61217 -0.86422,0.92752c-0.44252,-0.2149 -0.88503,-0.42983 -1.34097,-0.65124c0.02757,-1.40929 0.05515,-2.81858 0.08357,-4.27055z" fill="#100813"/><path d="M253.97025,189.42793c0.30849,0.04038 0.61697,0.08075 0.9348,0.12236c-0.08081,0.61737 -0.16162,1.23475 -0.24487,1.87083c0.44252,0.21491 0.88504,0.42983 1.34097,0.65124c-0.88139,0.3492 -1.76275,0.69842 -2.64414,1.04763c-0.94843,0.38929 -0.94843,0.38929 -1.92974,1.20803c-1.46826,-0.13271 -1.46826,-0.13271 -2.80437,-0.36706c0.6341,-1.18993 0.95211,-1.67289 2.25523,-2.10572c0.39378,-0.05883 0.78756,-0.11767 1.19327,-0.1783c0.39682,-0.06335 0.79364,-0.12669 1.20249,-0.19196c0.45485,-0.06189 0.45485,-0.06189 0.91889,-0.12503c-0.07344,-0.63756 -0.14686,-1.27512 -0.22252,-1.93201z" fill="#814c9d"/><path d="M260.38552,202.16066c0.11384,0.32889 0.22768,0.65775 0.34497,0.9966c-1.23445,2.01088 -2.68469,2.6492 -4.75753,3.65878c-0.77765,0.89741 -0.77765,0.89741 -1.17966,1.74848c-0.31882,-1.64528 -0.23585,-2.25314 0.48975,-3.74166c1.05749,-0.70153 1.05749,-0.70153 2.30224,-1.24476c0.6171,-0.27614 0.6171,-0.27614 1.24666,-0.55783c0.33825,-0.14952 0.67648,-0.29902 1.02497,-0.45306c0.17445,-0.13414 0.34889,-0.26832 0.52861,-0.40653z" fill="#1f0f1a"/><path d="M228.86982,192.32692c-0.18365,1.40312 -0.18365,1.40312 -0.98806,2.10061c-0.25787,0.17231 -0.51575,0.34459 -0.78144,0.52211c0.11383,0.32887 0.22767,0.65775 0.34496,0.99659c-0.46272,-0.06057 -0.92545,-0.12113 -1.40219,-0.18353c-0.04041,0.3087 -0.08081,0.61738 -0.12244,0.93542c-0.64365,0.23522 -1.28839,0.46745 -1.9336,0.69836c-0.35893,0.12963 -0.71785,0.25926 -1.08765,0.39282c-0.9628,0.29023 -0.9628,0.29023 -1.89759,0.16788c0.21485,-0.44284 0.4297,-0.88569 0.65105,-1.34194c0.6436,-0.07434 1.2872,-0.14866 1.9308,-0.223c0.21485,-0.44283 0.42969,-0.88569 0.65105,-1.34194c1.07751,-0.72678 1.07751,-0.72678 2.35823,-1.44556c0.42432,-0.24066 0.84864,-0.48131 1.28582,-0.72925c0.32704,-0.18103 0.65408,-0.36204 0.99104,-0.54856z" fill="#24142c"/><path d="M236.27042,186.63547c1.69665,0.22207 3.39329,0.44415 5.14136,0.67295c-0.34889,0.26832 -0.69778,0.53663 -1.05723,0.81307c0.42232,0.36925 0.84464,0.73851 1.27975,1.11895c-2.00513,-0.26245 -4.01025,-0.5249 -6.07614,-0.7953c-0.19465,0.28851 -0.3893,0.577 -0.58983,0.87424c0.36929,-0.98338 0.71217,-1.80951 1.3021,-2.6839z" fill="#2d2031"/><path d="M257.58017,241.75407c1.83763,0.18527 3.67229,0.39159 5.5072,0.60191c0.7821,0.07846 0.7821,0.07846 1.58002,0.15849c0.50086,0.05944 1.00173,0.11886 1.51777,0.18008c0.46145,0.05044 0.92289,0.10087 1.39831,0.15283c1.53239,0.47322 1.99546,1.15884 2.8389,2.49048c-1.82161,0.29677 -1.82161,0.29677 -2.80438,-0.36706c0.04041,-0.3087 0.08081,-0.61737 0.12244,-0.93541c-0.58704,-0.0658 -1.17411,-0.13161 -1.77895,-0.1994c-0.77284,-0.09221 -1.54563,-0.18472 -2.31842,-0.27744c-0.38664,-0.04264 -0.77325,-0.08527 -1.1716,-0.12919c-0.37395,-0.04588 -0.7479,-0.09175 -1.13316,-0.13902c-0.34332,-0.03996 -0.68663,-0.07992 -1.04035,-0.12107c-1.10841,-0.26842 -1.81509,-0.72985 -2.71779,-1.4152z" fill="#170096"/><path d="M250.63143,200.40823c-0.43533,0.85729 -0.43533,0.85729 -1.17966,1.74848c-1.16442,0.24155 -1.16442,0.24155 -2.47193,0.2711c-0.43452,0.01427 -0.86904,0.02853 -1.31673,0.04322c-0.33255,0.00308 -0.6651,0.00615 -1.00774,0.00933c0.0606,-0.46302 0.12121,-0.92607 0.18365,-1.40312c0.70193,-0.14865 1.40455,-0.29392 2.10747,-0.43774c0.3912,-0.08126 0.7824,-0.16251 1.18545,-0.24623c1.0973,-0.16857 1.0973,-0.16857 2.49949,0.01497z" fill="#b2604a"/><path d="M267.93091,191.73095c-0.25524,0.75153 -0.5105,1.50306 -0.77348,2.27737c-0.54449,0.00232 -0.54449,0.00232 -1.09998,0.00469c-1.38062,0.16711 -1.8863,0.44625 -2.88405,1.37673c-0.44252,-0.2149 -0.88503,-0.42983 -1.34097,-0.65124c0.66059,-0.55349 1.32774,-1.09918 1.99761,-1.64142c0.55621,-0.45703 0.55621,-0.45703 1.12365,-0.9233c1.10766,-0.68753 1.10766,-0.68753 2.97723,-0.44282z" fill="#a5503f"/><path d="M223.96849,160.76348c0.09364,0.48322 0.18728,0.96645 0.28375,1.4643c2.49191,0.11433 4.74858,0.10599 7.19459,-0.48546c-0.0404,0.30869 -0.08081,0.61737 -0.12244,0.93542c-1.6673,0.4945 -2.55497,0.61703 -4.32901,0.38482c-0.0404,0.30869 -0.08081,0.61737 -0.12244,0.93542c-1.98493,-0.41678 -3.96985,-0.8336 -6.01492,-1.26302c0.0202,-0.15433 0.0404,-0.30869 0.06122,-0.46771c0.92544,0.12113 1.85089,0.24226 2.80437,0.36706c0.08081,-0.61738 0.16162,-1.23476 0.24487,-1.87083z" fill="#663d7b"/><path d="M269.027,194.25303c-0.27585,2.10747 -1.03208,2.87677 -2.66329,4.23022c-1.3431,0.95404 -1.3431,0.95404 -2.86771,1.70593c-0.09364,-0.48322 -0.18728,-0.96645 -0.28374,-1.4643c0.48292,-0.09377 0.96584,-0.18757 1.46341,-0.28418c0.21484,-0.44283 0.42969,-0.88569 0.65105,-1.34194c0.30848,0.04038 0.61697,0.08075 0.9348,0.12236c0.07518,-0.2747 0.15035,-0.5494 0.2278,-0.83243c0.6166,-1.24375 1.30662,-1.55137 2.5377,-2.13565z" fill="#914538"/><path d="M270.50103,243.14796c0.5724,0.84797 0.5724,0.84797 0.44996,1.78338c-1.7576,-0.6463 -1.7576,-0.6463 -2.21455,-1.2413c-1.2439,-0.27546 -2.48174,-0.52558 -3.73394,-0.75633c-0.35192,-0.06661 -0.70385,-0.13321 -1.06645,-0.20183c-0.87188,-0.16474 -1.74425,-0.32681 -2.61672,-0.48839c0.0202,-0.15433 0.0404,-0.30868 0.06122,-0.46771c7.06863,-0.1017 7.06863,-0.1017 9.12048,1.37219z" fill="#f814ff"/><path d="M254.59894,191.88883c0.44252,0.21491 0.88504,0.42982 1.34097,0.65124c-4.331,3.08068 -4.331,3.08068 -6.62712,3.41408c-0.26808,-0.34907 -0.53616,-0.69813 -0.81235,-1.05778c0.35165,-0.14897 0.7033,-0.29797 1.0656,-0.45146c0.45836,-0.19633 0.91671,-0.39268 1.38895,-0.59497c0.45563,-0.19423 0.91126,-0.38848 1.38069,-0.58862c1.23198,-0.51786 1.23198,-0.51786 2.26325,-1.37251z" fill="#190c20"/><path d="M226.1325,180.55131c-0.0202,0.15433 -0.04041,0.3087 -0.06122,0.46771c-2.11255,-0.04104 -2.11255,-0.04104 -4.26778,-0.08289c0.10374,0.40606 0.20747,0.81209 0.31435,1.23044c0.29561,1.98316 0.09057,3.46998 -0.23662,5.43983c-0.15424,-0.02019 -0.30849,-0.04038 -0.46739,-0.06118c-0.04489,-0.40142 -0.0898,-0.80283 -0.13605,-1.21641c-0.0594,-0.52473 -0.1188,-1.04946 -0.18,-1.59009c-0.05866,-0.52096 -0.11734,-1.04192 -0.17778,-1.57866c-0.11861,-0.96319 -0.27287,-1.92247 -0.45748,-2.87518c1.94212,-0.37714 3.73471,-0.01979 5.66997,0.26642z" fill="#957e92"/><path d="M221.23117,148.98788c-0.18366,1.40313 -0.18366,1.40313 -1.5892,2.60729c-0.5895,0.44497 -1.1822,0.88572 -1.77762,1.32272c-0.30172,0.22635 -0.60345,0.45269 -0.9143,0.6859c-0.74596,0.5588 -1.49559,1.11267 -2.2459,1.6656c-0.28829,-0.19471 -0.57656,-0.38944 -0.87358,-0.59007c0.86909,-0.76133 1.74109,-1.51872 2.61526,-2.27416c0.24721,-0.21723 0.49443,-0.43445 0.74913,-0.65827c0.64403,-0.55391 1.31217,-1.07946 1.98298,-1.60059c0.30849,0.04038 0.61697,0.08075 0.93479,0.12235c0.04041,-0.3087 0.08081,-0.61738 0.12244,-0.93543c0.32869,-0.11396 0.65737,-0.22793 0.996,-0.34535z" fill="#672e85"/><path d="M266.71237,190.1443c1.23839,0.07289 1.23839,0.07289 2.33698,0.30589c0.01283,1.10059 0.02566,2.20119 0.03886,3.33514c-0.48292,0.09378 -0.96585,0.18756 -1.46341,0.28418c0.10101,-0.77172 0.20202,-1.54343 0.30609,-2.33854c-0.7712,-0.10094 -1.5424,-0.20188 -2.33698,-0.30589c0.36908,-0.42264 0.73818,-0.84532 1.11844,-1.28077z" fill="#cc7056"/><path d="M228.39175,174.18692c0.15424,0.02019 0.30849,0.04038 0.46739,0.06118c-0.10101,0.77173 -0.20202,1.54343 -0.30609,2.33854c-3.04441,-0.71246 -6.08882,-1.42491 -9.22548,-2.15896c0.0202,-0.15434 0.04041,-0.3087 0.06122,-0.46771c0.60561,0.05045 1.21122,0.10089 1.83518,0.15287c0.78964,0.06322 1.57929,0.1263 2.36895,0.18928c0.59964,0.05044 0.59964,0.05044 1.21138,0.10188c0.38063,0.02989 0.76127,0.05978 1.15344,0.09058c0.52839,0.043 0.52839,0.043 1.06745,0.08687c0.83827,0.09877 0.83827,0.09877 1.36654,-0.39453z" fill="#7b3f9b"/><path d="M270.35631,216.78594c-0.0202,0.15433 -0.04041,0.3087 -0.06122,0.46771c-0.45266,-0.0016 -0.90533,-0.0032 -1.37172,-0.00487c-0.5965,0.00164 -1.19299,0.0033 -1.80756,0.00498c-0.59014,0.00002 -1.1803,0.00003 -1.78834,0.00006c-1.49648,0.06939 -2.73218,0.27173 -4.15777,0.70828c0.04041,-0.3087 0.08081,-0.61738 0.12244,-0.93543c-0.44253,-0.21489 -0.88503,-0.42981 -1.34097,-0.65122c3.7394,-0.62373 6.77421,-0.76012 10.40514,0.41047z" fill="#874ca7"/><path d="M206.7516,205.13068c0.83901,1.70392 0.78673,2.57111 0.68673,4.40112c-0.01342,1.07162 -0.01342,1.07162 0.79319,2.4527c-0.61697,-0.08075 -1.23393,-0.16151 -1.86958,-0.24471c-0.04942,-0.93741 -0.09421,-1.87506 -0.13694,-2.8128c-0.02541,-0.52211 -0.05085,-1.04424 -0.07703,-1.58219c0.01381,-1.33988 0.01381,-1.33988 0.60364,-2.21411z" fill="#7c4c95"/><path d="M269.39431,191.44678c0.15424,0.02019 0.30849,0.04038 0.4674,0.06118c-0.02612,1.33455 -0.02612,1.33455 -0.36731,2.80625c-1.12191,0.6262 -1.12191,0.6262 -2.52064,1.09723c-0.86767,0.5098 -1.73031,1.0286 -2.58185,1.56496c-0.28828,-0.19471 -0.57656,-0.38945 -0.87357,-0.59005c1.30729,-1.36212 2.29742,-2.36335 4.16769,-2.78455c0.30849,0.04038 0.61697,0.08075 0.93479,0.12235c0.25525,-0.75153 0.51051,-1.50306 0.77348,-2.27737z" fill="#b05c48"/><path d="M212.07176,175.38085c0.11384,0.32888 0.22767,0.65776 0.34496,0.9966c-1.7782,1.36753 -3.37395,2.11778 -5.56988,2.60101c0.06061,-0.46303 0.12121,-0.92607 0.18365,-1.40312c1.12071,-0.61707 1.12071,-0.61707 2.53211,-1.18494c0.46624,-0.19103 0.93247,-0.38202 1.41283,-0.57882c0.36179,-0.14214 0.72357,-0.28427 1.09632,-0.43072z" fill="#23142b"/><path d="M250.71014,167.11802c0.28829,0.19471 0.57656,0.38944 0.87358,0.59006c-1.35077,1.2398 -2.60053,1.53657 -4.37808,1.89477c-0.4856,0.10017 -0.97119,0.20034 -1.47151,0.30356c-0.37042,0.07232 -0.74085,0.14464 -1.12249,0.21915c-0.11384,-0.32889 -0.22768,-0.65775 -0.34496,-0.9966c1.05414,-0.35218 2.11022,-0.69857 3.16712,-1.04235c0.5879,-0.19349 1.1758,-0.38698 1.78151,-0.58633c0.49328,-0.12616 0.98658,-0.25229 1.49481,-0.38227z" fill="#7c3c9d"/><path d="M254.37642,189.95681c-0.06061,0.46303 -0.12121,0.92607 -0.18365,1.40312c-2.87118,1.05136 -2.87118,1.05136 -3.92282,0.91371c0.04041,-0.3087 0.08081,-0.61738 0.12244,-0.93542c-0.28828,-0.19471 -0.57656,-0.38944 -0.87357,-0.59006c0.63384,-0.15681 1.26828,-0.31119 1.90299,-0.46449c0.52987,-0.12934 0.52987,-0.12934 1.07043,-0.26129c0.9494,-0.18792 0.9494,-0.18792 1.8842,-0.06557z" fill="#201227"/><path d="M235.34147,175.57229c0.22767,0.65775 0.45534,1.3155 0.68991,1.99319c-1.04943,1.02307 -2.07043,2.0129 -3.23291,2.9069c-0.28828,-0.19471 -0.57655,-0.38944 -0.87357,-0.59006c0.99106,-1.57272 2.18121,-2.92476 3.41656,-4.31002z" fill="#211427"/><path d="M210.85906,162.85335c0.28828,0.19471 0.57656,0.38945 0.87357,0.59006c-2.04631,2.46756 -2.04631,2.46756 -3.76152,3.31342c0.0606,-0.46302 0.12121,-0.92607 0.18365,-1.40312c-0.28828,-0.19472 -0.57655,-0.38945 -0.87357,-0.59006c0.21485,-0.44284 0.4297,-0.88569 0.65105,-1.34195c-0.0404,0.30869 -0.08081,0.61738 -0.12244,0.93542c1.00625,-0.49624 2.01251,-0.99249 3.04925,-1.50378z" fill="#1c0d24"/><path d="M241.10084,160.62732c0.28828,0.19471 0.57656,0.38944 0.87357,0.59005c-2.09332,1.60987 -4.18662,3.21974 -6.34337,4.87838c0.28052,-2.14317 1.78039,-3.01059 3.41656,-4.31002c1.22867,-0.76088 1.22867,-0.76088 2.05324,-1.15841z" fill="#693087"/><path d="M257.28089,193.1913c-0.18365,1.40312 -0.18365,1.40312 -0.98814,2.11547c-0.33543,0.23573 -0.67086,0.47146 -1.01645,0.71433c-1.30105,0.91826 -1.81999,1.29666 -2.53042,2.76099c-0.30848,-0.04038 -0.61696,-0.08075 -0.93479,-0.12235c0.48984,-2.00185 1.12893,-2.71926 2.87265,-3.78657c0.3737,-0.23316 0.74741,-0.46635 1.13242,-0.70659c0.30892,-0.18769 0.61783,-0.37539 0.93611,-0.56876c0.17445,-0.13414 0.34888,-0.26832 0.52861,-0.40652z" fill="#1e0e22"/><path d="M205.18326,173.52777c0.28829,0.19471 0.57655,0.38945 0.87357,0.59006c-1.74443,1.34154 -3.48886,2.68311 -5.28614,4.06531c-0.28829,-0.19471 -0.57656,-0.38945 -0.87358,-0.59007c3.33274,-3.12357 3.33274,-3.12357 5.28615,-4.06532z" fill="#764192"/><path d="M244.12675,202.88688c-1.95728,1.03104 -3.16007,1.16869 -5.325,0.73017c1.79828,-1.59395 3.15961,-1.75315 5.325,-0.73017z" fill="#c56b52"/><path d="M231.81414,158.93607c-0.0404,0.30869 -0.08081,0.61737 -0.12244,0.93541c-1.32679,0.52119 -1.94271,0.69717 -3.39421,0.50718c0.0404,-0.30869 0.08081,-0.61737 0.12244,-0.93542c-0.92545,-0.12113 -1.85089,-0.24226 -2.80438,-0.36706c0.0202,-0.15433 0.0404,-0.30869 0.06122,-0.4677c0.76001,0.01931 1.51998,0.0397 2.27995,0.06056c0.42322,0.01124 0.84643,0.02248 1.28248,0.03406c1.17275,0.04944 1.17275,0.04944 2.57494,0.23297z" fill="#784b90"/><path d="M254.08298,130.45321c1.36947,1.31603 2.31749,2.30363 2.78203,4.16992c-2.63117,-1.23637 -2.63117,-1.23637 -3.08812,-1.83137c0.08301,-0.78176 0.18414,-1.5619 0.30609,-2.33854z" fill="#c83392"/><path d="M211.0806,204.74586c0.15424,0.02019 0.30848,0.04038 0.46739,0.06118c-0.02417,0.27831 -0.04835,0.55661 -0.07324,0.84337c-0.14606,2.49222 -0.02833,3.95115 1.55316,6.01044c-0.88503,-0.42983 -1.77008,-0.85965 -2.68193,-1.30249c0.24242,-1.85212 0.48485,-3.70425 0.73462,-5.6125z" fill="#ae5844"/><path d="M239.77541,207.07455c0.28828,0.19471 0.57655,0.38944 0.87357,0.59005c-0.17444,0.13415 -0.34889,0.26832 -0.52861,0.40653c0.26807,0.34906 0.53616,0.69813 0.81235,1.05777c-0.96584,0.18756 -1.9317,0.37512 -2.92681,0.56836c0.21485,-0.44283 0.42969,-0.88569 0.65105,-1.34194c-0.44253,-0.2149 -0.88504,-0.42983 -1.34097,-0.65124c1.17512,-0.35164 1.17512,-0.35164 2.45942,-0.62953z" fill="#af5d48"/><path d="M235.55816,188.44514c1.38817,0.1817 2.77633,0.36339 4.20656,0.5506c-0.49303,0.17095 -0.49303,0.17095 -0.996,0.34535c-0.04041,0.3087 -0.08081,0.61738 -0.12244,0.93542c-0.92544,-0.12113 -1.85089,-0.24226 -2.80437,-0.36706c-0.09364,-0.48321 -0.18727,-0.96645 -0.28374,-1.4643z" fill="#7d4d96"/><path d="M205.32805,168.78951c0.09363,0.48322 0.18727,0.96645 0.28374,1.46431c0.44252,0.2149 0.88504,0.42982 1.34097,0.65124c-1.93639,1.17371 -1.93639,1.17371 -2.98803,1.03606c0.08697,-1.11846 0.08697,-1.11846 0.30609,-2.33854c0.34889,-0.26832 0.69778,-0.53662 1.05723,-0.81307z" fill="#663083"/><path d="M247.588,190.97117c0.92545,0.12113 1.85089,0.24226 2.80438,0.36706c-0.21485,0.44283 -0.42969,0.88569 -0.65105,1.34194c-0.94564,0.0332 -1.8913,0.06643 -2.8656,0.10065c0.23505,-0.59718 0.47011,-1.19438 0.71227,-1.80966z" fill="#150a1b"/><path d="M275.08179,158.89069c1.74099,0.48586 2.42288,1.36433 3.43307,2.82797c-0.21484,0.44283 -0.42969,0.88569 -0.65105,1.34194c-0.47673,-0.60606 -0.95152,-1.21362 -1.42545,-1.82187c-0.2646,-0.33819 -0.52919,-0.67637 -0.80181,-1.0248c-0.61598,-0.85553 -0.61598,-0.85553 -0.55476,-1.32325z" fill="#7a3a9b"/><path d="M220.80068,232.18279c-0.08081,0.61738 -0.16162,1.23475 -0.24487,1.87084c-1.07968,-0.14132 -2.15936,-0.28264 -3.27177,-0.42824c1.93918,-1.64907 1.93918,-1.64907 3.51665,-1.4426z" fill="#7a3a9c"/><path d="M228.86982,192.32692c-0.18365,1.40312 -0.18365,1.40312 -0.98806,2.10061c-0.25787,0.17231 -0.51575,0.34459 -0.78144,0.52211c0.11383,0.32887 0.22767,0.65775 0.34496,0.99659c-0.46272,-0.06057 -0.92545,-0.12113 -1.40219,-0.18353c-0.19465,0.28851 -0.38929,0.57701 -0.58983,0.87424c-0.04136,-1.04605 -0.04136,-1.04605 0.30609,-2.33854c0.98166,-0.81831 1.97983,-1.35351 3.11047,-1.97148z" fill="#1d0e24"/><path d="M264.47548,192.70583c1.06937,0.22917 1.06937,0.22917 1.80836,0.71242c-2.29909,1.60381 -2.29909,1.60381 -3.11046,1.97148c-0.44252,-0.2149 -0.88503,-0.42983 -1.34097,-0.65124c1.20851,-1.06086 1.20851,-1.06086 2.64307,-2.03266z" fill="#934739"/><path d="M212.53915,175.44203c0.7712,0.10094 1.5424,0.20188 2.33698,0.30589c-0.0404,0.30869 -0.08081,0.61738 -0.12244,0.93542c-1.18794,0.52452 -1.75443,0.76301 -3.0207,0.37767c-0.25729,-0.13179 -0.51458,-0.26359 -0.77968,-0.39938c0.48292,-0.09377 0.96585,-0.18756 1.46341,-0.28418c0.0404,-0.30869 0.08081,-0.61737 0.12244,-0.93542z" fill="#0a040d"/><path d="M217.0693,140.83159c1.08607,1.66441 1.79655,3.09186 2.1922,5.04415c-1.34097,-0.65123 -1.34097,-0.65123 -1.98814,-1.83605c-0.44893,-1.33725 -0.44893,-1.33725 -0.20406,-3.2081z" fill="#5e1847"/><path d="M224.65356,133.73702c3.48168,0.22152 3.48168,0.22152 4.78522,1.57779c0.19095,0.33896 0.38192,0.67794 0.57865,1.02718c-1.05948,-0.29565 -2.11896,-0.59134 -3.21055,-0.89595c0.0404,-0.30869 0.08081,-0.61738 0.12244,-0.93543c-0.7712,-0.10094 -1.5424,-0.20188 -2.33698,-0.30589c0.0202,-0.15432 0.0404,-0.30868 0.06122,-0.4677z" fill="#f340b8"/><path d="M238.87948,210.28734c-1.67073,1.12939 -2.91749,1.29294 -4.91884,1.25907c1.39992,-1.24934 3.19765,-2.42165 4.91884,-1.25907z" fill="#99493a"/><path d="M251.74987,199.12745c-0.04041,0.3087 -0.08081,0.61738 -0.12244,0.93542c0.28829,0.19472 0.57656,0.38945 0.87357,0.59006c-0.98604,0.34189 -0.98604,0.34189 -1.99202,0.69071c0.04041,-0.3087 0.08081,-0.61738 0.12244,-0.93542c-0.7914,0.0534 -1.58282,0.1068 -2.39819,0.16182c0.86526,-1.28248 1.99295,-1.64204 3.51665,-1.4426z" fill="#9c5442"/><path d="M248.21672,193.43207c-0.0606,0.46302 -0.12121,0.92607 -0.18365,1.40312c-1.23393,-0.16151 -2.46785,-0.32302 -3.73917,-0.48942c1.04336,-1.54645 2.19171,-1.14029 3.92282,-0.9137z" fill="#8e57ab"/><path d="M218.82228,131.07087c1.85089,0.24226 3.70178,0.48452 5.60875,0.73413c-0.0202,0.15433 -0.04041,0.3087 -0.06122,0.46772c-1.8913,0.06641 -3.78258,0.13285 -5.73118,0.20128c0.06061,-0.46303 0.12121,-0.92606 0.18366,-1.40313z" fill="#551640"/><path d="M257.38097,196.05873c0.28828,0.19471 0.57656,0.38945 0.87358,0.59007c-0.8456,1.06673 -0.8456,1.06673 -1.70828,2.15501c-0.44253,-0.2149 -0.88503,-0.42982 -1.34097,-0.65124c1.05516,-1.70531 1.05516,-1.70531 2.17567,-2.09383z" fill="#c46b52"/><path d="M254.59894,191.88883c0.44252,0.21491 0.88504,0.42982 1.34097,0.65124c-1.53969,0.97589 -1.53969,0.97589 -3.11047,1.97148c-0.26807,-0.34906 -0.53615,-0.69813 -0.81235,-1.05778c1.20711,-0.82318 1.20711,-0.82318 2.58185,-1.56495z" fill="#22112b"/><path d="M209.55696,165.53726c-0.18365,1.40312 -0.18365,1.40312 -0.99764,2.06034c-0.33562,0.20442 -0.67124,0.40885 -1.01704,0.61949c-0.3361,0.20806 -0.67219,0.41609 -1.01846,0.63044c-0.26057,0.15539 -0.52113,0.31076 -0.78959,0.47087c0.9016,-1.98415 1.91258,-2.76737 3.82274,-3.78113z" fill="#794395"/><path d="M234.45138,167.84424c0.28374,1.4643 0.28374,1.4643 -0.19689,2.41231c-0.69903,0.80048 -0.69903,0.80048 -2.16244,1.08465c0.45866,-1.69421 0.85758,-2.55413 2.35933,-3.49696z" fill="#6f348e"/><path d="M232.9938,157.18758c0.07344,0.63756 0.14686,1.27513 0.22252,1.93202c-2.7564,0.17439 -2.7564,0.17439 -3.73917,-0.48942c1.16049,-0.47606 2.32098,-0.95212 3.51665,-1.4426z" fill="#69417e"/><path d="M212.85107,162.16265c0.28829,0.19471 0.57656,0.38944 0.87358,0.59006c-0.43995,0.86413 -0.43995,0.86413 -1.17967,1.74849c-1.27283,0.19019 -1.27283,0.19019 -2.39819,0.16181c0.89242,-0.82513 1.78483,-1.65024 2.70428,-2.50036z" fill="#15091b"/><path d="M215.24928,162.00083c0.44252,0.21491 0.88503,0.42983 1.34097,0.65124c-0.9136,0.62373 -0.9136,0.62373 -2.05324,1.15841c-1.03251,-0.28381 -1.03251,-0.28381 -1.80836,-0.71242c1.1765,-0.58931 1.1765,-0.58931 2.52064,-1.09723z" fill="#0b040f"/><path d="M216.60774,129.82958c0.28829,0.19471 0.57656,0.38945 0.87358,0.59007c-0.89242,0.82513 -1.78484,1.65024 -2.70428,2.50036c-0.09364,-0.4832 -0.18728,-0.96644 -0.28374,-1.46429c0.69778,-0.53663 1.39554,-1.07325 2.11446,-1.62613z" fill="#010001"/><path d="M278.33507,232.10192c0.26808,0.34907 0.53616,0.69814 0.81236,1.05779c-0.30849,-0.04038 -0.61697,-0.08075 -0.9348,-0.12236c0.04041,-0.3087 0.08081,-0.61738 0.12244,-0.93543z" fill="#000000"/><path d="M192.90269,183.81342c0.87357,0.59006 0.87357,0.59006 0.87357,0.59006z" fill="#000000"/></g></g></svg>