<svg version="1.1" xmlns="http://www.w3.org/2000/svg" xmlns:xlink="http://www.w3.org/1999/xlink" width="199.92784" height="123.47533" viewBox="0,0,199.92784,123.47533"><g transform="translate(-139.50955,-131.3924)"><g data-paper-data="{&quot;isPaintingLayer&quot;:true}" fill-rule="nonzero" stroke="none" stroke-width="1" stroke-linecap="butt" stroke-linejoin="miter" stroke-miterlimit="10" stroke-dasharray="" stroke-dashoffset="0" style="mix-blend-mode: normal"><path d="M167.71341,162.98913c0.26531,-0.15605 0.52865,-0.31408 0.80187,-0.47401c0.77416,-0.45842 1.55223,-0.91287 2.32832,-1.36537c0.23164,-0.13457 0.46327,-0.26914 0.70086,-0.40959c1.33433,-0.76837 2.67371,-1.42435 4.0857,-2.03849c0.46899,-0.24349 0.93406,-0.49095 1.39721,-0.74434c2.83784,-1.49625 5.77274,-2.79481 8.69208,-4.12106c0.19384,-0.08947 0.39162,-0.17892 0.59139,-0.27033c1.88886,-0.85758 3.79455,-1.59482 5.75307,-2.28248c1.0219,-0.37805 2.02243,-0.79763 3.02309,-1.23298c1.71648,-0.7384 3.4536,-1.34069 5.23574,-1.90131c0.98992,-0.31911 1.96626,-0.66788 2.9427,-1.02848c1.40333,-0.5117 2.81008,-0.95637 4.25001,-1.3555c1.13576,-0.31822 2.26382,-0.66014 3.39385,-1.00008c0.21731,-0.06568 0.43856,-0.13132 0.66181,-0.19893c1.1083,-0.33416 2.21661,-0.67226 3.32299,-1.01235c3.47717,-1.07051 6.96709,-2.00497 10.54571,-2.67869c0.32571,-0.06305 0.65141,-0.12607 0.98697,-0.19102l0.3912,0.39662c0.14847,-0.08385 0.29694,-0.16768 0.44936,-0.25544c1.35371,-0.72487 2.32225,-1.08551 3.89571,-0.90039c0.25918,0.13168 0.51835,0.26336 0.78539,0.39904l0.39719,-0.39176c1.12847,0.12325 2.23621,0.38039 3.34611,0.61192c0.23878,0.04878 0.47887,0.09887 0.72026,0.15028c2.15073,0.47645 4.06376,1.3673 6.03741,2.31965c0.46155,0.21768 0.92513,0.42551 1.3947,0.62354c1.02731,0.46557 1.95104,1.07637 2.90243,1.67551c0.46953,0.29067 0.93552,0.52743 1.39799,0.71029c0.89768,0.40566 1.67414,0.94262 2.47004,1.51123c0.16861,0.1193 0.33524,0.24056 0.50775,0.36383c1.38195,1.00387 2.71023,2.06853 4.02248,3.16462c0.18215,0.15288 0.36627,0.30382 0.55428,0.46266c3.1766,2.68834 5.70954,5.7807 7.6228,9.4921c0.16447,-0.11529 0.33094,-0.23252 0.49939,-0.35172c0.71296,-0.445 1.40114,-0.74429 2.18202,-1.04893c2.66893,-1.0558 5.31644,-2.14524 7.90984,-3.37692c1.5845,-0.74908 3.19577,-1.39155 4.83257,-2.02009c1.28903,-0.51634 2.53921,-1.10388 3.79144,-1.70521c0.96726,-0.44936 1.94606,-0.86315 2.92878,-1.27298c4.44118,-1.86877 8.88052,-3.75921 13.05775,-6.16966c0.16826,-0.09554 0.3385,-0.19304 0.5127,-0.29052c2.24088,-1.27129 4.35451,-2.65573 6.42008,-4.20012c0.23568,-0.15031 0.46938,-0.29867 0.713,-0.45289c0.78717,-0.61209 1.18597,-1.21669 1.69703,-2.06896c1.82848,-3.02805 3.94777,-5.1575 7.45172,-6.12143c0.21522,-0.05189 0.42851,-0.10576 0.65168,-0.16155c0.31406,-0.09069 0.62621,-0.18339 0.95016,-0.27599c0.20723,-0.03617 0.41642,-0.07037 0.62959,-0.10847l0.39119,0.39661l0.39719,-0.39175l0.39119,0.39661c0.17004,-0.06859 0.34138,-0.13718 0.51403,-0.20576c2.25354,-0.60304 5.78349,0.97778 7.7762,2.01696c2.65506,1.54784 4.74573,3.69928 6.79813,5.96283c0.27247,0.28419 0.58731,0.52528 0.94453,0.72327c0.6592,0.40615 0.75606,0.8857 1.0246,1.60284c0.70487,1.65605 1.75049,2.82343 2.9746,4.1082c0.36698,0.47006 0.59235,0.89981 0.67612,1.28928c-0.08975,0.39891 -0.27381,0.84388 -0.55218,1.33491c-0.48904,1.06529 -0.35548,1.6456 -0.12758,2.7823c0.11568,0.59794 0.2215,1.19778 0.30759,1.80144l-0.39719,0.39175c0.06372,0.17188 0.12746,0.34376 0.19316,0.5176c0.35912,1.24593 0.12724,2.19058 -0.22313,3.42426c-0.09129,0.34042 -0.18455,0.6828 -0.27788,1.03306c-0.10932,0.37777 -0.21863,0.75553 -0.32988,1.13132c-0.05666,0.1928 -0.11136,0.38761 -0.17003,0.58631c-0.97378,3.12398 -3.25593,5.9344 -6.1145,7.56455c-3.59857,1.48368 -7.41296,1.53707 -11.12769,0.41237l-0.39119,-0.39661c-0.06814,0.14545 -0.13821,0.28889 -0.2103,0.43825c-1.81883,2.53731 -7.20621,3.64141 -10.10943,4.40405c-0.79803,0.22766 -1.58053,0.48696 -2.36899,0.75213c-3.09455,1.04133 -6.24315,1.92862 -9.4508,2.54943l-0.3912,-0.39662c-0.15069,0.11732 -0.30333,0.23268 -0.458,0.35393c-0.94636,0.55394 -1.8368,0.75146 -2.90309,1.00507l-0.39119,-0.39661c-0.18048,0.14671 -0.36094,0.28948 -0.54539,0.44012c-1.022,0.65202 -2.06314,0.96687 -3.2129,1.31065c-0.54338,0.176 -1.08675,0.35203 -1.63014,0.53198c-1.04329,0.34046 -2.0866,0.68094 -3.13377,1.0135c-0.20748,0.06772 -0.41494,0.13148 -0.62833,0.20113c-0.40306,0.12761 -0.80812,0.25716 -1.21117,0.38477c-1.33767,0.43129 -2.59724,0.95768 -3.87107,1.54903l-0.3912,-0.39662c-0.16645,0.11723 -0.33357,0.23512 -0.50136,0.35366c-0.7149,0.44301 -1.38911,0.71677 -2.18359,0.99571c-0.27474,0.09883 -0.55339,0.19764 -0.83603,0.30036c-0.27273,0.09687 -0.54942,0.19371 -0.83007,0.29449c-0.4862,0.17439 -0.97243,0.35273 -1.45671,0.53306c-0.20555,0.07362 -0.41112,0.15121 -0.6226,0.22677c-0.34127,0.12273 -0.63713,0.32326 -0.8876,0.60161c0.03395,0.37339 0.09665,0.76798 0.1881,1.18377c0.09145,0.41579 0.15416,0.81039 0.18811,1.18378l-0.39719,0.39175l0.39119,0.39661l-0.39719,0.39175c0.2572,0.39184 0.51439,0.7837 0.77938,1.18742l-0.39719,0.39175l0.39119,0.39661l-0.39719,0.39176c0.07156,0.1798 0.14313,0.35961 0.2186,0.54337c0.11107,0.42774 0.03321,0.90359 -0.23357,1.42755c0.12811,0.26095 0.2562,0.52192 0.3882,0.7908c-0.06425,0.84583 -0.26583,1.43589 -0.60476,1.77019c0.06849,0.15153 0.13763,0.30372 0.20743,0.45658c0.24862,1.00281 0.09021,1.875 -0.0358,2.89521c0.00451,0.18333 0.00705,0.36863 0.00955,0.55786c-0.02569,0.78825 -0.20249,1.48688 -0.40342,2.24843c-0.07109,0.27748 -0.14218,0.55494 -0.21334,0.84032c-0.14407,0.4577 -0.34851,0.81713 -0.61331,1.0783l0.39119,0.39661c-1.04235,3.67281 -2.04729,6.22895 -3.01484,7.66841l0.39119,0.39661c-0.09387,0.16301 -0.18775,0.32603 -0.28563,0.4969c-0.53011,0.93757 -0.99016,1.90645 -1.38014,2.90664c-0.46089,1.25271 -1.18228,2.28895 -1.92002,3.40001c-0.29995,0.39236 -0.43929,0.74497 -0.418,1.05783c-0.25486,0.33745 -0.52739,0.66493 -0.80183,0.98648c-0.17302,0.20195 -0.34604,0.4039 -0.52107,0.61175c-0.18691,0.21566 -0.37187,0.43329 -0.56674,0.65679c-0.18893,0.22157 -0.37983,0.44114 -0.57471,0.66859c-0.57071,0.66071 -1.13943,1.31948 -1.7121,1.9782c-0.1571,0.18234 -0.3142,0.36467 -0.47922,0.5509c-2.53588,2.91332 -4.42626,4.49097 -5.67117,4.73296c-0.33659,0.19897 -0.67011,0.42621 -1.00056,0.68172c-0.18764,0.13813 -0.37661,0.27756 -0.5669,0.4183c-0.19426,0.14466 -0.38656,0.29131 -0.58676,0.4379c-1.1656,0.87189 -2.22008,1.64591 -3.58802,2.16967c-0.57234,0.35717 -1.11926,0.74013 -1.67409,1.12697c-0.99018,0.61279 -2.02673,1.10311 -3.07716,1.60319c-0.21165,0.09922 -0.42334,0.20238 -0.64092,0.30353c-0.65874,0.31327 -1.31943,0.62457 -1.98013,0.93586c-1.50536,0.71015 -3.00485,1.42625 -4.48884,2.17792c-1.05455,0.52371 -2.08839,0.91745 -3.21249,1.25545c-0.56913,0.1936 -1.06574,0.44086 -1.59416,0.7234c-1.74722,0.89394 -3.64339,1.41443 -5.51047,2.00015c-0.78241,0.24747 -1.56489,0.50282 -2.34541,0.76015c-0.39518,0.12765 -0.79038,0.25924 -1.18556,0.3869l-0.39119,-0.39661c-0.5233,0.38704 -1.0466,0.77407 -1.58574,1.17285l-0.3912,-0.39662c-0.84835,0.45073 -1.70592,0.90536 -2.57272,1.36386l-0.39119,-0.39661c-0.39224,0.25775 -0.78445,0.51552 -1.18856,0.78108l-0.39119,-0.39661c-0.18442,0.1467 -0.36884,0.29339 -0.5592,0.44201c-0.95275,0.615 -1.91516,0.94612 -2.99186,1.27258c-0.19099,0.06059 -0.38461,0.12115 -0.58086,0.1817c-0.46824,0.14494 -0.93647,0.28988 -1.40667,0.43283l-0.39119,-0.39661c-0.15066,0.1134 -0.30132,0.22679 -0.45794,0.34605c-0.92666,0.55406 -1.89281,0.85755 -2.91621,1.1745c-0.42284,0.13536 -0.84368,0.26877 -1.26651,0.40414c-0.21337,0.06571 -0.42678,0.13534 -0.64608,0.20298c-1.00568,0.31903 -2.00947,0.64791 -3.01326,0.97681l-1.77835,0.58035l-0.39119,-0.39661c-0.58783,0.3216 -1.17568,0.64319 -1.78134,0.97453l-0.3912,-0.39662c-0.17149,0.0883 -0.34431,0.17791 -0.51845,0.26882c-0.96849,0.35275 -1.86029,0.46946 -2.8763,0.59132c-0.74384,0.09988 -1.47218,0.23534 -2.20658,0.3885c-1.32065,0.26583 -2.64057,0.43707 -3.98,0.58058c-0.56029,0.06751 -1.1149,0.1646 -1.67154,0.27155l-0.3912,-0.39662c-0.1562,0.06409 -0.30846,0.12818 -0.47058,0.19421c-0.91445,0.24468 -1.74193,0.19622 -2.68593,0.18055c-0.32486,0.03873 -0.65366,0.07744 -0.9864,0.11612c-0.26035,0.02204 -0.5207,0.04409 -0.78895,0.07004l-0.3912,-0.39662l-0.39719,0.39176c-0.14738,-0.05807 -0.29478,-0.11614 -0.44611,-0.17424c-1.00439,-0.37083 -1.77902,-0.62788 -2.86117,-0.62076c-1.44063,-0.02662 -2.63131,-0.52276 -3.9698,-1.0218c-1.10871,-0.38921 -2.19187,-0.7684 -3.34312,-1.00611c-0.40037,-0.22716 -0.79874,-0.45628 -1.19511,-0.6913c-0.38732,-0.21525 -0.80894,-0.41101 -1.26489,-0.58728c-8.27048,-3.37212 -15.68338,-10.65736 -20.04569,-18.38502c-0.10306,-0.18394 -0.20812,-0.36593 -0.31705,-0.55581c-1.3711,-2.43083 -2.58821,-4.8962 -3.62697,-7.4866c-0.08899,-0.22131 -0.17794,-0.44655 -0.27081,-0.67576c-0.40981,-1.05899 -0.70223,-2.00294 -0.82173,-3.13701c-0.13867,-0.42659 -0.2892,-0.84932 -0.44762,-1.2721c-1.03107,-3.08312 -1.56112,-6.73474 -1.63504,-9.97555l0.39719,-0.39176l-0.3912,-0.39662l0.39719,-0.39175c-0.10532,-0.1465 -0.20866,-0.29497 -0.3179,-0.44544c-0.08733,-0.17989 -0.17664,-0.35784 -0.26589,-0.54366c0.13206,-0.25936 0.26412,-0.51873 0.40018,-0.78595c-0.1281,-0.26096 -0.2562,-0.52192 -0.3882,-0.7908c0.02658,-0.55829 0.08041,-1.15781 0.16151,-1.79855c0.03788,-0.31644 0.0758,-0.63682 0.11374,-0.96115c0.09727,-0.52369 0.27831,-0.91613 0.54309,-1.1773l-0.39119,-0.39661l0.39719,-0.39175c-0.06573,-0.16992 -0.13343,-0.33786 -0.20108,-0.51371c-0.47369,-1.73151 0.27861,-3.72155 0.79784,-5.38779c0.24461,-0.80464 0.46361,-1.61141 0.68265,-2.42213c0.40356,-1.48958 0.80486,-2.94171 1.50918,-4.32497c0.35227,-0.7074 0.64555,-1.43092 0.94676,-2.1623c0.24089,-0.57405 0.48373,-1.14613 0.72857,-1.72015c0.10038,-0.23985 0.20078,-0.48362 0.30321,-0.73332c4.16365,-9.44314 13.80386,-15.38747 22.3274,-20.41428z" fill="#840ea0"/><path d="M223.80893,141.46655c15.90002,-4.79742 34.87792,11.57926 42.38831,36.57831c7.51039,24.99907 0.70925,49.15389 -15.19077,53.95131c-15.90001,4.79741 -34.87792,-11.57926 -42.3883,-36.57833c-7.5104,-24.99906 -0.70925,-49.15388 15.19076,-53.95129z" fill="#5c0072"/><path d="M167.45419,163.12353c0.26531,-0.15604 0.52865,-0.31407 0.80187,-0.47401c0.77416,-0.45842 1.55223,-0.91287 2.32833,-1.36537c0.23162,-0.13457 0.46326,-0.26915 0.70086,-0.40959c1.33432,-0.76836 2.67371,-1.42435 4.0857,-2.03849c0.46899,-0.24349 0.93407,-0.49094 1.39721,-0.74433c2.83785,-1.49626 5.77274,-2.79483 8.69208,-4.12108c0.19384,-0.08947 0.39163,-0.17892 0.5914,-0.27033c1.88885,-0.85759 3.79454,-1.59483 5.75307,-2.28248c1.0219,-0.37804 2.02244,-0.79762 3.02309,-1.23297c1.71647,-0.73842 3.4536,-1.3407 5.23574,-1.90131c0.98991,-0.31912 1.96626,-0.66789 2.9427,-1.02849c1.40333,-0.5117 2.81008,-0.95637 4.25001,-1.35549c1.13576,-0.31822 2.26383,-0.66014 3.39386,-1.00009c0.21731,-0.06568 0.43856,-0.13132 0.66181,-0.19893c1.1083,-0.33416 2.21661,-0.67226 3.32299,-1.01235c3.47717,-1.07052 6.96711,-2.00497 10.54572,-2.67867c0.32569,-0.06304 0.6514,-0.12609 0.98697,-0.19102l0.39119,0.39661c0.14847,-0.08385 0.29694,-0.16768 0.44936,-0.25544c1.35369,-0.72488 2.32225,-1.08551 3.8957,-0.90041c0.25918,0.13168 0.51836,0.26336 0.78539,0.39904l0.39719,-0.39176c1.12847,0.12325 2.2362,0.38039 3.34613,0.61192c0.23878,0.04878 0.47887,0.09887 0.72026,0.15028c2.15072,0.47645 4.06374,1.36731 6.03741,2.31965c0.46154,0.21768 0.92512,0.42552 1.3947,0.62354c1.02731,0.46559 1.95103,1.07639 2.90244,1.67552c0.46952,0.29066 0.93551,0.52743 1.39797,0.7103c0.89767,0.40565 1.67413,0.94261 2.47006,1.51122c0.1686,0.1193 0.33521,0.24056 0.50773,0.36381c1.38195,1.00389 2.71022,2.06854 4.02249,3.16463c0.18213,0.1529 0.36628,0.30382 0.55429,0.46266c3.17659,2.68833 5.70952,5.78071 7.62279,9.4921c0.16447,-0.11527 0.33092,-0.23251 0.49938,-0.3517c0.71296,-0.445 1.40115,-0.74431 2.18203,-1.04895c2.66893,-1.05579 5.31643,-2.14522 7.90983,-3.37691c1.5845,-0.74908 3.19579,-1.39156 4.83257,-2.02009c1.28904,-0.51634 2.53922,-1.1039 3.79145,-1.70522c0.96726,-0.44936 1.94607,-0.86315 2.92879,-1.27297c4.44115,-1.86876 8.88052,-3.75921 13.05773,-6.16966c0.16826,-0.09554 0.33851,-0.19306 0.5127,-0.29052c2.24088,-1.27129 4.35451,-2.65573 6.42008,-4.20012c0.23569,-0.15032 0.46939,-0.29866 0.713,-0.45289c0.78717,-0.61209 1.18597,-1.21669 1.69705,-2.06897c1.82848,-3.02805 3.94777,-5.1575 7.45171,-6.12141c0.21524,-0.05189 0.42851,-0.10577 0.65168,-0.16155c0.31409,-0.0907 0.62621,-0.18339 0.95018,-0.27601c0.20722,-0.03617 0.41641,-0.07035 0.62958,-0.10846l0.3912,0.39662l0.39719,-0.39175l0.39119,0.39661c0.17003,-0.06859 0.34137,-0.13718 0.51402,-0.20576c2.25356,-0.60305 5.7835,0.97776 7.7762,2.01696c2.65506,1.54784 4.74574,3.69928 6.79813,5.96283c0.27246,0.2842 0.58732,0.52529 0.94453,0.72327c0.6592,0.40615 0.75607,0.88571 1.0246,1.60284c0.70487,1.65605 1.75049,2.82343 2.9746,4.1082c0.36699,0.47005 0.59236,0.89981 0.67612,1.28928c-0.08976,0.39889 -0.27381,0.84386 -0.55216,1.33491c-0.48905,1.06529 -0.35548,1.6456 -0.12759,2.78231c0.11569,0.59792 0.22151,1.19777 0.30759,1.80142l-0.39719,0.39175c0.06374,0.17188 0.12748,0.34375 0.19319,0.5176c0.3591,1.24594 0.12723,2.19059 -0.22314,3.42426c-0.0913,0.34043 -0.18456,0.68281 -0.27789,1.03307c-0.10932,0.37777 -0.21863,0.75553 -0.32987,1.1313c-0.05665,0.19281 -0.11135,0.38762 -0.17003,0.58633c-0.97379,3.12398 -3.25593,5.93438 -6.1145,7.56455c-3.59857,1.48368 -7.41295,1.53707 -11.12769,0.41237l-0.3912,-0.39662c-0.06813,0.14544 -0.1382,0.28888 -0.21029,0.43824c-1.81884,2.53732 -7.20621,3.64141 -10.10944,4.40406c-0.79803,0.22766 -1.58053,0.48696 -2.36899,0.75213c-3.09456,1.04134 -6.24313,1.9286 -9.45079,2.54943l-0.39119,-0.39661c-0.15069,0.11733 -0.30334,0.23268 -0.458,0.35393c-0.94637,0.55394 -1.83683,0.75146 -2.90311,1.00508l-0.3912,-0.39662c-0.18048,0.14671 -0.36093,0.28948 -0.54537,0.44012c-1.02202,0.65202 -2.06315,0.96689 -3.2129,1.31065c-0.54337,0.17601 -1.08675,0.35203 -1.63016,0.53199c-1.04328,0.34046 -2.08659,0.68094 -3.13376,1.01351c-0.20748,0.0677 -0.41492,0.13147 -0.62832,0.20111c-0.40306,0.12761 -0.80811,0.25716 -1.21117,0.38477c-1.33768,0.4313 -2.59724,0.95768 -3.87107,1.54903l-0.39119,-0.39661c-0.16646,0.11724 -0.33357,0.23513 -0.50137,0.35366c-0.71491,0.44302 -1.38911,0.71677 -2.1836,0.99572c-0.27472,0.09882 -0.55339,0.19763 -0.83603,0.30036c-0.27272,0.09687 -0.54942,0.19371 -0.83006,0.29448c-0.4862,0.17439 -0.97243,0.35273 -1.45671,0.53306c-0.20554,0.07362 -0.41112,0.1512 -0.6226,0.22678c-0.34126,0.12273 -0.63713,0.32327 -0.8876,0.60161c0.03396,0.37339 0.09666,0.76798 0.18811,1.18378c0.09145,0.41578 0.15415,0.81038 0.18811,1.18376l-0.39719,0.39175l0.39119,0.39661l-0.39719,0.39176c0.25721,0.39184 0.5144,0.78369 0.7794,1.18741l-0.39719,0.39175l0.39119,0.39661l-0.39719,0.39176c0.07156,0.1798 0.14313,0.35961 0.2186,0.54337c0.11106,0.42774 0.03321,0.90359 -0.23358,1.42755c0.1281,0.26096 0.2562,0.52192 0.3882,0.7908c-0.06425,0.84583 -0.26584,1.4359 -0.60478,1.7702c0.06849,0.15153 0.13764,0.30372 0.20744,0.45658c0.24861,1.00282 0.09021,1.87499 -0.0358,2.89521c0.00451,0.18333 0.00705,0.36863 0.00955,0.55786c-0.02569,0.78825 -0.20249,1.48688 -0.40341,2.24843c-0.0711,0.27747 -0.14218,0.55494 -0.21336,0.84031c-0.14408,0.45771 -0.34851,0.81714 -0.6133,1.07832l0.39119,0.39661c-1.04234,3.67282 -2.04729,6.22895 -3.01484,7.66841l0.3912,0.39662c-0.09387,0.16301 -0.18776,0.32603 -0.28563,0.4969c-0.53011,0.93757 -0.99016,1.90645 -1.38014,2.90664c-0.4609,1.2527 -1.18229,2.28896 -1.92001,3.40002c-0.29995,0.39236 -0.43929,0.74497 -0.41801,1.05783c-0.25485,0.33744 -0.52738,0.66492 -0.80183,0.98648c-0.17302,0.20195 -0.34603,0.4039 -0.52106,0.61176c-0.18691,0.21566 -0.37188,0.43329 -0.56673,0.65679c-0.18894,0.22156 -0.37984,0.44114 -0.57473,0.66858c-0.57071,0.66071 -1.13943,1.31948 -1.7121,1.97822c-0.1571,0.18234 -0.3142,0.36467 -0.47922,0.5509c-2.53587,2.91332 -4.42626,4.49097 -5.67117,4.73296c-0.3366,0.19898 -0.67011,0.42622 -1.00056,0.68173c-0.18764,0.13813 -0.37661,0.27756 -0.56689,0.41831c-0.19426,0.14465 -0.38656,0.2913 -0.58675,0.43789c-1.1656,0.87189 -2.22008,1.64592 -3.58802,2.16967c-0.57234,0.35717 -1.11926,0.74013 -1.67409,1.12696c-0.99018,0.61279 -2.02673,1.10311 -3.07715,1.6032c-0.21166,0.09922 -0.42335,0.20237 -0.64093,0.30353c-0.65874,0.31327 -1.31943,0.62458 -1.98012,0.93586c-1.50536,0.71014 -3.00485,1.42625 -4.48884,2.17791c-1.05454,0.52371 -2.0884,0.91745 -3.21249,1.25545c-0.56914,0.1936 -1.06574,0.44086 -1.59416,0.7234c-1.74722,0.89394 -3.64338,1.41443 -5.51047,2.00015c-0.78241,0.24747 -1.56489,0.50282 -2.3454,0.76017c-0.39518,0.12765 -0.79039,0.25924 -1.18556,0.3869l-0.3912,-0.39662c-0.5233,0.38704 -1.04659,0.77408 -1.58574,1.17285l-0.3912,-0.39662c-0.84835,0.45073 -1.70592,0.90536 -2.57271,1.36387l-0.3912,-0.39662c-0.39223,0.25776 -0.78445,0.51552 -1.18856,0.78109l-0.39119,-0.39661c-0.18442,0.1467 -0.36885,0.29338 -0.5592,0.44201c-0.95275,0.615 -1.91516,0.94612 -2.99185,1.27258c-0.19099,0.06059 -0.38462,0.12115 -0.58087,0.1817c-0.46824,0.14494 -0.93647,0.28988 -1.40667,0.43285l-0.39119,-0.39661c-0.15066,0.11339 -0.30132,0.22678 -0.45794,0.34606c-0.92667,0.55406 -1.89281,0.85755 -2.91621,1.1745c-0.42283,0.13537 -0.84368,0.26877 -1.26651,0.40414c-0.21337,0.06571 -0.42678,0.13534 -0.64607,0.20298c-1.00569,0.31902 -2.00947,0.64791 -3.01327,0.97679l-1.77835,0.58035l-0.39119,-0.39661c-0.58784,0.32159 -1.17569,0.64318 -1.78134,0.97453l-0.39119,-0.39661c-0.17149,0.0883 -0.34431,0.1779 -0.51845,0.26881c-0.9685,0.35275 -1.86029,0.46946 -2.87631,0.59131c-0.74384,0.09989 -1.47218,0.23534 -2.20657,0.3885c-1.32065,0.26583 -2.64057,0.43707 -3.98001,0.58057c-0.56028,0.06751 -1.11489,0.16462 -1.67154,0.27156l-0.3912,-0.39662c-0.1562,0.06409 -0.30845,0.12819 -0.47058,0.19421c-0.91445,0.2447 -1.74193,0.19622 -2.68593,0.18055c-0.32486,0.03873 -0.65366,0.07744 -0.9864,0.11612c-0.26034,0.02205 -0.52069,0.0441 -0.78895,0.07004l-0.3912,-0.39662l-0.39719,0.39176c-0.14738,-0.05807 -0.29477,-0.11613 -0.4461,-0.17422c-1.00439,-0.37083 -1.77902,-0.6279 -2.86118,-0.62076c-1.44063,-0.02662 -2.63131,-0.52276 -3.97176,-1.02378c-1.10871,-0.38921 -2.19187,-0.7684 -3.34313,-1.00612c-0.40036,-0.22716 -0.79874,-0.45628 -1.19511,-0.6913c-0.38731,-0.21526 -0.80895,-0.41102 -1.26488,-0.58727c-8.28436,-3.36235 -15.69726,-10.64759 -20.0576,-18.37326c-0.10307,-0.18394 -0.20813,-0.36593 -0.31705,-0.55581c-1.37111,-2.43084 -2.58821,-4.8962 -3.62698,-7.48661c-0.08898,-0.22129 -0.17794,-0.44655 -0.2708,-0.67575c-0.40981,-1.059 -0.70224,-2.00294 -0.82174,-3.13702c-0.13867,-0.42659 -0.2892,-0.84932 -0.44761,-1.27209c-1.03107,-3.08312 -1.56112,-6.73474 -1.63505,-9.97557l0.39719,-0.39176l-0.39119,-0.39661l0.39719,-0.39176c-0.10532,-0.1465 -0.20866,-0.29497 -0.31789,-0.44543c-0.08733,-0.17991 -0.17665,-0.35785 -0.2659,-0.54367c0.13206,-0.25936 0.26412,-0.51872 0.40018,-0.78595c-0.12811,-0.26096 -0.2562,-0.52192 -0.3882,-0.7908c0.02658,-0.55829 0.08042,-1.15781 0.1615,-1.79854c0.03788,-0.31644 0.0758,-0.63683 0.11374,-0.96116c0.09727,-0.52369 0.27831,-0.91613 0.54309,-1.1773l-0.39119,-0.39661l0.39719,-0.39176c-0.06573,-0.16991 -0.13343,-0.33786 -0.20108,-0.5137c-0.47369,-1.73151 0.27861,-3.72155 0.79783,-5.3878c0.24461,-0.80465 0.46361,-1.61141 0.68265,-2.42213c0.40356,-1.48957 0.80486,-2.94171 1.50918,-4.32497c0.35228,-0.7074 0.64555,-1.43092 0.94677,-2.16229c0.24088,-0.57405 0.48372,-1.14613 0.72856,-1.72016c0.10038,-0.23985 0.20079,-0.48363 0.30321,-0.73332c4.16365,-9.44314 13.80386,-15.38747 22.3274,-20.41428zM148.16671,185.27724l0.3912,0.39662c-0.15655,0.19614 -0.31376,0.39424 -0.47165,0.59431c-0.20106,0.26091 -0.40212,0.52181 -0.61112,0.79055c-0.20103,0.25697 -0.40206,0.51393 -0.60908,0.78071c-0.51065,0.79709 -0.59876,1.24002 -0.70625,2.15589c-0.20793,0.38767 -0.4369,0.77652 -0.6869,1.16656c-0.72506,1.25896 -0.90084,2.34391 -1.03196,3.77603c-0.09431,0.73855 -0.27231,1.33665 -0.5397,2.02682c-0.39223,1.03631 -0.33076,1.76598 -0.18147,2.87066c-0.07545,0.33264 -0.15091,0.66528 -0.22842,1.00775c-0.17954,0.62831 -0.13457,1.19559 0.1349,1.70182c0.08709,0.21144 0.17613,0.42486 0.26515,0.64221c-0.1274,0.16478 -0.25614,0.33218 -0.3862,0.5022c-0.59678,0.97986 -0.35811,1.73427 -0.18514,2.83516c0.06519,0.413 0.24466,0.7459 0.53839,0.99868c-0.07802,0.15129 -0.15602,0.29863 -0.23801,0.45384c-0.20185,0.88375 0.01241,1.47834 0.27004,2.33141c0.20844,0.84291 0.14302,1.67034 0.1246,2.53748c0.11127,0.66098 0.23833,1.31811 0.37921,1.97336c0.06251,0.33349 0.12502,0.66697 0.18942,1.01033c0.16893,0.85449 0.35765,1.69728 0.57199,2.5422c0.07893,0.33425 0.15784,0.67112 0.23672,1.01062c0.30086,1.13125 0.77612,2.13743 1.33205,3.16184c0.09522,0.17995 0.18847,0.35792 0.28761,0.54183c0.19234,0.36582 0.38669,0.72969 0.57907,1.09157c0.39255,0.73564 0.76929,1.47907 1.148,2.22052c0.79843,1.53641 1.6523,3.03768 2.51605,4.53703c0.41621,0.73578 0.80678,1.47338 1.18935,2.22669c3.14975,5.96204 9.22962,10.73192 14.95732,14.12385l0.39419,0.00243c0.19714,0.16809 0.3969,0.33751 0.59927,0.50827c1.26372,0.99921 2.82097,1.50156 4.30862,2.08429l0.39719,-0.39176c0.2159,0.11959 0.43377,0.24117 0.65753,0.36475c0.98196,0.46726 1.91021,0.74104 2.96669,1.00182c0.34885,0.08887 0.70099,0.17842 1.05641,0.26865c1.00983,0.17377 1.78674,0.13124 2.79701,-0.01233c0.26781,0.03318 0.53823,0.0677 0.81128,0.10354c1.0497,0.11487 2.01395,0.05972 3.06313,-0.01661c0.9505,-0.06117 1.8988,-0.08882 2.85102,-0.11645c3.33802,-0.13909 6.561,-0.70068 9.81473,-1.4178c0.78179,-0.1647 1.54163,-0.29601 2.33275,-0.39166c1.27714,-0.24639 2.29205,-0.74275 3.4223,-1.37243l0.3912,0.39662c0.15436,-0.08184 0.31136,-0.16496 0.47099,-0.24939c1.1279,-0.58041 2.02363,-0.9553 3.28428,-1.10719c0.73559,-0.31083 1.45351,-0.63162 2.17553,-0.97211c2.11854,-0.99414 4.21777,-1.78144 6.46369,-2.42001c1.72997,-0.43873 3.3317,-1.12003 4.80517,-2.04391l0.3912,0.39662c1.81758,-0.55646 3.57433,-1.1468 5.30115,-1.95019c1.28756,-0.58141 2.50848,-0.95231 3.88848,-1.24538c1.71164,-0.36198 3.198,-0.9047 4.78239,-1.64196c0.81295,-0.37539 1.63336,-0.69556 2.46953,-1.01169c1.68834,-0.66763 3.24223,-1.53909 4.81214,-2.44201c0.96478,-0.55513 1.59038,-0.83182 1.87683,-0.83006c0.46997,-0.37358 0.93607,-0.75505 1.40021,-1.13851c1.94926,-1.54313 4.12617,-2.43836 6.4234,-3.3427c1.09734,-0.44855 1.75991,-1.00817 2.59602,-1.83676c0.2264,-0.2233 0.45478,-0.44856 0.68911,-0.6797c0.40778,-0.40221 0.73328,-0.87062 0.9765,-1.40524c0.45978,-0.32829 0.92346,-0.65263 1.38715,-0.97696c3.44871,-3.29204 6.12995,-7.5211 7.77808,-11.97531c0.19447,-0.43046 0.38893,-0.86091 0.58929,-1.28936c1.40215,-3.21004 2.42405,-6.44017 2.84672,-9.92429c0.03978,-0.30526 0.07957,-0.61447 0.12139,-0.92958c0.10911,-0.87052 0.20837,-1.74306 0.29977,-2.61566c0.02547,-0.24031 0.05295,-0.48258 0.08043,-0.72879c0.12379,-1.24492 0.08691,-2.35878 -0.04748,-3.60725c0.03949,-0.35455 0.079,-0.71171 0.11852,-1.07151c0.09722,-1.12091 -0.00265,-1.98484 -0.28416,-3.06867l-0.3912,-0.39662l0.39719,-0.39175c-0.11271,-0.72866 -0.37051,-1.38726 -0.77339,-1.97579c-0.48225,0.17442 -0.96253,0.34688 -1.4448,0.5213c-0.2688,0.09689 -0.53759,0.1938 -0.81232,0.29262c-0.66027,0.2561 -1.2891,0.52423 -1.93,0.82382c-1.24803,0.56588 -2.53788,0.93045 -3.85345,1.30472c-2.13742,0.62544 -4.1928,1.34995 -6.23365,2.23615c-1.0303,0.44502 -2.02415,0.76412 -3.11608,1.01953l-0.39719,0.39175l-0.3912,-0.39662c-1.76542,-0.08184 -3.32103,-0.02243 -4.95626,0.65932c-1.61315,0.62868 -3.28745,1.00468 -4.97241,0.44833c-1.192,-0.58091 -2.25865,-1.31677 -3.26723,-2.17248c-0.14688,-0.12507 -0.29379,-0.24622 -0.44656,-0.3733c-1.79304,-1.63517 -2.59248,-3.81611 -2.84436,-6.20456c-0.00992,-2.06766 0.3202,-4.52547 1.79835,-6.06558c1.28339,-1.07024 2.49079,-1.9951 4.02932,-2.6597c1.04834,-0.4863 1.87729,-1.15134 2.73071,-1.92266c1.51147,-1.25608 3.23039,-2.05558 4.97349,-2.92589c2.90466,-1.46826 5.69265,-3.1501 8.46506,-4.85175c0.27129,-0.16586 0.54258,-0.33173 0.82181,-0.50543c1.28922,-0.79821 2.54695,-1.60449 3.74848,-2.5353c-0.76555,-2.4882 -2.21406,-4.07197 -4.04533,-5.86506c-0.13692,-0.13882 -0.27582,-0.27567 -0.42059,-0.41847c-3.81474,-3.78815 -7.78649,-6.88545 -12.59316,-9.31183c-0.50265,-0.25538 -1.00324,-0.52061 -1.4999,-0.78582c-1.44683,-0.76776 -2.77719,-1.29827 -4.36281,-1.6983c-0.33138,-0.14002 -0.66671,-0.28137 -1.00595,-0.42405c-0.94526,-0.37047 -1.71853,-0.54671 -2.73136,-0.58449l-0.39719,0.39176c-0.20221,-0.10571 -0.40439,-0.21536 -0.61446,-0.32506c-0.85504,-0.31079 -1.13927,-0.25735 -1.94628,0.11218l-0.39119,-0.39661c-0.50775,0.07045 -1.05454,0.17812 -1.64038,0.323c-0.31987,0.07294 -0.63777,0.14784 -0.9675,0.22268c-0.31198,0.07297 -0.62395,0.14595 -0.94581,0.22084c-0.9502,0.19387 -1.64047,0.33351 -2.07081,0.41889c-0.37781,0.09097 -0.74172,0.33904 -1.0917,0.74423l-0.3912,-0.39662c-0.44465,0.06822 -0.93826,0.1795 -1.48081,0.33384c-0.33577,0.09123 -0.67483,0.18309 -1.01718,0.27558c-2.10363,0.5882 -4.20739,1.19217 -6.30523,1.79815c-0.27063,0.07914 -0.54521,0.15827 -0.82372,0.23737c-0.58274,0.16788 -1.16549,0.33972 -1.74824,0.50761c-0.29499,0.08491 -0.5926,0.17111 -0.89287,0.25862c-0.26471,0.07721 -0.52941,0.15441 -0.80399,0.23354c-0.90068,0.24674 -1.80489,0.44221 -2.72077,0.61396c-1.40837,0.39538 -2.54167,1.16893 -3.70326,2.03295c-0.79685,0.59035 -1.57387,1.16503 -2.44085,1.64851l-0.3912,-0.39662c-0.28879,0.13357 -0.58021,0.26843 -0.87427,0.40459c-0.38964,0.17696 -0.77533,0.35394 -1.16497,0.53091c-0.18793,0.08754 -0.37978,0.17505 -0.57362,0.26452c-1.28759,0.58534 -2.53821,0.97382 -3.90875,1.32016c-0.39728,0.14538 -0.78873,0.30064 -1.17439,0.47369c-0.17206,0.0758 -0.34611,0.15357 -0.52409,0.23132c-0.38256,0.19738 -0.80637,0.54757 -1.27142,1.05061l-0.39119,-0.39661c-0.28493,0.14409 -0.56985,0.28819 -0.86464,0.4342c-2.31689,1.15848 -4.64706,2.2479 -7.03181,3.25814c-1.60767,0.68587 -3.16662,1.44496 -4.72577,2.23164c-1.17322,0.57816 -2.37932,1.07138 -3.5835,1.57445c-1.56804,0.65852 -2.99037,1.33764 -4.34067,2.39169c-0.56467,0.38482 -1.09892,0.65747 -1.71608,0.94538c-1.40654,0.67527 -2.64111,1.54477 -3.90552,2.45155c-1.39121,0.9927 -2.77419,1.93816 -4.25698,2.79036c-1.98417,1.20981 -3.56501,2.77295 -5.19762,4.40672c-0.15689,0.15475 -0.31179,0.30753 -0.47265,0.46619c-2.52023,2.49752 -4.68638,5.0879 -6.50528,8.14951z" fill="#221c25"/><path d="M310.864,138.63613c1.89179,-2.0185 4.39811,-3.72377 7.23003,-3.92313l0.3912,0.39662c0.16806,-0.06796 0.33611,-0.13591 0.50615,-0.20581c1.90395,-0.50862 4.13324,0.52413 5.81595,1.37612c3.18276,1.8763 6.35247,4.69271 8.39261,7.78992c-0.06587,0.19539 -0.13307,0.39208 -0.2016,0.59007c0.29737,0.55176 0.62443,1.08988 0.9614,1.61822c0.18308,0.2889 0.36617,0.5778 0.55313,0.87459c0.14416,0.22165 0.2844,0.44326 0.43244,0.67283c0.6216,-0.69917 1.02178,-1.48511 1.20055,-2.35784c-0.26234,-0.49239 -0.5445,-0.97308 -0.83852,-1.44598c-0.58607,-0.94772 -1.08763,-1.86536 -1.49366,-2.90464c0.26017,0.0016 0.52034,0.0032 0.78838,0.00487c0.49229,0.5825 0.92745,1.15876 1.36619,1.78233c0.36469,0.51274 0.73137,1.02353 1.09803,1.53431c0.17551,0.24943 0.35103,0.49491 0.53041,0.75225c0.32897,0.45799 0.68326,0.86884 1.06287,1.23253c0.28684,0.29611 0.47014,0.64085 0.54995,1.03423c-0.1777,0.82082 -0.43398,1.08531 -1.11965,1.5699c-0.58987,0.0693 -1.18361,0.13069 -1.77536,0.18617l-0.79436,0.78351c0.05788,0.1646 0.1164,0.33119 0.17557,0.49975c0.56985,1.78531 0.73132,3.36313 0.37227,5.21959l-0.39719,0.39175c0.1281,0.26229 0.25749,0.52589 0.3882,0.7908c-0.06204,2.71765 -1.40627,4.27041 -3.26487,6.07231c-1.14148,1.07112 -2.33306,1.98819 -3.70086,2.75436l-0.39119,-0.39661c-0.24544,0.13646 -0.49089,0.27293 -0.7423,0.41525c-0.27686,0.12051 -0.55371,0.24098 -0.84046,0.3634c-0.25919,-0.13168 -0.51835,-0.26337 -0.78539,-0.39904c-0.26247,0.12846 -0.52626,0.25825 -0.79138,0.38933l-0.39119,-0.39661c-0.13678,0.10361 -0.2716,0.20921 -0.41237,0.31675c-0.38506,0.17896 -0.78558,0.23104 -1.20156,0.15621c-0.2319,-0.08816 -0.46581,-0.17436 -0.70362,-0.26451c-0.25943,-0.09622 -0.51493,-0.1924 -0.78225,-0.2926c-0.27708,-0.1101 -0.55416,-0.22022 -0.83909,-0.33433c-0.29476,-0.11614 -0.58954,-0.23228 -0.89413,-0.35438c-2.42868,-0.98864 -3.98105,-2.13352 -5.80988,-3.98769c-0.19367,-0.19237 -0.3893,-0.38674 -0.59081,-0.58311c-0.18582,-0.18839 -0.37359,-0.37877 -0.56528,-0.57312c-0.16821,-0.17054 -0.33838,-0.34307 -0.51445,-0.5176c-0.49796,-0.61212 -0.73793,-1.19702 -1.02408,-1.92806c-0.17529,-0.27702 -0.35452,-0.55406 -0.53565,-0.84098c-0.91683,-1.51742 -1.41241,-3.21949 -1.98315,-4.89049c-0.07988,-0.20811 -0.16172,-0.41819 -0.24552,-0.63027c-0.99297,-2.65122 -1.24966,-5.44181 -0.08275,-8.04424c0.37156,-0.91029 0.40691,-1.15252 0.21357,-2.16681c0.49286,-0.79128 1.07328,-1.43026 1.68567,-2.13211z" fill="#451d56"/><path d="M154.95997,175.80301c0.13703,-0.13516 0.27208,-0.26836 0.41307,-0.40743c2.0475,-2.01951 4.07653,-3.68435 6.53986,-5.17897c0.71324,-0.48047 1.41674,-0.97875 2.1163,-1.47705c0.17834,-0.12505 0.3547,-0.24814 0.53702,-0.37709c1.01858,-0.71907 2.00188,-1.46594 2.98144,-2.23648c2.51559,-1.88655 5.47771,-3.39583 8.37256,-4.61185c0.64857,-0.27195 1.19897,-0.59575 1.78531,-0.97846c0.55859,-0.36317 1.00028,-0.64624 1.63257,-0.85127l0.39119,0.39661c0.27381,-0.23878 0.54959,-0.47558 0.83135,-0.72219c0.97167,-0.7706 1.89717,-1.17093 3.06109,-1.56388c0.67799,-0.25403 1.26776,-0.5697 1.89728,-0.92848c0.99364,-0.54971 1.94026,-0.87698 3.04031,-1.16388c1.29955,-0.34283 2.2609,-0.79418 3.36257,-1.55216c0.65753,-0.41381 1.28555,-0.57551 2.05112,-0.68116c0.19463,0.06625 0.38927,0.13249 0.58979,0.20074c0.61244,-0.18545 1.21716,-0.3946 1.81608,-0.61757l0.98432,-0.36055c0.63123,-0.2392 1.22524,-0.50688 1.782,-0.80305c0.50376,-0.23604 0.98251,-0.38224 1.43628,-0.43857c1.26095,-0.1913 2.27805,-0.97541 3.36109,-1.61722c0.93774,-0.45544 1.64826,-0.58114 2.67945,-0.62407c-0.55132,0.44206 -1.10458,0.88212 -1.6598,1.32022c-0.15271,0.12323 -0.3074,0.24842 -0.46409,0.37558c-1.09055,0.85264 -2.10953,1.36475 -3.41781,1.81791l-0.39119,-0.39661c-0.2733,0.17176 -0.54664,0.34747 -0.82986,0.52509c-1.18796,0.70224 -2.42332,1.15783 -3.7198,1.615c-1.70568,0.6143 -3.33113,1.30596 -4.94386,2.13766l-0.39119,-0.39661c-0.13278,0.09576 -0.26952,0.19149 -0.40626,0.29118c-1.65249,1.13695 -3.37158,1.96011 -5.20873,2.75494c-0.27884,0.12245 -0.55374,0.24494 -0.84051,0.37128c-1.53268,0.67451 -3.07309,1.32924 -4.61932,1.97015c-0.76925,0.33231 -1.51322,0.70615 -2.26114,1.08393c-0.5737,0.27635 -1.14924,0.53495 -1.73654,0.78558c-1.87072,0.80449 -3.63082,1.5781 -5.25855,2.82755c-0.57255,0.38477 -1.11473,0.6613 -1.73979,0.95311c-1.40654,0.67527 -2.63717,1.5448 -3.90357,2.45352c-1.38923,0.99074 -2.77022,1.93424 -4.25101,2.78449c-1.83565,1.11808 -3.30302,2.53409 -4.81449,4.04839c-0.4608,0.46232 -0.92941,0.91671 -1.39605,1.36914c-1.68006,1.65318 -3.06816,3.2727 -4.28003,5.30525c-0.54429,0.81461 -1.166,1.44349 -1.88259,2.10724l0.39119,0.39661c-0.14154,0.21003 -0.28307,0.42006 -0.42862,0.63795c-0.18346,0.27876 -0.36691,0.5575 -0.55635,0.84608c-0.18212,0.27614 -0.36689,0.55488 -0.5543,0.83624c-0.44564,0.8034 -0.55001,1.30931 -0.66322,2.19951c-0.20793,0.38767 -0.4369,0.77652 -0.6869,1.16656c-0.72505,1.25896 -0.90084,2.34391 -1.03196,3.77602c-0.0943,0.73857 -0.2723,1.33665 -0.5397,2.02684c-0.39025,1.03435 -0.33474,1.76989 -0.18147,2.87066c-0.07296,0.26366 -0.14198,0.52736 -0.215,0.79892c-0.17086,0.52325 -0.16702,1.05676 0.01149,1.60054c0.05922,0.24674 0.11842,0.49743 0.17954,0.75404c-0.1016,0.14326 -0.20124,0.28456 -0.30487,0.43372c-0.43186,0.80546 -0.22112,1.34485 -0.03663,2.22704c0.21483,1.04006 0.32088,1.60835 0.10198,2.66151c0.07473,0.36707 0.17445,0.73298 0.29913,1.09773c0.18378,0.71596 0.14227,1.33591 -0.12451,1.85988c0.09708,0.3659 0.22548,0.76089 0.3852,1.18498c0.133,0.6552 0.25808,1.31429 0.37921,1.97336c0.22349,1.19582 0.46287,2.37596 0.76141,3.55253c0.07893,0.33424 0.15784,0.67112 0.23673,1.01063c0.30085,1.13124 0.77611,2.13743 1.33204,3.16184c0.09522,0.17995 0.18847,0.35792 0.28761,0.54183c0.19235,0.36582 0.38669,0.72969 0.57908,1.09157c0.39255,0.73564 0.76928,1.47906 1.148,2.22052c0.79842,1.53641 1.6523,3.03768 2.51604,4.53702c0.41621,0.73579 0.80679,1.47339 1.18936,2.2267c3.14976,5.96204 9.22962,10.73192 14.95732,14.12385l0.39419,0.00243c0.2135,0.17674 0.42899,0.35152 0.64836,0.5342c0.89146,0.7052 1.84674,1.05406 2.91224,1.42328c0.37462,0.15737 0.75752,0.43435 1.14871,0.83097l0.39719,-0.39176c0.69435,0.18758 1.38672,0.37713 2.07908,0.56667c0.19472,0.05441 0.38947,0.1049 0.59207,0.15936c0.85167,0.23586 1.64418,0.47529 2.45156,0.83308c0.76031,0.32596 0.99838,0.12243 1.76711,-0.13891c0.51603,0.05048 1.0301,0.09899 1.54605,0.1613c0.92189,0.07269 1.81734,-0.00457 2.73637,-0.07381c0.94461,-0.06317 1.88894,-0.09086 2.83723,-0.11852c1.85134,-0.0694 3.64272,-0.29095 5.46811,-0.57733c0.54582,-0.06628 1.01533,-0.03251 1.40852,0.10131c-0.49487,0.27684 -1.02245,0.53638 -1.58275,0.77866c-0.25919,-0.13037 -0.52099,-0.26339 -0.78539,-0.39904c-0.32319,0.16489 -0.65318,0.35996 -0.98997,0.5852c-1.52327,0.47351 -2.94545,0.61258 -4.53767,0.56335c-0.769,0.03863 -1.53611,0.08711 -2.30325,0.13955c-0.48114,0.02858 -0.96214,0.03744 -1.44306,0.03447l-0.58679,-0.59493c-0.20374,0.09532 -0.40947,0.19261 -0.61718,0.29185c-1.33431,0.50622 -2.19755,0.23876 -3.55451,-0.16381c-0.48384,-0.13702 -0.97582,-0.2386 -1.46785,-0.33623c-5.16747,-1.11589 -9.28021,-3.55771 -13.38488,-6.80168c-0.19397,-0.15296 -0.38798,-0.30198 -0.58781,-0.4609c-0.17438,-0.13707 -0.34677,-0.2761 -0.52506,-0.41715c-0.36068,-0.26239 -0.85408,-0.43823 -1.48018,-0.5275c-0.42558,-0.36792 -0.87634,-0.79447 -1.35227,-1.27965c-0.12714,-0.1289 -0.25428,-0.2578 -0.38532,-0.39066c-0.26796,-0.27168 -0.5359,-0.5473 -0.80189,-0.82095c-0.40482,-0.41837 -0.81362,-0.83284 -1.22242,-1.2473c-1.4017,-1.43171 -2.3635,-2.56441 -2.8854,-3.39807c-0.28369,-0.27571 -0.57336,-0.54556 -0.86901,-0.80559c-1.41443,-1.39829 -2.32576,-3.12066 -3.31999,-4.82778c-0.41061,-0.69435 -0.85093,-1.37116 -1.28531,-2.0499c-1.42331,-2.30501 -2.9428,-4.92202 -3.67578,-7.548l0.39719,-0.39176c-0.25719,-0.39185 -0.5144,-0.78369 -0.77939,-1.18742l0.39719,-0.39176c-0.11655,-0.22541 -0.23114,-0.44885 -0.3516,-0.67822c-0.70604,-1.50232 -1.06869,-2.80347 -1.0994,-4.4672c-0.04359,-1.52584 -0.1841,-3.00694 -0.4052,-4.51811c-0.01032,-0.19716 -0.02459,-0.39436 -0.03685,-0.59744l0.39719,-0.39176c-0.05592,-0.16394 -0.10987,-0.32589 -0.1697,-0.4938c-0.07121,-0.22711 -0.14436,-0.45619 -0.21551,-0.69118c-0.07518,-0.22319 -0.1523,-0.44836 -0.22941,-0.67747c-0.33588,-1.96915 0.07293,-3.89035 0.47594,-5.82538l0.00731,-0.96182c0.01501,-1.97487 0.49123,-3.68869 1.11245,-5.54945c0.06051,-0.18095 0.12105,-0.36586 0.18358,-0.55272c0.28818,-0.83197 0.49323,-1.35894 1.13071,-1.98771l-0.58679,-0.59493l1.59473,-2.3554l-0.39119,-0.39661c0.13379,-0.1424 0.26892,-0.28612 0.40537,-0.43113c1.07738,-1.19569 1.74703,-2.16525 2.19434,-3.70579c1.07277,-3.18251 4.23671,-5.8298 6.54836,-8.11377z" fill="#461e57"/><path d="M320.81035,147.90995c1.19672,-0.81651 2.21543,-1.03493 3.66602,-0.76385c1.53163,0.76237 2.66617,2.16286 3.54423,3.59333c0.2567,0.97526 0.19057,1.63907 -0.21657,2.56098c-0.80724,1.17961 -1.62034,1.83293 -2.97405,2.2996c-1.46497,0.0639 -2.44662,0.07362 -3.60001,-0.92097c-0.58483,-0.59294 -1.15185,-1.19563 -1.70291,-1.82188l0.39719,-0.39175c-0.06453,-0.15544 -0.12903,-0.31221 -0.19354,-0.47028c-0.48491,-1.81042 -0.33104,-2.862 1.0757,-4.08522z" fill="#261e29"/><path d="M260.72269,188.17037c1.02743,-0.58695 2.01867,-1.0795 3.13153,-1.49641c1.48879,-0.60382 2.93309,-1.32026 4.38504,-2.00511c0.90038,1.08764 1.32063,1.81163 1.41634,3.22346c0.02327,0.3096 0.04459,0.61721 0.06776,0.93862c0.01858,0.32074 0.03648,0.64476 0.05371,0.97205c0.02516,0.31947 0.04638,0.6389 0.0715,0.96625c0.10742,1.68588 0.07418,3.20532 -0.2341,4.86698c-0.09436,0.74643 -0.05811,1.42272 0.00321,2.17208c0.10789,1.36461 0.01463,2.48555 -0.32467,3.81784l-0.79438,0.78351c0.1281,0.26097 0.25621,0.52193 0.3882,0.79079c-0.40058,3.17285 -2.13118,8.36175 -4.41698,10.61631l0.39119,0.39661c-1.6011,3.45322 -3.93512,6.34609 -6.43236,9.1887c-0.83911,0.96456 -1.46814,1.7767 -1.93849,2.98005c-2.13581,1.9697 -5.0292,2.73436 -7.71517,3.69741c0.33499,-0.7686 0.57109,-0.97016 1.34646,-1.32805c0.29912,-0.10984 0.60219,-0.22098 0.90922,-0.33342c2.08204,-0.86032 3.84619,-2.1661 4.88468,-4.20759c0.45978,-0.3283 0.92347,-0.65264 1.38715,-0.97697c3.44872,-3.29203 6.12994,-7.52109 7.77808,-11.97531c0.19447,-0.43045 0.38893,-0.86091 0.58929,-1.28936c1.40017,-3.20808 2.42405,-6.44016 2.84672,-9.92429c0.04178,-0.31117 0.07963,-0.62235 0.11951,-0.94338c0.10908,-0.86658 0.20438,-1.73522 0.30163,-2.60187c0.0272,-0.20679 0.05244,-0.41556 0.07966,-0.62629c0.11158,-0.93554 0.12605,-1.8027 0.03262,-2.73557c-0.02647,-0.32078 -0.05291,-0.6455 -0.07932,-0.97416l0.39719,-0.39176l-0.3882,-0.7908l0.00899,-1.18256c-0.07034,-0.34141 -0.14067,-0.68283 -0.21485,-1.03612c-0.05416,-0.30912 -0.10894,-0.62154 -0.16435,-0.93725l0.39719,-0.39175c-0.091,-0.21541 -0.18396,-0.43279 -0.27884,-0.6561c-0.20131,-0.4848 -0.36615,-0.9247 -0.49455,-1.31969c-0.15656,0.11139 -0.31314,0.22671 -0.47367,0.34201c-2.02983,1.25091 -4.52328,2.03972 -6.84131,2.56944z" fill="#361e40"/><path d="M203.69957,247.9352c1.09688,-0.64763 1.91359,-0.99935 3.1625,-1.16313c0.73559,-0.31082 1.45352,-0.63162 2.17553,-0.9721c2.1047,-0.98831 4.18817,-1.7757 6.42221,-2.40646c1.73237,-0.49588 3.38704,-1.14204 5.04225,-1.85915l0.39119,0.39661c0.14248,-0.07401 0.28297,-0.14608 0.4294,-0.22008c2.23388,-1.12746 4.53824,-1.93321 6.90941,-2.71489c0.19761,-0.06579 0.3952,-0.13159 0.6007,-0.19735c0.95832,-0.31142 1.9145,-0.60118 2.8901,-0.85142c0.85918,-0.2332 1.62597,-0.50047 2.43684,-0.86209c1.03625,-0.45089 2.05822,-0.83682 3.13886,-1.16327l0.19559,0.19831c-0.70365,0.7762 -1.19459,1.05699 -2.17853,1.3663c-0.30232,0.18605 -0.60794,0.37272 -0.91685,0.56004c-1.07525,0.65367 -2.20227,1.11976 -3.43422,1.38419c-0.19463,-0.06625 -0.38925,-0.13249 -0.58979,-0.20074c-0.54349,0.19178 -1.07729,0.4053 -1.60725,0.63067c-0.90957,0.38071 -1.78744,0.73798 -2.72984,1.02979c-0.85176,0.29633 -1.52497,0.6982 -2.28545,1.17051c-0.72253,0.40749 -1.48114,0.6354 -2.2752,0.85915l-0.3912,-0.39662c-0.15857,0.11729 -0.31912,0.23653 -0.48167,0.35773c-0.81581,0.49168 -1.56644,0.7078 -2.48288,0.95445c-1.45578,0.41086 -2.87833,0.85938 -4.2975,1.37886c-2.30459,0.83728 -4.63225,1.59557 -6.96577,2.34793c-0.59278,0.19345 -1.18557,0.38691 -1.77835,0.58035l-0.3912,-0.39662c-0.26116,0.12848 -0.52231,0.25695 -0.79138,0.38933l-0.1956,-0.19831z" fill="#3e1e4b"/><path d="M154.95997,175.80301c0.13505,-0.13319 0.27208,-0.26836 0.41109,-0.40547c2.04153,-2.01364 4.06505,-3.73172 6.5438,-5.17895c0.47738,-0.31045 0.95084,-0.62487 1.42432,-0.93929c0.31694,-0.20698 0.63587,-0.41592 0.9528,-0.62289l0.39119,0.39661c0.24197,-0.19693 0.48658,-0.39515 0.73381,-0.59467c1.78876,-1.43177 3.51545,-2.7358 5.60619,-3.70251c0.31459,-0.15772 0.6272,-0.31347 0.95167,-0.4731c0.20839,-0.10121 0.41874,-0.20306 0.63108,-0.30556l0.39119,0.39661c0.19562,-0.06385 0.39124,-0.12768 0.59279,-0.19345c-1.40966,1.08523 -2.77741,2.10173 -4.40905,2.83082c-1.82967,0.85006 -3.42515,2.00511 -5.06015,3.17568c-1.15736,0.82464 -2.31225,1.58425 -3.5436,2.29018c-1.83764,1.12004 -3.30696,2.53407 -4.81648,4.05034c-0.4608,0.46232 -0.92941,0.91671 -1.39604,1.36914c-1.68006,1.65318 -3.06816,3.2727 -4.28004,5.30523c-0.54429,0.81461 -1.166,1.44349 -1.88259,2.10726l0.3912,0.39662c-0.39421,0.51791 -0.78841,1.03584 -1.19455,1.56945c1.02085,-4.90746 4.09187,-8.03824 7.56533,-11.47204z" fill="#471f58"/><path d="M238.18925,144.66908c4.65811,-0.33004 11.31194,5.16872 14.71648,7.94913c0.80862,0.71258 1.58748,1.45059 2.35438,2.20825c0.17806,0.17258 0.35809,0.34319 0.54006,0.51973c0.59485,0.57133 1.18179,1.14653 1.7707,1.72372c0.18587,0.18051 0.37174,0.36103 0.56547,0.54552c1.10717,1.11059 1.79997,2.01956 2.20031,3.54956c-0.13075,0.25937 -0.26415,0.52136 -0.40018,0.78595c-0.43659,-0.64917 -0.8221,-1.2744 -1.16759,-1.97821c-4.76241,-5.39643 -10.00684,-9.87141 -16.45709,-13.11012c-0.32396,-0.1656 -0.64988,-0.33316 -0.98365,-0.50472c-0.51637,-0.26533 -1.03475,-0.52476 -1.55512,-0.78223c-0.54583,-0.2793 -1.06585,-0.58013 -1.58374,-0.90657z" fill="#341e3d"/><path d="M260.72269,188.17037c1.02743,-0.58695 2.01867,-1.0795 3.13153,-1.49641c1.48879,-0.60382 2.93309,-1.32026 4.38504,-2.00511c0.90038,1.08764 1.32063,1.81163 1.41634,3.22346c0.02327,0.3096 0.04459,0.61721 0.06776,0.93862c0.01728,0.31942 0.03453,0.64277 0.05371,0.97205c0.02516,0.31947 0.04638,0.6389 0.0715,0.96625c0.10742,1.68588 0.07418,3.20532 -0.2341,4.86698c-0.09436,0.74643 -0.05811,1.42272 0.00321,2.17208c0.10789,1.36461 0.01463,2.48555 -0.32467,3.81784l-0.79438,0.78351c0.1281,0.26097 0.25621,0.52193 0.3882,0.79079c-0.16888,0.69474 -0.35515,1.34403 -0.58102,2.01671c-0.06053,0.18491 -0.11909,0.36785 -0.18164,0.55866c-0.14734,0.4544 -0.29862,0.90876 -0.44987,1.3592l-0.58679,-0.59493c0.09981,-0.51053 0.24802,-1.08056 0.44465,-1.71007c0.50592,-1.73138 0.79252,-3.39119 0.98744,-5.17968c0.07313,-0.54552 0.14627,-1.09104 0.22334,-1.63654c0.0669,-0.50417 0.13185,-1.01031 0.19481,-1.51452c0.02713,-0.1989 0.05427,-0.39781 0.07947,-0.60264c0.11163,-0.94343 0.12617,-1.81847 0.03281,-2.75923c-0.02712,-0.32144 -0.05229,-0.6409 -0.07932,-0.97416l0.39719,-0.39176c-0.12942,-0.26097 -0.25882,-0.52457 -0.3882,-0.7908l0.00899,-1.18256c-0.07034,-0.34141 -0.14067,-0.68283 -0.21485,-1.03612c-0.05416,-0.30912 -0.10894,-0.62154 -0.16435,-0.93725l0.39719,-0.39175c-0.091,-0.21541 -0.18396,-0.43279 -0.27884,-0.6561c-0.20131,-0.4848 -0.36615,-0.9247 -0.49455,-1.31969c-0.15656,0.11139 -0.31314,0.22671 -0.47367,0.34201c-2.02983,1.25091 -4.52328,2.03972 -6.84131,2.56944z" fill="#351e3e"/><path d="M168.4151,248.30912c1.40626,-0.11946 2.16419,0.25971 3.34312,1.0061c0.19883,0.1195 0.39895,0.24029 0.60039,0.36242c0.12555,0.07962 0.25112,0.15529 0.3806,0.23493l0.39719,-0.39176c0.69434,0.18758 1.38671,0.37712 2.07908,0.56667c0.19472,0.05441 0.38946,0.10489 0.59207,0.15936c0.85167,0.23585 1.64418,0.47529 2.45157,0.83309c0.76032,0.32595 0.99838,0.12243 1.7671,-0.13892c0.51603,0.05048 1.0301,0.09899 1.54604,0.16129c0.9219,0.0727 1.81734,-0.00457 2.73637,-0.0738c0.94461,-0.06317 1.88895,-0.09086 2.83722,-0.11853c1.85134,-0.0694 3.64272,-0.29095 5.46813,-0.57732c0.54583,-0.06628 1.01533,-0.03251 1.40852,0.10131c-0.49487,0.27684 -1.02245,0.53638 -1.58275,0.77866c-0.25917,-0.13169 -0.51836,-0.26337 -0.78539,-0.39904c-0.32319,0.16489 -0.65318,0.35996 -0.98996,0.58521c-1.52327,0.47351 -2.94545,0.61258 -4.53768,0.56335c-0.76899,0.03863 -1.53611,0.08711 -2.30324,0.13954c-0.48114,0.02858 -0.96214,0.03744 -1.44305,0.03449l-0.58679,-0.59493c-0.20375,0.09532 -0.40948,0.1926 -0.61718,0.29185c-1.3343,0.50621 -2.19757,0.23875 -3.55452,-0.16382c-0.48383,-0.137 -0.97582,-0.2386 -1.46784,-0.33623c-4.02221,-0.86838 -6.6012,-1.87833 -7.73696,-3.02983z" fill="#41204f"/><path d="M147.87144,228.27523c1.07769,0.58021 1.50125,1.387 2.06286,2.441c0.85536,1.56632 1.63713,2.95874 2.92461,4.20447c0.67177,0.65195 1.10681,1.1579 1.30512,1.51784c0.74581,1.19707 1.85219,2.15194 2.83996,3.15339c0.41075,0.41644 0.81948,0.83879 1.22627,1.25915c0.2621,0.26573 0.5242,0.53146 0.7863,0.7972c0.23863,0.24193 0.47529,0.48188 0.7178,0.73173c0.41857,0.42438 0.96001,0.67672 1.6243,0.75702c0.34519,0.22551 0.70196,0.48394 1.0703,0.7753c0.20183,0.15695 0.40365,0.3139 0.61134,0.47682c0.20965,0.16489 0.41731,0.33173 0.63481,0.5006c1.04619,0.83559 2.14223,1.59461 3.28813,2.27708c0.71269,0.36903 0.94144,0.61288 1.25526,1.33621c-2.31164,-1.08845 -4.37065,-2.22265 -6.36085,-3.85115c-0.44925,-0.36543 -0.92339,-0.65284 -1.42245,-0.86222c-1.00891,-0.55417 -1.76041,-1.26047 -2.56044,-2.06761c-0.15647,-0.15865 -0.31888,-0.31536 -0.48321,-0.47799c-0.51057,-0.5097 -1.01716,-1.02331 -1.52373,-1.54087c-0.17213,-0.17451 -0.34556,-0.35035 -0.52029,-0.52749c-3.24682,-3.30372 -5.92888,-6.48374 -7.47211,-10.90439z" fill="#351e3e"/><path d="M308.31906,149.83161c0.30271,0.1083 0.6297,0.30742 0.98097,0.59735c0.14797,0.49958 0.29202,0.99914 0.40839,1.5064c0.52221,2.09053 1.33953,3.9917 2.49261,5.80425l0.3882,0.7908c0.64079,0.75292 1.33915,1.44906 2.02758,2.15499c0.18382,0.1943 0.36762,0.38859 0.55727,0.58884c1.24782,1.27702 2.43394,2.11413 4.07246,2.81408c0.29661,0.13388 0.59325,0.26382 0.89771,0.40171c0.81146,0.3381 1.62496,0.6703 2.44242,0.99859c0.1906,0.07804 0.3812,0.15608 0.5777,0.23614c0.33537,0.13347 0.73259,0.25549 1.19167,0.36607c0.26115,-0.12848 0.52231,-0.25696 0.79138,-0.38933c0.27173,0.03714 0.54539,0.07629 0.82496,0.11744c1.06556,0.10314 1.73532,-0.10364 2.72574,-0.48976l0.39119,0.39661c1.60434,-1.28508 3.18716,-2.59197 4.76023,-3.91271l0.1956,0.19831c-2.47373,2.69031 -4.65327,4.188 -6.53858,4.49307c-0.34537,0.05896 -0.69076,0.11794 -1.04796,0.17684c-0.24049,0.00245 -0.48098,0.00492 -0.72739,0.00932l-0.39119,-0.39661c-0.1661,0.06993 -0.33415,0.13787 -0.50619,0.20975c-2.08553,0.54297 -4.8163,-0.8989 -6.62839,-1.84236c-2.50689,-1.59226 -4.7015,-4.07548 -6.60412,-6.33417l0.003,-0.39417c-0.23187,-0.35424 -0.47556,-0.70462 -0.71932,-1.05105c-1.24722,-1.8762 -2.58935,-4.7464 -2.56987,-7.05041z" fill="#331e3c"/><path d="M190.8026,155.41484c2.14788,-1.2226 4.21222,-2.08896 6.56906,-2.7978c0.62823,-0.18929 1.21875,-0.43138 1.77157,-0.72625c0.5038,-0.2413 0.98192,-0.38947 1.43435,-0.4445c1.26095,-0.1913 2.27805,-0.97541 3.36109,-1.61722c0.93774,-0.45544 1.64826,-0.58114 2.67945,-0.62407c-0.55132,0.44206 -1.10457,0.88213 -1.6598,1.32022c-0.15271,0.12323 -0.30741,0.24842 -0.46408,0.37558c-1.09055,0.85263 -2.10954,1.36474 -3.41781,1.8179l-0.39119,-0.39661c-0.2733,0.17176 -0.5486,0.34549 -0.82985,0.52509c-1.18796,0.70224 -2.42333,1.15782 -3.71981,1.61499c-1.70568,0.6143 -3.33112,1.30598 -4.94385,2.13768l-0.3912,-0.39662l0.39719,-0.39176l-0.39119,-0.39661z" fill="#491f5b"/><path d="M299.06608,148.39489c1.26155,-1.04477 2.53368,-1.93176 3.96287,-2.73502c0.19266,0.3264 0.38531,0.65282 0.5838,0.98911c-0.10748,0.13731 -0.21563,0.27658 -0.32445,0.41782c-0.09011,0.18668 -0.18219,0.37141 -0.27432,0.564c0.05992,0.15608 0.11983,0.31217 0.17972,0.47219c0.3073,1.0623 0.19503,2.08852 0.15118,3.18807c-0.05237,1.96478 0.08432,3.4301 0.98334,5.21547l-0.39719,0.39175c0.10136,0.15043 0.20271,0.30084 0.30598,0.45719c0.6236,0.93811 1.2256,1.86624 1.76206,2.85899c0.8457,1.54063 1.93598,2.79698 3.17227,4.03451c0.13105,0.13287 0.26406,0.26772 0.39703,0.40651c0.8665,0.8785 1.76555,1.62317 2.76133,2.34676c-0.19464,-0.06624 -0.38924,-0.13249 -0.58978,-0.20074l-0.39719,0.39175c-3.59049,-2.43268 -6.39116,-5.82826 -7.59715,-10.01426c-0.21731,-0.71288 -0.49808,-1.37488 -0.78656,-2.06061c-0.49483,-1.54242 -0.61972,-2.74551 -0.25686,-4.32404c0.14676,-0.89984 0.04087,-1.75 -0.06462,-2.65141c-0.00529,-0.16954 -0.01054,-0.34171 -0.01578,-0.51652l0.39719,-0.39175l-0.5868,-0.59493c-0.16049,0.11136 -0.319,0.22076 -0.48544,0.33406c-0.21197,0.14258 -0.42397,0.28516 -0.64189,0.4336c-0.20805,0.14261 -0.41806,0.28717 -0.63403,0.43366c-0.4105,0.24057 -0.94473,0.42453 -1.60272,0.55188z" fill="#311e3a"/><path d="M194.16669,153.66165l1.38715,-0.97696l0.39119,0.39661c0.2004,-0.17419 0.4008,-0.34837 0.60911,-0.52646c1.1696,-0.87975 2.55385,-1.21615 3.94054,-1.61363l0.39119,0.39661c0.22408,-0.17798 0.45014,-0.35792 0.68217,-0.54373c0.30138,-0.23467 0.60277,-0.46933 0.90415,-0.704c0.14675,-0.11735 0.29548,-0.23666 0.4462,-0.35794c1.28081,-0.98944 2.2355,-1.34032 3.84746,-1.29491c1.27146,-0.01779 2.29682,-0.33274 3.49623,-0.72548c0.45443,-0.14305 0.90687,-0.28416 1.35931,-0.42525c0.22128,-0.06959 0.44652,-0.13915 0.67373,-0.21069c1.215,-0.36898 2.44718,-0.66493 3.68135,-0.96282c0.49892,-0.11913 1.00171,-0.3138 1.50834,-0.58398l0.39119,0.39661l0.59578,-0.58764l0.39119,0.39661c-0.85817,0.61953 -1.60769,0.94801 -2.63461,1.20975c-0.27847,0.07121 -0.55496,0.14441 -0.84135,0.21951c-0.28832,0.07312 -0.57664,0.14624 -0.87485,0.22129c-0.56876,0.14629 -1.13753,0.29259 -1.70237,0.4389c-0.27647,0.06925 -0.55297,0.14245 -0.83736,0.2156c-1.19683,0.31193 -2.39184,0.64556 -3.58099,0.98513c-0.62551,0.17616 -1.15208,0.30432 -1.57975,0.38447l-0.39119,-0.39661c-0.82244,0.32605 -1.60575,0.6918 -2.3855,1.10878c-0.17811,0.09351 -0.35425,0.18901 -0.53832,0.28839c-0.36812,0.19878 -0.73426,0.39559 -1.10042,0.59635c-0.95982,0.50853 -1.61826,0.78239 -2.69601,0.72647c-0.39687,0.17757 -0.79268,0.38801 -1.18742,0.6313c-1.33614,0.74666 -2.66574,1.15436 -4.15063,1.50393l-0.1956,-0.19831z" fill="#351e3f"/><path d="M145.8119,188.0537l1.78733,-1.7629c-0.10329,1.14256 -0.47597,1.94049 -1.00794,2.95032c-0.06751,0.32481 -0.13502,0.64961 -0.20458,0.98425c-0.21974,0.38496 -0.45128,0.76592 -0.68474,1.14094c-0.71922,1.26885 -0.87524,2.34604 -1.00834,3.78012c-0.12843,0.81915 -0.36941,1.40503 -0.73769,2.14386c-0.74904,1.56038 -0.76219,3.03265 -0.8126,4.73727c-0.04423,0.37225 -0.09241,0.74843 -0.14453,1.12062c-0.09798,1.48161 0.03645,2.98436 0.49676,4.40041l-0.59578,0.58764c-0.13301,-0.39305 -0.2601,-0.78804 -0.3852,-1.18498c-0.07517,-0.22318 -0.1523,-0.44836 -0.22941,-0.67747c-0.33588,-1.96915 0.07293,-3.89035 0.47593,-5.82538l0.00731,-0.96182c0.01501,-1.97486 0.49123,-3.6887 1.11246,-5.54945c0.0605,-0.18096 0.12104,-0.36587 0.18356,-0.55273c0.28818,-0.83197 0.49323,-1.35894 1.13072,-1.9877l-0.58679,-0.59493c0.52626,-0.77728 1.05252,-1.55456 1.59473,-2.3554l-0.39119,-0.39661z" fill="#422051"/><path d="M152.94797,234.61377l0.19859,-0.19588c0.9978,0.97721 1.60757,1.6603 1.82932,2.04931c2.62401,4.33664 8.3665,8.11302 12.65982,10.65449c0.13009,0.0008 0.26017,0.00161 0.39419,0.00243c0.33459,0.32334 0.65928,0.65253 0.97798,0.99153c-0.39518,0.12897 -0.76962,0.12009 -1.12329,-0.02664c-1.6036,-0.88698 -3.03872,-1.8971 -4.47286,-3.0373c-0.40359,-0.32179 -0.81112,-0.64362 -1.21868,-0.96148c-0.17633,-0.13906 -0.35069,-0.28007 -0.5329,-0.42509c-0.36327,-0.26766 -0.85861,-0.44548 -1.48605,-0.53345c-0.42036,-0.36262 -0.86655,-0.78454 -1.33857,-1.26576c-0.25624,-0.25978 -0.51246,-0.51956 -0.77847,-0.78926c-0.13301,-0.13485 -0.26598,-0.27364 -0.40091,-0.41441c-0.40091,-0.41441 -0.80579,-0.82491 -1.21068,-1.23541c-2.13708,-2.18524 -3.30356,-3.79026 -3.49945,-4.81509z" fill="#522167"/><path d="M234.11937,187.41516l0.19859,-0.19588c0.19032,0.2009 0.38194,0.40445 0.57484,0.61061c1.77362,1.85778 3.5926,3.45172 5.69025,4.94684l0.39719,-0.39175c0.3051,0.0551 0.61018,0.1102 0.92317,0.16534c1.37251,0.17206 2.28346,-0.38999 3.48644,-0.9936c1.0225,-0.45689 1.77795,-0.5291 2.89339,-0.50646c0.19391,0.07479 0.39045,0.14957 0.58961,0.22438c0.98133,0.29185 1.79837,-0.10323 2.7625,-0.40084l0.39119,0.39661c0.17049,-0.12903 0.34493,-0.25805 0.51938,-0.391c0.72461,-0.42128 1.03803,-0.42526 1.85175,-0.3828c-1.7401,0.90778 -3.05806,1.42526 -3.95388,1.55245l-0.39119,-0.39661c-0.26117,0.12979 -0.52496,0.25958 -0.79138,0.38933c-0.26775,-0.04107 -0.53353,-0.08015 -0.80917,-0.12126c-1.17,-0.10576 -1.88164,0.16579 -2.97477,0.57889c-2.19371,0.77096 -3.99045,1.17774 -6.14681,0.14741c-2.19009,-1.26313 -4.22993,-2.84265 -5.20716,-5.23164z" fill="#351e3e"/><path d="M163.69724,168.84789c-1.00728,1.0483 -1.92765,1.81131 -3.18491,2.55453c-1.99052,1.26693 -3.6467,2.88873 -5.31885,4.53802c-0.25618,0.25268 -0.51433,0.50338 -0.7804,0.76193c-2.44496,2.44674 -4.5269,5.11056 -6.40767,8.01411c-0.30154,-1.56093 0.58332,-2.57844 1.43454,-3.84057c2.85621,-3.91262 9.35204,-11.07865 14.25729,-12.02803z" fill="#2e1e35"/><path d="M158.73541,173.35067c1.74263,-1.58579 3.42845,-2.95906 5.46767,-4.14882c1.27733,-0.7904 2.47465,-1.68575 3.67201,-2.58897c1.14567,-0.84443 2.20227,-1.37797 3.5403,-1.85657c0.45803,-0.27181 0.85423,-0.53217 1.18856,-0.78109l0.3912,0.39662l0.59278,-0.19345c-1.40965,1.08523 -2.7774,2.10173 -4.40905,2.83082c-1.8455,0.85785 -3.449,2.03255 -5.10567,3.20102c-1.6765,1.18411 -3.37218,2.29715 -5.14416,3.33678l-0.1956,-0.19831z" fill="#4f2063"/><path d="M246.8443,172.908c0.68127,-0.77107 1.2948,-1.18843 1.84061,-1.25208c0.89589,-0.13639 1.35166,-0.45683 2.08103,-0.9845c0.24574,-0.17588 0.49149,-0.35176 0.74515,-0.53154c0.25368,-0.18371 0.50543,-0.36941 0.76705,-0.56096c0.25961,-0.18565 0.51529,-0.37132 0.78282,-0.56086c0.63815,-0.45728 1.27239,-0.91854 1.90662,-1.37979l0.39119,0.39661c0.19353,-0.22219 0.38841,-0.447 0.58461,-0.67443c1.55706,-1.54751 3.74553,-2.40718 5.75238,-3.22856l0.39119,0.39661c0.28114,-0.16515 0.56624,-0.33158 0.85528,-0.49931c0.28905,-0.16773 0.59774,-0.32614 0.92606,-0.47522c0.1953,0.06558 0.39189,0.13249 0.58978,0.20073c-0.41759,0.22408 -0.8332,0.44623 -1.25079,0.67032c-0.23155,0.12275 -0.46311,0.24945 -0.70258,0.37608c-0.4129,0.21164 -0.81694,0.38194 -1.21213,0.51091l-0.39119,-0.39661c-2.73429,1.35499 -5.10992,3.24041 -7.52856,5.07827l-0.39119,-0.39661c-0.14693,0.14101 -0.29383,0.27807 -0.44473,0.423c-1.69084,1.51515 -3.35487,2.3544 -5.49508,3.08824l-0.19559,-0.19831z" fill="#321e3b"/><path d="M321.44115,134.93269c2.01419,-0.23003 3.9119,0.85981 5.50369,2.00493c3.43392,3.06442 6.522,6.24692 8.39568,10.49813l-0.39719,0.39177c-0.89068,-1.06591 -1.6895,-2.03072 -2.14258,-3.36394l0.39719,-0.39177c-3.02134,-3.23269 -6.4057,-5.98866 -10.15306,-8.26791c-0.57168,-0.2499 -1.08199,-0.53293 -1.60373,-0.87122z" fill="#331e3c"/><path d="M308.36185,170.1334c0.66148,-0.41379 1.30049,-0.72324 2.03764,-0.98085c0.1917,-0.06781 0.38736,-0.13558 0.58499,-0.20532c0.19959,-0.06776 0.39723,-0.1375 0.60473,-0.20915c0.20356,-0.07167 0.40514,-0.14138 0.61464,-0.21501c0.49802,-0.17432 0.99804,-0.3506 1.49802,-0.52292c-0.45281,-0.32802 -0.90563,-0.65602 -1.37218,-0.99396c0.44475,-0.07873 0.90513,-0.1416 1.38117,-0.18859l0.39119,0.39661c0.17292,-0.10274 0.34717,-0.20679 0.52273,-0.31215c0.22767,-0.13066 0.45533,-0.26131 0.69091,-0.39585c0.22571,-0.13133 0.45273,-0.26396 0.68107,-0.39789c0.45202,-0.17198 0.90299,-0.20469 1.35288,-0.09811c0.16497,0.07986 0.33385,0.15974 0.50471,0.24161c-0.37889,0.31894 -0.75974,0.6359 -1.14059,0.95287c-0.21225,0.17805 -0.42252,0.35414 -0.6427,0.5361c-0.3992,0.31028 -0.86259,0.59518 -1.39016,0.85474l-0.3912,-0.39662c-0.29129,0.20516 -0.58064,0.41231 -0.87791,0.62335c-1.44385,0.91551 -3.01176,1.30005 -4.65874,1.70778z" fill="#341e3e"/><path d="M248.24643,169.96011c1.53908,-1.25591 3.20249,-2.27453 4.89753,-3.30479c0.48514,-0.29464 0.96833,-0.59125 1.45348,-0.88589c1.8238,-1.11422 3.66114,-2.19484 5.53161,-3.22599c-0.06356,-0.19552 -0.12712,-0.39104 -0.19259,-0.59249l0.97798,0.99153c-0.34875,0.24226 -0.69945,0.48254 -1.05211,0.72082c-0.19616,0.1348 -0.39033,0.26763 -0.59241,0.40435c-0.59401,0.35507 -1.14596,0.6217 -1.78072,0.89176c-1.13906,0.49362 -2.09603,1.14408 -3.09694,1.8731c-1.25446,0.89303 -2.4766,1.68376 -3.88679,2.3196c-0.68048,0.32299 -1.2711,0.74904 -1.86784,1.20462z" fill="#361e40"/><path d="M239.14112,175.02866c-0.45221,0.88812 -0.76485,1.04781 -1.58874,1.56703c-1.62206,1.28299 -2.64355,2.38442 -2.94322,4.46791c-0.08499,1.32794 -0.08913,2.65047 -0.05981,3.97912c-0.01587,0.53208 -0.1562,0.9287 -0.42098,1.18987l0.58679,0.59493l-0.39719,0.39176c-1.30988,-2.18999 -0.99817,-4.30101 -0.53632,-6.71661c0.69866,-2.71176 2.89863,-4.30656 5.35948,-5.47402z" fill="#3a1e45"/><path d="M281.46322,156.36762c1.55669,-0.97986 3.00592,-1.82636 4.77776,-2.32987c0.83208,-0.29644 1.50985,-0.78108 2.24284,-1.26932c0.66331,-0.39603 1.32647,-0.51415 2.07674,-0.68296c0.56763,-0.25471 1.11774,-0.5391 1.67179,-0.82346c0.82303,-0.40489 1.66146,-0.7624 2.50583,-1.12184c1.02039,-0.43917 1.98763,-0.88457 2.93032,-1.47401c0.2653,-0.15605 0.53261,-0.31406 0.80386,-0.47597c0.19529,0.06559 0.39188,0.1325 0.58978,0.20074c-1.14606,0.89566 -2.29445,1.57843 -3.6021,2.20703c-0.17408,0.08564 -0.34624,0.17328 -0.52629,0.26087c-0.81507,0.39705 -1.507,0.66874 -2.4012,0.84261c-0.59766,0.31562 -1.19145,0.64308 -1.78134,0.97453c-0.52628,0.26088 -1.05257,0.52176 -1.58276,0.77865l-0.39119,-0.39661c-0.17635,0.12307 -0.35467,0.24419 -0.535,0.37119c-0.23181,0.15823 -0.46365,0.32038 -0.7034,0.48251c-0.22986,0.16021 -0.45967,0.31647 -0.69746,0.48058c-0.42789,0.28118 -0.90562,0.55156 -1.43321,0.81112l-0.39119,-0.39661c-0.2241,0.18191 -0.45018,0.36186 -0.68025,0.54966c-0.8936,0.61536 -1.64491,0.91823 -2.68385,1.20352l-0.19559,-0.19831z" fill="#351e3f"/><path d="M248.57941,229.8812c0.8864,-0.70214 1.75892,-1.1363 2.79496,-1.5596c1.89663,-0.84176 3.58859,-2.24456 4.54099,-4.11116c0.41352,-0.2931 0.80971,-0.55346 1.18857,-0.78109c-0.28847,1.3878 -0.56749,2.57067 -1.40813,3.73627c-1.1826,0.77522 -2.43398,1.26223 -3.75829,1.75077c-0.31233,0.12029 -0.62467,0.24056 -0.94887,0.3647c-0.73532,0.27536 -1.47058,0.54283 -2.21363,0.79842z" fill="#41224f"/><path d="M218.29615,142.7726c1.91902,-0.67606 3.88537,-1.35577 5.92483,-1.54032l0.3912,0.39662c-0.32868,0.45328 -0.65734,0.90656 -0.99597,1.37358l-0.39119,-0.39661l-0.59577,0.58763l-0.39119,-0.39661c-0.15864,0.12518 -0.31728,0.25034 -0.48382,0.37941c-0.87301,0.49723 -1.47898,0.60978 -2.48009,0.58785c-0.36279,-0.33074 -0.68879,-0.66126 -0.97799,-0.99154z" fill="#2f1d41"/><path d="M164.48562,168.85274c3.39242,-3.40473 7.55509,-5.9769 12.08121,-7.61255l0.1956,0.19831c-0.74563,0.76673 -1.3404,1.22297 -1.78434,1.36872l-0.39119,-0.39661c-0.23599,0.18974 -0.47594,0.37945 -0.71988,0.57701c-1.44333,1.1067 -3.00748,2.03133 -4.55216,2.98762c-1.10509,0.69093 -2.16487,1.38412 -3.17442,2.21164c-0.57763,0.44715 -1.12923,0.6691 -1.65482,0.66586z" fill="#341e3e"/><path d="M319.531,152.85721l0.39719,-0.39175c0.16638,0.15278 0.33077,0.30754 0.50107,0.46429c0.22318,0.1985 0.44439,0.39892 0.67344,0.60335c0.21925,0.19845 0.43654,0.39494 0.66166,0.59932c0.77233,0.56058 1.34629,0.76911 2.28334,0.92075c1.22839,-0.31568 1.97655,-0.9832 2.77431,-1.95393c0.30411,-0.93896 0.3111,-1.85873 0.02097,-2.75929l0.39719,-0.39175c0.52159,0.52882 0.81511,0.98265 0.88057,1.36149c-0.06916,1.32016 -0.28028,2.12697 -1.19835,3.10683c-1.27774,1.10379 -2.37471,1.24682 -4.03592,1.1952c-1.47411,-0.54915 -2.33149,-1.58922 -3.35347,-2.75644z" fill="#331e3d"/><path d="M309.9797,138.80412c0.3807,-0.46938 0.83645,-0.95933 1.36725,-1.46985c0.25684,-0.25333 0.517,-0.50862 0.78045,-0.76587c1.98773,-1.67889 4.14641,-2.24704 6.70929,-2.31797c0.55806,0.05206 1.03268,0.27639 1.42388,0.673c-1.10609,0.13116 -1.94014,0.17135 -2.50216,0.12058c-2.50054,0.16593 -4.56411,1.70836 -6.27027,3.42249c-0.24823,0.24484 -0.49456,0.49561 -0.74878,0.75029c-0.1867,0.18806 -0.37539,0.37808 -0.56611,0.57403c-0.06257,-0.32561 -0.12514,-0.65122 -0.1896,-0.98668z" fill="#331e3c"/><path d="M143.17327,198.08965l0.59278,-0.19345c0.15425,1.31628 0.14273,2.31355 -0.03456,2.9918c-0.17074,0.50747 -0.16686,1.03309 0.01166,1.57689c0.05922,0.24674 0.11842,0.49742 0.17954,0.75404c-0.10161,0.14326 -0.20124,0.28456 -0.30487,0.43372c-0.43187,0.80546 -0.22112,1.34485 -0.03663,2.22704c0.21483,1.04006 0.32088,1.60835 0.10198,2.66151c0.07076,0.37099 0.16651,0.74081 0.28722,1.10948c0.19173,0.70812 0.22039,1.25887 0.086,1.65225l-0.7824,-0.79323l0.20159,-0.59007c-0.17875,-0.59832 -0.36941,-1.18883 -0.5778,-1.77748l0.59578,-0.58764c-0.09125,-0.18387 -0.18447,-0.36578 -0.27763,-0.55557c-0.71055,-1.94781 -0.44518,-3.92705 -0.26422,-5.95215c0.04166,-0.5536 0.08332,-1.1072 0.12302,-1.66278c0.03285,-0.43144 0.0637,-0.86094 0.09656,-1.29239z" fill="#4e2161"/><path d="M334.92835,149.79845c0.74563,-0.76674 1.34042,-1.22298 1.78434,-1.36872l0.39119,0.39661c-0.52329,0.38704 -1.04659,0.77408 -1.58574,1.17285c0.05788,0.16592 0.11575,0.33184 0.17557,0.49975c0.56985,1.78531 0.73132,3.36313 0.37227,5.21959l-0.39719,0.39175l0.3882,0.7908c-0.03007,1.36375 -0.33136,2.10695 -1.20654,3.1462l-0.39119,-0.39661c0.37209,-1.41028 0.70707,-2.26233 1.00496,-2.55615l-0.39119,-0.39661c0.10211,-0.46847 0.20618,-0.93496 0.31619,-1.40338c0.15093,-0.92743 0.00779,-1.80345 -0.08763,-2.73435c0.06653,-0.19473 0.13304,-0.38944 0.20158,-0.59006c-0.06687,-0.36439 -0.15865,-0.73814 -0.27531,-1.12124c-0.09789,-0.34554 -0.19774,-0.69305 -0.29951,-1.05043z" fill="#361e40"/><path d="M210.61735,245.41549c1.19596,-0.97616 2.37338,-1.32765 3.83102,-1.72469c2.08398,-0.5962 4.06616,-1.28371 6.05369,-2.15645l0.39119,0.39661c-0.8434,1.01185 -1.68097,1.25505 -2.93124,1.59621c-0.33974,0.09514 -0.68212,0.19027 -1.02711,0.28539c-0.61027,0.15983 -1.22246,0.31374 -1.83655,0.45778c-1.41395,0.35396 -2.74711,0.96859 -4.08782,1.53981l-0.3912,-0.39662z" fill="#4d2160"/><path d="M321.91411,150.50668c0.67674,-0.52143 1.20433,-0.78099 1.58275,-0.77866c0.47372,0.42997 0.93012,0.89269 1.36918,1.38815c-0.00197,0.26016 -0.00396,0.52033 -0.006,0.78839c-0.37154,0.30124 -0.76772,0.56161 -1.18856,0.78108c-0.8139,-0.27701 -1.20452,-0.74852 -1.76336,-1.39058z" fill="#431e53"/><path d="M271.21515,182.12485c1.01287,-0.74471 2.03883,-1.39671 3.1685,-1.9515c0.19464,0.06624 0.38926,0.13249 0.58979,0.20073c0.53028,-0.26873 1.06449,-0.53744 1.59481,-0.81012c0.96917,-0.44342 1.95534,-0.78622 2.96704,-1.119c0.18376,-0.05997 0.36756,-0.12387 0.55529,-0.18776c0.88915,-0.28755 1.55457,-0.35573 1.99625,-0.20452c-3.38996,1.78261 -7.07316,2.98983 -10.67608,4.27047z" fill="#331e3c"/><path d="M142.98066,197.49716l0.59278,-0.19345c-0.0677,0.34845 -0.13538,0.69691 -0.20516,1.05914c-0.19369,1.10652 -0.22727,2.15293 -0.22199,3.27447c-0.04253,0.40972 -0.08705,0.82138 -0.13353,1.23107c-0.14598,1.57197 -0.00838,3.17723 0.48278,4.68415l-0.59578,0.58764c-0.13302,-0.39305 -0.26011,-0.78804 -0.38521,-1.18499c-0.07452,-0.22384 -0.15098,-0.44967 -0.22941,-0.67747c-0.33588,-1.96915 0.07293,-3.89035 0.47594,-5.82538c0.01289,-0.65824 0.01984,-1.31455 0.01498,-1.97092c0.06751,-0.32481 0.13502,-0.64961 0.20459,-0.98426z" fill="#321e3a"/><path d="M241.84823,233.78178c1.02563,-0.78209 1.68561,-1.17224 1.97994,-1.17042c0.69981,-0.52983 1.38784,-1.06762 2.07011,-1.62318c0.89425,-0.69815 1.53577,-1.08051 2.68114,-1.10697c-0.57962,0.5365 -1.16319,1.07296 -1.74867,1.60349c-0.1608,0.15078 -0.32356,0.29959 -0.49032,0.45623c-1.15904,1.04539 -2.22658,1.72276 -3.70681,2.2399c-0.25917,-0.13169 -0.51835,-0.26337 -0.78539,-0.39904z" fill="#49205b"/><path d="M239.33672,175.22698c0.21207,-0.15441 0.4261,-0.30683 0.64411,-0.46317c0.49946,-0.36354 0.97139,-0.7351 1.43181,-1.14619c1.26209,-1.11964 2.57513,-1.94135 4.06716,-2.71269c0.18205,-0.09348 0.36607,-0.18893 0.55211,-0.28634c0.78551,-0.39527 1.32562,-0.66197 2.21454,-0.65847c-0.95499,1.16884 -2.10374,1.64073 -3.45438,2.22174c-1.26774,0.56576 -2.19181,1.29722 -3.24535,2.20726c-0.26587,0.23094 -0.53568,0.46186 -0.80951,0.70064c-0.20238,0.17614 -0.40676,0.35425 -0.61509,0.53627c-0.25918,-0.13168 -0.51835,-0.26337 -0.78538,-0.39904z" fill="#381e43"/><path d="M156.56288,173.92859l0.19559,0.19831c-0.12518,0.13129 -0.25034,0.26258 -0.37949,0.39778c-3.0678,3.22541 -5.94832,6.44605 -8.37357,10.19182c-0.20288,-1.05575 -0.11993,-1.3371 0.42881,-2.2187c2.27521,-3.1948 5.3288,-5.84673 8.12866,-8.56919z" fill="#361e40"/><path d="M298.69586,145.23896c0.28961,-0.2413 0.62845,-0.47771 1.01654,-0.70921c0.18879,-0.11578 0.37956,-0.23221 0.57229,-0.34929c0.58378,-0.30585 1.14906,-0.5113 1.77726,-0.69665c0.06323,0.32627 0.12643,0.65517 0.1896,0.98669c-0.3672,0.33871 -0.7403,0.67149 -1.11732,1.00424c-0.20838,0.18597 -0.4148,0.37391 -0.62713,0.56379c-0.42377,0.25888 -0.85869,0.34096 -1.30474,0.24623c-0.16689,-0.08578 -0.33771,-0.1716 -0.5105,-0.25937l0.006,-0.78839z" fill="#351943"/><path d="M229.13188,143.43066c0.3477,-0.27774 0.74389,-0.5381 1.18856,-0.78108c0.44206,0.10127 0.83525,0.2351 1.17958,0.40146l0.39719,-0.39175c0.21009,0.10576 0.42214,0.2135 0.63812,0.32521c0.24371,0.09218 0.48546,0.18236 0.73705,0.27457l0.79137,-0.38932c0.74174,0.17605 1.43998,0.37154 2.16354,0.60463c0.22689,0.0579 0.4564,0.11713 0.68851,0.17769c0.62266,0.28569 0.75412,0.62158 1.07486,1.21289c-0.23389,-0.0862 -0.46581,-0.17436 -0.70561,-0.26255c-1.55942,-0.56149 -3.16077,-0.87949 -4.80405,-0.95401c-0.65644,0.00976 -1.31476,0.00963 -1.97096,-0.01215l-0.39119,-0.39661c-0.26116,0.12849 -0.52231,0.25696 -0.79138,0.38933z" fill="#331e3c"/><path d="M230.76897,239.23238c1.95832,-1.69682 4.06997,-2.56287 6.5296,-3.31051l0.19559,0.19831c-0.70365,0.7762 -1.19459,1.05699 -2.17853,1.3663c-0.47328,0.29077 -0.95052,0.58151 -1.42381,0.87228c-0.93412,0.49882 -1.91385,0.77268 -2.92726,1.07195z" fill="#441f54"/><path d="M142.86981,212.08204c0.3912,0.39662 0.60917,0.84932 0.65392,1.35812c0.12566,1.10061 0.45034,1.95014 0.87824,2.96391c0.21388,0.64584 0.21221,1.12479 0.19525,1.79877c0.10463,0.23716 0.20731,0.47235 0.31386,0.71544c0.08704,0.21932 0.17602,0.44063 0.26692,0.66785l-0.40018,0.78595l-0.77939,-1.18742l0.39719,-0.39176c-0.11655,-0.22541 -0.23114,-0.44885 -0.3516,-0.67822c-0.95238,-2.02617 -1.11619,-3.81291 -1.17422,-6.03265z" fill="#381e43"/><path d="M321.17337,147.08632c1.06899,-0.60837 2.10604,-0.64536 3.31431,-0.38955c0.83085,0.3816 1.3273,0.93258 1.95301,1.59477c0.22488,0.23593 0.44975,0.47187 0.68444,0.71379c0.17011,0.18041 0.33823,0.36278 0.5142,0.54914l-0.39719,0.39175c-0.11921,-0.13279 -0.23646,-0.26755 -0.35761,-0.40626c-1.10849,-1.19536 -1.96188,-1.98114 -3.56332,-2.37732c-1.56296,0.25054 -2.59662,1.13705 -3.76128,2.14494c0.2557,-1.22636 0.64409,-1.49599 1.61343,-2.22126z" fill="#361e41"/><path d="M264.45615,163.75271c0.89667,-1.01744 1.47405,-1.2583 2.77132,-1.55975c0.41154,-0.20639 0.8212,-0.42265 1.22498,-0.64486c1.2529,-0.68805 2.53486,-1.31087 3.91746,-1.68867l0.58978,0.20073c-0.34074,0.22654 -0.68539,0.44911 -1.02805,0.66973c-0.19017,0.12498 -0.38033,0.24995 -0.57844,0.37882c-0.38136,0.21182 -0.90103,0.38142 -1.55901,0.50877c-0.36392,0.16333 -0.72201,0.34049 -1.07622,0.52161c-1.32766,0.67182 -2.69007,1.24488 -4.06622,1.81194z" fill="#341e3e"/><path d="M257.57815,186.96838l0.79438,-0.78351l0.3912,0.39662c0.29889,-0.16569 0.59579,-0.32943 0.90259,-0.49902c1.90333,-0.94618 3.97675,-1.44982 6.01521,-2.02068c-0.11002,0.29892 -0.30961,0.62619 -0.59877,0.98182c-0.72344,0.26755 -1.40706,0.48407 -2.14964,0.67661c-0.41281,0.11374 -0.82366,0.22948 -1.23453,0.34521c-0.1995,0.05594 -0.399,0.11185 -0.60245,0.16777c-1.0687,0.31075 -2.09477,0.72031 -3.12678,1.1318z" fill="#331e3c"/><path d="M272.95969,160.06016c0.93752,-1.2064 1.96837,-1.46416 3.37294,-1.87928c0.7766,-0.26131 1.43153,-0.59038 2.14218,-0.994c1.00954,-0.56538 1.81359,-0.80681 2.98842,-0.81928l-0.99298,0.97941l-0.78538,-0.39905c-0.14058,0.16995 -0.28183,0.34188 -0.42375,0.51577c-1.06142,0.90999 -2.21163,1.31287 -3.5103,1.79959c-0.24909,0.09701 -0.49817,0.19404 -0.75514,0.291c-0.61282,0.23671 -1.22561,0.46945 -1.83841,0.7022l-0.1956,-0.19831z" fill="#351e40"/><path d="M200.87691,152.52037c2.31477,-2.17619 4.16331,-3.34742 5.54562,-3.51367c-0.35043,0.63777 -0.74762,1.02953 -1.19156,1.17528c-0.74523,0.54336 -1.47681,1.10454 -2.20842,1.66965c-0.77043,0.48603 -1.24656,0.63093 -2.14563,0.66874z" fill="#592470"/><path d="M151.96099,234.80479l0.19859,-0.19588c1.1302,0.84661 1.80097,1.45651 2.01232,1.82968c0.4166,0.68454 0.91706,1.22769 1.46055,1.81446c0.21895,0.23787 0.43791,0.47575 0.66268,0.7235c0.22873,0.24779 0.45551,0.49359 0.69205,0.74931c0.23069,0.24978 0.45938,0.5015 0.69789,0.7592c0.56886,0.62043 1.13774,1.23692 1.70858,1.8554l-0.19859,0.19588c-0.96827,-0.97374 -1.93653,-1.94747 -2.90281,-2.92317c-0.3286,-0.33315 -0.65723,-0.66236 -0.98782,-0.99356c-0.47338,-0.47596 -0.94674,-0.95192 -1.41814,-1.42984c-0.1467,-0.14874 -0.29538,-0.29551 -0.44797,-0.44624c-0.62004,-0.62863 -1.08526,-1.14002 -1.47734,-1.93873z" fill="#3b1e47"/><path d="M144.03739,214.06025l0.59278,-0.19345c-0.01869,0.21144 -0.03674,0.42485 -0.05414,0.64025c0.04547,1.01929 0.29581,1.79347 0.62956,2.74754c0.21192,0.64385 0.29391,1.26721 0.36961,1.93979c0.11918,0.39889 0.24626,0.79387 0.38521,1.18499c-0.39319,-0.13382 -0.67997,-0.35175 -0.86032,-0.65376c-0.08333,-0.18777 -0.16467,-0.37748 -0.25188,-0.57315c-0.08531,-0.1858 -0.16864,-0.37356 -0.25588,-0.56529c-0.20416,-0.62804 -0.19851,-1.1109 -0.18171,-1.76518c-0.09882,-0.22333 -0.19961,-0.44865 -0.30232,-0.67989c-0.31713,-0.80613 -0.26448,-1.24929 -0.0709,-2.08184z" fill="#522167"/><path d="M309.56454,141.56099c-0.11961,0.4388 -0.24318,0.87757 -0.36676,1.31635c-0.06755,0.24398 -0.13644,0.4906 -0.20667,0.73982c-0.15728,0.46552 -0.35285,0.86706 -0.58668,1.20464c-0.21002,0.3167 -0.24285,0.66077 -0.0985,1.0322c0.07923,0.20745 0.15651,0.41291 0.23568,0.62824c0.05126,0.51672 0.08871,1.03534 0.11238,1.55189c0.01378,0.2642 0.02558,0.52642 0.03928,0.7985c0.00835,0.19912 0.01667,0.39825 0.02497,0.60526c-1.06405,-1.07879 -0.9375,-2.68636 -0.95402,-4.14502c0.28256,-2.08098 0.88333,-3.32559 1.8023,-3.73383z" fill="#311e39"/><path d="M234.17031,180.714l0.59278,-0.19344c-0.01636,0.25087 -0.03275,0.50569 -0.04917,0.76446c-0.02093,0.33363 -0.04188,0.66989 -0.06286,1.00878c-0.02024,0.32904 -0.04048,0.65808 -0.06277,0.99695c-0.03229,0.6187 -0.04688,1.23948 -0.0378,1.8604c-0.01663,0.4598 -0.15734,0.82029 -0.42213,1.08147l0.58679,0.59493l-0.39719,0.39176c-0.93699,-1.45841 -0.77916,-2.51391 -0.51253,-4.1423c0.03328,-0.22844 0.06655,-0.45687 0.10184,-0.69121c0.08309,-0.55926 0.17208,-1.11651 0.26107,-1.67376z" fill="#301e37"/><path d="M243.00812,184.9076c0.87373,0.44492 0.8963,0.58697 1.36918,1.38815c0.45945,0.49362 0.92885,0.9735 1.40617,1.44948c0.24645,0.24987 0.49883,0.4978 0.7551,0.75364c0.18975,0.18842 0.38147,0.37881 0.57908,0.57123c-1.14924,0.01854 -1.59036,-0.03542 -2.45731,-0.8548c-0.52976,-0.57683 -0.92042,-1.04439 -1.26802,-1.73049l0.39719,-0.39175c-0.25718,-0.39184 -0.51439,-0.7837 -0.77939,-1.18741z" fill="#361e40"/><path d="M176.76242,161.4385c0.31734,-0.25822 0.63662,-0.51445 0.9559,-0.77069l0.53744,-0.43228c0.3277,-0.23976 0.68915,-0.42413 1.08434,-0.55309l0.39119,0.39661c0.13687,-0.11545 0.27375,-0.23089 0.41262,-0.34829c0.17852,-0.14869 0.35702,-0.29346 0.54147,-0.44408c0.17654,-0.14674 0.35506,-0.29543 0.53756,-0.44806c0.16242,-0.10543 0.3229,-0.21285 0.49129,-0.32416c0.19462,0.06624 0.38925,0.13248 0.58978,0.20074c-1.62531,1.45051 -3.30625,2.18126 -5.34403,2.9236l-0.1956,-0.19831z" fill="#341e3d"/><path d="M195.6022,250.05343c1.07025,-0.51573 1.982,-0.66385 3.15951,-0.76894c1.25351,-0.25048 2.3783,-0.67915 3.5567,-1.1607c-0.1245,0.30276 -0.3241,0.63003 -0.59878,0.98182c-0.61805,0.23403 -1.21084,0.42748 -1.77835,0.58035l-0.39119,-0.39661c-0.18497,0.13289 -0.37127,0.26708 -0.55889,0.40258c-0.20988,0.12486 -0.41581,0.24973 -0.62967,0.3785c-0.19463,-0.06625 -0.38925,-0.13248 -0.58979,-0.20074c-0.22348,0.09915 -0.44894,0.20026 -0.68034,0.30329c-0.23329,0.09319 -0.46459,0.18439 -0.70381,0.2795c-0.25917,-0.13169 -0.51835,-0.26337 -0.78539,-0.39904z" fill="#3b1f47"/><path d="M154.30816,237.18448l0.19859,-0.19588c0.11746,0.10716 0.23487,0.21826 0.35623,0.32939c2.13208,1.9789 4.29731,3.9199 6.49566,5.823c-0.33548,0.0518 -0.72966,0.04937 -1.18257,-0.00729c-0.44794,-0.36411 -0.9144,-0.79864 -1.39939,-1.30358c-0.12909,-0.13088 -0.25819,-0.26176 -0.38921,-0.39857c-0.40873,-0.42234 -0.81548,-0.84665 -1.22025,-1.27292c-0.27573,-0.2875 -0.55345,-0.57303 -0.83117,-0.85857c-0.68058,-0.70193 -1.35524,-1.40581 -2.02789,-2.11558z" fill="#471f57"/><path d="M221.05848,142.3954c0.99932,-0.7783 1.91365,-1.00722 3.1625,-1.16313l0.3912,0.39662c-0.32868,0.45328 -0.65734,0.90656 -0.99597,1.37358c-0.17484,-0.07795 -0.34768,-0.15785 -0.5284,-0.23781c-0.43505,-0.15773 -0.84201,-0.1228 -1.22087,0.10483c-0.13877,0.10558 -0.27952,0.21181 -0.42225,0.31868c-0.1281,-0.26096 -0.25621,-0.52193 -0.3882,-0.7908z" fill="#341849"/><path d="M182.30205,158.7132c0.92922,-0.63091 1.88146,-1.1789 2.87097,-1.70499c0.28896,-0.15591 0.57397,-0.31181 0.87084,-0.47162c0.76336,-0.33431 1.18006,-0.44016 1.99143,-0.34843c-1.52196,1.33682 -3.21314,2.12073 -5.14544,2.72773l-0.58979,-0.20073z" fill="#351e3e"/><path d="M145.8119,188.0537l1.78733,-1.7629c-0.1064,1.03216 -0.35252,1.77569 -0.85807,2.68121c-0.11593,0.21215 -0.23386,0.42627 -0.35378,0.64629c-0.40482,0.61837 -0.84399,1.08675 -1.38981,1.58599l-0.39119,-0.39661c0.52626,-0.77728 1.05253,-1.55457 1.59473,-2.3554l-0.39119,-0.39661z" fill="#3e204a"/><path d="M245.60352,232.4252c1.90406,-1.81934 3.59229,-2.99155 6.13839,-3.70712c-0.31645,0.92246 -1.15414,1.18142 -1.96959,1.62579c-0.34442,0.19104 -0.68688,0.38405 -1.02931,0.57313c-0.3167,0.17545 -0.63538,0.35285 -0.96199,0.53414c-0.66321,0.38419 -1.32255,0.77632 -1.97994,1.17041l-0.19559,-0.19831z" fill="#321e3b"/><path d="M254.39768,190.49662c1.83231,-1.45514 3.95589,-2.59511 6.32501,-2.32625c-1.2882,0.66419 -2.60293,1.19024 -3.95502,1.70225c-0.20955,0.08148 -0.41907,0.15904 -0.63454,0.24247c-0.51198,0.19591 -1.02593,0.38985 -1.53789,0.58182l-0.1956,-0.19831z" fill="#361e40"/><path d="M181.98917,251.74348c1.38222,-0.32655 2.62849,-0.40166 4.04345,-0.36928c0.96182,0.00592 1.90266,-0.08092 2.85937,-0.17949l-0.20158,0.59006c-1.71851,0.2279 -3.38948,0.42457 -5.12746,0.36262c-0.22869,0.00647 -0.45542,0.01494 -0.69002,0.0194c-0.32837,-0.01779 -0.62295,-0.15889 -0.88375,-0.4233z" fill="#351e3f"/><path d="M257.10393,223.42935c-0.2844,1.37206 -0.78596,2.01153 -1.75916,2.98315c-0.20656,0.20766 -0.41118,0.41729 -0.62569,0.6328c-0.40202,0.33653 -0.93202,0.56847 -1.59,0.69582c0.17097,-0.1921 0.33995,-0.38225 0.5149,-0.57827c0.21871,-0.24963 0.44073,-0.50121 0.66604,-0.75474c0.21869,-0.247 0.43937,-0.49597 0.66404,-0.75278c0.98145,-1.19233 1.6914,-1.93432 2.12988,-2.22596z" fill="#4a235b"/><path d="M302.63262,171.87201c1.06472,-0.82325 2.15477,-1.09246 3.43439,-1.40783c0.20343,-0.05197 0.4029,-0.10397 0.61222,-0.15786c0.49569,-0.12507 0.99137,-0.25013 1.48507,-0.37322c-0.16273,0.3196 -0.36232,0.64688 -0.59877,0.98181c-0.46003,0.10162 -0.92001,0.19931 -1.3857,0.2674c-1.09752,0.21399 -2.12396,0.66692 -3.15797,1.08432l-0.3912,-0.39662z" fill="#361e40"/><path d="M295.32877,147.38634c0.31734,-0.25822 0.63662,-0.51446 0.9559,-0.77069l0.53745,-0.43229c0.32769,-0.23977 0.68914,-0.42412 1.08432,-0.55309l0.7824,0.79323c-0.40982,0.2399 -0.82158,0.47389 -1.23728,0.70786c-0.22965,0.13261 -0.45926,0.26127 -0.69683,0.39779c-0.20958,0.08542 -0.4231,0.17085 -0.6406,0.26016c-0.25918,-0.13168 -0.51837,-0.26337 -0.78539,-0.39904z" fill="#33143b"/><path d="M143.56446,198.48627c0.26115,-0.12848 0.52231,-0.25695 0.79138,-0.38933c-0.07674,1.62496 -0.15492,3.267 -0.23455,4.9261c-0.3912,-0.39662 -0.59699,-0.89524 -0.61739,-1.49587c0.01452,-0.35469 0.031,-0.70741 0.04558,-1.06999l0.00842,-1.10767zM143.52551,203.61068l0.59278,-0.19345c-0.06851,0.45488 -0.13701,0.90976 -0.20759,1.37844c-0.12711,-0.39105 -0.25424,-0.7821 -0.38521,-1.18499z" fill="#782c99"/><path d="M218.86497,145.73262c1.59472,-1.05649 3.24483,-1.36169 5.13645,-1.54517l0.58978,0.20074c-0.39224,0.25908 -0.78842,0.51943 -1.18856,0.78108l-0.39119,-0.39661c-0.17607,0.08367 -0.35017,0.16932 -0.53215,0.25493c-1.11097,0.42678 -2.24451,0.71152 -3.41874,0.90334z" fill="#341e3e"/><path d="M333.8117,141.11908l0.78838,0.00487c0.87537,1.0093 1.39396,1.9323 1.55579,2.76902c-0.1956,0.06383 -0.39123,0.12767 -0.59278,0.19344c0.06356,0.19552 0.12713,0.39103 0.19262,0.59249c-0.75008,-1.15373 -1.46501,-2.26387 -1.944,-3.55981z" fill="#371940"/><path d="M247.11565,189.07204c0.82987,-0.00869 1.62767,0.0534 2.45085,0.14913c1.07151,0.09727 1.69928,-0.03289 2.67661,-0.51174l0.98398,0.20317c-1.78504,0.94298 -3.03118,1.26052 -5.00552,0.91526c-0.34608,-0.10726 -0.71473,-0.35919 -1.10592,-0.75581z" fill="#351e3e"/><path d="M189.08758,251.393c0.99343,-0.78031 1.79273,-0.91532 3.03722,-1.01607c0.31755,-0.02761 0.63904,-0.05519 0.96646,-0.08472c0.24256,-0.01624 0.48516,-0.03643 0.73365,-0.05461l-0.20159,0.59007c-0.5177,0.16894 -1.04428,0.2971 -1.57975,0.38447l-0.3912,-0.39662c-0.13083,0.09775 -0.26167,0.19549 -0.39643,0.29321c-0.75774,0.37179 -1.33888,0.33077 -2.17029,0.28228z" fill="#40204d"/><path d="M203.69957,247.9352c1.09688,-0.64763 1.91359,-0.99935 3.1625,-1.16313c0.74137,-0.29305 1.45352,-0.63162 2.17553,-0.9721c-0.27819,0.81429 -0.67105,0.89663 -1.42695,1.28617c-0.22164,0.1169 -0.44724,0.23376 -0.67679,0.35456c-0.61321,0.28793 -1.21014,0.50895 -1.85811,0.70206l-0.3912,-0.39662c-0.26114,0.12849 -0.5223,0.25697 -0.79137,0.38933l-0.19559,-0.19831z" fill="#422050"/><path d="M254.69684,228.93339c0.32146,-0.28185 0.65461,-0.54785 0.99164,-0.80595c0.18373,-0.14209 0.36944,-0.28483 0.55712,-0.42822c0.14275,-0.10949 0.28746,-0.21701 0.43218,-0.32847c0.19266,0.32641 0.38531,0.65281 0.5838,0.98911c-0.81432,0.64148 -1.50287,0.98676 -2.06564,1.03586c-0.16541,-0.02073 -0.33278,-0.04344 -0.50409,-0.06619l0.00299,-0.39419z" fill="#421459"/><path d="M293.94247,174.18369c0.93951,-0.68801 1.85471,-1.03124 2.9669,-1.36142l0.39119,0.39661c0.14666,-0.10554 0.29529,-0.20908 0.44592,-0.31853c0.18002,-0.08758 0.3581,-0.17716 0.54407,-0.26668l0.78538,0.39905c-1.59448,0.76675 -3.36,1.21708 -5.13344,1.15097z" fill="#351e3e"/><path d="M143.17327,198.08965l0.59278,-0.19345c0.15425,1.31628 0.14273,2.31355 -0.03456,2.9918c-0.22957,0.89934 -0.08201,1.4541 0.19121,2.33092l-0.59278,0.19345c-0.37039,-1.8373 -0.35805,-3.46136 -0.15665,-5.32272z" fill="#56246c"/><path d="M265.87711,184.26009c0.89956,-1.13765 2.02874,-1.36722 3.36409,-1.7532l1.03737,-0.33853c0.24503,-0.08127 0.48807,-0.16058 0.74097,-0.24181l-0.20159,0.59006c-0.67661,0.33091 -1.34311,0.62837 -2.03906,0.91185c-0.18985,0.08161 -0.38164,0.16124 -0.5774,0.24479c-0.81266,0.33598 -1.43745,0.5923 -2.32438,0.58684z" fill="#301e38"/><path d="M142.50259,208.53193l0.59278,-0.19345c0.19068,0.58657 0.38135,1.17313 0.5778,1.77748l-0.39719,0.39175l0.58679,0.59493c-0.13305,0.38944 -0.26745,0.78282 -0.40318,1.18013c-0.8672,-1.04604 -0.82575,-1.83025 -0.76441,-3.15834z" fill="#401e4f"/><path d="M241.84823,233.78178c0.5233,-0.38704 1.0466,-0.77408 1.58574,-1.17285c0.25918,0.13169 0.51835,0.26337 0.78539,0.39904c0.39223,-0.25775 0.78445,-0.51552 1.18857,-0.78109c-0.43017,0.84292 -0.81115,1.17565 -1.67537,1.55467c-0.18725,0.08557 -0.37713,0.17244 -0.56964,0.2606c-0.35418,0.09374 -0.79307,0.0076 -1.31666,-0.25843z" fill="#3a1f46"/><path d="M230.76897,239.23238c1.1542,-0.92716 2.18518,-1.46283 3.56268,-1.94908l0.3912,0.39662c-1.16614,0.94284 -2.34196,1.3436 -3.75829,1.75077z" fill="#351e3e"/><path d="M241.27771,179.18098l0.59278,-0.19345c0.1347,0.43051 0.26741,0.86299 0.39618,1.29543c0.07307,0.24091 0.14743,0.48446 0.22308,0.73066c0.15569,0.78148 0.10413,1.34094 -0.05944,2.11652c-0.47712,-0.76177 -0.82993,-1.54053 -1.16459,-2.37241l0.39719,-0.39175z" fill="#321e3a"/><path d="M253.62427,188.52084c1.22245,-0.83014 2.27421,-1.50761 3.75829,-1.75076c-0.43629,0.8685 -0.82686,1.16767 -1.72445,1.52874c-0.19773,0.08157 -0.39151,0.16315 -0.59517,0.24666c-0.15024,0.0582 -0.30049,0.11641 -0.4547,0.17852l-0.39119,-0.39661z" fill="#341e3e"/><path d="M224.5912,144.38819c0.74363,-0.50394 1.33741,-0.82878 1.78134,-0.97453l0.3912,0.39662c0.20771,-0.09924 0.4174,-0.20044 0.63108,-0.30556c0.50205,-0.18481 1.08107,-0.20949 1.73705,-0.07406c-0.97312,0.44339 -1.8898,0.72158 -2.93792,0.91813c-0.26055,0.04965 -0.51916,0.10127 -0.7876,0.15086c-0.20323,0.02831 -0.40646,0.05662 -0.61758,0.08489l-0.1956,-0.19831z" fill="#331e3d"/><path d="M190.40841,155.41241c1.11759,-1.29793 1.93801,-1.61809 3.56269,-1.94907l0.19559,0.19831c-0.91358,1.16713 -2.20709,1.49227 -3.56268,1.94907z" fill="#351e3f"/><path d="M246.8443,172.908c0.85686,-0.96643 1.30638,-1.24157 2.57272,-1.36386c0.53404,-0.24505 1.06423,-0.50196 1.58275,-0.77865c-0.34307,0.7922 -0.60471,0.98375 -1.39412,1.37506c-0.30638,0.1144 -0.60882,0.22882 -0.92311,0.34713c-0.30642,0.11834 -0.61478,0.2347 -0.92911,0.35694c-0.23521,0.08725 -0.47239,0.1725 -0.71353,0.26168z" fill="#361e41"/><path d="M282.08683,178.05269c1.0112,-0.78611 1.9329,-1.20617 3.16549,-1.55731c-0.3184,0.65833 -0.50186,0.93709 -1.17633,1.24632c-0.21334,0.06174 -0.42665,0.11958 -0.64592,0.18327c-0.21532,0.06373 -0.42867,0.12548 -0.64993,0.19113c-0.16393,0.04433 -0.32786,0.08864 -0.49772,0.13489z" fill="#321e3c"/><path d="M258.26552,226.19594c0.1281,0.26097 0.2562,0.52193 0.3882,0.7908l-1.19155,1.17527l-0.58679,-0.59493c0.2701,-0.78674 0.69709,-0.94967 1.39015,-1.37115z" fill="#310c37"/><path d="M142.52955,204.98426l0.59278,-0.19344c0.04118,0.54622 0.0804,1.09047 0.12159,1.63669c0.02743,0.36678 0.11132,0.74179 0.25163,1.12504l-0.59578,0.58764c-0.43738,-1.06311 -0.40844,-2.01887 -0.37023,-3.15591z" fill="#3e1e4c"/><path d="M226.62549,239.79816c0.38194,-0.20066 0.76583,-0.39934 1.15168,-0.59604c0.2137,-0.10906 0.42743,-0.22206 0.6471,-0.33699c0.38489,-0.15794 0.77394,-0.17 1.16712,-0.03618c-1.02742,0.84516 -1.6344,1.09173 -2.96391,0.96726z" fill="#522167"/><path d="M215.33224,143.73984c0.65238,-0.25484 1.31137,-0.51358 1.97694,-0.77624l0.58679,0.59493c-0.39719,0.39176 -0.86333,0.60636 -1.39842,0.6438c-0.51608,-0.04392 -0.90452,-0.19808 -1.16532,-0.46248z" fill="#2d1d50"/><path d="M203.45562,150.36814c1.05516,-0.86469 1.80207,-1.10844 3.1625,-1.16313c-0.45711,0.32306 -0.9195,0.64871 -1.38716,0.97697l-0.39119,-0.39661c-0.39222,0.25776 -0.78445,0.51552 -1.18856,0.78108z" fill="#4b235d"/><path d="M193.57091,154.24929c0.58808,-0.35313 1.16606,-0.67282 1.78134,-0.97453l0.58678,0.59491c-0.49486,0.27684 -1.02244,0.53639 -1.58275,0.77866c-0.25918,-0.13168 -0.51836,-0.26336 -0.78539,-0.39904z" fill="#431e53"/><path d="M296.71593,146.40938c0.39221,-0.25644 0.7884,-0.5168 1.18856,-0.78108l0.78239,0.79322c-0.32669,0.19313 -0.65337,0.38623 -0.98997,0.58521z" fill="#38233d"/><path d="M278.4993,157.33487c0.97162,-0.76273 1.74136,-0.8999 2.96392,-0.96726l-0.99298,0.97941c-0.25916,-0.1317 -0.51834,-0.26338 -0.78538,-0.39905c-0.36262,0.16726 -0.69261,0.36234 -0.98997,0.58521z" fill="#321e3b"/><path d="M172.93779,249.71669c1.10851,-0.10355 1.79751,0.26928 2.75333,0.80537c-0.55136,0.10304 -1.14314,0.1651 -1.77535,0.18617c-0.39964,-0.32308 -0.72563,-0.65359 -0.97798,-0.99153z" fill="#452054"/><path d="M219.28313,142.58157c0.78917,-0.35977 1.29744,-0.58331 2.17254,-0.57793c-0.26313,0.38864 -0.52627,0.77729 -0.79737,1.17771c-0.4538,-0.19792 -0.90761,-0.39585 -1.37517,-0.59978z" fill="#2a1437"/><path d="M146.0015,189.04038c0.03805,0.35371 0.03505,0.74789 -0.00899,1.18255c-0.33137,0.37639 -0.66235,0.70286 -0.99296,0.97939l-0.39119,-0.39661c0.39019,-0.76827 0.77378,-1.18573 1.39314,-1.76534z" fill="#331e3c"/><path d="M248.02986,172.5211c1.85024,-0.70211 3.36407,-1.74924 4.94984,-2.92604l0.39119,0.39661c0.13688,-0.11544 0.27574,-0.23285 0.41659,-0.35222c2.21773,-1.85486 4.39964,-3.66658 7.11196,-4.72606l0.3912,0.39662c1.23064,-0.61394 2.40613,-1.31692 3.52644,-2.10894c0.87027,-0.65493 1.3698,-0.76814 2.41037,-1.00811c0.41154,-0.20639 0.8212,-0.42265 1.22498,-0.64486c1.07082,-0.59062 2.13854,-1.03344 3.28685,-1.44619c0.6326,-0.24445 1.22608,-0.52857 1.82958,-0.83822c0.7717,-0.3934 1.5171,-0.69825 2.3488,-0.9474c0.87324,-0.26662 1.61695,-0.60894 2.41072,-1.05541c1.30244,-0.72126 2.64396,-1.1407 4.06252,-1.58136c0.95841,-0.32326 1.82872,-0.72392 2.71733,-1.20134c0.3403,-0.16872 0.70737,-0.31429 1.1012,-0.4367c0.63631,-0.21683 1.10367,-0.50567 1.65844,-0.88462c0.89927,-0.58183 1.64427,-0.83151 2.69268,-1.06749c0.56761,-0.25469 1.11772,-0.53906 1.67178,-0.82342c0.82303,-0.40489 1.66148,-0.7624 2.50584,-1.12186c1.02235,-0.43717 1.98172,-0.88656 2.91858,-1.4859c0.2692,-0.15206 0.54042,-0.30612 0.81755,-0.46209c0.25917,0.13169 0.51835,0.26337 0.78539,0.39904c0.16244,-0.10935 0.32488,-0.2148 0.4913,-0.32809c0.21394,-0.1406 0.42592,-0.28318 0.64779,-0.42767c0.20999,-0.14061 0.42395,-0.28121 0.64184,-0.42572c0.39877,-0.25246 0.86194,-0.50848 1.38952,-0.76803c0.3912,0.39662 0.60463,0.92813 0.64029,1.59456c-0.04566,0.64754 -0.20088,1.10189 -0.46567,1.36306c0.07174,0.15615 0.14351,0.30836 0.21916,0.46849c0.11069,0.47766 0.09406,1.02353 -0.0499,1.6376c-0.22615,1.22853 -0.00387,2.06561 0.38355,3.2171c0.06531,0.2251 0.13256,0.45219 0.19981,0.6832c0.86893,2.89092 2.09348,5.67367 4.24132,7.82743c0.21711,0.22012 0.43422,0.44024 0.65916,0.6683c0.22493,0.22805 0.45383,0.45219 0.68858,0.68622c0.22819,0.23135 0.45966,0.4647 0.69441,0.70005c0.56531,0.56917 1.1326,1.13636 1.69988,1.70357l0.39719,-0.39175l0.39119,0.39661c0.17992,-0.07182 0.35983,-0.14365 0.5437,-0.21937c0.42791,-0.11168 0.90366,-0.0345 1.42725,0.23151c0.68041,-0.31116 1.28649,-0.6977 1.92217,-1.08996c0.4337,-0.1826 0.87419,-0.22062 1.32147,-0.11405c0.1689,0.07987 0.33581,0.16173 0.50668,0.24358c-0.37889,0.31895 -0.75975,0.63591 -1.1406,0.95287c-0.21224,0.17805 -0.42251,0.35415 -0.64269,0.5361c-0.39918,0.31027 -0.86256,0.59518 -1.39015,0.85473l-0.39119,-0.39661c-0.29132,0.20516 -0.58066,0.41232 -0.87792,0.62335c-1.44385,0.91551 -3.01177,1.30005 -4.65871,1.70776l-0.39119,-0.39661c-0.16452,0.11922 -0.33098,0.23646 -0.50141,0.35761c-0.71686,0.44104 -1.36717,0.6834 -2.16931,0.93076c-0.25093,0.07925 -0.49986,0.15657 -0.76065,0.23774c-0.23707,0.07344 -0.4781,0.14684 -0.72111,0.22222c-0.39518,0.12765 -0.79036,0.25531 -1.18556,0.3869l-0.3912,-0.39662c-0.15991,0.1186 -0.32113,0.23849 -0.48367,0.35969c-0.8237,0.49163 -1.56632,0.69202 -2.4964,0.91691c-0.33175,0.08074 -0.6635,0.16147 -1.00511,0.24413c-0.31592,0.07295 -0.6299,0.14788 -0.95568,0.22275c-0.2429,0.0596 -0.48776,0.12117 -0.74054,0.18268c-1.01101,0.24212 -1.98606,0.42139 -3.02142,0.49582c-0.64924,0.01439 -1.2378,0.17107 -1.76567,0.47005l-0.39119,-0.39661c-0.78348,0.38544 -1.56693,0.77086 -2.37413,1.16799l-0.39119,-0.39661c-0.14264,0.09373 -0.28724,0.18941 -0.4358,0.28507c-0.19213,0.123 -0.38425,0.24598 -0.58035,0.37291c-0.18819,0.12302 -0.37636,0.24603 -0.57048,0.37097c-0.79182,0.44846 -1.45033,0.73021 -2.36871,0.71272c-0.71748,0.00346 -1.14274,0.19991 -1.78956,0.50143c-1.19255,0.52681 -2.40207,0.95297 -3.64483,1.34543c-1.65769,0.52394 -3.25883,1.12903 -4.84305,1.84264l-0.3912,-0.39662c-0.28726,0.19336 -0.5706,0.38675 -0.86777,0.58596c-2.00424,1.257 -4.1576,2.16418 -6.4502,2.71969c-0.34417,0.1595 -0.67861,0.33417 -1.00329,0.52401c-1.37525,0.70701 -2.81716,1.10809 -4.29861,1.52471c-1.03306,0.29126 -2.02298,0.61038 -3.00203,1.05571l-0.3912,-0.39662c-0.2173,0.23781 -0.4366,0.47889 -0.65792,0.72325c-0.92949,0.92854 -1.89056,1.34047 -3.10636,1.81588l-0.39119,-0.39661c-0.28323,0.18156 -0.56253,0.36313 -0.85369,0.5486c-1.69276,0.98887 -3.12473,1.38016 -5.05899,0.94841c-0.19671,-0.05245 -0.39735,-0.10493 -0.59995,-0.15941c-0.2046,-0.05251 -0.41312,-0.10503 -0.6256,-0.15759c-1.60479,-0.47111 -2.55334,-1.18652 -3.47874,-2.61333c-0.06795,-0.13642 -0.13594,-0.2689 -0.20583,-0.4073l0.39719,-0.39175c-0.12092,-0.16631 -0.23991,-0.33064 -0.36278,-0.50287c-0.43607,-0.7162 -0.64031,-1.33241 -0.84902,-2.13985c-0.06316,-0.24676 -0.12832,-0.49157 -0.19341,-0.74426c-0.04589,-0.18556 -0.09178,-0.37112 -0.13961,-0.5626l0.39719,-0.39175c-0.08721,-0.19567 -0.17443,-0.39134 -0.2675,-0.59296c-0.52803,-1.3258 -0.791,-2.51398 -0.68353,-3.94625c1.33463,-2.62308 3.67911,-3.7814 6.343,-4.69137z" fill="#451e56"/></g></g></svg>