<svg viewBox="0,0,35.87544,28.72621" height="28.72621" width="35.87544" xmlns:xlink="http://www.w3.org/1999/xlink" xmlns="http://www.w3.org/2000/svg" version="1.1"><g transform="translate(-215.03685,-160.0579)"><g style="mix-blend-mode: normal" stroke-dashoffset="0" stroke-dasharray="" stroke-miterlimit="10" stroke-linejoin="miter" stroke-linecap="butt" stroke-width="1" fill-rule="nonzero" data-paper-data="{&quot;isPaintingLayer&quot;:true}"><path stroke="none" fill="#ffef78" d="M245.29639,163.00603c0.58726,0.50369 1.14249,1.03638 1.68888,1.58372c0.16824,0.16553 0.16824,0.16553 0.33988,0.3344c2.56455,2.68966 3.66943,6.44243 3.58238,10.09598c-0.15977,2.72488 -0.92973,5.17801 -2.42983,7.46625c-0.06676,0.10304 -0.13352,0.20609 -0.2023,0.31226c-2.23414,3.19504 -5.76479,5.16263 -9.55437,5.83971c-3.76496,0.50499 -7.62765,-0.28739 -10.68009,-2.6076c-0.40733,-0.32962 -0.80561,-0.66787 -1.20326,-1.00902c-0.09484,-0.07305 -0.18969,-0.14611 -0.2874,-0.22138c-0.73007,-0.57024 -1.23471,-1.27934 -1.77049,-2.03027c-0.55014,-0.72168 -1.18644,-1.28086 -1.897,-1.84035c-0.60267,-0.48603 -1.10568,-0.95526 -1.56703,-1.57528c-0.09234,0.14765 -0.18469,0.29529 -0.27983,0.44742c-0.26701,0.32231 -0.40155,0.43448 -0.81675,0.51732c-0.74513,0.00899 -1.33448,-0.12383 -2.0375,-0.36819c-0.40616,-0.03238 -0.78503,-0.02078 -1.19393,0c-0.04925,0.04922 -0.0985,0.09843 -0.14924,0.14914c-0.27328,0.01469 -0.54715,0.01934 -0.82083,0.01864c-0.14929,0.00038 -0.29857,0.00077 -0.45239,0.00116c-0.36844,-0.01981 -0.36844,-0.01981 -0.51768,-0.16895c-0.01954,-0.56822 0.01557,-1.13783 0.03731,-1.70577c0.00664,-0.17975 0.01327,-0.35951 0.02011,-0.54471c0.07261,-1.76247 0.19091,-3.52156 0.31568,-5.28102c0.01469,-0.20982 0.01469,-0.20982 0.02968,-0.42389c0.0283,-0.40094 0.05743,-0.8018 0.08692,-1.20265c0.01283,-0.18105 0.01283,-0.18105 0.02591,-0.36575c0.03933,-0.51987 0.09416,-1.00954 0.23059,-1.51246c0.5969,-0.05051 1.19389,-0.09992 1.7909,-0.14914c0.16795,-0.01423 0.3359,-0.02845 0.50894,-0.04311c0.47687,-0.03902 0.95389,-0.07285 1.4312,-0.10603c0.11581,-0.01172 0.23163,-0.02346 0.35095,-0.03554c0.86131,-0.05816 1.25219,0.25202 1.88767,0.78123c1.15352,-0.9161 2.14903,-1.73881 2.8898,-3.03287c0.43605,-0.70926 1.01372,-1.2896 1.58744,-1.8887c0.08234,-0.0917 0.16468,-0.18341 0.24951,-0.27789c4.66334,-5.01771 13.53964,-5.47325 18.80617,-1.1567z"></path><path stroke="none" fill="#000000" d="M220.73626,168.81224c0.08657,0.08305 0.17315,0.16611 0.26234,0.25167c0.08888,0.08305 0.17776,0.1661 0.26933,0.25167c0.06502,0.06459 0.13005,0.1292 0.19705,0.19575c-0.05783,0.63564 -0.31914,0.98759 -0.69549,1.48905c-0.59666,0.89698 -0.90101,1.9159 -0.94617,2.9851c-0.00596,0.13092 -0.01193,0.26184 -0.01807,0.39673c-0.04116,1.75871 0.56436,3.00401 1.36125,4.52484c0.04925,0.09843 0.0985,0.19686 0.14925,0.29828c-0.2138,0.40696 -0.42045,0.71843 -0.74621,1.04397c-0.86058,0.10518 -1.57551,-0.01592 -2.38786,-0.29828c-0.40616,-0.03238 -0.78503,-0.02078 -1.19393,0c-0.07387,0.07382 -0.07387,0.07383 -0.14924,0.14914c-0.27328,0.01469 -0.54715,0.01934 -0.82083,0.01864c-0.14929,0.00038 -0.29857,0.00077 -0.45239,0.00116c-0.36844,-0.01981 -0.36844,-0.01981 -0.51768,-0.16895c-0.01954,-0.56822 0.01557,-1.13783 0.03731,-1.70577c0.00664,-0.17975 0.01327,-0.35951 0.02011,-0.54471c0.07261,-1.76247 0.19091,-3.52156 0.31568,-5.28102c0.00979,-0.13988 0.01959,-0.27976 0.02968,-0.42389c0.0283,-0.40094 0.05743,-0.8018 0.08692,-1.20265c0.00855,-0.1207 0.01711,-0.24139 0.02591,-0.36575c0.03933,-0.51987 0.09416,-1.00953 0.23059,-1.51246c0.60314,-0.0503 1.20634,-0.0998 1.80955,-0.14914c0.17045,-0.01423 0.3409,-0.02845 0.51652,-0.04311c0.24817,-0.02018 0.24817,-0.02019 0.50136,-0.04078c0.15162,-0.0125 0.30324,-0.02499 0.45946,-0.03787c1.25856,-0.07759 1.25856,-0.07759 1.65557,0.16836z"></path><path stroke="none" fill="#4d484f" d="M220.86801,178.60878c0.14775,0.19686 0.2955,0.39372 0.44773,0.59655c-0.22716,0.39209 -0.42439,0.72238 -0.74621,1.04397c-0.98626,0.14106 -1.78927,-0.049 -2.68634,-0.44742c0,-0.04922 0,-0.09843 0,-0.14914c0.93575,-0.04922 1.87149,-0.09843 2.83559,-0.14914c0.04925,-0.29529 0.0985,-0.59059 0.14924,-0.89483z"></path><path stroke="none" fill="#ded175" d="M223.10664,168.16908c0.0985,0.04922 0.197,0.09843 0.29848,0.14914c-0.64024,0.6398 -1.28049,1.27961 -1.94013,1.9388c-0.14924,-0.29827 -0.14925,-0.29827 -0.18656,-0.56859c-0.16385,-0.47756 -0.49265,-0.73479 -0.85814,-1.07193c0.54472,0.19657 0.86404,0.38658 1.34317,0.74569c0.44325,-0.39372 0.8865,-0.78745 1.34317,-1.19311z"></path><path stroke="none" fill="#6e6583" d="M215.0476,178.60878c0.04925,0 0.0985,0 0.14924,0c0,0.34451 0,0.68902 0,1.04397c0.44325,0 0.88649,0 1.34317,0c0.04925,0.14765 0.09851,0.29529 0.14925,0.44742c-0.24561,0.00401 -0.49125,0.00691 -0.73688,0.00932c-0.13679,0.00173 -0.27357,0.00346 -0.4145,0.00524c-0.34104,-0.01456 -0.34104,-0.01457 -0.49028,-0.16371c-0.01072,-0.22658 -0.01252,-0.45363 -0.00933,-0.68044c0.00135,-0.12323 0.00269,-0.24646 0.00408,-0.37343c0.00173,-0.09516 0.00346,-0.19032 0.00525,-0.28837z"></path><path stroke="none" fill="#8c878b" d="M220.65348,179.64343c0.18007,0.00461 0.18007,0.00461 0.36377,0.00932c-0.17664,0.29478 -0.17664,0.29478 -0.44772,0.59655c-0.35969,0.06874 -0.35969,0.06874 -0.75553,0.05593c-0.13101,-0.00192 -0.26202,-0.00385 -0.39701,-0.00583c-0.33987,-0.0501 -0.33987,-0.0501 -0.63835,-0.34838c0.14284,-0.01355 0.14284,-0.01355 0.28857,-0.02738c0.18498,-0.01875 0.18497,-0.01875 0.37369,-0.03787c0.12293,-0.01211 0.24586,-0.02422 0.37252,-0.0367c0.40357,-0.06175 0.40651,-0.19508 0.84007,-0.20565z"></path><path stroke="none" fill="#605b55" d="M220.86801,178.60878c0.23319,0.27031 0.23319,0.27031 0.44773,0.59655c-0.04925,0.14765 -0.0985,0.29529 -0.14925,0.44742c-0.14775,0 -0.2955,0 -0.44772,0c0.04925,-0.34451 0.0985,-0.68902 0.14924,-1.04397z"></path><path stroke="#000000" fill="none" d="M216.32914,175.9034v-3.125h10v3.125z"></path></g></g></svg>