<svg version="1.1" xmlns="http://www.w3.org/2000/svg" xmlns:xlink="http://www.w3.org/1999/xlink" width="93.6955" height="125.82428" viewBox="0,0,93.6955,125.82428"><g transform="translate(-194.36111,-95.20424)"><g data-paper-data="{&quot;isPaintingLayer&quot;:true}" fill-rule="nonzero" stroke="none" stroke-width="1" stroke-linecap="butt" stroke-linejoin="miter" stroke-miterlimit="10" stroke-dasharray="" stroke-dashoffset="0" style="mix-blend-mode: normal"><path d="M253.27577,97.63328c1.73712,1.83832 2.32041,3.86348 3.11974,6.22999c0.75237,2.39235 0.75237,2.39235 2.55752,3.96065c1.68698,0.2712 2.82292,-0.08193 4.45261,-0.57847c0.53835,-0.16051 1.0767,-0.321 1.63137,-0.48637c0.92768,-0.28682 1.85282,-0.58239 2.7722,-0.89486c2.73387,-0.65896 5.98888,-0.46873 8.43414,0.97044c1.60061,1.41262 2.98947,2.91046 3.52645,5.00531c0.06543,3.08837 -0.63408,5.19531 -2.18904,7.84284c-0.29888,0.54564 -0.59777,1.09128 -0.9057,1.65345c-0.29588,0.53983 -0.59173,1.07965 -0.89658,1.63584c-0.29887,0.54564 -0.59776,1.09128 -0.90569,1.65345c-0.42048,0.75848 -0.85024,1.51259 -1.31164,2.24686c0.4766,0.3204 0.9532,0.64078 1.44424,0.97087c1.38766,0.93285 2.29497,1.99714 3.34845,3.29017c0.68456,0.62552 1.37401,1.24571 2.06749,1.86133c4.99646,4.84312 7.37064,11.79117 7.6352,18.64885c0.0068,3.20588 -0.55777,6.23722 -1.12606,9.38177c-0.341,1.92329 -0.66055,3.84898 -0.96919,5.77768c-0.0516,0.31535 -0.10321,0.6307 -0.15637,0.95562c-0.27408,1.72666 -0.48482,3.44366 -0.63748,5.18544c-0.24387,2.61093 -0.71888,5.15968 -1.21616,7.73262c-1.80392,9.34673 -2.92278,18.76997 -4.00739,28.22256c-0.13353,1.15392 -0.26721,2.3078 -0.40101,3.4617c-0.3233,2.79044 -0.64492,5.58107 -0.96517,8.37186c-1.40742,-0.13784 -1.40742,-0.13784 -2.76885,-0.74512c-0.97426,0.17312 -0.97426,0.17312 -1.97484,0.51752c-1.02576,0.32905 -1.02576,0.32905 -1.9162,0.52324c-0.29446,-0.18522 -0.58891,-0.37048 -0.8923,-0.56134c0.03035,-0.30985 0.06069,-0.61968 0.09195,-0.9389c-1.7481,-0.18552 -3.49678,-0.36483 -5.2456,-0.54337c-0.47646,-0.05063 -0.95291,-0.10126 -1.44382,-0.15344c-3.22829,-0.32609 -6.44847,-0.53027 -9.68872,-0.67583c-5.0416,-0.23219 -10.0588,-0.63848 -15.08227,-1.12076c-1.43594,-0.136 -2.87255,-0.26191 -4.3094,-0.38781c-7.32389,-0.67832 -14.20016,-2.21343 -21.25696,-4.2443c-2.02705,-0.5611 -3.61535,-0.6745 -5.6998,-0.43975c-0.46444,-0.04549 -0.9289,-0.09098 -1.40742,-0.13784c-0.50146,-1.98098 -0.75754,-3.81547 -0.81774,-5.85641c-0.03126,-0.85901 -0.03126,-0.85901 -0.06316,-1.73537c-0.01137,-0.31257 -0.02273,-0.62509 -0.03444,-0.94713c-0.07992,-1.9834 -0.18938,-3.96508 -0.30055,-5.94692c-0.02079,-0.40142 -0.04157,-0.80283 -0.06299,-1.2164c0.04462,-1.83846 0.04462,-1.83846 -0.63513,-3.44341c-0.10239,-1.2334 -0.1852,-2.46345 -0.25942,-3.69855c-0.13971,-6.51766 -0.13971,-6.51766 -2.94057,-11.98876c-0.44074,-0.28755 -0.88148,-0.5751 -1.33558,-0.87136c-1.63456,-2.65459 -1.63456,-2.65459 -1.50873,-3.9394c-0.44927,-0.20042 -0.89855,-0.40082 -1.36144,-0.60729c-1.56073,-4.88014 -2.1441,-9.95413 0.01789,-14.69085c1.08862,-1.94535 2.26597,-3.79777 3.66853,-5.53182c0.88,-1.29844 1.15765,-2.32773 1.48417,-3.85733c1.87199,-7.79157 5.04942,-14.72991 11.44084,-19.79276c0.18517,-0.29468 0.37033,-0.58936 0.56109,-0.89295c0.30964,0.03033 0.61927,0.06065 0.93828,0.09189c0.03035,-0.30985 0.06069,-0.61969 0.09196,-0.93892c0.30963,0.03032 0.61927,0.06065 0.93827,0.09189c-0.79165,-3.11049 -1.82811,-5.92378 -3.27412,-8.79076c-0.9559,-2.03151 -0.86912,-3.61251 -0.50707,-5.79822c1.22053,-2.81606 2.5552,-4.09955 5.36902,-5.2505c3.00009,-0.57647 5.30033,-0.46409 8.16851,0.62229c1.25803,0.43959 1.25803,0.43959 2.49575,0.51104c1.56986,-0.83149 2.54188,-2.06902 3.65179,-3.43399c7.34794,-8.10385 7.34794,-8.10385 10.88815,-8.70894c3.71594,-0.00181 6.46416,0.47834 9.6789,2.42906z" fill="#110613"/><path d="M266.99325,126.22916c0.79849,0.48467 1.59704,0.96922 2.39804,1.44973c4.19043,2.53872 7.32908,5.30265 10.03534,9.38965c0.65755,0.98324 0.65755,0.98324 1.94471,1.94372c5.70342,11.56599 3.20419,25.47788 -0.34828,37.40833c-0.18517,0.29468 -0.37032,0.58936 -0.56109,0.89296c-1.0198,3.86788 -1.38992,7.89937 -1.88868,11.86014c-0.08759,0.68598 -0.17534,1.37195 -0.26323,2.05789c-0.22893,1.78985 -0.45589,3.57991 -0.68242,5.37006c-0.23231,1.83291 -0.46651,3.66558 -0.70053,5.49828c-0.45744,3.58448 -0.91281,7.16922 -1.36684,10.75415c-0.99326,0.21001 -1.98697,0.41792 -2.98086,0.62494c-0.55332,0.11602 -1.10666,0.23203 -1.67673,0.35155c-2.20287,0.41207 -4.36593,0.57357 -6.60221,0.64598c-0.42395,0.01671 -0.8479,0.03342 -1.28468,0.05063c-3.48466,0.10778 -6.83965,-0.12735 -10.29598,-0.5924c0.12923,-5.15812 0.40631,-10.28756 0.87139,-15.42637c0.06781,-0.77304 0.13058,-1.54649 0.1884,-2.32033c0.38662,-5.15253 0.84043,-10.4482 4.69434,-14.32449c0.80153,-0.59691 0.80153,-0.59691 2.44657,-1.48738c0.28841,-0.16356 0.57679,-0.32712 0.87393,-0.49562c1.15824,-0.65249 2.33954,-1.25945 3.51741,-1.87544c2.23192,-1.19996 3.71112,-2.7017 5.35822,-4.59246c0.2564,-0.25532 0.51281,-0.51064 0.77698,-0.77369c0.30963,0.03032 0.61926,0.06065 0.93827,0.09189c0.10282,-0.35161 0.20565,-0.70323 0.31157,-1.06551c0.38745,-1.2358 0.38745,-1.2358 0.99452,-2.59822c0.17107,-0.92904 0.30854,-1.86456 0.42247,-2.80234c0.0659,-0.49209 0.1318,-0.98418 0.1997,-1.49118c0.06139,-1.37243 0.06139,-1.37243 -0.85466,-2.28686c-1.39952,-0.9461 -2.06438,-1.07297 -3.76922,-0.92087c-2.77199,1.32094 -4.96964,3.19916 -7.13877,5.33636c-1.36754,1.25521 -2.81524,2.3773 -4.29441,3.49694c-0.27052,0.20735 -0.54104,0.4147 -0.81975,0.62834c-1.96339,1.46886 -1.96339,1.46886 -3.01664,1.3657c-0.03035,0.30984 -0.06069,0.61968 -0.09196,0.93891c-1.25374,0.41087 -2.50764,0.82119 -3.76167,1.23118c-0.35293,0.11573 -0.70587,0.23146 -1.06952,0.35069c-2.91924,0.95366 -5.77639,1.79156 -8.81044,2.29558c-0.44019,0.08092 -0.88039,0.16184 -1.33391,0.2452c-3.74891,0.64013 -6.98988,0.68572 -10.68541,-0.23747c-6.30642,-1.50846 -12.77286,-1.02162 -18.51126,2.21565c-1.33537,2.41765 -0.91622,5.80958 -0.35846,8.49609c1.32141,2.12657 3.5083,2.76305 5.82292,3.41402c4.75215,0.77836 9.36799,0.88453 14.1661,0.43949c0.68021,-0.04426 0.68021,-0.04426 1.37417,-0.08943c2.33184,-0.1206 2.33184,-0.1206 4.43229,-1.0322c0.99137,-0.58238 0.99137,-0.58238 2.86792,-0.39859c0.026,4.62544 -1.91863,8.23392 -4.09396,12.21811c-1.48916,2.73431 -2.44144,5.487 -3.32578,8.47392c-0.41685,1.29031 -0.41685,1.29031 -0.93196,1.71383c-4.30253,-0.31744 -8.4328,-1.61194 -12.538,-2.85718c-0.50344,-0.15234 -1.00687,-0.30467 -1.52556,-0.46161c-2.18428,-0.67766 -4.19903,-1.35581 -6.21069,-2.4585c-0.01061,-0.35093 -0.02124,-0.70185 -0.03218,-1.06342c0.55757,-11.92549 0.55757,-11.92549 -2.36031,-22.86865c-0.0246,-0.87872 -0.02343,-1.75825 -0.00814,-2.63717c0.00721,-0.47889 0.01444,-0.95779 0.02187,-1.4512c0.00755,-0.37012 0.0151,-0.74022 0.02289,-1.12155c7.72314,-2.13553 7.72314,-2.13553 11.62713,-2.6529c-0.13964,-0.17008 -0.27929,-0.34016 -0.42316,-0.51539c-1.34586,0.13937 -2.67606,0.30719 -4.01524,0.49541c-8.57563,1.12433 -8.57563,1.12433 -11.65023,-0.13385c0.04552,-0.46476 0.09104,-0.92952 0.13793,-1.40836c0.47826,0.02913 0.95652,0.05825 1.44927,0.08825c5.70497,0.30327 10.90119,-0.05314 16.27665,-2.14383c0.31577,-0.11967 0.63155,-0.23935 0.95689,-0.36265c1.10978,-0.42298 2.21514,-0.85612 3.3199,-1.29204c0.35697,-0.1371 0.71396,-0.27419 1.08175,-0.41545c2.43187,-0.98287 4.13228,-2.21233 6.1213,-3.91485c0.30964,0.03033 0.61927,0.06065 0.93827,0.09189c-0.79826,2.91004 -3.42149,4.75878 -5.93585,6.20213c-0.45135,0.21974 -0.90269,0.43945 -1.36771,0.66585c-0.85107,0.62751 -0.85107,0.62751 -1.54535,1.27052c-0.51511,0.42351 -1.03023,0.84701 -1.54535,1.27051c0.81476,-0.38942 0.81476,-0.38942 1.64597,-0.78671c1.30415,-0.62333 1.7401,-0.77749 3.22931,-0.63164c0.03035,-0.30984 0.06069,-0.61968 0.09196,-0.93891c0.36673,-0.17241 0.73347,-0.34484 1.11131,-0.52248c1.48303,-0.70909 2.38753,-1.51375 3.55235,-2.66429c0.64433,-0.63523 1.30304,-1.2569 1.98686,-1.84934c0.30964,0.03033 0.61927,0.06065 0.93828,0.09189c0.19315,0.32196 0.3863,0.64391 0.5853,0.97562c0.58252,1.16906 0.58252,1.16906 1.99963,1.64733c-0.03035,0.30984 -0.06069,0.61968 -0.09195,0.9389c0.35432,0.12267 0.35432,0.12267 0.71578,0.24784c1.11478,0.40541 1.11478,0.40541 2.4998,1.07426c3.32631,1.28325 6.58076,0.94796 9.83461,-0.36981c2.25072,-1.05296 4.20475,-2.29972 6.17511,-3.80892c-1.98271,0.72257 -3.84171,1.65909 -5.73063,2.59537c-2.13191,0.91458 -3.88805,0.81474 -6.18855,0.62137c-0.52852,-0.03954 -1.05705,-0.07909 -1.6016,-0.11983c-1.55973,-0.32164 -2.17868,-0.66279 -3.17493,-1.88833c0.03035,-0.30985 0.06069,-0.61969 0.09196,-0.93891c0.70843,0.05106 0.70843,0.05106 1.43116,0.10314c4.34341,0.26213 8.15564,-0.02487 12.40373,-1.11794c0.47962,-0.10944 0.95923,-0.21886 1.45339,-0.33161c0.04552,-0.46475 0.09104,-0.92952 0.13793,-1.40835c-0.46924,0.15933 -0.93849,0.31865 -1.42194,0.4828c-6.05971,1.91759 -11.5989,2.1324 -17.52748,-0.44287c0.03035,-0.30984 0.06069,-0.61969 0.09196,-0.93891c0.344,0.01598 0.688,0.03194 1.04245,0.0484c6.80172,0.23616 13.64696,0.07476 20.1075,-2.21112c0.37562,-0.13264 0.75123,-0.26527 1.13824,-0.40194c1.43033,-0.51178 2.85638,-1.03488 4.28067,-1.56325c0.86168,-0.2949 0.86168,-0.2949 2.31507,-0.62653c0.03035,-0.30984 0.06069,-0.61968 0.09195,-0.9389c0.70824,-0.39337 1.41873,-0.78325 2.1405,-1.15113c2.49618,-1.31174 4.52866,-2.76586 6.05537,-5.1555c0.43172,-1.53562 0.71103,-3.06939 0.92891,-4.64857c-0.78051,-0.38473 -1.56228,-0.76684 -2.34457,-1.14792c-0.4352,-0.21308 -0.87043,-0.42616 -1.31882,-0.6457c-7.22135,-3.24225 -17.09006,-2.84916 -24.55445,-0.5553c-0.65367,0.25908 -1.30212,0.53168 -1.94492,0.81667c-0.40146,0.15925 -0.80294,0.31848 -1.21656,0.48256c-4.80152,2.04676 -7.95673,5.33368 -10.67709,9.72752c-0.61927,-0.06065 -1.23852,-0.1213 -1.87655,-0.18379c0.43665,-6.83843 2.27167,-13.25762 7.54897,-17.96892c1.8163,-1.2765 3.8439,-2.11132 5.87128,-2.9926c0.49479,-0.26436 0.98959,-0.5287 1.49937,-0.80107c4.44224,-1.47777 8.62995,-1.22772 13.21972,-0.77883c0.53859,0.05206 1.07719,0.10413 1.63211,0.15777c3.18899,0.35379 6.13902,0.95661 9.16615,2.02544c0.04552,-0.46475 0.09104,-0.92952 0.13793,-1.40835c-3.19834,-1.33383 -6.30601,-1.74808 -9.7427,-2.07983c-0.84323,-0.08144 -0.84323,-0.08144 -1.70348,-0.16453c-4.41663,-0.37117 -8.26216,-0.19582 -12.57181,0.83997c-0.67678,0.13075 -0.67678,0.13075 -1.36724,0.26414c-4.92463,1.12362 -9.16599,4.63561 -11.84186,8.86919c-0.72011,1.48947 -1.32947,2.99254 -1.86719,4.55668c-1.61876,0.35429 -2.21164,0.35482 -3.63658,-0.55612c-1.80541,-1.11984 -3.23762,-1.24514 -5.3202,-1.3875c-0.35152,-0.02924 -0.70304,-0.05848 -1.06522,-0.0886c-2.43883,-0.18972 -4.84506,-0.25206 -7.29013,-0.13727c-0.03035,0.30984 -0.06069,0.61968 -0.09195,0.9389c-0.55893,0.12122 -1.11784,0.24243 -1.69371,0.36732c-2.05016,0.53552 -3.63694,1.46173 -5.39013,2.63242c-0.83617,0.49018 -0.83617,0.49018 -1.77445,0.39829c-0.08166,-1.68974 0.17825,-2.28475 1.27103,-3.60791c3.16467,-2.86321 7.06555,-5.47963 11.43512,-5.33954c0.88512,0.0659 1.76943,0.1437 2.6526,0.23202c0.45766,0.04391 0.91532,0.08781 1.38683,0.13305c3.77521,0.45367 6.36742,1.49708 9.27754,4.02174c0.06069,-0.61968 0.12138,-1.23936 0.18391,-1.87782c-0.39311,-0.17536 -0.78623,-0.35072 -1.19126,-0.53138c-0.92356,-0.41196 -1.84158,-0.83724 -2.7472,-1.28732c-3.96429,-1.60559 -9.601,-2.62449 -13.75085,-1.33564c-1.09247,0.47642 -2.13322,0.98943 -3.17175,1.57408c-0.81124,0.40561 -0.81124,0.40561 -1.74952,0.31371c-0.00364,-4.19762 4.09889,-8.12826 6.92388,-10.96895c0.25274,-0.24712 0.50547,-0.49425 0.76588,-0.74885c0.24502,-0.23995 0.49003,-0.47987 0.74247,-0.72708c1.1577,-1.09236 1.82704,-1.6759 3.40607,-2.03619c0.03035,-0.30985 0.06069,-0.61969 0.09196,-0.93892c2.47457,-1.99433 5.11474,-3.20829 8.17848,-3.97558c1.31445,-0.31561 1.31445,-0.31561 2.8514,-0.87229c1.91449,-0.61722 3.78691,-0.78232 5.7858,-0.91076c2.37206,-0.10372 2.37206,-0.10372 4.65397,-0.66982c8.98462,-0.7014 17.5353,1.15487 24.96563,6.23673z" fill="#8d57aa"/><path d="M247.88234,97.93816c1.68573,0.56938 2.50188,1.23859 3.62853,2.60297c-0.03034,0.30983 -0.06069,0.61968 -0.09195,0.9389c0.43414,0.08377 0.43414,0.08377 0.87705,0.16921c0.95352,0.48403 0.95352,0.48403 1.3264,1.60731c0.07883,0.46046 0.15769,0.9209 0.23893,1.39529c0.53102,2.30265 1.1101,3.85407 2.87545,5.45624c2.23992,1.28443 4.59125,0.60634 6.95304,-0.0207c1.60285,-0.56861 1.60285,-0.56861 2.96712,-1.27938c2.61563,-0.75171 5.72883,-0.72831 8.17725,0.58982c0.79701,0.6494 1.46844,1.37184 2.12086,2.16647c0.0105,3.1606 -0.61794,5.60825 -2.23501,8.3123c-0.4872,0.18689 -0.4872,0.18689 -0.98425,0.37756c-0.4499,0.82096 -0.86285,1.66252 -1.25267,2.5137c-0.21223,0.45881 -0.42446,0.91764 -0.64311,1.39034c-0.24083,0.53271 -0.24083,0.53271 -0.48653,1.07615c-1.91225,-0.34519 -3.32125,-1.04543 -4.94958,-2.05473c-7.09154,-4.13525 -14.59887,-5.18893 -22.73893,-5.3966c-0.4872,0.18687 -0.4872,0.18687 -0.98425,0.37755c-0.75211,0.03219 -1.5046,0.05551 -2.25714,0.07515c-3.04414,0.18808 -5.97307,0.74942 -8.95609,1.37414c-0.45959,0.09345 -0.91916,0.1869 -1.39268,0.28317c-2.524,0.54645 -4.52957,1.23584 -6.75732,2.53253c-0.30964,-0.03033 -0.61927,-0.06065 -0.93828,-0.09189c-0.03035,0.30985 -0.06069,0.61969 -0.09196,0.93891c-1.49937,0.80106 -1.49937,0.80106 -2.90678,0.66322c-0.12182,-0.45182 -0.24364,-0.90365 -0.36915,-1.36915c-0.52555,-1.72029 -1.32373,-3.17975 -2.19924,-4.74759c-1.14698,-2.2058 -1.56203,-3.7051 -1.2207,-6.16248c0.45338,-1.14374 0.81619,-1.50074 1.88445,-2.12597c2.88061,-0.81778 5.479,-0.50913 8.42203,-0.15268c0.87557,0.10206 1.75138,0.20213 2.62744,0.2999c0.38364,0.04609 0.76728,0.09217 1.16255,0.13966c1.09843,0.11329 1.09843,0.11329 2.46919,-0.27089c0.57739,-0.82161 0.57739,-0.82161 1.12218,-1.7859c0.78259,-0.87635 1.59475,-1.71713 2.41182,-2.56124c0.81281,-0.89571 0.81281,-0.89571 1.31467,-2.01329c2.41381,-4.48786 6.0408,-5.9083 10.87667,-5.24798z" fill="#fd48d4"/><path d="M271.01782,163.11786c1.30279,0.60155 1.30279,0.60155 1.87373,1.72387c0.32502,3.11395 -1.6108,5.66393 -3.36705,8.08293c-1.71716,1.63016 -3.66556,2.85912 -5.62029,4.1891c-0.63888,0.53861 -0.63888,0.53861 -1.29067,1.08811c-3.3935,2.71873 -3.3935,2.71873 -5.22193,2.53966c-0.03035,0.30985 -0.06069,0.61968 -0.09196,0.93891c-2.07788,0.83234 -4.12137,1.57991 -6.28095,2.16933c-1.84313,0.5166 -3.55799,1.16971 -5.31107,1.93849c-1.84134,0.80653 -3.61242,1.46053 -5.56392,1.93222c-1.1519,0.28171 -2.2842,0.61375 -3.42144,0.94978c-0.41224,0.11971 -0.82449,0.23939 -1.24922,0.3627c-0.73277,0.21363 -1.46469,0.43016 -2.19517,0.65147c-4.25939,1.23594 -8.36531,1.30367 -12.75167,0.83578c-0.64413,-0.0576 -0.64413,-0.0576 -1.30129,-0.11634c-3.4352,-0.34653 -5.5237,-1.1082 -7.88208,-3.74529c-1.18295,-2.02454 -0.64506,-4.09254 -0.24111,-6.30352c0.73681,-1.25166 1.59171,-1.48338 2.94526,-1.96282c2.7546,-0.53218 5.0799,-0.5631 7.8499,-0.20502c0.76485,0.08692 1.52973,0.17353 2.29463,0.2599c1.18127,0.13899 2.362,0.28101 3.54222,0.42862c7.49438,0.92382 13.94006,0.49785 21.06607,-2.29335c0.75204,-0.27276 0.75204,-0.27276 1.51928,-0.55103c2.81504,-1.035 5.33043,-2.20242 7.90009,-3.73996c0.30963,0.03032 0.61927,0.06065 0.93827,0.09189c0.37032,-0.58936 0.74065,-1.17871 1.12219,-1.78592c0.30963,0.03032 0.61927,0.06065 0.93827,0.09189c0.30049,-0.67438 0.30049,-0.67438 0.60707,-1.3624c0.30964,0.03033 0.61927,0.06065 0.93827,0.09189c0.14866,-0.25854 0.29731,-0.51708 0.45047,-0.78345c0.7201,-1.07465 1.49681,-1.87332 2.44185,-2.75454c0.30543,-0.28839 0.61087,-0.57678 0.92556,-0.87392c2.46389,-2.08218 2.46389,-2.08218 4.43665,-1.88897z" fill="#904437"/><path d="M238.46091,190.26238c0.026,4.62544 -1.91863,8.23392 -4.09396,12.21811c-1.48916,2.73431 -2.44144,5.487 -3.32578,8.47392c-0.41685,1.29031 -0.41685,1.29031 -0.93196,1.71383c-4.30253,-0.31744 -8.43281,-1.61193 -12.538,-2.85718c-0.50344,-0.15234 -1.00687,-0.30467 -1.52556,-0.46161c-2.18428,-0.67766 -4.19903,-1.35581 -6.21069,-2.4585c-0.09817,-2.13238 -0.19477,-4.26482 -0.29113,-6.39728c-0.02764,-0.59991 -0.05527,-1.19984 -0.08375,-1.81794c-0.14062,-3.12935 -0.25299,-6.2517 -0.26964,-9.38423c3.41415,0.69483 3.41415,0.69483 4.95936,1.44472c1.73703,0.71683 3.38825,0.93739 5.24157,1.09469c0.52474,0.04762 0.52474,0.04762 1.06008,0.09619c3.1401,0.25398 6.19883,0.1464 9.33509,-0.1445c0.45347,-0.0295 0.90694,-0.05902 1.37417,-0.08943c2.33184,-0.1206 2.33184,-0.1206 4.43229,-1.0322c0.99137,-0.58238 0.99137,-0.58238 2.86792,-0.39859z" fill="#8c57a9"/><path d="M247.88234,97.93816c1.68573,0.56938 2.50188,1.23859 3.62853,2.60297c-0.03034,0.30983 -0.06069,0.61968 -0.09195,0.9389c0.28827,0.05512 0.57655,0.11023 0.87356,0.16701c0.95701,0.48623 0.95701,0.48623 1.36126,1.62924c0.13035,0.69825 0.13035,0.69825 0.26333,1.41063c0.52487,2.37307 1.09466,3.6786 2.81903,5.37111c-0.32481,0.12458 -0.64961,0.24918 -0.98425,0.37755c-1.98977,-1.22007 -3.76536,-2.94726 -5.21586,-4.77643c0.03035,-0.30984 0.06069,-0.61969 0.09195,-0.9389c-0.48807,-0.2531 -0.48807,-0.2531 -0.98601,-0.51129c-0.78881,-0.40902 -1.56819,-0.83756 -2.33021,-1.29461c-1.56505,-0.69812 -2.75803,-0.84791 -4.47523,-0.853c-1.43615,0.7845 -1.43615,0.7845 -2.6785,1.95933c-0.64419,0.55551 -0.64419,0.55551 -1.3014,1.12223c-1.9026,1.87373 -2.98392,3.13153 -3.14078,5.84825c-0.0279,0.41576 -0.0558,0.83156 -0.08454,1.25992c-0.02129,0.46987 -0.02129,0.46987 -0.04302,0.94926c2.01584,0.28088 3.76406,0.51806 5.76646,0.06119c2.85939,-0.4136 5.54384,0.27826 8.35365,0.84777c-0.03034,0.30983 -0.06069,0.61968 -0.09195,0.9389c0.60247,0.13232 0.60247,0.13232 1.21712,0.26731c1.64313,0.50597 2.79411,1.22596 4.22862,2.16187c0.90079,0.41985 1.80673,0.82943 2.72287,1.21458c-1.59298,0.36346 -2.71076,0.25533 -4.33157,0.07936c-0.84354,-0.08812 -0.84354,-0.08812 -1.70412,-0.17801c-0.58753,-0.06364 -1.17506,-0.1273 -1.78038,-0.19288c-1.16249,-0.1259 -2.32522,-0.24976 -3.48817,-0.37127c-0.51626,-0.05605 -1.03253,-0.11212 -1.56443,-0.16987c-1.23166,-0.16182 -1.23166,-0.16182 -2.23569,0.30128c-0.75211,0.03219 -1.5046,0.05551 -2.25714,0.07515c-3.04414,0.18808 -5.97307,0.74942 -8.95609,1.37414c-0.45959,0.09345 -0.91916,0.1869 -1.39268,0.28317c-2.524,0.54645 -4.52957,1.23584 -6.75732,2.53253c-0.30964,-0.03033 -0.61927,-0.06065 -0.93828,-0.09189c-0.03035,0.30985 -0.06069,0.61969 -0.09196,0.93891c-1.49937,0.80106 -1.49937,0.80106 -2.90678,0.66322c-0.12182,-0.45182 -0.24364,-0.90365 -0.36915,-1.36915c-0.52555,-1.72029 -1.32373,-3.17975 -2.19924,-4.74759c-1.14698,-2.2058 -1.56203,-3.7051 -1.2207,-6.16248c0.45338,-1.14374 0.81619,-1.50074 1.88445,-2.12597c2.88061,-0.81778 5.479,-0.50913 8.42203,-0.15268c0.87557,0.10206 1.75138,0.20213 2.62744,0.2999c0.38364,0.04609 0.76728,0.09217 1.16255,0.13966c1.09843,0.11329 1.09843,0.11329 2.46919,-0.27089c0.57739,-0.82161 0.57739,-0.82161 1.12218,-1.7859c0.78259,-0.87635 1.59475,-1.71713 2.41182,-2.56124c0.81281,-0.89571 0.81281,-0.89571 1.31467,-2.01329c2.41381,-4.48786 6.0408,-5.9083 10.87667,-5.24798z" fill="#e73ba8"/><path d="M251.8173,184.46118c0.44928,0.2004 0.89854,0.40081 1.36144,0.60728c-0.20726,0.5616 -0.41452,1.1232 -0.62805,1.70183c-0.88487,2.71415 -1.18502,5.4387 -1.49173,8.26764c-0.06258,0.5454 -0.12517,1.09077 -0.18966,1.65271c-0.19742,1.72851 -0.38885,3.45762 -0.58011,5.18682c-0.13344,1.17769 -0.26727,2.35532 -0.40152,3.53293c-0.32685,2.87493 -0.64881,5.75036 -0.96696,8.62625c-3.84842,-0.06726 -7.65715,-0.20524 -11.48409,-0.62115c-0.3953,-0.04087 -0.79059,-0.08172 -1.19787,-0.1238c-0.94876,-0.09837 -1.89721,-0.19975 -2.84557,-0.30183c1.49248,-6.83773 1.49248,-6.83773 3.31122,-9.62877c0.27775,-0.44201 0.55548,-0.88403 0.84165,-1.33943c0.56796,-0.90388 1.13807,-1.80644 1.71016,-2.70773c1.11233,-2.038 1.35566,-4.13502 1.64017,-6.41364c0.05625,-0.40902 0.11248,-0.81805 0.17043,-1.23947c0.1366,-0.99942 0.26552,-1.99991 0.39285,-3.00057c0.50064,-0.15565 1.00126,-0.3113 1.51706,-0.47163c1.68949,-0.53701 3.34993,-1.1319 5.00708,-1.76275c0.50529,-0.19062 1.01055,-0.38125 1.53115,-0.57765c1.29876,-0.48059 1.29876,-0.48059 2.30236,-1.38706z" fill="#fe48d6"/><path d="M275.71442,148.41128c-0.07586,0.77459 -0.15173,1.54919 -0.22989,2.34726c-0.61927,-0.06065 -1.23853,-0.1213 -1.87655,-0.18379c0.04552,-0.46475 0.09104,-0.92952 0.13793,-1.40835c-3.97827,-1.26872 -7.93966,-1.98493 -12.05966,-2.60297c-0.02028,0.50633 -0.04057,1.01266 -0.06146,1.53434c-0.26167,2.67177 -1.05452,5.32229 -2.2655,7.71686c-0.47962,0.10942 -0.95923,0.21887 -1.45339,0.3316c-0.3792,0.59205 -0.75237,1.18797 -1.12219,1.78591c-1.97323,1.80495 -3.94301,3.14862 -6.62808,3.50352c-2.77777,-0.1258 -4.61222,-0.54397 -6.5767,-2.57512c-2.19238,-2.7287 -2.19238,-2.7287 -2.17245,-4.4543c0.04768,-0.37473 0.09539,-0.74946 0.14451,-1.13555c0.04562,-0.3786 0.09126,-0.75721 0.13827,-1.14728c0.03915,-0.28759 0.07832,-0.5752 0.11865,-0.87149c-2.55969,1.44271 -4.63499,2.89499 -6.65053,5.03612c-0.33997,0.27951 -0.67995,0.55903 -1.03023,0.847c-0.29446,-0.18523 -0.58891,-0.37049 -0.89229,-0.56135c3.58369,-5.87968 8.38409,-9.45552 15.04677,-11.29165c1.21156,-0.25756 2.41855,-0.44752 3.64469,-0.62243c0.48269,-0.08469 0.96538,-0.16939 1.4627,-0.25665c7.58251,-1.14586 15.91589,-0.51111 22.3254,4.00829z" fill="#0f0812"/><path d="M266.99325,126.22916c0.70392,0.44834 1.41001,0.89328 2.11921,1.3332c0.4785,0.30101 0.95699,0.60205 1.44999,0.91219c-1.69379,0.41569 -2.54648,0.11918 -4.07637,-0.67509c-0.4122,-0.20839 -0.82441,-0.41677 -1.2491,-0.63147c-0.43507,-0.22345 -0.87014,-0.44691 -1.31841,-0.67712c-3.71671,-1.83976 -7.11727,-3.37802 -11.23872,-4.03331c-0.48367,-0.07975 -0.96736,-0.15949 -1.4657,-0.24168c-7.03762,-0.92212 -14.06359,0.00212 -19.98854,4.09452c-4.44667,3.4625 -6.3237,7.31567 -7.64086,12.72976c0.30964,0.03033 0.61927,0.06065 0.93827,0.09189c0.21551,-0.60451 0.43102,-1.20902 0.65306,-1.83186c0.32698,-0.00341 0.65396,-0.00683 0.99084,-0.01034c4.16578,-0.17289 6.83972,-1.49599 10.22058,-3.83852c0.52904,-0.31476 0.52904,-0.31476 1.06876,-0.63588c0.44928,0.2004 0.89855,0.40081 1.36144,0.60728c-0.04552,0.46476 -0.09104,0.92952 -0.13793,1.40835c-2.22132,1.67827 -2.22132,1.67827 -3.46788,1.55619c-0.03035,0.30984 -0.06069,0.61968 -0.09196,0.93891c-0.82158,0.40587 -1.65041,0.79721 -2.48362,1.17862c-0.23753,0.2309 -0.47506,0.4618 -0.71978,0.69968c-1.30211,0.90034 -2.61472,0.72405 -4.15552,0.71865c-0.03035,0.30984 -0.06069,0.61968 -0.09196,0.93891c-0.27445,-0.0462 -0.54892,-0.09241 -0.83168,-0.14c-1.26628,-0.20954 -2.53385,-0.4098 -3.80163,-0.61c-0.43155,-0.07281 -0.86309,-0.14563 -1.30772,-0.22064c-3.60111,-0.55807 -7.11554,-0.78323 -10.38156,1.09011c-1.70322,0.95884 -1.70322,0.95884 -2.71878,0.85938c-0.00364,-4.19762 4.09889,-8.12826 6.92388,-10.96895c0.25274,-0.24712 0.50547,-0.49425 0.76588,-0.74885c0.24502,-0.23995 0.49003,-0.47987 0.74247,-0.72708c1.1577,-1.09236 1.82704,-1.6759 3.40607,-2.03619c0.03035,-0.30985 0.06069,-0.61969 0.09196,-0.93892c2.47457,-1.99433 5.11474,-3.20829 8.17848,-3.97558c1.31445,-0.31561 1.31445,-0.31561 2.8514,-0.87229c1.91449,-0.61722 3.78691,-0.78232 5.7858,-0.91076c2.37206,-0.10372 2.37206,-0.10372 4.65397,-0.66982c8.93575,-0.69759 17.59918,1.113 24.96563,6.23673z" fill="#79379c"/><path d="M261.68626,146.56342c4.36559,0.26743 8.04577,0.74332 12.05966,2.60297c-0.89338,3.54416 -3.68248,5.93342 -6.627,7.95065c-8.24791,4.64735 -17.5914,7.27087 -27.05144,6.46499c-0.50095,-0.03916 -0.50095,-0.03916 -1.01203,-0.07909c-2.62905,-0.28196 -4.06142,-1.10847 -5.71926,-3.12767c-0.13389,-1.47582 0.01645,-2.43874 0.86287,-3.67195c1.91447,-2.19277 4.15171,-4.07693 6.67059,-5.54328c0.30964,0.03033 0.61927,0.06065 0.93827,0.09189c-0.03738,0.40048 -0.03738,0.40048 -0.07553,0.80906c-0.12779,2.68147 0.31394,4.16588 1.95201,6.28965c1.92342,2.10177 3.66755,2.31127 6.41028,2.55511c2.98033,-0.26125 5.00666,-2.0057 7.25014,-3.86656c0.28548,-0.19687 0.57097,-0.39375 0.8651,-0.59658c2.28239,-2.26118 2.87338,-6.80075 3.47636,-9.87918z" fill="#f5d2ed"/><path d="M232.36129,165.49329c0.30964,0.03033 0.61927,0.06065 0.93827,0.09189c-0.79826,2.91004 -3.42149,4.75878 -5.93585,6.20213c-0.45135,0.21974 -0.90269,0.43945 -1.36771,0.66585c-0.85106,0.62751 -0.85106,0.62751 -1.54535,1.27052c-0.51511,0.42351 -1.03023,0.84701 -1.54535,1.27051c0.54317,-0.25962 1.08634,-0.51922 1.64597,-0.78671c1.30415,-0.62333 1.7401,-0.77749 3.22931,-0.63164c0.03035,-0.30984 0.06069,-0.61968 0.09196,-0.93891c0.36673,-0.17241 0.73347,-0.34484 1.11131,-0.52248c1.48304,-0.70909 2.38753,-1.51375 3.55235,-2.66429c0.64433,-0.63523 1.30304,-1.25692 1.98686,-1.84934c0.30964,0.03033 0.61927,0.06065 0.93828,0.09189c0.19315,0.32196 0.3863,0.64391 0.5853,0.97562c0.58252,1.16906 0.58252,1.16906 1.99963,1.64733c-0.03035,0.30984 -0.06069,0.61968 -0.09195,0.9389c0.23621,0.08178 0.47242,0.16358 0.71578,0.24784c1.11478,0.40541 1.11478,0.40541 2.4998,1.07426c2.8174,1.11537 5.93357,0.99823 8.75952,0.02847c0.39823,-0.17605 0.79644,-0.35211 1.20674,-0.5335c0.44169,0.27787 0.44169,0.27787 0.8923,0.56134c-0.18114,0.86722 -0.18114,0.86722 -0.65305,1.83186c-1.04454,0.46423 -1.04454,0.46423 -2.32611,0.77934c-0.41832,0.10688 -0.83662,0.21377 -1.26763,0.32388c-0.42291,0.10399 -0.84583,0.20798 -1.28156,0.31512c-0.42427,0.12402 -0.84853,0.24803 -1.28565,0.37581c-1.49327,0.43211 -2.99709,0.69633 -4.52791,0.95063c-0.44019,0.08092 -0.88038,0.16182 -1.33391,0.2452c-3.74891,0.64013 -6.98988,0.68572 -10.68541,-0.23747c-6.30642,-1.50846 -12.77286,-1.02162 -18.51126,2.21565c-1.36168,2.46529 -0.82339,5.75556 -0.35846,8.49609c0.26411,0.49508 0.52823,0.99016 0.80034,1.50025c-0.61927,-0.06065 -1.23852,-0.1213 -1.87655,-0.18379c-0.05685,-0.41064 -0.11372,-0.82127 -0.1723,-1.24435c-0.07559,-0.531 -0.15121,-1.06199 -0.22909,-1.60908c-0.07451,-0.52965 -0.14901,-1.05933 -0.22579,-1.60504c-0.10668,-1.25073 -0.10668,-1.25073 -0.65166,-1.82819c-0.0246,-0.8787 -0.02343,-1.75825 -0.00814,-2.63717c0.01082,-0.71835 0.01082,-0.71835 0.02187,-1.4512c0.00755,-0.37012 0.0151,-0.74022 0.02289,-1.12155c7.72314,-2.13553 7.72314,-2.13553 11.62713,-2.6529c-0.13964,-0.17007 -0.27929,-0.34016 -0.42316,-0.51539c-1.34586,0.13937 -2.67606,0.30719 -4.01524,0.49541c-8.57563,1.12433 -8.57563,1.12433 -11.65023,-0.13385c0.04552,-0.46476 0.09104,-0.92952 0.13793,-1.40836c0.47826,0.02913 0.95652,0.05825 1.44927,0.08825c5.70497,0.30327 10.90119,-0.05314 16.27665,-2.14383c0.31577,-0.11967 0.63155,-0.23935 0.95689,-0.36265c1.10978,-0.42298 2.21514,-0.85612 3.3199,-1.29204c0.35697,-0.1371 0.71396,-0.27419 1.08175,-0.41545c2.43187,-0.98289 4.13228,-2.21233 6.1213,-3.91485z" fill="#8652a1"/><path d="M227.40257,148.41921c1.04677,0.8275 1.73338,1.55989 2.58494,2.62294c0.04662,1.33756 0.04662,1.33756 -0.22989,2.34726c-0.47621,-0.12484 -0.95243,-0.24967 -1.44307,-0.37831c-6.45498,-1.44259 -11.22622,-1.22834 -17.28399,1.22687c-1.29858,0.50784 -1.29858,0.50784 -2.75198,0.83945c-0.04552,0.46475 -0.09104,0.92952 -0.13793,1.40835c0.42009,-0.18736 0.84019,-0.37472 1.273,-0.56774c5.79666,-2.47227 11.66191,-3.07674 17.90632,-1.81945c1.28558,0.60727 1.28558,0.60727 2.25373,1.16864c-0.03035,0.30985 -0.06069,0.61968 -0.09196,0.93891c-0.51227,-0.04345 -1.02454,-0.08691 -1.55233,-0.13167c-6.78365,-0.48386 -13.37991,0.04968 -19.67058,2.83154c-0.8632,0.35053 -0.8632,0.35053 -1.80148,0.25864c-0.03035,0.30984 -0.06069,0.61969 -0.09196,0.93891c-0.95164,0.1414 -0.95164,0.1414 -1.92253,0.28567c-0.03035,0.30984 -0.06069,0.61968 -0.09196,0.93891c-0.76168,0.51346 -1.52427,1.02575 -2.2955,1.52474c-0.89541,0.65353 -1.38856,1.33858 -1.8714,2.33275c-0.46445,-0.04549 -0.92889,-0.09097 -1.40742,-0.13784c0.23371,-4.95377 0.78897,-8.0059 4.21321,-11.58435c1.07913,-0.95459 2.02318,-1.73628 3.3109,-2.37135c0.30964,0.03033 0.61926,0.06065 0.93827,0.09189c0.11364,-0.26258 0.22727,-0.52516 0.34435,-0.79569c1.81261,-2.30754 4.86993,-2.75479 7.62163,-3.16367c0.41528,-0.08212 0.83055,-0.16425 1.25842,-0.24887c4.17005,-0.80564 7.24604,-1.03324 10.93916,1.44349z" fill="#8953a6"/><path d="M271.01782,163.11786c1.30279,0.60155 1.30279,0.60155 1.87373,1.72387c0.32502,3.11395 -1.6108,5.66393 -3.36705,8.08293c-1.71716,1.63016 -3.66556,2.85912 -5.62029,4.1891c-0.63888,0.53861 -0.63888,0.53861 -1.29067,1.08811c-3.3935,2.71873 -3.3935,2.71873 -5.22193,2.53966c-0.03035,0.30985 -0.06069,0.61968 -0.09196,0.93891c-7.53557,3.01852 -7.53557,3.01852 -10.79981,2.97089c-2.20322,0.07243 -3.31635,0.64415 -5.27946,1.61573c-1.88582,0.70227 -3.26183,0.72243 -5.25247,0.43349c-0.20034,0.44959 -0.40066,0.89919 -0.60707,1.36241c-1.23852,-0.1213 -2.47705,-0.2426 -3.7531,-0.36758c1.20379,-1.47252 1.28454,-1.38743 2.99874,-1.60213c0.18517,-0.29468 0.37032,-0.58936 0.56109,-0.89296c0.96202,-0.27383 1.93573,-0.50675 2.91252,-0.72191c8.6374,-2.03999 17.50059,-5.40034 24.7707,-10.55035c0.95209,-0.61583 0.95209,-0.61583 2.40547,-0.94744c0.61212,-0.80874 0.61212,-0.80874 1.12218,-1.78592c0.37406,-0.59531 0.74813,-1.19061 1.12218,-1.78592c-0.58253,0.41216 -0.58253,0.41216 -1.17684,0.83266c-1.35276,0.81543 -1.35276,0.81543 -2.76018,0.67758c-0.3005,0.67438 -0.3005,0.67438 -0.60708,1.3624c-1.40375,0.95562 -2.98215,1.64262 -4.4981,2.40319c-0.64591,0.34328 -1.29136,0.68742 -1.93645,1.03225c-0.69653,0.36417 -1.39328,0.72792 -2.09023,1.09125c-0.49517,0.26773 -0.49517,0.26773 -1.00036,0.54087c-2.34973,1.2027 -4.09785,1.49876 -6.73803,1.39686c0.04552,-0.46475 0.09104,-0.92952 0.13793,-1.40835c0.79146,-0.2918 0.79146,-0.2918 1.59891,-0.58951c0.70622,-0.26454 1.41238,-0.52926 2.11849,-0.79412c0.34611,-0.12709 0.69222,-0.25417 1.04882,-0.38512c1.78094,-0.67185 3.42767,-1.39826 5.06588,-2.37257c1.55578,-0.90476 1.55578,-0.90476 2.49406,-0.81287c0.37032,-0.58936 0.74065,-1.17871 1.12219,-1.78592c0.30963,0.03032 0.61927,0.06065 0.93827,0.09189c0.30049,-0.67438 0.30049,-0.67438 0.60707,-1.3624c0.30964,0.03033 0.61927,0.06065 0.93827,0.09189c0.14866,-0.25854 0.29731,-0.51708 0.45047,-0.78345c0.7201,-1.07465 1.49681,-1.87332 2.44185,-2.75454c0.30543,-0.28839 0.61087,-0.57678 0.92556,-0.87392c2.46389,-2.08218 2.46389,-2.08218 4.43665,-1.88897z" fill="#bd6850"/><path d="M271.23047,160.94664c1.79814,0.57963 2.46157,0.9055 3.48182,2.53304c0.1942,3.40879 -0.50049,6.38904 -2.32697,9.25121c-1.26708,1.14965 -1.26708,1.14965 -2.57559,2.11752c-0.29067,0.32467 -0.58134,0.64933 -0.88081,0.98383c-1.60488,1.54468 -3.38048,2.58828 -5.29254,3.71393c-0.54339,0.32573 -0.54339,0.32573 -1.09776,0.65803c-1.45099,0.86696 -2.90148,1.71034 -4.39264,2.50702c-0.65362,0.90761 -0.65362,0.90761 -1.12218,1.78591c-0.37197,-1.63327 -0.3042,-2.24365 0.36782,-3.75561c1.00113,-0.73878 1.00113,-0.73878 2.2019,-1.3247c0.39432,-0.19843 0.78863,-0.39686 1.19489,-0.6013c1.10132,-0.47717 1.10132,-0.47717 2.55471,-0.8088c0.20034,-0.44958 0.40067,-0.8992 0.60707,-1.3624c0.80016,-0.63257 0.80016,-0.63257 1.7506,-1.25041c1.23982,-0.80957 1.92428,-1.38541 2.88544,-2.56113c0.30964,0.03033 0.61927,0.06065 0.93827,0.09189c0.15804,-0.31688 0.31606,-0.63376 0.47888,-0.96025c0.68928,-1.29511 0.68928,-1.29511 1.60739,-2.50857c1.02519,-1.96339 0.8936,-3.5706 0.70983,-5.73643c-1.28935,-0.32482 -1.28935,-0.32482 -2.81483,-0.27568c-1.30776,0.85829 -1.30776,0.85829 -2.57558,2.11753c-0.60806,0.49646 -1.21895,0.98942 -1.83223,1.47939c-1.01661,0.83215 -1.92198,1.64126 -2.82968,2.59622c-4.46096,4.46966 -10.5911,6.63135 -16.4672,8.54763c-0.55778,0.20931 -1.11556,0.41861 -1.69025,0.63426c-5.97404,1.56099 -11.46674,1.07027 -17.49775,0.33022c-6.61552,-0.93205 -6.61552,-0.93205 -13.12719,0.13621c-0.95166,0.14139 -0.95166,0.14139 -1.92253,0.28566c-0.29137,1.37911 -0.58275,2.75822 -0.88294,4.17913c-0.71943,0.16414 -0.71943,0.16414 -1.45339,0.33161c-0.40753,-3.40539 -0.40753,-3.40539 0.81392,-4.98569c4.9323,-3.32808 11.34518,-3.58096 16.9946,-2.74926c1.08059,0.25847 2.16005,0.52179 3.23799,0.79108c3.62555,0.64048 6.85861,0.26148 10.45896,-0.39752c0.57544,-0.09028 1.15087,-0.18054 1.74373,-0.27356c3.42118,-0.72047 6.73326,-1.80885 10.02956,-2.96487c0.88408,-0.26148 0.88408,-0.26148 1.82235,-0.16959c0.03035,-0.30985 0.06069,-0.61969 0.09196,-0.93891c0.7209,-0.59775 0.7209,-0.59775 1.72415,-1.28262c3.00943,-2.09289 6.00761,-4.21078 8.84035,-6.53973c4.15312,-3.41451 4.15312,-3.41451 6.24583,-3.62427z" fill="#140913"/><path d="M229.17828,158.39806c1.38624,1.22958 2.06755,1.94316 2.56658,3.71717c-0.36051,2.03646 -1.09264,2.82136 -2.75949,3.99533c-3.69504,2.53671 -7.56436,3.83524 -11.85702,5.00014c-0.37867,0.12604 -0.75735,0.25208 -1.14749,0.38194c-5.00279,1.26891 -11.1216,1.04078 -15.83343,-1.09712c-0.14553,-2.6471 0.99708,-3.95425 2.6112,-5.88161c0.91508,-0.90606 1.76275,-1.52431 2.90778,-2.10906c0.30964,0.03033 0.61926,0.06065 0.93827,0.09189c0.11053,0.33648 0.22106,0.67294 0.33493,1.01959c1.09372,3.38032 1.09372,3.38032 3.75874,5.54276c2.11034,0.84187 4.38942,1.40662 6.60394,0.69122c2.23808,-1.02152 3.83003,-2.12549 5.11515,-4.28301c0.62778,-2.91951 0.17187,-5.27007 -0.6258,-8.11853c2.67469,-0.45581 5.07968,-0.46772 7.38664,1.04928z" fill="#f7d4f0"/><path d="M251.8173,184.46118c0.44928,0.2004 0.89854,0.40081 1.36144,0.60728c-0.20726,0.5616 -0.41452,1.1232 -0.62805,1.70183c-0.88487,2.71415 -1.18502,5.4387 -1.49173,8.26764c-0.06258,0.5454 -0.12517,1.09077 -0.18966,1.65271c-0.19742,1.72851 -0.38885,3.45762 -0.58011,5.18682c-0.13344,1.17769 -0.26727,2.35532 -0.40152,3.53293c-0.32685,2.87493 -0.64881,5.75036 -0.96696,8.62625c-0.44928,-0.20041 -0.89854,-0.4008 -1.36144,-0.60729c0.7738,-7.90087 1.54761,-15.80176 2.34486,-23.94204c-1.37058,-0.36884 -1.37058,-0.36884 -2.76885,-0.74515c-0.10675,0.32313 -0.21349,0.64627 -0.32346,0.97917c-0.87879,2.56971 -1.84882,5.02142 -3.04874,7.45873c-1.46752,3.02614 -2.59856,6.12263 -3.67634,9.30697c-0.8196,2.39591 -1.77986,4.61873 -2.94047,6.8704c-1.23852,-0.1213 -2.47705,-0.2426 -3.7531,-0.36758c1.49248,-6.83773 1.49248,-6.83773 3.31122,-9.62877c0.27775,-0.44201 0.55548,-0.88403 0.84165,-1.33943c0.56796,-0.90388 1.13807,-1.80644 1.71016,-2.70773c1.11233,-2.038 1.35566,-4.13502 1.64017,-6.41364c0.05625,-0.40902 0.11248,-0.81805 0.17043,-1.23947c0.1366,-0.99942 0.26552,-1.99991 0.39285,-3.00057c0.50064,-0.15565 1.00126,-0.3113 1.51706,-0.47163c1.68949,-0.53701 3.34993,-1.1319 5.00708,-1.76275c0.50529,-0.19062 1.01055,-0.38125 1.53115,-0.57765c1.29876,-0.48059 1.29876,-0.48059 2.30236,-1.38706z" fill="#e83cac"/><path d="M267.54664,168.93931c-0.18944,1.93425 -0.97803,2.62577 -2.29035,4.04129c-9.88043,7.2653 -22.50438,11.58689 -34.49486,13.68397c-0.51587,0.12421 -1.03174,0.24841 -1.56323,0.3764c-2.45438,0.32615 -4.73442,0.0559 -7.1842,-0.22595c-0.47703,-0.05101 -0.95406,-0.10199 -1.44555,-0.15455c-1.16853,-0.12553 -2.33639,-0.25545 -3.50396,-0.38945c-0.07896,-0.78977 -0.15791,-1.57951 -0.23925,-2.39322c0.43963,0.03084 0.87926,0.06168 1.33221,0.09345c8.86656,0.48323 18.5913,-0.35473 26.83615,-3.87006c1.13872,-0.46241 1.13872,-0.46241 2.72538,-0.94574c2.08665,-0.6502 4.0388,-1.54712 6.01485,-2.47495c0.37149,-0.17352 0.74298,-0.34703 1.12574,-0.5258c2.78326,-1.3165 5.57494,-2.64288 7.9526,-4.628c0.99479,-0.80448 2.07264,-1.26093 3.2351,-1.78632c0.49479,-0.26436 0.98959,-0.52871 1.49937,-0.80107z" fill="#180b0f"/><path d="M220.39,140.83044c0.45766,0.04391 0.91531,0.08781 1.38683,0.13305c3.77521,0.45367 6.36742,1.49708 9.27754,4.02174c0.21551,-0.60451 0.43102,-1.20903 0.65306,-1.83187c0.35703,1.95653 0.10674,2.95756 -0.92892,4.64857c-2.59854,-0.61733 -2.59854,-0.61733 -3.51512,-1.30513c-1.54387,-0.83665 -3.15078,-0.88862 -4.87077,-1.0269c-0.35556,-0.03177 -0.71109,-0.06354 -1.07742,-0.09627c-2.4565,-0.20655 -4.86915,-0.28038 -7.3337,-0.16469c-0.03035,0.30984 -0.06069,0.61968 -0.09195,0.9389c-0.83839,0.18184 -0.83839,0.18184 -1.69371,0.36732c-2.05016,0.53552 -3.63694,1.46173 -5.39013,2.63242c-0.83617,0.49018 -0.83617,0.49018 -1.77445,0.39829c-0.08166,-1.68974 0.17825,-2.28475 1.27103,-3.60791c4.25128,-3.84632 8.39033,-5.67722 14.08772,-5.10752z" fill="#8550a2"/><path d="M274.83213,109.39946c0.79935,0.6476 1.47003,1.36969 2.12288,2.16482c0.0105,3.1606 -0.61794,5.60825 -2.23501,8.3123c-0.4872,0.18689 -0.4872,0.18689 -0.98425,0.37756c-0.4499,0.82096 -0.86285,1.66252 -1.25267,2.5137c-0.21223,0.45881 -0.42446,0.91764 -0.64311,1.39034c-0.24083,0.53271 -0.24083,0.53271 -0.48653,1.07615c-2.89944,-0.52338 -5.22093,-2.08773 -7.69947,-3.59782c1.75619,-0.31564 3.3914,-0.23709 5.16477,-0.12362c1.11667,-0.1381 1.11667,-0.1381 1.93896,-1.15235c0.80352,-1.41443 1.08341,-2.54492 1.33134,-4.14817c0.07891,-0.48775 0.15781,-0.9755 0.23912,-1.47805c0.10223,-0.72329 0.19549,-1.44815 0.26669,-2.17517c-2.88097,-0.44047 -5.4524,-0.53079 -8.3404,-0.07629c-2.69256,0.41478 -4.62593,0.2545 -7.23311,-0.50106c-0.10929,-0.4799 -0.2186,-0.95984 -0.3312,-1.4543c0.52933,0.08117 1.05867,0.16233 1.60404,0.24596c2.96367,0.28497 5.54489,-0.36342 8.16383,-1.74794c2.52763,-1.21122 5.92703,-0.95065 8.37414,0.37397z" fill="#df39a2"/><path d="M226.76659,111.38843c-0.03035,0.30985 -0.06069,0.61969 -0.09196,0.93892c0.89133,0.17528 0.89133,0.17528 1.80067,0.35408c1.80067,0.3541 1.80067,0.3541 2.75278,1.51373c-0.11318,1.32562 -0.11318,1.32562 -0.74501,2.77078c-1.12583,0.81829 -2.07026,1.39316 -3.30285,1.98705c-0.29819,0.16141 -0.59638,0.32283 -0.9036,0.48913c-2.34766,1.17787 -3.95098,1.18173 -6.52838,0.73806c-2.34539,-6.03259 -2.34539,-6.03259 -1.51809,-8.67987c2.47492,-1.96978 5.77118,-1.09865 8.53644,-0.11187z" fill="#fd47d3"/><path d="M240.36471,180.49579c-0.47962,0.10942 -0.95923,0.21886 -1.45339,0.33161c-0.43663,0.91229 -0.43663,0.91229 -0.65305,1.83186c-5.19483,0.92112 -10.12358,0.66225 -15.35705,0.29179c-2.3187,-0.15951 -4.59948,-0.16959 -6.92232,-0.10403c-0.26103,1.06927 -0.52204,2.13854 -0.79098,3.24023c1.65305,1.33164 3.43159,1.40869 5.47044,1.57254c0.48899,0.04743 0.48899,0.04743 0.98784,0.09582c1.9265,0.17221 3.76879,0.18098 5.69333,-0.0043c-0.60708,1.3624 -0.60708,1.3624 -1.39183,1.81875c-1.6652,0.42029 -3.27829,0.43773 -4.98284,0.40065c-0.35499,-0.00361 -0.70998,-0.00723 -1.07572,-0.01094c-2.72523,-0.1313 -4.18182,-0.81202 -6.24658,-2.602c-0.7005,-1.82903 -0.37361,-3.80686 0.0826,-5.67938c1.6113,-1.55933 3.26667,-1.92619 5.43639,-2.3113c1.604,0.06453 1.604,0.06453 3.33003,0.2669c0.30957,0.03391 0.61915,0.06781 0.9381,0.10276c1.31125,0.14377 2.62113,0.2987 3.9312,0.45282c3.88921,0.45083 9.76172,-1.02368 13.00383,0.30623z" fill="#ca6f55"/><path d="M274.12311,150.15124c0.44168,0.27786 0.44168,0.27786 0.8923,0.56134c0.09046,1.71664 -0.25952,2.38943 -1.26182,3.81617c-1.89508,2.03463 -4.26687,3.55466 -6.6948,4.88367c-0.30964,-0.03033 -0.61927,-0.06065 -0.93827,-0.09189c-0.03035,0.30984 -0.06069,0.61968 -0.09195,0.9389c-1.30562,0.55769 -2.6131,1.1101 -3.92206,1.65981c-0.3636,0.15592 -0.72718,0.31184 -1.10178,0.4725c-2.53928,1.0603 -5.03013,1.76801 -7.72548,2.30649c-0.50959,0.11627 -1.01919,0.23253 -1.54423,0.35234c-4.90982,0.71016 -9.68092,0.59284 -14.59037,-0.03673c-0.18517,0.29468 -0.37033,0.58935 -0.56109,0.89296c0.33712,-0.99487 0.65296,-1.83171 1.21414,-2.72482c0.84192,-0.0896 0.84192,-0.0896 1.92462,-0.06143c0.59414,0.0099 0.59414,0.0099 1.2003,0.02001c0.42472,0.00963 0.84944,0.01928 1.28703,0.0292c9.99899,0.07892 21.06268,-2.69258 28.73083,-9.53858c0.82712,-0.99817 1.49783,-2.0073 2.19841,-3.10238c0.3248,-0.12458 0.6496,-0.24919 0.98425,-0.37755z" fill="#19101b"/><path d="M237.10801,170.22378c0.30963,0.03032 0.61927,0.06065 0.93827,0.09189c-0.03035,0.30984 -0.06069,0.61968 -0.09195,0.9389c0.23621,0.08178 0.47242,0.16358 0.71578,0.24784c1.11478,0.40541 1.11478,0.40541 2.4998,1.07426c2.8174,1.11537 5.93357,0.99823 8.75952,0.02847c0.39823,-0.17605 0.79644,-0.35211 1.20674,-0.5335c0.29446,0.18523 0.58892,0.37049 0.8923,0.56134c-0.18114,0.86722 -0.18114,0.86722 -0.65305,1.83186c-1.04454,0.46423 -1.04454,0.46423 -2.32611,0.77934c-0.41832,0.10688 -0.83662,0.21377 -1.26763,0.32388c-0.63438,0.15599 -0.63438,0.15599 -1.28156,0.31512c-0.42427,0.12402 -0.84853,0.24803 -1.28565,0.37581c-1.49327,0.43211 -2.99709,0.69633 -4.52791,0.95063c-0.44019,0.08092 -0.88038,0.16182 -1.33391,0.2452c-3.15997,0.53956 -5.95616,0.65505 -9.12505,0.15233c0.49479,-0.26436 0.98958,-0.52871 1.49937,-0.80107c-0.4341,-0.35534 -0.86819,-0.71066 -1.31546,-1.07675c0.44727,-1.83222 1.15516,-3.0462 2.33633,-4.51073c1.36144,0.60728 1.36144,0.60728 2.16179,2.10754c0.17151,-0.35466 0.34299,-0.70934 0.51969,-1.07474c0.64847,-1.18062 0.64847,-1.18062 1.6787,-2.02763z" fill="#804f9b"/><path d="M234.88236,183.27653c-6.09118,1.50793 -11.89903,1.42856 -18.05713,0.60128c0.09413,0.63485 0.18825,1.26968 0.28522,1.92375c1.64903,0.18927 3.29907,0.36757 4.94952,0.54399c0.46398,0.05338 0.92796,0.10677 1.406,0.16178c2.61934,0.27414 4.78218,0.31863 7.34144,-0.31221c3.27677,-0.67965 3.27677,-0.67965 4.26823,-0.05593c-0.9744,0.37377 -1.94883,0.74757 -2.95276,1.13267c1.08371,0.10614 2.16742,0.21228 3.28397,0.32163c0.18516,-0.29467 0.37032,-0.58935 0.56109,-0.89295c0.86011,-0.14903 0.86011,-0.14903 1.9461,-0.22411c2.29502,-0.23003 4.98375,-0.72514 6.82022,-2.23501c0.93996,0.07273 1.87873,0.16384 2.81482,0.27568c-3.85602,2.38316 -7.29222,3.41041 -11.77708,3.89703c-1.72903,0.18888 -3.21467,0.44342 -4.8173,1.1131c-0.7265,0.11855 -1.45697,0.21481 -2.18929,0.28917c-1.23348,0.12847 -2.36475,0.29095 -3.5783,0.56783c-0.73552,-0.04008 -1.46998,-0.10362 -2.20196,-0.18604c-0.56815,-0.06205 -0.56815,-0.06205 -1.14777,-0.12536c-0.28793,-0.03371 -0.57586,-0.06739 -0.87252,-0.10212c0.01517,-0.15491 0.03034,-0.30983 0.04598,-0.46944c1.88813,-0.1279 3.77626,-0.25579 5.72161,-0.38755c0.03034,-0.30983 0.06069,-0.61968 0.09195,-0.9389c-0.31698,0.04473 -0.63397,0.08943 -0.96054,0.13551c-1.75296,0.12765 -3.45065,0.01192 -5.19572,-0.146c-0.32872,-0.02241 -0.65744,-0.04485 -0.99612,-0.06794c-2.11396,-0.19094 -3.37711,-0.62624 -4.95324,-2.05509c0.72659,-3.18728 0.72659,-3.18728 1.30609,-3.66373c3.89302,-0.16268 7.75169,0.12444 11.6355,0.37866c0.48612,0.02989 0.97224,0.05978 1.4731,0.09058c0.43885,0.02861 0.8777,0.05725 1.32986,0.08674c3.77354,0.07106 3.77354,0.07106 4.41902,0.34301z" fill="#9f4d3d"/><path d="M271.01782,163.11786c1.30279,0.60155 1.30279,0.60155 1.87373,1.72387c0.15108,1.44734 0.01752,2.28958 -0.56157,3.61815c-0.33998,0.27952 -0.67996,0.55902 -1.03023,0.84701c0.07586,-0.77459 0.15173,-1.54919 0.22989,-2.34726c-0.30964,-0.03033 -0.61927,-0.06065 -0.93828,-0.09189c0.03035,-0.30984 0.06069,-0.61969 0.09196,-0.93891c-0.95924,0.21886 -1.91847,0.43773 -2.90678,0.66323c0.6041,0.21556 1.20819,0.43114 1.83057,0.65324c-0.23067,0.75943 -0.46135,1.51886 -0.69902,2.30131c-0.54412,0.02003 -0.54412,0.02003 -1.09925,0.04046c-1.40909,0.21726 -1.79193,0.57026 -2.83776,1.46979c-0.46445,-0.04549 -0.92889,-0.09097 -1.40742,-0.13784c-0.3005,0.67438 -0.3005,0.67438 -0.60708,1.3624c-1.40375,0.95562 -2.98215,1.64262 -4.4981,2.40319c-0.64591,0.34328 -1.29136,0.68742 -1.93645,1.03225c-0.69653,0.36417 -1.39328,0.72792 -2.09023,1.09125c-0.49517,0.26773 -0.49517,0.26773 -1.00036,0.54087c-2.34973,1.2027 -4.09785,1.49876 -6.73803,1.39686c0.04552,-0.46475 0.09104,-0.92952 0.13793,-1.40835c0.79146,-0.2918 0.79146,-0.2918 1.59891,-0.58951c0.70622,-0.26454 1.41238,-0.52926 2.11849,-0.79412c0.34611,-0.12709 0.69222,-0.25417 1.04882,-0.38512c1.78094,-0.67185 3.42767,-1.39826 5.06588,-2.37257c1.55578,-0.90476 1.55578,-0.90476 2.49406,-0.81287c0.37032,-0.58936 0.74065,-1.17871 1.12219,-1.78592c0.30963,0.03032 0.61927,0.06065 0.93827,0.09189c0.20034,-0.44959 0.40068,-0.8992 0.60707,-1.3624c0.30964,0.03033 0.61927,0.06065 0.93827,0.09189c0.14866,-0.25854 0.29731,-0.51708 0.45047,-0.78345c0.7201,-1.07465 1.49681,-1.87332 2.44185,-2.75454c0.30543,-0.28839 0.61087,-0.57678 0.92556,-0.87392c2.46389,-2.08218 2.46389,-2.08218 4.43665,-1.88897z" fill="#b5614b"/><path d="M206.60468,162.49675c0.11651,0.33157 0.233,0.66312 0.35304,1.00471c1.0825,3.3392 1.0825,3.3392 3.22552,5.98115c1.50926,0.57346 3.03271,1.01207 4.59943,1.39838c-0.03035,0.30985 -0.06069,0.61968 -0.09196,0.93891c-10.29226,0.50445 -10.29226,0.50445 -14.54328,-1.42435c-0.14553,-2.6471 0.99708,-3.95425 2.6112,-5.88161c2.20005,-2.17838 2.20005,-2.17838 3.84605,-2.01717z" fill="#f1cfe9"/><path d="M259.48102,134.32083c0.81379,0.07868 0.81379,0.07868 1.64402,0.15893c3.0552,0.33884 5.77511,0.89948 8.65578,1.97546c-0.01517,0.15491 -0.03035,0.30985 -0.04598,0.46945c-0.57184,-0.04623 -1.14365,-0.09246 -1.73283,-0.14009c-0.48247,-0.03901 -0.48247,-0.03901 -0.9747,-0.0788c-1.04558,-0.14868 -1.04558,-0.14868 -2.07519,-0.4791c-7.4034,-2.14959 -14.73018,-1.20938 -21.50373,2.35579c-3.66447,2.15682 -7.10867,5.16293 -8.87081,9.11758c-0.71944,0.16415 -0.71944,0.16415 -1.45339,0.33161c1.02436,-3.82735 3.41286,-7.44651 6.64116,-9.77658c1.61924,-0.87936 3.2786,-1.62322 4.96724,-2.35723c0.49479,-0.26436 0.98959,-0.5287 1.49937,-0.80107c4.45202,-1.48101 8.64917,-1.22584 13.24905,-0.77595z" fill="#763896"/><path d="M271.80808,189.20353c0.42189,0.04987 0.84378,0.09975 1.27845,0.15112c0.32127,0.04246 0.64252,0.08493 0.97352,0.12866c-0.26501,0.89234 -0.26501,0.89234 -0.65305,1.83186c-1.08156,0.41489 -1.78725,0.40772 -2.93955,0.39342c-1.49634,0.00292 -2.90844,0.09804 -4.38492,0.34072c-1.77305,0.2707 -1.77305,0.2707 -3.6496,0.08691c-0.04552,0.46474 -0.09104,0.92951 -0.13793,1.40835c-1.56332,0.00328 -3.12666,0.00659 -4.73736,0.00997c0.06069,-0.61969 0.12138,-1.23935 0.18391,-1.8778c0.27823,-0.10412 0.55647,-0.20822 0.84312,-0.31548c0.36076,-0.13634 0.72151,-0.27269 1.0932,-0.41317c0.35943,-0.13526 0.71885,-0.27051 1.08918,-0.40987c0.88766,-0.30945 0.88766,-0.30945 1.42665,-0.79523c1.43753,0.00549 2.8695,0.06837 4.30577,0.12733c2.03959,-0.06762 3.17366,-0.93207 5.30862,-0.66681z" fill="#7e3ba1"/><path d="M246.17386,184.35279c0.68073,0.08134 0.68073,0.08134 1.37521,0.16431c-3.85602,2.38316 -7.29222,3.41041 -11.77708,3.89703c-1.72903,0.18888 -3.21467,0.44342 -4.8173,1.1131c-0.7265,0.11855 -1.45697,0.21481 -2.18929,0.28917c-1.23348,0.12847 -2.36475,0.29095 -3.5783,0.56783c-0.73552,-0.04008 -1.46998,-0.10362 -2.20196,-0.18604c-0.56815,-0.06205 -0.56815,-0.06205 -1.14777,-0.12536c-0.28793,-0.03371 -0.57586,-0.06739 -0.87252,-0.10212c0.01517,-0.15491 0.03034,-0.30983 0.04598,-0.46944c1.88813,-0.1279 3.77626,-0.25579 5.72161,-0.38755c0.23068,-0.75942 0.46136,-1.51884 0.69903,-2.30131c0.80102,-0.14647 1.6021,-0.29255 2.40356,-0.43665c0.94099,-0.1748 1.8784,-0.36855 2.81556,-0.56293c1.53273,-0.23497 1.53273,-0.23497 2.42503,0.32638c-0.9744,0.37377 -1.94883,0.74757 -2.95276,1.13267c1.08371,0.10614 2.16742,0.21228 3.28397,0.32163c0.18516,-0.29467 0.37032,-0.58935 0.56109,-0.89295c0.86011,-0.14903 0.86011,-0.14903 1.9461,-0.22411c2.81692,-0.28234 5.6593,-2.32481 8.25983,-2.12363z" fill="#b05b47"/><path d="M255.57894,165.39743c0.30964,0.03033 0.61927,0.06065 0.93828,0.09189c-0.06069,0.61968 -0.12138,1.23935 -0.18391,1.87781c0.44928,0.20041 0.89855,0.40082 1.36144,0.60729c-0.49006,0.21594 -0.98009,0.43187 -1.485,0.65436c-1.71075,0.76229 -3.37165,1.60295 -5.02876,2.47526c-1.97832,0.85761 -3.79703,0.6891 -5.92052,0.51061c-0.79279,-0.05933 -0.79279,-0.05933 -1.6016,-0.11983c-1.55973,-0.32164 -2.17868,-0.66279 -3.17493,-1.88833c0.03035,-0.30985 0.06069,-0.61969 0.09196,-0.93891c0.47229,0.03404 0.94457,0.06806 1.43116,0.10314c4.34341,0.26213 8.15564,-0.02487 12.40373,-1.11794c0.47962,-0.10942 0.95923,-0.21886 1.45339,-0.33161c-0.09413,-0.63484 -0.18825,-1.26967 -0.28522,-1.92375z" fill="#743e90"/><path d="M222.81826,151.70262c0.55165,0.05281 1.1033,0.10561 1.67166,0.16001c1.5118,0.2073 2.91379,0.53321 4.3754,0.96543c-0.01517,0.15491 -0.03035,0.30985 -0.04598,0.46944c-0.78925,0.0791 -1.57851,0.15822 -2.39166,0.23972c-0.01517,0.15491 -0.03035,0.30985 -0.04598,0.46945c-0.31432,-0.0026 -0.62867,-0.0052 -0.95252,-0.00789c-8.43815,-0.03166 -8.43815,-0.03166 -16.35025,2.57887c-0.30964,-0.03033 -0.61927,-0.06065 -0.93828,-0.09189c0.04552,-0.46476 0.09104,-0.92952 0.13793,-1.40835c4.54722,-2.85421 9.24094,-3.9055 14.53967,-3.3748z" fill="#1f1026"/><path d="M249.23237,181.83824c-0.40068,0.8992 -0.80134,1.79837 -1.21414,2.72481c-0.47792,-0.00771 -0.95584,-0.0154 -1.44823,-0.02334c-2.0645,0.08462 -3.49962,0.83093 -5.34959,1.72735c-1.88582,0.70227 -3.26184,0.72243 -5.25247,0.43349c-0.20034,0.44959 -0.40066,0.89919 -0.60707,1.36241c-1.23852,-0.1213 -2.47705,-0.2426 -3.7531,-0.36758c1.20378,-1.47253 1.28454,-1.38743 2.99874,-1.60213c0.18517,-0.29468 0.37032,-0.58936 0.56109,-0.89296c1.03303,-0.29703 2.07786,-0.55344 3.12639,-0.78983c2.61812,-0.6077 5.06498,-1.38519 7.52608,-2.47136c1.23895,-0.38402 2.14169,-0.30475 3.4123,-0.10087z" fill="#be6750"/><path d="M230.34598,142.54608c0.29447,0.18523 0.58892,0.3705 0.89229,0.56135c-0.06069,0.61969 -0.12138,1.23936 -0.18391,1.87782c-1.23866,-0.63408 -2.41739,-1.27493 -3.58618,-2.03414c-2.20302,-1.21042 -4.51886,-1.33713 -6.98619,-1.54882c-0.45333,-0.04989 -0.90666,-0.09979 -1.37372,-0.15121c-2.60642,-0.24446 -4.29016,-0.12158 -6.72747,0.95738c-0.44928,-0.2004 -0.89854,-0.40082 -1.36144,-0.60728c1.70227,-1.71527 3.01445,-2.48682 5.51079,-2.67429c4.92036,0.11197 9.64612,0.87853 13.81582,3.61921z" fill="#0d0511"/><path d="M270.78462,169.73039c-0.20152,2.05765 -0.8904,2.86467 -2.42774,4.23518c-1.44922,1.10818 -2.94463,2.12215 -4.45266,3.14819c-0.42592,0.35906 -0.85184,0.71815 -1.29067,1.08811c-3.3935,2.71873 -3.3935,2.71873 -5.22193,2.53966c-0.03035,0.30985 -0.06069,0.61968 -0.09196,0.93891c-3.04148,1.24553 -6.08713,2.11675 -9.28144,2.88262c1.01191,-1.89195 1.97447,-2.27003 3.9325,-2.95661c1.80796,-0.54485 3.63669,-0.96105 5.48686,-1.33437c0.03035,-0.30985 0.06069,-0.61969 0.09196,-0.93891c0.47658,-0.17815 0.95316,-0.35632 1.44418,-0.53987c2.20406,-0.96867 3.87924,-2.48017 5.67589,-4.05776c0.98385,-0.7701 0.98385,-0.7701 1.92212,-0.67821c0.20033,-0.44958 0.40067,-0.8992 0.60707,-1.3624c0.30963,0.03032 0.61927,0.06065 0.93828,0.09189c0.0662,-0.277 0.13241,-0.554 0.20061,-0.83939c0.57583,-1.26315 1.25549,-1.59304 2.46692,-2.21704z" fill="#9a4a3c"/><path d="M263.04872,143.23106c0.64477,0.05044 0.64477,0.05044 1.30258,0.10188c4.11236,0.408 7.57537,1.74628 10.98594,4.09348c-0.76464,0.25096 -0.76464,0.25096 -1.92253,0.28567c-1.06242,-0.55091 -2.11092,-1.12928 -3.14603,-1.72999c-7.84179,-2.96866 -17.2367,-1.54057 -25.14018,0.38153c0.03035,-0.30985 0.06069,-0.61968 0.09196,-0.93891c6.15766,-2.4775 11.29795,-2.74626 17.82826,-2.19367z" fill="#763796"/><path d="M246.78536,177.80693c-0.03035,0.30985 -0.06069,0.61969 -0.09196,0.93891c0.94406,-0.06394 1.88814,-0.12789 2.86081,-0.19377c-1.35393,1.23758 -2.58678,1.59585 -4.37006,2.02138c-1.42793,0.38821 -2.7512,0.96627 -4.10014,1.57016c-1.12641,0.28682 -1.69444,0.05361 -2.73377,-0.42325c0.50998,-0.41927 1.01992,-0.83855 1.54535,-1.27052c-1.42214,0.12525 -2.79245,0.31209 -4.19979,0.56621c-2.13387,0.33273 -4.13146,0.12964 -6.25918,-0.16868c1.42321,-0.76038 1.96948,-0.91248 3.50411,-1.01943c2.27065,-0.19631 4.51613,-0.48676 6.77026,-0.81804c0.49104,-0.07002 0.49104,-0.07002 0.99201,-0.14144c1.9679,-0.29257 4.12534,-1.25319 6.08237,-1.06152z" fill="#924a3b"/><path d="M251.42828,106.2205c0.27913,0.31052 0.27913,0.31052 0.56391,0.6273c1.58003,1.71043 3.06972,3.04342 5.12108,4.19507c-0.03035,0.30985 -0.06069,0.61969 -0.09195,0.9389c2.57697,0.38544 4.75763,0.39254 7.3406,0.00802c2.5967,-0.37559 4.76038,-0.4994 7.34061,0.008c0.76783,0.62321 0.76783,0.62321 1.26948,1.54619c-0.04178,1.29559 -0.04178,1.29559 -0.32876,2.7523c-0.08722,0.47901 -0.17442,0.958 -0.26427,1.45152c-0.46369,1.49961 -1.02896,2.42213 -2.06514,3.59308c-1.68154,0.72589 -2.9872,0.75962 -4.78334,0.47943c1.09841,-0.43998 2.05676,-0.76923 3.2316,-0.95726c1.31375,-0.42133 1.31375,-0.42133 1.90177,-1.88729c0.64225,-1.95442 1.04084,-3.9728 1.41583,-5.99313c-1.24593,0.02396 -2.49172,0.0504 -3.73757,0.07827c-0.35416,0.00656 -0.7083,0.01311 -1.07319,0.01986c-1.92391,0.01638 -1.92391,0.01638 -3.77167,0.48318c-6.44939,-0.16695 -6.44939,-0.16695 -8.7757,-2.28135c-1.20741,-1.31825 -2.37686,-2.64492 -3.38528,-4.12319c0.03035,-0.30984 0.06069,-0.61969 0.09196,-0.93891z" fill="#f542bf"/><path d="M237.45628,132.81544c0.44928,0.2004 0.89855,0.40081 1.36144,0.60728c-0.04552,0.46476 -0.09104,0.92952 -0.13793,1.40835c-2.22131,1.67827 -2.22131,1.67827 -3.46788,1.55619c-0.03035,0.30984 -0.06069,0.61968 -0.09196,0.93891c-3.58602,1.59978 -6.22294,2.63265 -10.12776,1.85182c0.06069,-0.61968 0.12138,-1.23935 0.18391,-1.87781c0.49046,-0.00512 0.49046,-0.00512 0.99084,-0.01034c4.16578,-0.17289 6.83973,-1.49599 10.22058,-3.83852c0.35269,-0.20985 0.70538,-0.41968 1.06876,-0.63588z" fill="#160c1b"/><path d="M246.76498,119.98243c7.61084,0.49213 13.83167,1.79758 20.22827,6.24673c0.70392,0.44834 1.41,0.89328 2.11921,1.3332c0.4785,0.30101 0.95699,0.60205 1.44999,0.91219c-1.70545,0.42076 -2.57939,0.10747 -4.12584,-0.67993c-0.42211,-0.20967 -0.84423,-0.41933 -1.27914,-0.63534c-0.43787,-0.22343 -0.87572,-0.44685 -1.32686,-0.67704c-2.92005,-1.48158 -5.69935,-2.76086 -8.88122,-3.57227c-0.42675,-0.15573 -0.42675,-0.15573 -0.86211,-0.31459c-0.12447,-0.32501 -0.24895,-0.65 -0.37719,-0.98485c-1.18165,-0.26381 -2.32379,-0.47075 -3.51912,-0.64088c-0.33174,-0.05081 -0.66348,-0.10164 -1.00528,-0.154c-0.82163,-0.12527 -1.6441,-0.24504 -2.4667,-0.36377c0.01517,-0.15491 0.03035,-0.30985 0.04598,-0.46946z" fill="#6f338e"/><path d="M274.20736,192.81544c0.38345,1.68373 0.2089,3.03515 0.00936,4.74047c-0.58891,-0.37048 -1.17783,-0.74098 -1.7846,-1.12269c0.07586,-0.77459 0.15173,-1.5492 0.22989,-2.34726c-2.48442,0.01817 -4.72558,0.26485 -7.175,0.71916c-0.61927,-0.06065 -1.23852,-0.1213 -1.87655,-0.18379c0.3501,-0.85438 0.3501,-0.85438 1.12218,-1.78593c2.92523,-0.8396 6.65653,-1.27705 9.47471,-0.01996z" fill="#7d3aa0"/><path d="M234.87134,130.19249c0.44928,0.20041 0.89854,0.40082 1.36144,0.6073c-0.43524,1.78295 -1.21779,2.4969 -2.71351,3.52587c-2.75824,1.56957 -4.58722,1.70452 -7.69012,1.14266c0.06069,-0.61968 0.12138,-1.23936 0.18391,-1.87782c0.4068,-0.0298 0.4068,-0.0298 0.82181,-0.06021c2.63342,-0.2477 4.62684,-0.76055 6.96026,-2.02135c0.35515,-0.43443 0.7103,-0.86887 1.0762,-1.31647z" fill="#190e1f"/><path d="M270.98561,128.98994c3.58687,2.0572 6.1497,4.63391 8.42616,8.06047c0.66972,0.99867 0.66972,0.99867 1.95958,1.96185c0.56234,1.13443 0.56234,1.13443 1.06311,2.44427c0.17022,0.43152 0.34042,0.86303 0.51579,1.30761c0.30701,1.17238 0.30701,1.17238 -0.30006,2.53478c-1.57212,-1.62668 -2.69233,-3.87622 -2.95244,-6.12473c-0.05181,-0.26901 -0.1036,-0.53801 -0.15698,-0.81517c-0.27532,-0.16872 -0.55062,-0.33741 -0.8343,-0.51124c-1.0319,-0.66397 -1.40806,-1.18922 -2.03523,-2.22845c-1.33656,-2.02282 -3.03007,-3.40722 -4.91837,-4.90465c-0.28353,-0.25932 -0.56709,-0.51866 -0.85922,-0.78582c0.03035,-0.30985 0.06069,-0.61969 0.09196,-0.93891z" fill="#6f338e"/><path d="M215.91421,173.83554c0.12447,0.325 0.24895,0.65 0.37718,0.98484c-9.94554,1.50442 -9.94554,1.50442 -13.27379,0.12185c0.04552,-0.46476 0.09104,-0.92952 0.13793,-1.40836c0.74268,0.03791 0.74268,0.03791 1.50037,0.0766c4.31984,0.22496 4.31984,0.22496 8.62515,-0.09206c1.74085,-0.24421 1.74085,-0.24421 2.63316,0.31714z" fill="#7d4c97"/><path d="M230.18849,110.30172c-0.01517,0.15491 -0.03035,0.30985 -0.04598,0.46945c-0.33578,-0.01162 -0.67154,-0.02323 -1.01748,-0.03519c-1.52039,-0.0488 -3.04088,-0.08758 -4.56156,-0.12612c-0.79268,-0.02769 -0.79268,-0.02769 -1.60137,-0.05594c-0.50717,-0.01148 -1.01431,-0.02298 -1.53685,-0.03481c-0.70119,-0.02027 -0.70119,-0.02027 -1.41655,-0.04095c-1.3654,0.14488 -1.85857,0.38253 -2.7628,1.39971c-0.28543,1.16305 -0.28543,1.16305 -0.32648,2.42666c-0.02873,0.42425 -0.05746,0.84851 -0.08706,1.2856c-0.01526,0.32416 -0.03053,0.64829 -0.04624,0.98226c-0.86786,-0.87238 -1.25109,-1.33035 -1.35727,-2.57676c0.03919,-0.36275 0.07838,-0.72547 0.11876,-1.0992c0.03193,-0.36344 0.06387,-0.7269 0.09676,-1.10136c0.35432,-1.23114 0.75778,-1.58988 1.83141,-2.26446c4.28971,-1.16757 8.45434,-0.10093 12.7127,0.77111z" fill="#bf318c"/><path d="M234.52306,167.60082c0.30964,0.03033 0.61927,0.06065 0.93828,0.09189c0.53434,0.77808 0.53434,0.77808 1.07056,1.7637c0.17937,0.32549 0.35874,0.65099 0.54356,0.98634c0.13521,0.25273 0.27043,0.50548 0.40973,0.76586c-0.47962,0.10942 -0.95923,0.21886 -1.45339,0.33161c-0.23068,0.75943 -0.46136,1.51885 -0.69902,2.30131c-0.25993,-0.33828 -0.51987,-0.67653 -0.78768,-1.02506c-0.78017,-1.13259 -0.78017,-1.13259 -1.84325,-1.12844c-0.85798,0.84493 -0.85798,0.84493 -1.59133,1.73997c0.04552,-0.46476 0.09104,-0.92952 0.13793,-1.40835c-0.29446,-0.18523 -0.58892,-0.37049 -0.89229,-0.56135c0.67198,-0.64792 1.3476,-1.29205 2.02481,-1.93449c0.56379,-0.53863 0.56379,-0.53863 1.13896,-1.08814c0.33103,-0.27551 0.66207,-0.551 1.00313,-0.83486z" fill="#82509c"/><path d="M271.01782,163.11786c1.30279,0.60155 1.30279,0.60155 1.87373,1.72387c0.15108,1.44734 0.01752,2.28958 -0.56157,3.61815c-0.33998,0.27952 -0.67996,0.55902 -1.03023,0.84701c0.07586,-0.77459 0.15173,-1.54919 0.22989,-2.34726c-0.30964,-0.03033 -0.61927,-0.06065 -0.93828,-0.09189c0.03035,-0.30984 0.06069,-0.61969 0.09196,-0.93891c-2.27711,-0.06896 -2.27711,-0.06896 -4.31074,0.79231c-0.1863,0.20658 -0.3726,0.41318 -0.56455,0.62602c-0.29447,-0.18523 -0.58892,-0.3705 -0.89229,-0.56135c3.7916,-3.89425 3.7916,-3.89425 6.1021,-3.66796z" fill="#98483a"/><path d="M275.23842,216.14022c-0.25171,3.17456 -0.25171,3.17456 -0.88293,4.17912c-1.77768,-0.58881 -1.77768,-0.58881 -2.25374,-1.16863c-1.2522,-0.23486 -2.49752,-0.44461 -3.75656,-0.63451c-0.3539,-0.05513 -0.70781,-0.11026 -1.07245,-0.16705c-0.87678,-0.1363 -1.75395,-0.26992 -2.63121,-0.40304c0.01517,-0.15491 0.03034,-0.30983 0.04598,-0.46945c0.28928,-0.0236 0.57854,-0.04719 0.87658,-0.07152c2.62993,-0.23604 5.1745,-0.6196 7.7562,-1.17507c0.97988,-0.18173 0.97988,-0.18173 1.91815,-0.08984z" fill="#8957a4"/><path d="M217.13438,177.22644c0.25004,0.19616 0.50008,0.39233 0.7577,0.59445c-2.06611,0.84462 -4.15135,1.27341 -6.32869,1.74995c-0.29137,1.37911 -0.58275,2.75822 -0.88294,4.17913c-0.47962,0.10942 -0.95923,0.21886 -1.45339,0.33161c-0.16397,-1.3702 -0.28178,-2.45239 -0.10131,-3.80156c1.6342,-1.95709 5.45942,-4.36491 8.00863,-3.05357z" fill="#1f0f1a"/><path d="M278.75226,214.11459c0.15481,0.01516 0.30964,0.03033 0.46914,0.04595c-0.21242,2.16886 -0.42483,4.33775 -0.64369,6.57232c-1.46008,-0.143 -2.76642,-0.48718 -4.17626,-0.88297c0.60099,-1.34878 1.202,-2.69758 1.82122,-4.08723c0.61927,0.06065 1.23852,0.1213 1.87655,0.18379c0.2155,-0.60452 0.43101,-1.20903 0.65305,-1.83186z" fill="#000008"/><path d="M283.1653,144.87541c2.61286,3.18242 1.5754,8.93323 1.21788,12.744c-0.26386,2.55973 -0.54447,5.117 -0.84923,7.67217c-0.15481,-0.01516 -0.30963,-0.03032 -0.46914,-0.04595c0.00866,-0.33078 0.01733,-0.66157 0.02625,-1.00238c0.03835,-1.52769 0.07237,-3.05544 0.10636,-4.58322c0.01369,-0.52012 0.02739,-1.04023 0.0415,-1.5761c0.06261,-2.96225 -0.00522,-5.85155 -0.31117,-8.79956c-0.1139,-1.51699 0.02266,-2.90596 0.23754,-4.40896z" fill="#6c3588"/><path d="M240.8892,184.81275c-0.21551,0.60451 -0.43102,1.20903 -0.65305,1.83187c-2.11277,0.02767 -2.11277,0.02767 -4.26823,0.05593c-0.20034,0.44959 -0.40066,0.89919 -0.60707,1.36241c-1.23852,-0.1213 -2.47705,-0.2426 -3.7531,-0.36758c1.20378,-1.47253 1.28454,-1.38743 2.99874,-1.60213c0.18517,-0.29468 0.37032,-0.58936 0.56109,-0.89296c1.98481,-0.47695 3.70095,-0.70991 5.72161,-0.38754z" fill="#c46b52"/><path d="M224.43109,140.07095c2.50748,0.7331 4.64355,1.51936 6.80718,3.03646c-0.06069,0.61969 -0.12138,1.23936 -0.18391,1.87782c-1.24583,-0.63775 -2.44575,-1.28835 -3.63472,-2.02964c-1.96848,-1.08474 -3.95474,-1.34625 -6.16092,-1.62536c-0.38638,-0.05403 -0.77276,-0.10807 -1.17084,-0.16373c-0.94316,-0.13108 -1.88739,-0.25453 -2.83179,-0.37639c0.01517,-0.15491 0.03035,-0.30984 0.04598,-0.46945c2.3374,0.07253 4.6748,0.14503 7.08305,0.21976c0.01517,-0.15491 0.03035,-0.30985 0.04598,-0.46945z" fill="#201028"/><path d="M232.56309,148.92463c0.15482,0.01516 0.30963,0.03032 0.46914,0.04595c0.03344,1.25452 0.06687,2.50904 0.10131,3.80157c0.44929,0.2004 0.89854,0.40081 1.36144,0.60728c0.20034,-0.44959 0.40068,-0.8992 0.60707,-1.3624c0.99921,-0.22799 0.99921,-0.22799 1.92254,-0.28567c-0.22602,0.26928 -0.45205,0.53858 -0.68492,0.81603c-0.29418,0.35425 -0.58836,0.70852 -0.89145,1.07352c-0.29261,0.35074 -0.58522,0.7015 -0.8867,1.06286c-0.83165,1.00274 -0.83165,1.00274 -1.37262,2.35938c-0.61927,-0.06065 -1.23852,-0.1213 -1.87655,-0.18379c0.20917,-2.71782 0.59739,-5.28751 1.25076,-7.93474z" fill="#743596"/><path d="M232.74784,171.21861c1.36144,0.60728 1.36144,0.60728 1.80935,1.7768c0.26049,1.26964 0.26049,1.26964 0.12255,2.678c-2.17484,0.77866 -2.17484,0.77866 -3.50529,0.42686c-0.25177,-0.12239 -0.50353,-0.24482 -0.76294,-0.37094c0.44727,-1.83222 1.15516,-3.0462 2.33633,-4.51073z" fill="#140a18"/><path d="M235.6257,132.1622c0.12447,0.32501 0.24895,0.65001 0.37718,0.98485c0.29447,0.18523 0.58892,0.3705 0.89229,0.56135c-0.7149,0.46524 -1.4316,0.92775 -2.149,1.38913c-0.39891,0.25786 -0.79783,0.51571 -1.20882,0.78138c-1.64065,0.97108 -2.64559,1.50711 -4.56218,1.3194c0.03035,-0.30984 0.06069,-0.61968 0.09196,-0.93891c-0.9289,-0.09098 -1.85778,-0.18195 -2.81483,-0.27568c0.01517,-0.15491 0.03035,-0.30984 0.04598,-0.46944c0.55532,0.01529 1.11065,0.03056 1.6828,0.04632c2.18341,-0.04564 3.64072,-0.74715 5.58416,-1.70437c0.30963,0.03032 0.61927,0.06065 0.93827,0.09189c0.37032,-0.58935 0.74065,-1.17871 1.12218,-1.78592z" fill="#784a90"/><path d="M247.54908,184.5171c-3.64955,2.27936 -6.93218,3.45871 -11.24995,3.63775c1.28898,-1.22886 2.55876,-1.68546 4.24342,-2.22079c5.2216,-1.67227 5.2216,-1.67227 7.00653,-1.41696z" fill="#8f4437"/><path d="M257.17962,168.39793c-0.12426,1.26872 -0.22324,2.11344 -0.79098,3.24022c-1.02507,0.49205 -1.02507,0.49205 -1.96852,0.75512c-0.03035,0.30984 -0.06069,0.61968 -0.09196,0.93891c-1.11405,0.2037 -2.2281,0.4074 -3.37592,0.61728c0.82491,-1.93452 1.67827,-2.74909 3.48102,-3.80618c0.40523,-0.24134 0.81046,-0.4827 1.22798,-0.73137c0.49661,-0.29228 0.49661,-0.29228 1.00325,-0.59045c0.16999,-0.13975 0.33997,-0.27952 0.51511,-0.42351z" fill="#7f4b9b"/><path d="M245.59598,98.06601c-0.48265,0.28997 -0.48265,0.28997 -0.97504,0.58582c-1.82585,1.24763 -3.46106,2.66036 -5.12795,4.11141c-1.06265,0.76239 -1.06265,0.76239 -2.47006,0.62455c0.87662,-1.58767 1.96119,-2.64473 3.33442,-3.82054c0.58125,-0.51125 0.58125,-0.51125 1.17424,-1.03285c1.53255,-0.91256 2.34593,-0.80896 4.0644,-0.46838z" fill="#a72b7a"/><path d="M221.29525,167.25322c-0.04552,0.46476 -0.09104,0.92952 -0.13793,1.40836c0.27929,0.34016 0.55858,0.68033 0.84633,1.03079c-0.76191,0.23409 -1.52484,0.46482 -2.28817,0.69419c-0.42474,0.12886 -0.84949,0.25772 -1.2871,0.39048c-2.26398,0.58108 -3.87553,0.65136 -6.11732,-0.04927c-0.40092,-0.12052 -0.80185,-0.24105 -1.21493,-0.36522c-0.31642,-0.13547 -0.63286,-0.27093 -0.95887,-0.4105c-0.12447,-0.325 -0.24894,-0.65001 -0.37718,-0.98485c0.63689,0.15493 0.63689,0.15493 1.28666,0.313c3.27321,0.69638 5.54804,1.17688 8.47569,-0.62509c0.6035,-0.45095 1.19088,-0.92345 1.77283,-1.4019z" fill="#a48ca0"/><path d="M235.56266,171.49429c0.92889,0.09097 1.85779,0.18195 2.81482,0.27568c0.34336,1.63745 0.35913,2.20611 -0.56445,3.64749c-0.27509,0.31519 -0.55018,0.63039 -0.8336,0.95514c-0.44928,-0.2004 -0.89854,-0.40082 -1.36144,-0.60729c-0.01826,-1.40944 -0.03653,-2.81888 -0.05534,-4.27101z" fill="#100813"/><path d="M255.57894,165.39743c0.30964,0.03033 0.61927,0.06065 0.93828,0.09189c-0.06069,0.61968 -0.12138,1.23935 -0.18391,1.87781c0.44928,0.20041 0.89855,0.40082 1.36144,0.60729c-0.86956,0.37768 -1.73911,0.75537 -2.60867,1.13305c-0.93527,0.41993 -0.93527,0.41993 -1.88944,1.27014c-1.4718,-0.08489 -1.4718,-0.08489 -2.81482,-0.27568c0.59507,-1.20992 0.8972,-1.70297 2.18557,-2.17794c0.39165,-0.07161 0.78332,-0.14322 1.18684,-0.21701c0.39455,-0.07622 0.78911,-0.15243 1.19562,-0.23096c0.4526,-0.07665 0.4526,-0.07665 0.91434,-0.15484c-0.09413,-0.63484 -0.18825,-1.26967 -0.28522,-1.92375z" fill="#814c9d"/><path d="M262.40484,177.91483c0.12447,0.32501 0.24895,0.65 0.37719,0.98486c-1.16841,2.04995 -2.59712,2.7351 -4.63605,3.81154c-0.74805,0.92223 -0.74805,0.92223 -1.12218,1.78591c-0.37215,-1.63405 -0.30898,-2.24428 0.36782,-3.75561c1.03412,-0.73554 1.03412,-0.73554 2.26055,-1.31896c0.60779,-0.29606 0.60779,-0.29606 1.22786,-0.59807c0.3332,-0.16044 0.6664,-0.32086 1.00969,-0.48615c0.16999,-0.13975 0.33998,-0.27952 0.51511,-0.42351z" fill="#1f0f1a"/><path d="M230.58605,169.11106c-0.13793,1.40835 -0.13793,1.40835 -0.91923,2.13163c-0.25213,0.1806 -0.50428,0.36118 -0.76405,0.54724c0.12446,0.325 0.24894,0.65 0.37718,0.98484c-0.46445,-0.04549 -0.9289,-0.09098 -1.40742,-0.13784c-0.03035,0.30985 -0.06069,0.61969 -0.09196,0.93891c-0.63566,0.25603 -1.27251,0.5091 -1.90987,0.76086c-0.35452,0.14124 -0.70904,0.28246 -1.0743,0.42798c-0.95285,0.32138 -0.95285,0.32138 -1.89112,0.22949c0.20034,-0.44959 0.40068,-0.8992 0.60707,-1.3624c0.64084,-0.09523 1.28169,-0.19044 1.92253,-0.28567c0.20034,-0.44958 0.40067,-0.8992 0.60707,-1.3624c1.0533,-0.76144 1.0533,-0.76144 2.30998,-1.52147c0.41627,-0.25433 0.83254,-0.50865 1.26143,-0.77068c0.32098,-0.19157 0.64196,-0.38312 0.97267,-0.5805z" fill="#24142c"/><path d="M237.79767,163.18199c1.70297,0.16679 3.40593,0.33357 5.16052,0.50542c-0.33998,0.27952 -0.67996,0.55903 -1.03024,0.84701c0.4341,0.35533 0.86821,0.71065 1.31546,1.07675c-2.0126,-0.19711 -4.0252,-0.39422 -6.09879,-0.59731c-0.18517,0.29468 -0.37033,0.58935 -0.56109,0.89296c0.33712,-0.99487 0.65295,-1.83171 1.21414,-2.72482z" fill="#2d2031"/><path d="M260.88841,217.57852c1.84268,0.12542 3.68308,0.27197 5.52386,0.42252c0.78424,0.05298 0.78424,0.05298 1.58434,0.10703c0.50253,0.04312 1.00506,0.08623 1.52283,0.13064c0.46284,0.03541 0.92569,0.07081 1.40254,0.10728c1.54697,0.42314 2.03209,1.09334 2.91838,2.39686c-1.811,0.35584 -1.811,0.35584 -2.81483,-0.27568c0.03035,-0.30985 0.06069,-0.61968 0.09195,-0.9389c-0.58887,-0.04668 -1.17777,-0.09336 -1.78449,-0.14145c-0.77543,-0.06703 -1.55082,-0.13436 -2.32622,-0.2019c-0.38782,-0.03004 -0.77562,-0.06008 -1.17518,-0.09102c-0.37524,-0.0337 -0.75049,-0.06738 -1.13708,-0.1021c-0.34443,-0.02878 -0.68886,-0.05755 -1.04373,-0.08718c-1.11655,-0.23224 -1.83786,-0.67044 -2.76237,-1.32608z" fill="#170096"/><path d="M252.59892,176.48049c-0.40723,0.87099 -0.40723,0.87099 -1.12218,1.78591c-1.15595,0.27929 -1.15595,0.27929 -2.46181,0.35133c-0.43382,0.02839 -0.86766,0.05678 -1.31462,0.08601c-0.33228,0.01389 -0.66455,0.02778 -1.00691,0.04209c0.04552,-0.46475 0.09104,-0.92952 0.13793,-1.40835c0.69672,-0.17139 1.39425,-0.33943 2.09213,-0.50603c0.38836,-0.09393 0.7767,-0.18787 1.17682,-0.28465c1.09124,-0.20416 1.09124,-0.20416 2.49865,-0.06632z" fill="#b2604a"/><path d="M269.6071,167.24529c-0.23067,0.75943 -0.46135,1.51886 -0.69902,2.30131c-0.54412,0.02003 -0.54412,0.02003 -1.09925,0.04046c-1.37445,0.21192 -1.87079,0.50734 -2.83776,1.46979c-0.44928,-0.2004 -0.89854,-0.40082 -1.36144,-0.60729c0.64224,-0.57468 1.2913,-1.14177 1.94318,-1.7055c0.54105,-0.47487 0.54105,-0.47487 1.09303,-0.95935c1.08472,-0.72318 1.08472,-0.72318 2.96126,-0.5394z" fill="#a5503f"/><path d="M224.66098,137.72369c0.1093,0.47992 0.2186,0.95985 0.33121,1.4543c2.49431,0.03325 4.74951,-0.04847 7.175,-0.71915c-0.03035,0.30984 -0.06069,0.61968 -0.09196,0.93891c-1.65034,0.54845 -2.53355,0.69978 -4.3142,0.52538c-0.03035,0.30984 -0.06069,0.61968 -0.09196,0.93891c-1.99743,-0.35202 -3.99485,-0.70407 -6.05281,-1.06676c0.01517,-0.15491 0.03035,-0.30984 0.04598,-0.46945c0.92889,0.09097 1.85779,0.18195 2.81482,0.27568c0.06069,-0.61969 0.12138,-1.23936 0.18391,-1.87781z" fill="#663d7b"/><path d="M270.78462,169.73039c-0.20717,2.11533 -0.938,2.90881 -2.52433,4.31458c-1.31136,0.99721 -1.31136,0.99721 -2.81073,1.79827c-0.1093,-0.47992 -0.2186,-0.95985 -0.3312,-1.4543c0.47962,-0.10942 0.95923,-0.21887 1.45339,-0.33161c0.20033,-0.44958 0.40067,-0.8992 0.60707,-1.3624c0.30963,0.03032 0.61927,0.06065 0.93828,0.09189c0.0662,-0.277 0.13241,-0.554 0.20061,-0.83939c0.57583,-1.26315 1.25549,-1.59304 2.46692,-2.21704z" fill="#914538"/><path d="M273.84777,218.55154c0.59967,0.82891 0.59967,0.82891 0.50771,1.76781c-1.77768,-0.58881 -1.77768,-0.58881 -2.25374,-1.16863c-1.2522,-0.23486 -2.49752,-0.44461 -3.75656,-0.63451c-0.3539,-0.05513 -0.70781,-0.11026 -1.07245,-0.16705c-0.87678,-0.1363 -1.75395,-0.26992 -2.63121,-0.40304c0.01517,-0.15491 0.03034,-0.30983 0.04598,-0.46945c7.06159,-0.3315 7.06159,-0.3315 9.16028,1.0749z" fill="#f814ff"/><path d="M256.28732,167.83659c0.44928,0.20041 0.89855,0.40081 1.36144,0.60729c-4.22854,3.21988 -4.22854,3.21988 -6.5126,3.62776c-0.27929,-0.34017 -0.55858,-0.68033 -0.84632,-1.0308c0.34662,-0.16033 0.69324,-0.32069 1.05036,-0.48587c0.45173,-0.21113 0.90345,-0.42228 1.36887,-0.63982c0.44907,-0.20894 0.89814,-0.41791 1.36082,-0.6332c1.21449,-0.55765 1.21449,-0.55765 2.21742,-1.44537z" fill="#190c20"/><path d="M227.46728,157.43069c-0.01517,0.15491 -0.03035,0.30985 -0.04598,0.46945c-2.11277,0.02767 -2.11277,0.02767 -4.26822,0.05593c0.11689,0.40247 0.23377,0.80492 0.35419,1.21957c0.35994,1.9725 0.20336,3.4652 -0.05961,5.44465c-0.15482,-0.01516 -0.30964,-0.03033 -0.46914,-0.04595c-0.05792,-0.39975 -0.11585,-0.79949 -0.17553,-1.21134c-0.07643,-0.52252 -0.15286,-1.04505 -0.23161,-1.58339c-0.07557,-0.51878 -0.15116,-1.03755 -0.22902,-1.57205c-0.14986,-0.95882 -0.33524,-1.91258 -0.55073,-2.85878c1.92883,-0.44009 3.7321,-0.14122 5.67563,0.08191z" fill="#957e92"/><path d="M221.5422,126.04333c-0.13793,1.40836 -0.13793,1.40836 -1.50358,2.65759c-0.57472,0.4639 -1.15277,0.92369 -1.73367,1.37982c-0.2942,0.23604 -0.58841,0.47207 -0.89151,0.71527c-0.7274,0.58276 -1.45862,1.16071 -2.19055,1.73775c-0.29447,-0.18523 -0.58892,-0.37049 -0.8923,-0.56135c0.84387,-0.78918 1.69079,-1.57453 2.53992,-2.358c0.24002,-0.22516 0.48004,-0.45029 0.72733,-0.68228c0.62568,-0.57456 1.27638,-1.12156 1.92989,-1.66422c0.30964,0.03033 0.61927,0.06065 0.93827,0.09189c0.03035,-0.30985 0.06069,-0.61969 0.09196,-0.93892c0.32481,-0.12458 0.64961,-0.24919 0.98425,-0.37755z" fill="#672e85"/><path d="M268.33762,165.69909c1.24011,0.03258 1.24011,0.03258 2.34569,0.22973c0.04861,1.09959 0.09722,2.19919 0.14729,3.33211c-0.47961,0.10943 -0.95924,0.21886 -1.45339,0.33161c0.07586,-0.77459 0.15173,-1.54919 0.22989,-2.34726c-0.77408,-0.07581 -1.54815,-0.15162 -2.34569,-0.22973c0.35515,-0.43442 0.7103,-0.86887 1.0762,-1.31646z" fill="#cc7056"/><path d="M229.51838,150.99621c0.15482,0.01516 0.30964,0.03033 0.46914,0.04595c-0.07586,0.7746 -0.15173,1.54919 -0.22989,2.34726c-3.06597,-0.61309 -6.13193,-1.22617 -9.2908,-1.85784c0.01517,-0.15492 0.03035,-0.30985 0.04598,-0.46945c0.60693,0.03074 1.21386,0.06145 1.83918,0.09311c0.79128,0.03751 1.58257,0.07488 2.37385,0.11215c0.60096,0.03091 0.60096,0.03091 1.21406,0.06243c0.3814,0.0175 0.76281,0.03499 1.15577,0.05303c0.52951,0.0258 0.52951,0.0258 1.06971,0.05212c0.84104,0.07146 0.84104,0.07146 1.35299,-0.43876z" fill="#7b3f9b"/><path d="M272.84592,192.20816c-0.01517,0.15491 -0.03035,0.30985 -0.04598,0.46945c-0.45247,0.01312 -0.90496,0.02624 -1.37115,0.03974c-0.59613,0.02103 -1.19225,0.04209 -1.80645,0.06375c-0.58983,0.01921 -1.17967,0.03841 -1.7874,0.05821c-1.49343,0.11801 -2.7219,0.36043 -4.13254,0.84311c0.03035,-0.30985 0.06069,-0.61969 0.09196,-0.93892c-0.44929,-0.20039 -0.89854,-0.4008 -1.36144,-0.60727c3.71714,-0.74499 6.74592,-0.97999 10.41298,0.07191z" fill="#874ca7"/><path d="M208.89585,182.62726c0.89397,1.67574 0.86992,2.54417 0.82947,4.37646c0.02143,1.07149 0.02143,1.07149 0.87252,2.42561c-0.61927,-0.06065 -1.23852,-0.1213 -1.87655,-0.18379c-0.07987,-0.93531 -0.15513,-1.87101 -0.22833,-2.80686c-0.04238,-0.52101 -0.08477,-1.04204 -0.12844,-1.57885c-0.02977,-1.33962 -0.02977,-1.33962 0.53132,-2.23257z" fill="#7c4c95"/><path d="M271.06049,166.91368c0.15482,0.01516 0.30964,0.03033 0.46915,0.04595c0.01729,1.33469 0.01729,1.33469 -0.27587,2.81671c-1.10095,0.66235 -1.10095,0.66235 -2.48363,1.17862c-0.85064,0.53775 -1.69595,1.08431 -2.5296,1.64808c-0.29446,-0.18523 -0.58892,-0.3705 -0.89229,-0.56134c1.2623,-1.40391 2.21936,-2.43681 4.07495,-2.91859c0.30964,0.03033 0.61927,0.06065 0.93827,0.09189c0.23068,-0.75943 0.46136,-1.51886 0.69902,-2.30131z" fill="#b05c48"/><path d="M213.24584,152.72018c0.12447,0.325 0.24894,0.65001 0.37718,0.98485c-1.73279,1.42462 -3.3033,2.22637 -5.48236,2.78075c0.04552,-0.46476 0.09104,-0.92952 0.13793,-1.40835c1.10006,-0.65318 1.10006,-0.65318 2.49224,-1.26665c0.45978,-0.20609 0.91955,-0.41214 1.39326,-0.62446c0.35697,-0.15383 0.71395,-0.30764 1.08174,-0.46614z" fill="#23142b"/><path d="M251.59511,143.20533c0.29447,0.18523 0.58892,0.37049 0.8923,0.56134c-1.30974,1.28307 -2.5492,1.62032 -4.31415,2.03612c-0.48208,0.11591 -0.96417,0.23181 -1.46086,0.35125c-0.36787,0.08432 -0.73575,0.16866 -1.11477,0.25554c-0.12447,-0.32501 -0.24895,-0.65 -0.37718,-0.98485c1.04213,-0.38627 2.08639,-0.76682 3.13156,-1.14478c0.5813,-0.2125 1.16259,-0.42501 1.76151,-0.64395c0.48892,-0.14213 0.97785,-0.28424 1.48159,-0.43068z" fill="#7c3c9d"/><path d="M256.0021,165.91282c-0.04552,0.46476 -0.09104,0.92952 -0.13793,1.40835c-2.83548,1.14417 -2.83548,1.14417 -3.89104,1.04079c0.03035,-0.30985 0.06069,-0.61969 0.09196,-0.93891c-0.29446,-0.18523 -0.58892,-0.37049 -0.89229,-0.56135c0.62841,-0.17734 1.25749,-0.35227 1.88688,-0.52613c0.52538,-0.1465 0.52538,-0.1465 1.06137,-0.29595c0.94279,-0.2187 0.94279,-0.2187 1.88107,-0.1268z" fill="#201227"/><path d="M236.50947,152.15486c0.24894,0.65 0.49788,1.3 0.75436,1.9697c-1.01561,1.05666 -2.00388,2.07916 -3.13668,3.01049c-0.29446,-0.18523 -0.58891,-0.37049 -0.89229,-0.56135c0.9394,-1.60411 2.08496,-2.99414 3.27461,-4.41884z" fill="#211427"/><path d="M211.62643,140.23874c0.29446,0.18523 0.58892,0.3705 0.89229,0.56135c-1.965,2.5328 -1.965,2.5328 -3.65179,3.43398c0.04552,-0.46475 0.09104,-0.92952 0.13793,-1.40835c-0.29446,-0.18524 -0.58891,-0.3705 -0.89229,-0.56135c0.20034,-0.44959 0.40068,-0.8992 0.60707,-1.36241c-0.03035,0.30984 -0.06069,0.61969 -0.09196,0.93891c0.98959,-0.5287 1.97917,-1.05741 2.99874,-1.60213z" fill="#1c0d24"/><path d="M241.77984,137.03052c0.29446,0.18523 0.58892,0.37049 0.89229,0.56134c-2.03986,1.67709 -4.07971,3.35417 -6.18139,5.08206c0.21068,-2.15116 1.68156,-3.06689 3.27461,-4.41884c1.20328,-0.80043 1.20328,-0.80043 2.01448,-1.22456z" fill="#693087"/><path d="M259.0102,169.05117c-0.13793,1.40835 -0.13793,1.40835 -0.91883,2.14648c-0.32759,0.24651 -0.65518,0.49303 -0.99269,0.74701c-1.2705,0.96008 -1.77686,1.35516 -2.4393,2.84181c-0.30963,-0.03032 -0.61926,-0.06065 -0.93827,-0.09189c0.42449,-2.01672 1.03991,-2.75453 2.748,-3.87797c0.36592,-0.24519 0.73185,-0.49041 1.10885,-0.74304c0.30266,-0.19764 0.6053,-0.39528 0.91712,-0.5989c0.16999,-0.13975 0.33997,-0.27952 0.51511,-0.4235z" fill="#1e0e22"/><path d="M206.30073,151.09207c0.29447,0.18523 0.58891,0.3705 0.89229,0.56135c-1.69989,1.39755 -3.39977,2.79514 -5.15115,4.23505c-0.29447,-0.18523 -0.58892,-0.3705 -0.8923,-0.56135c3.22941,-3.23028 3.22941,-3.23028 5.15116,-4.23506z" fill="#764192"/><path d="M246.17828,179.16935c-1.92272,1.09414 -3.1204,1.27083 -5.29844,0.90294c1.7455,-1.65158 3.10093,-1.85497 5.29844,-0.90294z" fill="#c56b52"/><path d="M232.44306,135.64214c-0.03035,0.30984 -0.06069,0.61968 -0.09195,0.9389c-1.30914,0.56406 -1.91901,0.75997 -3.37592,0.61728c0.03035,-0.30984 0.06069,-0.61968 0.09196,-0.93891c-0.9289,-0.09098 -1.85779,-0.18195 -2.81483,-0.27568c0.01517,-0.15491 0.03035,-0.30984 0.04598,-0.46944c0.76024,-0.00541 1.52047,-0.00974 2.28072,-0.01361c0.42336,-0.00253 0.84671,-0.00505 1.28291,-0.00766c1.17374,0.01128 1.17374,0.01128 2.58116,0.14912z" fill="#784b90"/><path d="M253.77396,106.45023c1.41154,1.27081 2.39117,2.22706 2.91615,4.07725c-2.66999,-1.15016 -2.66999,-1.15016 -3.14603,-1.72999c0.05755,-0.78404 0.13325,-1.56706 0.22989,-2.34726z" fill="#c83392"/><path d="M213.21006,182.10188c0.15482,0.01516 0.30963,0.03032 0.46914,0.04595c-0.01511,0.27895 -0.03022,0.55789 -0.04578,0.8453c-0.06495,2.49565 0.10016,3.94998 1.74778,5.95676c-0.89854,-0.40082 -1.7971,-0.80164 -2.72287,-1.2146c0.18207,-1.85903 0.36414,-3.71806 0.55173,-5.63342z" fill="#ae5844"/><path d="M241.96541,183.49629c0.29446,0.18523 0.58891,0.37049 0.89229,0.56134c-0.16998,0.13975 -0.33998,0.27952 -0.51511,0.42351c0.27928,0.34016 0.55858,0.68033 0.84632,1.03079c-0.95923,0.21886 -1.91848,0.43773 -2.90678,0.66323c0.20034,-0.44958 0.40067,-0.8992 0.60707,-1.3624c-0.44929,-0.2004 -0.89855,-0.40082 -1.36144,-0.60729c1.16306,-0.38967 1.16306,-0.38967 2.43765,-0.70917z" fill="#af5d48"/><path d="M237.14463,165.01386c1.39334,0.13646 2.78668,0.27292 4.22224,0.41352c-0.48721,0.18689 -0.48721,0.18689 -0.98425,0.37755c-0.03035,0.30985 -0.06069,0.61969 -0.09196,0.93891c-0.92889,-0.09097 -1.85779,-0.18195 -2.81482,-0.27568c-0.1093,-0.47991 -0.21859,-0.95985 -0.3312,-1.4543z" fill="#7d4d96"/><path d="M206.29137,146.3516c0.10929,0.47992 0.21859,0.95985 0.3312,1.45431c0.44928,0.2004 0.89855,0.40081 1.36144,0.60729c-1.89721,1.23605 -1.89721,1.23605 -2.95276,1.13267c0.05056,-1.1207 0.05056,-1.1207 0.22989,-2.34726c0.33998,-0.27952 0.67996,-0.55902 1.03024,-0.84701z" fill="#663083"/><path d="M249.25025,167.14738c0.9289,0.09098 1.85779,0.18195 2.81483,0.27568c-0.20034,0.44958 -0.40067,0.8992 -0.60707,1.3624c-0.94406,0.06393 -1.88814,0.1279 -2.86081,0.19377c0.21551,-0.60451 0.43102,-1.20903 0.65305,-1.83186z" fill="#150a1b"/><path d="M275.68635,134.18987c1.75587,0.42899 2.46596,1.28482 3.52321,2.71484c-0.20033,0.44958 -0.40067,0.8992 -0.60707,1.3624c-0.49618,-0.59023 -0.99048,-1.18203 -1.48394,-1.77455c-0.27545,-0.32941 -0.55091,-0.65881 -0.83471,-0.99818c-0.64347,-0.83505 -0.64347,-0.83505 -0.59749,-1.30451z" fill="#7a3a9b"/><path d="M223.81715,209.20825c-0.06069,0.61969 -0.12138,1.23935 -0.18391,1.87782c-1.0837,-0.10614 -2.16741,-0.21227 -3.28397,-0.32163c1.88453,-1.71126 1.88453,-1.71126 3.46788,-1.55619z" fill="#7a3a9c"/><path d="M230.58605,169.11106c-0.13793,1.40835 -0.13793,1.40835 -0.91923,2.13163c-0.25213,0.1806 -0.50428,0.36118 -0.76405,0.54724c0.12446,0.325 0.24894,0.65 0.37718,0.98484c-0.46445,-0.04549 -0.9289,-0.09098 -1.40742,-0.13784c-0.18517,0.29468 -0.37032,0.58936 -0.56109,0.89296c-0.07535,-1.04416 -0.07535,-1.04416 0.22989,-2.34726c0.95454,-0.8498 1.93477,-1.41717 3.04472,-2.07158z" fill="#1d0e24"/><path d="M266.1852,168.33201c1.07626,0.19428 1.07626,0.19428 1.83057,0.65324c-2.24573,1.67772 -2.24573,1.67772 -3.04471,2.07158c-0.44928,-0.2004 -0.89854,-0.40082 -1.36144,-0.60729c1.17338,-1.09959 1.17338,-1.09959 2.57558,-2.11753z" fill="#934739"/><path d="M213.71498,152.76612c0.77408,0.07581 1.54815,0.15162 2.34569,0.22973c-0.03035,0.30984 -0.06069,0.61969 -0.09196,0.93891c-1.17026,0.56287 -1.7287,0.81965 -3.00682,0.47569c-0.26144,-0.12335 -0.52288,-0.24672 -0.79226,-0.37381c0.47962,-0.10942 0.95924,-0.21886 1.45339,-0.33161c0.03035,-0.30984 0.06069,-0.61968 0.09196,-0.93891z" fill="#0a040d"/><path d="M217.11733,118.02668c1.13962,1.62822 1.89614,3.03181 2.35506,4.9702c-1.36144,-0.60728 -1.36144,-0.60728 -2.04679,-1.77044c-0.49218,-1.32195 -0.49218,-1.32195 -0.30827,-3.19976z" fill="#5e1847"/><path d="M224.46688,110.68925c3.48704,0.10819 3.48704,0.10819 4.83399,1.42136c0.20187,0.33257 0.40376,0.66516 0.61175,1.00782c-1.06853,-0.26105 -2.13706,-0.52212 -3.23799,-0.79108c0.03035,-0.30984 0.06069,-0.61969 0.09196,-0.93892c-0.77408,-0.07581 -1.54815,-0.15162 -2.34569,-0.22973c0.01517,-0.1549 0.03034,-0.30983 0.04598,-0.46944z" fill="#f340b8"/><path d="M241.17443,186.73651c-1.63312,1.18312 -2.8739,1.38712 -4.8753,1.41835c1.35856,-1.2942 3.11722,-2.52435 4.8753,-1.41835z" fill="#99493a"/><path d="M253.67513,175.16402c-0.03035,0.30985 -0.06069,0.61969 -0.09196,0.93891c0.29447,0.18524 0.58892,0.3705 0.89229,0.56135c-0.9744,0.37377 -0.9744,0.37377 -1.96851,0.75512c0.03035,-0.30985 0.06069,-0.61969 0.09196,-0.93891c-0.78925,0.07911 -1.57851,0.15821 -2.39166,0.23972c0.8231,-1.30994 1.93851,-1.70597 3.46788,-1.55619z" fill="#9c5442"/><path d="M249.95865,169.58654c-0.04552,0.46475 -0.09104,0.92952 -0.13793,1.40835c-1.23852,-0.1213 -2.47705,-0.2426 -3.7531,-0.36758c0.99252,-1.57956 2.15347,-1.21095 3.89104,-1.04078z" fill="#8e57ab"/><path d="M218.55199,108.21412c1.85779,0.18195 3.71557,0.3639 5.62965,0.55136c-0.01517,0.15491 -0.03035,0.30985 -0.04598,0.46946c-1.88814,0.12788 -3.77626,0.25578 -5.72161,0.38753c0.04552,-0.46476 0.09104,-0.92951 0.13793,-1.40836z" fill="#551640"/><path d="M259.20347,171.91383c0.29446,0.18523 0.58892,0.3705 0.8923,0.56135c-0.81047,1.09366 -0.81047,1.09366 -1.6373,2.20942c-0.44929,-0.2004 -0.89854,-0.40081 -1.36144,-0.60729c0.99916,-1.73872 0.99916,-1.73872 2.10644,-2.16347z" fill="#c46b52"/><path d="M256.28732,167.83659c0.44928,0.20041 0.89855,0.40081 1.36144,0.60729c-1.50714,1.02544 -1.50714,1.02544 -3.04472,2.07158c-0.27928,-0.34016 -0.55857,-0.68032 -0.84632,-1.0308c1.17971,-0.862 1.17971,-0.862 2.5296,-1.64807z" fill="#22112b"/><path d="M210.41229,142.96357c-0.13793,1.40835 -0.13793,1.40835 -0.93012,2.09169c-0.32879,0.21523 -0.65759,0.43046 -0.99636,0.65223c-0.32915,0.21888 -0.6583,0.43773 -0.99743,0.66323c-0.25538,0.16378 -0.51075,0.32755 -0.77386,0.49629c0.83661,-2.01242 1.82159,-2.8281 3.69777,-3.90344z" fill="#794395"/><path d="M235.36856,144.45984c0.3312,1.4543 0.3312,1.4543 -0.11835,2.41744c-0.67263,0.82278 -0.67263,0.82278 -2.12602,1.15439c0.40333,-1.70823 0.77407,-2.58067 2.24437,-3.57182z" fill="#6f348e"/><path d="M233.56524,133.85622c0.09413,0.63484 0.18825,1.26968 0.28522,1.92376c-2.74927,0.26393 -2.74927,0.26393 -3.7531,-0.36758c1.1444,-0.51355 2.28879,-1.02709 3.46788,-1.55619z" fill="#69417e"/><path d="M213.59494,139.48363c0.29447,0.18523 0.58892,0.37049 0.8923,0.56134c-0.41162,0.87798 -0.41162,0.87798 -1.12219,1.78592c-1.26597,0.23147 -1.26597,0.23147 -2.39166,0.23971c0.86511,-0.85371 1.73022,-1.7074 2.62155,-2.58697z" fill="#15091b"/><path d="M215.98661,139.24391c0.44928,0.20041 0.89854,0.40082 1.36144,0.60729c-0.89283,0.6531 -0.89283,0.6531 -2.01448,1.22456c-1.04119,-0.25009 -1.04119,-0.25009 -1.83057,-0.65324c1.15672,-0.62726 1.15672,-0.62726 2.48363,-1.17862z" fill="#0b040f"/><path d="M216.29826,107.04549c0.29447,0.18523 0.58892,0.3705 0.8923,0.56135c-0.86511,0.85371 -1.73023,1.7074 -2.62155,2.58697c-0.1093,-0.4799 -0.2186,-0.95984 -0.3312,-1.45429c0.67996,-0.55903 1.35991,-1.11806 2.06046,-1.69403z" fill="#010001"/><path d="M281.31848,207.2566c0.27929,0.34017 0.55858,0.68034 0.84632,1.03081c-0.30964,-0.03033 -0.61927,-0.06065 -0.93828,-0.09189c0.03035,-0.30985 0.06069,-0.61969 0.09196,-0.93892z" fill="#000000"/><path d="M194.36111,161.77159c0.89229,0.56135 0.89229,0.56135 0.89229,0.56135z" fill="#000000"/></g></g></svg>