<svg version="1.1" xmlns="http://www.w3.org/2000/svg" xmlns:xlink="http://www.w3.org/1999/xlink" width="35.87544" height="28.72621" viewBox="0,0,35.87544,28.72621"><g transform="translate(-222.06228,-165.6369)"><g data-paper-data="{&quot;isPaintingLayer&quot;:true}" fill-rule="nonzero" stroke-linecap="butt" stroke-linejoin="miter" stroke-miterlimit="10" stroke-dasharray="" stroke-dashoffset="0" style="mix-blend-mode: normal"><path d="M227.67818,168.58499c5.26653,-4.31655 14.14283,-3.86101 18.80617,1.1567c0.08483,0.09448 0.16717,0.18619 0.24951,0.27789c0.57372,0.5991 1.15139,1.17944 1.58744,1.8887c0.74077,1.29406 1.73628,2.11677 2.8898,3.03287c0.63548,-0.52921 1.02636,-0.83939 1.88767,-0.78123c0.11932,0.01208 0.23514,0.02382 0.35095,0.03554c0.47731,0.03318 0.95433,0.06701 1.4312,0.10603c0.17304,0.01466 0.34099,0.02888 0.50894,0.04311c0.59701,0.04922 1.194,0.09863 1.7909,0.14914c0.13643,0.50292 0.19126,0.99259 0.23059,1.51246c0.01308,0.1847 0.01308,0.1847 0.02591,0.36575c0.02949,0.40085 0.05862,0.80171 0.08692,1.20265c0.01499,0.21407 0.01499,0.21407 0.02968,0.42389c0.12477,1.75946 0.24307,3.51855 0.31568,5.28102c0.00684,0.1852 0.01347,0.36496 0.02011,0.54471c0.02174,0.56794 0.05685,1.13755 0.03731,1.70577c-0.14924,0.14914 -0.14924,0.14914 -0.51768,0.16895c-0.15382,-0.00039 -0.3031,-0.00078 -0.45239,-0.00116c-0.27368,0.0007 -0.54755,-0.00395 -0.82083,-0.01864c-0.05074,-0.05071 -0.09999,-0.09992 -0.14924,-0.14914c-0.4089,-0.02078 -0.78777,-0.03238 -1.19393,0c-0.70302,0.24436 -1.29237,0.37718 -2.0375,0.36819c-0.4152,-0.08284 -0.54974,-0.19501 -0.81675,-0.51732c-0.09514,-0.15213 -0.18749,-0.29977 -0.27983,-0.44742c-0.46135,0.62002 -0.96436,1.08925 -1.56703,1.57528c-0.71056,0.55949 -1.34686,1.11867 -1.897,1.84035c-0.53578,0.75093 -1.04042,1.46003 -1.77049,2.03027c-0.09771,0.07527 -0.19256,0.14833 -0.2874,0.22138c-0.39765,0.34115 -0.79593,0.6794 -1.20326,1.00902c-3.05244,2.32021 -6.91513,3.11259 -10.68009,2.6076c-3.78958,-0.67708 -7.32023,-2.64467 -9.55437,-5.83971c-0.06878,-0.10617 -0.13554,-0.20922 -0.2023,-0.31226c-1.5001,-2.28824 -2.27006,-4.74137 -2.42983,-7.46625c-0.08705,-3.65355 1.01783,-7.40632 3.58238,-10.09598c0.17164,-0.16887 0.17164,-0.16887 0.33988,-0.3344c0.54639,-0.54734 1.10162,-1.08003 1.68888,-1.58372z" data-paper-data="{&quot;index&quot;:null}" fill="#f7a1a1" stroke="none" stroke-width="1"/><path d="M252.2383,174.39122c0.39701,-0.24595 0.39701,-0.24595 1.65557,-0.16836c0.15622,0.01288 0.30784,0.02537 0.45946,0.03787c0.25319,0.02059 0.25319,0.0206 0.50136,0.04078c0.17562,0.01466 0.34607,0.02888 0.51652,0.04311c0.60321,0.04934 1.20641,0.09884 1.80955,0.14914c0.13643,0.50293 0.19126,0.99259 0.23059,1.51246c0.0088,0.12436 0.01736,0.24505 0.02591,0.36575c0.02949,0.40085 0.05862,0.80171 0.08692,1.20265c0.01009,0.14413 0.01989,0.28401 0.02968,0.42389c0.12477,1.75946 0.24307,3.51855 0.31568,5.28102c0.00684,0.1852 0.01347,0.36496 0.02011,0.54471c0.02174,0.56794 0.05685,1.13755 0.03731,1.70577c-0.14924,0.14914 -0.14924,0.14914 -0.51768,0.16895c-0.15382,-0.00039 -0.3031,-0.00078 -0.45239,-0.00116c-0.27368,0.0007 -0.54755,-0.00395 -0.82083,-0.01864c-0.07537,-0.07531 -0.07537,-0.07532 -0.14924,-0.14914c-0.4089,-0.02078 -0.78777,-0.03238 -1.19393,0c-0.81235,0.28236 -1.52728,0.40346 -2.38786,0.29828c-0.32576,-0.32554 -0.53241,-0.63701 -0.74621,-1.04397c0.05075,-0.10142 0.1,-0.19985 0.14925,-0.29828c0.79689,-1.52083 1.40241,-2.76613 1.36125,-4.52484c-0.00614,-0.13489 -0.01211,-0.26581 -0.01807,-0.39673c-0.04516,-1.0692 -0.34951,-2.08812 -0.94617,-2.9851c-0.37635,-0.50146 -0.63766,-0.85341 -0.69549,-1.48905c0.067,-0.06655 0.13203,-0.13116 0.19705,-0.19575c0.09157,-0.08557 0.18045,-0.16862 0.26933,-0.25167c0.08919,-0.08556 0.17577,-0.16862 0.26234,-0.25167z" data-paper-data="{&quot;index&quot;:null}" fill="#38333a" stroke="none" stroke-width="1"/><path d="M252.10655,184.18777c0.05074,0.30424 0.09999,0.59954 0.14924,0.89483c0.9641,0.05071 1.89984,0.09992 2.83559,0.14914c0,0.05071 0,0.09992 0,0.14914c-0.89707,0.39842 -1.70008,0.58848 -2.68634,0.44742c-0.32182,-0.32159 -0.51905,-0.65188 -0.74621,-1.04397c0.15223,-0.20283 0.29998,-0.39969 0.44773,-0.59655z" data-paper-data="{&quot;index&quot;:null}" fill="#4d484f" stroke="none" stroke-width="1"/><path d="M249.86794,173.74808c0.45667,0.40566 0.89992,0.79939 1.34317,1.19311c0.47913,-0.35911 0.79845,-0.54912 1.34317,-0.74569c-0.36549,0.33714 -0.69429,0.59437 -0.85814,1.07193c-0.03731,0.27032 -0.03732,0.27032 -0.18656,0.56859c-0.65964,-0.65919 -1.29989,-1.299 -1.94013,-1.9388c0.10148,-0.05071 0.19998,-0.09992 0.29848,-0.14914z" data-paper-data="{&quot;index&quot;:null}" fill="#ded175" stroke="none" stroke-width="1"/><path d="M257.93222,184.47615c0.00139,0.12697 0.00273,0.2502 0.00408,0.37343c0.00319,0.22681 0.00139,0.45386 -0.00933,0.68044c-0.14924,0.14914 -0.14924,0.14915 -0.49028,0.16371c-0.14093,-0.00178 -0.27771,-0.00351 -0.4145,-0.00524c-0.24563,-0.00241 -0.49127,-0.00531 -0.73688,-0.00932c0.05074,-0.15213 0.1,-0.29977 0.14925,-0.44742c0.45668,0 0.89992,0 1.34317,0c0,-0.35495 0,-0.69946 0,-1.04397c0.05074,0 0.09999,0 0.14924,0c0.00179,0.09805 0.00352,0.19321 0.00525,0.28837z" data-paper-data="{&quot;index&quot;:null}" fill="#6e6583" stroke="none" stroke-width="1"/><path d="M252.32108,185.22242c0.43356,0.01057 0.4365,0.1439 0.84007,0.20565c0.12666,0.01248 0.24959,0.02459 0.37252,0.0367c0.18872,0.01912 0.18871,0.01912 0.37369,0.03787c0.14573,0.01383 0.14573,0.01383 0.28857,0.02738c-0.29848,0.29828 -0.29848,0.29828 -0.63835,0.34838c-0.13499,0.00198 -0.266,0.00391 -0.39701,0.00583c-0.39584,0.01281 -0.39584,0.01281 -0.75553,-0.05593c-0.27108,-0.30177 -0.27108,-0.30177 -0.44772,-0.59655c0.1837,-0.00471 0.1837,-0.00471 0.36377,-0.00932z" data-paper-data="{&quot;index&quot;:null}" fill="#8c878b" stroke="none" stroke-width="1"/><path d="M252.2558,185.23175c-0.15222,0 -0.29997,0 -0.44772,0c-0.05075,-0.15213 -0.1,-0.29977 -0.14925,-0.44742c0.21454,-0.32624 0.21454,-0.32624 0.44773,-0.59655c0.05074,0.35495 0.09999,0.69946 0.14924,1.04397z" data-paper-data="{&quot;index&quot;:null}" fill="#605b55" stroke="none" stroke-width="1"/><path d="M252.03148,174.48601c0.39031,-0.2418 0.39031,-0.2418 1.6276,-0.16552c0.15357,0.01266 0.30263,0.02495 0.45169,0.03723c0.2489,0.02025 0.2489,0.02025 0.49288,0.04009c0.17265,0.01441 0.34022,0.02839 0.50779,0.04238c0.59301,0.04851 1.18602,0.09716 1.77897,0.14662c0.13413,0.49443 0.18804,0.97582 0.2267,1.48691c0.00866,0.12226 0.01708,0.24091 0.02548,0.35957c0.02899,0.39408 0.05763,0.78817 0.08545,1.18233c0.00993,0.14168 0.01955,0.2792 0.02918,0.41672c0.12267,1.72973 0.23897,3.45909 0.31035,5.19178c0.00672,0.18207 0.01324,0.35878 0.01977,0.5355c0.02137,0.55834 0.05589,1.11834 0.03668,1.67695c-0.14672,0.14662 -0.14672,0.14662 -0.50893,0.16609c-0.15121,-0.00038 -0.29798,-0.00076 -0.44474,-0.00114c-0.26906,0.00069 -0.53829,-0.00389 -0.80696,-0.01833c-0.0741,-0.07404 -0.0741,-0.07404 -0.14672,-0.14662c-0.402,-0.02042 -0.77446,-0.03183 -1.17376,0c-0.79862,0.27758 -1.50147,0.39663 -2.34751,0.29323c-0.32026,-0.32003 -0.52341,-0.62625 -0.7336,-1.02633c0.04988,-0.0997 0.0983,-0.19646 0.14672,-0.29323c0.78342,-1.49513 1.3787,-2.71939 1.33824,-4.44838c-0.00604,-0.13261 -0.01191,-0.26132 -0.01777,-0.39003c-0.04439,-1.05114 -0.3436,-2.05284 -0.93018,-2.93466c-0.37,-0.49298 -0.62689,-0.83899 -0.68374,-1.46389c0.06587,-0.06543 0.12979,-0.12894 0.19372,-0.19244c0.09003,-0.08412 0.1774,-0.16577 0.26478,-0.24742c0.08769,-0.08412 0.1728,-0.16578 0.25791,-0.24742z" data-paper-data="{&quot;index&quot;:null}" fill="#000000" stroke="none" stroke-width="1"/><path d="M243.40772,181.8501v-4h10.75v4z" fill="none" stroke="#000000" stroke-width="0.5"/></g></g></svg>