<svg version="1.1" xmlns="http://www.w3.org/2000/svg" xmlns:xlink="http://www.w3.org/1999/xlink" width="86.39638" height="128.53446" viewBox="0,0,86.39638,128.53446"><g transform="translate(-198.42921,-68.11615)"><g data-paper-data="{&quot;isPaintingLayer&quot;:true}" fill-rule="nonzero" stroke="none" stroke-width="1" stroke-linecap="butt" stroke-linejoin="miter" stroke-miterlimit="10" stroke-dasharray="" stroke-dashoffset="0" style="mix-blend-mode: normal"><path d="M241.5001,79.18672c1.54553,1.09853 3.06906,2.22237 4.58124,3.36638c0.41342,0.30879 0.41342,0.30879 0.83517,0.62383c0.67276,0.51593 1.3208,1.06392 1.96365,1.61674c0,0.31131 0,0.62263 0,0.94339c2.16306,-0.591 2.16306,-0.591 4.28113,-1.32112c3.09433,-1.17719 6.38959,-1.86124 9.5639,-0.58963c1.86902,1.08786 3.34131,2.17998 4.06754,4.26924c0.54675,3.5564 -0.29126,6.54904 -1.51819,9.84555c-0.58322,1.5683 -0.83874,2.59886 -0.83874,4.30539c0.94372,0.75549 1.83594,1.37486 2.85776,2.00472c5.36575,3.52216 8.9523,8.50565 11.28372,14.50472c1.33096,3.15432 2.86157,6.19411 4.43762,9.23128c1.38391,2.99477 1.84949,5.61971 1.8082,8.87014c-0.00214,0.35115 -0.0043,0.70229 -0.00656,1.06408c-0.10373,6.29868 -0.10373,6.29868 -1.52542,7.7213c-1.05157,4.29969 -1.04346,8.57291 -0.97223,12.97169c0.01724,1.25295 0.03043,2.50581 0.04236,3.75884c0.00845,0.54694 0.01694,1.09389 0.02567,1.65739c-0.03857,1.42339 -0.03857,1.42339 -0.28946,2.3691c-0.32098,1.37006 -0.13458,2.58893 0.00967,3.98502c0.09161,0.89108 0.09161,0.89108 0.18506,1.80019c0.03354,0.30867 0.06708,0.61732 0.10162,0.93533c0.10077,0.9321 0.19476,1.86491 0.28876,2.79772c0.32059,3.0406 0.71649,5.93425 1.5513,8.87567c0.26517,1.47405 0.26517,1.47405 0,2.83019c-1.90851,2.44095 -4.56766,3.61809 -7.54211,4.24529c-0.62222,0 -1.24445,0 -1.88553,0c0,0.31131 0,0.62263 0,0.94339c-7.33646,2.06038 -14.57767,2.81969 -22.17154,3.18581c-1.34305,-0.0401 -1.34305,-0.0401 -1.86896,0.58778c-0.73044,0.04669 -1.46295,0.06169 -2.19488,0.06265c-0.66446,0.0009 -0.66446,0.0009 -1.34235,0.00183c-0.6991,-0.00273 -0.6991,-0.00273 -1.41229,-0.00552c-0.46606,0.00182 -0.93213,0.00365 -1.41232,0.00552c-0.44296,-0.00061 -0.88592,-0.00122 -1.34232,-0.00183c-0.40924,-0.00055 -0.81851,-0.00107 -1.24014,-0.00162c-0.95474,-0.06104 -0.95474,-0.06104 -1.42612,-0.53275c-0.69507,-0.0576 -1.39267,-0.08481 -2.08994,-0.09949c-0.44601,-0.01247 -0.89209,-0.02493 -1.35165,-0.03778c-0.73184,-0.01959 -0.73184,-0.01959 -1.47848,-0.03961c-4.81885,-0.16026 -9.55777,-0.60158 -14.34103,-1.19537c-3.40619,-0.42105 -6.78915,-0.72468 -10.21689,-0.88673c-1.1619,-0.0995 -1.1619,-0.0995 -1.63327,-0.5712c-0.05832,-1.29478 -0.0878,-2.57945 -0.09943,-3.87492c-0.01328,-0.81964 -0.02679,-1.63928 -0.0405,-2.45891c-0.01916,-1.28607 -0.03659,-2.57208 -0.04929,-3.85823c0.18677,-9.30408 0.18677,-9.30408 -2.18808,-18.1256c-0.68387,-1.4066 -0.73425,-2.88037 -0.87268,-4.41745c-0.07175,-0.69039 -0.14386,-1.38075 -0.21634,-2.07105c-0.10971,-1.08124 -0.21631,-2.16254 -0.31592,-3.24477c-0.09827,-1.04958 -0.20926,-2.09719 -0.32211,-3.14526c-0.02612,-0.31996 -0.05225,-0.63992 -0.07916,-0.96958c-0.28955,-2.56084 -1.19211,-3.6561 -2.88724,-5.47573c-3.63422,-6.39494 -4.74039,-13.17265 -2.92773,-20.33829c0.4443,-1.27597 0.95242,-2.48978 1.51358,-3.71832c0.23062,-0.57734 0.23062,-0.57734 0.46588,-1.16634c1.86334,-4.27839 5.23654,-7.37659 8.49039,-10.6261c-0.34695,-0.46698 -0.69391,-0.93398 -1.05139,-1.4151c-1.18118,-1.5947 -2.3504,-3.19775 -3.51328,-4.80589c-0.49084,-0.67593 -0.98898,-1.3466 -1.48965,-2.0153c-1.57016,-2.23807 -1.94598,-4.1472 -1.48779,-6.85805c0.90796,-2.48657 2.2933,-4.40224 4.66779,-5.66591c4.35394,-1.74115 8.58987,-0.77045 12.77338,0.94893c0.62222,0 1.24445,0 1.88553,0c0.22241,-0.75977 0.22241,-0.75977 0.44928,-1.53487c0.20355,-0.67752 0.40735,-1.35496 0.61133,-2.03235c0.09662,-0.33231 0.19324,-0.6646 0.29278,-1.00697c1.00256,-3.29858 2.08228,-6.11986 5.24597,-7.86685c0.39862,-0.22742 0.79721,-0.45483 1.20792,-0.68912c4.71048,-2.25107 8.17014,-0.3747 12.15283,2.33453z" fill="#100812"/><path d="M264.4358,105.54839c2.21921,1.70717 4.19546,3.63979 6.12799,5.66037c0.36701,0.37457 0.73404,0.74912 1.11215,1.13503c2.18753,2.34659 2.18753,2.34659 2.18753,4.52535c-1.8667,-0.31132 -3.73337,-0.62264 -5.65662,-0.9434c0,0.46698 0,0.93397 0,1.4151c0.54446,-0.04864 1.0889,-0.09728 1.64984,-0.14741c2.36597,-0.01268 4.1315,0.95949 5.8923,2.5059c0,0.31132 0,0.62264 0,0.9434c-0.62225,-0.15565 -1.24448,-0.31133 -1.88553,-0.4717c1.81357,2.60496 1.81357,2.60496 4.12457,4.74647c1.42593,1.22869 1.62158,2.40961 2.00339,4.2158c-0.71457,0.23349 -0.71457,0.23349 -1.4436,0.4717c-2.26996,0.96689 -3.78586,2.69946 -5.15576,4.71698c-0.43094,1.36962 -0.52707,2.60025 -0.51739,4.03154c0.00153,0.39827 0.00305,0.79654 0.00458,1.20689c0.00397,0.41164 0.00793,0.8233 0.01199,1.24742c0.00317,0.62842 0.00317,0.62842 0.00644,1.26953c0.00555,1.03127 0.01327,2.06245 0.02301,3.09367c0.3111,0 0.62222,0 0.94278,0c0.64014,0.80971 1.17764,1.66597 1.73636,2.53354c0.62061,0.90964 0.62061,0.90964 2.0347,1.24005c-0.34674,2.16721 -1.49246,3.04418 -3.13211,4.39453c-4.17136,2.98351 -8.68655,3.29866 -13.67197,2.47457c-3.75494,-1.02593 -5.82996,-3.65784 -7.85513,-6.83962c-2.82797,-5.04095 -2.92151,-10.72483 -1.59091,-16.30307c0.58142,-2.05028 1.29269,-3.97382 2.20959,-5.89623c-0.46667,0 -0.93332,0 -1.41415,0c-0.31497,0.78587 -0.62906,1.57211 -0.94275,2.35849c-0.24155,0.58738 -0.24155,0.58738 -0.48795,1.18662c-1.55774,4.14881 -1.76523,8.11176 -1.86899,12.49263c-0.15555,-0.31133 -0.3111,-0.62264 -0.47137,-0.9434c-0.3111,0 -0.62222,0 -0.94275,0c-0.15558,-0.31132 -0.3111,-0.62264 -0.47141,-0.9434c-0.15555,1.08962 -0.3111,2.17925 -0.47138,3.30189c-0.62222,0.15567 -1.24445,0.31133 -1.88553,0.4717c0,2.02359 0,4.04718 0,6.13207c0.93332,-0.15567 1.8667,-0.31132 2.82831,-0.47169c0.15555,-0.7783 0.3111,-1.5566 0.47137,-2.35849c1.32254,0.1665 1.79306,0.3629 2.67178,1.39667c0.23639,0.37577 0.47272,0.75155 0.71628,1.13871c0.24002,0.37334 0.48004,0.74669 0.72732,1.13133c0.59845,1.05027 0.59845,1.05027 1.06982,2.46536c-7.55344,0.26818 -14.1749,-1.02838 -21.21222,-3.77358c0.53809,-1.6154 0.99683,-1.94026 2.29797,-2.97759c1.62338,-1.36829 2.57419,-2.55807 3.35861,-4.56958c-0.46668,0 -0.93332,0 -1.41415,0c0.24457,-1.95775 0.96802,-3.41647 1.91501,-5.11314c1.16003,-2.67472 0.99954,-5.61529 1.00168,-8.47766c0.0058,-0.40163 0.01154,-0.80324 0.01749,-1.21702c0.00629,-2.74935 -0.36752,-5.1694 -1.04865,-7.83369c-0.3111,0 -0.62222,0 -0.94275,0c0.15192,0.52779 0.3038,1.05558 0.46033,1.59935c1.69788,6.83817 0.64871,13.76448 -2.78778,19.83344c-1.10718,1.73229 -2.23084,3.16427 -3.80054,4.51061c-0.27585,0.23714 -0.55173,0.47427 -0.83597,0.71861c-2.24005,1.8163 -4.39743,2.79254 -7.17752,3.52668c0,0.31132 0,0.62264 0,0.9434c-4.44543,0.19868 -8.24442,0.33179 -12.25595,-1.88679c-0.39133,-0.21099 -0.78262,-0.42197 -1.18582,-0.63937c-3.68851,-2.44324 -5.76703,-6.48468 -6.8277,-10.68138c0,-0.46698 0,-0.93397 0,-1.41509c0.58792,-0.07754 0.58792,-0.07754 1.18768,-0.15662c0.51224,-0.07479 1.02447,-0.14958 1.55225,-0.22663c0.50861,-0.07114 1.01718,-0.14228 1.5412,-0.21558c1.4484,-0.36282 1.85724,-0.64906 2.78961,-1.75965c0.44724,-0.28214 0.89447,-0.56428 1.35523,-0.85496c2.49432,-1.7472 4.08377,-3.89301 5.24414,-6.69222c0.19485,-1.31296 0.20193,-2.5956 0.17676,-3.92099c-0.00375,-0.35362 -0.00751,-0.70723 -0.01138,-1.07157c-0.06845,-2.66532 -0.42709,-4.83708 -1.57953,-7.27159c-0.46664,-0.31132 -0.93332,-0.62264 -1.41412,-0.9434c0,-0.62264 0,-1.24529 0,-1.88679c0.46664,-0.15565 0.93332,-0.31133 1.41412,-0.4717c0.15558,-0.31132 0.31113,-0.62264 0.47141,-0.94339c1.81473,-0.60532 3.53098,-0.54013 5.4209,-0.53067c0.36398,-0.00182 0.72794,-0.00363 1.10294,-0.00552c1.55801,0.0027 2.83014,0.03993 4.31796,0.53619c0,0.31132 0,0.62264 0,0.94339c0.26797,0.06931 0.53595,0.13864 0.81201,0.21005c3.88126,1.1282 6.2309,3.14829 8.61563,6.39372c0.15558,-0.15565 0.3111,-0.31133 0.47138,-0.4717c-0.86575,-3.57375 -4.58456,-5.68229 -7.51633,-7.5269c-2.44617,-1.24252 -4.79694,-1.60394 -7.50897,-1.73018c-0.32449,-0.01823 -0.64896,-0.03647 -0.98328,-0.05527c-0.79163,-0.04401 -1.58344,-0.08331 -2.37534,-0.12161c0,-0.31133 0,-0.62265 0,-0.94341c7.52243,-0.57413 12.4436,1.11401 18.32684,6.11181c2.29724,2.2141 3.9332,4.65646 5.24228,7.56744c0.3111,-0.15565 0.62222,-0.31133 0.94278,-0.4717c0.3111,0.15566 0.62222,0.31133 0.94275,0.4717c-0.18774,-0.31316 -0.37552,-0.62629 -0.56897,-0.94893c-2.25931,-3.76806 -2.25931,-3.76806 -2.89642,-4.96388c-0.9559,-1.43028 -2.05432,-2.33527 -3.39911,-3.40323c-0.45755,-0.36726 -0.9151,-0.73453 -1.38653,-1.11292c-1.09662,-0.88786 -1.09662,-0.88786 -2.11939,-1.3635c0,-0.31133 0,-0.62265 0,-0.94339c-0.39862,-0.12648 -0.79724,-0.25296 -1.20792,-0.38326c-1.62036,-0.56015 -1.62036,-0.56015 -3.24075,-1.29718c-1.68952,-0.68218 -3.17343,-0.96539 -4.97897,-1.14976c-0.23334,-0.70046 -0.23334,-0.70046 -0.47137,-1.41509c11.29947,-7.98144 30.35947,-5.6955 41.48166,1.8868z" fill="#8c56a9"/><path d="M230.48844,151.12c1.01382,0.40479 2.01312,0.83553 3.01288,1.2739c6.25168,2.56345 12.22147,3.22103 18.93552,3.43052c2.25931,0.08405 4.2775,0.28852 6.46024,0.93269c4.9328,1.42645 10.23663,1.31189 14.91852,-0.84206c0.99063,-0.36668 0.99063,-0.36668 2.40479,0.10503c0.05472,2.0046 0.08826,4.00903 0.11783,6.01415c0.01581,0.56914 0.03162,1.13826 0.04788,1.72464c0.00912,0.82087 0.00912,0.82087 0.01843,1.65832c0.0148,0.75588 0.0148,0.75588 0.02991,1.52702c-0.26559,1.66252 -0.80887,2.18659 -2.09958,3.22681c-5.27203,2.91336 -13.15451,1.96378 -19.01343,1.94829c-1.14358,-0.00255 -2.28708,0 -3.43066,0.00301c-3.45633,0.00147 -6.86197,-0.05078 -10.30228,-0.42058c-2.21848,-0.21498 -4.44617,-0.25021 -6.673,-0.32199c-14.35935,-0.54601 -14.35935,-0.54601 -18.06354,-3.30742c-0.9852,-1.44955 -0.32819,-3.34772 -0.02579,-4.97678c0.68741,-3.48303 1.46417,-6.94137 2.35693,-10.37736c0.4314,-0.09668 0.86282,-0.19336 1.30734,-0.29297c0.56024,-0.12708 1.12048,-0.25416 1.69772,-0.3851c0.8367,-0.1888 0.8367,-0.1888 1.69034,-0.38141c4.63098,-1.14957 4.63098,-1.14957 6.60995,-0.53872z" fill="#c0674f"/><path d="M220.83292,109.73469c0.36398,-0.00182 0.72794,-0.00363 1.10294,-0.00552c1.55801,0.0027 2.83014,0.03993 4.31796,0.53619c0,0.31132 0,0.62264 0,0.94339c0.26797,0.06931 0.53595,0.13864 0.81201,0.21005c4.11063,1.19487 6.3927,3.21774 8.61563,6.86543c2.47626,5.76649 3.20279,13.76382 0.96487,19.73209c-1.47946,3.06588 -3.06918,5.85988 -5.67871,8.0981c-0.27585,0.23714 -0.55173,0.47427 -0.83597,0.71861c-2.24005,1.8163 -4.39743,2.79254 -7.17752,3.52668c0,0.31132 0,0.62264 0,0.9434c-4.44543,0.19868 -8.24438,0.33179 -12.25595,-1.88679c-0.39133,-0.21099 -0.78265,-0.42197 -1.18582,-0.63937c-3.68851,-2.44324 -5.767,-6.48468 -6.8277,-10.68138c0,-0.46698 0,-0.93397 0,-1.41509c0.39194,-0.05168 0.78388,-0.10337 1.18768,-0.15662c0.51224,-0.07479 1.02447,-0.14958 1.55225,-0.22663c0.50858,-0.07114 1.01718,-0.14228 1.5412,-0.21558c1.4484,-0.36282 1.85724,-0.64906 2.78961,-1.75965c0.44724,-0.28214 0.89447,-0.56428 1.35523,-0.85496c2.49432,-1.7472 4.08377,-3.89301 5.24414,-6.69222c0.19485,-1.31296 0.20193,-2.5956 0.17676,-3.92099c-0.00375,-0.35362 -0.00751,-0.70723 -0.01138,-1.07157c-0.06845,-2.66532 -0.42709,-4.83708 -1.57953,-7.27159c-0.46664,-0.31132 -0.93332,-0.62264 -1.41412,-0.9434c0,-0.62264 0,-1.24529 0,-1.88679c0.46664,-0.15565 0.93332,-0.31133 1.41412,-0.4717c0.15558,-0.31132 0.3111,-0.62264 0.47141,-0.94339c1.81473,-0.60532 3.53098,-0.54013 5.4209,-0.53067z" fill="#fbd7f3"/><path d="M273.86347,121.58611c5.25589,3.59968 5.25589,3.59968 5.98065,6.16156c0.07291,0.68588 0.07291,0.68588 0.14731,1.38561c-0.47638,0.15565 -0.95279,0.31133 -1.4436,0.4717c-2.26996,0.96689 -3.78586,2.69946 -5.15576,4.71698c-0.43094,1.36962 -0.52707,2.60025 -0.51739,4.03154c0.00153,0.39827 0.00305,0.79654 0.00458,1.20689c0.00397,0.41164 0.00793,0.8233 0.01199,1.24742c0.00211,0.41894 0.00424,0.83789 0.00644,1.26953c0.00555,1.03127 0.01327,2.06245 0.02301,3.09367c0.3111,0 0.62222,0 0.94278,0c0.64014,0.80971 1.17764,1.66597 1.73636,2.53354c0.62061,0.90964 0.62061,0.90964 2.0347,1.24005c-0.34674,2.16721 -1.49246,3.04418 -3.13211,4.39453c-4.17136,2.98351 -8.68655,3.29866 -13.67197,2.47457c-3.75494,-1.02593 -5.82996,-3.65784 -7.85513,-6.83962c-3.11032,-5.54418 -2.80127,-11.73008 -1.24292,-17.76975c0.47302,-1.19205 0.96091,-1.6623 1.8616,-2.54275c0.14645,-0.37395 0.29288,-0.7479 0.44376,-1.13319c1.09488,-2.68851 3.47168,-4.74781 5.95859,-6.1634c4.27954,-1.75559 9.77383,-2.2568 13.86713,0.22111z" fill="#fbd7f3"/><path d="M236.15284,79.13329c0,0.31133 0,0.62265 0,0.94339c0.4375,0.12648 0.87503,0.25296 1.32577,0.38326c1.4501,0.54062 1.89533,0.90677 2.91669,1.97525c0.29166,0.05837 0.58331,0.11673 0.88382,0.17688c1.52563,0.44901 2.2688,1.51204 3.35861,2.65331c2.32907,2.36353 2.32907,2.36353 5.31595,3.29451c0.6207,-0.05473 0.6207,-0.05473 1.25394,-0.11055c0.4126,-0.03162 0.8252,-0.06323 1.25027,-0.09581c1.16248,-0.15219 1.16248,-0.15219 1.80451,-0.97289c1.45285,-1.36407 3.52051,-0.9427 5.4025,-0.88812c1.47122,0.18794 1.47122,0.18794 3.03268,1.07239c1.17349,2.17454 1.25116,3.77141 0.79547,6.19102c-0.77005,2.42693 -1.78903,4.75413 -2.82831,7.07549c-3.5943,-0.41273 -3.5943,-0.41273 -5.18521,-0.94341c0,-0.31133 0,-0.62264 0,-0.94339c-0.90417,-0.08756 -0.90417,-0.08756 -1.8266,-0.1769c-1.52765,-0.16252 -2.96063,-0.42174 -4.44867,-0.79599c-8.11322,-1.68188 -17.42426,-0.66299 -24.83597,2.85968c-0.7952,0.33478 -1.59061,0.66896 -2.38638,1.00235c-1.39465,0.58734 -2.21893,1.2211 -3.27023,2.29953c-0.35971,0.12648 -0.71942,0.25295 -1.09006,0.38326c-1.52359,0.67366 -2.32974,1.57051 -3.4212,2.8044c-0.67392,0.58594 -0.67392,0.58594 -2.08807,0.58594c-0.82492,-1.12029 -0.82492,-1.12029 -1.30368,-1.89601c-0.70691,-1.13493 -1.46564,-2.22636 -2.23169,-3.32216c-0.42294,-0.61291 -0.42294,-0.61291 -0.8544,-1.2382c-0.8042,-1.15706 -0.8042,-1.15706 -1.97391,-2.29953c-0.95819,-1.55809 -0.76395,-2.63789 -0.54318,-4.4111c0.36755,-1.17607 0.74551,-1.65459 1.72165,-2.39903c2.82858,-1.02657 6.32581,-0.72865 9.19196,0c2.41623,0.59792 4.83459,0.87909 7.30643,0.4717c1.05731,-0.97717 1.05731,-0.97717 1.41415,-2.35849c0.24793,-0.51077 0.24793,-0.51077 0.50086,-1.03185c0.40759,-1.22362 0.634,-2.35869 0.85437,-3.62617c0.50064,-2.66399 1.4126,-4.71542 3.35861,-6.66273c1.92355,-0.74033 4.76819,-0.91618 6.59933,0z" fill="#e73ba8"/><path d="M278.1059,152.24649c0.3111,0 0.62222,0 0.94278,0c0.00726,0.40978 0.00726,0.40978 0.01471,0.82782c0.05127,2.86224 0.10528,5.72441 0.16077,8.58657c0.02033,1.06591 0.03998,2.13183 0.05893,3.19778c0.0275,1.53867 0.05743,3.07727 0.0878,4.61588c0.0079,0.4709 0.01578,0.94182 0.02389,1.42699c0.05347,2.57529 0.20065,5.11214 0.48782,7.67229c0.16736,1.5855 0.22467,3.15123 0.25613,4.7458c0.02643,0.88837 0.02643,0.88837 0.05341,1.79466c-0.20071,1.56618 -0.20071,1.56618 -0.85071,2.61461c-1.88525,1.27922 -3.89481,1.87326 -6.0672,2.5188c-0.4798,0.14327 -0.95953,0.28653 -1.45386,0.43414c-8.85806,2.51511 -18.02618,2.85191 -27.18265,3.0741c0.49908,-1.60525 0.94702,-2.83656 1.88553,-4.24527c0.21347,-0.61343 0.40814,-1.23355 0.58923,-1.85731c0.72034,-2.27643 1.78018,-4.2823 2.94614,-6.36055c1.05606,-2.52087 1.5614,-5.15094 2.12122,-7.81988c0.49872,-0.00687 0.99744,-0.01376 1.51129,-0.02084c1.87671,-0.02765 3.75317,-0.06406 5.62967,-0.10294c0.80722,-0.01556 1.6145,-0.02881 2.42181,-0.03963c4.72434,-0.06493 8.97708,-0.35738 13.53497,-1.72337c0.78393,-0.16556 1.56921,-0.32529 2.35693,-0.47171c0.01166,-2.17364 0.0202,-4.34727 0.02588,-6.52097c0.00238,-0.73887 0.00558,-1.47774 0.00967,-2.21661c0.00577,-1.06435 0.00839,-2.12868 0.01047,-3.19306c0.00244,-0.32831 0.00485,-0.65663 0.00735,-0.9949c0.00018,-1.38131 -0.05237,-2.63594 -0.35086,-3.98799c-0.0574,-0.33363 -0.11478,-0.66725 -0.17392,-1.01099c0.31113,-0.31132 0.62225,-0.62264 0.94278,-0.9434z" fill="#8d58a9"/><path d="M207.3985,149.41631c0.46668,0.15565 0.93332,0.31132 1.41415,0.47169c0,0.31132 0,0.62265 0,0.9434c2.79678,0.99244 5.57541,1.77345 8.48489,2.35849c-0.40686,3.0127 -0.84427,5.95464 -1.70877,8.87383c-0.62186,2.21501 -1.00372,3.92744 -0.64816,6.22053c1.88858,2.17331 3.78671,2.83432 6.59937,3.30188c0.42169,0.08148 0.84341,0.16295 1.27789,0.2469c5.80298,0.9893 11.70566,1.00517 17.57742,1.1682c-0.72476,1.52275 -1.51599,2.5777 -2.681,3.80306c-4.07425,4.50534 -7.41251,10.01671 -8.6322,16.00826c-3.99902,0.27182 -7.70783,-0.17462 -11.63724,-0.88443c-0.46219,-0.08194 -0.92441,-0.16388 -1.40057,-0.24829c-3.3392,-0.63261 -3.3392,-0.63261 -4.40335,-1.69746c-0.13648,-0.8558 -0.13648,-0.8558 -0.16363,-1.90591c-0.01273,-0.39444 -0.02542,-0.78889 -0.03854,-1.1953c-0.00986,-0.42984 -0.01968,-0.85966 -0.02982,-1.30254c-0.03113,-0.92129 -0.06244,-1.84258 -0.0939,-2.76385c-0.0441,-1.4433 -0.08582,-2.88658 -0.1236,-4.33003c-0.17139,-6.24379 -0.75619,-12.13339 -2.16519,-18.22401c-0.81631,-3.58751 -1.3259,-7.18005 -1.62775,-10.84439z" fill="#8d58a9"/><path d="M217.76893,106.96347c7.52246,-0.57413 12.4436,1.11401 18.32684,6.11181c2.29724,2.2141 3.9332,4.65646 5.24228,7.56744c0.3111,-0.15565 0.62222,-0.31133 0.94278,-0.4717c1.6182,0.53976 1.71433,0.72992 2.44528,2.1816c0.90054,1.89824 1.0274,3.28783 0.8544,5.36557c1.59662,-0.93649 3.11957,-1.93108 4.62543,-3.00708c3.09183,-2.16938 5.82257,-4.05373 9.45895,-5.15735c1.35126,-0.44075 2.57913,-1.06824 3.82816,-1.74123c-3.37512,0.11259 -5.66663,1.04259 -8.62668,2.6533c-1.08109,0.55109 -1.97501,0.89536 -3.1579,1.12028c0.15237,-1.41039 0.25836,-2.15292 1.29629,-3.15448c1.10812,-0.64683 2.22369,-1.09769 3.41754,-1.5625c-0.39862,0.0219 -0.79724,0.04378 -1.20792,0.06634c-3.83151,0.12199 -6.52942,-0.12087 -9.49762,-2.63672c-0.60767,-0.73151 -0.60767,-0.73151 -0.60767,-2.1466c1.17432,0.21761 1.88083,0.46828 2.85776,1.17925c1.9176,0.97986 3.64938,0.97309 5.77444,1.03184c0.39404,0.01611 0.78812,0.03223 1.19412,0.04883c0.96677,0.0387 1.93387,0.06943 2.90103,0.09858c0,0.46698 0,0.93397 0,1.41509c0.53348,-0.15322 1.06702,-0.30645 1.61667,-0.46433c2.1719,-0.54166 4.22629,-0.61956 6.45575,-0.59699c0.36398,-0.00364 0.72797,-0.0073 1.10297,-0.01105c2.15296,0.00734 3.88272,0.2562 5.90884,1.07237c-0.46667,-1.40094 -0.46667,-1.40094 -0.94275,-2.83018c0.94275,0.82547 0.94275,0.82547 1.88553,1.8868c0,0.62264 0,1.24528 0,1.88679c-1.8667,-0.31132 -3.73337,-0.62264 -5.65662,-0.9434c0,0.46698 0,0.93397 0,1.4151c0.81668,-0.07297 0.81668,-0.07297 1.64984,-0.14741c2.36597,-0.01268 4.1315,0.95949 5.8923,2.5059c0,0.31132 0,0.62264 0,0.9434c-0.62225,-0.15565 -1.24448,-0.31133 -1.88553,-0.4717c0.46664,0.93397 0.46664,0.93397 0.94275,1.8868c-0.26916,-0.10215 -0.53836,-0.20431 -0.8157,-0.30955c-4.98358,-1.71252 -9.57263,-1.76193 -14.39191,0.48644c-2.86868,1.70353 -4.89508,3.7327 -6.00461,6.89858c-0.15555,-0.31133 -0.31113,-0.62264 -0.47137,-0.9434c0.15555,-0.46697 0.31113,-0.93397 0.47137,-1.41509c-0.46667,0 -0.93332,0 -1.41415,0c-0.31497,0.78587 -0.62906,1.57211 -0.94275,2.35849c-0.24155,0.58738 -0.24155,0.58738 -0.48795,1.18662c-1.55774,4.14881 -1.76523,8.11176 -1.86899,12.49263c-0.15555,-0.31133 -0.31113,-0.62264 -0.47137,-0.9434c-0.31113,0 -0.62222,0 -0.94275,0c-0.15558,-0.31132 -0.3111,-0.62264 -0.47141,-0.9434c-0.15555,1.08962 -0.3111,2.17925 -0.47138,3.30189c-0.93332,0.23349 -0.93332,0.23349 -1.88553,0.4717c0,2.02359 0,4.04718 0,6.13207c1.39999,-0.23349 1.39999,-0.23349 2.82831,-0.47169c0.15555,-0.7783 0.3111,-1.5566 0.47137,-2.35849c1.32254,0.1665 1.79306,0.3629 2.67178,1.39667c0.23639,0.37577 0.47272,0.75155 0.71628,1.13871c0.24002,0.37334 0.48004,0.74669 0.72732,1.13133c0.59845,1.05027 0.59845,1.05027 1.06982,2.46536c-7.55344,0.26818 -14.1749,-1.02838 -21.21222,-3.77358c0.53809,-1.6154 0.99683,-1.94026 2.29797,-2.97759c1.62338,-1.36829 2.57419,-2.55807 3.35861,-4.56958c-0.46668,0 -0.93332,0 -1.41415,0c0.24457,-1.95775 0.96802,-3.41647 1.91501,-5.11314c1.16003,-2.67472 0.99954,-5.61529 1.00168,-8.47766c0.00867,-0.60243 0.00867,-0.60243 0.01749,-1.21702c0.00629,-2.74935 -0.36752,-5.1694 -1.04865,-7.83369c-0.3111,0 -0.62222,0 -0.94275,0c0.23151,0.78073 0.23151,0.78073 0.46768,1.57724c0.59769,2.39232 0.58032,4.69641 0.534,7.14918c-0.00424,0.43293 -0.00851,0.86586 -0.01288,1.31191c-0.01099,1.05654 -0.02646,2.11281 -0.04605,3.16922c-0.15555,0 -0.3111,0 -0.47137,0c-0.02643,-0.82907 -0.02643,-0.82907 -0.05341,-1.6749c-0.14951,-3.79699 -0.31503,-7.31633 -1.58539,-10.9375c-0.29709,-1.28449 -0.07654,-2.1545 0.22464,-3.42534c-0.54413,-2.95587 -3.39221,-4.72031 -5.70078,-6.3624c-2.99844,-1.95607 -5.73926,-2.72781 -9.32452,-2.89468c-0.32449,-0.01823 -0.64896,-0.03647 -0.98328,-0.05527c-0.79163,-0.04401 -1.58344,-0.08331 -2.37534,-0.12161c0,-0.31133 0,-0.62265 0,-0.94341z" fill="#150b1b"/><path d="M234.28757,156.20802c8.80762,2.96448 18.10861,3.59411 27.31995,4.05734c0.94156,0.05225 1.88312,0.10505 2.82462,0.15846c2.04349,0.11391 4.08722,0.2175 6.13165,0.31324c1.06967,2.33279 0.89157,3.6513 0.47138,6.13208c-2.08154,0.79617 -3.79913,1.0607 -6.02289,1.05798c-0.45947,0.00133 -0.45947,0.00133 -0.92816,0.0027c-1.00668,0.00174 -2.01315,-0.00328 -3.01981,-0.00859c-0.70825,-0.00055 -1.4165,-0.00076 -2.12472,-0.00066c-1.48468,-0.00073 -2.96933,-0.00462 -4.45401,-0.01097c-1.88254,-0.00793 -3.76502,-0.00981 -5.64758,-0.00946c-1.46448,-0.00012 -2.92899,-0.00275 -4.39349,-0.00613c-0.69275,-0.00146 -1.38553,-0.00243 -2.07831,-0.00278c-15.41855,-0.01651 -15.41855,-0.01651 -19.44153,-3.0563c-0.9133,-1.26769 -0.9133,-1.26769 -1.20792,-2.59434c0.49048,-2.50299 1.49429,-4.46915 3.62009,-5.95335c3.24588,-1.62403 5.64023,-1.25822 8.95074,-0.07923z" fill="#050303"/><path d="M235.96503,82.06297c3.4386,1.13204 6.73505,3.93829 8.6727,6.97597c0.383,1.82784 0.383,1.82784 0.47137,3.3019c-1.5159,1.01128 -1.9989,1.07213 -3.75449,1.12212c-0.4548,0.01611 -0.90964,0.03224 -1.37824,0.04883c-0.47427,0.01247 -0.94852,0.02493 -1.43716,0.03778c-0.93729,0.02835 -1.87454,0.05838 -2.81174,0.09029c-0.62335,0.01692 -0.62335,0.01692 -1.25934,0.03419c-1.06644,0.07636 -2.00421,0.25798 -3.02911,0.55359c0,0.46696 0,0.93396 0,1.41509c-1.66348,0.98517 -3.2724,1.90381 -5.06738,2.62383c-1.36404,0.60373 -1.97888,1.02338 -2.94614,2.09315c-0.3111,0 -0.62222,0 -0.94275,0c0,0.31133 0,0.62265 0,0.94341c-2.42691,2.35515 -5.26318,2.71343 -8.50699,2.99417c-1.39206,-0.16399 -1.39206,-0.16399 -2.44897,-0.96365c-0.84949,-1.11447 -1.41748,-2.12051 -1.94815,-3.41614c-0.16891,-0.3934 -0.33786,-0.7868 -0.5119,-1.19214c-0.32205,-1.5157 -0.07526,-2.22232 0.68866,-3.55432c1.47617,-0.49239 2.46817,-0.51062 4.01413,-0.48828c0.76834,-0.00411 0.76834,-0.00411 1.55225,-0.00829c1.07416,-0.00305 2.14844,0.00661 3.22235,0.02948c2.92731,-0.00832 2.92731,-0.00832 5.4819,-1.27115c1.40518,-1.56949 2.39368,-3.22937 3.34732,-5.10138c1.74204,-3.27567 4.56689,-6.64999 8.59167,-6.26843z" fill="#fd47d3"/><path d="M264.4358,105.54839c2.19861,1.72736 4.17761,3.6613 6.12799,5.66037c0.2771,0.26936 0.55414,0.53874 0.83963,0.81626c1.1687,1.21822 1.51727,2.22601 1.51727,3.90072c-0.94275,-0.47169 -0.94275,-0.47169 -1.97391,-1.53301c-1.22531,-1.19888 -2.4357,-2.13139 -3.84839,-3.08446c-0.77707,-0.5712 -0.77707,-0.5712 -1.43811,-1.2769c-4.56253,-4.29768 -12.97412,-5.54895 -18.94919,-5.50375c-3.86505,0.18671 -7.69049,0.84531 -11.50101,1.49248c-0.15558,1.08961 -0.3111,2.17924 -0.47141,3.30188c-0.62222,-0.15565 -1.24445,-0.31131 -1.88553,-0.47169c0,-0.31133 0,-0.62265 0,-0.94339c-0.39862,-0.12648 -0.79724,-0.25296 -1.20792,-0.38326c-1.62036,-0.56015 -1.62036,-0.56015 -3.24075,-1.29718c-1.68952,-0.68218 -3.17343,-0.96539 -4.97897,-1.14976c-0.15555,-0.46697 -0.31113,-0.93396 -0.47137,-1.41509c11.26855,-7.95959 30.39709,-5.73029 41.48166,1.8868z" fill="#77369a"/><path d="M245.19751,173.1781c0.59305,0.09729 1.1861,0.19458 1.79712,0.2948c0.54446,0.07785 1.0889,0.15567 1.64984,0.23585c0.38892,0.07783 0.7778,0.15565 1.17847,0.23586c-0.29245,2.01236 -0.74796,3.87712 -1.38467,5.80778c-0.15982,0.49434 -0.31964,0.98868 -0.48428,1.498c-0.48794,1.18478 -0.48794,1.18478 -1.43072,1.65648c-0.37231,0.91257 -0.71011,1.83934 -1.03116,2.77122c-1.16022,3.1459 -2.71783,5.8045 -4.62543,8.54953c-1.40451,-0.06613 -2.80875,-0.13531 -4.21298,-0.20638c-0.60111,-0.02782 -0.60111,-0.02782 -1.21436,-0.0562c-0.57196,-0.02963 -0.57196,-0.02963 -1.15546,-0.05988c-0.52948,-0.02594 -0.52948,-0.02594 -1.0697,-0.0524c-0.8324,-0.09686 -0.8324,-0.09686 -1.30377,-0.56856c-0.79831,-4.24831 1.04803,-7.37082 3.29968,-10.84904c1.17074,-1.6601 2.42352,-3.19812 3.77106,-4.71698c0.51953,-0.6111 0.51953,-0.6111 1.04956,-1.23453c2.9642,-3.27199 2.9642,-3.27199 5.16681,-3.30557z" fill="#fb47d2"/><path d="M235.21009,156.49178c3.6087,0.19537 7.17053,0.51422 10.74789,1.0171c0.36032,0.05063 0.72061,0.10124 1.09186,0.1534c0.74725,0.10559 1.49451,0.21148 2.24167,0.31763c6.26794,0.88736 12.42428,1.6324 18.76862,1.60003c3.16135,0.02217 3.16135,0.02217 4.69669,1.05395c0.82165,1.35363 0.71072,2.36591 0.41248,3.8952c-0.37466,1.39414 -0.67505,2.20244 -1.66275,3.28346c-1.37994,0.61572 -2.78546,1.0242 -4.24243,1.4151c-0.70001,0.23349 -0.70001,0.23349 -1.41415,0.4717c-9.75211,1.16072 -19.70987,0.52608 -29.478,-0.05705c-1.00681,-0.06003 -2.0137,-0.11819 -3.02069,-0.17447c-1.43094,-0.08136 -2.86102,-0.17142 -4.29126,-0.26413c-0.43115,-0.02367 -0.86227,-0.04732 -1.30652,-0.07169c-2.83859,-0.19815 -5.06528,-0.64217 -7.15625,-2.73456c0.13544,-2.10072 0.28015,-3.8448 1.41412,-5.66037c0.10696,0.5059 0.2139,1.01179 0.3241,1.53302c0.7023,2.00797 1.17581,2.57505 2.97559,3.65565c5.74265,1.89024 12.08887,1.48738 18.07642,1.47774c0.71234,0.00034 1.42468,0.00079 2.13705,0.00137c1.47714,0.0007 2.95422,-0.00027 4.43137,-0.00252c1.88757,-0.0027 3.77512,-0.00111 5.66269,0.00169c1.46433,0.00171 2.92865,0.00116 4.39298,-0.00006c0.69626,-0.00032 1.39255,0.00006 2.08884,0.00116c0.97064,0.00122 1.94122,-0.00064 2.9119,-0.00325c0.5502,-0.00038 1.10037,-0.00075 1.66727,-0.00114c1.49054,-0.05846 2.89188,-0.25194 4.35562,-0.53159c0.00973,-0.58373 0.01944,-1.16746 0.02945,-1.76888c0.00549,-0.32835 0.01096,-0.65669 0.01657,-0.99499c-0.04678,-1.02693 -0.2554,-1.90584 -0.5174,-2.89652c-0.46963,-0.02364 -0.93927,-0.04727 -1.42313,-0.07162c-11.58591,-0.58871 -22.65646,-1.23834 -33.93057,-4.17365c0,-0.15566 0,-0.31133 0,-0.4717z" fill="#9d4b3c"/><path d="M217.76893,106.96347c7.51682,-0.5737 12.46573,1.10603 18.33237,6.12286c4.3504,4.16791 7.66736,10.39329 7.82938,16.45969c-0.043,2.73795 -0.38474,4.17858 -2.22067,6.18551c-1.35785,1.52785 -2.32657,3.29901 -3.38254,5.04312c-0.76047,1.09448 -0.76047,1.09448 -2.17462,2.03788c0.24457,-1.95775 0.96802,-3.41647 1.91501,-5.11314c1.16003,-2.67472 0.99954,-5.61529 1.00168,-8.47766c0.00867,-0.60243 0.00867,-0.60243 0.01749,-1.21702c0.00629,-2.74935 -0.36752,-5.1694 -1.04865,-7.83369c-0.3111,0 -0.62222,0 -0.94275,0c0.23151,0.78073 0.23151,0.78073 0.46768,1.57724c0.59769,2.39232 0.58032,4.69641 0.534,7.14918c-0.00424,0.43293 -0.00851,0.86586 -0.01288,1.31191c-0.01099,1.05654 -0.02646,2.11281 -0.04605,3.16922c-0.15555,0 -0.3111,0 -0.47137,0c-0.02643,-0.82907 -0.02643,-0.82907 -0.05341,-1.6749c-0.14951,-3.79699 -0.31503,-7.31633 -1.58539,-10.9375c-0.29709,-1.28449 -0.07654,-2.1545 0.22464,-3.42534c-0.54413,-2.95587 -3.39221,-4.72031 -5.70078,-6.3624c-2.99844,-1.95607 -5.73926,-2.72781 -9.32452,-2.89468c-0.32449,-0.01823 -0.64896,-0.03647 -0.98328,-0.05527c-0.79163,-0.04401 -1.58344,-0.08331 -2.37534,-0.12161c0,-0.31133 0,-0.62265 0,-0.94341z" fill="#814e9c"/><path d="M243.69498,135.26537c0.3111,0 0.62222,0 0.94275,0c0.87253,2.98729 1.59314,5.86068 1.88553,8.96226c-0.62222,0.15566 -1.24445,0.31133 -1.88553,0.4717c0,2.02359 0,4.04717 0,6.13207c1.39999,-0.23349 1.39999,-0.23349 2.82831,-0.47169c0.15555,-0.7783 0.3111,-1.5566 0.47137,-2.35849c1.32254,0.1665 1.79306,0.3629 2.67178,1.39667c0.23639,0.37577 0.47272,0.75155 0.71628,1.13871c0.24002,0.37334 0.48004,0.74669 0.72732,1.13133c0.59845,1.05027 0.59845,1.05027 1.06982,2.46536c-5.54392,0.19682 -10.7135,-0.11444 -16.02701,-1.8868c0,-0.31132 0,-0.62264 0,-0.94339c-0.93332,-0.31132 -1.8667,-0.62265 -2.82831,-0.9434c0.6568,-1.58831 1.40424,-2.35187 2.82831,-3.30189c0,0.46697 0,0.93397 0,1.41509c1.0889,0.15565 2.1778,0.31133 3.29968,0.4717c0.04861,-0.28214 0.0972,-0.56428 0.14731,-0.85496c0.37039,-1.17929 0.78091,-1.68059 1.73822,-2.44693c0.3111,0 0.62222,0 0.94275,0c-1.12012,-1.95599 -1.12012,-1.95599 -2.82828,-3.30189c0.77521,-2.64455 1.57419,-4.90327 3.29968,-7.07547z" fill="#8d57a9"/><path d="M235.21009,78.66159c0,0.15565 0,0.31132 0,0.47169c-0.26798,0.02432 -0.53595,0.04864 -0.81204,0.0737c-2.84183,0.41777 -4.3288,1.33403 -6.11325,3.58565c-0.95435,1.63634 -1.05466,2.95058 -1.08823,4.83122c0.3111,0.15566 0.62222,0.31133 0.94278,0.4717c-0.59747,0.83644 -1.1969,1.67148 -1.79715,2.50589c-0.5004,0.69774 -0.5004,0.69774 -1.0109,1.40958c-1.98566,2.62526 -1.98566,2.62526 -3.59704,2.88477c-0.47733,0.00937 -0.95462,0.01871 -1.44638,0.02834c-0.78113,0.0219 -0.78113,0.0219 -1.57803,0.04422c-0.81576,0.01277 -0.81576,0.01277 -1.64798,0.0258c-1.07538,0.02403 -2.15076,0.04976 -3.22604,0.07738c-0.47729,0.0083 -0.95462,0.01657 -1.44638,0.02512c-1.27463,0.02506 -1.27463,0.02506 -2.63403,0.54608c-0.61874,1.2709 -0.46301,1.91847 -0.10126,3.29268c0.1987,0.49921 0.39737,0.99841 0.60211,1.51276c0.19022,0.50284 0.38037,1.00571 0.57636,1.5238c0.70557,1.34499 0.70557,1.34499 2.1654,1.62331c1.88413,0.08588 1.88413,0.08588 3.76923,0.09581c0.36822,-0.00426 0.73645,-0.00851 1.11585,-0.01289c0.27344,-0.00548 0.54688,-0.01094 0.82858,-0.01659c-0.27649,0.12039 -0.55295,0.24078 -0.8378,0.36482c-1.47174,0.81273 -2.42715,1.96101 -3.55377,3.19133c-0.79361,0.68913 -0.79361,0.68913 -2.20776,0.68913c-0.82492,-1.12029 -0.82492,-1.12029 -1.30368,-1.89601c-0.70691,-1.13493 -1.46564,-2.22636 -2.23169,-3.32216c-0.42294,-0.61291 -0.42294,-0.61291 -0.8544,-1.2382c-0.8042,-1.15706 -0.8042,-1.15706 -1.97391,-2.29953c-0.95819,-1.55809 -0.76395,-2.63789 -0.54318,-4.4111c0.36755,-1.17607 0.74551,-1.65459 1.72165,-2.39903c2.82858,-1.02657 6.32581,-0.72865 9.19196,0c2.41623,0.59792 4.83459,0.87909 7.30643,0.4717c1.05731,-0.97717 1.05731,-0.97717 1.41415,-2.35849c0.24793,-0.51077 0.24793,-0.51077 0.50086,-1.03185c0.40759,-1.22362 0.634,-2.35869 0.85437,-3.62617c0.50064,-2.66399 1.4126,-4.71542 3.35861,-6.66273c1.81058,-0.69684 3.74866,-0.50351 5.65659,-0.47169z" fill="#e139a4"/><path d="M245.19751,173.1781c0.59305,0.09729 1.1861,0.19458 1.79712,0.2948c0.54446,0.07785 1.0889,0.15567 1.64984,0.23585c0.38892,0.07783 0.7778,0.15565 1.17847,0.23586c-0.29041,2.0374 -0.7742,3.89249 -1.4436,5.83727c-0.17075,0.49982 -0.34149,0.99962 -0.51743,1.51459c-0.13065,0.37578 -0.26129,0.75154 -0.39587,1.13872c-0.15558,0 -0.3111,0 -0.47141,0c0.21319,-2.79007 0.54599,-5.35474 1.41415,-8.01888c-1.0889,0 -2.17777,0 -3.29968,0c-0.12637,0.25295 -0.25278,0.50591 -0.383,0.76651c-0.18469,0.36969 -0.36944,0.7394 -0.55975,1.12028c-0.20114,0.42139 -0.40225,0.84274 -0.6095,1.2769c-0.88178,1.7021 -1.87552,3.28378 -2.92587,4.88466c-0.70993,1.08902 -1.41644,2.18002 -2.12122,3.2724c-0.26553,0.40497 -0.5311,0.80992 -0.80469,1.22714c-0.66086,1.22673 -0.93207,2.26807 -1.16925,3.63724c-0.12637,0.72966 -0.25278,1.45932 -0.38299,2.21109c1.55557,0.15567 3.11111,0.31132 4.71384,0.47169c0,0.31133 0,0.62265 0,0.94341c-1.40451,-0.06613 -2.80875,-0.13531 -4.21298,-0.20638c-0.60111,-0.02782 -0.60111,-0.02782 -1.21436,-0.0562c-0.57196,-0.02963 -0.57196,-0.02963 -1.15546,-0.05988c-0.52948,-0.02594 -0.52948,-0.02594 -1.0697,-0.0524c-0.8324,-0.09686 -0.8324,-0.09686 -1.30377,-0.56856c-0.79831,-4.24831 1.04803,-7.37082 3.29968,-10.84904c1.17074,-1.6601 2.42352,-3.19812 3.77106,-4.71698c0.51953,-0.6111 0.51953,-0.6111 1.04956,-1.23453c2.9642,-3.27199 2.9642,-3.27199 5.16681,-3.30557z" fill="#e039a4"/><path d="M245.1091,112.15215c1.17432,0.21761 1.88083,0.46828 2.85776,1.17925c1.91763,0.97986 3.64938,0.97309 5.77444,1.03184c0.39404,0.01611 0.78812,0.03223 1.19412,0.04883c0.96677,0.0387 1.93387,0.06943 2.90103,0.09858c0,0.46698 0,0.93397 0,1.41509c0.53348,-0.15322 1.06702,-0.30645 1.61667,-0.46433c2.1719,-0.54166 4.22629,-0.61956 6.45575,-0.59699c0.36398,-0.00364 0.72797,-0.0073 1.10297,-0.01105c2.15296,0.00734 3.88272,0.2562 5.90884,1.07237c-0.3111,-0.93396 -0.62222,-1.86792 -0.94275,-2.83018c0.94275,0.82547 0.94275,0.82547 1.88553,1.8868c0,0.62264 0,1.24528 0,1.88679c-2.80002,-0.46697 -2.80002,-0.46697 -5.65662,-0.9434c0,0.46698 0,0.93397 0,1.4151c0.54446,-0.04864 1.0889,-0.09728 1.64984,-0.14741c2.36597,-0.01268 4.1315,0.95949 5.8923,2.5059c0,0.31132 0,0.62264 0,0.9434c-0.62225,-0.15565 -1.24448,-0.31133 -1.88553,-0.4717c0.3111,0.62265 0.62222,1.24529 0.94275,1.8868c-0.26916,-0.10215 -0.53836,-0.20431 -0.8157,-0.30955c-4.9104,-1.68738 -9.4624,-1.64678 -14.26853,0.30955c0.6658,-1.3325 1.52152,-1.67496 2.82828,-2.35849c1.67981,-0.42094 3.25037,-0.53547 4.97897,-0.53066c0.65717,-0.00183 0.65717,-0.00183 1.32761,-0.00368c1.11368,0.05647 2.05591,0.21835 3.12109,0.53435c0,-0.31132 0,-0.62265 0,-0.9434c-3.26669,0 -6.53335,0 -9.89905,0c0.46667,-0.31133 0.93332,-0.62264 1.41415,-0.9434c-3.37515,0.11259 -5.66663,1.04259 -8.62668,2.6533c-1.08109,0.55109 -1.97501,0.89536 -3.1579,1.12028c0.15237,-1.41039 0.25833,-2.15292 1.29629,-3.15448c1.10812,-0.64683 2.22369,-1.09769 3.41754,-1.5625c-0.39862,0.0219 -0.79721,0.04378 -1.20792,0.06634c-3.83151,0.12199 -6.52942,-0.12087 -9.49762,-2.63672c-0.60767,-0.73151 -0.60767,-0.73151 -0.60767,-2.1466z" fill="#26142f"/><path d="M257.92484,88.03659c0.41501,-0.0012 0.83002,-0.00244 1.25763,-0.00369c1.0109,0.06265 1.0109,0.06265 1.48227,0.53435c0.05978,1.24409 0.08728,2.47032 0.08838,3.71463c0.0058,0.34598 0.01154,0.69196 0.01752,1.04842c0.00494,1.81036 -0.02213,2.6584 -1.04865,4.19922c-4.03265,0.41177 -7.48663,-0.68715 -10.84183,-2.83019c-0.15057,-1.6575 -0.20685,-2.53561 0.76602,-3.92099c1.32672,-0.94333 2.34192,-1.1216 3.94781,-1.26769c0,-0.31133 0,-0.62265 0,-0.9434c1.47238,-0.43274 2.79855,-0.53519 4.33084,-0.53066z" fill="#fc47d2"/><path d="M224.36829,105.07668c3.15372,0.21039 5.66983,1.44975 8.48486,2.8302c0,0.31132 0,0.62264 0,0.94339c0.50131,0.16419 0.50131,0.16419 1.01276,0.33167c1.60913,0.7323 2.68878,1.66338 3.9957,2.8523c0.66535,0.59467 0.66535,0.59467 1.34418,1.20136c1.22028,1.30804 1.87881,2.48056 2.60364,4.10525c0.26251,0.42806 0.52502,0.85613 0.79547,1.29717c0.61868,1.06132 0.61868,1.06132 0.61868,2.00472c-0.3111,0 -0.62222,0 -0.94275,0c-0.3111,0.31132 -0.62222,0.62264 -0.94278,0.94339c-0.18896,-0.39889 -0.37796,-0.79776 -0.57266,-1.20873c-3.23019,-6.45004 -8.16363,-10.44273 -14.98297,-12.94221c-1.40369,-0.21591 -2.79456,-0.28174 -4.21298,-0.3243c-0.55096,-0.02417 -0.55096,-0.02417 -1.11307,-0.04883c-0.8956,-0.0385 -1.7915,-0.06934 -2.68744,-0.09859c0,0.31132 0,0.62265 0,0.94341c0.45572,-0.0219 0.91147,-0.04378 1.38101,-0.06633c7.10385,-0.19708 10.99686,1.90512 16.17432,6.70695c0.98285,1.07532 1.1413,1.83613 1.29999,3.26504c-0.46668,0.15565 -0.93335,0.31132 -1.41415,0.4717c-0.17258,-0.27363 -0.34515,-0.54725 -0.52295,-0.82916c-2.2699,-3.27734 -4.79489,-4.72182 -8.43332,-6.24632c0,-0.31132 0,-0.62264 0,-0.94339c-2.33337,-0.15565 -4.66672,-0.31132 -7.07074,-0.47169c0,-0.15566 0,-0.31133 0,-0.47171c1.55554,-0.15565 3.11111,-0.31131 4.71381,-0.47169c-2.33334,-0.15565 -4.66669,-0.31133 -7.07074,-0.4717c0.15558,-0.62265 0.31113,-1.24528 0.47141,-1.88679c3.96668,-0.23349 3.96668,-0.23349 8.01349,-0.4717c-0.3111,-0.31133 -0.62222,-0.62265 -0.94275,-0.9434z" fill="#190e1f"/><path d="M253.594,98.47292c0.37433,0.09303 0.74863,0.18605 1.13428,0.28191c0.24793,0.06264 0.49582,0.12526 0.75125,0.18979c0,0.31132 0,0.62264 0,0.94339c1.71112,0.31132 3.42224,0.62265 5.18521,0.94341c0.15558,-0.77831 0.3111,-1.55661 0.47137,-2.35849c0.3241,0.76651 0.3241,0.76651 0.47141,1.88678c-0.67761,1.53302 -0.67761,1.53302 -1.41415,2.8302c0.3111,0 0.62222,0 0.94275,0c0,0.31131 0,0.62264 0,0.94339c-0.46664,-0.18971 -0.46664,-0.18971 -0.94275,-0.38325c-9.17148,-3.6328 -19.39185,-5.65236 -29.22574,-3.39034c0,-0.31131 0,-0.62264 0,-0.94339c-1.08887,0 -2.17776,0 -3.29965,0c1.37314,-0.91605 2.07663,-1.15306 3.6532,-1.44458c0.57968,-0.11037 0.57968,-0.11037 1.17108,-0.22295c7.15506,-1.20342 14.06677,-1.06358 21.10175,0.72414z" fill="#371233"/><path d="M230.61756,151.14279c1.14056,0.42061 2.26288,0.87102 3.38461,1.33955c0.58472,0.23622 0.58472,0.23622 1.18121,0.47723c0.95373,0.38616 1.90466,0.77924 2.85498,1.17371c0,0.15565 0,0.31133 0,0.4717c-2.19186,0.09139 -3.85315,-0.14942 -5.98618,-0.72966c-3.62427,-0.71426 -7.00244,-0.22406 -10.51221,0.72966c-0.65781,2.66672 -1.28848,5.33785 -1.88553,8.01887c-0.1033,0.4603 -0.2066,0.92058 -0.31302,1.39482c-0.2413,1.18915 -0.2413,1.18915 -0.15835,2.85046c1.13559,1.48357 2.22446,2.27013 3.77106,3.30188c-2.06226,-0.10673 -3.71912,-0.2289 -5.45038,-1.4151c-1.14899,-1.41509 -1.14899,-1.41509 -1.17844,-3.2724c0.14963,-0.79943 0.31924,-1.59521 0.50082,-2.38797c0.10696,-0.53144 0.2139,-1.06287 0.3241,-1.61041c0.60416,-2.94095 1.27786,-5.86129 2.03284,-8.76695c0.4314,-0.09668 0.86282,-0.19336 1.30734,-0.29297c0.56024,-0.12708 1.12048,-0.25416 1.69772,-0.3851c0.8367,-0.1888 0.8367,-0.1888 1.69034,-0.38141c4.60004,-1.14191 4.60004,-1.14191 6.73907,-0.51592z" fill="#9d4b3b"/><path d="M243.69498,135.26537c0.3111,0 0.62222,0 0.94275,0c0.87253,2.98729 1.59314,5.86068 1.88553,8.96226c-0.62222,0.15566 -1.24445,0.31133 -1.88553,0.4717c0,2.02359 0,4.04717 0,6.13207c0.93332,0 1.8667,0 2.82831,0c0,0.15567 0,0.31133 0,0.4717c-1.0889,0 -2.1778,0 -3.29968,0c-0.15558,-1.5566 -0.3111,-3.11321 -0.47137,-4.71699c-0.40836,0.46698 -0.81668,0.93397 -1.2374,1.4151c-1.17773,1.19535 -1.43466,1.39772 -3.18182,1.59198c-0.61252,-0.08756 -0.61252,-0.08756 -1.2374,-0.17689c0.15558,-0.31133 0.3111,-0.62264 0.47141,-0.9434c0.62222,0.15565 1.24445,0.31133 1.88553,0.4717c0.07291,-0.4232 0.07291,-0.4232 0.14731,-0.85496c0.37039,-1.17929 0.78091,-1.68059 1.73822,-2.44693c0.3111,0 0.62222,0 0.94275,0c-1.12012,-1.95599 -1.12012,-1.95599 -2.82828,-3.30189c0.77521,-2.64455 1.57419,-4.90327 3.29968,-7.07547z" fill="#804f9a"/><path d="M276.22037,156.02008c0.05472,2.0046 0.08823,4.00903 0.11783,6.01415c0.02371,0.8537 0.02371,0.8537 0.04788,1.72464c0.00607,0.54725 0.01215,1.09449 0.01843,1.65832c0.00986,0.50391 0.01971,1.00784 0.02991,1.52702c-0.26575,1.66376 -0.80612,2.18738 -2.09958,3.22681c-2.99249,1.58917 -6.11826,1.58221 -9.42764,1.4151c0,-0.15567 0,-0.31132 0,-0.47171c0.41501,-0.0912 0.83002,-0.1824 1.25763,-0.27637c0.54748,-0.12283 1.09494,-0.24567 1.65903,-0.37221c0.54141,-0.12041 1.08282,-0.2408 1.64066,-0.36482c2.03381,-0.49756 2.03381,-0.49756 3.92755,-1.34509c1.33359,-2.66454 1.77579,-5.63264 0.94278,-8.49055c-0.48138,-0.84184 -0.48138,-0.84184 -1.41415,-1.4151c-1.23944,-0.17756 -2.38083,-0.28364 -3.62375,-0.32429c-0.49631,-0.02417 -0.49631,-0.02417 -1.00262,-0.04883c-0.81451,-0.03881 -1.62943,-0.06949 -2.44437,-0.09858c0,-0.15565 0,-0.31132 0,-0.4717c0.49585,-0.07753 0.49585,-0.07753 1.00168,-0.15662c2.18738,-0.36579 4.24463,-0.74432 6.30475,-1.58276c1.64984,-0.61911 1.64984,-0.61911 3.06399,-0.14741z" fill="#9d4b3c"/><path d="M240.3953,140.45404c0.15555,0.31132 0.3111,0.62264 0.47137,0.9434c-0.15558,0.31132 -0.3111,0.62264 -0.47137,0.9434c0.29166,0.10701 0.58331,0.21403 0.88382,0.32429c1.29117,0.79803 1.49677,1.55893 1.94446,2.9776c-0.56873,0.42319 -0.56873,0.42319 -1.14899,0.85495c-1.31317,0.94197 -1.31317,0.94197 -1.67929,2.44694c-1.10452,-0.12058 -2.20532,-0.27959 -3.29968,-0.4717c-0.15558,-0.31133 -0.3111,-0.62264 -0.47137,-0.9434c-0.7778,0.93397 -1.55557,1.86792 -2.35693,2.83019c0.29169,0.05837 0.58334,0.11675 0.88385,0.17689c1.00168,0.29481 1.00168,0.29481 1.94446,1.2382c-1.86163,-0.25993 -3.46429,-0.65535 -5.18521,-1.41509c0.52396,-1.57292 0.86462,-1.83224 2.12122,-2.83019c2.46292,-2.07611 4.38776,-4.54443 6.36368,-7.07547z" fill="#7e489b"/><path d="M253.594,125.3597c0,0.31132 0,0.62264 0,0.9434c0.3111,0.15565 0.62222,0.31132 0.94278,0.47169c-0.3111,0.7783 -0.62225,1.5566 -0.94278,2.35849c-0.15555,-0.31133 -0.3111,-0.62264 -0.47137,-0.9434c0.15555,-0.46697 0.3111,-0.93397 0.47137,-1.41509c-0.46667,0 -0.93332,0 -1.41415,0c-0.31497,0.78587 -0.62906,1.57211 -0.94275,2.35849c-0.16104,0.39159 -0.32205,0.78316 -0.48795,1.18662c-1.55774,4.14881 -1.76523,8.11176 -1.86899,12.49263c-1.41705,-1.418 -1.2236,-2.74709 -1.41412,-4.71698c-0.3111,0 -0.62222,0 -0.94278,0c-0.50156,-6.11845 -0.50156,-6.11845 0.65183,-8.31921c0.8295,-0.94322 1.67242,-1.74046 2.64786,-2.52985c0.42777,-0.38915 0.85556,-0.7783 1.29629,-1.17924c1.06061,-0.70754 1.06061,-0.70754 2.47476,-0.70754z" fill="#83509f"/><path d="M237.09562,120.17102c0.3111,0 0.62222,0 0.94275,0c1.21588,3.04931 1.62433,5.69117 1.56146,8.96227c0.00153,0.39523 0.00305,0.79047 0.00461,1.19767c-0.0361,4.2439 -0.81915,7.43902 -2.98019,11.06648c-0.17023,0.78344 -0.33218,1.56896 -0.47141,2.35849c-0.46665,0.23349 -0.46665,0.23349 -0.94275,0.47169c0,-0.31132 0,-0.62264 0,-0.94339c-0.93335,0.23348 -0.93335,0.23348 -1.88553,0.47169c0.14825,-0.27483 0.29654,-0.54967 0.44928,-0.83284c3.27808,-6.28389 4.46185,-11.89932 3.79315,-18.97848c-0.15555,-0.31133 -0.3111,-0.62265 -0.47138,-0.9434c-0.01886,-0.94322 -0.02048,-1.88701 0,-2.83019z" fill="#201624"/><path d="M267.6471,118.19579c0.61554,0.00304 1.23108,0.00607 1.86526,0.00922c1.5228,0.07923 1.5228,0.07923 2.46558,0.55093c0,0.31133 0,0.62264 0,0.9434c-0.4776,-0.01094 -0.95523,-0.0219 -1.4473,-0.03316c-0.63711,-0.00886 -1.27423,-0.01743 -1.91132,-0.02579c-0.47034,-0.01186 -0.47034,-0.01186 -0.95013,-0.02396c-4.27274,-0.04192 -7.63504,1.75254 -10.68344,4.67091c-0.24426,0.25659 -0.48852,0.5132 -0.74023,0.77756c-0.61249,0.61292 -0.61249,0.61292 -1.23737,1.23821c-0.46667,0 -0.93332,0 -1.41415,0c0,-0.31132 0,-0.62265 0,-0.9434c-0.7778,0.15565 -1.55554,0.31132 -2.3569,0.47169c1.04773,-2.8177 2.58066,-3.91952 5.18521,-5.18867c1.39438,-0.55525 2.79987,-1.00367 4.24243,-1.4151c0.51163,-0.1666 1.02328,-0.33321 1.55042,-0.50486c1.87753,-0.4707 3.49963,-0.54818 5.43194,-0.52698z" fill="#170e1b"/><path d="M263.49305,116.86913c8.75394,-0.16155 8.75394,-0.16155 12.25595,2.83019c0,0.31132 0,0.62264 0,0.9434c-0.62225,-0.15565 -1.24448,-0.31133 -1.88553,-0.4717c0.3111,0.62265 0.62222,1.24529 0.94275,1.8868c-0.26916,-0.10215 -0.53836,-0.20431 -0.8157,-0.30955c-4.9104,-1.68738 -9.4624,-1.64678 -14.26853,0.30955c0.6658,-1.3325 1.52152,-1.67496 2.82828,-2.35849c1.67981,-0.42093 3.25037,-0.53547 4.97897,-0.53066c0.43814,-0.0012 0.87622,-0.00243 1.32761,-0.00368c1.11368,0.05647 2.05591,0.21835 3.12109,0.53435c0,-0.31132 0,-0.62265 0,-0.9434c-3.26669,0 -6.53335,0 -9.89905,0c0.46667,-0.46698 0.93332,-0.93397 1.41415,-1.41509c0,-0.15565 0,-0.31132 0,-0.4717z" fill="#4a3154"/><path d="M261.13611,86.68045c1.56146,0.88444 1.56146,0.88444 2.35693,2.35849c0.52954,3.12067 -0.15152,5.64772 -1.41415,8.49057c-0.55151,-1.84781 -0.32803,-3.29225 0,-5.18868c-0.46667,0.62265 -0.93332,1.24528 -1.41415,1.8868c-0.15555,-1.86792 -0.3111,-3.73585 -0.47137,-5.66038c-2.1778,0 -4.35556,0 -6.59937,0c0.15558,-0.46698 0.3111,-0.93396 0.47137,-1.41509c2.09576,-1.04858 4.79483,-0.70848 7.07074,-0.47171z" fill="#ca3495"/><path d="M241.72104,96.96938c0.41577,-0.00031 0.83157,-0.00061 1.25995,-0.00093c2.86374,0.0233 5.47842,0.29156 8.2561,1.03276c-1.49127,0.53722 -2.62463,0.37987 -4.16351,0.12369c-2.20261,-0.26665 -4.43372,-0.17105 -6.64884,-0.15317c-0.50223,0.00214 -1.00443,0.00427 -1.52185,0.00645c-1.23099,0.00552 -2.46188,0.01326 -3.69281,0.02303c0,0.31133 0,0.62265 0,0.94341c3.88888,0 7.7778,0 11.78455,0c0,0.15565 0,0.31132 0,0.47169c-0.60263,0.01773 -0.60263,0.01773 -1.21747,0.03581c-1.49789,0.04501 -2.99573,0.09181 -4.49353,0.1398c-0.64694,0.02037 -1.29385,0.04004 -1.9408,0.05898c-0.93265,0.02742 -1.8652,0.0576 -2.79779,0.08786c-0.56036,0.01729 -1.1207,0.03458 -1.69806,0.0524c-1.34051,0.08528 -2.57318,0.26576 -3.87936,0.56854c0,-0.31131 0,-0.62264 0,-0.94339c-1.08887,0 -2.17776,0 -3.29965,0c1.37314,-0.91605 2.07663,-1.15306 3.6532,-1.44458c0.57968,-0.11037 0.57968,-0.11037 1.17108,-0.22295c0.64533,-0.10854 0.64533,-0.10854 1.30368,-0.21927c0.50009,-0.08513 1.00018,-0.17024 1.51541,-0.25797c2.1463,-0.25711 4.25009,-0.3038 6.4097,-0.30217z" fill="#511946"/><path d="M263.96442,115.92574c-0.15558,0.46698 -0.3111,0.93397 -0.47137,1.4151c-1.13428,0.36483 -1.13428,0.36483 -2.59262,0.64858c-2.41757,0.54144 -4.29874,1.3029 -6.39313,2.61276c-0.93274,0.52313 -1.75491,0.77409 -2.79883,0.98393c0.23132,-2.14099 0.23132,-2.14099 1.26868,-3.08077c3.35043,-2.133 7.08176,-2.84014 10.98727,-2.5796z" fill="#23152c"/><path d="M231.43903,99.41631c-0.88498,1.77113 -3.35275,2.04938 -5.13736,2.68094c-1.34204,0.56999 -1.9386,0.97498 -2.87616,2.03604c-1.03116,0.3243 -1.03116,0.3243 -1.88553,0.4717c0,-0.46698 0,-0.93396 0,-1.41509c-0.93332,0.15565 -1.8667,0.31131 -2.82831,0.47169c2.60971,-2.87259 8.95615,-5.53838 12.72736,-4.24528z" fill="#170a1a"/><path d="M248.88016,148.00121c1.9028,1.76804 3.41476,3.64735 4.24246,6.13207c-11.86044,0.42109 -11.86044,0.42109 -16.02701,-2.35849c4.51114,0.31133 9.02228,0.62264 13.67011,0.9434c-0.62225,-0.93397 -1.24448,-1.86792 -1.88556,-2.83019c0,-0.62264 0,-1.24528 0,-1.88679z" fill="#6e398a"/><path d="M241.75052,97.47055c0.54959,-0.00273 0.54959,-0.00273 1.11032,-0.00552c3.57538,0.00601 6.54779,0.42822 9.79041,1.95128c0,0.15565 0,0.31133 0,0.4717c-1.8667,0 -3.73337,0 -5.65662,0c0,-0.31133 0,-0.62264 0,-0.94339c-3.88889,0 -7.7778,0 -11.78455,0c0,-0.31133 0,-0.62265 0,-0.94341c2.18686,-0.55366 4.30127,-0.5417 6.54044,-0.53065z" fill="#160918"/><path d="M226.72519,108.85027c2.11762,0.59927 3.55447,1.36665 5.24414,2.77122c0.39011,0.31983 0.78021,0.63966 1.18213,0.96919c3.20435,2.80435 3.20435,2.80435 3.47278,5.22185c-0.46668,0.15565 -0.93335,0.31132 -1.41415,0.4717c-0.21088,-0.29004 -0.42169,-0.58009 -0.63895,-0.87891c-1.51346,-2.02469 -2.71674,-3.63024 -5.01764,-4.78147c-0.48053,-0.46236 -0.95337,-0.93304 -1.41415,-1.4151c-0.46668,-0.31132 -0.93335,-0.62264 -1.41415,-0.94339c0,-0.46698 0,-0.93398 0,-1.4151z" fill="#1b121f"/><path d="M264.9072,117.34084c-2.60156,1.73551 -4.96533,2.97495 -7.93988,3.90257c-1.35223,0.45596 -2.59024,1.08187 -3.8447,1.75781c0,-0.31133 0,-0.62265 0,-0.9434c-0.62222,0 -1.24445,0 -1.88553,0c0.15555,-0.62264 0.3111,-1.24529 0.47137,-1.8868c0,0.46698 0,0.93397 0,1.41509c0.36459,-0.18788 0.72919,-0.37576 1.1048,-0.56935c7.68604,-3.91222 7.68604,-3.91222 12.09393,-3.67593z" fill="#714489"/><path d="M252.17984,126.77479c0.46668,0 0.93335,0 1.41415,0c-0.28455,1.82232 -0.85071,3.41725 -1.54672,5.11314c-0.9306,2.79869 -0.86813,5.59472 -0.83966,8.50715c0.00214,0.41469 0.00427,0.82937 0.00647,1.25663c0.00552,1.01589 0.01398,2.03175 0.02301,3.04761c-0.3111,-0.15567 -0.62222,-0.31132 -0.94278,-0.4717c-0.01181,-0.27589 -0.02362,-0.5518 -0.0358,-0.83607c-0.05478,-1.25442 -0.11261,-2.5087 -0.17041,-3.76298c-0.0278,-0.65122 -0.0278,-0.65122 -0.05618,-1.3156c-0.01971,-0.41956 -0.03949,-0.8391 -0.05984,-1.27137c-0.01727,-0.38536 -0.03455,-0.7707 -0.05237,-1.16773c-0.06635,-1.07894 -0.06635,-1.07894 -0.36261,-2.0912c-0.30206,-1.28708 0.13757,-2.06519 0.64883,-3.26377c0.16831,-0.40436 0.33661,-0.8087 0.51004,-1.22531c0.52112,-1.1037 0.52112,-1.1037 1.46387,-2.51879z" fill="#362938"/><path d="M247.93741,109.79367c0.52502,0.23347 0.52502,0.23347 1.06061,0.47169c2.4805,0.6619 4.8721,0.54607 7.42429,0.47169c-0.17679,1.14977 -0.17679,1.14977 -0.4714,2.35849c-1.50971,0.75537 -3.07199,0.63934 -4.71381,0.4717c-1.62039,-0.56014 -1.62039,-0.56014 -2.82831,-1.41509c-0.41244,-1.26768 -0.41244,-1.26768 -0.47138,-2.35848z" fill="#321f3d"/><path d="M239.92389,142.81253c1.11954,0.08845 1.11954,0.08845 2.35693,0.4717c0.61868,1.20872 0.61868,1.20872 0.94275,2.35849c-0.56873,0.42319 -0.56873,0.42319 -1.14899,0.85495c-1.31317,0.94197 -1.31317,0.94197 -1.67929,2.44694c-0.7778,-0.15566 -1.55557,-0.31133 -2.35693,-0.4717c0.2207,-2.25272 0.58609,-3.7947 1.88553,-5.66038z" fill="#160d1b"/><path d="M217.76893,106.96347c5.74435,-0.43842 9.72443,0.06615 14.61285,3.3019c0.88754,0.81625 0.88754,0.81625 1.41415,1.41509c-0.3111,0.31132 -0.62222,0.62264 -0.94278,0.9434c-0.34146,-0.22742 -0.68298,-0.45483 -1.03482,-0.68912c-0.45572,-0.29795 -0.91147,-0.59589 -1.38101,-0.90286c-0.44846,-0.29552 -0.89688,-0.59102 -1.35889,-0.89548c-2.59686,-1.49947 -4.98853,-1.91475 -7.9509,-2.05263c-0.32449,-0.01823 -0.64896,-0.03647 -0.98328,-0.05527c-0.79163,-0.04401 -1.58344,-0.08331 -2.37534,-0.12161c0,-0.31133 0,-0.62265 0,-0.94341z" fill="#6b4181"/><path d="M253.594,125.3597c0,0.31132 0,0.62264 0,0.9434c0.3111,0.15565 0.62222,0.31132 0.94278,0.47169c-0.3111,0.7783 -0.62225,1.5566 -0.94278,2.35849c-0.15555,-0.31133 -0.3111,-0.62264 -0.47137,-0.9434c0.15555,-0.46697 0.3111,-0.93397 0.47137,-1.41509c-0.46667,0 -0.93332,0 -1.41415,0c-0.703,1.70848 -1.31393,3.43192 -1.88553,5.18868c-0.06802,-0.3016 -0.13611,-0.60319 -0.20621,-0.91392c-0.17563,-0.9613 -0.17563,-0.9613 -0.73654,-1.44457c-0.98694,0.18709 -0.98694,0.18709 -1.88553,0.94339c-0.21961,1.33263 -0.32816,2.49567 -0.35355,3.83255c-0.01398,0.35571 -0.02795,0.71142 -0.04236,1.0779c-0.03332,0.87863 -0.05545,1.75768 -0.0755,2.63672c-0.15555,0 -0.3111,0 -0.47138,0c-0.50156,-6.11845 -0.50156,-6.11845 0.65183,-8.31921c0.8295,-0.94322 1.67242,-1.74046 2.64786,-2.52985c0.42777,-0.38915 0.85556,-0.7783 1.29629,-1.17924c1.06061,-0.70754 1.06061,-0.70754 2.47476,-0.70754z" fill="#6b3e83"/><path d="M247.46604,109.79367c0.14584,0.42319 0.14584,0.42319 0.29462,0.85494c0.93317,1.48562 1.84125,1.8409 3.47644,2.44694c1.64072,0.1709 3.20538,0.28302 4.71381,-0.4717c0.31113,-0.46698 0.62225,-0.93397 0.94278,-1.4151c-0.15558,0.93397 -0.3111,1.86792 -0.47137,2.83019c0.3111,0.15565 0.62222,0.31132 0.94275,0.47169c-8.73563,0.45163 -8.73563,0.45163 -12.25595,-2.35849c-0.15555,0.46698 -0.3111,0.93397 -0.47137,1.41509c0,-0.62264 0,-1.24529 0,-1.88679c0.7778,-0.15565 1.55557,-0.31133 2.3569,-0.4717c0.15558,-0.46697 0.31113,-0.93397 0.47141,-1.41508z" fill="#7a4c92"/><path d="M217.29755,106.49178c2.17777,0 4.35556,0 6.59933,0c0,0.15565 0,0.31132 0,0.47169c-2.02222,0 -4.04446,0 -6.12796,0c0,0.31132 0,0.62265 0,0.94341c0.73282,-0.01642 0.73282,-0.01642 1.48044,-0.03317c0.64569,-0.00885 1.29138,-0.01743 1.93707,-0.02579c0.32144,-0.0079 0.64288,-0.01581 0.97409,-0.02396c3.1517,-0.03062 3.1517,-0.03062 4.56467,1.02631c0.15558,0.46698 0.3111,0.93398 0.47137,1.4151c1.17734,0.80133 1.17734,0.80133 2.35693,1.41509c-0.46668,0.23349 -0.46668,0.23349 -0.94278,0.47169c-1.23737,-0.44221 -1.23737,-0.44221 -2.3569,-0.9434c0,-0.31132 0,-0.62264 0,-0.94339c-2.33337,-0.15565 -4.66672,-0.31132 -7.07074,-0.47169c0,-0.15566 0,-0.31133 0,-0.47171c1.55554,-0.15565 3.11111,-0.31131 4.71381,-0.47169c-2.33334,-0.15565 -4.66669,-0.31133 -7.07074,-0.4717c0.15558,-0.62265 0.31113,-1.24528 0.47141,-1.88679z" fill="#422e48"/><path d="M278.1059,152.24649c0.3111,0 0.62222,0 0.94278,0c0,6.38208 0,12.76415 0,19.33963c-0.15558,0 -0.31113,0 -0.4714,0c-0.02609,-0.47348 -0.05219,-0.94696 -0.07904,-1.43478c-0.0976,-1.7627 -0.19739,-3.52522 -0.29785,-5.28773c-0.04309,-0.76171 -0.08563,-1.52346 -0.1275,-2.28525c-0.06046,-1.09724 -0.12308,-2.19431 -0.1861,-3.2914c-0.01819,-0.33863 -0.03638,-0.67726 -0.05511,-1.02617c-0.08173,-1.39182 -0.19553,-2.70532 -0.50754,-4.06635c-0.05313,-0.3315 -0.10623,-0.66299 -0.16101,-1.00455c0.31113,-0.31132 0.62225,-0.62264 0.94278,-0.9434z" fill="#663e7b"/><path d="M245.1091,112.15215c1.3768,0.22044 2.06976,0.59995 3.24075,1.41509c2.5513,1.54863 5.64453,1.33462 8.54382,1.4151c0,0.31132 0,0.62264 0,0.94339c-7.93433,0.99246 -7.93433,0.99246 -10.39987,-0.82547c-0.84149,-0.75914 -0.84149,-0.75914 -1.3847,-1.53302c0,-0.46697 0,-0.93397 0,-1.41509z" fill="#1a0f20"/><path d="M236.15284,116.39744c1.64349,1.09639 1.82236,1.66155 2.47476,3.47877c0.16772,0.45117 0.33542,0.90234 0.50821,1.36719c0.31671,1.28611 0.31671,1.28611 -0.15466,3.17291c-0.3111,-1.40095 -0.62222,-2.80189 -0.94278,-4.24529c-0.3111,0 -0.62222,0 -0.94275,0c0.15433,0.52049 0.30869,1.04099 0.46768,1.57724c0.59769,2.39232 0.58032,4.69641 0.534,7.14918c-0.00424,0.43293 -0.00851,0.86586 -0.01288,1.31191c-0.01099,1.05654 -0.02646,2.11281 -0.04605,3.16922c-0.15555,0 -0.3111,0 -0.47137,0c-0.01761,-0.55271 -0.03525,-1.10543 -0.05341,-1.6749c-0.1503,-3.81569 -0.39615,-7.26637 -1.56513,-10.92829c-0.39709,-1.60036 -0.18329,-2.79096 0.20438,-4.37794z" fill="#4e3b53"/><path d="M228.13935,148.47291c-0.15558,0.7783 -0.3111,1.5566 -0.47138,2.35849c-0.89212,0.31892 -1.78616,0.63232 -2.681,0.9434c-0.74649,0.26268 -0.74649,0.26268 -1.50806,0.53066c-1.36557,0.38404 -2.41834,0.49627 -3.82446,0.41273c0,-0.15565 0,-0.31133 0,-0.4717c-1.39999,-0.15565 -2.80002,-0.31132 -4.24243,-0.4717c0,-0.15565 0,-0.31132 0,-0.47169c2.48889,0 4.97778,0 7.54211,0c0,-0.31132 0,-0.62265 0,-0.9434c0.68643,-0.31661 1.37412,-0.63058 2.06229,-0.9434c0.38284,-0.17512 0.76563,-0.35024 1.16006,-0.53066c1.02008,-0.41273 1.02008,-0.41273 1.96286,-0.41273z" fill="#3c2e3a"/><path d="M233.32456,111.68046c1.99109,0.64204 3.03049,1.48814 4.38974,3.06603c0.32873,0.37457 0.65747,0.74912 0.99615,1.13503c0.74206,0.98762 0.74206,0.98762 0.74206,1.93102c-0.46664,0 -0.93332,0 -1.41415,0c0.15558,0.62264 0.3111,1.24529 0.47141,1.88679c-0.94278,-0.4717 -0.94278,-0.4717 -1.26684,-1.44458c-0.78113,-1.74939 -1.91705,-2.90057 -3.22971,-4.27844c-0.68866,-0.88075 -0.68866,-0.88075 -0.68866,-2.29585z" fill="#794a93"/><path d="M237.09562,120.17102c0.3111,0 0.62222,0 0.94275,0c1.60077,3.80437 1.55866,7.25594 1.41415,11.32076c-0.3111,0.15565 -0.62222,0.31132 -0.94275,0.4717c-0.06259,-0.56792 -0.12518,-1.13583 -0.18967,-1.72096c-0.08398,-0.74318 -0.16809,-1.48635 -0.25226,-2.22951c-0.04105,-0.37456 -0.08203,-0.74911 -0.1243,-1.13502c-0.18982,-2.00062 -0.18982,-2.00062 -0.84793,-3.87677c-0.01886,-0.94322 -0.02048,-1.88701 0,-2.83019z" fill="#0e0711"/><path d="M207.3985,149.41631c0.46668,0.15565 0.93332,0.31132 1.41415,0.47169c0,0.31132 0,0.62265 0,0.9434c2.79678,0.99244 5.57541,1.77345 8.48489,2.35849c-0.15558,0.46698 -0.3111,0.93397 -0.47141,1.4151c0,-0.31133 0,-0.62265 0,-0.9434c-0.53473,0.01946 -1.06943,0.03891 -1.62036,0.05896c-2.21851,0.00795 -4.25455,-0.44754 -6.39313,-1.00236c-0.3111,0.46697 -0.62222,0.93397 -0.94278,1.41509c-0.15555,-1.5566 -0.3111,-3.11321 -0.47138,-4.71698z" fill="#754090"/><path d="M250.29432,114.51064c2.48892,0 4.97781,0 7.54215,0c0,0.46698 0,0.93397 0,1.41509c1.63333,-0.23348 1.63333,-0.23348 3.29965,-0.47169c-3.01846,2.01366 -7.31778,1.48262 -10.8418,1.41509c-0.15555,-0.31132 -0.3111,-0.62264 -0.47137,-0.9434c2.33334,0 4.66669,0 7.07074,0c0,-0.31132 0,-0.62264 0,-0.94339c-2.1778,0 -4.35556,0 -6.59936,0c0,-0.15566 0,-0.31133 0,-0.4717z" fill="#3d254a"/><path d="M235.21009,68.18548c0,0.15565 0,0.31132 0,0.47169c-0.26798,0.02432 -0.53595,0.04864 -0.81204,0.0737c-2.827,0.4156 -4.30765,1.31447 -6.08194,3.55432c-1.00735,1.69246 -1.37082,3.39246 -1.59091,5.33424c-0.15558,0 -0.3111,0 -0.47137,0c-0.19598,-3.20346 0.54507,-5.31335 2.32745,-7.9599c1.88721,-1.94572 4.06186,-1.51688 6.62882,-1.47406z" fill="#992771"/><path d="M242.28083,133.85027c1.39999,0.23349 1.39999,0.23349 2.82828,0.4717c0.55423,1.73306 0.50613,3.38174 0.47141,5.18867c-0.87573,-1.47876 -1.03772,-2.53525 -0.94278,-4.24528c-0.3111,0 -0.62222,0 -0.94275,0c-0.10696,0.30159 -0.2139,0.60318 -0.3241,0.91391c-0.61868,0.97288 -0.61868,0.97288 -1.85605,1.32665c-0.55417,0.05837 -0.55417,0.05837 -1.11954,0.11793c0.53006,-1.40185 1.04785,-2.51623 1.88553,-3.77359z" fill="#291633"/><path d="M245.40372,173.1781c0.52502,0.09729 1.04999,0.19458 1.59091,0.2948c0,0.15567 0,0.31134 0,0.47171c-1.08887,0 -2.17777,0 -3.29965,0c-0.11728,0.27058 -0.23456,0.54117 -0.35538,0.81995c-0.67313,1.22257 -1.4545,2.05982 -2.44348,3.04208c-0.48764,0.49161 -0.48764,0.49161 -0.98511,0.99313c-0.92987,0.80521 -0.92987,0.80521 -2.34402,1.27692c1.28021,-3.01265 4.32638,-6.93623 7.83673,-6.89859z" fill="#b22d82"/><path d="M228.61072,155.07668c-1.41415,0.9434 -1.41415,0.9434 -2.79883,1.50354c-1.90234,1.12662 -2.36642,2.19306 -3.32913,4.15684c-0.15558,0 -0.31113,0 -0.47141,0c-0.14813,-3.26145 -0.14813,-3.26145 0.94278,-4.71698c1.86343,-1.06553 3.54599,-1.02623 5.65659,-0.9434z" fill="#9d4b3b"/><path d="M247.93741,156.02008c4.78534,-0.15319 9.0567,-0.07926 13.67011,1.41509c0,0.15565 0,0.31133 0,0.47169c-4.58371,-0.29845 -9.11868,-0.8129 -13.67011,-1.41509c0,-0.15566 0,-0.31132 0,-0.4717z" fill="#8f4538"/><path d="M263.96442,118.28423c1.22092,-0.1177 2.3186,-0.15435 3.53537,-0.11793c0.32507,0.00243 0.65018,0.00487 0.98511,0.00737c2.40427,0.03751 2.40427,0.03751 3.49304,0.58225c0,0.31133 0,0.62264 0,0.9434c-2.9556,0 -5.91113,0 -8.9563,0c0.31113,-0.46698 0.62225,-0.93397 0.94278,-1.41509z" fill="#0f0813"/><path d="M263.96442,115.92574c-0.15558,0.46698 -0.3111,0.93397 -0.47137,1.4151c-0.90778,0.36114 -0.90778,0.36114 -2.03284,0.58962c-0.55142,0.1204 -0.55142,0.1204 -1.11401,0.24322c-1.13168,0.1142 -1.90549,-0.01631 -2.98114,-0.36114c2.08639,-2.15513 3.78058,-2.10802 6.59936,-1.8868z" fill="#120a17"/><path d="M222.95414,100.83141c0.3111,0.15565 0.62222,0.31131 0.94275,0.47169c-0.3111,0.31133 -0.62222,0.62264 -0.94275,0.94339c0.62222,0.15566 1.24445,0.31133 1.88553,0.4717c-1.0249,1.17943 -1.75848,1.6209 -3.29968,1.8868c0,-0.46698 0,-0.93396 0,-1.41509c-0.93332,0.15565 -1.8667,0.31131 -2.82831,0.47169c1.20032,-1.40128 2.556,-2.11206 4.24246,-2.83018z" fill="#501a4b"/><path d="M252.17984,126.77479c0.46668,0 0.93335,0 1.41415,0c-0.33945,2.17384 -1.0903,4.09074 -1.88553,6.13207c-0.15555,-0.46697 -0.3111,-0.93397 -0.47137,-1.41509c-0.3111,0 -0.62222,0 -0.94278,0c0.47232,-1.78916 0.85333,-3.16763 1.88553,-4.71698z" fill="#170e1b"/><path d="M238.03836,127.24649c0.15558,0 0.3111,0 0.47141,0c0.15555,1.40095 0.3111,2.8019 0.47138,4.24529c0.15555,0 0.3111,0 0.47137,0c-0.15555,1.40095 -0.3111,2.80189 -0.47137,4.24528c-0.46668,0.15566 -0.93332,0.31133 -1.41415,0.4717c0.15558,-2.95754 0.3111,-5.91509 0.47137,-8.96227z" fill="#1c131f"/><path d="M209.28403,148.47291c2.10001,0.93397 2.10001,0.93397 4.24246,1.8868c-0.46668,0.15565 -0.93335,0.31132 -1.41415,0.47169c0,0.31133 0,0.62265 0,0.9434c0.62222,0.15566 1.24445,0.31133 1.88553,0.4717c-0.46667,0.23349 -0.46667,0.23349 -0.94278,0.4717c-1.02008,-0.36668 -1.02008,-0.36668 -2.18014,-0.91392c-0.38522,-0.17938 -0.77048,-0.35875 -1.16739,-0.54356c-0.44296,-0.21252 -0.44296,-0.21252 -0.8949,-0.42932c0.46668,-0.15565 0.93332,-0.31132 1.41415,-0.47169c0,-0.31133 0,-0.62265 0,-0.9434c-0.3111,0 -0.62225,0 -0.94278,0c0,-0.31133 0,-0.62264 0,-0.9434z" fill="#332239"/><path d="M252.17984,125.3597c0.46668,0 0.93335,0 1.41415,0c0,0.31132 0,0.62264 0,0.9434c0.3111,0.15565 0.62222,0.31132 0.94278,0.47169c-0.3111,0.7783 -0.62225,1.5566 -0.94278,2.35849c-0.15555,-0.31133 -0.3111,-0.62264 -0.47137,-0.9434c0.15555,-0.46697 0.3111,-0.93397 0.47137,-1.41509c-0.46667,0 -0.93332,0 -1.41415,0c-0.3111,0.7783 -0.62222,1.5566 -0.94275,2.35849c-0.15558,-0.31133 -0.3111,-0.62264 -0.47137,-0.9434c-0.62225,0.15566 -1.24448,0.31133 -1.88556,0.4717c1.09988,-1.10064 2.1998,-2.20126 3.29968,-3.30189z" fill="#563863"/><path d="M257.36506,119.69932c0,0.31132 0,0.62264 0,0.9434c-1.39999,0.7783 -2.80002,1.55659 -4.24243,2.35849c0,-0.31133 0,-0.62265 0,-0.9434c-0.62222,0 -1.24445,0 -1.88553,0c0.15555,-0.62264 0.3111,-1.24529 0.47137,-1.8868c0,0.46698 0,0.93397 0,1.41509c0.37552,-0.20431 0.37552,-0.20431 0.75864,-0.41273c0.33298,-0.17511 0.66599,-0.35023 1.00906,-0.53065c0.32813,-0.17512 0.65625,-0.35023 0.99432,-0.53066c1.00903,-0.41273 1.00903,-0.41273 2.89456,-0.41273z" fill="#6f4087"/><path d="M249.82294,98.47292c4.04041,-0.06738 4.04041,-0.06738 5.65659,0.4717c0,0.31132 0,0.62264 0,0.94339c-0.62222,0 -1.24444,0 -1.88553,0c0.15558,0.46698 0.3111,0.93398 0.47137,1.4151c-2.10001,-0.46698 -2.10001,-0.46698 -4.24243,-0.94341c0.46667,-0.31131 0.93332,-0.62264 1.41415,-0.94339c-0.46668,-0.31132 -0.93332,-0.62265 -1.41415,-0.94339z" fill="#3b1335"/><path d="M216.82614,104.13329c1.01459,0.16951 1.01459,0.16951 1.88553,0.4717c-0.83118,0.71173 -1.66675,1.41832 -2.50421,2.12265c-0.46484,0.39401 -0.92969,0.78803 -1.40863,1.19398c-1.27234,0.92865 -1.27234,0.92865 -2.68649,0.92865c0,-0.31133 0,-0.62265 0,-0.94339c0.78564,-0.4717 1.57126,-0.94341 2.3569,-1.4151c0.59793,-0.64209 0.59793,-0.64209 1.20792,-1.29717c0.37918,-0.35023 0.75836,-0.70047 1.14899,-1.06133z" fill="#3c1130"/><path d="M251.70847,123.47291c0.3111,0.15565 0.62222,0.31133 0.94278,0.4717c-1.29633,2.77122 -1.29633,2.77122 -2.35693,3.30188c0,-0.31132 0,-0.62264 0,-0.94339c-0.36945,0.24322 -0.73889,0.48644 -1.11954,0.73702c-0.40832,0.22376 -0.81665,0.44753 -1.23737,0.67807c-0.3111,-0.15565 -0.62222,-0.31133 -0.94278,-0.4717c1.55557,-1.24528 3.11111,-2.49056 4.71384,-3.77358z" fill="#311a3d"/><path d="M258.77921,122.05782c0.3111,0.15565 0.62222,0.31133 0.94278,0.4717c-3.35336,4.07122 -3.35336,4.07122 -5.65662,5.18868c0.69635,-1.62832 1.62061,-2.66492 2.88724,-3.89151c0.34146,-0.33322 0.68298,-0.66642 1.03482,-1.00973c0.26129,-0.25052 0.52258,-0.50104 0.79178,-0.75914z" fill="#c9acc4"/><path d="M243.22358,120.64272c1.67651,1.67764 2.33081,3.23326 2.44531,5.60141c-0.02918,0.48644 -0.05835,0.97288 -0.08838,1.47406c0.46664,0.15565 0.93332,0.31133 1.41412,0.47169c-0.62222,0 -1.24445,0 -1.88553,0c-0.31775,-0.90285 -0.63119,-1.80724 -0.94275,-2.71227c-0.17502,-0.50346 -0.35001,-1.00692 -0.5303,-1.52564c-0.41248,-1.42247 -0.41248,-1.42247 -0.41248,-3.30926z" fill="#4f2d61"/><path d="M255.47953,111.20876c0.15558,0.62265 0.3111,1.24529 0.47138,1.8868c-1.51526,0.75815 -3.03384,0.49882 -4.71381,0.4717c0,-0.46697 0,-0.93397 0,-1.41509c0.9667,-0.10749 1.93341,-0.21496 2.90012,-0.32245c0.87631,-0.06381 0.87631,-0.06381 1.34231,-0.62095z" fill="#170d1c"/><path d="M224.36829,105.07668c1.08887,0.15565 2.17777,0.31132 3.29968,0.47171c0.06802,0.29185 0.13611,0.58371 0.20621,0.88443c0.23288,1.01773 0.23288,1.01773 0.73654,1.94575c-1.55554,-0.46698 -3.11111,-0.93398 -4.71384,-1.4151c0.46668,-0.31132 0.93335,-0.62264 1.41415,-0.94339c-0.3111,-0.31133 -0.62222,-0.62265 -0.94275,-0.9434z" fill="#22122b"/><path d="M246.52326,142.81253c0.15558,0.62264 0.3111,1.24529 0.47138,1.88679c-0.93332,0.46697 -0.93332,0.46697 -1.88553,0.9434c0,1.55659 0,3.1132 0,4.71698c0.7778,0 1.55557,0 2.35693,0c0,0.15565 0,0.31132 0,0.47169c-0.93335,0 -1.8667,0 -2.82831,0c0,-2.02359 0,-4.04716 0,-6.13207c0.62222,-0.15565 1.24445,-0.31132 1.88553,-0.4717c0,-0.46697 0,-0.93397 0,-1.41509z" fill="#2a1933"/><path d="M238.50977,136.68046c0.15555,0.46697 0.3111,0.93397 0.47138,1.41509c0.3111,0.15565 0.62222,0.31133 0.94275,0.4717c-1.08887,1.40095 -2.17777,2.80189 -3.29965,4.24528c-0.47141,-1.41509 -0.47141,-1.41509 -0.00186,-2.58513c0.22421,-0.42137 0.44846,-0.84276 0.67947,-1.2769c0.22299,-0.42503 0.44598,-0.85005 0.67575,-1.28796c0.17563,-0.32409 0.35123,-0.64818 0.53216,-0.98209z" fill="#653c7b"/><path d="M253.594,99.888c1.0889,0 2.1778,0 3.29968,0c0.3111,0.62265 0.62222,1.2453 0.94278,1.8868c-2.65155,0.11792 -2.65155,0.11792 -4.24246,-0.94339c0,-0.31133 0,-0.62265 0,-0.94341z" fill="#160a1a"/><path d="M242.28083,145.64272c0.3111,0.15565 0.62222,0.31132 0.94275,0.47169c-0.60538,1.35143 -1.13886,2.43126 -2.3569,3.30189c-1.50253,0.08844 -1.50253,0.08844 -2.82831,0c0.15558,-0.31133 0.3111,-0.62264 0.47141,-0.9434c0.93332,0.23349 0.93332,0.23349 1.88553,0.4717c0.07291,-0.4232 0.07291,-0.4232 0.14731,-0.85496c0.36591,-1.16506 0.82886,-1.65566 1.73822,-2.44693z" fill="#653e79"/><path d="M240.3953,140.45404c0.15555,0.31132 0.3111,0.62264 0.47137,0.9434c-0.15558,0.31132 -0.3111,0.62264 -0.47137,0.9434c0.3111,0.15565 0.62222,0.31132 0.94275,0.4717c-0.46664,0 -0.93332,0 -1.41415,0c-0.3111,0.62264 -0.62222,1.24529 -0.94275,1.88679c-0.3111,0 -0.62222,0 -0.94278,0c-0.46664,0.31132 -0.93332,0.62264 -1.41412,0.9434c0.64282,-1.41142 1.39014,-2.49541 2.41583,-3.65566c0.25397,-0.28943 0.50797,-0.57886 0.76968,-0.87707c0.28983,-0.32469 0.28983,-0.32469 0.58554,-0.65595z" fill="#5c3570"/><path d="M239.45252,139.98235c0.15558,0.46697 0.3111,0.93397 0.47138,1.41509c-0.77777,0.7783 -1.55554,1.55659 -2.3569,2.35849c0,-0.31133 0,-0.62264 0,-0.9434c-0.3111,-0.15565 -0.62222,-0.31133 -0.94275,-0.4717c1.23736,-1.82783 1.23736,-1.82783 2.82828,-2.35849z" fill="#180d1e"/><path d="M241.33805,117.34084c1.17865,1.02559 1.61981,1.75965 1.88553,3.30189c-0.3111,0 -0.62222,0 -0.94275,0c-0.3111,0.31132 -0.62222,0.62264 -0.94278,0.94339c-0.46664,-1.08961 -0.93332,-2.17924 -1.41415,-3.30188c0.46668,0 0.93335,0 1.41415,0c0,-0.31133 0,-0.62265 0,-0.9434z" fill="#2a1833"/><path d="M237.09562,134.32197c0.15555,0.62264 0.3111,1.24528 0.47138,1.88679c0.46668,-0.15565 0.93332,-0.31132 1.41415,-0.4717c-0.3111,1.08962 -0.62222,2.17925 -0.94278,3.30189c-0.3111,-0.46698 -0.62222,-0.93397 -0.94275,-1.41509c-0.3111,0.46697 -0.62222,0.93397 -0.94278,1.41509c0.21603,-1.63652 0.42013,-3.1481 0.94278,-4.71698z" fill="#36273b"/><path d="M237.09562,114.51064c0.80551,0.76576 1.59064,1.55339 2.3569,2.35849c0,0.31133 0,0.62265 0,0.9434c-0.46664,0 -0.93332,0 -1.41415,0c0.15558,0.62264 0.3111,1.24529 0.47141,1.88679c-0.3111,-0.15565 -0.62225,-0.31132 -0.94278,-0.4717c-0.19519,-1.0779 -0.19519,-1.0779 -0.29462,-2.38797c-0.03525,-0.43353 -0.0705,-0.86707 -0.10678,-1.31375c-0.0231,-0.33503 -0.0462,-0.67006 -0.06998,-1.01526z" fill="#6f4387"/><path d="M243.69498,135.26537c0.3111,0 0.62222,0 0.94275,0c0.15558,1.40094 0.3111,2.80189 0.47137,4.24528c-0.46664,-0.46697 -0.93332,-0.93397 -1.41412,-1.41509c-0.93335,0.46698 -0.93335,0.46698 -1.88556,0.9434c0.62851,-1.25786 1.25705,-2.51573 1.88556,-3.77358z" fill="#6a3a83"/><path d="M210.22681,95.64272c0.46665,0.15565 0.93332,0.31133 1.41412,0.47171c-0.3111,0.31131 -0.62222,0.62263 -0.94275,0.94339c-0.01041,1.26327 -0.01041,1.26327 0.17676,2.6533c0.05225,0.47307 0.10452,0.94611 0.15835,1.43352c0.04498,0.36362 0.08994,0.72722 0.13626,1.10185c-1.21814,-1.40178 -1.59332,-2.2412 -1.53198,-4.09787c0.00726,-0.37152 0.01459,-0.74304 0.02209,-1.12581c0.09573,-0.90839 0.09573,-0.90839 0.56714,-1.3801z" fill="#f945ca"/><path d="M235.21009,146.58611c0,0.46698 0,0.93397 0,1.4151c-0.3111,0.31132 -0.62222,0.62264 -0.94278,0.9434c-0.30286,0.97581 -0.30286,0.97581 -0.47137,1.88679c-0.62222,-0.15565 -1.24445,-0.31132 -1.88553,-0.47169c0.65088,-1.95398 1.69617,-2.51039 3.29968,-3.77359z" fill="#61317b"/><path d="M238.50977,143.75593c0.61856,1.85693 0.11453,2.88909 -0.47141,4.71698c-0.12637,-0.30159 -0.25278,-0.60318 -0.38299,-0.91392c-0.50632,-1.12916 -0.50632,-1.12916 -1.97391,-1.44457c0.93332,-0.7783 1.8667,-1.55659 2.82831,-2.35849z" fill="#6f4386"/><path d="M226.25382,97.52951c0.3111,0.15565 0.62222,0.31132 0.94275,0.47169c-1.47363,1.60103 -2.62344,2.64447 -4.71381,3.3019c0,-0.31132 0,-0.62265 0,-0.94341c0.82492,-0.71123 0.82492,-0.71123 1.88553,-1.47404c0.34998,-0.25417 0.69998,-0.50835 1.06061,-0.7702c0.27222,-0.19336 0.54446,-0.38672 0.82492,-0.58594z" fill="#ea3fb6"/><path d="M207.3985,149.41631c0.46668,0.15565 0.93332,0.31132 1.41415,0.47169c0,0.31132 0,0.62265 0,0.9434c0.3111,0.15565 0.62222,0.31133 0.94275,0.4717c-0.46664,0 -0.93332,0 -1.41412,0c0,0.93397 0,1.86792 0,2.83019c-0.98685,-1.60469 -1.02738,-2.85506 -0.94278,-4.71698z" fill="#5d2d76"/><path d="M212.11234,150.8314c1.0889,0 2.17777,0 3.29968,0c0,0.62265 0,1.24529 0,1.8868c-1.12454,-0.27162 -2.19986,-0.57655 -3.29968,-0.9434c0,-0.31132 0,-0.62264 0,-0.9434z" fill="#1e1520"/><path d="M246.52326,138.09555c0.3111,0 0.62222,0 0.94278,0c0.15555,1.24529 0.3111,2.49056 0.47137,3.77358c-0.3111,-0.31132 -0.62222,-0.62264 -0.94278,-0.9434c-0.3111,0.31132 -0.62222,0.62265 -0.94275,0.9434c-0.29462,-1.0908 -0.29462,-1.0908 -0.47138,-2.35849c0.3111,-0.46697 0.62222,-0.93397 0.94275,-1.41509z" fill="#271630"/><path d="M271.97794,113.09555c0.94275,0.82547 0.94275,0.82547 1.88553,1.8868c0,0.62264 0,1.24528 0,1.88679c-1.24448,-0.31132 -2.48892,-0.62264 -3.77109,-0.9434c1.88556,-0.47169 1.88556,-0.47169 2.82831,0c-0.3111,-0.93396 -0.62222,-1.86792 -0.94275,-2.83018z" fill="#48245c"/><path d="M210.22681,109.79367c0.3111,0.15564 0.62222,0.31132 0.94275,0.47169c-1.39999,1.16745 -1.39999,1.16745 -2.82828,2.35849c0,-0.46698 0,-0.93397 0,-1.4151c0.94275,-0.79599 0.94275,-0.79599 1.88553,-1.41508zM206.92713,112.62385c0,0.46697 0,0.93397 0,1.41509c-0.46668,0 -0.93335,0 -1.41415,0c0.46667,-0.46698 0.93332,-0.93397 1.41415,-1.41509z" fill="#020003"/><path d="M237.09562,120.17102c0.3111,0 0.62222,0 0.94275,0c0.3111,1.24529 0.62225,2.49057 0.94278,3.77359c-0.46668,0 -0.93332,0 -1.41415,0c-0.63843,-1.27774 -0.50201,-2.3629 -0.47138,-3.77359z" fill="#140b18"/><path d="M271.97794,119.22762c0.78973,0.13493 1.57623,0.29142 2.3569,0.4717c0.15555,0.7783 0.3111,1.5566 0.47137,2.35849c-1.72201,-0.58951 -2.25351,-0.7882 -3.29968,-2.35849c0.15558,-0.15565 0.3111,-0.31132 0.4714,-0.4717z" fill="#231925"/><path d="M237.09562,137.15215c0.15555,0 0.3111,0 0.47138,0c0,0.93397 0,1.86792 0,2.83019c-0.7778,0.15565 -1.55554,0.31132 -2.3569,0.4717c0.15555,-0.46697 0.3111,-0.93397 0.47137,-1.41509c0.3111,0 0.62222,0 0.94278,0c0.15555,-0.62264 0.3111,-1.24529 0.47137,-1.8868z" fill="#1a111d"/><path d="M268.20685,115.92574c1.0889,0 2.1778,0 3.29968,0c-0.15555,0.46698 -0.3111,0.93397 -0.47137,1.4151c-0.93332,0 -1.8667,0 -2.82831,0c0,-0.46698 0,-0.93397 0,-1.4151z" fill="#150a1a"/><path d="M247.46604,109.79367c0.3111,0.62264 0.62222,1.24528 0.94275,1.88679c-0.46664,0.23349 -0.46664,0.23349 -0.94275,0.47169c-0.15558,0.31133 -0.3111,0.62264 -0.47141,0.9434c-0.62222,-0.31133 -1.24445,-0.62264 -1.88553,-0.9434c-0.15555,0.46698 -0.3111,0.93397 -0.47137,1.41509c0,-0.62264 0,-1.24529 0,-1.88679c0.7778,-0.15565 1.55557,-0.31133 2.3569,-0.4717c0.15558,-0.46697 0.31113,-0.93397 0.47141,-1.41508z" fill="#633d77"/><path d="M248.88016,148.00121c1.31927,1.1924 2.10129,1.98306 2.35693,3.77358c-1.41415,-0.47169 -1.41415,-0.47169 -2.35693,-1.88679c0,-0.62264 0,-1.24528 0,-1.88679z" fill="#572e6c"/><path d="M257.83646,118.28423c0.3111,0.15565 0.62222,0.31132 0.94275,0.47169c-0.15555,0.31133 -0.3111,0.62264 -0.47138,0.9434c0.7778,-0.15565 1.55554,-0.31132 2.3569,-0.4717c-0.15555,0.31133 -0.3111,0.62265 -0.47137,0.9434c-1.4436,0.29481 -1.4436,0.29481 -2.82831,0.4717c0,-0.31133 0,-0.62265 0,-0.9434c-0.3111,-0.15565 -0.62222,-0.31132 -0.94275,-0.4717c0.46664,-0.31132 0.93332,-0.62264 1.41415,-0.94339z" fill="#5d3671"/><path d="M242.7522,136.68046c-0.3111,0.7783 -0.62222,1.55659 -0.94278,2.35849c-1.41412,0 -1.41412,0 -2.3569,-0.4717c1.80356,-1.88679 1.80356,-1.88679 3.29968,-1.88679z" fill="#1a0e21"/><path d="M257.36506,119.69932c0,0.31132 0,0.62264 0,0.9434c-1.41415,0.94339 -1.41415,0.94339 -2.44528,0.76651c-0.28195,-0.09728 -0.56387,-0.19458 -0.8544,-0.29482c1.17868,-1.41534 1.29059,-1.41509 3.29968,-1.41509z" fill="#834ea0"/></g></g></svg>