<svg version="1.1" xmlns="http://www.w3.org/2000/svg" xmlns:xlink="http://www.w3.org/1999/xlink" width="510.70155" height="210.79341" viewBox="0,0,510.70155,210.79341"><g transform="translate(14.1457,-96.59588)"><g data-paper-data="{&quot;isPaintingLayer&quot;:true}" fill-rule="nonzero" stroke="none" stroke-linecap="butt" stroke-linejoin="miter" stroke-miterlimit="10" stroke-dasharray="" stroke-dashoffset="0" style="mix-blend-mode: normal"><path d="M-11.91711,195.43439c-0.37232,-0.24644 -0.69495,-0.67358 -0.69495,-1.41386c0,-1.75 1.80301,-1.75 1.80301,-1.75c7.92696,0 15.81341,-2.15313 23.77561,-1.34299c8.99006,0.91472 17.69083,4.71975 26.46539,6.75045c7.01418,-0.02498 13.51757,-0.53869 20.41939,-1.34748c4.71441,-0.55246 9.14916,-2.90349 13.94081,-3.37698c7.65401,-0.75634 15.35056,-0.683 23.10965,-0.683c6.11196,0 12.49447,-0.45225 18.47372,-1.32636c1.78552,-0.26102 3.57874,0.47246 5.37347,0.66499c3.05495,0.32771 6.96035,0.29874 10.02567,-0.00459c1.86334,-0.18439 3.60103,-1.03344 5.44812,-1.33487c5.77531,-0.94249 11.72855,-1.59477 17.48387,-2.71199c1.83014,0.00766 3.64127,-0.37789 5.44812,-0.6604c1.55955,-0.24384 3.21038,0.41108 4.73893,0.02422c1.00239,-0.25369 1.76829,-1.13127 2.77963,-1.34895c1.86472,-0.40137 3.79296,-0.4428 5.6847,-0.6987c6.95457,-0.94075 14.83027,-0.0226 21.83098,-0.0226c6.40768,0 14.02773,0.02805 19.55469,3.55034c6.61008,2.08353 12.79948,2.34589 19.60738,3.21097c1.88505,0.23953 3.64595,1.11638 5.53238,1.34554c6.74343,0.81921 13.77364,-0.45885 20.50081,-0.6503c6.9015,-0.19642 13.48269,0.60874 20.25397,1.83678c10.39763,4.05295 20.95652,4.69535 32.02468,3.61103c1.88952,-0.18511 3.87868,0.51664 5.69735,-0.01418c0.79979,-0.23344 1.28161,-1.12652 2.08473,-1.34895c0.92573,-0.25639 1.95221,0.19153 2.88787,-0.02828c1.95703,-0.45974 3.4782,-2.03189 5.38837,-2.65c4.33146,-1.4016 9.78132,-2.10561 14.30565,-2.10964c4.13032,-0.81215 8.15916,-2.50795 12.20619,-3.29788c2.00811,-0.39195 4.19468,0.05981 6.10845,-0.6488c1.03568,-0.38348 1.91544,-1.15037 2.99094,-1.41084c0.96177,-0.23293 1.9897,0.08349 2.97358,-0.0337c1.65109,-0.19667 3.14908,-1.11116 4.79585,-1.33947c2.38859,-0.33114 4.59484,-0.30638 6.94909,-0.67448c8.14402,-1.27337 15.54218,3.29671 23.45365,3.36445c17.84737,4.25882 36.26526,4.03221 54.66492,4.03221c2.05905,0 4.60788,0.32434 6.66028,0.02259c1.4596,-0.21459 2.5346,-1.51986 3.93577,-1.97094c1.4131,-0.45491 2.93328,-0.49715 4.40313,-0.72697c4.03502,-0.6309 8.70489,-0.02259 12.79717,-0.02259c3.39683,0 9.81532,-0.11566 11.39448,3.77821c0.87554,2.1589 0.1322,6.71239 0.11396,9.04375c-1.29687,3.85283 -3.13817,7.95346 -3.46098,12.04166c-0.6948,8.79949 0.00972,17.93492 0.00972,26.76131c0,5.60365 -0.76805,11.76141 -0.02328,17.29252c0.3208,2.38247 0.7182,4.53102 0.7182,7.0251c0,10.36953 1.59768,20.6054 2.76613,30.81216c0.23898,2.08755 2.01732,7.38972 0.39842,9.28866c-2.39361,2.80765 -5.60943,1.99459 -8.5838,1.77355c-4.77746,-0.35503 -9.55635,-0.63576 -14.33948,-0.91415c-24.16101,-1.09787 -48.07108,-0.44395 -72.20789,0.93412c-24.38986,1.39252 -49.13179,0.28687 -73.51743,-0.76853c-24.61396,-1.06529 -49.00848,-0.31735 -73.62068,-0.263c-24.73035,0.04127 -49.42185,-5.00976 -74.07087,-6.20096c-24.67517,-1.19246 -49.08116,-5.07182 -73.71504,-6.52821c-12.35301,-0.84049 -24.66649,-1.57265 -36.97192,-2.60386c-11.18158,-0.93702 -22.71293,-0.17304 -33.93197,-0.17304c-7.4737,0 -14.7289,0.58922 -22.13744,1.31571c-3.27964,0.3216 -7.80022,1.64746 -11.08176,0.57451c-2.75761,-0.90164 -4.4579,-6.1416 -5.15541,-8.40901c-1.40765,-4.57581 -0.7129,-9.46158 -1.4368,-14.13073c-0.27277,-1.75939 -1.27923,-3.37659 -1.4537,-5.1477c-0.19767,-2.0067 -0.42895,-4.09918 -1.35778,-5.90221c-0.03674,-4.15228 -1.59867,-8.06037 -2.75596,-12.05339c-0.5318,-1.83486 -0.51807,-3.77893 -0.75331,-5.67128c-0.53367,-4.29304 -2.30107,-8.48374 -2.77963,-12.81508c-0.46705,-4.22721 0.20802,-8.38236 0.69017,-12.52686c0.31342,-2.69413 -0.37175,-5.51164 0.01451,-8.20161c0.19449,-1.35447 0.69491,-2.6793 0.69491,-4.04687c0.89097,-2.59432 0.67513,-5.02926 0.67167,-7.74851z" fill="#a97f51" stroke-width="0.5"/><g stroke-width="1"><path d="M113.34919,98.74703c2.89394,1.74143 4.17018,2.95653 5.0046,6.29455c0.50292,0 1.00595,0 1.52418,0c2.15216,0.64971 2.21302,0.86662 3.22557,2.72956c1.03899,1.89378 1.75892,2.68242 3.7573,3.50957c2.72805,1.17586 3.98644,2.95334 5.10426,5.67195c0.23704,1.223 0.23704,1.223 0.3545,2.41054c0.01306,2.07418 0.01306,2.07417 1.06117,3.19048c1.64844,2.3295 1.18789,5.28286 0.85292,8.01167c-0.61709,1.64068 -1.39166,3.0099 -2.26857,4.5375c0.18715,0.37438 0.37436,0.74869 0.56718,1.13443c0.35166,3.38183 -0.12099,5.48416 -1.70139,8.50792c0.15771,1.35778 0.15771,1.35778 0.56712,2.83597c0.05751,1.70257 0.03337,3.4017 0,5.10477c0.35971,0.16815 0.71937,0.3363 1.08996,0.50959c1.51816,0.8048 1.79571,1.25565 2.31291,2.89356c0.29407,3.64666 -0.06964,5.94614 -2.45914,8.86685c-2.86245,2.89067 -6.08731,3.23702 -10.01796,3.6114c-0.19302,0.94756 -0.19302,0.94758 -0.38989,1.91431c-0.46432,1.89682 -1.13393,3.40758 -2.09136,5.10477c-3.43985,6.7171 -4.03773,14.02904 -3.77354,21.46087c0.10903,3.44546 -0.03939,6.78426 -1.11803,10.08933c-1.16975,0.88622 -1.16979,0.88622 -2.83569,1.13436c-0.36334,0.0592 -0.72675,0.11847 -1.10106,0.17947c-8.94143,1.26376 -8.94141,1.26378 -11.16777,-0.23604c-1.163,-1.61645 -0.95722,-2.92389 -0.92161,-4.89527c0.004,-0.37618 0.00805,-0.75239 0.01218,-1.13989c0.00921,-0.80351 0.0222,-1.60694 0.03851,-2.41032c0.04092,-2.07484 0.05174,-4.14986 0.06669,-6.22504c0.0037,-0.40323 0.00725,-0.80641 0.01101,-1.22185c0.0626,-7.58023 0.10171,-15.4054 -3.95219,-22.05307c0,-0.37438 0,-0.74869 0,-1.13443c-0.76108,0.09111 -0.76108,0.09111 -1.53746,0.18394c-4.957,0.49145 -9.31643,0.68099 -13.49176,-2.34634c-1.01787,-1.48458 -1.5131,-2.91352 -1.98494,-4.64393c-2.1322,1.34683 -2.76417,1.95172 -3.33198,4.46664c-0.07603,0.3912 -0.15204,0.78234 -0.23039,1.18537c-0.74991,2.12365 -2.49764,3.41111 -4.37762,4.55753c-1.93528,0.68645 -3.84391,0.66164 -5.88407,0.67352c-0.62434,0.00805 -1.24868,0.01603 -1.89196,0.02437c-1.93047,-0.13528 -3.46713,-0.57667 -5.26819,-1.26514c-0.23792,0.73598 -0.2379,0.73597 -0.48078,1.48668c-0.6192,1.81578 -1.31477,3.57788 -2.03594,5.35517c-1.43598,3.71283 -2.37891,7.40948 -3.15471,11.30843c-0.1038,0.49862 -0.2076,0.99726 -0.31459,1.51106c-0.93271,4.75029 -1.4241,9.56205 -1.95398,14.37035c0.37436,0 0.7486,0 1.13429,0c-0.18708,0.9359 -0.37429,1.8718 -0.56711,2.83605c-3.17102,0.57385 -6.07963,0.54186 -9.28692,0.31902c-0.91415,-0.0597 -1.82832,-0.11809 -2.74268,-0.17505c-0.66976,-0.04266 -0.66974,-0.04266 -1.35306,-0.08618c-1.81382,-0.07697 -3.61817,-0.029 -5.43184,0.04172c-1.03542,-0.09952 -1.03542,-0.09952 -2.16971,-1.23395c-0.42891,-2.43098 0.54537,-3.902 1.65273,-6.01092c2.43743,-5.39282 2.66599,-11.42273 2.84866,-17.24846c0.03272,-1.0328 0.07893,-2.06527 0.12659,-3.09742c0.104,-3.58183 -0.30829,-6.11145 -1.7923,-9.3765c-0.18708,-0.56152 -0.37429,-1.12298 -0.56709,-1.70154c-0.68976,0.24562 -0.68979,0.2456 -1.39349,0.49631c-4.88968,1.63952 -9.04224,2.41938 -14.13198,1.38252c-2.59254,-1.2964 -4.37872,-3.16589 -5.45875,-5.84924c-0.06615,-0.99095 -0.09922,-1.98453 -0.10632,-2.97772c-0.25068,-3.67264 -1.89327,-5.31722 -4.43075,-7.79892c-0.98508,-1.97029 -0.82868,-4.08495 -0.56718,-6.2392c1.26123,-2.47583 2.71512,-4.24845 5.10425,-5.67195c1.0474,-0.1902 2.09986,-0.35319 3.15471,-0.49631c2.61932,-0.37227 2.6193,-0.37227 4.50168,-2.26872c0.28073,-0.58495 0.56152,-1.16983 0.85073,-1.77249c0.56073,-0.76108 1.12509,-1.51954 1.70141,-2.26879c-0.63166,-0.59663 -0.63166,-0.59661 -1.27601,-1.20529c-2.77366,-2.90003 -4.2415,-5.17404 -4.48398,-9.19921c0.21029,-3.57448 1.55516,-6.66421 4.16494,-9.12828c2.49605,-1.90443 5.41807,-2.87008 8.50271,-3.34557c1.11928,-0.27557 1.11926,-0.27557 1.52636,-1.34487c0.15907,-0.59112 0.15909,-0.59112 0.32128,-1.19421c0.7792,-2.32536 1.5912,-3.31808 3.72182,-4.64393c0.31438,-0.21049 0.62877,-0.42117 0.95264,-0.63805c3.31857,-1.98315 6.60452,-2.13379 10.39017,-1.63074c2.50541,0.74976 4.08176,1.67099 5.67144,3.75771c0.56711,1.34704 0.56711,1.34706 0.56711,2.48149c0.47375,-0.15799 0.47373,-0.158 0.95707,-0.31911c1.31152,-0.24814 1.3115,-0.24814 2.69395,0.14182c1.54247,0.3576 1.54247,0.3576 2.83569,-0.85081c0.47954,-0.40947 0.95918,-0.81889 1.4533,-1.2407c3.34265,-1.59195 7.45931,-1.82841 10.99274,-0.70456c3.12627,1.46521 4.52236,3.04617 5.70241,6.27017c0.13747,0.39626 0.27492,0.79256 0.41654,1.20081c0.46303,1.15772 1.02511,2.08657 1.7103,3.12403c1.27364,2.50362 1.25217,4.3783 1.02795,7.1254c0.28144,-0.1638 0.5629,-0.32758 0.85292,-0.49631c2.72571,-1.48974 4.55396,-2.03085 7.65413,-1.77247c0,-0.56152 0,-1.12306 0,-1.70161c-0.34798,-0.13231 -0.69592,-0.2647 -1.0545,-0.40099c-2.26328,-1.36713 -2.76306,-3.97136 -3.48257,-6.40532c-0.45888,-3.32684 0.31917,-5.82334 2.2685,-8.50792c3.72952,-3.59489 7.27948,-4.67149 12.37967,-4.63283c1.23171,0.09524 1.23171,0.09524 2.366,0.66249c0.21059,-0.6493 0.21059,-0.6493 0.42538,-1.31165c0.99618,-2.14199 2.23847,-2.81531 4.25353,-3.93494c3.51573,-0.95896 6.52029,0.10012 9.59934,1.78802zM76.38535,137.93883c-0.7196,0.91363 -0.71958,0.91365 -1.13429,2.26881c0.35783,1.32914 0.73888,2.65202 1.13429,3.97033c0,0.76848 -0.02395,1.53722 -0.07087,2.30426c0.08653,2.72732 0.67802,3.55948 2.33946,5.63648c1.24027,-1.10527 1.24027,-1.10529 1.87868,-2.80051c1.0507,-1.90702 1.86597,-2.5012 3.79269,-3.43862c-0.75433,-2.03696 -1.99027,-3.04299 -3.67309,-4.36473c-1.22207,-1.04672 -2.13032,-2.32306 -3.13259,-3.57601c-0.37431,0 -0.7486,0 -1.13429,0zM79.7882,154.38749c0.56711,2.26879 0.56712,2.26879 0.56712,2.26879zM42.61609,164.33558c-1.99191,2.4373 -1.99189,2.43728 -2.56315,5.43705c0.64938,1.75741 1.40433,3.39077 2.30396,5.03384c1.53558,-1.36496 2.74735,-2.84612 3.89912,-4.53751c0.25584,-0.37438 0.51174,-0.74869 0.77536,-1.13443c0.57465,-1.14312 0.57465,-1.14312 -0.00886,-2.33081c-0.75701,-1.16706 -1.4908,-2.28374 -2.39703,-3.34114c-1.20647,-0.13347 -1.20647,-0.13347 -2.0094,0.87301zM107.57808,164.59703c-1.31862,0.71668 -1.3186,0.71666 -2.26857,1.70154c0.16083,0.81628 0.32743,1.63139 0.49623,2.44608c0.09221,0.45402 0.18428,0.90812 0.27914,1.37583c0.32767,1.4264 0.32765,1.42641 1.4932,2.98447c1.49727,-2.05894 2.99454,-4.11789 4.53714,-6.23915c-1.55604,-1.03751 -2.73875,-1.78624 -4.53714,-2.26878z" fill="#355116"/><path d="M45.03753,110.21938c1.6745,1.87535 2.24761,3.70145 2.42364,6.16609c1.40369,0.28073 1.40371,0.28071 2.83569,0.56716c0.18715,-0.74867 0.37436,-1.49742 0.56718,-2.26879c1.02795,0.28363 1.02796,0.28363 2.26859,1.13436c1.80592,3.5478 2.04681,6.83002 1.70139,10.77672c-0.18715,0.37438 -0.37431,0.74867 -0.56712,1.13443c-0.37436,0 -0.74858,0 -1.13427,0c0.02958,0.73918 0.0296,0.73916 0.05977,1.49327c0.16264,6.92491 0.16262,6.92491 -1.76124,9.28337c-1.87862,0.95715 -1.87862,0.95717 -3.96998,1.70161c-0.503,0.32759 -1.00595,0.65508 -1.52418,0.99261c-2.47798,0.93517 -4.44011,0.63667 -7.03829,0.32571c-1.62575,-0.22277 -1.62573,-0.22277 -3.18792,-0.1263c-2.02375,-0.0901 -2.77229,-1.47006 -4.12955,-2.89364c-1.57033,-0.88339 -3.08034,-1.58963 -4.7808,-2.18015c-3.16473,-1.4238 -6.37985,-4.82041 -7.69623,-8.02931c-0.39867,-2.11283 -0.39228,-3.36377 0.7909,-5.19341c2.25568,-2.71297 4.05571,-4.18925 7.63645,-4.66381c0.54098,-0.03438 1.08198,-0.06876 1.63937,-0.10417c1.9492,0.02844 1.9492,0.02844 3.5446,-0.81532c0.04686,-0.70196 0.09365,-1.40377 0.14182,-2.12699c0.22234,-1.96564 0.439,-2.42786 1.73687,-4.07675c2.64751,-2.03203 7.47562,-3.03727 10.44333,-1.09673z" fill="#e6e31d"/><path d="M52.56543,167.43301c1.59513,1.34704 1.59513,1.34704 2.83569,2.83597c0.56152,0.37438 1.12296,0.74865 1.70147,1.13434c-0.37763,2.43186 -1.23851,4.55893 -2.1977,6.80638c-1.60978,3.89961 -2.67705,7.76187 -3.47375,11.91108c-0.10307,0.49718 -0.20614,0.99437 -0.31235,1.50663c-0.93719,4.75085 -1.42626,9.56515 -1.95622,14.37478c0.37436,0 0.7486,0 1.13429,0c-0.18708,0.9359 -0.37429,1.8718 -0.56711,2.83605c-3.17102,0.57385 -6.07963,0.54186 -9.28692,0.31902c-0.91415,-0.0597 -1.82832,-0.11809 -2.74268,-0.17505c-0.66976,-0.04266 -0.66974,-0.04266 -1.35306,-0.08618c-1.81382,-0.07697 -3.61817,-0.02894 -5.43184,0.04172c-1.03542,-0.09952 -1.03542,-0.09952 -2.16971,-1.23395c-0.42891,-2.43098 0.54537,-3.902 1.65273,-6.01092c2.43743,-5.39282 2.66599,-11.42273 2.84866,-17.24846c0.03272,-1.0328 0.07893,-2.06518 0.12659,-3.09742c0.10425,-3.59154 -0.32825,-6.09667 -1.7923,-9.3765c-0.20268,-0.75267 -0.39533,-1.50837 -0.56709,-2.26874c0.56479,-0.05157 0.56479,-0.05155 1.14096,-0.10415c3.7076,-0.34884 3.7076,-0.34886 7.36616,-1.03028c1.15686,1.8406 2.07867,3.63355 2.83568,5.67195c1.67943,-1.55704 2.71332,-3.29028 3.86588,-5.251c1.45642,-2.14403 3.98992,-1.97166 6.34263,-1.55531z" fill="#5c4012"/><path d="M115.37629,166.19221c0.59366,-0.00798 1.18724,-0.01603 1.79889,-0.02438c1.75747,0.13166 2.99499,0.52179 4.58141,1.26516c0.35878,3.10951 -0.03896,4.84269 -1.55959,7.58624c-3.6775,6.97222 -4.40419,14.24342 -4.1281,22.02835c0.10931,3.44537 -0.03939,6.78411 -1.11797,10.08904c-1.16975,0.88622 -1.16979,0.88622 -2.83569,1.13436c-0.545,0.08885 -0.54496,0.08887 -1.10106,0.17947c-8.94143,1.26376 -8.94141,1.26378 -11.16777,-0.23604c-1.163,-1.61645 -0.95722,-2.92389 -0.92161,-4.89527c0.004,-0.37618 0.00805,-0.75239 0.01218,-1.13989c0.00921,-0.80351 0.0222,-1.60694 0.03851,-2.41032c0.04092,-2.07484 0.05174,-4.14986 0.06669,-6.22504c0.00551,-0.60483 0.00549,-0.60483 0.01101,-1.22185c0.0626,-7.58023 0.10171,-15.4054 -3.95219,-22.05307c0,-0.37438 0,-0.74869 0,-1.13443c1.53621,-0.76818 2.84096,-0.60412 4.53716,-0.5672c0,-0.37438 0,-0.74865 0,-1.13434c1.87158,-0.18715 3.74306,-0.37438 5.67137,-0.5672c0.7486,1.87173 1.49727,3.74344 2.26857,5.67195c0.28,-0.40295 0.55999,-0.80578 0.84847,-1.22084c0.545,-0.78197 0.545,-0.78195 1.10106,-1.57973c0.3619,-0.51981 0.72373,-1.03964 1.09663,-1.57526c1.52687,-2.14227 2.10341,-1.95355 4.75201,-1.96973z" fill="#5c4012"/><path d="M66.95662,139.92399c2.61676,0.36095 3.25619,1.08191 4.89164,3.1196c0.44916,2.0427 0.56651,3.99763 0.70891,6.08187c0.53054,2.3187 1.40422,2.74298 3.26107,4.12767c0.50088,1.73925 0.34348,3.33658 0,5.10477c-0.99256,1.70154 -0.99256,1.70154 -2.26857,2.83597c-1.12291,0.28073 -1.12291,0.28071 -2.26859,0.56718c0,1.68455 0,3.36905 0,5.10477c-3.45566,2.04791 -6.18348,2.91309 -10.20851,2.26874c-2.05262,-0.71205 -3.87764,-1.54681 -5.35684,-3.16609c-1.12042,-1.02199 -1.91033,-1.09475 -3.39837,-1.30055c-1.85865,-0.37539 -2.53609,-0.5954 -4.04089,-1.84336c-1.14365,-2.2875 -1.09861,-3.61751 -0.81529,-6.16825c0.54941,-0.76921 1.11407,-1.52818 1.70141,-2.26879c-0.13297,-1.88507 -0.13297,-1.88507 -1.13421,-3.40315c-0.39824,-3.98244 -0.39824,-3.98246 1.16969,-6.16827c3.69171,-2.67079 7.86254,-2.52086 12.25556,-2.6565c2.53669,-0.33651 3.02995,-1.86911 5.50299,-2.23557z" fill="#8bc839"/><path d="M24.20845,140.20762c2.84423,0.01271 4.9935,0.13259 7.08921,2.19785c1.09374,1.20931 1.45265,1.87694 1.98502,3.4741c1.40362,0.28079 1.40362,0.28079 2.83569,0.56718c0.18714,-0.56152 0.37438,-1.12304 0.56718,-1.70154c1.55959,-0.17729 1.55959,-0.17729 3.4028,0c2.04631,2.04655 2.74617,3.68714 3.04837,6.55815c-0.01676,3.01397 -1.46035,6.60073 -3.61548,8.75609c-0.05267,0.94756 -0.05267,0.94756 -0.10636,1.91429c-0.46084,2.05612 -0.46084,2.05612 -1.98504,3.15499c-1.91711,0.615 -3.28557,0.82949 -5.28146,0.60265c-0.37438,-0.37438 -0.74858,-0.74867 -1.13427,-1.13436c-1.93083,0.11361 -3.28282,0.80357 -4.92705,1.737c-2.60138,1.34517 -5.2413,1.73702 -8.11715,1.09897c-1.59513,-0.9084 -1.59513,-0.9084 -2.83577,-2.26879c-0.11736,-1.83893 -0.11735,-1.83893 0.10636,-3.89946c0.20193,-2.85707 0.20195,-2.85707 -1.0656,-5.27755c-1.1586,-0.83334 -2.3147,-1.50736 -3.57783,-2.16688c-0.37438,-0.37438 -0.7486,-0.74867 -1.13429,-1.13436c0,-2.04791 0.57221,-2.84214 1.87862,-4.43125c2.56337,-2.01562 5.81644,-1.46506 8.89701,-1.2407c0.04686,-0.62006 0.09365,-1.24005 0.14182,-1.8789c0.42536,-2.09153 0.42536,-2.09151 1.52418,-3.19048c1.16977,-0.60266 1.16975,-0.60265 2.30404,-0.60265c0,-0.37429 0,-0.7486 0,-1.13436z" fill="#8cc839"/><path d="M98.50385,121.49016c1.63016,1.08692 2.08375,1.71453 2.69387,3.54496c0.04686,0.32758 0.09365,0.65519 0.14182,0.99263c1.12291,0 2.24587,0 3.40287,0c0.18708,-0.9359 0.37429,-1.87178 0.56711,-2.83596c3.26105,-0.63813 3.26105,-0.63813 4.53716,0c0.2348,1.17209 0.2348,1.17207 0.35443,2.58781c0.04236,0.46867 0.08481,0.93734 0.12854,1.42023c0.02771,0.3619 0.05557,0.7238 0.08414,1.09671c-0.37431,0 -0.7486,0 -1.13429,0c-0.11701,0.72532 -0.23394,1.45057 -0.35443,2.19786c-0.06579,0.40794 -0.1316,0.81598 -0.19943,1.23635c-0.00435,0.36407 -0.00876,0.72821 -0.01327,1.1033c0.37431,0.37438 0.7486,0.74867 1.13429,1.13442c-0.12854,2.82757 -0.99087,4.67743 -2.83569,6.80631c-1.80468,0.97695 -3.71274,1.49316 -5.69357,1.9941c-0.94859,0.24205 -1.88296,0.53801 -2.81355,0.84188c-0.18715,0.56152 -0.37436,1.12306 -0.56718,1.70161c-1.51635,0.02655 -3.02152,0.02141 -4.53708,0c-0.96505,0.01747 -0.96507,0.01747 -1.94955,0.03547c-3.21355,-0.95853 -4.95613,-3.23515 -7.12475,-5.70741c-0.4401,-0.4884 -0.88018,-0.9768 -1.33362,-1.48c-3.13576,-3.65689 -3.13576,-3.6569 -3.425,-5.94229c0.31134,-2.32278 1.11005,-3.04279 2.89328,-4.45556c2.4532,-1.13457 4.96345,-0.54521 7.53676,-0.03322c0.02119,-0.35538 0.04238,-0.71067 0.06428,-1.07685c0.0373,-0.46351 0.07456,-0.92703 0.11294,-1.40463c0.03294,-0.46069 0.06581,-0.92133 0.09974,-1.39586c0.82455,-3.48765 5.4623,-2.70215 8.23016,-2.36187z" fill="#297329"/><path d="M122.32375,114.68385c1.85627,0.76956 3.12128,1.98719 4.53708,3.40315c0.24814,1.34711 0.24814,1.34711 0,2.83597c-0.93575,0.7679 -1.88137,1.52397 -2.83569,2.26881c-0.4987,1.49437 -0.4987,1.49437 -0.56711,2.83596c2.17341,0.05054 4.12064,-0.06884 6.23855,-0.56718c0.30581,3.48722 -0.05157,4.9034 -2.23978,7.59727c-0.75273,0.95702 -0.75273,0.95702 -0.52504,2.54132c0.39354,1.17534 0.39354,1.17536 1.06335,1.77249c-0.13455,4.10496 -0.13457,4.10498 -1.94955,5.92009c-1.88144,1.14733 -2.88299,1.54167 -5.06878,1.55981c-0.4372,0.00803 -0.87439,0.01603 -1.32477,0.02437c-1.44469,-0.14552 -2.28677,-0.60055 -3.5668,-1.26516c-0.98579,-0.24198 -1.9793,-0.45415 -2.9775,-0.63804c-0.50597,-0.09509 -1.01184,-0.19011 -1.53303,-0.28806c-0.57465,-0.10307 -0.57465,-0.10309 -1.16091,-0.20827c0.16372,-0.34361 0.32758,-0.68725 0.49623,-1.04138c1.40007,-3.16007 2.00206,-5.63734 1.79671,-9.09506c-0.02437,-1.20748 -0.02437,-1.20748 0.54281,-2.90909c0.37431,0 0.74854,0 1.13423,0c-0.14479,-1.19458 -0.30052,-2.38777 -0.46077,-3.58037c-0.12831,-0.99698 -0.12833,-0.99697 -0.25919,-2.01404c-0.42379,-1.81986 -0.73597,-2.32009 -2.11572,-3.48068c0,-1.82608 0.71181,-2.42831 1.94953,-3.79312c2.67913,-2.41807 5.33269,-2.24841 8.82616,-1.87883z" fill="#aec605"/><path d="M68.12637,112.23784c1.4533,1.31165 1.45334,1.31163 1.94955,2.72962c0.06138,1.22758 0.07087,2.45754 0.07087,3.68671c0.45621,0.17548 0.91238,0.35101 1.38243,0.53177c1.45325,0.60266 1.45325,0.60266 2.02043,1.16984c0.0753,1.02802 0.07528,1.028 0.07087,2.26878c0.00224,0.6141 0.00224,0.61412 0.00443,1.2407c-0.0753,1.0281 -0.0753,1.0281 -0.64248,1.59528c-0.28391,1.36969 -0.28391,1.36967 0,2.83597c1.36604,1.05639 1.36606,1.05639 2.83577,1.70154c-0.0552,2.31639 -0.56458,3.68869 -2.16225,5.31747c-2.39552,1.91371 -4.65256,1.7468 -7.60988,1.5532c-1.46259,-0.05985 -2.49033,-0.05839 -3.83926,0.50292c-0.18715,0.56152 -0.37438,1.12304 -0.56718,1.7016c-2.05871,0 -4.11745,0 -6.23855,0c0.27049,-1.74911 0.54244,-3.49789 0.81527,-5.24657c0.11462,-0.74252 0.11462,-0.74251 0.23155,-1.49996c0.07493,-0.47889 0.14986,-0.95788 0.22705,-1.45121c0.06833,-0.43958 0.13657,-0.87917 0.20702,-1.33216c0.22058,-1.24679 0.2206,-1.24681 0.5262,-2.4532c0.33664,-1.36757 0.33643,-2.63286 0.33245,-4.0402c-0.00146,-0.54831 -0.00299,-1.09671 -0.0045,-1.6617c-0.05854,-1.40892 -0.23422,-2.6986 -0.4918,-4.0811c-0.14175,-2.05612 -0.14175,-2.05612 0.81527,-3.68678c3.07933,-2.82994 6.30978,-3.2271 10.06678,-1.38252z" fill="#297229"/><path d="M102.93458,146.23407c2.27322,0.26746 3.141,0.75781 4.6435,2.48147c0.26216,2.40329 -0.08414,4.45989 -0.56712,6.80638c0.18708,0.18715 0.37431,0.37429 0.56712,0.56718c0.33565,1.95789 0.00901,2.81964 -0.95709,4.57298c-2.00105,2.26379 -4.86023,2.75284 -7.68294,3.5029c-1.50568,0.27572 -1.5057,0.27572 -2.1357,0.99923c-8.72727,0.56597 -8.72727,0.56595 -12.47708,-1.70161c-0.37431,-0.37438 -0.74854,-0.74867 -1.13423,-1.13436c0.07087,-1.94976 0.07089,-1.94978 0.56712,-3.97033c0.74251,-0.5851 1.49777,-1.15452 2.26857,-1.70161c0.18955,-1.48959 0.18955,-1.48959 0,-2.83597c-0.56144,-0.18715 -1.12298,-0.37438 -1.70147,-0.56718c0.17729,-1.34711 0.17729,-1.34711 0.56718,-2.83597c1.93787,-1.29199 3.02102,-1.39818 5.31694,-1.59528c0.63602,-0.06217 1.27205,-0.12428 1.92735,-0.18831c2.07097,0.09277 2.98865,0.61455 4.66562,1.78359c1.24281,0.39462 1.24281,0.39462 2.26859,0.56718c0.16372,-0.53809 0.3275,-1.07627 0.49623,-1.63067c0.77397,-2.15005 1.06704,-2.81284 3.36739,-3.1196z" fill="#8cc839"/><path d="M106.55013,101.95745c2.46725,0.0637 4.00356,0.64538 5.91951,2.18901c1.30757,1.50082 1.57169,2.92484 1.91409,4.86546c1.49727,0 2.99454,0 4.53714,0c0,0.56152 0,1.12306 0,1.70161c-2.05292,0.74656 -3.45712,1.13436 -5.67135,1.13436c0,0.37438 0,0.74867 0,1.13436c-0.43285,0.3159 -0.86561,0.63176 -1.31157,0.95717c-1.69674,1.2256 -1.69674,1.2256 -2.16216,3.36775c-1.06343,1.91429 -1.06341,1.91429 -2.55438,2.42162c-1.5838,0.28116 -3.145,0.49371 -4.74758,0.62703c0,-0.37438 0,-0.74869 0,-1.13438c-0.53811,-0.17548 -1.07612,-0.35101 -1.63053,-0.53177c-1.77234,-0.60266 -1.77234,-0.60265 -2.90662,-1.16983c-3.40844,-0.31373 -5.59883,-0.18041 -8.50705,1.7016c-1.27611,-0.3545 -1.27611,-0.3545 -2.26857,-1.13443c-0.77857,-2.33597 -1.14163,-4.37968 -0.56718,-6.80631c1.569,-1.93018 3.44669,-3.42504 5.67146,-4.53757c0.82149,-0.04731 1.64509,-0.06086 2.46789,-0.05535c0.48253,0.00174 0.96507,0.00362 1.46218,0.00551c0.50443,0.0048 1.00892,0.00951 1.52861,0.01437c0.50886,0.00262 1.01772,0.00516 1.54197,0.00775c1.25841,0.00675 2.51666,0.01611 3.77498,0.02771c-0.02336,-0.53809 -0.04681,-1.07619 -0.07087,-1.63067c0.1075,-2.68763 1.10506,-3.08262 3.58009,-3.15501z" fill="#216c13"/></g></g></g></svg>