<svg version="1.1" xmlns="http://www.w3.org/2000/svg" xmlns:xlink="http://www.w3.org/1999/xlink" width="377.98127" height="57.3707" viewBox="0,0,377.98127,57.3707"><g transform="translate(-67.72404,-122.07195)"><g data-paper-data="{&quot;isPaintingLayer&quot;:true}" fill-rule="nonzero" stroke="none" stroke-width="1" stroke-linecap="butt" stroke-linejoin="miter" stroke-miterlimit="10" stroke-dasharray="" stroke-dashoffset="0" style="mix-blend-mode: normal"><path d="M144.85574,122.12557c5.68239,-0.21701 10.79945,0.20221 16.29209,1.67089c1.10622,0.29538 2.21461,0.57934 3.32466,0.85934c1.23156,0.31121 2.46162,0.62808 3.69151,0.94586c0.23155,0.05955 0.46302,0.11914 0.70155,0.18047c2.70954,0.70201 5.31877,1.504 7.90855,2.57549c1.22741,0.44715 1.88997,0.41311 3.1271,-0.0143c0.57056,-0.2941 1.13881,-0.59251 1.7058,-0.89358c4.22659,-2.17567 9.03814,-2.84901 13.66625,-3.73677c0.32804,-0.06379 0.32804,-0.06379 0.66265,-0.12891c5.05415,-0.97549 10.0339,-1.15726 15.16626,-1.16765c0.94167,-0.0032 1.88308,-0.0133 2.82457,-0.02348c3.52031,-0.02007 6.74689,0.18422 10.16156,1.07635c0.37508,0.09433 0.37509,0.09433 0.75774,0.19054c8.08276,2.1834 13.46636,7.81942 17.7395,14.79271c2.37494,4.19709 3.11605,9.36223 2.00226,14.07188c-1.57764,5.64931 -4.57458,9.94493 -9.69671,12.86051c-6.83034,3.76994 -14.02031,4.87125 -21.70745,5.40317c-0.81683,0.05893 -1.63357,0.11865 -2.4504,0.17894c-0.50158,0.03678 -1.00308,0.07264 -1.50483,0.10743c-1.14205,0.08145 -2.27503,0.18418 -3.41068,0.33124c-5.02347,0.63273 -10.03898,0.08091 -15.01392,-0.68323c-4.2438,-0.64071 -7.50022,-0.59068 -11.5832,0.7963c-1.13947,0.38664 -2.28518,0.75396 -3.43022,1.12377c-0.2298,0.07472 -0.45961,0.14943 -0.69639,0.22648c-2.47999,0.8015 -4.9904,1.47504 -7.51186,2.13237c-1.55179,0.40517 -3.0951,0.81737 -4.62545,1.29792c-9.7534,3.04947 -19.56772,3.55056 -29.69712,2.88383c-2.18328,-0.14275 -4.34138,-0.14561 -6.52981,-0.09537c-8.92593,0.19926 -17.71273,-1.0183 -26.35533,-3.22763c-2.57166,-0.63619 -5.06013,-0.75367 -7.70269,-0.80353c-7.41478,-0.1585 -14.73515,-1.27336 -20.14394,-6.81596c-3.63999,-4.0179 -5.03029,-8.48798 -4.77414,-13.87673c0.441,-5.38061 3.02346,-10.33452 6.55349,-14.32291c0.25424,-0.31919 0.5084,-0.6383 0.77037,-0.96718c2.44234,-2.93408 6.19278,-5.07032 9.38654,-7.11828c0.50274,-0.32293 1.00183,-0.6516 1.50026,-0.98102c7.28247,-4.56877 16.83374,-7.03795 25.33888,-5.15359c1.89746,0.48459 3.72526,1.1268 5.49796,1.95879c2.19566,0.72939 3.82267,-0.18642 5.79492,-1.10169c5.12936,-2.2752 10.06831,-3.75821 15.67798,-4.13583c0.60614,-0.04197 1.21136,-0.0977 1.81617,-0.15563c1.58703,-0.13904 3.1744,-0.19236 4.7655,-0.26101z" fill="#ffffff"/><path d="M391.89853,132.80777c0.49726,0.20275 0.99477,0.40501 1.49253,0.60672c0.22466,0.09396 0.4493,0.18792 0.68077,0.2847c2.225,0.84771 4.45315,0.89026 6.8123,0.99473c4.35035,0.251 8.10121,0.68293 12.06209,2.5995c2.33945,1.07672 4.71571,1.41344 7.24948,1.80744c5.77182,0.91186 9.80285,2.46428 13.86937,6.80337c1.21286,1.256 2.47567,2.07415 3.98008,2.92439c3.50377,2.00355 6.03678,4.38792 7.33068,8.30621c0.76671,3.32113 0.16157,6.35514 -1.4646,9.3508c-2.6738,4.03593 -6.28729,6.39923 -11.01954,7.37697c-0.81225,0.15554 -1.62584,0.30232 -2.43993,0.44814c-1.52303,0.27577 -3.03218,0.60066 -4.54101,0.94433c-0.2259,0.05111 -0.4518,0.10223 -0.68443,0.15488c-0.90941,0.20595 -1.81875,0.41199 -2.72684,0.62384c-5.31421,1.23704 -9.97256,1.56579 -15.2369,0.00228c-3.42074,-1.01451 -6.73751,-1.48364 -10.29762,-1.67962c-0.42379,-0.02348 -0.84766,-0.04696 -1.28433,-0.0711c-3.40935,-0.08282 -6.74457,0.329 -10.13015,0.69827c-4.08406,0.41967 -8.147,0.41647 -12.2486,0.34001c-3.76648,-0.06067 -7.24997,0.29135 -10.93924,1.12459c-15.25369,3.11131 -31.79238,1.93436 -45.12119,-6.64088c-4.56279,-3.1677 -9.26786,-6.68078 -10.59999,-12.34759c-0.44174,-4.90039 0.71718,-8.78584 3.24903,-12.99744c0.21443,0 0.42886,0 0.64977,0c0.06707,-0.18094 0.13406,-0.36192 0.20304,-0.54833c1.10498,-1.85852 3.20972,-2.9281 5.03603,-3.98046c0.24418,-0.14121 0.48828,-0.28241 0.73978,-0.4279c0.71277,-0.40916 1.42771,-0.81396 2.14381,-1.2171c0.34849,-0.19731 0.6969,-0.39458 1.05594,-0.59783c5.95317,-3.17909 11.95671,-3.23245 18.47895,-2.4802c2.95032,0.30635 5.27065,0.05165 8.12265,-0.80092c2.57998,-0.75441 4.93197,-1.33171 7.63778,-1.33146c4.76258,-0.0022 8.36858,-0.73858 12.72001,-2.61696c7.98053,-3.2797 17.62472,-0.79081 25.22027,2.34659z" fill="#fefefe"/></g></g></svg>