<svg version="1.1" xmlns="http://www.w3.org/2000/svg" xmlns:xlink="http://www.w3.org/1999/xlink" width="495.68653" height="226.15693" viewBox="0,0,495.68653,226.15693"><g transform="translate(10.2534,-71.2385)"><g data-paper-data="{&quot;isPaintingLayer&quot;:true}" fill-rule="nonzero" stroke="none" stroke-linecap="butt" stroke-linejoin="miter" stroke-miterlimit="10" stroke-dasharray="" stroke-dashoffset="0" style="mix-blend-mode: normal"><path d="M-8.09031,209.79189c-0.36137,-0.19284 -0.67452,-0.52707 -0.67452,-1.10633c0,-1.36936 1.75,-1.36936 1.75,-1.36936c7.6939,0 15.34848,-1.6848 23.07659,-1.05088c8.72575,0.71576 17.17071,3.69316 25.68729,5.28216c6.80796,-0.01955 13.12014,-0.42152 19.81904,-1.05439c4.5758,-0.43229 8.88017,-2.27195 13.53094,-2.64245c7.42898,-0.59183 14.89924,-0.53444 22.43021,-0.53444c5.93226,0 12.12712,-0.35388 17.93058,-1.03786c1.73302,-0.20425 3.47352,0.3697 5.21549,0.52035c2.96513,0.25643 6.75571,0.23376 9.73091,-0.00359c1.80856,-0.14428 3.49516,-0.80866 5.28794,-1.04452c5.60551,-0.73749 11.38372,-1.24789 16.96983,-2.1221c1.77633,0.00599 3.53421,-0.2957 5.28794,-0.51676c1.5137,-0.1908 3.11599,0.32167 4.5996,0.01895c0.97292,-0.19851 1.7163,-0.88521 2.69791,-1.05554c1.8099,-0.31407 3.68144,-0.34649 5.51757,-0.54673c6.7501,-0.73613 14.39425,-0.01768 21.18913,-0.01768c6.21929,0 13.6153,0.02195 18.97977,2.7781c6.41574,1.63034 12.42317,1.83563 19.03091,2.51255c1.82963,0.18743 3.53876,0.87356 5.36972,1.05287c6.54517,0.64102 13.36868,-0.35905 19.89807,-0.50885c6.69859,-0.1537 13.08629,0.47633 19.65849,1.43726c10.09193,3.17139 20.34038,3.67406 31.08313,2.82559c1.83397,-0.14485 3.76464,0.40427 5.52984,-0.0111c0.77628,-0.18266 1.24393,-0.88149 2.02344,-1.05554c0.89851,-0.20062 1.89481,0.14987 2.80296,-0.02213c1.89949,-0.35974 3.37594,-1.58993 5.22995,-2.0736c4.20411,-1.09674 9.49374,-1.64762 13.88505,-1.65077c4.00889,-0.6355 7.91927,-1.96245 11.84732,-2.58056c1.94907,-0.3067 4.07135,0.0468 5.92886,-0.50768c1.00523,-0.30007 1.85912,-0.90015 2.903,-1.10397c0.93349,-0.18227 1.9312,0.06533 2.88615,-0.02637c1.60255,-0.15389 3.05649,-0.86947 4.65485,-1.04812c2.31836,-0.25911 4.45975,-0.23974 6.74478,-0.52777c7.90458,-0.9964 15.08523,2.57964 22.76409,2.63265c17.32264,3.33248 35.19903,3.15516 53.05773,3.15516c1.99851,0 4.4724,0.25379 6.46446,0.01768c1.41669,-0.16791 2.46008,-1.18927 3.82006,-1.54224c1.37155,-0.35596 2.84704,-0.38901 4.27367,-0.56885c3.91639,-0.49367 8.44896,-0.01768 12.42092,-0.01768c3.29696,0 9.52674,-0.0905 11.05947,2.95641c0.8498,1.68932 0.12831,5.25238 0.11061,7.07664c-1.25874,3.0148 -3.04591,6.2235 -3.35922,9.42248c-0.67437,6.88551 0.00943,14.03389 0.00943,20.94045c0,4.3848 -0.74547,9.20318 -0.0226,13.53122c0.31137,1.86426 0.69708,3.54548 0.69708,5.49707c0,8.11405 1.55071,16.12351 2.6848,24.1102c0.23195,1.63349 1.95801,5.78238 0.38671,7.26828c-2.32324,2.19696 -5.44451,1.56075 -8.33143,1.38778c-4.637,-0.27781 -9.27539,-0.49748 -13.91789,-0.71531c-23.45066,-0.85907 -46.65775,-0.34739 -70.08492,0.73094c-23.67278,1.08963 -47.68728,0.22447 -71.35596,-0.60137c-23.89029,-0.83358 -47.56759,-0.24832 -71.45618,-0.20579c-24.00326,0.03229 -47.96881,-3.92009 -71.89313,-4.85219c-23.9497,-0.93309 -47.63814,-3.96865 -71.54776,-5.10826c-11.98982,-0.65767 -23.94128,-1.23058 -35.88492,-2.03749c-10.85283,-0.73321 -22.04515,-0.1354 -32.93434,-0.1354c-7.25397,0 -14.29586,0.46106 -21.48658,1.02953c-3.18322,0.25165 -7.57089,1.28912 -10.75595,0.44955c-2.67653,-0.70552 -4.32683,-4.80574 -5.00384,-6.57996c-1.36626,-3.58052 -0.69194,-7.40359 -1.39456,-11.05715c-0.26475,-1.3767 -1.24162,-2.64215 -1.41096,-4.02802c-0.19186,-1.57022 -0.41634,-3.20757 -1.31786,-4.61842c-0.03566,-3.24912 -1.55167,-6.30716 -2.67493,-9.43165c-0.51616,-1.43576 -0.50284,-2.95697 -0.73116,-4.43772c-0.51798,-3.35926 -2.23342,-6.63844 -2.69791,-10.02767c-0.45332,-3.30775 0.2019,-6.55911 0.66988,-9.80214c0.30421,-2.10813 -0.36082,-4.3128 0.01408,-6.41768c0.18877,-1.05986 0.67448,-2.09652 0.67448,-3.16663c0.86477,-2.03003 0.65528,-3.93534 0.65192,-6.06313z" fill="#a97f51" stroke-width="0.5"/><g stroke-width="1"><path d="M60.28158,71.91078c2.14865,0.4256 4.15118,0.46136 6.30299,0.04876c2.3254,-0.37517 3.64169,-0.24055 5.6493,1.09838c0.1796,0.11896 0.35919,0.23796 0.54423,0.36058c0.16223,0.10795 0.32446,0.21589 0.4916,0.32712c0.47641,0.22369 0.47641,0.2237 0.94376,-0.05534c0.15606,-0.11926 0.31213,-0.23852 0.47292,-0.36134c2.14712,-1.61398 5.34066,-1.07551 7.85309,-0.66866c1.57245,0.26856 3.05496,0.6998 4.57198,1.20061c1.83875,0.56522 3.7222,0.71205 5.62702,0.85016c1.88945,0.1623 3.41648,0.68695 5.1346,1.5126c1.85064,0.87397 1.85064,0.87397 3.82868,0.80976c1.55659,-0.31309 2.90176,-0.20151 4.30372,0.62125c0.81526,0.80527 1.42423,1.54801 1.51394,2.73009c0.00743,0.30431 0.01484,0.60862 0.02248,0.92214c0.00986,0.30237 0.01971,0.60477 0.02987,0.9163c-0.0913,1.15992 -0.46688,1.78307 -1.23984,2.5991c3.10695,1.06496 5.5814,1.6546 8.84534,1.1792c4.99332,-0.56269 4.99333,-0.56269 7.14888,1.20944c0.82012,0.75995 1.58774,1.57174 2.348,2.39539c1.24957,1.1527 2.56322,1.10057 4.15137,1.12301c1.19585,0.04064 2.05913,0.2696 3.12715,0.85048c1.24466,1.39724 1.28706,3.13853 1.29005,4.92666c-0.06709,1.85657 -0.56421,3.28824 -1.81412,4.65696c-1.16431,0.66396 -2.55707,0.90852 -3.88321,0.8285c0.00199,0.16317 0.00399,0.32631 0.00605,0.49445c0.17336,-0.01259 0.34674,-0.02519 0.52536,-0.03817c2.28978,-0.09993 4.12516,0.37445 6.14926,1.49883c2.3504,1.32116 2.35041,1.32116 4.97415,1.31422c2.01948,-0.34437 4.75336,-0.74649 6.55963,0.44547c0.32057,0.2758 0.6323,0.56301 0.93538,0.85928c0.29331,0.24764 0.29332,0.24765 0.59255,0.50031c1.74285,1.49107 1.74285,1.49107 2.06897,2.44932c0.06107,0.67072 0.09551,1.30669 0.09881,1.97723c0.00111,0.18657 0.00221,0.37309 0.00337,0.56532c-0.01854,2.39561 -0.35143,4.53071 -1.90243,6.36943c-0.72153,0.48205 -1.22889,0.551 -2.08129,0.504c-0.21826,-0.00789 -0.4365,-0.01578 -0.66137,-0.02394c-0.2302,-0.00832 -0.46043,-0.01667 -0.69762,-0.02526c-2.3235,-0.03951 -3.86385,0.27325 -5.84302,1.58283c-0.20678,0.12309 -0.41355,0.24616 -0.62662,0.37297c-0.53396,0.36044 -0.88052,0.70328 -1.29334,1.20007c-0.85715,0.94484 -1.82041,1.45397 -2.92292,2.0469c-0.81147,0.50344 -1.22094,1.07664 -1.77283,1.8618c-0.92484,0.32667 -1.64193,0.29002 -2.62217,0.26412c-0.15852,-0.08055 -0.31703,-0.16115 -0.48034,-0.24413c-0.04753,0.13798 -0.09508,0.27598 -0.14404,0.41814c-0.45496,0.81284 -0.93281,1.39094 -1.73794,1.81908c-0.7196,0.1116 -1.43022,0.14985 -2.15689,0.19253c-2.12453,0.22063 -3.50614,1.8342 -4.96035,3.31453c-0.12801,0.12385 -0.25602,0.24767 -0.38791,0.37528c-0.50906,0.59208 -0.80011,1.28994 -1.14003,1.99584c-0.79902,1.40765 -1.74769,2.36659 -3.04203,3.28286c-0.12943,0.09616 -0.25886,0.19227 -0.3922,0.2913c-1.72085,1.24117 -3.17082,1.34982 -5.21159,1.33635c-0.23197,0.00137 -0.46393,0.00271 -0.70292,0.00406c-1.14491,0.0001 -2.22928,-0.03984 -3.3578,-0.27148c-2.16779,-0.31142 -3.69414,0.73059 -5.51989,1.80379c-1.2701,0.63874 -2.64358,0.52843 -4.0281,0.54462c-0.35615,0.00994 -0.35615,0.00995 -0.71951,0.02006c-2.05403,0.02436 -3.97781,-0.24555 -5.66887,-1.55504c-0.73896,-0.56712 -1.28126,-0.85692 -2.20436,-0.94381c-2.05639,0.42315 -3.56413,2.25213 -4.96633,3.74047c-0.20685,0.21837 -0.41369,0.43673 -0.6268,0.6617c-1.59427,1.77126 -2.26796,3.36033 -2.32415,5.79596c-0.0102,0.27132 -0.0102,0.27132 -0.0206,0.54815c-0.02098,0.57098 -0.03783,1.14199 -0.05426,1.71316c-0.01888,0.57375 -0.03864,1.14743 -0.05927,1.72113c-0.01252,0.35497 -0.02391,0.71003 -0.03399,1.06514c-0.02891,0.89177 -0.10243,1.73817 -0.28818,2.60894c0.15657,-0.07746 0.31315,-0.15499 0.47446,-0.23482c0.71275,-0.26727 0.71275,-0.26727 1.60751,-0.2885c0.9933,-0.10653 1.37474,-0.55596 2.02758,-1.31101c1.10133,-1.26586 2.15653,-1.71326 3.71759,-2.17179c0.27933,-0.10377 0.55865,-0.20754 0.84642,-0.31449c0.88698,-0.20675 1.66376,-0.2038 2.56906,-0.18554c0.66982,-0.02161 1.2627,-0.13976 1.91514,-0.29143c1.85624,-0.39483 3.61743,-0.14187 5.46262,0.24297c1.12266,0.22678 2.1929,0.21938 3.3287,0.17944c2.25464,-0.06043 3.37121,0.57275 5.00984,2.09722c0.7129,0.56828 1.50705,0.91425 2.32968,1.28006c0.6402,0.37113 0.91315,0.6264 1.26517,1.29561c0.10556,0.85498 0.10556,0.85498 0.11182,1.8226c0.00574,0.31805 0.01148,0.63606 0.0174,0.96372c-0.11736,1.29089 -0.53121,2.05597 -1.26092,3.08695c-1.12814,0.91463 -2.42193,1.03401 -3.81087,1.2916c-1.67572,0.36012 -2.59438,1.02556 -3.7726,2.2861c-1.42014,1.26491 -1.42014,1.26491 -2.61701,1.22307c-0.29132,-0.02392 -0.58265,-0.04789 -0.8828,-0.07254c-0.32419,-0.02077 -0.64842,-0.04085 -0.97269,-0.06038c-0.50806,-0.03113 -1.01478,-0.06543 -1.52191,-0.11127c-2.08714,-0.19619 -2.08714,-0.19619 -4.0168,0.51115c-0.60676,0.56489 -1.12718,1.14552 -1.64349,1.79903c-0.13309,0.15409 -0.26617,0.30816 -0.40328,0.46689c-0.33926,0.40248 -0.65388,0.81403 -0.96308,1.24164c-0.1085,0.14965 -0.21701,0.29928 -0.3288,0.45343c-2.52018,3.57133 -3.16675,8.00811 -3.59411,12.32723c-0.14945,1.47711 -0.38124,2.89355 -0.70058,4.33904c-2.16535,10.15883 0.08946,19.20345 3.67978,28.63576c0.79519,2.10378 1.48932,4.19962 2.07515,6.37489c0.40546,1.48608 0.92618,2.88205 1.55825,4.28309c0.09164,0.21038 0.18328,0.42077 0.27772,0.63754c0.42236,0.96179 0.863,1.90685 1.34142,2.84033c1.12426,2.24143 1.61369,5.10669 1.24632,7.59822c-0.44107,0.57376 -0.78804,0.91349 -1.41679,1.24529c-0.93247,0.06803 -1.86869,0.05894 -2.80362,0.06442c-0.27802,0.00194 -0.55602,0.00389 -0.84246,0.0059c-2.02507,0.00049 -4.01745,-0.12255 -6.0332,-0.32487c-2.93851,-0.30285 -2.93851,-0.30285 -5.83627,0.10724c-1.78611,0.17477 -3.38976,-0.12443 -5.13233,-0.52708c-3.77284,-0.78817 -7.82558,-0.49664 -11.61117,-0.01377c-1.34899,0.16027 -2.59119,0.13996 -3.94246,-0.02802c-0.80199,-0.05122 -1.46166,0.23474 -2.22785,0.46923c-1.99922,0.18938 -3.54106,0.17839 -5.2625,-0.95505c-0.24168,-0.24567 -0.24168,-0.24567 -0.29787,-1.02756c0.13194,-3.57591 2.67944,-7.1258 4.30078,-10.14444c1.74006,-3.25934 3.26431,-6.61994 4.75719,-10.00805c0.24227,-0.54712 0.48822,-1.09209 0.73678,-1.63614c1.29941,-2.88832 1.87323,-5.48725 0.80251,-8.62064c-0.70948,-1.90604 -1.53612,-3.71206 -2.85195,-5.25269c-1.41008,-1.65966 -2.06724,-3.27806 -2.71167,-5.37047c-0.59876,-1.89763 -1.14142,-3.4081 -2.38506,-4.96502c-0.80836,-1.02398 -1.46294,-1.85391 -1.77195,-3.16687c-0.13621,0.00662 -0.27243,0.01322 -0.41277,0.02005c-1.21002,0.0357 -2.33222,-0.04656 -3.52824,-0.25736c-1.38792,-0.23129 -2.55891,-0.15171 -3.9376,0.04082c-1.72953,0.19743 -2.84171,0.10364 -4.25991,-1.00207c-0.17534,-0.14864 -0.35068,-0.2973 -0.53134,-0.45048c-0.1951,-0.15363 -0.39019,-0.30725 -0.5912,-0.46553c-1.19358,-0.99108 -2.10136,-1.86112 -2.32109,-3.47141c-0.05177,-1.39445 -0.08165,-2.89166 0.57576,-4.14486c0.94252,-0.94233 1.92499,-0.81589 3.18216,-0.82399c0.08075,0.16265 0.16151,0.32532 0.24471,0.49288c0.29063,-0.26395 0.58063,-0.52868 0.87039,-0.79365c0.17312,-0.15793 0.34625,-0.31583 0.52463,-0.47853c0.53426,-0.49321 0.53426,-0.49321 1.11059,-1.20082c0.56055,-0.51352 0.56056,-0.51353 1.27482,-0.65722c0.71766,0.13446 0.71766,0.13446 1.29052,0.62523c0.68295,0.52948 1.12634,0.67615 1.97765,0.62565c1.82152,-0.4764 3.46,-1.85904 4.86786,-3.10148c0.72491,-0.48985 1.35666,-0.58909 2.2097,-0.44785c0.3943,0.10487 0.7884,0.2105 1.18232,0.31689c0.79259,0.08245 1.30155,-0.16424 2.04665,-0.43909c2.17848,-0.28051 3.99379,-0.10792 5.93625,1.00575c0.52557,0.43602 0.52557,0.43602 0.71516,1.30011c0.02319,0.28543 0.04637,0.57083 0.07026,0.86484c0.4611,0.42452 0.93508,0.74265 1.46653,1.06546c0.74365,0.65438 0.90213,1.40722 1.01351,2.39027c0.03719,0.56389 0.05137,1.12398 0.0592,1.68889c0.00816,0.18895 0.01631,0.37788 0.02472,0.57254c0.02419,1.40968 -0.26414,2.48872 -1.01699,3.66772c-1.66875,1.50266 -3.76479,2.27717 -5.93608,2.51055c0.46171,0.95117 0.92673,1.90054 1.39235,2.84965c0.12988,0.26767 0.25976,0.53534 0.39359,0.81111c0.6988,1.42017 1.4101,2.72427 2.36503,3.97671c1.05636,-0.3425 1.53852,-0.77604 2.1267,-1.74432c0.429,-1.35668 0.5712,-2.6617 0.66601,-4.08363c0.02585,-0.34794 0.02585,-0.34794 0.05223,-0.70292c0.10033,-1.41906 0.16711,-2.83637 0.21146,-4.25887c0.1266,-3.75874 0.48165,-7.14748 1.54606,-10.74055c1.13369,-4.08506 -0.30585,-8.32492 -1.37657,-12.26861c-0.07753,-0.30098 -0.15505,-0.602 -0.23493,-0.91211c-0.72009,-2.64143 -1.89369,-4.82097 -3.51652,-6.99061c-0.57901,-0.78421 -1.12629,-1.56919 -1.64043,-2.39995c-0.61366,-0.95282 -1.33867,-1.76139 -2.1051,-2.5824c-2.40076,-2.58264 -3.31066,-4.86739 -3.56359,-8.39841c-0.72902,-0.03439 -0.72902,-0.03438 -1.42889,0.25646c-1.6078,0.17445 -3.01247,-0.16753 -4.5571,-0.60419c-2.28999,-0.59907 -4.10501,-0.59506 -6.43309,-0.31397c-3.07198,0.17949 -4.79013,-0.17486 -7.18687,-2.17881c-0.20542,0.10839 -0.20542,0.10838 -0.415,0.219c-0.17608,0.09289 -0.35216,0.18581 -0.53357,0.28155c-0.22898,0.14395 -0.22898,0.14395 -0.46259,0.29077c-0.6105,0.26359 -0.97169,0.16751 -1.62146,0.06261c-0.63835,-0.05081 -0.63835,-0.05081 -1.25105,0.16258c-0.59907,0.70753 -1.01908,1.4296 -1.45477,2.25474c-0.56447,0.97749 -1.04448,1.35915 -2.07661,1.72372c-0.69816,0.02862 -1.3895,0.04335 -2.08785,0.04434c-0.18765,0.00219 -0.3753,0.00431 -0.56863,0.00657c-0.88691,0.0042 -1.69852,-0.03263 -2.57997,-0.17268c-0.24187,-0.0287 -0.48374,-0.05741 -0.73294,-0.08701c-0.18018,0.15922 -0.36038,0.31848 -0.54603,0.48251c-0.82769,0.66982 -1.39774,0.63701 -2.42344,0.65686c-1.04913,-0.22356 -1.62673,-0.8438 -2.22435,-1.73849c-0.81177,-1.61577 -1.1853,-2.98772 -1.40486,-4.78497c-0.21489,-1.01588 -0.66399,-1.67802 -1.29268,-2.47655c-0.37775,-0.57085 -0.45074,-1.05626 -0.57961,-1.72688c-0.31807,-0.16727 -0.63868,-0.32934 -0.96067,-0.48829c-0.94385,-1.06523 -1.11632,-1.9176 -1.07071,-3.30756c0.15109,-1.43298 0.40976,-2.65218 1.47799,-3.63301c0.69518,-0.48349 0.69518,-0.4835 1.17249,-0.48658c-0.28123,-1.48935 -0.62083,-2.96037 -0.994,-4.42833c-0.04315,-0.17005 -0.08631,-0.34013 -0.13078,-0.51533c-0.25442,-0.99189 -0.53106,-1.97373 -0.82167,-2.95522c-0.58193,-2.12554 -0.39452,-4.1172 0.34197,-6.18301c0.55512,-0.70532 1.08701,-1.13148 1.89108,-1.49556c-0.2052,-0.10005 -0.41041,-0.20007 -0.62184,-0.30311c-0.26527,-0.1315 -0.53056,-0.263 -0.80387,-0.39853c-0.26465,-0.13024 -0.5293,-0.26048 -0.80196,-0.39465c-0.65434,-0.36857 -0.65434,-0.36857 -0.89904,-0.86145c-0.07665,-1.76648 -0.07665,-1.76648 0.11794,-2.55033c0.02784,-0.13787 0.05569,-0.27573 0.08438,-0.41775c-0.16051,-0.24373 -0.32102,-0.48745 -0.48639,-0.73857c-0.22071,-1.5508 -0.0756,-2.85101 0.6645,-4.20722c0.63252,-0.63417 1.06066,-0.95397 1.8941,-1.24836c0.34394,-0.54372 0.34394,-0.54372 0.65664,-1.19403c1.0894,-1.98514 2.70294,-2.69889 4.7779,-3.29116c1.2067,-0.15239 2.40674,-0.18709 3.62229,-0.20874c0.32139,-0.00906 0.64277,-0.01857 0.96413,-0.02844c0.77714,-0.02234 1.55417,-0.04043 2.33152,-0.05461c-0.11507,-0.09882 -0.23013,-0.19761 -0.34868,-0.29943c-0.22713,-0.19628 -0.22713,-0.19628 -0.45884,-0.39652c-0.14989,-0.12918 -0.29979,-0.25839 -0.45423,-0.39146c-0.85509,-0.77123 -1.35081,-1.38752 -1.47383,-2.58029c-0.04606,-1.92192 -0.04606,-1.92192 0.17744,-2.79313c0.14755,-0.50391 0.14754,-0.5039 -0.27928,-1.10786c-0.47435,-1.05253 -0.46499,-1.93276 -0.1566,-3.04304c0.77012,-1.09918 2.10456,-1.24457 3.323,-1.50479c1.51155,-0.22246 2.96689,0.12061 4.4526,0.41152c2.80267,0.5476 5.3902,0.98701 8.20515,0.24864c-0.07902,-0.17124 -0.15803,-0.34252 -0.23943,-0.519c-0.54,-1.52386 -0.58123,-3.47809 0.03783,-4.98062c1.00627,-1.78528 2.46638,-3.2967 4.38234,-3.92212c0.91513,-0.23845 1.74273,-0.27546 2.68662,-0.2539c3.79988,0.1353 3.79988,0.1353 7.50676,-0.55345c3.14899,-0.9967 6.11262,-0.56456 9.30185,0.08254zM74.26903,136.70036c0.08176,0.24423 0.16351,0.48847 0.24774,0.74012c0.07576,-0.24525 0.15151,-0.4905 0.22958,-0.74319c-0.15751,0.00101 -0.31503,0.00203 -0.47731,0.00308zM61.89534,139.74686c0.24934,1.2152 0.24934,1.2152 0.83784,2.18201c0.11653,0.1693 0.23304,0.33859 0.3531,0.51295c0.12211,0.17305 0.24421,0.34614 0.37002,0.52445c0.18041,0.26105 0.18041,0.26105 0.36447,0.52736c0.56457,0.81434 1.14118,1.61443 1.73006,2.4105c0.05577,-1.87687 0.11156,-3.75369 0.16902,-5.68745c-1.26209,-0.15506 -2.52418,-0.31011 -3.82452,-0.46982zM78.64098,162.38437c-0.21151,2.53635 0.54074,4.77498 1.28106,7.16149c0.83841,-0.29614 0.90632,-0.46899 1.33672,-1.23608c0.11263,-0.19847 0.22528,-0.39697 0.34132,-0.60144c0.11558,-0.2087 0.23117,-0.4174 0.35026,-0.63241c0.11744,-0.20777 0.23489,-0.41552 0.3559,-0.62954c0.5921,-1.04286 0.5921,-1.04286 1.13204,-2.11505c-0.28126,-0.05429 -0.56252,-0.10856 -0.85229,-0.16449c-0.95066,-0.23327 -1.57956,-0.62963 -2.33047,-1.26845c-0.5258,-0.34508 -1.00477,-0.42234 -1.61454,-0.51403z" fill="#18480b"/><path d="M68.71037,131.04984c0.15751,-0.00101 0.31502,-0.00203 0.4773,-0.00308c0.72923,1.07932 0.72924,1.07932 0.73716,1.72587c0.16306,0.04995 0.32611,0.09987 0.49412,0.15134c0.94415,0.44907 1.62875,1.0885 2.39395,1.80792c0.33609,0.31143 0.33609,0.31143 0.67897,0.62914c0.52846,0.59811 0.78034,1.06856 1.02188,1.83223c0.15552,-0.16418 0.31103,-0.32834 0.47125,-0.49752c0.78578,-0.04019 1.56114,-0.00856 2.34776,0.0158c0.73661,0.01938 0.73661,0.01937 1.25307,-0.30169c0.45023,-0.23467 0.45023,-0.23467 1.02944,-0.21522c0.80048,0.28549 1.25251,0.72548 1.86873,1.32455c0.96419,0.92897 1.44268,1.35451 2.74796,1.48115c0.1953,0.01945 0.39059,0.03894 0.59181,0.05898c0.1497,0.01399 0.29939,0.02805 0.45362,0.04245c-0.63215,0.67113 -1.26809,1.33704 -1.91386,1.99405c-2.29825,2.35527 -3.92952,4.132 -4.05481,7.60051c-0.00745,0.1823 -0.01491,0.36456 -0.0226,0.5524c-0.02375,0.58124 -0.04632,1.16251 -0.06862,1.74376c-0.02943,0.76479 -0.06,1.52955 -0.09124,2.29427c-0.00633,0.17442 -0.01265,0.34884 -0.01916,0.52857c-0.03673,0.89846 -0.11382,1.75645 -0.30011,2.63437c0.15657,-0.07746 0.31315,-0.15499 0.47446,-0.23482c0.71275,-0.26727 0.71275,-0.26727 1.60751,-0.2885c0.9933,-0.10653 1.37474,-0.55596 2.02758,-1.31101c1.10133,-1.26586 2.15653,-1.71329 3.71759,-2.17179c0.27933,-0.10377 0.55865,-0.20754 0.84642,-0.31449c0.88698,-0.20675 1.66376,-0.2038 2.56906,-0.18554c0.66982,-0.02161 1.2627,-0.13976 1.91514,-0.29143c1.85624,-0.39483 3.61743,-0.14187 5.46262,0.24297c1.12267,0.22681 2.1929,0.21938 3.3287,0.17944c2.25464,-0.06043 3.37121,0.57275 5.00984,2.09722c0.7129,0.56828 1.50705,0.91422 2.32968,1.28006c0.6402,0.37113 0.91315,0.6264 1.26517,1.29561c0.10556,0.85498 0.10556,0.85498 0.11182,1.8226c0.00574,0.31805 0.01148,0.63606 0.0174,0.96372c-0.11736,1.29089 -0.53121,2.05597 -1.26092,3.08695c-1.12814,0.91459 -2.42193,1.03401 -3.81087,1.2916c-1.67572,0.36012 -2.59438,1.02556 -3.7726,2.2861c-1.42014,1.26491 -1.42014,1.26491 -2.61701,1.22307c-0.29132,-0.02392 -0.58265,-0.04789 -0.8828,-0.07254c-0.32419,-0.02077 -0.64843,-0.04085 -0.97269,-0.06038c-0.50806,-0.03113 -1.01478,-0.06543 -1.52191,-0.11127c-2.08714,-0.19619 -2.08714,-0.19619 -4.0168,0.51115c-0.60676,0.56486 -1.12718,1.14552 -1.64349,1.79903c-0.19962,0.23112 -0.19963,0.23112 -0.40328,0.46689c-0.33926,0.40248 -0.65388,0.81403 -0.96308,1.24164c-0.1085,0.14965 -0.21701,0.29928 -0.3288,0.45343c-2.52018,3.57133 -3.16675,8.00811 -3.59411,12.32723c-0.14944,1.47711 -0.38124,2.89355 -0.70058,4.33904c-2.16535,10.15883 0.08946,19.20345 3.67978,28.63576c0.79519,2.10378 1.48932,4.19964 2.07515,6.37489c0.40546,1.48608 0.92618,2.88205 1.55825,4.28309c0.09164,0.2104 0.18328,0.42077 0.27772,0.63754c0.42236,0.96179 0.863,1.90685 1.34142,2.84033c1.12426,2.24143 1.61369,5.10669 1.24632,7.59822c-0.44107,0.57376 -0.78804,0.91349 -1.41679,1.24529c-0.93247,0.06803 -1.86869,0.05894 -2.80362,0.06442c-0.27802,0.00193 -0.55602,0.00389 -0.84246,0.0059c-2.02507,0.00049 -4.01745,-0.12255 -6.0332,-0.32487c-2.93851,-0.30286 -2.93851,-0.30286 -5.83627,0.10724c-1.78611,0.17477 -3.38976,-0.12443 -5.13233,-0.52708c-3.77284,-0.78817 -7.82558,-0.49664 -11.61117,-0.01377c-1.34899,0.16027 -2.59118,0.13996 -3.94246,-0.02802c-0.80199,-0.05122 -1.46166,0.23474 -2.22785,0.46923c-1.99922,0.18938 -3.54106,0.17839 -5.2625,-0.95505c-0.24168,-0.24567 -0.24168,-0.24567 -0.29787,-1.02756c0.13194,-3.57591 2.67944,-7.1258 4.30078,-10.14444c1.74006,-3.25936 3.26431,-6.61994 4.75719,-10.00805c0.24227,-0.54712 0.48822,-1.09209 0.73678,-1.63614c1.29941,-2.88834 1.87323,-5.48725 0.80251,-8.62064c-0.70948,-1.90604 -1.53613,-3.71206 -2.85195,-5.25269c-1.41007,-1.65965 -2.06724,-3.27806 -2.71167,-5.37047c-0.59875,-1.89764 -1.14142,-3.4081 -2.38506,-4.96502c-0.80836,-1.02396 -1.46294,-1.85391 -1.77195,-3.16687c-0.13621,0.00662 -0.27243,0.01322 -0.41277,0.02005c-1.21002,0.0357 -2.33222,-0.04656 -3.52824,-0.25736c-1.38792,-0.23129 -2.55891,-0.15171 -3.9376,0.04082c-1.72953,0.19743 -2.84171,0.10364 -4.25991,-1.00207c-0.17534,-0.14864 -0.35068,-0.2973 -0.53134,-0.45048c-0.19509,-0.15363 -0.39019,-0.30725 -0.5912,-0.46553c-1.19357,-0.99112 -2.10136,-1.86112 -2.32109,-3.47141c-0.05178,-1.39449 -0.08165,-2.89166 0.57576,-4.14486c0.94252,-0.94233 1.92499,-0.81589 3.18216,-0.82399c0.12113,0.24396 0.12113,0.24396 0.24471,0.49288c0.29063,-0.26395 0.58063,-0.52868 0.87039,-0.79365c0.25969,-0.23687 0.25969,-0.23686 0.52463,-0.47853c0.53426,-0.49318 0.53426,-0.49318 1.11059,-1.20082c0.56055,-0.51352 0.56056,-0.51353 1.27482,-0.65722c0.71766,0.13446 0.71766,0.13446 1.29052,0.62523c0.68295,0.52948 1.12634,0.67615 1.97765,0.62565c1.82152,-0.4764 3.46,-1.85904 4.86786,-3.10148c0.72491,-0.48985 1.35666,-0.58909 2.2097,-0.44785c0.3943,0.10487 0.7884,0.2105 1.18232,0.31689c0.79258,0.08245 1.30155,-0.16424 2.04665,-0.43909c2.17848,-0.28054 3.99379,-0.10792 5.93625,1.00575c0.52557,0.43602 0.52557,0.43602 0.71516,1.30011c0.02319,0.28543 0.04638,0.57083 0.07026,0.86484c0.4611,0.42452 0.93508,0.74265 1.46653,1.06546c0.74365,0.65435 0.90213,1.40722 1.01351,2.39027c0.03719,0.56389 0.05137,1.12402 0.0592,1.68889c0.00816,0.18895 0.01631,0.37788 0.02472,0.57254c0.02419,1.40968 -0.26414,2.48872 -1.01699,3.66772c-1.66875,1.50266 -3.76479,2.27714 -5.93608,2.51055c0.46171,0.95117 0.92673,1.90054 1.39235,2.84965c0.12988,0.26767 0.25976,0.53534 0.39359,0.81111c0.6988,1.42017 1.4101,2.72427 2.36503,3.97671c1.05636,-0.3425 1.53852,-0.77604 2.1267,-1.74432c0.429,-1.35668 0.5712,-2.66169 0.66601,-4.08363c0.01724,-0.23197 0.03448,-0.46392 0.05223,-0.70292c0.10033,-1.41906 0.16711,-2.83637 0.21146,-4.25887c0.1266,-3.75874 0.48165,-7.14748 1.54606,-10.74055c1.13369,-4.08506 -0.30585,-8.32492 -1.37657,-12.26861c-0.07753,-0.30098 -0.15505,-0.602 -0.23493,-0.91211c-0.72009,-2.64143 -1.89369,-4.82097 -3.51652,-6.99061c-0.57901,-0.78421 -1.12629,-1.56919 -1.64043,-2.39995c-0.61366,-0.95279 -1.33867,-1.76139 -2.1051,-2.5824c-2.07791,-2.23533 -3.29489,-4.39643 -3.46312,-7.50283c-0.01146,-0.18192 -0.02292,-0.36381 -0.03472,-0.55124c-0.02773,-0.44428 -0.05305,-0.88874 -0.07785,-1.33317c0.92616,-0.68861 1.53064,-0.83823 2.66777,-0.80332c0.28161,0.00839 0.56323,0.01677 0.85338,0.02539c0.29213,0.01278 0.58426,0.02558 0.88523,0.03872c0.29206,0.00707 0.58412,0.01406 0.88503,0.02136c2.4353,0.08903 2.4353,0.08903 3.5418,0.90817c0.32537,0.53292 0.32539,0.53293 0.58081,1.13971c0.52845,1.15345 1.16788,2.07329 1.96438,3.0449c0.36176,0.47505 0.61832,0.93383 0.8656,1.47974c0.01266,-0.39828 0.01266,-0.39828 0.02557,-0.80463c0.01357,-0.35517 0.02726,-0.71033 0.04103,-1.06546c0.00788,-0.26131 0.00788,-0.26131 0.01592,-0.52791c0.04748,-1.15445 0.17406,-2.2002 0.56382,-3.29248c0.15575,-0.11989 0.3115,-0.23977 0.47197,-0.36327c0.72666,-0.59 0.77539,-1.39077 0.94252,-2.28814c0.07366,-0.3596 0.14818,-0.71905 0.22361,-1.07825c0.03567,-0.17087 0.07135,-0.34171 0.1081,-0.51775c0.12451,-0.54506 0.29444,-1.05742 0.49463,-1.577c0.34141,-0.97836 0.4406,-1.81168 0.51708,-2.84648zM78.64098,162.38437c-0.21151,2.53635 0.54074,4.77498 1.28106,7.16149c0.83841,-0.29614 0.90632,-0.46899 1.33672,-1.23608c0.11263,-0.19847 0.22528,-0.39697 0.34132,-0.60144c0.11558,-0.2087 0.23117,-0.4174 0.35026,-0.63241c0.11744,-0.20777 0.23489,-0.41552 0.3559,-0.62954c0.5921,-1.04286 0.5921,-1.04286 1.13204,-2.11505c-0.28126,-0.05429 -0.56252,-0.10856 -0.85229,-0.16449c-0.95066,-0.23327 -1.57956,-0.62963 -2.33047,-1.26845c-0.5258,-0.34508 -1.00478,-0.42238 -1.61454,-0.51403z" fill="#5c4012"/><path d="M20.29556,95.67615c0.34429,0.00442 0.68859,0.00831 1.03289,0.01175c0.71978,0.00843 1.43937,0.02099 2.15908,0.03694c0.90844,0.0201 1.81675,0.03297 2.72528,0.04315c6.15629,0.07035 6.15629,0.07035 9.14889,0.35774c0.25096,0.02304 0.25096,0.02304 0.50699,0.04654c1.08123,0.12331 2.05978,0.41482 3.08316,0.78212c0.55853,0.20006 1.0728,0.33343 1.65992,0.40557c0.14543,0.01788 0.29087,0.03572 0.44071,0.05414c1.52241,0.09584 2.68181,-0.41127 4.05485,-1.04885c1.17918,-0.43868 1.97768,-0.41736 3.10987,0.12485c0.33403,0.17576 0.66655,0.35464 0.99762,0.53631c1.78189,0.95223 3.14785,1.56537 5.16641,1.63556c0.19129,0.00797 0.38258,0.01594 0.57967,0.02415c2.17218,0.08446 4.27457,0.08323 6.4289,-0.22381c0.88526,1.61523 1.30073,3.08304 1.01516,4.93811c-0.45421,1.16725 -1.07473,2.06729 -2.11459,2.73317c-0.81295,0.23121 -0.81295,0.23121 -1.71041,0.41276c-1.0081,0.12402 -1.0081,0.12401 -1.85729,0.59915c-2.72642,0.00073 -4.69572,-0.51072 -6.9378,-2.09059c-1.47319,-1.00231 -3.09081,-0.97548 -4.79258,-0.80064c-0.50308,0.16727 -0.50308,0.16727 -0.94989,0.39241c-1.3782,0.65003 -2.96001,0.31109 -4.40693,0.01005c-2.6925,-0.5186 -4.4814,0.00331 -6.72669,1.44364c-1.46821,0.87312 -3.04797,0.94587 -4.68227,0.51787c-0.27739,-0.09001 -0.55478,-0.18 -0.84057,-0.27274c-1.79199,-0.51092 -3.54276,-0.5823 -5.3922,-0.58335c-0.26289,-0.00276 -0.52578,-0.00553 -0.79665,-0.00837c-1.49062,0.02082 -2.6095,0.20961 -3.92725,0.93935c-0.40847,0.21463 -0.40847,0.21463 -0.88578,0.21771c-0.10056,0.2301 -0.10056,0.2301 -0.20315,0.46487c-0.36834,0.74079 -0.61574,0.98489 -1.38695,1.24509c-1.03249,0.04781 -1.38839,-0.31805 -2.21928,-0.94375c-0.63154,-0.34558 -1.27466,-0.66299 -1.92135,-0.97657c0.00302,-0.20558 0.00604,-0.41114 0.00915,-0.62295c0.00102,-0.26867 0.00203,-0.53734 0.00308,-0.81417c0.00227,-0.26675 0.00454,-0.5335 0.00688,-0.80837c-0.00109,-0.76937 -0.00109,-0.76937 -0.54183,-1.45963c-0.04571,-0.86017 0.04229,-1.70053 0.49235,-2.42911c0.42896,-0.29638 0.42896,-0.29638 1.09715,-0.5479c1.02313,-0.67697 1.33936,-1.51494 1.85104,-2.63298c0.30225,-0.59492 0.30225,-0.59493 0.77652,-0.8452c0.00199,0.16317 0.00399,0.32631 0.00605,0.49445c0.12976,-0.08909 0.25952,-0.1782 0.39323,-0.27c1.82836,-1.12092 3.46375,-1.14221 5.54857,-1.08848z" fill="#5dad3a"/><path d="M68.57557,83.04031c2.07375,0.62882 4.17766,0.68445 6.30894,0.37753c0.37212,-0.04591 0.74456,-0.08919 1.11718,-0.13079c0.25346,-0.03002 0.50691,-0.06002 0.76804,-0.09092c2.42572,-0.16356 4.1105,0.49644 6.28871,1.5424c2.34627,1.07874 4.53831,0.9843 7.05939,0.86714c1.50835,-0.04177 2.44957,-0.06105 3.58663,1.02863c0.66666,0.93108 1.10751,2.05668 1.23262,3.20606c0.06275,0.30045 0.1255,0.60089 0.19015,0.91044c-0.00189,0.79172 -0.16728,1.06905 -0.64294,1.70386c-1.33356,1.35898 -2.60972,2.19773 -4.38957,2.79901c-0.63346,0.26313 -0.63346,0.26313 -0.88884,0.96185c-0.04963,0.19313 -0.09926,0.38626 -0.15039,0.58525c-0.13883,-0.03196 -0.27769,-0.06385 -0.42073,-0.09676c-0.18696,-0.04247 -0.37393,-0.08492 -0.56656,-0.12868c-0.18327,-0.04185 -0.36652,-0.08368 -0.55535,-0.12679c-4.71653,-0.99047 -9.62444,-0.86694 -14.40788,-0.78466c-0.27731,0.00425 -0.27731,0.00425 -0.56023,0.00861c-0.34702,0.00559 -0.69402,0.01238 -1.04098,0.02055c-0.87339,0.01451 -1.6601,-0.05438 -2.51337,-0.24643c-2.3997,-0.17723 -4.75349,-0.19531 -6.89096,1.04874c-1.85625,0.88612 -4.67673,0.66009 -6.69416,0.52213c-0.23828,-0.16165 -0.47653,-0.32327 -0.72202,-0.48983c0.12601,-0.0607 0.25203,-0.12146 0.38186,-0.18402c1.20011,-0.60115 2.15416,-1.09504 2.71239,-2.41349c0.28584,-1.23684 0.22689,-2.41441 0.1852,-3.68167c-0.01422,-0.49338 -0.02746,-0.98679 -0.03957,-1.48026c-0.00695,-0.21708 -0.01389,-0.43416 -0.02105,-0.65784c0.01335,-0.50389 0.01335,-0.5039 0.24898,-0.75264c-0.02272,-0.22261 -0.04545,-0.44525 -0.06886,-0.67461c-0.08821,-0.89572 -0.11699,-1.65176 0.02951,-2.53917c0.67331,-0.77855 1.43401,-1.12964 2.36838,-1.49864c0.15857,-0.06571 0.31713,-0.13143 0.48051,-0.19913c2.58941,-0.8633 5.09556,-0.18177 7.61497,0.59414z" fill="#31810e"/><path d="M92.04565,110.75011c1.58296,0.87181 2.8177,1.20822 4.58977,0.83575c0.66627,-0.22998 1.31917,-0.49422 1.97472,-0.75443c3.02084,-1.18308 6.55502,-1.40466 9.61905,-0.20101c0.22594,0.11041 0.45189,0.22082 0.68469,0.33457c0.98835,0.47415 1.92735,0.5578 3.00421,0.55719c5.60136,0.05799 10.89546,1.12207 15.38411,4.7944c0.64016,0.48878 1.24642,0.82627 1.9693,1.16261c1.09798,0.53006 1.68283,0.94714 2.3073,2.04029c0.25087,1.20378 0.1323,2.15895 -0.43776,3.23227c-0.15459,0.24066 -0.30916,0.4813 -0.46842,0.72927c-2.28793,0.17922 -3.98526,-0.09369 -6.11848,-0.88869c-2.02146,-0.74864 -4.02035,-1.10913 -6.11579,-0.5159c-1.70998,0.47719 -2.57301,0.22079 -4.10168,-0.64384c-1.31815,-0.64918 -2.51624,-0.85687 -3.96282,-0.80114c-0.31111,0.00808 -0.62221,0.01612 -0.94273,0.02441c-0.64136,0.0202 -1.28228,0.04469 -1.92344,0.07035c-1.6885,0.04003 -3.13873,-0.05425 -4.77105,-0.52652c-2.09707,-0.60309 -4.08386,-0.56468 -6.24033,-0.48518c-0.55033,0.01733 -1.10061,0.03308 -1.6511,0.04583c-0.33789,0.00812 -0.6757,0.01883 -1.01337,0.03289c-1.67964,0.04585 -3.11683,-0.37355 -4.64246,-1.09784c-1.67345,-0.73539 -3.34804,-1.04364 -5.13298,-1.34217c-0.02262,-0.16398 -0.04524,-0.32797 -0.06854,-0.49691c-0.17763,-1.06991 -0.33177,-1.81875 -0.95525,-2.71052c-0.87677,-0.62069 -1.56821,-0.77859 -2.60747,-0.97214c1.38105,-1.99416 3.05265,-2.35605 5.30601,-2.80008c0.21297,-0.04519 0.42593,-0.09039 0.64536,-0.13695c2.13945,-0.43194 3.71732,-0.67374 5.66918,0.5135z" fill="#31810e"/><path d="M97.42736,151.89509c1.12267,0.22681 2.19291,0.21935 3.3287,0.17944c2.25464,-0.06043 3.37121,0.57275 5.00984,2.09722c0.7129,0.56828 1.50705,0.91422 2.32968,1.28006c0.64019,0.37112 0.91315,0.6264 1.26517,1.29561c0.10556,0.85498 0.10556,0.85498 0.11182,1.8226c0.00574,0.31805 0.01148,0.63606 0.0174,0.96372c-0.11736,1.29089 -0.53121,2.05597 -1.26092,3.08695c-1.12814,0.91459 -2.42192,1.03401 -3.81087,1.2916c-1.67571,0.36012 -2.59438,1.02556 -3.7726,2.2861c-1.1347,1.0107 -1.78707,1.28685 -3.28806,1.23609c-0.27346,-0.00908 -0.54693,-0.01817 -0.8287,-0.02752c-0.2858,-0.0109 -0.5716,-0.02181 -0.86606,-0.03305c-0.28486,-0.00898 -0.56971,-0.01799 -0.86319,-0.02726c-2.97501,-0.10551 -2.97501,-0.10552 -4.18049,-1.33094c-0.80204,-0.47996 -1.42059,-0.49226 -2.31764,-0.44863c-1.18198,0.03844 -1.98001,-0.27672 -3.05064,-0.76936c-0.6771,-0.24925 -1.23014,-0.28983 -1.94489,-0.31099c-1.25266,-0.06346 -1.9761,-0.47445 -2.96708,-1.25471c-0.49506,-0.3886 -0.49506,-0.3886 -1.11786,-0.61088c-0.84408,-0.34455 -1.36226,-0.90191 -1.79144,-1.71235c-0.20588,-0.95906 -0.12792,-1.75119 0.28088,-2.64411c0.19589,-0.28425 0.19589,-0.28425 0.39572,-0.57427c0.1056,-0.21993 0.21121,-0.43988 0.32002,-0.66649c0.47589,-0.71749 0.76036,-0.84722 1.56802,-1.07628c0.29527,-0.00699 0.59054,-0.01402 0.89476,-0.02122c0.9933,-0.10653 1.37474,-0.55596 2.02758,-1.31101c1.10133,-1.26586 2.15653,-1.71329 3.71759,-2.17179c0.27933,-0.10377 0.55865,-0.20754 0.84642,-0.31449c0.88699,-0.20675 1.66375,-0.20381 2.56906,-0.18554c0.66982,-0.02161 1.2627,-0.13976 1.91514,-0.29143c1.85624,-0.39483 3.61743,-0.14187 5.46262,0.24297z" fill="#17470a"/><path d="M106.76626,87.32238c3.33105,1.28238 6.61717,1.62419 10.07459,0.76023c1.12166,-0.25856 2.05827,-0.33813 3.0976,0.26494c1.01722,0.77888 1.85951,1.6836 2.7331,2.62711c1.59348,1.67551 2.99986,2.0062 5.21293,2.16111c0.23283,0.01876 0.46565,0.03748 0.70553,0.0568c0.57096,0.04555 1.14198,0.08829 1.7133,0.1285c0.77502,1.71418 0.98028,2.79367 0.53426,4.64763c-0.61811,1.04556 -1.27514,1.24813 -2.36782,1.54499c-0.22281,0.06995 -0.44564,0.13993 -0.67519,0.21199c-1.91301,0.56776 -3.76588,1.03756 -5.631,0.09131c-0.14845,-0.08796 -0.2969,-0.17591 -0.44985,-0.26656c-0.89904,-0.52591 -1.6018,-0.48385 -2.60357,-0.42554c-4.10966,0.17684 -7.46489,-0.16399 -11.36963,-1.74038c-1.92892,-0.73466 -3.74485,-0.59055 -5.64025,0.15891c-1.61302,0.43073 -2.82193,0.16219 -4.31573,-0.53619c-1.34245,-0.58993 -2.50546,-0.93523 -3.965,-0.97886c0.65502,-0.7126 1.31507,-1.36592 2.04909,-1.99103c0.82896,-0.75087 1.16588,-1.2997 1.29663,-2.45364c0.07636,-1.69541 -0.47873,-3.15448 -1.07119,-4.71756c3.48262,-2.17661 7.14403,-0.93294 10.67221,0.45626z" fill="#6f9d1c"/><path d="M29.14254,83.94896c3.30323,0.79885 6.52531,0.64593 9.88682,0.50752c2.86174,-0.11006 5.24602,-0.18227 7.85553,1.16698c1.02854,0.43853 1.93234,0.46506 2.98986,0.12259c0.16388,-0.08393 0.32776,-0.16783 0.4966,-0.25429c0.27063,-0.13558 0.27063,-0.13559 0.54672,-0.27393c0.47528,-0.26414 0.92464,-0.5504 1.37872,-0.85101c0.9208,-0.50382 1.43911,-0.58024 2.47074,-0.44858c1.10447,0.53679 1.10447,0.53679 1.44706,1.22684c0.0481,0.94533 0.01654,1.84664 -0.10019,2.78201c-0.15534,0.90998 -0.15535,0.90997 0.15467,1.66783c0.04048,0.483 0.06452,0.96752 0.07744,1.452c0.0139,0.38136 0.0139,0.38136 0.02808,0.77046c-0.07983,0.85832 -0.27457,1.29905 -0.77003,1.98476c-0.4416,0.3312 -0.4416,0.3312 -0.91797,0.56218c-0.15595,0.07879 -0.31189,0.15755 -0.47256,0.2387c-2.16399,0.8555 -4.38879,0.6705 -6.47899,-0.25571c-1.32552,-0.14045 -2.59856,-0.16618 -3.82884,0.39548c-1.28074,0.58434 -2.77513,0.70659 -4.10205,0.17799c-0.18592,-0.0874 -0.37184,-0.17475 -0.5634,-0.26478c-2.20664,-0.84888 -4.62964,-0.66339 -6.94874,-0.6821c-3.46464,-0.03748 -5.66519,-0.57685 -8.33262,-3.03035c-0.61938,-0.65156 -0.85378,-1.05597 -0.96295,-1.96877c0.09161,-1.04618 0.40311,-1.34183 1.018,-2.13895c0.05032,-0.64655 0.05032,-0.64655 -0.25379,-1.23453c-0.39623,-0.33428 -0.7977,-0.66205 -1.20539,-0.98117c-0.003,-0.24471 -0.00599,-0.48944 -0.00908,-0.74162c2.16774,-0.53962 4.43337,-0.45645 6.59631,0.07043z" fill="#31810e"/><path d="M96.50693,98.35201c2.53864,1.20448 4.48696,1.52816 7.13372,0.57989c2.57379,-0.43189 5.16187,0.53058 7.46269,1.7062c1.88745,0.91089 3.71782,0.77417 5.7383,0.6811c4.18741,-0.19167 4.18741,-0.19167 5.9504,1.39966c0.13587,0.14157 0.27174,0.2832 0.41174,0.42904c1.08709,1.01418 2.24852,1.29576 3.65896,1.56799c0.00984,0.80347 0.00983,0.80346 -0.21747,1.73205c-0.65613,0.45239 -1.17067,0.71475 -1.89711,1.00115c-0.25441,0.10329 -0.50881,0.20659 -0.77093,0.31303c-0.52918,0.21411 -1.05984,0.42448 -1.59213,0.63027c-0.72223,0.28258 -0.72222,0.28258 -1.29464,0.71334c-0.80676,0.45832 -1.55847,0.50651 -2.46116,0.54606c-0.18334,0.00918 -0.36667,0.01839 -0.55555,0.02783c-7.11985,0.28814 -7.11984,0.28815 -9.52269,-0.78187c-3.5468,-1.50829 -7.84793,-0.86532 -11.28204,0.60647c-1.19884,0.51248 -1.9713,0.72235 -3.27999,0.36804c-0.62987,-0.27311 -0.62986,-0.27312 -1.20065,-0.59489c-0.95601,-0.51432 -1.83147,-0.85781 -2.87766,-1.10946c0.22727,-0.73574 0.45456,-1.47148 0.68872,-2.22953c0.1575,-0.00101 0.31502,-0.00203 0.4773,-0.00308c0.54881,-1.77658 0.14141,-3.42439 -0.42079,-5.12735c-0.33425,-1.03326 -0.62021,-1.92195 -0.63372,-3.02451c2.06883,-0.73078 4.5233,-0.3634 6.48469,0.56857z" fill="#31810e"/><path d="M69.00505,97.17518c1.41868,0.33488 2.83561,0.31097 4.28278,0.32202c2.881,0.02593 5.75172,0.1429 8.62487,0.3843c0.34312,0.02881 0.68633,0.0566 1.02959,0.08323c0.48036,0.03782 0.96037,0.08058 1.44036,0.12353c0.27263,0.02385 0.54527,0.04771 0.82616,0.07231c1.23474,0.23232 1.99836,0.57919 2.73488,1.64505c0.66072,1.31443 1.40418,2.90638 1.20264,4.41152c-0.15552,0.16418 -0.31104,0.32834 -0.47126,0.49749c-0.13107,0.55853 -0.21315,1.11725 -0.29915,1.68524c-0.17762,0.6388 -0.34881,0.88924 -0.85779,1.28902c-0.54048,0.16634 -1.07298,0.25446 -1.62912,0.35042c-0.52816,0.11435 -0.52816,0.11435 -0.84113,0.51824c-0.54539,0.55602 -1.11408,0.64239 -1.84965,0.84342c-1.85957,0.5746 -3.10626,1.3901 -4.21413,3.04029c-0.84173,-0.14581 -1.32374,-0.48688 -1.99648,-1.02243c-2.0859,-1.51308 -4.56443,-2.68572 -7.14919,-2.52771c-1.33602,0.2983 -2.75491,0.98806 -3.64026,2.09016c-0.35516,0.30842 -0.35516,0.30842 -0.8998,0.29551c-0.82297,-0.28616 -1.48143,-0.70788 -2.21483,-1.19002c-0.90551,-0.59312 -1.75034,-1.11549 -2.76288,-1.48105c0.47125,-0.49749 0.47125,-0.49749 1.13868,-0.81083c1.40417,-0.81327 2.08191,-1.93819 2.50595,-3.51119c0.41671,-2.37939 0.061,-4.39183 -0.91399,-6.57379c1.90859,-0.9483 3.89067,-1.07334 5.95374,-0.53472z" fill="#5dad3a"/><path d="M56.71409,125.93519c0.45584,0.02817 0.45584,0.02817 0.92089,0.05686c1.72625,0.15636 2.8265,0.36128 4.13246,1.55817c0.84557,0.60179 1.85058,0.60986 2.84948,0.55916c0.15652,-0.08258 0.31303,-0.16519 0.47428,-0.25028c0.7305,-0.0356 0.7305,-0.0356 1.43193,-0.00923c0.24168,0.24567 0.24167,0.24567 0.26738,1.12627c-0.00149,0.28047 -0.00297,0.56093 -0.0045,0.8499c-0.23527,0.08309 -0.47053,0.16621 -0.71294,0.25182c-0.38599,2.08615 -0.38599,2.08615 -0.42584,4.20568c0.15751,-0.00101 0.31502,-0.00203 0.47731,-0.00308c-0.06771,0.48477 -0.13657,0.96933 -0.20595,1.45383c-0.03823,0.26989 -0.07646,0.53974 -0.11585,0.81777c-0.11918,0.69806 -0.11918,0.69806 -0.35178,1.19401c-1.29371,0.0765 -2.38019,-0.01344 -3.64383,-0.33193c-1.35972,-0.34268 -2.66316,-0.48925 -4.05771,-0.55524c-0.57613,-0.0416 -1.06495,-0.13887 -1.6211,-0.28896c-1.37671,-0.21379 -2.24125,0.00691 -3.42157,0.76374c-1.378,0.84714 -2.37197,1.01127 -3.95854,0.76717c-0.42413,-0.11435 -0.84819,-0.22908 -1.27105,-0.34853c-0.23768,-0.06664 -0.23768,-0.06664 -0.48016,-0.13464c-0.16432,-0.04662 -0.32866,-0.09325 -0.49796,-0.14129c-2.10719,-0.52176 -4.26637,-0.34295 -6.40733,-0.1851c-2.31837,0.10545 -3.48841,-0.49674 -5.22176,-2.06783c-0.84389,-0.70026 -1.58661,-0.9539 -2.64033,-1.21916c0.29732,-0.709 0.57926,-1.25731 1.17208,-1.73819c0.31502,-0.00203 0.63004,-0.00406 0.95462,-0.00615c-0.00499,-0.40789 -0.00999,-0.81579 -0.01514,-1.23607c0.98324,-0.38512 1.84038,-0.55383 2.88612,-0.63667c1.99865,-0.29621 3.07092,-1.48846 4.46979,-2.87193c0.67669,-0.3571 1.23645,-0.26059 1.99686,-0.24079c4.39035,0.12378 4.39035,0.12378 8.63655,-0.86763c1.49907,-0.5646 2.80291,-0.60452 4.38362,-0.47172z" fill="#31810e"/><path d="M39.96171,106.40068c0.80311,0.16522 1.60414,0.14634 2.41831,0.14186c0.25178,0.00291 0.25178,0.00291 0.50865,0.0059c0.99166,-0.00352 1.70759,-0.14519 2.60215,-0.56677c1.70501,-0.32514 3.02386,0.11389 4.50709,1.01205c0.5228,0.43895 0.52281,0.43894 0.83229,1.34864c-0.04964,0.81927 -0.04964,0.81927 -0.27922,1.56243c-2.14914,1.17532 -4.25599,1.40089 -6.65451,1.23333c-1.51761,-0.07288 -2.40631,0.31742 -3.57734,1.30489c-1.23567,1.21702 -1.51819,2.50648 -1.85777,4.21493c-0.22249,-0.08014 -0.44499,-0.16032 -0.67423,-0.24289c-1.34833,-0.38816 -2.9355,-0.51658 -4.23975,0.03503c-0.61137,0.25857 -0.91379,0.28014 -1.56026,0.18774c-0.18645,-0.02523 -0.37289,-0.05049 -0.56498,-0.07651c-0.62667,-0.1058 -1.24837,-0.23071 -1.87178,-0.35589c-1.7451,-0.32474 -3.53567,-0.45214 -5.25001,0.06471c-0.9748,0.26384 -1.57163,0.23813 -2.5508,0.00097c-0.1944,-0.12112 -0.38877,-0.24225 -0.58906,-0.36703c-1.24269,-0.53296 -2.43291,-0.51581 -3.76301,-0.54749c-0.26087,-0.0109 -0.52176,-0.02181 -0.79054,-0.03307c-1.45734,-0.10065 -1.45734,-0.10065 -2.73903,0.5039c-0.59138,0.05209 -0.59138,0.05209 -1.23764,0.03886c-0.21509,-0.00307 -0.43019,-0.00615 -0.6518,-0.0093c-0.16404,-0.0047 -0.32808,-0.00937 -0.49709,-0.01419c-0.32316,-0.65088 -0.24908,-1.08102 -0.20113,-1.80659c0.01313,-0.23368 0.02627,-0.46736 0.03981,-0.70816c0.14499,-0.83099 0.30213,-1.28673 0.82279,-1.93969c0.61755,-0.24447 1.17581,-0.42342 1.81274,-0.5834c1.56716,-0.44833 2.50709,-1.00869 3.66292,-2.21969c1.41796,-1.41088 3.17161,-1.30673 5.05337,-1.27642c1.3742,0.0788 2.63593,0.35201 3.96281,0.72292c2.82292,0.77019 5.34957,0.86409 7.9246,-0.69229c0.25861,-0.16134 0.51723,-0.32269 0.78368,-0.48891c1.61938,-0.96108 2.84485,-0.99471 4.61878,-0.44983z" fill="#31810e"/><path d="M61.13739,74.28967c1.7473,0.39233 3.2823,0.56877 5.06153,0.28375c2.07639,-0.31059 3.46412,-0.38375 5.22581,0.9292c0.53289,0.4896 0.87806,0.91015 1.00191,1.6479c0.02661,0.92622 0.00839,1.5622 -0.37888,2.40716c-1.05197,0.92463 -2.19634,1.60675 -3.61948,1.50379c-0.46218,-0.09238 -0.92387,-0.18752 -1.38518,-0.28466c-3.34927,-0.56925 -6.12127,-0.34373 -8.95257,1.63666c-0.3185,0.24469 -0.6352,0.49209 -0.94553,0.74777c-0.32777,-0.23499 -0.32777,-0.23499 -0.66217,-0.47472c-1.18432,-0.76478 -2.25924,-0.93433 -3.64874,-0.73367c-0.83516,0.32495 -1.58039,0.78809 -2.32618,1.28979c-1.02328,0.67444 -1.68885,0.88672 -2.89999,0.72175c-0.32573,-0.15467 -0.64792,-0.31761 -0.96717,-0.48629c-1.29112,-0.59943 -2.47002,-0.62715 -3.86466,-0.62604c-2.92892,-0.02193 -2.92892,-0.02193 -4.01955,-0.56127c-0.71598,-0.82822 -1.03624,-1.89569 -1.11065,-2.99055c0.20171,-1.79734 1.41385,-3.04092 2.69344,-4.18939c0.89464,-0.63956 1.81766,-0.55282 2.86415,-0.52644c0.38524,0.00378 0.7705,0.0074 1.15574,0.0109c0.60177,0.0083 1.20344,0.01815 1.80517,0.03099c2.29257,0.04484 4.22249,-0.02621 6.40184,-0.84873c2.70107,-0.97999 5.87062,-0.10196 8.57117,0.51212z" fill="#6f9d1c"/><path d="M36.57028,118.15351c0.84248,0.38479 1.58373,0.88673 2.34447,1.42194c0.39483,0.26692 0.78968,0.53379 1.18452,0.8007c0.18161,0.12531 0.36323,0.25064 0.55034,0.37973c0.5535,0.37732 1.11951,0.72691 1.69377,1.06893c0.43634,0.30623 0.43635,0.30624 0.72504,0.73704c0.11501,0.86456 0.11501,0.86456 0.02119,1.73047c-0.4416,0.48187 -0.44161,0.48187 -0.94554,0.74781c-0.15751,0.00101 -0.31502,0.00203 -0.47731,0.00308c-0.11363,0.36785 -0.11363,0.36785 -0.22957,0.74316c-0.31967,0.23597 -0.64168,0.46919 -0.97427,0.68519c-0.73489,0.51607 -1.3931,1.13263 -2.06342,1.73425c-0.50882,0.32294 -0.50882,0.32294 -0.96208,0.24403c-0.4806,-0.15453 -0.95117,-0.32125 -1.42225,-0.50486c-0.17217,-0.06501 -0.34433,-0.13004 -0.52172,-0.19704c-0.35608,-0.13527 -0.71145,-0.27272 -1.06602,-0.41227c-1.3805,-0.5151 -2.62852,-0.78897 -4.06099,-0.29012c-0.17521,0.08843 -0.35042,0.17691 -0.53094,0.26804c-1.52784,0.64977 -3.07629,0.73983 -4.71256,0.8376c-1.73424,0.12882 -2.83772,0.52661 -4.04015,1.89196c-0.9551,0.90333 -2.33331,0.73818 -3.55682,0.7588c-0.9025,0.09418 -1.29196,0.33137 -2.03245,0.83786c-1.32261,0.25214 -2.45198,0.05269 -3.58889,-0.71859c-0.64632,-0.61341 -0.72078,-0.92219 -0.82797,-1.83344c0.08473,-0.9486 0.19162,-1.39694 0.77954,-2.12194c0.23053,-0.06775 0.46107,-0.13555 0.69858,-0.20537c0.84118,-0.34497 0.90665,-0.50908 1.2816,-1.32169c0.13016,-0.31803 0.25713,-0.63767 0.37608,-0.96044c0.23627,-0.00152 0.47253,-0.00304 0.71596,-0.00461c0.32696,-0.38317 0.32696,-0.38317 0.60095,-0.86917c0.29329,-0.48863 0.29329,-0.48863 0.57112,-0.86898c0.15751,-0.00101 0.31502,-0.00203 0.47731,-0.00308c0.00279,-0.17341 0.0056,-0.3468 0.00848,-0.52543c0.31885,-1.05603 0.95626,-1.64859 1.86745,-2.20623c0.81765,-0.00526 1.37137,0.21467 2.13921,0.49613c0.90128,0.27892 1.46784,0.35191 2.40429,0.21631c0.40275,-0.23572 0.79711,-0.4871 1.1842,-0.74934c1.00819,-0.68192 1.62092,-0.94471 2.85477,-0.76006c0.25204,0.07995 0.50406,0.15993 0.76374,0.24231c1.93528,0.51165 3.48494,0.47561 5.24433,-0.52822c0.21335,-0.13908 0.42671,-0.27812 0.64653,-0.42137c0.9991,-0.4496 1.80192,-0.55194 2.87945,-0.34305z" fill="#5dad3a"/><path d="M58.22524,175.03199c0.78951,0.38219 0.9581,0.4695 1.32887,1.32034c0.05714,0.24439 0.11428,0.48875 0.17315,0.74056c0.46277,0.54819 0.91909,0.94809 1.49351,1.36561c0.43691,0.35258 0.43691,0.35258 0.68464,1.09268c0.04116,0.52429 0.06556,1.04996 0.07897,1.5756c0.00955,0.2772 0.0191,0.55441 0.02894,0.84002c-0.07853,0.91451 -0.21665,1.32617 -0.76937,2.03884c-0.53729,0.36796 -1.0262,0.6637 -1.59937,0.95286c-0.14118,0.07787 -0.28238,0.15574 -0.42784,0.23599c-1.01824,0.52923 -1.83017,0.64329 -2.96333,0.57392c0.07576,-0.24525 0.15151,-0.49049 0.22958,-0.74319c0.15652,-0.08258 0.31303,-0.16519 0.47428,-0.25028c-0.79058,-0.53634 -1.16004,-0.57422 -2.08125,-0.63558c-0.23742,-0.01694 -0.47483,-0.0339 -0.71945,-0.05138c-0.18135,-0.01093 -0.3627,-0.0219 -0.54954,-0.03315c0.003,0.24474 0.006,0.48946 0.00908,0.74163c0.15851,0.08055 0.31703,0.16115 0.48033,0.24413c-0.46474,0.11566 -0.92949,0.23134 -1.39422,0.347c-0.51184,0.13956 -0.51184,0.13956 -0.9443,0.41544c-0.58823,0.28065 -0.99817,0.31182 -1.64508,0.31784c-0.32704,0.00356 -0.32704,0.00356 -0.66069,0.00715c-0.34532,-0.00113 -0.34532,-0.00113 -0.69763,-0.00226c-0.35407,0.00083 -0.35407,0.00083 -0.7153,0.00171c-1.53604,-0.00884 -2.97903,-0.13473 -4.49299,-0.41338c-1.25605,-0.20314 -2.51629,-0.24047 -3.74383,0.10426c-0.73206,0.06075 -0.73206,0.06075 -1.42623,-0.36262c-0.22303,-0.19902 -0.44606,-0.39804 -0.67585,-0.6031c-0.33725,-0.29374 -0.33725,-0.29374 -0.68132,-0.59341c-1.28341,-1.25575 -1.28341,-1.25575 -1.40556,-2.10113c0.01739,-0.48298 0.03479,-0.96596 0.05218,-1.44896c0.1499,-0.01943 0.2998,-0.0389 0.45425,-0.05894c1.80996,-0.30024 3.09466,-0.97208 4.22179,-2.49177c0.0988,-0.14788 0.19759,-0.29573 0.29938,-0.44812c0.16801,0.05246 0.33602,0.10491 0.50912,0.15897c2.05101,0.60803 3.38444,0.97565 5.30939,-0.08828c0.90929,-0.55525 1.73787,-1.17338 2.57304,-1.83991c1.00962,-0.76569 1.00963,-0.7657 1.98964,-0.75453c0.26674,0.07476 0.53347,0.14956 0.8083,0.22659c2.37478,0.2343 3.99499,-1.31176 6.39475,-0.38115z" fill="#31810e"/><path d="M129.00457,104.20765c1.92567,0.57406 3.57596,1.46203 5.30843,2.49802c1.36273,0.81337 2.20067,0.94444 3.76786,0.86808c0.32413,-0.01123 0.64829,-0.02201 0.97246,-0.03232c0.50649,-0.01695 1.01225,-0.03634 1.51824,-0.064c3.16907,-0.16709 3.16907,-0.1671 4.54617,0.91535c0.30597,0.2906 0.60527,0.58909 0.89482,0.89721c0.13073,0.11628 0.26144,0.23251 0.39613,0.3523c0.71817,0.70775 0.90051,1.32854 0.9492,2.31223c-0.05976,1.48792 -0.36767,2.79992 -1.12211,4.06629c-1.14969,0.82828 -2.64435,0.57074 -4.0072,0.56229c-1.52044,0.02721 -2.51093,0.25258 -3.78123,1.12964c-0.95733,0.60923 -1.8144,0.36718 -2.85897,0.10727c-1.44371,-0.4143 -2.57222,-0.88188 -3.81333,-1.76302c-0.4723,-0.11496 -0.94476,-0.22957 -1.41934,-0.3337c-1.24158,-0.37158 -2.26305,-1.24236 -3.26412,-2.06211c-1.48717,-1.16853 -3.24536,-1.91738 -4.92628,-2.7342c0.49957,-0.58807 0.90331,-0.87776 1.6177,-1.13165c0.17459,-0.06342 0.34919,-0.12686 0.52907,-0.1922c0.18136,-0.06345 0.36272,-0.12695 0.54958,-0.19234c0.52903,-0.18986 1.05784,-0.38026 1.58608,-0.57243c0.38391,-0.13837 0.76975,-0.2711 1.15604,-0.4023c0.62903,-0.3394 0.74416,-0.56324 0.95979,-1.25878c0.09747,-0.51278 0.1799,-1.02895 0.24957,-1.54681c0.03673,-0.26666 0.07345,-0.5333 0.1113,-0.80807c0.02644,-0.20285 0.05287,-0.40572 0.08011,-0.61474z" fill="#6f9d1c"/><path d="M86.82877,76.12873c1.52224,0.45524 2.98329,0.65154 4.56292,0.7084c2.48152,0.14056 4.56319,1.21641 6.75638,2.35153c0.74393,0.24265 1.39059,0.25586 2.1657,0.22269c0.34415,-0.01009 0.34415,-0.01009 0.69526,-0.02041c0.48095,-0.01628 0.96182,-0.0355 1.44252,-0.05757c1.7505,-0.04412 1.7505,-0.04412 2.54018,0.50272c0.51004,0.83581 0.53615,1.30904 0.35227,2.27304c-0.43449,0.40324 -0.87276,0.6779 -1.38668,0.96308c-0.52067,0.26623 -0.52067,0.26623 -0.93696,0.68593c-0.73294,0.4931 -1.34534,0.45388 -2.21488,0.48168c-1.96735,0.09599 -3.64956,0.57392 -5.44256,1.39484c-0.16967,-0.18761 -0.33934,-0.37515 -0.51414,-0.56842c-1.18846,-1.12973 -2.15328,-1.48419 -3.75166,-1.44765c-0.30868,0.00218 -0.61735,0.00436 -0.93538,0.00656c-0.1609,0.00186 -0.3218,0.00372 -0.48758,0.00564c-2.74226,0.0223 -5.10943,-0.11722 -7.59799,-1.44812c-1.92166,-0.94168 -3.78482,-0.9547 -5.87537,-0.90569c-0.25208,0.00384 -0.50416,0.00771 -0.76389,0.01166c-0.61543,0.00975 -1.2307,0.0218 -1.84602,0.03604c0.04941,-0.1858 0.09883,-0.37162 0.14975,-0.56302c0.32534,-1.30159 0.5713,-2.40331 0.43885,-3.75188c-0.03159,-0.60049 -0.03159,-0.60049 0.06077,-1.12839c3.06729,-3.29937 9.01876,-0.87593 12.58847,0.24731z" fill="#5cad3a"/><path d="M52.19698,173.36435c0.89629,0.07078 1.39509,-0.12228 2.22844,-0.44026c2.17848,-0.28054 3.99379,-0.10792 5.93625,1.00575c0.52557,0.43602 0.52557,0.43602 0.71516,1.30011c0.02319,0.28543 0.04638,0.57083 0.07026,0.86484c0.4611,0.42452 0.93508,0.74265 1.46653,1.06546c0.74365,0.65435 0.90213,1.40722 1.01351,2.39027c0.03719,0.56389 0.05137,1.12402 0.0592,1.68889c0.00816,0.18895 0.01631,0.37788 0.02472,0.57254c0.02419,1.40968 -0.26414,2.48872 -1.01699,3.66772c-1.5666,1.41066 -3.83989,2.49705 -5.93608,2.51055c-0.68245,-0.16311 -1.34303,-0.35568 -2.00881,-0.58197c-1.08787,-0.24831 -1.76236,0.0742 -2.69424,0.62192c-1.11078,0.6068 -2.08901,0.63047 -3.32942,0.59896c-0.20935,-0.00167 -0.4187,-0.00331 -0.63439,-0.00501c-1.44732,-0.02497 -2.83668,-0.19703 -4.26407,-0.45692c-1.04617,-0.13904 -2.0195,0.02851 -3.05587,0.17324c-1.72954,0.19743 -2.84171,0.10364 -4.25991,-1.00207c-0.26302,-0.22299 -0.26301,-0.22299 -0.53134,-0.45048c-0.1951,-0.15363 -0.39019,-0.30725 -0.5912,-0.46553c-1.19357,-0.99112 -2.10136,-1.86112 -2.32109,-3.47141c-0.05178,-1.39449 -0.08165,-2.89166 0.57576,-4.14486c0.94252,-0.94233 1.92499,-0.81589 3.18216,-0.82399c0.08075,0.16265 0.16151,0.32528 0.24471,0.49288c0.29063,-0.26398 0.58063,-0.52868 0.87039,-0.79365c0.17312,-0.15793 0.34625,-0.31583 0.52463,-0.47853c0.53427,-0.49318 0.53426,-0.49318 1.11059,-1.20082c0.56055,-0.51352 0.56056,-0.51353 1.27482,-0.65722c0.71766,0.13446 0.71766,0.13446 1.29052,0.62523c0.68295,0.52948 1.12634,0.67615 1.97765,0.62565c1.83792,-0.48068 3.4828,-1.89125 4.93778,-3.10194c1.00652,-0.81102 1.95083,-0.36104 3.14032,-0.12934zM54.58539,175.02453c-1.23293,0.54862 -2.23883,0.51741 -3.53951,0.19278c-1.21231,-0.05543 -1.74574,0.40759 -2.67943,1.14526c-3.07532,2.33555 -3.07532,2.33555 -5.09117,2.07244c-0.88911,-0.20538 -1.76187,-0.45232 -2.63427,-0.72473c-0.07983,0.11396 -0.15966,0.22795 -0.2419,0.34536c-1.08421,1.45208 -2.24262,2.3001 -4.01829,2.58705c-0.35403,0.03289 -0.35403,0.0329 -0.7152,0.06642c-0.12784,1.27124 -0.12784,1.27124 0.28161,2.44056c0.37403,0.45862 0.76368,0.85811 1.19572,1.2584c0.15686,0.14624 0.31371,0.29244 0.47532,0.44312c0.95246,0.83318 0.95246,0.83318 2.13783,0.99254c0.24524,-0.07296 0.49048,-0.14595 0.74314,-0.22112c1.28422,-0.10808 2.49382,-0.01039 3.76182,0.22301c1.49131,0.24639 2.95603,0.29211 4.46382,0.29574c0.33938,0.00426 0.33938,0.00426 0.68559,0.00863c1.28994,-0.00926 2.13261,-0.14469 3.25709,-0.85297c0.80338,-0.17516 0.80338,-0.17516 1.42889,-0.25645c-0.15852,-0.08055 -0.31703,-0.16115 -0.48033,-0.24413c-0.003,-0.24474 -0.006,-0.48947 -0.00908,-0.74163c0.42313,0.02552 0.84611,0.05433 1.26898,0.08453c0.23555,0.01568 0.47111,0.03137 0.71381,0.04755c0.64543,0.09821 0.64543,0.09821 1.36744,0.58803c-0.23427,0.16469 -0.46854,0.32935 -0.70991,0.49904c0.00199,0.16317 0.00399,0.32631 0.00606,0.49442c1.32235,0.08097 2.24288,-0.17655 3.39117,-0.8099c0.14494,-0.07312 0.28988,-0.14624 0.4392,-0.22157c0.94168,-0.50449 1.46617,-0.9474 1.86099,-1.97197c0.10301,-0.7866 0.10301,-0.78661 0.06982,-1.60747c-0.00149,-0.27278 -0.00299,-0.54559 -0.00453,-0.82666c-0.11558,-0.86118 -0.32904,-1.32208 -0.83574,-2.01111c-0.39488,-0.2548 -0.79545,-0.50048 -1.20235,-0.73395c-0.48639,-0.73856 -0.48639,-0.73856 -0.50868,-1.34103c-0.28882,-0.78854 -0.5009,-0.84728 -1.22295,-1.19739c-1.33825,-0.52836 -2.32525,-0.63583 -3.65495,-0.02282z" fill="#18480a"/><path d="M32.88199,128.80826c0.23777,0.12084 0.23777,0.12083 0.48033,0.24413c0.00199,0.16317 0.00399,0.32631 0.00606,0.49441c-0.16125,0.09792 -0.3225,0.19583 -0.48863,0.29676c-1.36404,0.88753 -2.5157,2.07941 -3.04275,3.6817c-0.05294,0.97489 0.01582,1.78325 0.27196,2.71783c-0.2118,0.00231 -0.2118,0.00231 -0.42788,0.00468c-1.06465,0.06086 -1.56566,0.1041 -2.3506,0.89399c-0.18539,0.28102 -0.36545,0.5659 -0.54148,0.85333c-0.24714,0.35857 -0.49642,0.71553 -0.74765,1.07099c-0.11454,0.16807 -0.2291,0.33613 -0.34712,0.50927c-0.31294,0.40667 -0.31294,0.40667 -0.78722,0.65695c-0.55119,0.02764 -1.1033,0.0392 -1.65528,0.04155c-0.29748,0.00255 -0.59495,0.0051 -0.90145,0.00774c-0.78442,-0.02777 -0.78442,-0.02777 -1.5034,-0.27036c-1.42548,-0.14187 -1.42548,-0.14186 -2.69504,0.40364c-0.13147,0.11812 -0.26292,0.23627 -0.39837,0.35796c-0.83519,-0.09935 -0.99106,-0.27578 -1.62246,-0.93209c-0.81644,-1.24225 -0.73427,-2.55667 -0.58597,-3.99832c0.1898,-1.0237 0.37684,-1.88607 1.076,-2.65597c0.77982,-0.44888 1.44244,-0.42874 2.33173,-0.45638c1.46843,-0.04573 2.28541,-0.2197 3.37493,-1.25141c1.39901,-1.25883 2.67882,-1.41686 4.49663,-1.56519c1.98389,-0.1831 4.16856,-1.27486 6.0577,-1.10519z" fill="#6f9d1c"/><path d="M20.82325,117.37416c0.34936,0.18898 0.34935,0.18897 0.70577,0.38177c0.47673,0.16991 0.95546,0.33416 1.43798,0.48519c-0.15552,0.16418 -0.31103,0.32834 -0.47125,0.49749c-0.82904,-0.06991 -1.63213,-0.18034 -2.44962,-0.33961c-1.18094,-0.19548 -2.00105,-0.14603 -3.04279,0.48123c-0.95764,0.80078 -1.6343,1.8469 -2.34685,2.87568c-0.30018,0.4243 -0.61094,0.84113 -0.93948,1.24222c-0.15751,0.00101 -0.31502,0.00203 -0.47731,0.00308c-0.25024,-0.75995 -0.49738,-1.52091 -0.74396,-2.28212c-0.07094,-0.21528 -0.14188,-0.43059 -0.21497,-0.65243c-0.10074,-0.31247 -0.10074,-0.31246 -0.20351,-0.63124c-0.06233,-0.1912 -0.12467,-0.38241 -0.18889,-0.57947c-0.1381,-0.54257 -0.1381,-0.54257 -0.15021,-1.53142c3.73142,-0.28988 3.73142,-0.28989 5.08328,-0.27997c3.26657,-0.02104 3.26657,-0.02104 4.00181,0.32962z" fill="#1d390b"/><path d="M124.48294,124.77252c0.31277,0.10242 0.31277,0.10242 0.63185,0.20692c0.50881,0.16692 1.01707,0.33541 1.52494,0.5054c-0.07676,0.16367 -0.15352,0.32732 -0.2326,0.49598c-0.60168,0.13784 -1.19294,0.25073 -1.80066,0.35153c-2.19631,0.40482 -3.6354,1.1356 -5.32263,2.66112c-0.15751,0.00101 -0.31502,0.00203 -0.47731,0.00308c-0.05707,-0.16374 -0.11415,-0.32752 -0.17297,-0.49624c-0.5555,-1.50273 -1.04131,-2.70051 -2.50067,-3.44224c0.07677,-0.16367 0.15352,-0.32732 0.2326,-0.49595c0.45591,-0.06934 0.91251,-0.13586 1.37105,-0.1846c0.66169,-0.09263 1.2707,-0.28466 1.90229,-0.50288c1.6599,-0.24394 3.28221,0.37454 4.84412,0.89788z" fill="#1d390a"/><path d="M62.19405,125.15822c0.27614,0.03901 0.55229,0.07802 0.83681,0.11821c1.7061,0.19018 3.42103,0.12117 5.13258,0.09057c-0.15222,0.03159 -0.30444,0.06317 -0.46126,0.09567c-0.16182,0.05205 -0.32362,0.10405 -0.49034,0.15768c-0.07676,0.16367 -0.15352,0.32732 -0.2326,0.49598c-0.13847,-0.00198 -0.27694,-0.00397 -0.41962,-0.006c-0.87083,-0.00482 -1.64817,0.0017 -2.50182,0.19475c-0.84457,0.105 -1.19458,-0.11663 -1.85771,-0.65247c-0.00199,-0.16317 -0.00399,-0.32631 -0.00606,-0.49441z" fill="#1c3c0a"/><path d="M133.48501,119.25995c1.18434,0.23713 1.18434,0.23713 2.39259,0.47908c0.00199,0.16317 0.00399,0.32631 0.00606,0.49441c-0.7038,0.41247 -1.40761,0.82496 -2.13275,1.24989c-0.08776,-0.73372 -0.17548,-1.4674 -0.2659,-2.22339z" fill="#1d3a0b"/><path d="M12.88955,133.38718c0.47253,-0.00304 0.94507,-0.00609 1.43192,-0.00922c-0.22928,0.5726 -0.45854,1.14517 -0.69477,1.73512c-0.42468,-0.64488 -0.58195,-0.99464 -0.73715,-1.7259z" fill="#1d3b0a"/></g></g></g></svg>