<svg version="1.1" xmlns="http://www.w3.org/2000/svg" xmlns:xlink="http://www.w3.org/1999/xlink" width="194.81382" height="79.10295" viewBox="0,0,194.81382,79.10295"><g transform="translate(-146.23468,-92.28972)"><g data-paper-data="{&quot;isPaintingLayer&quot;:true}" fill="#ffffff" fill-rule="nonzero" stroke="none" stroke-width="0.5" stroke-linecap="butt" stroke-linejoin="miter" stroke-miterlimit="10" stroke-dasharray="" stroke-dashoffset="0" style="mix-blend-mode: normal"><path d="M251.43908,93.88017c1.02146,0.2594 1.59049,1.2542 2.53732,1.67452c0.80517,0.35744 1.81978,0.25162 2.62111,0.61544c0.71672,0.3254 1.10661,1.05311 1.8116,1.39707c1.98456,0.96827 5.28992,0.88445 7.42414,1.66412c0.89322,0.32631 1.58337,1.00465 2.49316,1.29491c2.95471,0.94263 6.47717,0.67907 9.33624,2.04759c2.93213,1.4035 5.85124,4.8635 7.48237,7.33266c0.15645,0.23683 1.66185,3.4697 2.26831,4.88296c0.16964,0.0158 0.33619,0.02643 0.48914,0.01428c2.79861,-0.13557 6.99485,-0.80991 9.62714,-0.14143c1.02146,0.2594 1.59049,1.2542 2.53732,1.67452c0.80517,0.35744 1.8535,0.20101 2.62111,0.61544c2.35051,1.26904 4.00753,3.31403 5.85823,5.09562c1.98662,1.91242 3.873,3.26437 4.78628,5.82272c0.19883,0.55699 1.33871,-0.31435 2.00783,-0.23501c3.10504,0.36813 5.14772,1.21282 7.68612,2.76736c2.08238,1.27528 4.40136,3.57636 5.39861,5.51481c0.23243,0.45181 -0.50398,1.00927 -0.27789,1.46346c0.12682,0.25475 0.6616,-0.2081 0.95706,-0.09916c1.09857,0.40506 2.10453,0.98705 3.07652,1.58642c0.44637,0.27526 3.94535,3.03738 4.349,3.35387c2.66884,3.13785 5.45276,6.96984 4.21635,11.16342c-1.17589,3.98833 -7.27502,9.28464 -11.2893,11.31125c-3.81645,1.92675 -8.21831,2.39826 -12.35718,3.20485c-1.9562,0.38123 -3.88314,0.96707 -5.88413,1.08259c-2.97618,0.17184 -6.62209,-0.19397 -9.50546,0.40536c-0.88029,0.18298 -1.63578,0.71649 -2.5248,0.86473c-0.62375,0.104 -7.91121,0.43838 -8.50523,0.46715c-7.07614,0.32897 -14.14221,-0.03111 -21.16723,-0.48018c-1.75214,-0.112 -3.51173,0.36269 -5.26325,0.24377c-1.17694,-0.07991 -2.3002,-0.51409 -3.47876,-0.57389c-2.63503,-0.13371 -5.27635,0.53906 -7.90776,0.35995c-0.90267,-0.06144 -1.72261,-0.51864 -2.62111,-0.61544c-1.9889,-0.21428 -4.00544,0.42684 -6.00357,0.29084c-3.07291,-0.20916 -6.21542,-0.88367 -9.34157,-1.00915c-5.09299,-0.20442 -10.59082,0.54505 -15.69078,0.79212c-2.96045,0.14342 -6.63845,-0.19057 -9.50546,0.40536c-3.11041,0.64653 -5.89161,1.50504 -9.2506,1.19056c-2.90499,-0.27198 -5.60107,-1.57304 -8.53208,-1.79079c-3.0877,-0.22939 -6.58525,0.351 -9.6872,0.50127c-7.40958,0.35895 -14.81869,0.78419 -22.23482,1.02203c-7.78347,-1.79283 -14.7467,-6.85121 -13.6461,-14.63035c0.18755,-1.32564 0.63172,-2.63925 1.28484,-3.84999c0.238,-0.44121 1.04335,-0.50258 1.29748,-0.93704c0.11761,-0.20106 -0.38276,-0.34994 -0.41388,-0.57356c-0.36596,-2.62937 -0.49549,-6.11443 1.76925,-8.30121c1.27382,-1.22996 3.33867,-1.64564 5.14446,-2.18684c0.47568,-0.14256 1.02608,0.35977 1.49319,0.19749c0.33545,-0.11653 0.16351,-0.64387 0.42138,-0.86262c0.62189,-0.52756 1.55331,-0.74438 2.13442,-1.30548c1.50164,-1.44994 3.04775,-3.78568 4.18676,-5.49155c0,0 1.6557,-2.42776 4.56226,-2.17436c0.06144,-0.06759 0.12901,-0.13175 0.20367,-0.19196c3.48729,-2.81259 9.21653,-2.61629 13.64969,-2.654c0.67192,-0.00572 1.3642,0.23518 2.01341,0.08563c1.37635,-0.31705 1.78756,-1.96248 2.96156,-2.65875c0.8782,-0.52083 2.01437,-0.629 2.93759,-1.0882c0.89444,-0.44489 1.57446,-1.17175 2.47666,-1.60481c1.03754,-0.49803 2.14274,-0.92097 3.29557,-1.16591c0.48026,-0.10204 1.08398,0.41602 1.47322,0.15268c0.3003,-0.20317 -0.40849,-0.64537 -0.28463,-0.95682c0.25183,-0.63325 1.10277,-1.01072 1.32241,-1.65283c0.15506,-0.4533 -0.18607,-0.93154 -0.2791,-1.39732c0.35364,-2.18901 0.65667,-5.74603 1.92436,-7.85621c1.83598,-3.05613 6.80813,-6.59878 10.28363,-8.0972c1.97069,-0.84964 4.42898,-0.66098 6.3425,-1.60292c2.18438,-1.07527 3.84335,-4.54643 5.76612,-5.52524c1.2872,-0.65527 5.53005,-0.77302 7.44012,-0.86555c2.59561,-0.12575 5.24607,0.13925 7.79016,-0.32227c0.8861,-0.16075 1.63925,-0.7018 2.5248,-0.86473c0.54495,-0.10026 6.27358,-0.35904 6.78993,-0.38406c0,0 2.69404,-0.13051 4.21149,1.51965c0.13858,0.01918 0.26151,0.04184 0.36604,0.06839z"/></g></g></svg>