<?xml version="1.0" standalone="no"?>
<!DOCTYPE svg PUBLIC "-//W3C//DTD SVG 20010904//EN"
 "http://www.w3.org/TR/2001/REC-SVG-20010904/DTD/svg10.dtd">
<svg version="1.0" xmlns="http://www.w3.org/2000/svg"
 width="1000.000000pt" height="1000.000000pt" viewBox="0 0 1000.000000 1000.000000"
 preserveAspectRatio="xMidYMid meet">
<metadata>
Created by potrace 1.14, written by Peter Selinger 2001-2017
</metadata>
<g transform="translate(0.000000,1000.000000) scale(0.100000,-0.100000)"
fill="#000000" stroke="none">
<path d="M4338 9494 c-92 -17 -161 -57 -198 -112 -39 -59 -63 -136 -100 -322
-49 -241 -70 -275 -174 -275 -33 0 -77 3 -96 7 -19 4 -46 10 -60 13 -106 23
-164 8 -201 -51 -22 -36 -24 -49 -23 -154 1 -155 42 -383 105 -595 54 -180
101 -320 111 -332 16 -19 5 -25 -54 -29 -218 -17 -284 -54 -361 -204 -78 -151
-93 -245 -57 -343 36 -97 127 -174 223 -192 l38 -7 -5 -87 c-3 -47 -8 -97 -11
-111 -2 -13 -7 -54 -11 -90 -3 -36 -7 -76 -9 -90 -26 -169 -23 -467 5 -670 5
-36 12 -87 15 -115 3 -27 12 -90 20 -140 7 -49 16 -108 20 -130 3 -23 7 -52
10 -65 3 -13 7 -42 10 -65 3 -22 8 -47 10 -55 2 -8 7 -33 10 -55 3 -23 8 -52
10 -65 8 -37 13 -68 24 -140 9 -51 8 -75 -4 -115 -22 -73 -96 -337 -100 -355
-2 -8 -11 -44 -20 -80 -9 -36 -19 -74 -21 -85 -9 -47 -21 -80 -28 -78 -4 1
-66 58 -139 127 -137 130 -264 236 -282 236 -6 0 -11 19 -11 43 -1 23 -9 59
-19 80 -29 62 -140 151 -203 163 -22 4 -23 8 -14 56 17 88 9 169 -22 233 -50
103 -125 193 -186 225 -32 16 -78 19 -132 8 -6 -2 -15 14 -19 37 -15 82 -40
119 -119 177 -145 106 -301 140 -475 103 -107 -23 -188 -68 -270 -149 -63 -63
-163 -204 -169 -238 -1 -7 -7 -22 -13 -33 -9 -17 -32 -102 -49 -182 -30 -145
-17 -348 29 -438 52 -104 167 -215 322 -312 48 -30 184 -93 225 -104 43 -11
162 -14 205 -5 32 7 95 23 158 40 32 9 60 16 61 16 2 0 6 -10 9 -23 9 -32 72
-96 135 -133 66 -40 129 -52 183 -34 37 13 41 12 77 -17 60 -48 242 -173 252
-173 4 0 10 -3 12 -7 3 -9 61 -45 223 -141 61 -36 116 -70 123 -77 10 -9 11
-29 3 -96 -6 -46 -13 -120 -16 -164 -5 -73 -9 -82 -35 -105 -28 -23 -57 -79
-66 -123 -2 -11 -5 -21 -6 -22 -2 -2 -39 -4 -83 -6 -95 -3 -152 -20 -221 -66
-112 -73 -196 -193 -222 -316 -14 -70 -5 -149 28 -237 29 -75 122 -264 132
-268 4 -2 8 -8 8 -14 0 -17 106 -169 152 -219 95 -101 233 -144 458 -143 143
1 231 28 357 107 24 15 44 27 46 27 2 0 15 -10 28 -21 136 -120 339 -222 545
-274 l72 -18 11 -91 c19 -155 22 -188 22 -276 1 -157 -12 -184 -88 -184 -44 0
-70 4 -143 19 -14 3 -53 6 -86 7 -119 4 -158 -56 -158 -242 0 -120 10 -170 45
-214 32 -41 65 -41 184 -2 138 46 160 46 174 4 5 -18 12 -69 15 -113 7 -102
19 -141 51 -171 38 -35 98 -48 215 -48 86 0 113 4 152 22 40 19 49 29 59 62
10 34 9 53 -9 127 -30 129 -33 147 -23 162 10 15 54 17 189 9 46 -3 94 -3 108
0 64 12 113 108 118 230 4 113 -44 173 -133 166 -20 -1 -69 -5 -109 -9 -94 -8
-126 -1 -143 33 -20 42 -21 460 0 448 14 -9 224 -16 441 -15 230 0 280 2 432
14 l86 6 8 -68 c4 -37 7 -142 8 -233 0 -175 -11 -227 -51 -248 -10 -6 -81 -10
-160 -9 -128 2 -143 0 -163 -18 -41 -37 -54 -75 -54 -160 0 -67 4 -87 24 -123
35 -63 63 -74 179 -72 53 1 110 2 126 3 88 3 100 -18 90 -161 -11 -152 24
-192 175 -196 132 -4 254 35 278 89 11 24 6 77 -13 153 -19 73 -19 111 1 119
16 6 114 -8 229 -33 55 -12 130 -12 161 1 67 28 86 150 50 320 -12 57 -20 83
-35 110 -45 84 -74 90 -216 41 -146 -51 -151 -48 -174 90 -14 80 -23 442 -12
448 4 3 53 14 110 26 291 59 603 160 838 271 46 21 88 39 93 39 4 0 10 3 12 8
2 4 26 19 54 34 481 258 780 632 1052 1318 105 266 167 476 196 665 20 134 30
230 41 390 4 56 14 395 21 675 3 129 7 260 9 290 6 80 7 274 1 290 -3 8 -8 33
-11 54 -13 92 -79 156 -158 156 -45 0 -173 -57 -263 -117 -99 -66 -306 -215
-324 -233 -3 -3 -36 -29 -75 -58 -38 -28 -79 -59 -90 -68 -11 -9 -72 -50 -135
-91 -210 -138 -252 -167 -264 -178 -22 -21 -122 -84 -186 -116 -59 -30 -73
-33 -155 -33 -49 1 -115 6 -145 13 -30 6 -66 13 -79 16 -123 23 -347 123 -467
208 -34 25 -112 115 -133 155 -51 96 -63 243 -46 562 12 234 8 437 -10 542 -3
13 -6 52 -9 88 -6 94 -23 270 -30 310 -3 14 -7 48 -11 75 -10 82 -16 119 -20
132 -2 6 13 22 33 36 20 14 46 32 57 41 11 9 38 30 60 47 142 110 270 237 295
292 22 48 16 78 -25 119 -33 34 -50 44 -217 122 -54 26 -98 50 -98 55 0 6 10
12 23 16 12 3 31 10 42 15 11 5 53 19 93 31 90 27 159 70 173 106 39 102 -22
305 -125 420 -67 74 -104 86 -256 83 -314 -8 -338 -7 -361 16 -45 46 -34 123
62 407 65 194 67 200 78 263 9 50 5 82 -16 119 -33 59 -122 66 -258 21 -81
-27 -236 -99 -258 -120 -7 -6 -41 -31 -77 -56 -70 -48 -70 -48 -115 -83 -37
-30 -232 -160 -262 -176 -34 -17 -30 7 17 114 29 68 43 129 44 189 0 44 -4 52
-34 77 -32 27 -122 59 -205 74 -22 4 -50 9 -62 11 -13 2 -35 7 -50 10 -61 12
-320 11 -385 -2z"/>
</g>
</svg>
