<svg viewBox="0,0,42.29896,42.78615" height="42.78615" width="42.29896" xmlns:xlink="http://www.w3.org/1999/xlink" xmlns="http://www.w3.org/2000/svg" version="1.1"><g transform="translate(-218.85052,-158.60692)"><g style="mix-blend-mode: normal" stroke-dashoffset="0" stroke-dasharray="" stroke-miterlimit="10" stroke-linejoin="miter" stroke-linecap="butt" stroke-width="0.5" stroke="none" fill-rule="nonzero" fill="#5e4212" data-paper-data="{&quot;isPaintingLayer&quot;:true}"><path d="M229.59294,168.29631c-0.60309,-1.86191 -1.45718,-3.90572 -0.75447,-5.72366c1.879,-4.8611 10.11815,-4.46458 13.78649,-2.94709c1.68395,0.6966 3.56226,1.74333 4.67306,3.24451c0.40055,0.54132 0.05375,1.53494 0.59972,1.92914c0.32797,0.2368 0.36831,-0.80155 0.73959,-0.96214c0.70576,-0.30526 1.51205,-0.34266 2.28099,-0.34433c3.37719,-0.00734 4.98357,1.00122 6.8201,3.65584c1.18719,2.81197 1.59759,4.86087 0.31725,7.80174c-0.17678,0.40606 -0.60551,1.43449 -1.25406,1.90665c0.71562,0.38053 1.26109,1.03362 1.8427,1.60137c2.24453,2.19103 3.2055,4.47428 1.9454,7.65942c-1.17779,2.97707 -5.0067,4.74699 -7.91193,5.5596c-0.57168,0.1599 -2.14724,0.36321 -3.22528,0.36562c0.43138,0.5409 0.80437,1.2024 0.91929,1.66531c0.84845,3.41744 -0.24915,3.22828 -2.56336,4.81201c-4.71021,2.5613 -10.98707,4.51052 -15.9154,0.86279c-1.55563,-1.15141 -3.07707,-4.0641 -3.42532,-5.93245c-0.05373,-0.28827 0.0187,-0.73293 0.15575,-1.15454c-0.77606,0.18705 -1.77373,0.24234 -2.35915,0.1858c-2.8823,-0.2784 -4.9721,-1.6242 -6.34779,-4.15602c-2.16837,-3.99068 -0.96032,-8.07684 3.00151,-8.53533l-0.11914,-0.27798l0.11045,-0.04734c-0.4548,-0.51091 -0.87916,-1.03847 -1.11428,-1.66948c-0.36817,-0.98807 -0.14226,-2.10918 -0.08642,-3.16214c0.25839,-4.87274 3.93888,-6.33905 7.8843,-6.33729z"></path></g></g></svg>