<svg version="1.1" xmlns="http://www.w3.org/2000/svg" xmlns:xlink="http://www.w3.org/1999/xlink" width="252.96438" height="62.59533" viewBox="0,0,252.96438,62.59533"><g transform="translate(-119.78625,-150.73063)"><g data-paper-data="{&quot;isPaintingLayer&quot;:true}" fill="#fefefe" fill-rule="nonzero" stroke="none" stroke-width="1" stroke-linecap="butt" stroke-linejoin="miter" stroke-miterlimit="10" stroke-dasharray="" stroke-dashoffset="0" style="mix-blend-mode: normal"><path d="M202.16046,153.33388c1.28195,0.53625 2.5874,1.01257 3.88846,1.49994c1.33521,0.50363 2.64108,1.0462 3.92606,1.66928c2.20392,0.62543 4.26529,-0.05755 6.39468,-0.68606c0.31195,-0.08875 0.62402,-0.1771 0.93622,-0.26502c1.27267,-0.35944 2.54248,-0.72705 3.80688,-1.1145c5.79727,-1.72113 12.34397,-2.32712 18.37128,-2.34897c0.16766,-0.00061 0.33526,-0.00125 0.50799,-0.0019c4.15793,-0.00161 8.25342,0.45505 12.37473,0.96683c0.49655,0.06082 0.99325,0.11911 1.49027,0.17611c20.22592,2.33008 20.22592,2.33008 25.62985,8.42719c1.30917,1.65625 2.13324,3.37168 2.98996,5.30096c0.21725,-0.00375 0.43454,-0.00747 0.65842,-0.01135c1.74045,-0.02606 3.48019,-0.03906 5.22082,-0.02591c0.16791,0.00067 0.33582,0.00134 0.50885,0.00204c2.61081,0.02597 4.85303,0.47827 7.2988,1.39984c0.23779,0.08926 0.2378,0.08926 0.48044,0.1803c0.80258,0.30295 1.60037,0.61386 2.39364,0.94043c1.69785,0.68139 2.93244,1.09329 4.67444,0.37814c0.27158,-0.09598 0.54315,-0.19192 0.82297,-0.29083c0.38247,-0.15134 0.38247,-0.15134 0.77267,-0.30572c4.69931,-1.69132 10.22962,-1.43665 15.10636,-0.59656c0.17877,0.03076 0.35748,0.06153 0.54163,0.0932c3.49136,0.62448 6.85382,1.53799 10.0185,3.16031c2.27295,1.16092 3.79883,1.55151 6.38052,1.28033c0.59635,-0.04184 1.19287,-0.08155 1.78949,-0.11933c0.15589,-0.0105 0.31177,-0.02099 0.47235,-0.0318c7.6637,-0.49249 16.96811,-0.13233 23.50696,4.44632c0.37143,0.25747 0.37143,0.25747 0.7503,0.52014c4.33353,3.10822 7.90488,8.25733 8.79374,13.55863c0.44085,3.8071 -0.91804,7.60739 -3.08973,10.68027c-1.82245,2.18122 -4.20925,3.43478 -6.7973,4.50214c-0.40497,0.16925 -0.40497,0.16925 -0.81808,0.34198c-3.46607,1.41403 -6.95676,2.40744 -10.71579,2.41244c-0.34039,0.00144 -0.34039,0.00144 -0.68762,0.00293c-0.73795,0.00226 -1.47586,0.00226 -2.21381,0.00171c-0.25201,0.00019 -0.50399,0.00036 -0.76364,0.00055c-3.09042,-0.00025 -6.16025,-0.05408 -9.24265,-0.28391c-7.46036,-0.5459 -14.20434,0.18542 -21.44049,2.01525c-1.68329,0.42438 -3.37698,0.79612 -5.07397,1.16141c-0.41651,0.09109 -0.41651,0.09109 -0.8414,0.18405c-0.26364,0.05642 -0.52732,0.11292 -0.79898,0.17109c-0.34601,0.07443 -0.34601,0.07443 -0.699,0.15036c-1.76358,0.31415 -3.5029,0.41418 -5.29209,0.42291c-0.22339,0.00137 -0.44681,0.00271 -0.67694,0.00412c-0.47165,0.00223 -0.94329,0.00378 -1.41488,0.00473c-0.70365,0.00229 -1.40711,0.0097 -2.11072,0.01725c-4.82932,0.02829 -9.35101,-0.75083 -14.03348,-1.88727c-0.71036,-0.17176 -1.42181,-0.33811 -2.13354,-0.50409c-3.33441,-0.79165 -6.4111,-1.79447 -9.44708,-3.41483c-1.10465,-0.5282 -2.18174,-0.50741 -3.38794,-0.50427c-0.28662,-0.00046 -0.28662,-0.00046 -0.57904,-0.00088c-0.62036,-0.00039 -1.2407,0.0011 -1.861,0.00275c-0.31616,0.00009 -0.31616,0.00009 -0.63864,0.00018c-2.42157,0.00067 -4.83225,0.03095 -7.25009,0.17878c-6.75647,0.37628 -13.20657,-1.90378 -18.26782,-6.35334c-0.21869,-0.19165 -0.43737,-0.38326 -0.66268,-0.58071c-1.14118,-1.07096 -2.06266,-2.21618 -2.91633,-3.52063c-0.08929,-0.13605 -0.17856,-0.2721 -0.27057,-0.41227c-0.58886,-0.94485 -0.90015,-1.81426 -1.16105,-2.88369c-1.27954,0.43836 -2.41046,0.92645 -3.50442,1.73001c-2.76846,2.01752 -5.96096,3.33472 -9.07882,4.71094c-0.71634,0.31916 -1.42581,0.65225 -2.13538,0.98618c-4.81076,2.21722 -9.33945,3.4918 -14.68045,3.57285c-2.75562,0.06232 -5.23456,0.74032 -7.87662,1.50537c-4.6164,1.31558 -8.73422,0.50387 -13.05401,-1.30496c-1.9418,-0.80975 -3.74912,-1.24829 -5.82709,-1.55444c-5.57797,-0.89435 -10.83585,-2.15461 -15.7616,-4.9639c-4.81119,-2.64187 -10.63046,-2.80288 -15.87155,-1.69925c-6.58496,1.35529 -14.14737,1.19967 -20.05734,-2.35641c-4.26926,-2.94568 -7.27231,-7.87409 -8.22797,-12.93039c-0.05356,-0.29529 -0.05356,-0.29529 -0.10813,-0.59656c-0.15814,-0.84836 -0.40241,-1.57989 -0.74563,-2.37131c-1.09449,-2.63199 -0.7269,-5.25997 0.28336,-7.87457c1.24579,-2.78161 3.10171,-5.01028 5.21936,-7.15869c0.1741,-0.17719 0.34818,-0.35435 0.52753,-0.5369c4.58649,-4.36521 11.15497,-6.13504 17.30786,-6.01032c0.44705,0.00513 0.89414,0.01001 1.34119,0.01468c4.58984,0.06061 9.32089,0.20511 13.69714,1.75635c1.138,0.37116 1.81696,0.26972 2.89588,-0.26379c0.30826,-0.16306 0.6153,-0.32846 0.9212,-0.49588c1.54627,-0.84442 3.1441,-1.53891 4.77158,-2.20996c0.44464,-0.18341 0.88846,-0.36911 1.33218,-0.55484c2.83206,-1.16681 5.64129,-2.02112 8.65363,-2.5716c0.26761,-0.05008 0.53521,-0.10013 0.81091,-0.1517c1.62067,-0.29989 3.24353,-0.58553 4.87076,-0.84753c0.17011,-0.02756 0.34024,-0.05512 0.51553,-0.0835c6.41483,-0.99063 12.61374,-0.39844 18.56,2.14908z"/></g></g></svg>