<svg version="1.1" xmlns="http://www.w3.org/2000/svg" xmlns:xlink="http://www.w3.org/1999/xlink" width="480.5" height="413.09006" viewBox="0,0,480.5,413.09006"><g transform="translate(0.75,52.84006)"><g data-paper-data="{&quot;isPaintingLayer&quot;:true}" fill-rule="nonzero" stroke="none" stroke-linecap="butt" stroke-linejoin="miter" stroke-miterlimit="10" stroke-dasharray="" stroke-dashoffset="0" style="mix-blend-mode: normal"><path d="M-0.75,360c0,-0.13807 0.11193,-0.25 0.25,-0.25c0.13807,0 0.25,0.11193 0.25,0.25c0,0.13807 -0.11193,0.25 -0.25,0.25c-0.13807,0 -0.25,-0.11193 -0.25,-0.25z" fill="#000000" stroke-width="0.5"/><path d="M479.25,360c0,-0.13807 0.11193,-0.25 0.25,-0.25c0.13807,0 0.25,0.11193 0.25,0.25c0,0.13807 -0.11193,0.25 -0.25,0.25c-0.13807,0 -0.25,-0.11193 -0.25,-0.25z" fill="#000000" stroke-width="0.5"/><path d="M-0.75,-52.59006c0,-0.13807 0.11193,-0.25 0.25,-0.25c0.13807,0 0.25,0.11193 0.25,0.25c0,0.13807 -0.11193,0.25 -0.25,0.25c-0.13807,0 -0.25,-0.11193 -0.25,-0.25z" fill="#97d2ff" stroke-width="0.5"/><path d="M479.25,-52.59006c0,-0.13807 0.11193,-0.25 0.25,-0.25c0.13807,0 0.25,0.11193 0.25,0.25c0,0.13807 -0.11193,0.25 -0.25,0.25c-0.13807,0 -0.25,-0.11193 -0.25,-0.25z" fill="#97d2ff" stroke-width="0.5"/><path d="M237.90987,151.39206c0.3231,0.02484 0.3231,0.02484 0.66278,0.13245c0.31632,0.45322 0.30933,0.90331 0.33035,1.44338c0.00875,0.18297 0.01755,0.36593 0.0264,0.5489c0.01244,0.28465 0.02418,0.56931 0.03476,0.85405c0.04529,1.1644 0.17667,2.19266 0.52952,3.31259c0.246,0.817 0.39723,1.65453 0.56194,2.49098c0.06758,0.34173 0.13587,0.68332 0.20452,1.02484c0.02927,0.14843 0.0585,0.29683 0.08864,0.44974c0.04584,0.32762 0.04584,0.32762 0.21221,0.47061c0.66362,-0.86771 1.18956,-1.77951 1.68539,-2.7491c0.29049,-0.56566 0.60345,-1.10594 0.94558,-1.642c0.20445,-0.32706 0.38371,-0.66649 0.56692,-1.00579c0.36769,-0.6308 0.77713,-1.18466 1.25928,-1.72998c0.06035,-0.07071 0.12068,-0.14144 0.18285,-0.2143c0.17857,-0.19388 0.17857,-0.19387 0.52964,-0.47271c0.37591,0.02327 0.37592,0.02327 0.66279,0.13243c0.05508,1.72477 -0.08313,3.30312 -1.06046,4.7678c-0.09981,0.31718 -0.19037,0.63043 -0.27339,0.9519c-0.03505,0.13318 -0.03505,0.13318 -0.07082,0.26906c-0.15625,0.60907 -0.26744,1.19922 -0.31857,1.82514c0.55477,-0.46483 1.08434,-0.93889 1.59067,-1.45684c0.19866,-0.19884 0.3975,-0.39747 0.59651,-0.59596c0.09705,-0.09698 0.19411,-0.19396 0.2941,-0.29386c0.09979,-0.0997 0.19959,-0.1994 0.3024,-0.30212c0.10474,-0.10858 0.20949,-0.21717 0.31741,-0.32904c0.36864,-0.3556 0.75386,-0.6577 1.16556,-0.96225c0.13856,-0.1031 0.27714,-0.20623 0.41992,-0.31247c0.51634,-0.36881 0.77919,-0.39655 1.411,-0.38282c0.11826,0.3896 0.13674,0.67504 0.0725,1.07606c-0.01632,0.10376 -0.03266,0.20752 -0.04949,0.31442c-0.01853,0.1093 -0.03705,0.2186 -0.05615,0.33122c-0.01845,0.11237 -0.0369,0.22475 -0.05588,0.34053c-0.20127,1.19085 -0.50573,2.34026 -0.83886,3.50019c0.30664,-0.21782 0.61316,-0.43582 0.9196,-0.65392c0.0874,-0.06205 0.1748,-0.1241 0.26486,-0.18805c0.41972,-0.28569 0.41972,-0.28569 0.80386,-0.61486c0.3231,-0.02484 0.3231,-0.02484 0.66278,0c0.26512,0.26487 0.26512,0.26488 0.29825,0.70359c-0.03104,0.45746 -0.11873,0.73704 -0.29825,1.15055c0.07691,-0.06386 0.15379,-0.1277 0.23302,-0.19348c0.92314,-0.74579 1.62091,-1.07925 2.8225,-1.05797c0.99656,0.15167 1.86678,0.76071 2.51182,1.51633c0.04375,-0.0437 0.08749,-0.08741 0.13256,-0.13245c0.32309,-0.02482 0.3231,-0.02482 0.66277,0c0.26512,0.26489 0.26512,0.2649 0.29567,0.69739c-0.00187,0.17414 -0.00375,0.34827 -0.00569,0.52768c-0.00087,0.17276 -0.00173,0.34553 -0.0026,0.52354c-0.01972,0.44496 -0.07,0.8609 -0.15481,1.29749c0.11756,-0.09834 0.23511,-0.19667 0.35623,-0.29799c0.07228,-0.05992 0.14456,-0.11985 0.21902,-0.18158c0.1955,-0.16223 0.3901,-0.32548 0.58459,-0.48889c0.29825,-0.22348 0.29825,-0.22348 0.56337,-0.22348c0.04373,-0.13112 0.08749,-0.26224 0.13256,-0.39732c0.57906,-0.33559 1.13646,-0.54279 1.80607,-0.49665c0.15584,0.04916 0.15584,0.04917 0.31482,0.09932c0.0748,0.85959 -0.18304,1.47317 -0.53023,2.25146c-0.07747,0.18204 -0.15481,0.36414 -0.23198,0.54631c-0.05468,0.12565 -0.10935,0.2513 -0.1657,0.38076c0.05194,-0.06829 0.10388,-0.13657 0.15741,-0.20693c0.0793,-0.06282 0.15858,-0.12565 0.24026,-0.19038c0.34641,0.05432 0.34641,0.05432 0.66278,0.13244c0.02292,1.55037 0.02292,1.55037 -0.08286,2.12729c-0.09608,0.41361 -0.09609,0.41361 0.2154,0.78636c0.06716,0.56041 -0.09262,0.94168 -0.3231,1.44855c-0.24361,0.53738 -0.39616,1.01141 -0.47223,1.59753c0.78044,-0.14619 1.18501,-0.44512 1.75015,-0.99846c0.23818,-0.19348 0.23818,-0.19348 0.63585,-0.19348c0,-0.08742 0,-0.17482 0,-0.26488c0.99905,-0.81865 1.87494,-1.39191 3.18133,-1.32439c0.04447,0.63687 -0.05678,0.92702 -0.39767,1.45682c-0.04919,0.15297 -0.09841,0.30594 -0.14912,0.46353c-0.21992,0.61322 -0.58379,1.10746 -0.96028,1.63497c-0.38072,0.53413 -0.74094,1.07682 -1.08605,1.63462c-0.08765,0.14119 -0.17531,0.28238 -0.26562,0.42784c-0.21149,0.31537 -0.21149,0.31537 -0.19003,0.60683c0.11213,-0.04107 0.11213,-0.04108 0.22653,-0.08299c0.34384,-0.12525 0.68828,-0.24876 1.03275,-0.37225c0.11755,-0.04311 0.2351,-0.08623 0.35624,-0.13063c0.70543,-0.25135 1.34915,-0.41173 2.09604,-0.47364c0.14878,0.22999 0.14877,0.23 0.26511,0.52976c-0.28061,0.87001 -0.97393,1.63136 -1.54924,2.32596c-0.07698,0.09569 -0.15395,0.19138 -0.23326,0.28998c-0.42436,0.51806 -0.42436,0.51807 -0.6035,0.69504c-0.08749,0 -0.17498,0 -0.2651,0c-0.13404,0.40382 -0.13404,0.40382 0,0.79463c0.01272,0.2149 0.01721,0.43036 0.01657,0.64565c0.00033,0.11438 0.00068,0.22876 0.00104,0.34662c-0.01653,0.31157 -0.04183,0.56929 -0.15017,0.86187c-0.22015,0.09024 -0.44111,0.17845 -0.66278,0.26488c-0.04033,0.08468 -0.08064,0.16936 -0.12221,0.25661c-0.30687,0.58655 -1.11188,0.73182 -1.70925,0.92138c-0.28098,0.08426 -0.56216,0.16784 -0.84349,0.25091c-0.73113,0.22406 -1.44425,0.50119 -2.15862,0.77305c-1.72163,0.64868 -3.20428,0.47592 -4.97557,0.04952c-0.54448,-0.128 -1.06505,-0.15373 -1.6238,-0.17383c-0.7294,-0.0345 -1.30754,-0.14156 -1.93863,-0.52251c-0.42362,-0.14783 -0.7682,-0.03748 -1.20958,0.03413c-0.23216,0.01252 -0.46454,0.02154 -0.69694,0.02794c-1.85942,0.04368 -1.85943,0.04369 -3.67585,0.40663c-2.9102,0.69391 -5.99745,0.25676 -8.70621,-0.91569c-0.70978,-0.29097 -1.35335,-0.48285 -2.12347,-0.47078c-0.18122,0.00128 -0.18122,0.00129 -0.36609,0.0026c-0.32656,0.01069 -0.32655,0.01069 -0.58837,0.0881c-0.29283,0.06964 -0.55513,0.08739 -0.85576,0.09452c-1.75264,0.05501 -3.17009,0.19033 -4.70831,1.09002c-1.57035,0.7796 -3.28292,1.02492 -5.01381,1.02589c-0.15028,0.00162 -0.30056,0.00324 -0.45539,0.00492c-0.80577,0.00139 -1.53456,-0.0578 -2.31931,-0.23595c-0.54894,-0.1021 -1.09317,-0.08002 -1.64934,-0.06696c-1.12495,0.01141 -2.2474,0.00259 -3.37188,-0.03311c-0.13995,-0.003 -0.27992,-0.006 -0.4241,-0.00908c-0.71845,-0.02548 -1.28844,-0.05388 -1.89563,-0.47929c-0.24232,-0.29022 -0.24232,-0.29022 -0.4308,-0.60425c-0.19827,-0.3243 -0.35988,-0.58306 -0.62964,-0.85257c-0.18865,0.1311 -0.18864,0.1311 -0.3811,0.26488c-0.41423,0.26488 -0.41423,0.26487 -0.67934,0.26487c-0.04375,0.13112 -0.08749,0.26223 -0.13255,0.39731c-0.30292,0.21263 -0.30291,0.21263 -0.67106,0.42215c-0.12183,0.07018 -0.24365,0.14034 -0.36919,0.21263c-0.09414,0.05275 -0.18831,0.1055 -0.28531,0.15985c-0.26149,-0.13502 -0.26148,-0.13502 -0.53023,-0.39731c-0.05101,-0.36087 -0.06932,-0.65873 -0.05799,-1.01812c0.00174,-0.09558 0.00349,-0.19117 0.00529,-0.28965c0.03586,-1.05669 0.33512,-1.83328 0.98058,-2.66541c0.08749,0 0.17498,0 0.26512,0c0,-0.0874 0,-0.1748 0,-0.26486c0.51796,-0.40065 1.10437,-0.71454 1.72322,-0.92708c-0.54798,-0.45624 -1.12938,-0.85112 -1.72168,-1.24678c-0.08798,-0.06932 -0.176,-0.13863 -0.26666,-0.21005c0,-0.0874 0,-0.17481 0,-0.26486c-0.10765,-0.04712 -0.10765,-0.04712 -0.21747,-0.0952c-0.3966,-0.21518 -0.7252,-0.48094 -1.07495,-0.76566c-0.13054,-0.10518 -0.26109,-0.21032 -0.39558,-0.31868c-0.09912,-0.0915 -0.19823,-0.18301 -0.30032,-0.27729c0,-0.08742 0,-0.17482 0,-0.26488c-0.07382,-0.02731 -0.14765,-0.05463 -0.2237,-0.08278c-0.43614,-0.2591 -0.68342,-0.56054 -0.96931,-0.97674c0.02486,-0.38077 0.02486,-0.38076 0.13255,-0.6622c0.71343,-0.11879 1.32351,-0.12086 2.04012,-0.03413c0.55692,0.05498 1.11248,0.04483 1.67145,0.03413c-0.00546,-0.10106 -0.01094,-0.20213 -0.01657,-0.30626c0.01657,-0.35593 0.01657,-0.35592 0.28169,-0.75325c-0.04943,-0.09004 -0.09886,-0.18008 -0.14978,-0.27285c-0.22672,-0.41371 -0.45271,-0.82781 -0.6787,-1.24192c-0.07776,-0.1416 -0.1555,-0.28321 -0.2356,-0.42912c-0.38797,-0.7121 -0.7596,-1.42187 -1.07654,-2.16857c-0.16073,-0.36753 -0.34591,-0.72111 -0.53277,-1.07593c-0.20816,-0.45598 -0.26348,-0.87705 -0.2677,-1.37561c-0.00188,-0.10122 -0.00375,-0.20246 -0.00569,-0.30677c0.03055,-0.28091 0.03055,-0.28092 0.29566,-0.67824c0.8772,-0.29215 1.4955,-0.21191 2.318,0.18651c0.52498,0.2686 1.03459,0.54563 1.52611,0.873c0.02462,-0.12702 0.02461,-0.12701 0.04971,-0.25659c0.02734,-0.09015 0.05468,-0.18028 0.08284,-0.27317c0.41781,-0.20871 0.74798,-0.25713 1.193,-0.13243c1.3989,0.9779 2.51327,2.43171 3.44645,3.84073c-0.01436,-0.16493 -0.01436,-0.16493 -0.029,-0.33318c-0.17389,-2.30676 -0.15559,-4.63216 -0.06213,-6.94269c0.00444,-0.15015 0.00444,-0.15015 0.00898,-0.30331c0.02914,-0.56987 0.07871,-1.00442 0.47982,-1.42666c0.4888,-0.04138 0.4888,-0.04138 0.92789,0c0.87013,1.72494 1.55114,3.45265 2.12088,5.29754c0.0583,0.18609 0.11664,0.37217 0.17502,0.55822c0.12037,0.38728 0.23905,0.77494 0.35521,1.16349c0.04375,0 0.08749,0 0.13255,0c0.0166,-0.07524 0.03322,-0.15046 0.05032,-0.22798c0.32857,-1.47279 0.68195,-2.88292 1.27524,-4.27493c0.07837,-0.19368 0.15635,-0.38752 0.23404,-0.58149c0.08208,-0.20352 0.16423,-0.407 0.24648,-0.61046c0.03833,-0.09521 0.07668,-0.19045 0.11618,-0.28854c0.20804,-0.50645 0.43526,-0.96889 0.72887,-1.43315c0.1084,-0.19827 0.21613,-0.39693 0.3231,-0.59598c0.3447,-0.62158 0.66789,-1.12362 1.26756,-1.52304c0.33967,-0.04139 0.33967,-0.04139 0.66278,0c0.26511,0.39731 0.26511,0.39731 0.26511,0.92706c0.07434,0.03211 0.14865,0.0642 0.22523,0.09726c0.36607,0.2012 0.63643,0.44693 0.94291,0.73049c0.39132,0.35938 0.78336,0.71287 1.19299,1.05124c0.4168,0.3516 0.74147,0.74507 1.0853,1.16711c0.08749,0.0437 0.17497,0.08741 0.26512,0.13244c-0.03709,-0.1084 -0.07415,-0.21682 -0.11236,-0.32851c-0.46445,-1.41597 -0.81865,-2.85294 -1.1586,-4.30281c-0.03768,-0.1601 -0.07534,-0.32021 -0.11415,-0.48515c-0.03327,-0.14327 -0.06653,-0.28651 -0.1008,-0.43411c-0.101,-0.41518 -0.10099,-0.41518 -0.24809,-0.83641c-0.12374,-0.37329 -0.16513,-0.63979 -0.12178,-1.02957c0.08749,-0.0874 0.17497,-0.17482 0.26512,-0.26488c0.57958,0.0313 0.91005,0.27078 1.32555,0.66219c0,0.08742 0,0.17484 0,0.26489c0.08749,0 0.17497,0 0.26512,0c0.18692,0.21883 0.18692,0.21882 0.40595,0.52147c0.34803,0.46218 0.71115,0.87214 1.12672,1.27471c0.51799,0.50512 1.00437,1.02768 1.38354,1.64722c0,0.0874 0,0.17482 0,0.26488c0.08749,0 0.17497,0 0.26512,0c0.14968,0.19242 0.14967,0.19241 0.31119,0.45888c0.08752,0.1425 0.08752,0.1425 0.17684,0.28788c0.06039,0.10048 0.1208,0.20095 0.18303,0.30446c0.12018,0.19719 0.24048,0.39431 0.36092,0.59133c0.05315,0.08808 0.1063,0.17616 0.16105,0.2669c0.11997,0.20674 0.11997,0.20674 0.26509,0.34199c0.294,-1.06803 0.48244,-2.11081 0.5965,-3.21164c0.20276,-1.78639 0.48614,-3.49641 0.99417,-5.22305c0.03302,-0.11264 0.06606,-0.22528 0.10008,-0.34134c0.37932,-1.23854 0.37932,-1.23854 0.8278,-1.68663zM256.11193,164.79062c-0.22847,0.31769 -0.27602,0.58634 -0.34018,0.97106c-0.02257,0.12702 -0.04512,0.25403 -0.06836,0.3849c-0.05554,0.35849 -0.05554,0.35849 0.10148,0.74081c0.21598,-0.27548 0.43126,-0.55146 0.64621,-0.82773c0.061,-0.07769 0.12201,-0.15537 0.18486,-0.2354c0.29618,-0.38169 0.56697,-0.74144 0.75961,-1.18832c-0.25017,-0.01228 -0.25017,-0.01228 -0.50538,-0.02482c-0.09383,-0.00461 -0.18762,-0.00923 -0.28427,-0.01398c-0.27815,0.01925 -0.27815,0.01926 -0.49398,0.19348z" fill="#63a01d" stroke-width="1"/><path d="M247.62993,170.45651c0.40383,0.30969 0.60576,0.64416 0.88439,1.06624c0.2169,0.13891 0.43808,0.27138 0.66278,0.39733c0.09571,0.09833 0.19137,0.19667 0.28996,0.29798c0.43884,0.42871 0.91723,0.74129 1.43171,1.07297c0.13202,0.10806 0.13201,0.10807 0.26667,0.21832c0,0.1311 0,0.26222 0,0.39731c0.25836,0.04507 0.25836,0.04507 0.52193,0.09106c0.69856,0.15177 1.26049,0.4625 1.86407,0.83602c0,0.0874 0,0.17482 0,0.26487c0.08748,0 0.17496,0 0.26511,0c0.76213,0.6557 1.35745,1.49416 1.67351,2.45012c0.06015,0.15297 0.12031,0.30593 0.18227,0.46353c0.26869,0.10202 0.26869,0.10202 0.53022,0.13243c0,-0.0874 0,-0.17481 0,-0.26486c0.47725,-0.23842 1.03201,-0.16258 1.55753,-0.16555c0.17788,-0.00409 0.17788,-0.00409 0.35936,-0.00827c0.703,-0.00415 1.18181,0.05347 1.79468,0.43869c0,0.08742 0,0.17484 0,0.26489c0.13123,0 0.26245,0 0.39766,0c0,0.0874 0,0.17481 0,0.26486c0.10116,0.01914 0.20231,0.03825 0.30653,0.05795c0.35625,0.0745 0.35625,0.07449 0.75392,0.20694c0.18376,0.01626 0.36811,0.02655 0.55248,0.0326c0.16134,0.00653 0.16134,0.00653 0.32595,0.01318c0.22368,0.00801 0.44735,0.01562 0.67106,0.02277c1.76064,0.07347 1.76064,0.07347 2.2226,0.51213c0.16069,0.20053 0.31543,0.40577 0.46968,0.61126c0.28274,0.16357 0.28274,0.16357 0.53022,0.26488c0.16305,0.32581 0.15021,0.5472 0.14913,0.91052c0.00033,0.11438 0.00068,0.22876 0.00104,0.34662c-0.01653,0.31157 -0.04183,0.56929 -0.15017,0.86187c-0.22015,0.09024 -0.44111,0.17845 -0.66278,0.26488c-0.04033,0.08468 -0.08064,0.16936 -0.12221,0.25661c-0.30687,0.58655 -1.11188,0.73182 -1.70925,0.92138c-0.28098,0.08426 -0.56216,0.16784 -0.84349,0.25091c-0.73113,0.22406 -1.44425,0.50117 -2.15862,0.77305c-1.72163,0.64868 -3.20428,0.47592 -4.97557,0.04952c-0.54448,-0.128 -1.06505,-0.15373 -1.6238,-0.17383c-0.7294,-0.0345 -1.30754,-0.14156 -1.93863,-0.52251c-0.42362,-0.14783 -0.7682,-0.03748 -1.20958,0.03413c-0.23216,0.01252 -0.46454,0.02154 -0.69694,0.02794c-1.85942,0.04368 -1.85943,0.04369 -3.67585,0.40663c-2.9102,0.69391 -5.99745,0.25676 -8.70621,-0.91569c-0.70978,-0.29097 -1.35335,-0.48285 -2.12347,-0.47078c-0.18122,0.00128 -0.18122,0.00129 -0.36609,0.0026c-0.32656,0.01069 -0.32655,0.01069 -0.58837,0.0881c-0.29284,0.06964 -0.55513,0.08739 -0.85576,0.09452c-1.75264,0.05501 -3.17009,0.19033 -4.70831,1.09002c-1.57035,0.7796 -3.28292,1.02492 -5.01381,1.02589c-0.15028,0.00162 -0.30056,0.00324 -0.45539,0.00492c-0.80577,0.00139 -1.53456,-0.0578 -2.31931,-0.23595c-0.54894,-0.1021 -1.09317,-0.08002 -1.64934,-0.06696c-1.12495,0.01141 -2.2474,0.00259 -3.37188,-0.03311c-0.13995,-0.003 -0.27992,-0.006 -0.4241,-0.00908c-0.71919,-0.02551 -1.28682,-0.05531 -1.89563,-0.47929c-0.24698,-0.28091 -0.24697,-0.28091 -0.43909,-0.58769c-0.0651,-0.10089 -0.1302,-0.2018 -0.19728,-0.30576c-0.66857,-1.25546 0.01657,-3.08515 0.37126,-4.38495c0.10832,-0.3403 0.2247,-0.63531 0.39767,-0.94622c0.08748,0 0.17497,0 0.26511,0c0.03403,-0.07945 0.06805,-0.15891 0.1031,-0.24079c0.17839,-0.3182 0.34009,-0.46078 0.63319,-0.67438c0.09246,-0.0682 0.18489,-0.13641 0.28014,-0.20668c0.09653,-0.06957 0.19308,-0.13914 0.29255,-0.21081c0.09551,-0.07009 0.19102,-0.14017 0.28945,-0.21237c0.17861,-0.13095 0.35755,-0.26148 0.53688,-0.39141c0.08272,-0.06024 0.16546,-0.12049 0.25068,-0.18258c0.0952,-0.06494 0.19039,-0.1299 0.28849,-0.19681c0.27894,-0.19545 0.27894,-0.19545 0.37429,-0.59782c0.21881,-0.1359 0.44005,-0.26793 0.66279,-0.39731c0.32445,-0.29638 0.5502,-0.55971 0.79533,-0.92708c0.17559,-0.09058 0.35239,-0.17877 0.53021,-0.26488c0.20579,-0.18199 0.20579,-0.18199 0.39146,-0.39317c0.07126,-0.07563 0.1425,-0.15126 0.21591,-0.22918c0.14644,-0.15796 0.2918,-0.31696 0.43599,-0.47698c0.66908,-0.70344 1.24549,-0.8542 2.19753,-0.91777c0.14165,0.00189 0.28329,0.00375 0.42924,0.00569c0.21402,0.00128 0.21401,0.00129 0.43236,0.0026c0.4044,0.02225 0.4044,0.02224 0.72101,0.08876c0.33824,0.06441 0.64342,0.08303 0.9872,0.08351c0.11928,0.00017 0.23855,0.00034 0.36144,0.00052c0.18454,-0.00078 0.18453,-0.00077 0.3728,-0.00155c0.18302,0.00078 0.18302,0.00077 0.36971,0.00155c0.66932,-0.00096 1.30444,-0.04155 1.9666,-0.15054c1.13774,-0.07218 2.20504,0.16895 3.31389,0.39731c0,0.08742 0,0.17482 0,0.26487c0.26245,0.08742 0.52491,0.17482 0.79533,0.26488c0.02973,-0.09714 0.05947,-0.19428 0.09009,-0.29436c0.33249,-0.6988 1.03168,-1.09602 1.63314,-1.55978c0.09569,-0.08058 0.19137,-0.16116 0.28996,-0.24419c0.08477,-0.06966 0.16951,-0.1393 0.25683,-0.21107c0.07141,-0.05992 0.14284,-0.11984 0.21643,-0.18158c0.82506,-0.43802 1.79062,-0.46207 2.70599,-0.46821c0.16788,-0.0029 0.16788,-0.0029 0.33913,-0.00585c0.35435,-0.0061 0.70871,-0.01065 1.06306,-0.01484c2.36252,-0.01187 2.36252,-0.01187 4.68645,-0.40326c1.23836,-0.29705 2.7977,0.09796 3.87376,0.72763z" fill="#7e5c25" stroke-width="1"/><path d="M226.77519,158.54376c0.26511,0.39731 0.26511,0.39731 0.26511,0.92706c0.13123,0.06555 0.13123,0.06555 0.26511,0.13245c-0.13123,0.0437 -0.26245,0.0874 -0.39766,0.13243c-0.00262,0.10417 -0.00527,0.20833 -0.00797,0.31564c-0.01266,0.47426 -0.02719,0.94843 -0.04175,1.42263c-0.00409,0.16388 -0.00821,0.32778 -0.01242,0.49664c-0.00769,0.23816 -0.00768,0.23816 -0.01553,0.48113c-0.00417,0.14565 -0.00835,0.29129 -0.01264,0.44136c-0.04428,0.43841 -0.161,0.79894 -0.30737,1.21309c-0.03244,0.33958 -0.05469,0.66978 -0.06627,1.00984c-0.04167,0.89691 -0.10974,1.7884 -0.19884,2.68188c-0.01101,0.11415 -0.02203,0.2283 -0.0334,0.34591c-0.01085,0.10675 -0.0217,0.21353 -0.03288,0.32352c-0.00955,0.09456 -0.01914,0.18912 -0.02899,0.28654c-0.03728,0.25252 -0.03727,0.25251 -0.16983,0.64984c-0.00902,0.22885 -0.01128,0.45803 -0.00829,0.68703c0.00119,0.11934 0.0024,0.23868 0.00361,0.36162c0.00154,0.09099 0.00308,0.18199 0.00467,0.27574c0.05074,-0.11267 0.1015,-0.22534 0.15377,-0.34144c0.27278,-0.50688 0.59114,-0.91253 0.96466,-1.34716c0.0633,-0.07631 0.12662,-0.15262 0.19183,-0.23125c0.32459,-0.38167 0.59907,-0.68574 1.07573,-0.86137c0,-0.0874 0,-0.17481 0,-0.26487c0.22711,-0.20996 0.46354,-0.40996 0.70419,-0.60426c0.13071,-0.10671 0.26144,-0.21339 0.39612,-0.32333c0.35779,-0.26436 0.35779,-0.26436 0.75546,-0.39681c0,-0.0874 0,-0.1748 0,-0.26486c0.17497,0 0.34994,0 0.53023,0c-0.22724,2.34606 -0.22723,2.34605 -0.53023,2.64877c-0.03607,0.1871 -0.06499,0.3756 -0.09062,0.56441c-0.02447,0.17325 -0.02447,0.17325 -0.04944,0.34999c-0.03331,0.24312 -0.06644,0.48627 -0.09943,0.72943c-0.08885,0.62694 -0.19515,1.20456 -0.42329,1.79958c-1.20596,0.19087 -2.38271,0.29056 -3.60385,0.2897c-0.17819,0.00014 -0.17819,0.00014 -0.35997,0.00026c-0.55495,-0.00462 -1.06026,-0.03743 -1.60352,-0.15753c-0.27576,-0.01855 -0.55211,-0.02911 -0.82847,-0.03312c-0.14011,-0.00342 -0.28023,-0.00682 -0.42459,-0.01034c-1.18442,0.10948 -1.85873,0.52279 -2.64905,1.39268c-0.15942,0.17073 -0.3194,0.34096 -0.48,0.5106c-0.06876,0.07515 -0.13752,0.1503 -0.20838,0.22773c-0.18152,0.16391 -0.18152,0.16391 -0.44662,0.16391c-0.24173,0.26114 -0.45998,0.53719 -0.68247,0.8148c-0.26347,0.2627 -0.41262,0.32682 -0.77565,0.37714c-0.0121,0.07916 -0.02423,0.1583 -0.03669,0.23985c-0.1201,0.3632 -0.26259,0.46587 -0.56913,0.69033c-0.14559,0.10858 -0.14558,0.10858 -0.29411,0.21936c-0.10219,0.07408 -0.20436,0.14817 -0.30965,0.22451c-1.47063,0.93957 -1.47063,0.93957 -2.36943,2.33425c-0.02172,0.08371 -0.04344,0.16743 -0.06583,0.25368c-0.0744,0.29799 -0.14169,0.59691 -0.20756,0.89688c-0.02414,0.10614 -0.04827,0.2123 -0.07314,0.32166c-0.12425,0.56446 -0.20531,1.09339 -0.21683,1.6732c-0.02525,0.39401 -0.06275,0.52271 -0.33295,0.81842c-0.69246,0.53908 -0.69246,0.53908 -1.09203,0.53908c-0.04375,0.13112 -0.08749,0.26223 -0.13255,0.39731c-0.30292,0.21263 -0.30291,0.21263 -0.67106,0.42215c-0.12183,0.07018 -0.24368,0.14034 -0.36919,0.21263c-0.09416,0.05275 -0.18831,0.1055 -0.28531,0.15985c-0.26149,-0.13502 -0.26148,-0.13502 -0.53023,-0.39731c-0.05101,-0.36087 -0.06932,-0.65873 -0.05799,-1.01812c0.00174,-0.09558 0.00349,-0.19117 0.00529,-0.28965c0.03586,-1.05669 0.33512,-1.83328 0.98058,-2.66541c0.08749,0 0.17497,0 0.26512,0c0,-0.0874 0,-0.1748 0,-0.26486c0.51796,-0.40065 1.10437,-0.71454 1.72322,-0.92708c-0.54798,-0.45624 -1.12938,-0.85112 -1.72168,-1.24678c-0.08798,-0.06932 -0.176,-0.13863 -0.26666,-0.21005c0,-0.0874 0,-0.17481 0,-0.26486c-0.10765,-0.04712 -0.10765,-0.04712 -0.21747,-0.0952c-0.39659,-0.21518 -0.7252,-0.48094 -1.07495,-0.76566c-0.13054,-0.10518 -0.26109,-0.21032 -0.39558,-0.31868c-0.09912,-0.0915 -0.19823,-0.18301 -0.30032,-0.27729c0,-0.08742 0,-0.17482 0,-0.26488c-0.07382,-0.02731 -0.14765,-0.05463 -0.2237,-0.08278c-0.43614,-0.2591 -0.68342,-0.56054 -0.96931,-0.97674c0.02486,-0.38077 0.02486,-0.38076 0.13255,-0.6622c0.71343,-0.11879 1.32351,-0.12086 2.04012,-0.03413c0.55692,0.05498 1.11248,0.04483 1.67145,0.03413c-0.00546,-0.10106 -0.01094,-0.20213 -0.01657,-0.30626c0.01657,-0.35593 0.01657,-0.35592 0.28169,-0.75325c-0.04943,-0.09004 -0.09886,-0.18008 -0.14978,-0.27285c-0.22672,-0.41371 -0.45271,-0.82781 -0.6787,-1.24192c-0.07776,-0.1416 -0.1555,-0.28321 -0.2356,-0.42912c-0.38797,-0.7121 -0.7596,-1.42187 -1.07654,-2.16857c-0.16073,-0.36753 -0.34591,-0.72111 -0.53277,-1.07593c-0.20816,-0.45598 -0.26348,-0.87705 -0.2677,-1.37561c-0.00188,-0.10122 -0.00375,-0.20246 -0.00569,-0.30677c0.03055,-0.28091 0.03055,-0.28092 0.29566,-0.67824c0.8772,-0.29215 1.4955,-0.21191 2.318,0.18651c0.52498,0.2686 1.03459,0.54563 1.52611,0.873c0.02462,-0.12702 0.02461,-0.12701 0.04971,-0.25659c0.02734,-0.09015 0.05468,-0.18028 0.08284,-0.27317c0.41781,-0.20871 0.74798,-0.25713 1.193,-0.13243c1.3989,0.9779 2.51327,2.43171 3.44645,3.84073c-0.01436,-0.16493 -0.01436,-0.16493 -0.029,-0.33318c-0.17389,-2.30676 -0.15559,-4.63216 -0.06213,-6.94269c0.00444,-0.15015 0.00444,-0.15015 0.00898,-0.30331c0.02914,-0.56987 0.07871,-1.00442 0.47982,-1.42666c0.4888,-0.04138 0.4888,-0.04138 0.92789,0c0.87013,1.72494 1.55114,3.45265 2.12088,5.29754c0.0583,0.18609 0.11664,0.37217 0.17502,0.55822c0.12037,0.38728 0.23905,0.77494 0.35521,1.16349c0.04375,0 0.08749,0 0.13255,0c0.0166,-0.07524 0.03322,-0.15046 0.05032,-0.22798c0.32857,-1.47279 0.68195,-2.88292 1.27524,-4.27493c0.07837,-0.19368 0.15635,-0.38752 0.23404,-0.58149c0.08208,-0.20352 0.16423,-0.407 0.24648,-0.61046c0.05751,-0.14282 0.05751,-0.14282 0.11618,-0.28854c0.20804,-0.50645 0.43526,-0.96889 0.72887,-1.43315c0.1084,-0.19827 0.21613,-0.39693 0.3231,-0.59598c0.91664,-1.6529 0.91664,-1.6529 1.93034,-1.52304z" fill="#3c7502" stroke-width="1"/><path d="M223.24301,172.82292c0.16414,0.00139 0.32827,0.00278 0.49739,0.00421c0.17743,0.00296 0.35486,0.00601 0.53227,0.00914c0.18387,0.00247 0.36775,0.00485 0.55162,0.00718c0.38452,0.00522 0.76903,0.01149 1.15352,0.01846c0.49083,0.00878 0.98164,0.01455 1.47253,0.0195c0.3795,0.00421 0.75899,0.01023 1.13846,0.01676c0.18089,0.00286 0.36178,0.00512 0.54268,0.00677c2.03825,0.02043 2.03826,0.02043 2.89829,0.78183c0.31909,0.35945 0.63548,0.71907 0.9424,1.089c0.1548,0.18463 0.15479,0.18464 0.31274,0.37299c0.25061,0.34714 0.25061,0.34713 0.31896,0.64047c0.0212,0.07802 0.04239,0.15604 0.06421,0.23642c0.0793,0.03876 0.15859,0.07751 0.24027,0.11744c0.41928,0.21319 0.57121,0.52321 0.82019,0.91724c0.60822,0.98482 0.60822,0.98481 1.45811,1.74653c0.4001,0.77276 0.38986,1.70417 0.19882,2.5422c-0.211,0.55339 -0.48,0.88301 -0.99416,1.16608c-0.98356,0.26612 -1.99603,0.29119 -3.00784,0.33556c-0.73082,0.03871 -1.40274,0.16957 -2.10643,0.37681c-0.32051,0.08226 -0.32051,0.08226 -0.85074,0.08226c-0.06562,0.19667 -0.06562,0.19667 -0.13255,0.39733c-0.22356,0.11593 -0.22356,0.11593 -0.51158,0.20796c-0.10425,0.03398 -0.20846,0.06795 -0.31585,0.10295c-0.10971,0.03398 -0.21941,0.06795 -0.33243,0.10295c-0.10765,0.03501 -0.2153,0.07 -0.32622,0.10607c-0.71168,0.22814 -1.38074,0.42818 -2.13435,0.41542c-0.24194,-0.0041 -0.24194,-0.0041 -0.48878,-0.00829c0,0.08742 0,0.17482 0,0.26488c-0.40599,0.00717 -0.81185,0.01242 -1.21787,0.01655c-0.11456,0.00223 -0.22914,0.00444 -0.34718,0.00673c-0.61113,0.00468 -1.05471,-0.02652 -1.6163,-0.28816c-0.74362,-0.1708 -1.4791,-0.14116 -2.23686,-0.13243c-0.28376,0.00015 -0.5675,-0.00003 -0.85126,-0.00052c-0.44519,-0.00059 -0.89,0.00054 -1.33514,0.00731c-0.43124,0.00598 -0.86192,0.00441 -1.2932,0.00148c-0.13257,0.00367 -0.26514,0.00734 -0.40173,0.01112c-0.90312,-0.01544 -0.90313,-0.01544 -1.30117,-0.41264c-0.69986,-1.02397 -0.7677,-1.95988 -0.66653,-3.1826c0.12698,-0.38542 0.23021,-0.50298 0.53023,-0.79464c0.49837,-0.24352 0.93616,-0.30969 1.48711,-0.34402c0.15634,-0.01051 0.3127,-0.02101 0.47378,-0.03181c0.16216,-0.00982 0.32431,-0.01964 0.4914,-0.02975c0.32173,-0.02049 0.64346,-0.04135 0.96516,-0.06259c0.14224,-0.00873 0.2845,-0.01744 0.43106,-0.02643c0.3609,-0.03224 0.70273,-0.08884 1.05605,-0.16757c0,-0.08742 0,-0.17483 0,-0.26489c0.14765,-0.13521 0.14764,-0.13521 0.29825,-0.27315c0.86951,-0.86136 0.95647,-1.90982 1.06499,-3.07079c0.18488,-1.93354 0.18488,-1.93353 0.65462,-2.5708c0.5623,-0.42352 1.18961,-0.47483 1.87309,-0.46654z" fill="#dba557" stroke-width="1"/><path d="M246.15213,170.42134c0.73334,0.52985 0.99068,1.25414 1.21216,2.10402c0.08275,0.3261 0.08275,0.3261 0.22731,0.63788c0.15257,0.41455 0.18057,0.79216 0.21852,1.23178c0.14471,1.10243 0.60557,1.81438 1.397,2.57738c0.23507,0.24523 0.23508,0.24523 0.23508,0.51011c0.54875,0.13065 1.0688,0.15267 1.63209,0.16037c0.18814,0.00372 0.37626,0.00752 0.56439,0.01138c0.29407,0.00548 0.58811,0.01036 0.8822,0.01384c0.28558,0.00366 0.57102,0.00973 0.85656,0.01617c0.17002,0.00263 0.34003,0.00525 0.5152,0.00795c0.48195,0.05855 0.73744,0.15398 1.11688,0.45247c0.04375,0.13112 0.08749,0.26224 0.13257,0.39732c-0.71265,0.31032 -1.40115,0.55617 -2.16232,0.72014c-0.64758,0.15366 -1.01695,0.30996 -1.41669,0.86912c-0.17484,0.353 -0.17484,0.353 -0.26511,0.66219c-0.08749,0 -0.17498,0 -0.26513,0c-0.04373,0.69928 -0.08747,1.39856 -0.13255,2.11903c-1.3123,0.0874 -2.62461,0.17482 -3.97667,0.26488c0,0.0874 0,0.17482 0,0.26488c-1.08278,0.41324 -2.0965,0.46432 -3.2476,0.45524c-0.08758,-0.00035 -0.17515,-0.0007 -0.26538,-0.00108c-1.99257,-0.01236 -3.69028,-0.34332 -5.53705,-1.1024c-0.42462,-0.17199 -0.84595,-0.29796 -1.28931,-0.41127c0.06964,-0.6662 0.1466,-1.32689 0.26511,-1.98659c0.16583,0.0315 0.16584,0.0315 0.33503,0.06363c0.49179,0.07351 0.96562,0.10067 1.46276,0.11019c0.16968,0.00495 0.33935,0.00991 0.51417,0.015c0.54717,-0.06541 0.75317,-0.19675 1.1345,-0.58614c0.10045,-0.21384 0.19917,-0.42908 0.28064,-0.65082c0.14151,-0.33405 0.33134,-0.62216 0.52297,-0.93018c0.52033,-0.92365 0.57889,-1.88405 0.6545,-2.92194c-0.08749,0 -0.17498,0 -0.26513,0c-0.0704,-0.13725 -0.14079,-0.27452 -0.21333,-0.41594c-0.09453,-0.18144 -0.18912,-0.36286 -0.28376,-0.54424c-0.04613,-0.09031 -0.09225,-0.18063 -0.1398,-0.27368c-0.26053,-0.49649 -0.49556,-0.94104 -0.95378,-1.28247c-0.6698,-0.15787 -1.3251,-0.13678 -1.94121,0.18054c-0.58912,0.44023 -1.00484,0.90902 -1.37268,1.54116c-0.08749,0.08742 -0.17497,0.17482 -0.26511,0.26488c-0.13766,0.3068 -0.27072,0.61572 -0.39767,0.92708c-0.08749,0 -0.17496,0 -0.26511,0c-0.04375,0.21852 -0.08749,0.43704 -0.13255,0.66219c-0.26246,0.06556 -0.26247,0.06556 -0.53023,0.13244c-0.07535,-0.10243 -0.15071,-0.20486 -0.22835,-0.31041c-0.10234,-0.13794 -0.20471,-0.27588 -0.31016,-0.418c-0.05364,-0.07241 -0.10727,-0.1448 -0.16255,-0.21939c-0.38875,-0.51892 -0.80266,-0.99849 -1.25879,-1.46042c-0.22531,-0.33657 -0.22942,-0.50336 -0.16105,-0.90276c0.87072,-1.49653 2.19872,-2.3197 3.84412,-2.7812c0.90484,-0.15296 1.81959,-0.12619 2.73396,-0.10762c0.46292,0.00467 0.92578,0.00618 1.38873,0.00571c0.11156,0.00018 0.22311,0.00036 0.33805,0.00058c0.90407,-0.0081 1.74258,-0.14107 2.62238,-0.3424c0.85487,-0.15564 1.58316,-0.16298 2.35214,0.26938z" fill="#dba558" stroke-width="1"/><path d="M262.78891,167.59098c0.10117,0.03006 0.2023,0.06008 0.30654,0.09106c0.02292,1.55037 0.02292,1.55037 -0.08286,2.12729c-0.09608,0.41361 -0.09609,0.41361 0.2154,0.78636c0.06716,0.56041 -0.09262,0.94168 -0.3231,1.44855c-0.24361,0.53738 -0.39616,1.01141 -0.47223,1.59753c0.78044,-0.14619 1.18501,-0.44512 1.75015,-0.99846c0.23818,-0.19348 0.23818,-0.19348 0.63585,-0.19348c0,-0.08742 0,-0.17482 0,-0.26488c0.99905,-0.81865 1.87494,-1.39191 3.18133,-1.32439c0.04447,0.63687 -0.05678,0.92702 -0.39767,1.45682c-0.0738,0.22946 -0.0738,0.22946 -0.14912,0.46353c-0.21992,0.61322 -0.58379,1.10746 -0.96028,1.63497c-0.38072,0.53413 -0.74094,1.07682 -1.08605,1.63462c-0.13148,0.21177 -0.13148,0.21178 -0.26562,0.42784c-0.21149,0.31537 -0.21149,0.31537 -0.19003,0.60683c0.11213,-0.04107 0.11213,-0.04108 0.22653,-0.08299c0.34384,-0.12525 0.68828,-0.24876 1.03275,-0.37225c0.11755,-0.04311 0.23514,-0.08623 0.35624,-0.13063c0.70543,-0.25135 1.34915,-0.41173 2.09604,-0.47364c0.14878,0.22999 0.14877,0.23 0.26511,0.52976c-0.28061,0.87001 -0.97393,1.63136 -1.54924,2.32596c-0.11546,0.14354 -0.11546,0.14354 -0.23326,0.28998c-0.42436,0.51806 -0.42436,0.51807 -0.6035,0.69504c-0.08749,0 -0.17495,0 -0.2651,0c-0.06562,0.19667 -0.06562,0.19667 -0.13256,0.3973c-0.29825,-0.02483 -0.29825,-0.02483 -0.66278,-0.13243c-0.11892,-0.15979 -0.11892,-0.15979 -0.24027,-0.32281c-0.43695,-0.5114 -1.00882,-0.57456 -1.6558,-0.63079c-0.42544,-0.01954 -0.85065,-0.02967 -1.27646,-0.03683c-0.74587,-0.02475 -1.31053,-0.17137 -1.99714,-0.46639c0,-0.0874 0,-0.1748 0,-0.26486c-0.13123,0 -0.26245,0 -0.39766,0c-0.04375,-0.08742 -0.08749,-0.17484 -0.13255,-0.26489c-0.46826,-0.23332 -0.84575,-0.29681 -1.36544,-0.29074c-0.12944,0.00086 -0.25886,0.00171 -0.39222,0.00259c-0.13355,0.00221 -0.26708,0.00444 -0.40467,0.00671c-0.20416,0.0018 -0.20416,0.0018 -0.41243,0.00363c-0.33477,0.00311 -0.66951,0.00746 -1.00426,0.01294c0,0.0874 0,0.1748 0,0.26486c-0.3143,-0.0274 -0.3143,-0.0274 -0.66278,-0.13243c-0.16207,-0.2747 -0.16206,-0.2747 -0.27339,-0.6208c-0.31917,-0.8942 -0.69754,-1.44338 -1.44983,-2.02797c0,-0.08742 0,-0.17482 0,-0.26488c-0.08749,0 -0.17497,0 -0.26511,0c0,-0.08742 0,-0.17482 0,-0.26487c-0.11534,-0.02484 -0.11534,-0.02484 -0.23301,-0.05018c-0.29842,-0.08258 -0.5381,-0.19384 -0.81087,-0.33886c-0.3425,-0.17971 -0.60455,-0.28731 -0.98589,-0.38076c-0.35623,-0.15727 -0.35623,-0.15727 -0.60478,-0.61253c-0.14912,-0.4718 -0.14912,-0.4718 -0.14912,-0.86912c1.09511,0.05471 1.79022,0.8499 2.51855,1.58926c0.14711,0.14723 0.29434,0.29432 0.44168,0.4413c0.64077,0.6402 0.64078,0.6402 1.28154,1.28041c-0.00102,-0.16829 -0.00102,-0.16829 -0.00209,-0.33995c-0.00227,-0.41911 -0.00393,-0.83823 -0.00518,-1.25734c-0.00065,-0.18084 -0.00158,-0.36171 -0.00272,-0.54256c-0.00161,-0.26103 -0.00229,-0.52208 -0.00294,-0.78311c-0.00104,-0.23512 -0.00104,-0.23512 -0.00211,-0.47499c0.01447,-0.42541 0.07675,-0.81842 0.14761,-1.23741c0.01026,-0.27679 0.01432,-0.55387 0.01294,-0.83085c-0.00043,-0.1528 -0.00086,-0.3056 -0.00129,-0.46301c-0.00111,-0.1576 -0.00222,-0.31516 -0.00336,-0.47751c-0.00061,-0.16064 -0.0012,-0.32131 -0.00181,-0.48682c-0.00155,-0.39508 -0.00374,-0.79016 -0.00647,-1.18523c0.24854,-0.07863 0.24854,-0.07863 0.53022,-0.13243c0.79264,0.59393 1.15496,1.60766 1.45811,2.51633c0,0.13112 0,0.26224 0,0.39732c0.08749,0 0.17498,0 0.26513,0c0.67047,1.53116 0.84566,3.24572 0.92789,4.90022c0.08749,0 0.17496,0 0.26511,0c0.01094,-0.1639 0.02188,-0.32778 0.03314,-0.49664c0.08782,-0.78708 0.29152,-1.56698 0.62964,-2.28457c0.13123,-0.04372 0.26245,-0.08741 0.39766,-0.13244c0.08774,-0.26758 0.1743,-0.53558 0.25632,-0.80498c0.36441,-0.99761 1.73201,-4.3201 2.8836,-4.18631z" fill="#3e7307" stroke-width="1"/><path d="M258.91165,178.4344c0.54027,0.19612 1.03143,0.456 1.52698,0.74549c0.49846,0.28853 0.84399,0.45366 1.42912,0.46251c0.11969,0.00333 0.2394,0.00665 0.36272,0.01009c0.24922,0.00462 0.49846,0.00878 0.7477,0.01241c0.90977,0.02649 1.58047,0.1345 2.29616,0.73953c0.30576,0.57432 0.35498,1.07872 0.20712,1.71344c-0.59718,0.89783 -1.8376,1.24864 -2.84166,1.45682c-0.09654,0.01929 -0.1931,0.03859 -0.29255,0.05846c-0.7563,0.1792 -1.49692,0.46479 -2.18872,0.81636c-0.63272,0.27208 -1.27263,0.24264 -1.95107,0.23436c-0.12489,0.00154 -0.24982,0.00307 -0.37851,0.00465c-0.73516,-0.00305 -1.31415,-0.10413 -2.00025,-0.36136c-0.58098,-0.18152 -1.18827,-0.14797 -1.79182,-0.14847c-0.93779,-0.0235 -1.57102,-0.35586 -2.34122,-0.86888c-0.34501,-0.74385 -0.41298,-1.53917 -0.15534,-2.31871c0.18915,-0.43858 0.3455,-0.78493 0.68556,-1.12469c0.37092,-0.07672 0.73616,-0.14218 1.11015,-0.19866c0.86833,-0.12889 0.86833,-0.12889 1.67351,-0.46354c0.13124,0 0.26246,0 0.39767,0c0,-0.0874 0,-0.17481 0,-0.26487c0.08953,-0.02562 0.17908,-0.05122 0.27134,-0.07761c0.11824,-0.03449 0.23648,-0.06897 0.35831,-0.10451c0.11688,-0.0338 0.23374,-0.06761 0.35417,-0.10243c0.33794,-0.10164 0.33794,-0.10164 0.6198,-0.25608c0.60367,-0.29104 1.28539,-0.1535 1.90083,0.03569z" fill="#d6a04f" stroke-width="1"/><path d="M257.79322,163.70886c0.13122,0 0.26244,0 0.39767,0c0.16814,-0.0082 0.16814,-0.0082 0.33967,-0.01654c0.3231,0.01654 0.3231,0.01654 0.58823,0.28144c0.03055,0.43249 0.03054,0.43249 0.02486,0.96017c-0.00087,0.17276 -0.00173,0.34553 -0.0026,0.52354c-0.01972,0.44496 -0.07,0.8609 -0.15481,1.29749c0.17633,-0.1475 0.17633,-0.14751 0.35623,-0.29799c0.10842,-0.08988 0.10842,-0.08988 0.21902,-0.18158c0.1955,-0.16223 0.3901,-0.32548 0.58459,-0.48889c0.29825,-0.22348 0.29825,-0.22348 0.56337,-0.22348c0.04373,-0.13112 0.08749,-0.26224 0.13256,-0.39732c0.57906,-0.33559 1.13646,-0.54279 1.80607,-0.49665c0.10388,0.03277 0.20778,0.06555 0.31482,0.09932c0.07538,0.86624 -0.17381,1.46922 -0.53023,2.25146c-0.03698,0.08242 -0.07398,0.16482 -0.11211,0.24974c-0.53436,1.18624 -1.11714,2.32439 -1.77681,3.44561c-0.24677,0.43642 -0.45038,0.87519 -0.63171,1.34198c-0.13048,0.26022 -0.13048,0.26022 -0.38732,0.54269c-0.3775,0.52432 -0.49023,1.05705 -0.63792,1.67928c-0.02922,0.11703 -0.05844,0.23407 -0.08855,0.35465c-0.07143,0.28704 -0.14127,0.57437 -0.2097,0.86213c-0.08749,0 -0.17497,0 -0.26511,0c-0.20749,-0.41461 -0.20889,-0.86845 -0.25684,-1.32439c-0.18001,-1.62567 -0.18,-1.62567 -0.67105,-3.17853c0,-0.13112 0,-0.26222 0,-0.39731c-0.08749,0 -0.17498,0 -0.26513,0c-0.02255,-0.08794 -0.0451,-0.17584 -0.06834,-0.26644c-0.19008,-0.69198 -0.36681,-1.1817 -0.85955,-1.72015c-0.09843,-0.17209 -0.09843,-0.17209 -0.19883,-0.34766c-0.20792,-0.32894 -0.40589,-0.5003 -0.72905,-0.71185c0.08749,0 0.17495,0 0.2651,0c0,-0.30594 0,-0.61186 0,-0.92706c0.07757,-0.03159 0.15515,-0.06318 0.23508,-0.09572c0.35581,-0.20394 0.53119,-0.42921 0.77566,-0.75687c0.07824,-0.10362 0.15651,-0.20727 0.23715,-0.31403c0.16344,-0.22564 0.3207,-0.45578 0.47532,-0.68754c-0.43744,0 -0.87486,0 -1.32554,0c0.35536,-0.35505 0.58214,-0.31609 1.07701,-0.34764c0.14524,-0.00991 0.29048,-0.0198 0.44012,-0.03001c0.11174,-0.00648 0.2235,-0.01297 0.33864,-0.01965c0,-0.21852 0,-0.43705 0,-0.66221z" fill="#579114" stroke-width="1"/><path d="M210.04831,174.39502c0.13986,0.00879 0.27972,0.01757 0.42383,0.02664c1.17566,0.09294 2.24382,0.41248 3.04749,1.33913c0.50151,0.75164 1.09369,1.71086 1.06044,2.64879c-0.12822,0.13663 -0.26146,0.26862 -0.39766,0.39731c-0.28295,0.5727 -0.40231,1.19259 -0.53851,1.81276c-0.02414,0.10614 -0.04827,0.2123 -0.07314,0.32166c-0.12425,0.56446 -0.20531,1.09339 -0.21683,1.6732c-0.02525,0.39401 -0.06275,0.52271 -0.33295,0.81842c-0.69246,0.53908 -0.69246,0.53908 -1.09203,0.53908c-0.04375,0.1311 -0.08749,0.26223 -0.13255,0.39731c-0.30292,0.21263 -0.30291,0.21263 -0.67106,0.42215c-0.12183,0.07018 -0.24368,0.14034 -0.36919,0.21263c-0.09416,0.05275 -0.18831,0.1055 -0.28531,0.15985c-0.26149,-0.13502 -0.26148,-0.13502 -0.53023,-0.39731c-0.05101,-0.36087 -0.06932,-0.65873 -0.05799,-1.01812c0.00174,-0.09558 0.00349,-0.19117 0.00529,-0.28965c0.03586,-1.05669 0.33512,-1.83328 0.98058,-2.66541c0.08749,0 0.17497,0 0.26512,0c0,-0.0874 0,-0.1748 0,-0.26486c0.51796,-0.40065 1.10437,-0.71454 1.72322,-0.92708c-0.54798,-0.45624 -1.12938,-0.85112 -1.72168,-1.24678c-0.08798,-0.06932 -0.176,-0.13863 -0.26666,-0.21005c0,-0.0874 0,-0.17481 0,-0.26486c-0.10765,-0.04712 -0.10765,-0.04712 -0.21747,-0.0952c-0.39659,-0.21518 -0.7252,-0.48094 -1.07495,-0.76566c-0.13054,-0.10518 -0.26109,-0.21032 -0.39558,-0.31868c-0.09912,-0.0915 -0.19823,-0.18301 -0.30032,-0.27729c0,-0.08742 0,-0.17482 0,-0.26488c-0.07382,-0.02731 -0.14765,-0.05463 -0.2237,-0.08278c-0.43614,-0.2591 -0.68342,-0.56054 -0.96931,-0.97674c0.02486,-0.38077 0.02486,-0.38076 0.13255,-0.6622c0.75683,-0.17948 1.45964,-0.10312 2.22859,-0.04138z" fill="#559606" stroke-width="1"/><path d="M211.68041,166.10104c1.22725,0.63986 1.90749,1.33798 2.36943,2.6405c0.03095,0.08488 0.06189,0.16977 0.09376,0.25724c0.2998,0.85206 0.46595,1.70695 0.61847,2.59537c0.12878,0.69556 0.32288,1.29101 0.63628,1.92628c0.13621,0.31538 0.15346,0.5765 0.1096,0.91597c0.08749,0 0.17497,0 0.26512,0c0,0.21853 0,0.43705 0,0.6622c-0.24373,-0.14784 -0.48658,-0.2971 -0.72906,-0.44699c-0.13533,-0.08296 -0.27066,-0.16594 -0.4101,-0.25142c-0.15788,-0.11319 -0.15788,-0.11319 -0.31895,-0.22867c0,-0.0874 0,-0.17482 0,-0.26488c-0.15071,0.02083 -0.30142,0.04165 -0.45669,0.06312c-0.69809,0.04178 -1.31113,0.02746 -1.9293,-0.328c-0.85233,-0.98523 -1.34627,-2.25743 -1.85579,-3.4434c-0.09893,-0.22397 -0.19814,-0.44781 -0.29773,-0.67151c-0.03853,-0.08794 -0.07704,-0.17588 -0.11673,-0.2665c-0.16591,-0.36394 -0.34933,-0.71802 -0.53569,-1.07185c-0.20816,-0.45598 -0.26348,-0.87705 -0.2677,-1.37561c-0.00188,-0.10122 -0.00375,-0.20246 -0.00569,-0.30677c0.03055,-0.28091 0.03055,-0.28092 0.29566,-0.67824c0.95587,-0.31833 1.65438,-0.16222 2.53512,0.27317z" fill="#5c9f0c" stroke-width="1"/><path d="M228.89607,174.83373c1.21695,0.84816 2.59062,2.24374 3.03065,3.68604c0.0525,0.66949 -0.13156,1.03819 -0.5618,1.54529c-0.15712,0.15762 -0.31691,0.31265 -0.48051,0.46355c-0.28676,0.23519 -0.28675,0.23519 -0.30964,0.53181c-0.08803,0.26281 -0.08803,0.26282 -0.35831,0.40146c-0.8199,0.22274 -1.54924,0.40318 -2.38083,0.12624c-0.18006,-0.21805 -0.3569,-0.43876 -0.53023,-0.6622c-0.08749,-0.0437 -0.17496,-0.0874 -0.26511,-0.13245c-0.09181,-0.26205 -0.18356,-0.52414 -0.27495,-0.78634c-0.17767,-0.39546 -0.47379,-0.64029 -0.78549,-0.93535c-0.33883,-0.98634 -0.16954,-1.99504 0.26511,-2.91365c0.08749,-0.0437 0.17496,-0.08742 0.26511,-0.13245c0.05742,-0.15159 0.05742,-0.15159 0.11598,-0.30626c0.16781,-0.40055 0.34979,-0.60629 0.67935,-0.88568c0.57715,-0.19221 1.02266,-0.19946 1.59067,0z" fill="#825e28" stroke-width="1"/><path d="M226.11241,159.73571c0.04373,0 0.08749,0 0.13255,0c0.04495,2.06576 -0.00016,4.0656 -0.29204,6.11185c-0.1322,0.92865 -0.20923,1.86044 -0.28499,2.79509c-0.00949,0.11714 -0.01901,0.23428 -0.02879,0.35498c-0.00911,0.11276 -0.01822,0.22551 -0.02761,0.34168c-0.02856,0.32034 -0.06433,0.63906 -0.10237,0.95841c-0.0551,0.47938 -0.07338,0.94894 -0.06782,1.43199c0.00119,0.13675 0.0024,0.2735 0.00361,0.41438c0.00154,0.10091 0.00308,0.2018 0.00467,0.30576c-0.08679,-0.00802 -0.17362,-0.01606 -0.26305,-0.02433c-0.92819,-0.08515 -1.85677,-0.16443 -2.78574,-0.24055c-0.22406,-1.28719 -0.13694,-2.44685 0.15741,-3.71657c0.03019,-0.13312 0.06039,-0.26624 0.09149,-0.4034c0.65205,-2.82148 1.52723,-6.09495 3.46266,-8.32928z" fill="#538e04" stroke-width="1"/><path d="M250.76776,157.61668c0.11826,0.3896 0.13674,0.67504 0.0725,1.07606c-0.01634,0.10379 -0.03269,0.20755 -0.04952,0.31449c-0.01851,0.10928 -0.03703,0.21856 -0.05612,0.33116c-0.02752,0.16827 -0.02753,0.16828 -0.05559,0.33995c-0.12806,0.7597 -0.28619,1.5059 -0.4881,2.24984c-0.08675,0.32682 -0.15537,0.65395 -0.21851,0.98604c-0.17497,-0.0874 -0.34994,-0.17482 -0.53022,-0.26487c0.01677,-0.08147 0.03352,-0.16295 0.05078,-0.24689c0.07539,-0.36998 0.14903,-0.74028 0.22263,-1.1106c0.03959,-0.19232 0.0396,-0.19232 0.08,-0.38853c0.02434,-0.12376 0.04869,-0.24755 0.07377,-0.37506c0.02292,-0.11375 0.04581,-0.2275 0.06941,-0.34468c0.03437,-0.32235 0.00062,-0.53914 -0.09892,-0.8452c-0.56562,0.5337 -1.02589,1.11662 -1.49125,1.73825c-0.49982,0.66118 -1.00264,1.31616 -1.53267,1.95347c-1.22323,1.48484 -2.23209,3.05406 -3.07364,4.78435c-0.04373,0 -0.08749,0 -0.13255,0c0,-1.18004 0,-2.36006 0,-3.57585c-0.13123,0 -0.26245,0 -0.39768,0c-0.0152,0.16715 -0.03041,0.33427 -0.04608,0.50648c-0.0802,0.72043 -0.24061,1.41341 -0.40957,2.11746c-0.23903,1.02002 -0.45794,2.03302 -0.60479,3.07092c-0.34994,0 -0.69989,0 -1.06044,0c0.04486,-1.81331 0.53986,-3.73134 1.45812,-5.29755c0.05622,-0.10722 0.11242,-0.21443 0.17035,-0.32489c0.29245,-0.55403 0.57845,-0.953 1.02265,-1.39682c0.10564,-0.34987 0.10564,-0.34987 0.13255,-0.66218c0.62964,-0.13244 0.62964,-0.13245 0.92789,-0.13245c0.52542,-0.4083 0.99266,-0.84851 1.45811,-1.32439c0.19866,-0.19884 0.3975,-0.39747 0.59651,-0.59596c0.09705,-0.09698 0.19411,-0.19396 0.2941,-0.29386c0.09979,-0.0997 0.19959,-0.1994 0.3024,-0.30212c0.10474,-0.10858 0.20949,-0.21717 0.31741,-0.32904c0.36864,-0.3556 0.75386,-0.6577 1.16556,-0.96225c0.13856,-0.1031 0.27714,-0.20623 0.41992,-0.31247c0.51634,-0.36881 0.77919,-0.39655 1.411,-0.38282z" fill="#599515" stroke-width="1"/><path d="M226.64263,159.47083c0.04375,0 0.08749,0 0.13256,0c0.00657,0.53242 0.01137,1.06484 0.01456,1.59729c0.00133,0.18085 0.00314,0.36171 0.00543,0.54255c0.00323,0.26103 0.00458,0.52208 0.00589,0.78313c0.00139,0.15674 0.00279,0.31348 0.00421,0.47498c-0.03102,0.4563 -0.14032,0.80933 -0.29521,1.23741c-0.03244,0.33958 -0.05469,0.66978 -0.06627,1.00984c-0.04167,0.89691 -0.10974,1.7884 -0.19884,2.68188c-0.01101,0.11415 -0.02203,0.2283 -0.0334,0.34591c-0.01085,0.10675 -0.0217,0.21353 -0.03288,0.32352c-0.00955,0.09456 -0.01914,0.18912 -0.02899,0.28654c-0.03728,0.25252 -0.03727,0.25251 -0.16983,0.64984c-0.00902,0.22885 -0.01128,0.45803 -0.00829,0.68703c0.00119,0.11934 0.0024,0.23868 0.00361,0.36162c0.00154,0.09099 0.00308,0.18199 0.00467,0.27574c0.07611,-0.16901 0.07611,-0.169 0.15377,-0.34144c0.27278,-0.50688 0.59114,-0.91253 0.96466,-1.34716c0.0633,-0.07631 0.12662,-0.15262 0.19183,-0.23125c0.32459,-0.38167 0.59907,-0.68574 1.07573,-0.86137c0,-0.0874 0,-0.17481 0,-0.26487c0.22711,-0.20996 0.46354,-0.40996 0.70419,-0.60426c0.13071,-0.10671 0.26144,-0.21339 0.39612,-0.32333c0.35779,-0.26436 0.35779,-0.26436 0.75546,-0.39681c0,-0.0874 0,-0.1748 0,-0.26486c0.17497,0 0.34994,0 0.53023,0c-0.22724,2.34606 -0.22723,2.34605 -0.53023,2.64877c-0.03607,0.1871 -0.06499,0.3756 -0.09062,0.56441c-0.0163,0.1155 -0.03262,0.23098 -0.04944,0.34999c-0.03331,0.24312 -0.06644,0.48627 -0.09943,0.72943c-0.08885,0.62694 -0.19515,1.20456 -0.42329,1.79958c-1.38135,0.20311 -2.71219,0.30098 -4.10922,0.26488c-0.41329,-0.82585 -0.09195,-2.01806 0.01958,-2.90232c0.11535,-0.9227 0.19803,-1.84712 0.27832,-2.77345c0.06392,-0.72413 0.14449,-1.44243 0.2406,-2.16295c0.20421,-1.57068 0.21379,-3.1615 0.25683,-4.74296c0.08749,0.0437 0.17496,0.0874 0.26511,0.13243c0.04375,-0.17482 0.08749,-0.34964 0.13255,-0.52976z" fill="#3e7704" stroke-width="1"/><path d="M218.68929,162.91423c0.08749,0 0.17497,0 0.26512,0c0.46591,0.93483 0.79191,1.85923 1.06457,2.86657c0.14543,0.50326 0.3333,0.97563 0.5349,1.45839c0.21267,0.53344 0.36529,1.08266 0.52141,1.63479c0.04546,0.15895 0.09091,0.31788 0.13774,0.48164c0.09288,0.32479 0.18541,0.64968 0.27754,0.97467c0.07704,0.26668 0.15966,0.53182 0.2475,0.79516c0.00902,0.22884 0.01126,0.45802 0.00829,0.68703c-0.00119,0.11933 -0.0024,0.23866 -0.00362,0.36162c-0.00154,0.09099 -0.00308,0.18199 -0.00467,0.27574c-0.09619,0.03107 -0.19241,0.06213 -0.29152,0.09414c-0.43328,0.19925 -0.68037,0.44004 -1.00919,0.78327c-0.10474,0.10823 -0.20949,0.21647 -0.3174,0.32799c-0.07843,0.08296 -0.15686,0.16593 -0.23767,0.25142c-0.08749,-0.0437 -0.17498,-0.0874 -0.26513,-0.13243c-0.81761,-2.79784 -0.74295,-5.88997 -0.87921,-8.77666c-0.00494,-0.10269 -0.00992,-0.20538 -0.01501,-0.31119c-0.02707,-0.59146 -0.03825,-1.18007 -0.03366,-1.77214z" fill="#558f05" stroke-width="1"/><path d="M261.76988,166.2252c0.15788,0.47323 0.10062,0.55786 -0.09113,1.00157c-0.04954,0.11711 -0.09912,0.23423 -0.15016,0.35489c-0.0516,0.12053 -0.10321,0.24106 -0.15637,0.36524c-0.09173,0.22879 -0.1829,0.45777 -0.27341,0.68704c-0.2101,0.52519 -0.42877,1.04575 -0.65449,1.56443c-0.08748,0 -0.17496,0 -0.26511,0c-0.02461,0.11473 -0.04921,0.22946 -0.07455,0.34765c-0.25229,0.59178 -0.61075,0.86435 -1.11844,1.24161c-0.07382,0.05685 -0.14764,0.11371 -0.22369,0.17227c-0.20712,0.15055 -0.20712,0.15055 -0.57164,0.35748c-0.13124,-0.0437 -0.26246,-0.0874 -0.39767,-0.13243c-0.15948,-0.33731 -0.15948,-0.33731 -0.29825,-0.76152c-0.04717,-0.13864 -0.09432,-0.27726 -0.14292,-0.42009c-0.09273,-0.42449 -0.0968,-0.66137 0.0435,-1.06985c0.18426,-0.1622 0.37019,-0.3231 0.56594,-0.47129c0.25696,-0.21384 0.45551,-0.44669 0.66848,-0.70411c0.49106,-0.57605 1.04665,-1.05978 1.68179,-1.47337c0.08749,0 0.17497,0 0.26512,0c0,-0.08742 0,-0.17482 0,-0.26488c0.68827,-0.62654 0.68826,-0.62654 1.19299,-0.79463z" fill="#6ba822" stroke-width="1"/><path d="M235.25875,168.74154c0.02486,0.31455 0.02486,0.31455 0,0.66219c-0.13123,0.08742 -0.26245,0.17482 -0.39766,0.26488c-0.14651,0.31106 -0.14651,0.31106 -0.26511,0.6622c-0.37276,0.88013 -0.75693,1.60285 -1.59069,2.11902c-0.08748,0 -0.17495,0 -0.2651,0c-0.13123,0.32779 -0.13123,0.32779 -0.26511,0.66218c-0.26246,-0.0874 -0.52491,-0.17482 -0.79533,-0.26488c0,-0.0874 0,-0.17481 0,-0.26487c-0.26322,0.00432 -0.52643,0.00862 -0.78965,0.01294c-0.27081,-0.01294 -0.27081,-0.01294 -0.66847,-0.14537c0.52793,-1.1103 1.37276,-1.70822 2.36995,-2.3689c0.46015,-0.31129 0.90505,-0.62464 1.28361,-1.03313c0.39682,-0.362 0.87061,-0.32049 1.38354,-0.30626z" fill="#417905" stroke-width="1"/><path d="M229.82396,168.07935c-0.06426,1.39676 -0.26613,2.7349 -0.53021,4.10561c-1.15848,0.19176 -2.2719,0.30356 -3.44646,0.26488c0.15819,-1.25328 1.38475,-2.20823 2.25345,-3.0461c0.11209,-0.11744 0.2242,-0.23491 0.33967,-0.35593c1.02172,-0.96846 1.02172,-0.96846 1.38354,-0.96846z" fill="#558f05" stroke-width="1"/><path d="M246.15213,170.42134c0.73334,0.52985 0.99068,1.25414 1.21216,2.10402c0.08275,0.3261 0.08275,0.3261 0.22731,0.63788c0.15257,0.41455 0.18057,0.79216 0.21852,1.23178c0.12761,0.97309 0.47517,1.55513 1.10186,2.29284c0.10662,0.13658 0.21324,0.27315 0.32311,0.41386c0.06834,0.08195 0.13669,0.1639 0.20711,0.24832c-1.44457,-0.69576 -1.44457,-0.69575 -1.71804,-1.37663c-0.06363,-0.29253 -0.11122,-0.57678 -0.13774,-0.87482c-0.08749,0 -0.17497,0 -0.26511,0c-0.2178,-0.83009 -0.3754,-1.65734 -0.51106,-2.50418c-0.08675,-0.51673 -0.17124,-0.99986 -0.41682,-1.46898c-0.99635,-0.68918 -1.79633,-0.68923 -2.95766,-0.48009c-1.15477,0.19983 -2.26691,0.3506 -3.44127,0.36627c-0.08676,0.00128 -0.17354,0.00257 -0.26294,0.00388c-0.72972,0.01059 -0.72972,0.01059 -1.08203,0.01066c-2.01903,0.0034 -3.52708,0.68144 -4.98146,2.08585c-0.30357,0.45495 -0.28875,0.66026 -0.2651,1.19196c0.08749,0 0.17497,0 0.2651,0c0.18418,0.25978 0.36136,0.52467 0.53023,0.79463c-0.04373,0.0874 -0.08749,0.17482 -0.13255,0.26488c-0.20081,-0.20502 -0.39919,-0.41241 -0.5965,-0.6208c-0.11074,-0.11523 -0.22146,-0.23048 -0.33554,-0.34921c-0.26097,-0.35437 -0.26098,-0.35437 -0.33449,-0.67719c0.19279,-0.88988 1.04329,-1.73197 1.78239,-2.23007c1.59775,-0.89121 3.07144,-1.03467 4.8692,-0.99813c0.46292,0.00467 0.92578,0.00618 1.38873,0.00571c0.11156,0.00018 0.22311,0.00036 0.33805,0.00058c0.90407,-0.0081 1.74258,-0.14107 2.62238,-0.3424c0.85487,-0.15564 1.58316,-0.16298 2.35214,0.26938z" fill="#aa813f" stroke-width="1"/><path d="M236.18665,170.46324c-0.0793,0.03551 -0.15858,0.07103 -0.24026,0.10761c-0.29561,0.1402 -0.29561,0.1402 -0.4888,0.37248c-0.19884,0.18212 -0.19884,0.18212 -0.72905,0.18212c-0.04375,0.13112 -0.08749,0.26222 -0.13255,0.3973c-0.17622,0.08934 -0.35304,0.17748 -0.53023,0.26488c-0.24627,0.25214 -0.24628,0.25214 -0.47223,0.53804c-0.41196,0.50691 -0.41196,0.50691 -0.85333,0.65391c-0.06562,0.19667 -0.06562,0.19666 -0.13256,0.39731c-0.74562,0.03311 -0.74562,0.03312 -1.19301,-0.26488c-1.25965,-0.20793 -2.5556,-0.17778 -3.82986,-0.20558c-0.3044,-0.0068 -0.60877,-0.01439 -0.91314,-0.02205c-0.14123,-0.00268 -0.14123,-0.00269 -0.28533,-0.00545c-0.65659,-0.01683 -0.65658,-0.01683 -0.80412,-0.16423c-0.24237,-0.0283 -0.48564,-0.04902 -0.72905,-0.06622c-0.49893,-0.03722 -0.99475,-0.07915 -1.49126,-0.14072c-0.54447,-0.06365 -1.07593,-0.06788 -1.62381,-0.05793c0.46611,-0.28809 0.8417,-0.2966 1.38354,-0.28972c0.14746,0.00086 0.29494,0.00171 0.44687,0.0026c0.42303,0.02225 0.42303,0.02224 0.7408,0.08876c0.33784,0.06455 0.64264,0.08303 0.98604,0.08351c0.11928,0.00017 0.23855,0.00034 0.36144,0.00052c0.12302,-0.00052 0.24604,-0.00102 0.3728,-0.00155c0.18302,0.00078 0.18302,0.00077 0.36971,0.00155c0.66932,-0.00096 1.30444,-0.04155 1.9666,-0.15054c1.13774,-0.07218 2.20504,0.16895 3.31389,0.39731c0,0.08742 0,0.17482 0,0.26487c0.26245,0.08742 0.52491,0.17482 0.79533,0.26488c0.02973,-0.09714 0.05947,-0.19428 0.09009,-0.29436c0.21469,-0.45121 0.4616,-0.64891 0.85437,-0.95553c0.1302,-0.10226 0.2604,-0.20451 0.39456,-0.30987c0.19017,-0.14572 0.19018,-0.14572 0.38421,-0.29437c0.10492,-0.08213 0.20983,-0.16423 0.31793,-0.24884c0.98424,-0.75855 0.98424,-0.75855 1.67041,-0.54579z" fill="#716b1d" stroke-width="1"/><path d="M210.20572,175.0986c0.38678,0.03073 0.77337,0.06259 1.15986,0.09674c0.25926,0.02148 0.51886,0.03949 0.77876,0.05071c0.51819,0.03061 0.78114,0.07099 1.20958,0.3823c0.62636,0.83439 1.02122,1.62507 1.22613,2.64878c-0.17497,-0.0437 -0.34994,-0.0874 -0.53023,-0.13245c0,-0.0874 0,-0.17481 0,-0.26486c-0.13123,0 -0.26245,0 -0.39766,0c0,-0.08742 0,-0.17483 0,-0.26489c-0.07176,-0.03413 -0.14353,-0.06829 -0.21749,-0.10345c-0.37039,-0.19118 -0.72129,-0.40436 -1.07493,-0.62495c-0.13055,-0.08058 -0.2611,-0.16116 -0.3956,-0.24419c-0.09911,-0.07239 -0.19821,-0.14477 -0.30032,-0.21934c0,-0.08742 0,-0.17482 0,-0.26488c-0.06834,-0.01092 -0.13669,-0.02185 -0.20711,-0.03311c-0.46158,-0.14189 -0.83637,-0.38211 -1.251,-0.62909c0,-0.1311 0,-0.26223 0,-0.39731z" fill="#66ad12" stroke-width="1"/><path d="M248.51432,161.72229c0.13255,0.39731 0.13255,0.39731 -0.06783,0.85774c-0.09492,0.18376 -0.19113,0.36689 -0.28842,0.54943c-0.09976,0.19304 -0.19934,0.38618 -0.29877,0.5794c-0.04785,0.09236 -0.09572,0.18473 -0.14503,0.27988c-0.2412,0.47146 -0.4504,0.955 -0.65807,1.44183c-0.06714,0.15347 -0.1343,0.30696 -0.2035,0.46508c-0.07306,0.16777 -0.14605,0.33558 -0.21902,0.50338c-0.06749,0.15518 -0.13497,0.31036 -0.20452,0.47026c-0.13066,0.32255 -0.21908,0.61044 -0.30085,0.94517c-0.10664,0.27468 -0.21744,0.54774 -0.33139,0.81947c-0.05877,0.14117 -0.11755,0.28237 -0.17811,0.42783c-0.15328,0.34197 -0.15328,0.34196 -0.28583,0.47439c-0.26506,0.00542 -0.53029,0.00565 -0.79533,0c0.49591,-1.36606 1.10936,-2.67354 1.73979,-3.98143c0.04071,-0.08495 0.08142,-0.1699 0.12337,-0.25741c0.11868,-0.2472 0.23826,-0.49395 0.35818,-0.74053c0.0699,-0.1441 0.13982,-0.28821 0.21184,-0.43668c0.22415,-0.42296 0.47726,-0.81152 0.74815,-1.20588c0.09604,-0.16431 0.19045,-0.32962 0.28168,-0.49665c0.24855,-0.43042 0.24856,-0.43042 0.51366,-0.6953z" fill="#5d9a18" stroke-width="1"/><path d="M258.05832,178.14468c0,0.04372 0,0.08742 0,0.13245c-0.15584,0.03551 -0.31166,0.07101 -0.47223,0.1076c-0.38002,0.09325 -0.72235,0.20779 -1.07701,0.37248c-0.41519,0.17219 -0.66076,0.22217 -1.10187,0.18212c0,0.0874 0,0.17481 0,0.26487c-0.92111,0.43683 -1.76798,0.61451 -2.78315,0.70358c-0.40761,0.05521 -0.4076,0.0552 -0.64154,0.34196c-0.49138,0.88797 -0.56159,1.82463 -0.28687,2.79518c-0.13123,-0.0437 -0.26245,-0.0874 -0.39766,-0.13243c0,0.0874 0,0.17482 0,0.26488c-2.1653,0.06555 -2.1653,0.06555 -4.37435,0.13243c0,-0.0437 0,-0.0874 0,-0.13243c1.34155,-0.21294 2.61875,-0.29953 3.97667,-0.26488c-0.00152,-0.10858 -0.00307,-0.21717 -0.00466,-0.32903c-0.0012,-0.14273 -0.00239,-0.28546 -0.00363,-0.4325c-0.00152,-0.14137 -0.00307,-0.28271 -0.00466,-0.42836c0.01094,-0.33763 0.04658,-0.60855 0.14549,-0.92915c0.08749,0 0.17498,0 0.26513,0c0.01094,-0.0956 0.02186,-0.19119 0.03314,-0.2897c0.12757,-0.47796 0.26888,-0.69227 0.62964,-1.03467c0.58955,-0.28152 1.08502,-0.47647 1.72322,-0.26489c-0.13123,0.04372 -0.26246,0.08741 -0.39767,0.13244c0.81819,0.06811 1.28008,-0.1416 1.98835,-0.52975c0.93759,-0.42729 1.74374,-0.70461 2.78366,-0.6622z" fill="#9d7536" stroke-width="1"/><path d="M226.64263,159.47083c0.04375,0 0.08749,0 0.13256,0c0.00657,0.53242 0.01137,1.06484 0.01456,1.59729c0.00133,0.18085 0.00314,0.36171 0.00543,0.54255c0.00323,0.26103 0.00458,0.52208 0.00589,0.78313c0.00139,0.15674 0.00279,0.31348 0.00421,0.47498c-0.03102,0.4563 -0.14032,0.80933 -0.29521,1.23741c-0.03244,0.33957 -0.05466,0.66978 -0.06627,1.00984c-0.04254,0.89625 -0.10603,1.78857 -0.19055,2.68188c-0.00991,0.11415 -0.01982,0.2283 -0.03003,0.34591c-0.01042,0.10675 -0.02085,0.21353 -0.03159,0.32352c-0.00886,0.09456 -0.01776,0.18912 -0.0269,0.28654c-0.05232,0.25252 -0.05233,0.25251 -0.31745,0.64984c-0.26511,-0.26488 -0.26511,-0.26488 -0.27598,-0.72944c0.01014,-0.20394 0.02222,-0.40776 0.03574,-0.61149c0.00648,-0.1114 0.01298,-0.2228 0.01967,-0.33757c0.06659,-1.01336 0.20335,-2.0143 0.34071,-3.02002c0.20764,-1.60591 0.24343,-3.21963 0.27755,-4.83705c0.08749,0.0437 0.17496,0.0874 0.26511,0.13243c0.04375,-0.17482 0.08749,-0.34964 0.13255,-0.52976z" fill="#447d07" stroke-width="1"/><path d="M259.39216,178.11159c0.17487,0.0523 0.34894,0.10735 0.52195,0.16554c0.13123,0.0437 0.26245,0.0874 0.39766,0.13245c0,0.0874 0,0.17481 0,0.26486c0.10116,0.01914 0.20231,0.03825 0.30653,0.05795c0.35625,0.0745 0.35625,0.07449 0.75392,0.20694c0.18376,0.01626 0.36811,0.02654 0.55248,0.0326c0.16134,0.00651 0.16134,0.00651 0.32595,0.01318c0.22368,0.00801 0.44735,0.01562 0.67106,0.02277c0.7122,0.02972 1.34348,0.1335 2.0295,0.32876c0.0164,0.09833 0.03282,0.19667 0.04971,0.29799c0.07686,0.3379 0.18054,0.59289 0.34796,0.89396c-0.2287,-0.13365 -0.45739,-0.2673 -0.68608,-0.40094c-0.42368,-0.22571 -0.76509,-0.27614 -1.23598,-0.27522c-1.41206,-0.01727 -2.46178,-0.06661 -3.64528,-0.9131c-0.49343,-0.26475 -0.90306,-0.44821 -1.45812,-0.52975c0.36075,-0.39047 0.57451,-0.42349 1.06872,-0.29799z" fill="#8d6b2d" stroke-width="1"/><path d="M250.76776,172.58226c1.09511,0.05471 1.79022,0.8499 2.51855,1.58926c0.14711,0.14723 0.29434,0.29432 0.44168,0.4413c0.42719,0.42681 0.85437,0.85361 1.28154,1.28041c0.04375,-0.21852 0.08749,-0.43705 0.13257,-0.6622c0.04373,0 0.08748,0 0.13256,0c0,0.30594 0,0.61187 0,0.92708c-0.08749,0 -0.17498,0 -0.26513,0c0.067,0.11165 0.13397,0.2233 0.20299,0.33833c0.12917,0.21767 0.12917,0.21767 0.26097,0.43975c0.12917,0.21665 0.12917,0.21664 0.26095,0.43766c0.20299,0.37352 0.20299,0.37352 0.20299,0.6384c0.13123,0.06555 0.13123,0.06555 0.2651,0.13243c-0.3143,-0.0274 -0.3143,-0.0274 -0.66278,-0.13243c-0.16207,-0.2747 -0.16206,-0.2747 -0.27339,-0.6208c-0.31917,-0.8942 -0.69754,-1.44338 -1.44983,-2.02797c0,-0.08742 0,-0.17482 0,-0.26488c-0.08749,0 -0.17497,0 -0.26511,0c0,-0.08742 0,-0.17482 0,-0.26487c-0.11534,-0.02484 -0.11534,-0.02484 -0.23301,-0.05018c-0.29842,-0.08258 -0.5381,-0.19384 -0.81087,-0.33886c-0.3425,-0.17971 -0.60455,-0.28731 -0.98589,-0.38076c-0.35623,-0.15727 -0.35623,-0.15727 -0.60478,-0.61253c-0.14912,-0.4718 -0.14912,-0.4718 -0.14912,-0.86912z" fill="#437608" stroke-width="1"/><path d="M212.9894,174.30397c1.1313,-0.02175 1.82563,0.60503 2.65111,1.32439c0.29085,0.29784 0.53947,0.59742 0.79533,0.92707c0.08749,0.08742 0.17498,0.17482 0.26513,0.26487c-0.25367,0.19368 -0.5078,0.38672 -0.7622,0.57943c-0.07143,0.05464 -0.14285,0.10926 -0.21644,0.16555c-0.36673,0.27704 -0.72086,0.52587 -1.14226,0.71186c0,-0.0874 0,-0.17482 0,-0.26488c0.5926,-0.52976 0.5926,-0.52975 0.92789,-0.52975c-0.35585,-0.66746 -0.74022,-1.20653 -1.25928,-1.75481c-0.06271,-0.0683 -0.12541,-0.13658 -0.19003,-0.20694c-0.26864,-0.2885 -0.53224,-0.54958 -0.8497,-0.78429c-0.07244,-0.05532 -0.1449,-0.11063 -0.21955,-0.16762c0,-0.08742 0,-0.17482 0,-0.26488z" fill="#518704" stroke-width="1"/><path d="M233.9332,170.19837c-0.13124,0.43704 -0.26247,0.8741 -0.39768,1.32438c-0.08749,0 -0.17495,0 -0.2651,0c-0.03282,0.09013 -0.06561,0.18029 -0.09943,0.27317c-0.19776,0.46434 -0.43986,0.88121 -0.69591,1.3161c-0.26246,-0.0874 -0.52491,-0.17482 -0.79533,-0.26488c0,-0.0874 0,-0.17481 0,-0.26487c-0.26246,-0.0437 -0.52492,-0.0874 -0.79534,-0.13243c0.44348,-0.77437 1.00791,-1.24864 1.74808,-1.72171c0.08195,-0.05266 0.16392,-0.10532 0.24836,-0.15956c0.37792,-0.23308 0.60036,-0.37019 1.05235,-0.37019z" fill="#538d04" stroke-width="1"/><path d="M247.0562,169.80106c0.06562,0.19666 0.06561,0.19666 0.13256,0.39731c-0.1297,-0.02868 -0.25938,-0.05736 -0.39302,-0.08692c-1.3383,-0.28767 -2.38819,-0.44125 -3.71622,-0.04551c-1.42154,0.23836 -2.90813,0.17482 -4.34525,0.19557c-0.35095,0.00531 -0.70184,0.01211 -1.05276,0.01912c-0.15849,0.00167 -0.15849,0.00166 -0.32019,0.00337c-0.99506,0.02155 -1.95166,0.12591 -2.77364,0.72555c-0.09998,0.07137 -0.19992,0.14274 -0.30292,0.21625c-0.10842,0.08143 -0.10841,0.08143 -0.21902,0.16452c0.04373,-0.13112 0.08749,-0.26224 0.13255,-0.39732c0.08749,0 0.17497,0 0.26511,0c0,-0.13112 0,-0.26222 0,-0.39731c0.2091,-0.08473 0.41921,-0.16697 0.62964,-0.24834c0.17532,-0.06914 0.17532,-0.06914 0.35417,-0.13968c1.62473,-0.48557 3.20673,-0.41534 4.88179,-0.35696c0.25458,0.00774 0.50915,0.01532 0.76375,0.02276c0.61813,0.01839 1.23618,0.03867 1.85422,0.06001c0,-0.08742 0,-0.17482 0,-0.26488c1.13128,-0.37676 3.06322,-0.52326 4.10922,0.13245z" fill="#737f23" stroke-width="1"/><path d="M255.00953,167.68203c0.08749,0.0437 0.17498,0.0874 0.26513,0.13243c0.00386,0.55734 0.00621,1.11468 0.00829,1.67204c0.00111,0.15758 0.00221,0.31516 0.00335,0.47751c0.00043,0.15278 0.00087,0.30559 0.0013,0.46301c0.0007,0.14009 0.00139,0.2802 0.00211,0.42453c-0.01522,0.41077 -0.07114,0.79747 -0.1476,1.20094c-0.04375,0 -0.08749,0 -0.13257,0c-0.04373,-0.21852 -0.08748,-0.43704 -0.13255,-0.66219c-0.08611,0.1311 -0.08611,0.1311 -0.17398,0.26488c-0.0738,0.0874 -0.14763,0.17482 -0.22368,0.26488c-0.13123,0 -0.26246,0 -0.39767,0c-0.06212,-1.55832 0.13853,-2.87743 0.92789,-4.23804z" fill="#5a9716" stroke-width="1"/><path d="M213.65217,180.52859c-0.0558,0.36235 -0.09743,0.60784 -0.26511,0.92707c-0.32695,0.23791 -0.68725,0.37777 -1.06045,0.52975c-0.81098,0.3603 -1.17792,0.8063 -1.59067,1.58926c-0.19403,-0.58159 -0.08285,-1.02235 0.13256,-1.58926c0.69264,-1.08 1.48474,-1.53629 2.78367,-1.45682z" fill="#68ae12" stroke-width="1"/><path d="M239.76564,172.58226c0.83971,0.39598 1.29773,0.97203 1.6119,1.82984c0.10851,0.28184 0.24037,0.49583 0.40958,0.74444c0.36127,0.73478 0.34761,1.43516 0.09942,2.21007c-0.04375,0.08195 -0.08749,0.1639 -0.13255,0.24832c-0.15418,-0.4701 -0.12245,-0.86856 -0.07457,-1.35748c0.01349,-0.14273 0.02699,-0.28546 0.0409,-0.4325c0.0111,-0.10858 0.02222,-0.21717 0.03367,-0.32904c-0.08749,0 -0.17498,0 -0.26513,0c-0.0704,-0.13725 -0.14079,-0.27452 -0.21333,-0.41594c-0.09453,-0.18144 -0.18912,-0.36286 -0.28376,-0.54424c-0.04613,-0.09031 -0.09225,-0.18063 -0.1398,-0.27368c-0.26053,-0.49649 -0.49556,-0.94104 -0.95378,-1.28247c-0.6698,-0.15787 -1.3251,-0.13678 -1.94121,0.18054c-0.58912,0.44023 -1.00484,0.90902 -1.37268,1.54116c-0.08749,0.08742 -0.17497,0.17482 -0.26511,0.26488c-0.13766,0.3068 -0.27072,0.61572 -0.39767,0.92708c-0.08749,0 -0.17496,0 -0.26511,0c-0.04375,0.21852 -0.08749,0.43704 -0.13255,0.66219c-0.17497,0.04372 -0.34996,0.08741 -0.53023,0.13244c-0.26245,-0.34964 -0.52491,-0.69928 -0.79533,-1.05951c0.04373,-0.08742 0.08749,-0.17482 0.13255,-0.26488c0.15967,0.20262 0.31931,0.40524 0.47896,0.60787c0.19136,0.22274 0.19136,0.22274 0.5815,0.3192c0.03008,-0.0874 0.06014,-0.17482 0.09113,-0.26488c0.79504,-1.81565 2.10838,-3.78848 4.2832,-3.4434z" fill="#b38744" stroke-width="1"/><path d="M242.15164,170.72812c0,0.0437 0,0.08742 0,0.13245c-0.72246,0.09879 -1.42772,0.14245 -2.15713,0.15106c-0.17675,0.00258 -0.35346,0.00516 -0.53023,0.00776c-0.2716,0.00383 -0.5431,0.00673 -0.81475,0.00679c-2.01903,0.0034 -3.52708,0.68144 -4.98146,2.08585c-0.30357,0.45495 -0.28875,0.66026 -0.2651,1.19196c0.08749,0 0.17497,0 0.2651,0c0.18418,0.25978 0.36136,0.52467 0.53023,0.79463c-0.04373,0.0874 -0.08749,0.17482 -0.13255,0.26488c-0.20081,-0.20502 -0.39919,-0.41241 -0.5965,-0.6208c-0.11074,-0.11523 -0.22146,-0.23048 -0.33554,-0.34921c-0.26097,-0.35437 -0.26097,-0.35438 -0.34174,-0.67409c0.12072,-0.51184 0.43523,-0.84491 0.77669,-1.22816c0.0651,-0.07691 0.1302,-0.15382 0.19728,-0.23306c0.4868,-0.56096 0.88567,-0.83819 1.61708,-1.00027c0.2989,-0.0665 0.55442,-0.13962 0.83446,-0.2661c0.42061,-0.15045 0.76566,-0.17338 1.21186,-0.18605c0.16353,-0.00513 0.32704,-0.01025 0.49553,-0.01552c0.25502,-0.00615 0.25502,-0.00615 0.5152,-0.01242c0.16592,-0.00511 0.33185,-0.01023 0.50279,-0.01551c1.06978,-0.031 2.13858,-0.04023 3.20877,-0.03415z" fill="#c6984f" stroke-width="1"/><path d="M258.19088,166.49008c0.08387,1.1987 0.08387,1.1987 -0.23197,1.67204c-0.14765,0.15569 -0.14764,0.15569 -0.29825,0.31453c-0.19286,0.34568 -0.36281,0.70096 -0.53023,1.05951c-0.08749,0 -0.17496,0 -0.26511,0c-0.25863,-0.26834 -0.38551,-0.45385 -0.44479,-0.82412c0.06554,-0.51157 0.32332,-0.85447 0.61878,-1.26179c0.05358,-0.07802 0.10713,-0.15604 0.16233,-0.23642c0.51207,-0.72376 0.51207,-0.72376 0.98925,-0.72376z" fill="#68a621" stroke-width="1"/><path d="M214.71262,183.972c0.13123,0.06555 0.13123,0.06555 0.26512,0.13243c0.20952,0.01437 0.41962,0.02071 0.62964,0.023c0.13105,0.00178 0.2621,0.00357 0.39711,0.00542c0.14235,0.00137 0.2847,0.00276 0.43135,0.00418c0.30118,0.00437 0.60239,0.00876 0.90357,0.0132c0.47496,0.00626 0.94993,0.01212 1.42491,0.01736c0.45828,0.00529 0.91653,0.01212 1.3748,0.01911c0.1402,0.00112 0.28041,0.00223 0.42485,0.00338c0.76621,0.01258 1.47886,0.08139 2.22658,0.25207c1.509,0.32941 3.28691,-0.08138 4.77998,-0.33771c-0.43392,0.43354 -1.03357,0.51393 -1.63106,0.54631c-0.25172,0 -0.5034,-0.00759 -0.75494,-0.01655c0,0.08742 0,0.17482 0,0.26488c-0.40599,0.00717 -0.81185,0.01242 -1.21787,0.01655c-0.11456,0.00223 -0.22914,0.00444 -0.34718,0.00673c-0.61113,0.00468 -1.05471,-0.0265 -1.6163,-0.28816c-0.74885,-0.16688 -1.50132,-0.16183 -2.26484,-0.17435c-0.14009,-0.00275 -0.28021,-0.00549 -0.42454,-0.00833c-0.44566,-0.00864 -0.89131,-0.01645 -1.33699,-0.02426c-0.30292,-0.00572 -0.60582,-0.01149 -0.90874,-0.01732c-0.74095,-0.01414 -1.48192,-0.02763 -2.2229,-0.04062c-0.04373,-0.13112 -0.08748,-0.26223 -0.13255,-0.39731z" fill="#b4803e" stroke-width="1"/><path d="M235.92153,178.67444c0.26512,0.13245 0.26512,0.13244 0.41165,0.42318c0.24819,0.77748 0.25433,1.72159 -0.03884,2.49048c-0.33313,0.55089 -0.58276,0.84041 -1.22044,1.01294c-0.89276,0.16839 -1.78476,0.2099 -2.68985,0.24968c-0.73868,0.0392 -1.4205,0.17219 -2.1329,0.37681c-0.29461,0.08226 -0.29462,0.08226 -0.55974,0.08226c0,-0.0874 0,-0.17482 0,-0.26488c1.09813,-0.41676 2.06852,-0.57995 3.23208,-0.62423c1.47377,0.00902 1.47377,0.00902 2.76503,-0.55012c0.50772,-0.6155 0.55636,-1.36534 0.49812,-2.13661c-0.12591,-0.28478 -0.12591,-0.28477 -0.26512,-0.52975c0,-0.1748 0,-0.34963 0,-0.52976z" fill="#b68340" stroke-width="1"/><path d="M223.24301,172.82292c0.16414,0.00139 0.32827,0.00278 0.49739,0.00421c0.17743,0.00296 0.35486,0.00601 0.53227,0.00914c0.18387,0.00247 0.36775,0.00485 0.55162,0.00718c0.38452,0.00522 0.76903,0.01149 1.15352,0.01846c0.49083,0.00878 0.98164,0.01455 1.47253,0.0195c0.3795,0.00421 0.75899,0.01023 1.13846,0.01676c0.18089,0.00286 0.36178,0.00512 0.54268,0.00677c1.78398,0.01788 1.78398,0.01788 2.54827,0.47194c0.06561,0.13112 0.06561,0.13112 0.13255,0.26488c-0.07432,-0.02762 -0.14865,-0.05525 -0.22523,-0.08371c-0.98313,-0.33308 -1.90906,-0.38632 -2.9416,-0.40465c-0.17276,-0.00395 -0.34555,-0.0079 -0.52356,-0.01196c-0.36315,-0.00795 -0.7263,-0.01441 -1.08951,-0.01993c-0.46393,-0.00727 -0.9276,-0.01935 -1.39139,-0.03267c-0.44554,-0.0119 -0.89111,-0.0189 -1.33675,-0.0265c-0.16571,-0.00507 -0.3314,-0.01013 -0.50212,-0.01535c-0.95136,-0.03175 -0.95136,-0.03175 -1.76051,0.39924c-0.15025,0.16235 -0.15025,0.16235 -0.30356,0.32799c-0.08749,0 -0.17496,0 -0.26511,0c-0.0164,0.12837 -0.03282,0.25676 -0.04971,0.38904c-0.02734,0.13383 -0.05467,0.26769 -0.08284,0.4056c-0.13124,0.06555 -0.13124,0.06555 -0.26512,0.13243c0.01159,-0.19052 0.02594,-0.3809 0.04143,-0.57114c0.00769,-0.10602 0.01537,-0.21203 0.0233,-0.32127c0.08304,-0.36667 0.16201,-0.4764 0.4655,-0.69686c0.56587,-0.22299 1.03107,-0.29645 1.6375,-0.28909z" fill="#b78c46" stroke-width="1"/><path d="M223.63475,172.40741c0.54137,0.06436 1.08473,0.0992 1.62848,0.1376c0.31895,0.03724 0.31895,0.03724 0.4515,0.16969c0.33388,0.02116 0.66457,0.03434 0.99883,0.0419c0.14978,0.00414 0.14978,0.00414 0.30258,0.00835c0.32009,0.00868 0.6402,0.01648 0.96033,0.02425c0.21652,0.00572 0.43306,0.01149 0.64959,0.01734c0.53183,0.01421 1.0637,0.02761 1.59558,0.0406c0,0.0437 0,0.08742 0,0.13245c-2.66835,0 -5.3367,0 -8.08589,0c0.3918,-0.78293 0.69069,-0.67596 1.49901,-0.57217z" fill="#88662b" stroke-width="1"/><path d="M232.07741,173.64177c0.24855,0.02484 0.24855,0.02484 0.53023,0.13245c0.09308,0.2188 0.18157,0.43959 0.26511,0.66218c0.13124,0.0437 0.26247,0.08742 0.39768,0.13245c0.2418,0.29897 0.46643,0.59692 0.68764,0.91051c0.12994,0.18144 0.2599,0.36285 0.38989,0.54425c0.06409,0.09006 0.12821,0.1801 0.19424,0.27289c0.16779,0.23317 0.33898,0.46294 0.51306,0.69142c0.0945,0.12497 0.18899,0.24994 0.28635,0.37869c0.08372,0.1096 0.16744,0.2192 0.25372,0.33213c0.20479,0.33151 0.27564,0.592 0.32621,0.9757c-0.58188,-0.52686 -1.01412,-1.13199 -1.4695,-1.76929c-0.19339,-0.26655 -0.38834,-0.52157 -0.60169,-0.77188c-1.77293,-2.09767 -1.77293,-2.09767 -1.77293,-2.4915z" fill="#a87e3d" stroke-width="1"/><path d="M235.92153,178.40958c0.60884,0.46634 0.67861,1.00354 0.79533,1.72169c0.18865,0.02868 0.18864,0.02869 0.3811,0.05794c0.41423,0.0745 0.41423,0.07449 0.67935,0.20694c0.71644,0.04377 1.41736,0.01553 2.12088,-0.13245c-0.13123,0.19669 -0.13123,0.19669 -0.26511,0.39733c-0.43287,0.04811 -0.43287,0.04811 -0.96103,0.04138c-0.17293,-0.0005 -0.34584,-0.00102 -0.52402,-0.00154c-0.47851,-0.03787 -0.85343,-0.13135 -1.29863,-0.30472c-0.00803,0.07683 -0.01606,0.15366 -0.02434,0.2328c-0.06317,0.58844 -0.13607,1.17093 -0.24077,1.75379c-0.08749,0 -0.17497,0 -0.26511,0c-0.14912,-1.02641 -0.14912,-1.02641 0,-1.32439c0.0688,-0.88304 0.08876,-1.61438 -0.39767,-2.38391c0,-0.0874 0,-0.1748 0,-0.26486z" fill="#956d32" stroke-width="1"/><path d="M250.10498,177.61493c0.62972,-0.01312 1.25934,-0.02272 1.88914,-0.0291c0.21408,-0.00266 0.42816,-0.00627 0.6422,-0.01086c0.30833,-0.00646 0.61655,-0.00943 0.92494,-0.01177c0.09517,-0.00273 0.19032,-0.00546 0.28838,-0.00829c0.47579,-0.00022 0.74678,0.05068 1.15721,0.29865c0.26781,0.29113 0.26781,0.29112 0.30095,0.76294c-0.16569,0.45526 -0.16569,0.45527 -0.57165,0.71187c-0.53261,0.18106 -1.02469,0.17004 -1.58238,0.14072c0.20079,-0.40123 0.51082,-0.44646 0.9196,-0.61253c0.21506,-0.08861 0.21505,-0.08861 0.43443,-0.179c0.36918,-0.13554 0.36919,-0.13554 0.63431,-0.13554c-0.30146,-0.44644 -0.30146,-0.44644 -0.79533,-0.66219c-0.32314,-0.02024 -0.64327,-0.03403 -0.96673,-0.04192c-0.09358,-0.00275 -0.18718,-0.00551 -0.2836,-0.00833c-0.29846,-0.00865 -0.59694,-0.01646 -0.89542,-0.02426c-0.20254,-0.00572 -0.40509,-0.01149 -0.60763,-0.01734c-0.49611,-0.01416 -0.99225,-0.02758 -1.48841,-0.04061c0,-0.0437 0,-0.08741 0,-0.13244z" fill="#916b31" stroke-width="1"/><path d="M247.0562,172.18495c0.26512,0.13243 0.26512,0.13243 0.46394,0.6208c0.17577,0.54061 0.2415,1.05774 0.29827,1.62238c0.1222,0.95813 0.47686,1.53378 1.09358,2.25973c0.10662,0.13658 0.21324,0.27315 0.32311,0.41386c0.06834,0.08195 0.13669,0.1639 0.20711,0.24832c-1.42144,-0.68895 -1.42144,-0.68895 -1.7361,-1.37799c-0.10266,-0.36976 -0.17805,-0.73551 -0.24394,-1.11351c-0.03858,-0.18809 -0.03858,-0.18809 -0.07793,-0.37998c-0.15157,-0.76137 -0.25256,-1.5213 -0.32803,-2.29362z" fill="#a97f3e" stroke-width="1"/><path d="M249.4422,177.4825c0.08937,0.02127 0.17874,0.04255 0.27081,0.06446c0.45846,0.0795 0.89595,0.08954 1.36128,0.09591c0.18814,0.00372 0.37626,0.00752 0.56439,0.01138c0.29407,0.00547 0.58811,0.01036 0.8822,0.01384c0.28558,0.00366 0.57102,0.00973 0.85656,0.01617c0.17002,0.00263 0.34003,0.00525 0.5152,0.00795c0.48195,0.05855 0.73744,0.15398 1.11688,0.45247c0.06563,0.19669 0.06563,0.19669 0.13257,0.39732c-0.17497,0.0437 -0.34996,0.08742 -0.53023,0.13243c0.04373,-0.1748 0.08749,-0.34963 0.13255,-0.52976c-0.19855,-0.0029 -0.19854,-0.0029 -0.40109,-0.00584c-0.49364,-0.0077 -0.9872,-0.01795 -1.48078,-0.02892c-0.21315,-0.00438 -0.4263,-0.00811 -0.63947,-0.01111c-0.3074,-0.00447 -0.61467,-0.0114 -0.92201,-0.0188c-0.09448,-0.00084 -0.18896,-0.00169 -0.28628,-0.00256c-0.61702,-0.01793 -1.04173,-0.15088 -1.5726,-0.46252c0,-0.0437 0,-0.0874 0,-0.13243z" fill="#be904a" stroke-width="1"/><path d="M236.18665,170.46324c-0.0793,0.03551 -0.15858,0.07103 -0.24026,0.10761c-0.29561,0.1402 -0.29561,0.1402 -0.4888,0.37248c-0.19884,0.18212 -0.19884,0.18212 -0.72905,0.18212c-0.04375,0.13112 -0.08749,0.26222 -0.13255,0.3973c-0.17622,0.08934 -0.35304,0.17748 -0.53023,0.26488c-0.24627,0.25214 -0.24628,0.25214 -0.47223,0.53804c-0.41196,0.50691 -0.41196,0.50691 -0.85333,0.65391c-0.04373,0.0874 -0.0875,0.17482 -0.13256,0.26488c-0.21872,-0.04372 -0.43744,-0.08742 -0.66278,-0.13245c0.08749,-0.0437 0.17497,-0.0874 0.26511,-0.13243c0.08749,0.0437 0.17497,0.0874 0.26512,0.13243c0.02973,-0.09714 0.05947,-0.19428 0.09009,-0.29436c0.21469,-0.45121 0.4616,-0.64891 0.85437,-0.95553c0.1302,-0.10226 0.2604,-0.20451 0.39456,-0.30987c0.12679,-0.09713 0.25358,-0.19429 0.38421,-0.29437c0.10492,-0.08213 0.20983,-0.16423 0.31793,-0.24884c0.98424,-0.75855 0.98424,-0.75855 1.67041,-0.54579z" fill="#766e21" stroke-width="1"/><path d="M236.45175,170.86057c-0.10713,0.04318 -0.21427,0.08638 -0.32466,0.13089c-0.14165,0.05786 -0.2833,0.11574 -0.42925,0.17537c-0.13995,0.05685 -0.27989,0.11369 -0.42408,0.17227c-0.82144,0.36557 -1.25696,0.75253 -1.77967,1.46666c-0.06023,0.08032 -0.12046,0.16065 -0.18251,0.24341c-0.14732,0.19676 -0.29323,0.39457 -0.43885,0.5926c-0.08749,-0.0874 -0.17496,-0.17482 -0.26511,-0.26488c0.00829,-0.25659 0.00829,-0.25659 0.13256,-0.52976c0.22091,-0.13243 0.44187,-0.26487 0.66278,-0.3973c0.21374,-0.2339 0.4108,-0.47568 0.60582,-0.72531c0.18952,-0.20177 0.18952,-0.20177 0.58719,-0.3342c0.04373,-0.08742 0.08748,-0.17482 0.13255,-0.26487c0.25527,-0.11744 0.25527,-0.11745 0.57164,-0.2235c0.10338,-0.03602 0.20676,-0.07205 0.31327,-0.10916c0.33232,-0.06975 0.52035,-0.04054 0.83831,0.06778zM230.75186,172.97959c0.64542,0.07895 1.23645,0.20788 1.85577,0.39731c-0.13123,0.19667 -0.13122,0.19667 -0.2651,0.39733c-0.53488,-0.21053 -1.06286,-0.43471 -1.59067,-0.6622c0,-0.0437 0,-0.0874 0,-0.13243z" fill="#8e6e2f" stroke-width="1"/><path d="M262.69777,170.33081c0.13122,0 0.26247,0 0.39768,0c0.20141,0.77146 0.05858,1.24901 -0.23819,1.9814c-0.15949,0.27005 -0.15949,0.27005 -0.55714,0.40249c-0.00722,-0.25104 -0.01233,-0.50213 -0.01657,-0.75325c-0.00308,-0.13981 -0.00615,-0.27963 -0.00932,-0.4237c0.02801,-0.44596 0.09499,-0.87867 0.42355,-1.20694z" fill="#4c8011" stroke-width="1"/><path d="M239.33484,169.85071c0.23581,0.01128 0.23581,0.01128 0.47636,0.02276c0.38259,0.01849 0.76502,0.03853 1.14745,0.06001c0,0.0437 0,0.08742 0,0.13245c-0.11145,0.00193 -0.22289,0.00385 -0.33771,0.00584c-0.42226,0.0082 -0.84445,0.01803 -1.26666,0.0289c-0.18107,0.00435 -0.36218,0.00809 -0.54329,0.01114c-1.75913,0.03037 -3.33368,0.15243 -4.74524,1.2785c0.04373,-0.13112 0.08749,-0.26224 0.13255,-0.39732c0.08749,0 0.17497,0 0.26511,0c0,-0.13112 0,-0.26222 0,-0.39731c0.2091,-0.08473 0.41921,-0.16697 0.62964,-0.24834c0.11688,-0.04608 0.23376,-0.09218 0.35417,-0.13968c1.3034,-0.38952 2.53669,-0.4333 3.88762,-0.35696z" fill="#709523" stroke-width="1"/><path d="M221.4986,172.4939c0.11853,0.04375 0.11854,0.04375 0.23947,0.08837c-0.11209,0.06556 -0.22418,0.13112 -0.33968,0.19865c-0.46689,0.30881 -0.78981,0.70069 -1.14899,1.12522c-0.3527,0.39908 -0.74899,0.72592 -1.16244,1.06002c-0.12628,0.10364 -0.25257,0.20726 -0.38266,0.31402c-0.35783,0.29344 -0.71638,0.586 -1.07545,0.87793c-0.04373,-0.13112 -0.0875,-0.26224 -0.13256,-0.39732c0.09842,-0.05462 0.19684,-0.10926 0.29825,-0.16555c0.50592,-0.32167 0.82805,-0.66156 1.15986,-1.15884c0.17565,-0.09042 0.35246,-0.17862 0.53021,-0.26488c0.2144,-0.18854 0.2144,-0.18854 0.41009,-0.40713c0.07364,-0.07743 0.14729,-0.15485 0.22317,-0.23462c0.153,-0.16345 0.30524,-0.32762 0.4567,-0.49251c0.07364,-0.07691 0.14729,-0.15382 0.22317,-0.23306c0.06602,-0.07114 0.13208,-0.14227 0.20012,-0.21556c0.20996,-0.13881 0.20996,-0.13881 0.50071,-0.09474z" fill="#676e16" stroke-width="1"/><path d="M225.18453,173.11202c0.72597,-0.01322 1.45189,-0.02276 2.17797,-0.0291c0.24632,-0.00264 0.49263,-0.00624 0.7389,-0.01087c2.83847,-0.0519 2.83847,-0.05189 3.97601,0.56972c0.26227,0.26011 0.37521,0.45391 0.53023,0.79463c-0.26511,-0.13243 -0.53023,-0.26488 -0.79533,-0.39731c0,-0.08742 0,-0.17482 0,-0.26488c-0.0815,-0.01759 -0.163,-0.03518 -0.24699,-0.05329c-0.10713,-0.02339 -0.21427,-0.04678 -0.32465,-0.07088c-0.10612,-0.02305 -0.21223,-0.04609 -0.32156,-0.06984c-0.2998,-0.07088 -0.2998,-0.07088 -0.69746,-0.20333c-0.38101,-0.02042 -0.75941,-0.03409 -1.1407,-0.0419c-0.16687,-0.00412 -0.16687,-0.00412 -0.3371,-0.00833c-0.3552,-0.00867 -0.7104,-0.01648 -1.06561,-0.02426c-0.24086,-0.00572 -0.48173,-0.01149 -0.72258,-0.01734c-0.59038,-0.01418 -1.18075,-0.02759 -1.77112,-0.0406c0,-0.04372 0,-0.08742 0,-0.13245z" fill="#c7994f" stroke-width="1"/><path d="M263.22799,173.64177c-0.05782,0.65458 -0.37261,0.97267 -0.79533,1.45683c-0.16948,0.29348 -0.16948,0.29348 -0.26511,0.52976c-0.08749,0 -0.17497,0 -0.26512,0c0.01515,-0.23462 0.03206,-0.46913 0.04971,-0.70358c0.00922,-0.1306 0.01845,-0.26121 0.02796,-0.39577c0.05489,-0.35748 0.05489,-0.35748 0.32,-0.75479c0.31912,-0.08767 0.59737,-0.13245 0.92789,-0.13245z" fill="#559013" stroke-width="1"/><path d="M236.84941,180.39615c0.83113,0.0874 1.66226,0.17482 2.51857,0.26488c0,0.0437 0,0.08742 0,0.13243c-0.30101,0.00358 -0.60202,0.00615 -0.90304,0.00829c-0.25143,0.0023 -0.25143,0.0023 -0.50795,0.00465c-0.44479,-0.01294 -0.44479,-0.01294 -0.84246,-0.14537c-0.041,0.16663 -0.08203,0.33326 -0.12428,0.50493c-0.07984,0.32437 -0.16746,0.6344 -0.27339,0.95191c0.07689,0.01451 0.15379,0.02902 0.23301,0.04397c0.64151,0.13008 1.1792,0.2935 1.75532,0.61821c-0.52185,0.17379 -0.7661,0.04496 -1.28413,-0.12416c-0.15634,-0.05036 -0.3127,-0.10073 -0.47378,-0.15262c-0.1198,-0.03978 -0.23956,-0.07956 -0.36298,-0.12053c0.01905,-0.18214 0.03845,-0.36424 0.058,-0.54631c0.01076,-0.10141 0.02152,-0.20282 0.03262,-0.30731c0.047,-0.37919 0.1116,-0.75606 0.17449,-1.13297z" fill="#c08945" stroke-width="1"/><path d="M235.12619,171.52275c-0.11174,0.10055 -0.22349,0.20112 -0.33864,0.30472c-0.14673,0.13293 -0.29344,0.26589 -0.44013,0.39887c-0.07364,0.06615 -0.14729,0.13231 -0.22317,0.20047c-0.61267,0.53373 -0.61266,0.53374 -0.91183,1.26463c0.08225,0.49306 0.36452,0.67085 0.72078,1.00984c0.17398,0.37248 0.17398,0.37248 0.26511,0.6622c-0.22091,-0.22073 -0.44187,-0.44146 -0.66279,-0.6622c-0.18454,-0.1639 -0.18454,-0.16389 -0.37282,-0.3311c-0.28996,-0.33108 -0.28996,-0.33109 -0.35158,-0.62752c0.09014,-0.53497 0.40741,-0.85846 0.75754,-1.25145c0.0651,-0.07691 0.1302,-0.15382 0.19728,-0.23306c0.85655,-0.98701 0.85656,-0.98702 1.36025,-0.7354z" fill="#ab823f" stroke-width="1"/><path d="M250.90032,181.32322c0.04375,0 0.08749,0 0.13255,0c0.06563,0.9178 0.06563,0.91781 0.13257,1.85415c-2.09968,0.06555 -2.09969,0.06555 -4.24179,0.13243c0,-0.0437 0,-0.0874 0,-0.13243c1.34155,-0.21294 2.61875,-0.29953 3.97667,-0.26488c0,-0.52446 0,-1.04892 0,-1.58927z" fill="#bd8643" stroke-width="1"/><path d="M226.24497,165.29813c0.04373,0 0.08749,0 0.13255,0c0.01332,0.81628 -0.0356,1.61316 -0.11598,2.42529c-0.01042,0.11822 -0.02085,0.23645 -0.03159,0.35826c-0.01666,0.17016 -0.01666,0.17016 -0.03366,0.34377c-0.00972,0.10214 -0.01944,0.20428 -0.02945,0.30954c-0.05443,0.27143 -0.05443,0.27142 -0.31955,0.66875c-0.26511,-0.26488 -0.2651,-0.26488 -0.28303,-0.52594c0.00695,-0.10404 0.01388,-0.20806 0.02104,-0.31525c0.00682,-0.11268 0.01368,-0.22536 0.02071,-0.34145c0.00854,-0.1178 0.01708,-0.23559 0.02589,-0.35697c0.00752,-0.11882 0.01504,-0.23764 0.02279,-0.36007c0.01879,-0.29395 0.03884,-0.58775 0.06005,-0.88153c0.13123,0.19665 0.13123,0.19665 0.26513,0.3973c0.08748,-0.56816 0.17496,-1.13632 0.26511,-1.72171z" fill="#48820a" stroke-width="1"/><path d="M254.08165,175.0986c0.30622,0.26223 0.61241,0.52447 0.92789,0.79464c0.04375,-0.21852 0.08749,-0.43705 0.13257,-0.6622c0.04373,0 0.08748,0 0.13256,0c0,0.30594 0,0.61187 0,0.92708c-0.08749,0 -0.17498,0 -0.26513,0c0.10048,0.16748 0.10048,0.16748 0.20299,0.33833c0.08611,0.14513 0.17223,0.29024 0.26097,0.43975c0.08611,0.14443 0.17222,0.28886 0.26095,0.43766c0.20299,0.37352 0.20299,0.37352 0.20299,0.6384c0.08748,0.0437 0.17495,0.08742 0.2651,0.13243c-0.3143,-0.0274 -0.3143,-0.0274 -0.66278,-0.13243c-0.16207,-0.2747 -0.16206,-0.2747 -0.27339,-0.6208c-0.31886,-0.89457 -0.75743,-1.50705 -1.44983,-2.16042c0.08749,-0.0437 0.17497,-0.08741 0.26511,-0.13244z" fill="#557912" stroke-width="1"/><path d="M228.49117,174.51142c0.45875,0.18315 0.65644,0.30194 0.93514,0.71962c-0.11252,-0.06299 -0.11252,-0.06299 -0.22731,-0.12726c-0.31698,-0.14401 -0.56255,-0.18887 -0.9077,-0.22038c-0.10132,-0.00991 -0.20265,-0.0198 -0.30705,-0.03001c-0.22583,-0.0158 -0.45245,-0.01966 -0.67883,-0.01966c-0.04373,0.13112 -0.08749,0.26223 -0.13255,0.39731c-0.13123,0.08742 -0.26245,0.17481 -0.39766,0.26487c-0.15967,0.33796 -0.15966,0.33797 -0.26512,0.6622c-0.04373,0 -0.08749,0 -0.13255,0c-0.04606,-0.38661 -0.07064,-0.67967 0.13826,-1.01968c0.57494,-0.69572 1.07368,-0.88932 1.97538,-0.62702z" fill="#bd904a" stroke-width="1"/><path d="M259.39216,178.11159c0.17487,0.0523 0.34894,0.10735 0.52195,0.16554c0.13123,0.0437 0.26245,0.0874 0.39766,0.13245c0,0.0874 0,0.17481 0,0.26486c0.13122,0.04372 0.26246,0.08742 0.39767,0.13245c-0.04374,0.13112 -0.08749,0.26223 -0.13255,0.39731c-0.4219,-0.13047 -0.80721,-0.27091 -1.2013,-0.47181c-0.36067,-0.17635 -0.65748,-0.26483 -1.05215,-0.32281c0.36075,-0.39047 0.57451,-0.42349 1.06872,-0.29799z" fill="#8c6a2e" stroke-width="1"/><path d="M220.94273,174.70128c0.36653,1.12637 0.0667,2.64117 -0.39766,3.7083c-0.28998,0.41386 -0.28998,0.41386 -0.53023,0.66218c-0.08749,-0.0437 -0.17497,-0.08742 -0.26511,-0.13243c0.05434,-0.08708 0.10868,-0.17415 0.16466,-0.26385c0.60831,-1.07306 0.76101,-2.00239 0.85279,-3.21785c0.04298,-0.49147 0.04299,-0.49147 0.17554,-0.75635z" fill="#b78b46" stroke-width="1"/><path d="M246.65854,171.39032c0.13123,0.0437 0.26245,0.0874 0.39766,0.13243c0.01607,0.11388 0.03212,0.22774 0.04868,0.34507c0.15299,1.07817 0.3134,2.15486 0.48155,3.23078c-0.08749,0 -0.17497,0 -0.26511,0c-0.19257,-0.73857 -0.35034,-1.47474 -0.48051,-2.22662c-0.01778,-0.09927 -0.03554,-0.19855 -0.05385,-0.30084c-0.06993,-0.3988 -0.12842,-0.77513 -0.12842,-1.18082z" fill="#c99a50" stroke-width="1"/><path d="M229.1612,167.01983c0.08748,0.0437 0.17496,0.0874 0.26511,0.13245c-0.87486,0.87408 -1.74972,1.74818 -2.65111,2.64877c0,-0.54656 0.2916,-0.77236 0.64621,-1.15058c0.09149,-0.10153 0.09149,-0.10153 0.18484,-0.20512c0.15865,-0.17206 0.32605,-0.33595 0.4945,-0.49846c0.08749,0 0.17497,0 0.26512,0c0,-0.0874 0,-0.17481 0,-0.26487c0.2597,-0.22705 0.52477,-0.44818 0.79533,-0.6622z" fill="#457e0a" stroke-width="1"/><path d="M247.9841,170.86056c0.65359,0.15831 0.9435,0.55936 1.35455,1.05382c0.31345,0.35919 0.65605,0.64002 1.03145,0.93275c-0.57127,0 -0.78175,-0.28701 -1.193,-0.66218c-0.04373,-0.08742 -0.08749,-0.17482 -0.13255,-0.26488c-0.15584,-0.08605 -0.15584,-0.08605 -0.31482,-0.17383c-0.39044,-0.25078 -0.53607,-0.47795 -0.74562,-0.88568z" fill="#728924" stroke-width="1"/><path d="M251.03287,180.79346c0.04375,0 0.0875,0 0.13257,0c0,0.26224 0,0.52448 0,0.79465c0.08748,0 0.17496,0 0.26511,0c0.08749,0.48075 0.17497,0.9615 0.26511,1.45682c-0.13123,-0.0437 -0.26245,-0.0874 -0.39766,-0.13243c-0.04375,0.0874 -0.08749,0.17482 -0.13255,0.26488c-0.1596,-0.49718 -0.14565,-0.97107 -0.14086,-1.48994c0.0012,-0.1673 0.0024,-0.33461 0.00364,-0.50699c0.00154,-0.1277 0.00306,-0.2554 0.00465,-0.38698z" fill="#9f7535" stroke-width="1"/><path d="M255.14211,178.93933c-0.49197,0.38983 -0.85362,0.54834 -1.48297,0.53803c-0.25017,-0.0041 -0.25017,-0.0041 -0.50537,-0.00827c0.17272,-0.34515 0.3071,-0.38569 0.66278,-0.52976c0.48723,-0.11157 0.84889,-0.16485 1.32556,0z" fill="#89642b" stroke-width="1"/><path d="M236.05408,175.23104c0,0.39733 0,0.39732 -0.13255,0.6622c-0.08749,0 -0.17496,0 -0.26511,0c-0.04375,0.21852 -0.08749,0.43704 -0.13255,0.66219c-0.17497,0.04372 -0.34996,0.08741 -0.53023,0.13244c-0.26245,-0.34964 -0.52491,-0.69928 -0.79533,-1.05951c0.04373,-0.08742 0.08749,-0.17482 0.13255,-0.26488c0.15967,0.20262 0.31931,0.40524 0.47896,0.60787c0.19136,0.22274 0.19136,0.22274 0.5815,0.3192c0.03552,-0.10106 0.07108,-0.20213 0.1077,-0.30626c0.15001,-0.33922 0.27833,-0.51445 0.55507,-0.75325z" fill="#a97f3e" stroke-width="1"/><path d="M258.05832,178.14468c0,0.04372 0,0.08742 0,0.13245c-0.15584,0.03551 -0.31166,0.07101 -0.47223,0.1076c-0.38233,0.09415 -0.69538,0.20422 -1.06044,0.36421c-0.46878,0.19586 -0.88008,0.27148 -1.38355,0.32281c0.25511,-0.50977 1.00792,-0.64439 1.52439,-0.81947c0.47995,-0.11131 0.90094,-0.12763 1.39183,-0.10761z" fill="#987132" stroke-width="1"/><path d="M264.95122,181.85298c0.17497,0 0.34994,0 0.53022,0c-0.1975,0.50225 -0.47541,0.76889 -0.92789,1.05951c-0.30653,-0.03311 -0.30653,-0.03311 -0.53023,-0.13245c0.04373,-0.0874 0.08749,-0.17482 0.13256,-0.26488c0.13122,0 0.26247,0 0.39767,0c0.041,-0.08467 0.08202,-0.16935 0.12426,-0.25659c0.14084,-0.27316 0.14084,-0.27317 0.2734,-0.4056z" fill="#b8853a" stroke-width="1"/><path d="M213.78473,180.39615c0.13123,0 0.26245,0 0.39767,0c-0.02034,0.06761 -0.04066,0.13521 -0.06163,0.20487c-0.09334,0.42752 -0.11718,0.84857 -0.1455,1.28506c-0.01111,0.16731 -0.02221,0.33462 -0.03366,0.507c-0.00803,0.1277 -0.01607,0.2554 -0.02434,0.38696c-0.26511,-0.26488 -0.2651,-0.26487 -0.29565,-0.65339c0.00188,-0.15314 0.00375,-0.30627 0.00569,-0.46405c0.00086,-0.1528 0.00171,-0.3056 0.0026,-0.46301c0.02227,-0.40613 0.02226,-0.40613 0.15481,-0.80344z" fill="#89662c" stroke-width="1"/><path d="M244.6702,170.33081c0,0.0437 0,0.0874 0,0.13243c-1.02451,0.25879 -1.99501,0.29459 -3.04878,0.26488c0.95703,-0.50694 1.99118,-0.41294 3.04878,-0.39731z" fill="#bb8f48" stroke-width="1"/><path d="M214.04984,180.66103c0.14686,0.53679 0.17728,1.06892 0.20712,1.62237c0.00572,0.09868 0.01146,0.19736 0.01735,0.29903c0.01399,0.24243 0.02738,0.48489 0.04065,0.72737c-0.26512,-0.13243 -0.26512,-0.13243 -0.39767,-0.52976c-0.01261,-0.31157 -0.01721,-0.62352 -0.01657,-0.93535c-0.00034,-0.16542 -0.00067,-0.33086 -0.00104,-0.5013c0.01761,-0.41749 0.01761,-0.4175 0.15016,-0.68237z" fill="#bc8b46" stroke-width="1"/><path d="M254.87699,176.29055c0.48765,0.43503 0.76239,0.88252 1.06046,1.45683c0,0.0874 0,0.17482 0,0.26488c0.08748,0.0437 0.17495,0.08742 0.2651,0.13243c-0.31275,-0.02587 -0.31275,-0.02587 -0.66278,-0.13243c-0.17604,-0.28868 -0.17604,-0.28868 -0.29825,-0.64565c-0.0417,-0.11711 -0.08337,-0.23422 -0.12634,-0.35489c-0.03485,-0.10688 -0.0697,-0.21375 -0.10564,-0.32386c-0.04373,-0.13112 -0.08748,-0.26223 -0.13255,-0.39732z" fill="#5e6a17" stroke-width="1"/><path d="M228.32443,174.75923c0.10713,0.01348 0.21426,0.02697 0.32466,0.04086c0.08149,0.0111 0.16301,0.0222 0.24698,0.03363c0,0.0437 0,0.0874 0,0.13243c-0.22966,-0.02458 -0.22966,-0.02458 -0.46394,-0.04965c-0.72,-0.00772 -1.14047,0.38317 -1.65694,0.84429c0,-0.39731 0,-0.39731 0.24025,-0.67874c0.44514,-0.38121 0.7511,-0.39552 1.30899,-0.32281z" fill="#916b31" stroke-width="1"/><path d="M247.0562,172.18495c0.34803,0.17386 0.35726,0.30784 0.48051,0.67048c0.18973,0.5944 0.21614,1.09302 0.18227,1.71342c-0.04373,0 -0.08749,0 -0.13255,0c-0.04373,-0.39334 -0.08749,-0.78668 -0.13255,-1.19196c-0.08749,0 -0.17498,0 -0.26511,0c-0.04375,-0.39334 -0.08749,-0.78668 -0.13256,-1.19194z" fill="#9a7336" stroke-width="1"/><path d="M222.40085,172.44983c0.78737,0.1311 0.78736,0.1311 1.59067,0.26487c0,0.0437 0,0.0874 0,0.13243c-0.61241,0.0437 -1.22481,0.08742 -1.85577,0.13245c0.08748,-0.17482 0.17496,-0.34964 0.26511,-0.52975z" fill="#8e692f" stroke-width="1"/><path d="M245.33298,169.40373c0.18789,0.01524 0.37565,0.03212 0.56337,0.04967c0.10457,0.00921 0.20914,0.01844 0.31688,0.02794c0.33194,0.0582 0.56058,0.13618 0.84297,0.31972c0.04375,0.1311 0.08749,0.26223 0.13256,0.39731c-0.12714,-0.05736 -0.12713,-0.05736 -0.25683,-0.11588c-0.52315,-0.19202 -1.0538,-0.30234 -1.59895,-0.41388c0,-0.0874 0,-0.17482 0,-0.26488z" fill="#709424" stroke-width="1"/><path d="M246.02165,154.3497c0.07895,0.02918 0.15787,0.05838 0.23922,0.08845c-0.76219,0.66218 -0.76219,0.66218 -1.06044,0.66218c-0.04373,0.13112 -0.08749,0.26224 -0.13255,0.39733c-0.13123,0.0437 -0.26246,0.08741 -0.39767,0.13243c0.20704,-0.53781 0.71153,-1.37711 1.35145,-1.28039z" fill="#416f09" stroke-width="1"/><path d="M214.18241,178.67444c0.1986,0.51418 0.05714,0.85218 -0.12428,1.35749c-0.0504,0.14273 -0.1008,0.28545 -0.15274,0.4325c-0.03981,0.10858 -0.07964,0.21717 -0.12065,0.32903c-0.21573,-0.68483 -0.00584,-1.28198 0.28168,-1.92034c0.03827,-0.06556 0.07655,-0.13112 0.116,-0.19867z" fill="#6c781a" stroke-width="1"/><path d="M240.95865,178.27713c0.04373,0.0874 0.08747,0.17482 0.13255,0.26488c-0.08907,0.23436 -0.08907,0.23436 -0.23198,0.50493c-0.04921,0.09372 -0.09841,0.18744 -0.14912,0.28401c-0.17423,0.31612 -0.35535,0.62672 -0.54678,0.93275c-0.08749,-0.0437 -0.17497,-0.0874 -0.26512,-0.13243c0.05742,-0.09013 0.11482,-0.18028 0.17398,-0.27314c0.16952,-0.29486 0.30278,-0.56545 0.4308,-0.87741c0.19055,-0.43871 0.19056,-0.43871 0.45568,-0.70358z" fill="#aa803f" stroke-width="1"/><path d="M243.07953,170.33081c0,0.0437 0,0.0874 0,0.13243c-0.84071,0.15272 -1.6658,0.14504 -2.51855,0.13245c0,-0.04372 0,-0.08742 0,-0.13245c0.89247,-0.22525 1.60824,-0.27913 2.51855,-0.13243z" fill="#8b672d" stroke-width="1"/><path d="M246.65854,171.39032c0.13123,0.0437 0.26245,0.0874 0.39766,0.13243c0.04375,0.56816 0.08749,1.13632 0.13256,1.72171c-0.08749,-0.04372 -0.17497,-0.08742 -0.26512,-0.13245c-0.08388,-0.38955 -0.08388,-0.38955 -0.14912,-0.86912c-0.02221,-0.1586 -0.04443,-0.3172 -0.06731,-0.4806c-0.01606,-0.12275 -0.03212,-0.2455 -0.04868,-0.37197z" fill="#bd904a" stroke-width="1"/><path d="M233.27042,175.0986c0.30622,0.21852 0.61241,0.43705 0.92789,0.66219c-0.04373,0.17482 -0.08749,0.34964 -0.13255,0.52976c-0.4084,-0.36722 -0.62139,-0.67057 -0.79533,-1.19195z" fill="#b68a46" stroke-width="1"/><path d="M231.01697,172.7147c0.31059,0.03384 0.62016,0.07849 0.92789,0.13243c0.04375,0.08742 0.08749,0.17482 0.13255,0.26488c0.26734,0.15013 0.26733,0.15013 0.53023,0.26488c-0.64642,0.04615 -1.03002,-0.07722 -1.59067,-0.39731c0,-0.08742 0,-0.17482 0,-0.26488z" fill="#786620" stroke-width="1"/><path d="M233.9332,171.12545c0.04373,0.13112 0.08748,0.26222 0.13255,0.3973c-0.34994,0.30594 -0.69991,0.61187 -1.06046,0.92708c-0.04373,-0.08742 -0.08748,-0.17482 -0.13255,-0.26488c0.15741,-0.33937 0.15741,-0.33937 0.39768,-0.6622c0.28168,-0.09105 0.28168,-0.09105 0.53021,-0.13243c0.04375,-0.08742 0.08749,-0.17482 0.13256,-0.26487z" fill="#53780d" stroke-width="1"/><path d="M248.38176,158.6762c0.08749,0.0437 0.17497,0.08741 0.2651,0.13244c-0.7908,1.01546 -0.7908,1.01546 -1.4581,1.19194c0.12405,-0.14641 0.24837,-0.2926 0.3728,-0.43871c0.06922,-0.08143 0.13841,-0.16285 0.20972,-0.24676c0.1958,-0.22229 0.39844,-0.43214 0.61048,-0.63891z" fill="#368009" stroke-width="1"/><path d="M264.02333,179.2042c0.30622,0.04372 0.61242,0.08741 0.92789,0.13244c0.04374,0.13112 0.08749,0.26223 0.13255,0.39731c-0.17496,0.04372 -0.34994,0.08742 -0.53021,0.13245c-0.03827,-0.08467 -0.07656,-0.16936 -0.116,-0.2566c-0.12636,-0.2933 -0.12636,-0.2933 -0.41423,-0.4056z" fill="#706420" stroke-width="1"/><path d="M221.50403,172.4876c0.07722,0.03123 0.15446,0.06249 0.23404,0.09467c-0.16754,0.13359 -0.33621,0.26576 -0.50537,0.39732c-0.1407,0.11063 -0.1407,0.11062 -0.28427,0.22348c-0.27079,0.17383 -0.27079,0.17383 -0.66847,0.17383c0.14147,-0.1592 0.28558,-0.31604 0.43081,-0.4718c0.07996,-0.08758 0.15993,-0.17517 0.24232,-0.26539c0.25475,-0.18986 0.25475,-0.18986 0.55094,-0.1521z" fill="#6a7616" stroke-width="1"/><path d="M262.30011,171.12545c0.04373,0 0.08749,0 0.13255,0c0.02589,0.27159 0.05177,0.54319 0.07767,0.8148c0.01811,0.08075 0.03623,0.1615 0.05489,0.24471c0.08749,0.0437 0.17497,0.0874 0.26511,0.13243c-0.13123,0.19667 -0.13123,0.19666 -0.26511,0.39732c-0.08749,0 -0.17497,0 -0.26511,0c0,-0.52446 0,-1.04891 0,-1.58926z" fill="#43830c" stroke-width="1"/><path d="M211.92896,181.98542c0.08749,0.0437 0.17496,0.08742 0.26511,0.13245c-0.39369,0.39334 -0.78736,0.78668 -1.193,1.19194c0,-0.39731 0,-0.39731 0.31483,-0.73669c0.11481,-0.10652 0.22965,-0.21306 0.34795,-0.32281c0.08749,-0.0874 0.17497,-0.17482 0.26512,-0.26488z" fill="#5ea409" stroke-width="1"/><path d="M262.03499,174.17153c0.04375,0 0.08749,0 0.13256,0c0,0.26224 0,0.52446 0,0.79463c0.08748,0.04372 0.17496,0.08741 0.26511,0.13244c-0.08749,0.17482 -0.17497,0.34964 -0.26511,0.52976c-0.08749,0 -0.17497,0 -0.26512,0c0.04375,-0.48076 0.08749,-0.9615 0.13256,-1.45683z" fill="#4a860c" stroke-width="1"/><path d="M256.73278,178.54201c-0.32095,0.32068 -0.50388,0.33486 -0.94446,0.41386c-0.18096,0.0333 -0.18096,0.03329 -0.36557,0.06726c-0.09262,0.01605 -0.18523,0.03209 -0.28064,0.04863c0.13255,-0.26488 0.13255,-0.26488 0.42252,-0.41386c0.4083,-0.12693 0.74306,-0.13565 1.16816,-0.11589z" fill="#a57a37" stroke-width="1"/><path d="M254.21421,177.87982c0.31482,0.0331 0.31482,0.0331 0.66278,0.13243c0.17398,0.27314 0.17398,0.27315 0.26512,0.52975c-0.17497,0.0437 -0.34996,0.08742 -0.53023,0.13243c0.04373,-0.1748 0.08749,-0.34963 0.13255,-0.52976c-0.17496,-0.0874 -0.34994,-0.17481 -0.53023,-0.26486z" fill="#c3954d" stroke-width="1"/><path d="M260.17922,170.19837c0.08749,0.13112 0.17497,0.26224 0.26511,0.39732c-0.1657,0.32281 -0.1657,0.32282 -0.39766,0.66219c-0.17497,0.0437 -0.34994,0.08741 -0.53022,0.13244c0.21872,-0.39334 0.43744,-0.78668 0.66278,-1.19195z" fill="#609a1c" stroke-width="1"/></g></g></svg>