<svg version="1.1" xmlns="http://www.w3.org/2000/svg" xmlns:xlink="http://www.w3.org/1999/xlink" width="489.42508" height="113.94161" viewBox="0,0,489.42508,113.94161"><g transform="translate(0.23383,-90.20106)"><g data-paper-data="{&quot;isPaintingLayer&quot;:true}" fill-rule="nonzero" stroke="none" stroke-width="1" stroke-linecap="butt" stroke-linejoin="miter" stroke-miterlimit="10" stroke-dasharray="" stroke-dashoffset="0" style="mix-blend-mode: normal"><path d="M418.29955,90.20516c0.38358,0.00186 0.76704,0.00378 1.1623,0.0057c19.45496,0.11151 48.34865,1.02521 63.10413,15.66289c0.32511,0.31215 0.65021,0.62437 0.98506,0.94595c4.19535,4.37317 5.70443,9.49086 5.63813,15.40812c-0.34036,5.46018 -2.81797,9.64489 -6.74862,13.3536c-8.23796,6.9299 -20.00348,7.25827 -30.26877,7.77159c-9.25816,0.47997 -18.42897,1.66946 -27.62647,2.79835c-6.88046,0.84213 -13.75502,1.61861 -20.65946,2.23189c-7.73946,0.69074 -15.41197,1.66222 -23.09333,2.83542c-0.46951,0.07002 -0.9389,0.14005 -1.42265,0.21212c-6.04942,0.9101 -11.81092,2.18629 -17.62859,4.08108c-0.4572,0.14831 -0.9144,0.2967 -1.38545,0.44964c-0.73921,0.2438 -1.47767,0.48977 -2.21509,0.7387c-19.36724,6.48456 -40.24075,6.8788 -58.97381,-1.87779c-5.74599,-3.08525 -10.26694,-7.6972 -12.49254,-13.86275c-1.57167,-5.67551 -0.37411,-11.44746 2.37167,-16.53432c1.07073,-1.75006 2.15339,-3.46991 3.50935,-5.01395c0.33088,0 0.66189,0 1.00277,0c0.13184,-0.30247 0.26355,-0.60495 0.39949,-0.91659c5.28712,-9.54537 26.48803,-15.99825 36.4554,-18.97858c9.49503,-2.71217 18.05129,-3.48307 27.86194,-2.42079c6.95382,0.66349 13.51031,-0.07112 20.3868,-1.06157c0.47413,-0.06669 0.94839,-0.13344 1.43689,-0.20218c6.75529,-0.95442 13.36297,-2.14411 19.9741,-3.84819c6.04736,-1.48921 12.03126,-1.82501 18.22674,-1.77833z" fill="#fefefe"/><path d="M213.1394,171.71133c0.78731,0.80501 0.78731,0.80501 0.78731,1.80778c0.30497,-0.00577 0.61007,-0.01161 0.92434,-0.01764c2.80258,-0.02879 5.52809,0.10164 8.3192,0.36236c3.19387,0.26419 6.09372,-0.04322 9.2436,-0.59539c9.83944,-1.66407 19.29113,0.38192 28.87253,2.81445c3.65479,0.91684 6.81306,0.99744 10.54589,0.47592c10.97077,-1.49068 22.05627,-1.70704 31.33418,4.98265c1.59668,1.56385 2.45593,2.7173 2.85145,4.9826c-0.12889,2.15878 -1.16769,3.37334 -2.59687,4.91994c-0.75589,0.62675 -0.75589,0.62675 -1.75865,0.62675c-0.16544,0.49638 -0.33076,0.99275 -0.50133,1.50414c-4.26294,3.41067 -10.3889,3.25889 -15.57663,3.436c-7.32644,0.25521 -14.54567,0.8504 -21.8151,1.7825c-4.5629,0.57981 -8.98223,0.87401 -13.589,0.70427c-5.3515,-0.18186 -9.9087,1.04425 -14.95618,2.73807c-5.96554,1.9761 -11.85682,2.32063 -18.0661,1.47286c-1.59559,-0.13767 -3.16597,-0.08047 -4.76669,-0.04309c-2.90012,0.02193 -4.91314,-0.22931 -7.48886,-1.56687c-0.33094,-0.49638 -0.66176,-0.99275 -1.0027,-1.50421c-1.32646,-0.32972 -1.32646,-0.32972 -2.85145,-0.47003c-2.72564,-0.38526 -4.38317,-1.05862 -6.67417,-2.53833c-1.5634,-0.54851 -3.10853,-0.56839 -4.75458,-0.62161c-4.05537,-0.1419 -8.44315,-0.41532 -11.68607,-3.14276c-0.60514,-0.7482 -0.60514,-0.7482 -0.60514,-1.75096c-0.46534,-0.04136 -0.93062,-0.08278 -1.41007,-0.12536c-1.59803,-0.37602 -1.59803,-0.37603 -2.56937,-1.19085c-0.78789,-1.76134 -0.50971,-2.85062 -0.03135,-4.70058c1.78155,-3.49204 4.87358,-5.34714 8.14689,-7.30156c1.69082,-1.0231 2.6587,-2.17513 3.88545,-3.72911c2.21374,-1.49311 3.79355,-1.55449 6.34906,-1.46112c1.23861,-0.0456 2.11435,-0.29836 3.2705,-0.73248c4.48032,-1.63855 13.72731,-3.66852 18.16992,-1.11839z" fill="#ffffff"/><path d="M82.14039,109.21467c1.28195,0.53625 2.5874,1.01258 3.88846,1.49994c1.33521,0.50363 2.64108,1.0462 3.92606,1.66928c2.20392,0.62543 4.26529,-0.05755 6.39468,-0.68606c0.31195,-0.08875 0.62402,-0.1771 0.93622,-0.26501c1.27267,-0.35944 2.54248,-0.72705 3.80688,-1.1145c5.79727,-1.72113 12.34397,-2.32712 18.37128,-2.34897c0.16766,-0.00061 0.33526,-0.00126 0.50799,-0.00189c4.15793,-0.00162 8.25342,0.45505 12.37473,0.96683c0.49655,0.06082 0.99326,0.11911 1.49026,0.17611c20.22592,2.33008 20.22592,2.33008 25.62985,8.42719c1.30918,1.65625 2.13324,3.37168 2.98996,5.30097c0.21725,-0.00375 0.43455,-0.00747 0.65842,-0.01135c1.74045,-0.02606 3.48019,-0.03906 5.22082,-0.02591c0.16791,0.00067 0.33581,0.00135 0.50885,0.00204c2.61081,0.02597 4.85303,0.47827 7.2988,1.39984c0.23779,0.08926 0.2378,0.08926 0.48044,0.1803c0.80258,0.30295 1.60037,0.61385 2.39364,0.94043c1.69785,0.68139 2.93243,1.0933 4.67444,0.37815c0.27157,-0.09598 0.54315,-0.19192 0.82296,-0.29083c0.38247,-0.15134 0.38247,-0.15134 0.77268,-0.30573c4.69931,-1.69131 10.22962,-1.43665 15.10636,-0.59656c0.17877,0.03076 0.35748,0.06152 0.54163,0.0932c3.49136,0.62448 6.85382,1.53799 10.0185,3.16031c2.27295,1.16092 3.79883,1.55151 6.38052,1.28034c0.59635,-0.04184 1.19287,-0.08155 1.78949,-0.11933c0.15589,-0.0105 0.31177,-0.021 0.47235,-0.0318c7.6637,-0.49249 16.96811,-0.13232 23.50696,4.44632c0.37143,0.25747 0.37143,0.25747 0.7503,0.52014c4.33353,3.10822 7.90488,8.25733 8.79374,13.55863c0.44085,3.8071 -0.91804,7.60739 -3.08973,10.68027c-1.82245,2.18121 -4.20925,3.43479 -6.7973,4.50214c-0.40497,0.16925 -0.40497,0.16925 -0.81808,0.34198c-3.46607,1.41403 -6.95676,2.40744 -10.71579,2.41245c-0.34039,0.00144 -0.34039,0.00144 -0.68762,0.00293c-0.73795,0.00226 -1.47586,0.00226 -2.21381,0.00171c-0.25201,0.00018 -0.50399,0.00036 -0.76364,0.00055c-3.09042,-0.00024 -6.16025,-0.05408 -9.24265,-0.28391c-7.46036,-0.5459 -14.20434,0.18542 -21.44049,2.01526c-1.68329,0.42438 -3.37698,0.79611 -5.07398,1.16141c-0.41651,0.09109 -0.41651,0.09109 -0.8414,0.18405c-0.26364,0.05642 -0.52732,0.11292 -0.79898,0.17108c-0.34601,0.07443 -0.34601,0.07443 -0.69901,0.15036c-1.76358,0.31415 -3.5029,0.41418 -5.29209,0.42291c-0.22339,0.00137 -0.4468,0.00271 -0.67694,0.00412c-0.47165,0.00223 -0.9433,0.00378 -1.41489,0.00473c-0.70364,0.00229 -1.40711,0.00971 -2.11072,0.01725c-4.82932,0.02829 -9.35102,-0.75082 -14.03348,-1.88727c-0.71036,-0.17176 -1.42182,-0.33811 -2.13354,-0.50409c-3.33441,-0.79165 -6.4111,-1.79447 -9.44708,-3.41483c-1.10465,-0.5282 -2.18173,-0.50741 -3.38794,-0.50427c-0.28662,-0.00046 -0.28662,-0.00046 -0.57904,-0.00088c-0.62036,-0.0004 -1.2407,0.00109 -1.861,0.00275c-0.31616,0.00009 -0.31616,0.00009 -0.63864,0.00018c-2.42157,0.00067 -4.83225,0.03095 -7.25009,0.17877c-6.75647,0.37628 -13.20658,-1.90378 -18.26783,-6.35334c-0.21869,-0.19165 -0.43737,-0.38327 -0.66268,-0.58072c-1.14118,-1.07095 -2.06266,-2.21618 -2.91633,-3.52063c-0.08929,-0.13605 -0.17856,-0.2721 -0.27057,-0.41227c-0.58886,-0.94485 -0.90015,-1.81426 -1.16105,-2.88369c-1.27954,0.43836 -2.41046,0.92645 -3.50442,1.73001c-2.76846,2.01752 -5.96096,3.33471 -9.07882,4.71094c-0.71634,0.31915 -1.42581,0.65225 -2.13538,0.98617c-4.81076,2.21722 -9.33945,3.4918 -14.68045,3.57285c-2.75562,0.06232 -5.23456,0.74032 -7.87662,1.50537c-4.6164,1.31558 -8.73422,0.50387 -13.05401,-1.30496c-1.9418,-0.80975 -3.74912,-1.24829 -5.82708,-1.55444c-5.57798,-0.89435 -10.83585,-2.15461 -15.7616,-4.9639c-4.81119,-2.64188 -10.63046,-2.80289 -15.87155,-1.69925c-6.58496,1.35528 -14.14737,1.19967 -20.05734,-2.35642c-4.26926,-2.94568 -7.27231,-7.87408 -8.22796,-12.93039c-0.05356,-0.29529 -0.05356,-0.29529 -0.10813,-0.59655c-0.15814,-0.84836 -0.40241,-1.5799 -0.74563,-2.37131c-1.09449,-2.63199 -0.7269,-5.25997 0.28336,-7.87457c1.24579,-2.78161 3.10171,-5.01028 5.21936,-7.15869c0.1741,-0.17719 0.34818,-0.35434 0.52753,-0.5369c4.58648,-4.3652 11.15496,-6.13504 17.30786,-6.01031c0.44705,0.00513 0.89414,0.01001 1.34119,0.01468c4.58984,0.06061 9.32089,0.20511 13.69714,1.75635c1.138,0.37116 1.81696,0.26972 2.89588,-0.26379c0.30826,-0.16305 0.6153,-0.32846 0.92121,-0.49588c1.54627,-0.84442 3.1441,-1.53891 4.77157,-2.20996c0.44464,-0.18341 0.88846,-0.36911 1.33219,-0.55484c2.83206,-1.16681 5.6413,-2.02112 8.65363,-2.5716c0.26761,-0.05008 0.53521,-0.10013 0.81091,-0.1517c1.62067,-0.29989 3.24353,-0.58554 4.87076,-0.84753c0.17011,-0.02756 0.34024,-0.05512 0.51553,-0.0835c6.41483,-0.99063 12.61374,-0.39844 18.56,2.14908z" fill="#fefefe"/></g></g></svg>