<svg version="1.1" xmlns="http://www.w3.org/2000/svg" xmlns:xlink="http://www.w3.org/1999/xlink" width="166.86023" height="73.85961" viewBox="0,0,166.86023,73.85961"><g transform="translate(-120.11415,-93.99518)"><g data-paper-data="{&quot;isPaintingLayer&quot;:true}" fill="#ffffff" fill-rule="nonzero" stroke="none" stroke-width="0.5" stroke-linecap="butt" stroke-linejoin="miter" stroke-miterlimit="10" stroke-dasharray="" stroke-dashoffset="0" style="mix-blend-mode: normal"><path d="M160.60429,115.50997c0.39789,-0.30661 0.7045,-0.4599 0.7045,-0.4599l1.04407,-0.48453c1.28466,-0.835 2.63839,-1.63935 4.05872,-2.29478c-0.80017,-2.34891 -0.59261,-5.0095 0.94268,-7.30457c0.90412,-1.35156 2.5167,-2.10057 3.96138,-2.84691c0.79915,-0.41285 1.83342,-0.16302 2.63909,-0.56299c0.5899,-0.29286 0.79627,-1.0983 1.3675,-1.42608c1.97187,-1.13147 6.11688,-2.48308 8.38751,-2.8592c4.24369,-0.70295 8.76076,0.53347 13.00859,-0.02355c2.50147,-0.32802 4.93318,-1.15427 7.38995,-1.48745c1.02695,-0.13928 5.56072,-0.02255 6.79951,0c3.58216,-1.32739 7.34767,-2.22945 11.21323,-1.511c2.01927,0.3753 3.70885,1.76794 5.59459,2.58178c0.81662,0.35243 1.75817,0.31114 2.60113,0.59486c1.11892,0.3766 2.11738,1.09122 3.26246,1.37867c2.91413,0.73152 6.65426,-0.02679 9.50337,0.86352c1.18267,0.36957 2.10535,1.30899 3.18808,1.91146c3.68346,2.0496 8.105,4.70276 10.58092,8.27295c0.55364,0.79833 0.57026,1.86724 1.00686,2.73513c1.75064,3.47996 4.23302,6.23777 3.98854,10.37789c1.1357,1.22885 2.24747,2.66187 3.79488,3.40047c1.43739,0.68609 3.10423,0.80716 4.53301,1.511c3.57192,1.75959 7.01061,4.10662 10.32261,6.33187c2.37804,1.59775 4.76954,2.93152 6.13677,5.72962c0.40068,0.82001 0.34177,5.76687 0.33068,6.95094c-0.05579,5.95235 -2.07961,12.57918 -8.37378,14.73476c-1.93599,0.66302 -5.24511,0.20593 -7.36252,0.1303c-2.86155,1.04513 -5.40529,1.09595 -8.31052,1.511c-0.78837,0.11263 -1.47814,0.64288 -2.2665,0.7555c-0.99721,0.14246 -2.0248,-0.14246 -3.02201,0c-0.78837,0.11262 -1.47736,0.64848 -2.2665,0.7555c-1.80139,0.24431 -3.65633,-0.24955 -5.45358,0.02355c-1.02655,0.15599 -1.99306,0.61616 -3.02201,0.7555c-4.74097,0.64203 -9.72442,-0.60748 -14.45725,0.01141c-1.27327,0.1665 -2.50255,0.6025 -3.77751,0.7555c-1.46625,0.17595 -2.96838,-0.22035 -4.43029,-0.01141c-1.16958,0.16716 -5.03186,1.52923 -5.81929,1.54355c-1.02367,0.01861 -1.9749,-0.54106 -2.96236,-0.8116c-2.19027,0.02779 -4.35281,-0.49603 -6.53172,-0.72055c-3.82291,-0.39391 -7.77304,0.42591 -11.60032,-0.03495c-0.79065,-0.09521 -1.47921,-0.6356 -2.2665,-0.7555c-2.60293,-0.3964 -5.73264,0.0561 -8.37016,0.0561c-0.62413,0 -6.22625,0.00922 -6.57479,-0.03255c-1.03096,-0.12357 -1.9905,-0.63654 -3.02201,-0.7555c-2.25158,-0.25967 -4.54912,0.26973 -6.79951,0c-6.48532,-0.77733 -12.53029,-2.23396 -19.11226,-2.23396c-4.17755,0 -8.57062,-0.04096 -12.44401,-1.93266c-1.13145,-0.55257 -1.92303,-1.65189 -3.02201,-2.2665c-1.15788,-0.64756 -4.00401,-0.25956 -4.87288,-0.38994c-0.96214,-0.14438 -1.85776,-0.57878 -2.78522,-0.87265c-1.43757,-0.45549 -3.12871,-0.43791 -4.30987,-1.37543c-3.2646,-2.5912 -4.24511,-7.45186 -3.23649,-11.34855c0.28221,-1.0903 1.19634,-1.94062 1.511,-3.02201c0.58363,-2.00579 0.14696,-4.7808 0.7555,-6.79951c1.90697,-6.32596 6.71021,-11.436 12.38701,-14.3479c3.00962,-1.00606 6.27664,-1.21992 9.22127,-2.32734c1.21798,-0.45807 2.26916,-1.34713 3.53111,-1.66463c1.07476,-0.2704 2.22758,0.09987 3.32423,-0.06012c0.78803,-0.11496 1.47956,-0.63336 2.2665,-0.7555c2.3026,-0.3574 4.72322,-0.06188 7.11462,0.10693z"/></g></g></svg>