<svg version="1.1" xmlns="http://www.w3.org/2000/svg" xmlns:xlink="http://www.w3.org/1999/xlink" width="504.88137" height="425.30521" viewBox="0,0,504.88137,425.30521"><defs><linearGradient x1="245.84769" y1="216.38881" x2="240.60582" y2="-56.60753" gradientUnits="userSpaceOnUse" id="color-1"><stop offset="0" stop-color="#ffffff" stop-opacity="0"/><stop offset="1" stop-color="#ffffff"/></linearGradient></defs><g transform="translate(10.05211,58.52691)"><g data-paper-data="{&quot;isPaintingLayer&quot;:true}" fill-rule="nonzero" stroke="none" stroke-linecap="butt" stroke-linejoin="miter" stroke-miterlimit="10" stroke-dasharray="" stroke-dashoffset="0" style="mix-blend-mode: normal"><path d="M-1.46837,366.7783v-367h489v367z" fill="#ffc159" stroke-width="0"/><path d="M-2.02497,126.20629c3.5,0 7,0 10.5,0c2.03271,0 4.10755,0.65903 6.09793,0.06716c0.72984,-0.21703 1.26826,-1.23104 2,-1.43444c2.41649,-0.67171 5.92117,-0.06716 8.40207,-0.06716c1.93286,0 4.39269,-0.50878 6.28032,0.03242c1.80014,0.51611 3.34519,2.24036 5.12175,2.90363c1.63393,0.61003 3.44659,-0.6657 5.06506,0.02393c1.26779,0.54021 2.28964,1.89981 3.43446,2.84971c1.57497,1.35727 3.69819,3.6435 5.50048,4.29859c1.29248,0.46978 2.70284,-0.44248 4,0c0.72514,0.24736 1.2795,1.16064 2,1.43444c1.57187,0.59735 3.27328,-0.40961 4.87825,-0.03474c1.71842,0.40137 3.43595,0.84499 5.12175,1.46919c2.06057,0.76295 3.94012,3.75097 6,4.30333c5.26833,1.41271 10.87965,1.88538 16.14668,0.01773c1.66808,-0.59148 3.15144,-1.98326 4.78155,-2.7627c1.32382,-0.90977 2.84181,-1.05773 4.26763,-1.55837c2.70673,-0.95039 5.26935,-3.65766 8.12175,-4.33808c5.44114,-1.29794 11.7784,-0.03242 17.28032,-0.03242c4.24527,0 8.99651,-0.77051 13.21382,0.01881c2.29882,0.43025 5.91242,0.69799 8.18825,1.4828c1.20631,0.41599 2.35778,1.4194 3.59793,1.36728c2.93126,0 6.72993,0.92001 9.59793,0.06716c2.81827,-0.83807 4.58026,-2.33059 7.80414,-1.43444c0.73174,0.2034 1.2795,1.16064 2,1.43444c1.15941,0.4406 2.39852,-0.06716 3.59793,-0.06716c2.62887,0 6.12498,0.77743 8.71968,0.03242c1.6286,-0.46763 3.06408,-1.84143 4.61062,-2.71023c1.66938,-0.9378 3.52412,-0.95928 5.26762,-1.55837c2.29512,-0.78863 3.43826,-2.86889 6,-2.86889c2.85326,-2.04642 5.0789,-0.5658 8,-1.43444c0.72984,-0.21703 1.27487,-1.18709 2,-1.43444c1.85879,-0.63405 4.47981,-0.06716 6.40207,-0.06716c3.83334,0 7.66666,0 11.5,0c4.25703,0 7.94597,-0.27408 11.90207,1.50161c1.43829,0.64556 1.77972,-0.95138 3.19586,-1.43444c3.03282,-1.03454 6.86149,0.05089 9.68239,1.3997c3.10067,-0.02046 5.84245,1.12522 8.87684,1.41217c3.8705,0.36603 8.46211,-1.23334 12.24491,0.05702c0.72514,0.24736 1.2795,1.16064 2,1.43444c1.74455,0.66297 4.00939,-0.44528 5.81175,-0.04836c3.22561,0.71038 6.64384,2.90874 9.78618,2.85008c1.1109,-0.02073 2.36119,0.97033 3.33031,0.19108c0.82241,-0.66128 1.15299,-2.2749 2,-2.86889c0.67956,-0.47657 1.53458,0.14376 2.26763,-0.12392c1.37194,-0.50098 2.70614,-1.44601 4.12175,-1.46919c0.78677,-0.36399 1.65981,-0.46226 2.36029,-1.09196c0.87483,-0.78642 1.29075,-2.5063 2.25034,-3.05271c1.05064,-0.59825 2.27568,0.11902 3.38937,-0.15866c1.03852,-0.25895 1.96499,-1.14804 3,-1.43444c0.5284,-0.14621 1.13382,0.51657 1.61063,0.15866c0.83535,-0.62702 1.11759,-2.39264 2,-2.86889c1.14563,-0.6183 2.44599,-0.14984 3.66969,-0.19108c4.04759,-0.13642 7.37897,0.30792 11.28032,1.46686c2.22909,0.66217 4.75101,-0.63309 7,0c2.06873,0.58234 3.93171,2.28331 6,2.86889c2.7913,0.79028 5.51394,1.03326 8.12175,2.90363c2.91572,-0.07537 4.34017,0.42365 7,1.43444c1.84008,0.69926 4.11676,-0.65556 6,0c5.00154,1.74104 9.71181,5.93414 15.19586,4.30333c0.72984,-0.21703 1.27486,-1.18709 2,-1.43444c1.29716,-0.44248 2.70965,0.48174 4,0c3.34259,-1.24795 6.63113,-4.56508 10,-5.73778c0.24644,-0.08579 3.95056,-0.06716 4.40207,-0.06716c1.50799,0.04216 2.91949,1.10396 4.40207,1.50161c6.38203,1.71169 13.4835,-1.81119 19.87825,-0.03474c6.10143,1.69495 12.19809,3.5214 18.12175,5.77252c2.54944,0.96884 4.70647,-1.43444 7.19586,-1.43444c0.74602,-0.56965 3.44047,-2.67008 4,-2.86889c1.29422,-0.4599 2.71113,0.48979 4,0c0.7205,-0.27381 1.27486,-1.18709 2,-1.43444c4.60224,-1.56988 10.63893,-0.06716 15.40207,-0.06716c3.7818,0 7.37503,-1.4451 9.61679,4.41853c0.20959,0.54822 0.1107,8.44561 0.1163,8.50191c0.40589,4.0821 1.01682,6.94865 1.01691,11.10652c0,5.79035 -0.21589,10.59319 -1.0226,16.181c-0.27862,1.92989 0.29364,3.99504 -0.02422,5.91242c-0.17244,1.04017 -0.81923,1.83164 -1,2.86889c-0.16169,0.92774 0.18811,1.95146 0,2.86889c-0.15422,0.75211 -1.13856,1.14165 -0.97578,1.89004c0.24649,1.13323 1.53582,1.23705 1.88939,2.31036c0.86223,2.61743 -0.41173,6.29345 0.0864,8.99057c0.19088,1.03352 0.82756,1.82872 1,2.86889c1.02339,6.17323 -0.7265,13.23855 0.01524,19.46704c0.27727,2.32826 1.00927,4.56796 1.03157,6.92972c-0.02111,2.30439 0.67194,4.50757 0.9774,6.77012c0.37313,2.76379 -0.39522,5.86909 0,8.60667c0.39614,2.74388 1.89372,5.49826 0.88939,8.53497c-2.31019,6.98511 -6.34353,4.8418 -10.33647,5.82056c-1.03903,0.25469 -1.95961,1.19145 -3,1.43444c-2.72584,0.63665 -3.81556,-0.54878 -6.5376,0.00815c-2.28881,0.46829 -4.57486,0.96418 -6.86432,1.4258c-5.92672,1.19499 -11.39948,2.77023 -17.47977,2.89389c-24.47028,0.02639 -49.17797,1.65237 -73.50626,-2.22514c-24.18794,-3.85649 -48.55788,-6.37361 -72.89238,-6.37361c-14.44185,0 -28.62127,-2.12777 -43.02697,-2.86685c-9.02346,-0.46295 -18.07047,0.53459 -27.08514,-0.35342c-11.34306,-1.12214 -22.6381,-0.31353 -33.97094,-1.08589c-12.78704,-0.87147 -25.6361,-3.27076 -38.41045,-4.6793c-24.09194,-2.65652 -48.25756,-3.88611 -72.42478,-3.92289c-10.5353,-0.00156 -20.87414,0.6309 -31.37314,1.34902c-13.34232,0.91261 -26.84975,0.08377 -40.20858,0.08377c-2.62007,0 -6.36754,0.89568 -8.90207,-0.06715c-2.57776,-0.97927 -3.45132,-3.00631 -5.31024,-5.6526c-1.91927,-2.73222 -4.25914,-5.16043 -4.99087,-9.12379c-0.7005,-3.79418 -0.04682,-9.59413 -0.04682,-13.48675c0,-8.12746 -0.0491,-16.25844 0,-24.38556c0.02465,-4.08042 1.04682,-6.42168 1.04682,-10.61786c0.6429,-1.92926 1.65461,-3.65762 2,-5.73778c0.15447,-0.93028 -0.16761,-1.94331 0,-2.86889c0.37481,-2.06966 1.65461,-3.65762 2,-5.73778c0.15447,-0.93028 -0.16446,-1.94215 0,-2.86889c0.60457,-3.40665 2.31668,-6.67976 3,-10.04111c0.36809,-1.81073 -0.87319,-5.11027 -1.02422,-6.19337c-0.56492,-4.05113 -1.96451,-7.6029 -2.02259,-11.87766l1.12006,-1.02243c0.39514,-1.48785 1.62994,-1.48785 1.62994,-1.48785c0.00003,0 1.75,0.00001 1.75,2.51028c0,1.21386 -0.40919,1.84075 -0.83184,2.16451c0.02329,0.12266 0.0486,0.24252 0.07571,0.36002c-0.3346,-0.00919 -0.66604,-0.01424 -0.99387,-0.01424c0,0 -1.75,0 -1.75,-2.51028c0,-0.40164 0.0448,-0.73903 0.12006,-1.02243l1.62994,-1.48785z" fill="#ae6e36" stroke-width="0.5"/><path d="M60.07283,180.89264c0.08748,0.04371 0.17497,0.08741 0.2651,0.13244c0,0.13112 0,0.26224 0,0.39731c-0.13123,0.04371 -0.26245,0.08742 -0.39766,0.13245c0.04375,-0.21852 0.08749,-0.43704 0.13256,-0.6622z" fill="#218604" stroke-width="1"/><path d="M59.94027,180.49533c0.04375,0.1311 0.08749,0.26224 0.13256,0.39731c-0.13123,0 -0.26246,0 -0.39767,0c0.13256,-0.26486 0.13255,-0.26487 0.26511,-0.39731z" fill="#053702" stroke-width="1"/><path d="M489.5874,-58.52691l5.24186,272.99634l-497.96315,3.83876l-5.24186,-272.99634z" fill="url(#color-1)" stroke-width="0"/><g stroke-width="1"><path d="M454.29339,180.27677c0.31784,-0.01798 0.63467,-0.03104 0.95276,-0.04139c0.13391,-0.00833 0.1339,-0.00833 0.27053,-0.01681c0.52497,-0.01279 0.74259,0.04069 1.16117,0.36705c0.26666,0.35334 0.26666,0.35335 0.26666,0.75066c-0.59198,0.17743 -1.12344,0.12738 -1.72324,0c-0.30652,-0.19038 -0.30651,-0.19038 -0.53021,-0.39731c-0.17474,-0.09214 -0.35098,-0.18174 -0.53021,-0.26488c0.04376,-0.13112 0.08747,-0.26223 0.13254,-0.39732z" fill="#468a22"/><path d="M453.63061,179.74701c0.34994,0.0437 0.69992,0.08742 1.06046,0.13245c0,0.0874 0,0.1748 0,0.26488c0.08749,0.0437 0.17498,0.0874 0.26511,0.13243c-0.21869,0 -0.43744,0 -0.66278,0c-0.04373,0.13112 -0.08747,0.26222 -0.13254,0.39732c-0.21872,-0.21854 -0.43744,-0.43705 -0.66278,-0.6622c0.04376,-0.08741 0.08746,-0.1748 0.13254,-0.26488z" fill="#3ca810"/><path d="M118.66244,193.12332c0.76695,-0.01387 1.49696,0.00099 2.25344,0.13244c-0.04375,0.0874 -0.08749,0.17482 -0.13255,0.26488c-0.76067,0.02704 -1.40582,0.03594 -2.1209,-0.26488c0,-0.04371 0,-0.08741 0,-0.13244z" fill="#266d0d"/><path d="M454.29339,180.27677c0.34994,0 0.69992,0 1.06045,0c-0.10769,0.25661 -0.10769,0.25661 -0.26511,0.52975c-0.39767,0.13244 -0.39768,0.13244 -0.68763,0.00829c-0.07932,-0.04644 -0.1586,-0.09289 -0.24026,-0.14072c0.04376,-0.13112 0.08747,-0.26223 0.13254,-0.39732z" fill="#508925"/><path d="M347.12098,147.87204c0.30706,0.03078 0.61428,0.05972 0.92158,0.08817c9.47076,0.88197 18.94537,2.87595 27.80837,6.48764c0.24141,0.09826 0.48336,0.19509 0.7253,0.29187c0.42495,0.18175 0.42495,0.18174 0.75439,0.36892c0.88248,0.48236 1.60159,0.25222 2.50706,-0.03466c0.09587,-0.0316 0.19177,-0.06322 0.29056,-0.0958c0.40874,-0.13444 0.82016,-0.25895 1.23167,-0.38411c0.20996,-0.06395 0.41977,-0.12833 0.62943,-0.19315c6.2343,-1.92357 12.86476,-2.76143 19.34115,-3.18776c0.1431,-0.00961 0.14309,-0.00962 0.28909,-0.01941c1.92781,-0.12578 3.8541,-0.13965 5.78525,-0.13784c0.16052,0.00007 0.32098,0.00015 0.48633,0.00023c2.68681,0.00363 5.35882,0.06238 8.03693,0.28947c0.09911,0.00836 0.19817,0.01674 0.30025,0.02535c10.31869,0.88363 20.40929,3.12783 30.18674,6.64109c0.2305,0.08281 0.46112,0.16522 0.69177,0.2476c5.03806,1.80745 9.90597,4.03173 14.68275,6.47427c0.35995,0.18358 0.72075,0.36529 1.08147,0.54726c1.51857,0.77044 2.99835,1.59524 4.4652,2.46614c0.66557,0.39508 1.33801,0.77584 2.01228,1.15471c1.29497,0.73185 2.56052,1.51007 3.81747,2.3094c0.0947,0.0601 0.18938,0.12022 0.28693,0.18216c2.52863,1.61244 5.00058,3.3319 7.43604,5.09056c0.0976,0.07041 0.19525,0.1408 0.29584,0.21334c1.64507,1.19816 1.64507,1.19816 2.22512,1.79808c0.02907,0.334 0.02907,0.33399 0.025,0.75014c-0.00062,0.13378 -0.00127,0.26756 -0.00191,0.40539c-0.00351,0.25566 -0.00351,0.25566 -0.00707,0.51649c-0.00292,0.28392 -0.00572,0.56783 -0.00843,0.85177c-0.00144,0.14743 -0.00286,0.29489 -0.00434,0.4468c-0.00159,0.16847 -0.00158,0.16848 -0.00324,0.34037c-3.81866,0.14337 -7.63597,0.15265 -11.45679,0.15245c-0.93702,-0.00003 -1.87402,0.00074 -2.81105,0.00151c-1.7547,0.00143 -3.50942,0.00224 -5.26413,0.00273c-1.78115,0.00049 -3.56232,0.00128 -5.3435,0.0024c-0.16993,0.0001 -0.16993,0.00011 -0.34327,0.00023c-0.57813,0.00035 -1.15627,0.00074 -1.73443,0.0011c-4.19568,0.0027 -8.39138,0.00477 -12.58703,0.00653c-4.2111,0.00176 -8.42217,0.00382 -12.63323,0.00624c-0.13225,0.00008 -0.26444,0.00016 -0.40067,0.00025c-1.34556,0.00077 -2.69111,0.00154 -4.03667,0.00233c-2.88931,0.00168 -5.77864,0.00333 -8.66793,0.00495c-0.13826,0.00009 -0.27656,0.00016 -0.41897,0.00024c-6.48245,0.00366 -12.96488,0.00691 -19.4473,0.01009c-9.83179,0.00485 -19.66361,0.00996 -29.49537,0.01547c-0.14805,0.00009 -0.29609,0.00017 -0.44862,0.00025c-4.64288,0.00261 -9.28577,0.00526 -13.92868,0.0079c-0.14831,0.00009 -0.29665,0.00017 -0.44945,0.00026c-5.83643,0.00334 -11.67283,0.0067 -17.50923,0.01008c-0.14785,0.00009 -0.29571,0.00017 -0.44803,0.00026c-1.34364,0.00078 -2.68728,0.00157 -4.03087,0.00235c-4.04081,0.00235 -8.08159,0.00466 -12.1224,0.00697c-14.19034,0.00807 -28.3807,0.01618 -87.42298,0.06717c-0.64466,0.0007 -1.28928,0.00138 -1.93393,0.00208c-7.75642,0.0083 -15.51285,0.01683 -23.26926,0.02548c-13.53119,0.01513 -27.06237,0.02969 -40.59355,0.04265c-0.15934,0.00017 -0.3187,0.00032 -0.48287,0.00047c-13.01079,0.01246 -26.02159,0.02313 -96.63012,0.04104c-0.82,0.00003 -1.64004,0.00007 -2.46004,0.00012c-0.13489,0.00001 -0.13489,0.00001 -0.27251,0.00001c-2.79416,0.00014 -5.58833,0.0004 -8.38246,0.00076c-0.17854,0.00001 -0.35705,0.00005 -0.53559,0.00006c-0.71099,0.00009 -1.42197,0.00017 -2.13297,0.00028c-6.5597,0.00084 -13.1194,0.00117 -19.67909,0.00056c-0.62758,-0.00005 -1.25516,-0.00012 -1.88273,-0.00017c-0.15399,-0.00001 -0.30796,-0.00003 -0.46662,-0.00005c-2.2835,-0.0002 -4.56703,-0.00007 -6.85053,0.00027c-2.54663,0.00036 -5.09323,0.00029 -7.63986,-0.00041c-1.27965,-0.00035 -2.5593,-0.00051 -3.83897,-0.00005c-8.77085,0.00293 -8.77085,0.00293 -12.30365,-0.07657c-0.11914,-0.00258 -0.23831,-0.00514 -0.36107,-0.00779c-0.32152,-0.00728 -0.643,-0.01552 -0.96446,-0.02434c-0.13693,-0.00325 -0.13693,-0.00325 -0.27667,-0.00654c-0.3804,-0.01191 -0.67948,-0.0417 -1.04343,-0.16719c0,-0.48076 0,-0.96152 0,-1.45683c0.12677,0 0.25354,0 0.38414,0c-0.01716,-0.11217 -0.03432,-0.22434 -0.05202,-0.33989c0.07597,-0.66422 0.42381,-0.93207 0.88434,-1.37353c0.08293,-0.08235 0.16591,-0.16472 0.25138,-0.24959c0.47259,-0.46637 0.95033,-0.92776 1.44927,-1.364c0.23493,-0.20577 0.466,-0.41466 0.69627,-0.62598c1.18558,-1.08382 2.41467,-2.09159 3.6854,-3.06627c0.09498,-0.07313 0.18998,-0.14626 0.28787,-0.2216c1.24101,-0.95216 2.50262,-1.84798 3.82553,-2.67393c0.22706,-0.14227 0.45264,-0.28675 0.67795,-0.43197c8.96546,-5.7318 19.2802,-9.0403 29.78191,-9.78392c0.16266,-0.01158 0.32531,-0.02319 0.49291,-0.03514c1.57229,-0.10482 3.14189,-0.1239 4.71708,-0.12213c0.1317,0.00009 0.26339,0.00017 0.39909,0.00024c3.32955,0.00546 6.59981,0.24327 9.89936,0.69973c0.1514,0.02009 0.30283,0.0402 0.45886,0.06091c0.26676,0.03696 0.53305,0.07789 0.79843,0.12442c0.55324,0.0866 0.80515,0.12552 1.30318,-0.16826c0.11157,-0.11371 0.22316,-0.2274 0.33814,-0.34454c0.13029,-0.12465 0.26138,-0.24846 0.39314,-0.37146c0.06671,-0.06294 0.13345,-0.1259 0.2022,-0.19076c0.60474,-0.53923 1.31332,-0.95337 1.99764,-1.3747c0.13123,-0.08095 0.13123,-0.08095 0.26516,-0.16354c6.03403,-3.68054 13.32827,-5.13762 20.21734,-5.89951c0.26038,-0.02902 0.52065,-0.05934 0.7809,-0.08973c6.50832,-0.74245 13.33134,-0.60018 19.84034,0.0606c0.11332,0.01123 0.22663,0.02246 0.34338,0.03404c9.73984,0.96863 19.77181,2.79315 28.97285,6.31059c0.12909,0.0478 0.25817,0.09562 0.39115,0.14486c0.0736,0.0297 0.14718,0.05937 0.22298,0.08995c0.42964,0.06312 0.80079,-0.06969 1.21007,-0.19239c0.19138,-0.05467 0.3828,-0.1093 0.57421,-0.16387c0.1016,-0.02942 0.20324,-0.05885 0.30793,-0.08916c7.44094,-2.14279 15.19569,-3.3806 22.91045,-3.75013c0.1098,-0.00547 0.21963,-0.01096 0.33276,-0.01658c2.11695,-0.10377 4.23057,-0.14308 6.3498,-0.1407c0.15628,0.00016 0.31257,0.00033 0.47358,0.00052c12.29346,0.02501 24.60026,2.13092 47.04861,9.99291c0.1016,0.04483 0.2032,0.08964 0.3079,0.13583c0.1812,0.0806 0.36177,0.16277 0.54141,0.24697c0.49768,0.22285 0.76938,0.25807 1.28751,0.11127c0.21919,-0.09918 0.43501,-0.20654 0.64775,-0.31972c0.19309,-0.10051 0.19308,-0.10051 0.39009,-0.20305c0.14081,-0.07334 0.28164,-0.14665 0.42672,-0.22219c3.7244,-1.89195 7.66639,-3.32352 11.59644,-4.68503c0.0858,-0.02972 0.17161,-0.05948 0.26004,-0.09011c10.83569,-3.74013 22.23435,-5.8375 40.26897,-6.6988c0.5574,0.00151 1.11479,0.00062 1.67217,-0.0009c3.94463,-0.00914 7.88344,0.1326 11.8115,0.5238c0.16444,0.01604 0.16444,0.01604 0.33222,0.03243c4.02786,0.39763 8.04419,0.99147 12.00575,1.84543c0.08904,0.01901 0.17808,0.03804 0.26979,0.05763c0.23575,0.05065 0.47121,0.10254 0.70669,0.15454c0.77648,0.13304 1.24574,0.08513 1.9494,-0.28865c0.14793,-0.07689 0.2959,-0.15378 0.44833,-0.233c0.11674,-0.06172 0.11674,-0.06172 0.23587,-0.12471c1.81588,-0.95654 3.66773,-1.7546 5.58821,-2.46178c0.1237,-0.046 0.24743,-0.09197 0.37488,-0.13935c6.61553,-2.43721 13.63346,-3.76201 20.60878,-4.46781c0.26979,-0.02792 0.5394,-0.05783 0.809,-0.08821c6.8912,-0.76361 14.16686,-0.67067 21.05898,0.02984z" fill="#2c762d"/><path d="M106.3846,152.53757c0.11331,0.01123 0.22662,0.02246 0.34336,0.03404c9.73982,0.96863 19.77177,2.79315 28.97279,6.31059c0.19363,0.0717 0.19363,0.07171 0.39115,0.14486c0.0736,0.0297 0.14718,0.05937 0.22298,0.08995c0.42964,0.06312 0.80077,-0.06969 1.21007,-0.19239c0.19138,-0.05467 0.3828,-0.1093 0.57421,-0.16387c0.10162,-0.02942 0.20324,-0.05885 0.30793,-0.08916c7.44091,-2.14279 15.19567,-3.3806 22.91041,-3.75013c0.16471,-0.00822 0.16472,-0.00823 0.33276,-0.01658c2.11695,-0.10377 4.23056,-0.14308 6.34979,-0.1407c0.15628,0.00016 0.31257,0.00033 0.47358,0.00052c12.29343,0.02501 24.60021,2.13092 46.36826,9.69234c0.12535,0.05227 0.25071,0.10457 0.3799,0.15844c0.34608,0.14453 0.69151,0.2906 1.03664,0.43755c0.09915,0.04162 0.19835,0.08326 0.30052,0.12616c0.67316,0.29188 0.67316,0.29188 0.89827,0.53176c0.24775,0.24921 0.48144,0.3525 0.79997,0.49056c0.18413,0.0813 0.18413,0.08131 0.37198,0.16424c0.20112,0.08772 0.20113,0.08772 0.40631,0.17721c2.82542,1.26076 5.58281,2.65495 8.26897,4.20798c0.35544,0.20311 0.71327,0.40096 1.0721,0.59758c10.07942,5.53351 10.07941,5.53351 12.246,8.0041c0.89057,0.90138 2.14198,0.70849 3.29914,0.69829c0.25469,0.00065 0.50938,0.00168 0.76408,0.00301c0.70295,0.00267 1.40581,0.00035 2.10876,-0.00273c0.76495,-0.00249 1.52986,-0.00038 2.29481,0.00116c1.34384,0.00207 2.68763,0.00118 4.03148,-0.00166c1.44443,-0.00305 2.88883,-0.00437 4.33326,-0.00357c0.09133,0.00005 0.18263,0.00009 0.2767,0.00014c0.46584,0.00026 0.93168,0.00055 1.39752,0.00086c3.38872,0.00209 6.77745,0.00026 10.16617,-0.0036c3.40836,-0.00389 6.81669,-0.00618 10.22507,-0.00641c0.21618,-0.00001 0.43235,-0.00005 0.64853,-0.00006c0.87011,-0.00006 1.74018,-0.00011 2.61033,-0.00014c2.43835,-0.00009 4.87678,-0.00045 7.31516,-0.00099c0.16686,-0.00005 0.16686,-0.00004 0.33705,-0.00007c5.42965,-0.00124 10.85927,-0.00549 16.28892,-0.00995c7.23174,-0.00591 14.46341,-0.00986 21.69511,-0.01081c0.44612,-0.00008 0.89219,-0.00014 1.33828,-0.00019c1.00274,-0.00014 2.00552,-0.00028 3.00832,-0.00042c0.16532,-0.00003 0.16532,-0.00003 0.33395,-0.00005c0.5562,-0.00008 1.11246,-0.00014 1.66869,-0.00023c11.05998,-0.00146 22.11995,-0.00557 91.82586,-0.13325c0.71124,-0.00249 1.42249,-0.00494 2.13376,-0.00743c9.05112,-0.03145 18.10227,-0.06425 27.15336,-0.10308c0.4307,-0.00185 0.86141,-0.00371 1.2921,-0.00554c0.10595,-0.00046 0.21193,-0.00091 0.32113,-0.00137c1.56497,-0.0067 3.12998,-0.01312 4.69495,-0.01932c0.10052,-0.00039 0.20101,-0.00082 0.30458,-0.00121c0.9966,-0.00395 1.99318,-0.00785 2.98978,-0.0117c2.08795,-0.00811 4.17589,-0.01686 6.26384,-0.0271c1.47995,-0.00722 2.95991,-0.01354 4.43986,-0.01886c0.79065,-0.0029 1.5813,-0.00625 2.37196,-0.01077c0.71861,-0.00413 1.43723,-0.00702 2.15587,-0.00891c0.25812,-0.00089 0.51632,-0.00224 0.77444,-0.00412c1.34181,-0.00948 2.60123,0.03022 3.92357,0.28987c0,0.61186 0,1.22375 0,1.85415c-3.8189,0.13991 -7.63581,0.15265 -11.45677,0.15243c-0.93702,-0.00001 -1.87402,0.00074 -2.81104,0.00152c-1.7547,0.00143 -3.50941,0.00224 -5.26409,0.00273c-1.78118,0.00049 -3.56237,0.00128 -5.34352,0.00241c-0.16993,0.00009 -0.16992,0.00009 -0.34324,0.00021c-0.57816,0.00036 -1.1563,0.00073 -1.73445,0.00111c-4.19568,0.00269 -8.39136,0.00475 -12.58701,0.00652c-4.21109,0.00176 -8.42216,0.00382 -12.63323,0.00624c-0.13222,0.00008 -0.2644,0.00016 -0.40064,0.00025c-1.34556,0.00077 -2.6911,0.00154 -4.03669,0.00233c-2.88928,0.00168 -5.7786,0.00333 -8.66788,0.00495c-0.13826,0.00009 -0.27656,0.00016 -0.419,0.00024c-6.48241,0.00366 -12.96482,0.0069 -19.44723,0.01009c-9.83177,0.00485 -19.66357,0.00996 -29.49531,0.01547c-0.14805,0.00009 -0.29609,0.00017 -0.44862,0.00025c-4.6429,0.00261 -9.28575,0.00526 -13.92865,0.0079c-0.14835,0.00009 -0.29665,0.00017 -0.44945,0.00026c-5.83642,0.00334 -11.67283,0.0067 -17.50919,0.01008c-0.14785,0.00009 -0.29571,0.00017 -0.44803,0.00026c-1.34364,0.00078 -2.68728,0.00157 -4.03089,0.00235c-4.04076,0.00235 -8.08156,0.00467 -12.12231,0.00699c-14.19034,0.00806 -28.38066,0.01616 -87.42284,0.06715c-0.64466,0.0007 -1.28928,0.00138 -1.93392,0.00208c-7.7564,0.0083 -15.51281,0.01683 -23.26921,0.0255c-13.53117,0.01512 -27.06232,0.02967 -40.59347,0.04263c-0.15935,0.00017 -0.31868,0.00032 -0.48288,0.00047c-13.01076,0.01245 -26.02153,0.02313 -96.62991,0.04104c-0.82001,0.00003 -1.64004,0.00007 -2.46004,0.00012c-0.13489,0.00001 -0.13489,0.00001 -0.2725,0.00001c-2.79415,0.00014 -5.5883,0.0004 -8.38245,0.00076c-0.17852,0.00001 -0.35704,0.00005 -0.53556,0.00006c-0.71099,0.00009 -1.42197,0.00017 -2.13297,0.00028c-6.55969,0.00084 -13.11939,0.00117 -19.67908,0.00056c-0.62756,-0.00005 -1.25514,-0.00012 -1.88271,-0.00017c-0.15399,-0.00001 -0.30797,-0.00003 -0.46662,-0.00005c-2.28351,-0.0002 -4.56701,-0.00007 -6.8505,0.00027c-2.54661,0.00036 -5.09322,0.00029 -7.63982,-0.00041c-1.27966,-0.00035 -2.55931,-0.00051 -3.83897,-0.00005c-8.77084,0.00293 -8.77085,0.00293 -12.30363,-0.07657c-0.11917,-0.00258 -0.23832,-0.00514 -0.36109,-0.00779c-0.3215,-0.00728 -0.64296,-0.01552 -0.96444,-0.02434c-0.13695,-0.00325 -0.13695,-0.00325 -0.27665,-0.00654c-0.38042,-0.01191 -0.67949,-0.0417 -1.04345,-0.16719c0,-0.48076 0,-0.96152 0,-1.45683c0.12677,0 0.25354,0 0.38414,0c-0.01716,-0.11217 -0.03433,-0.22434 -0.05202,-0.33989c0.07599,-0.66422 0.42382,-0.93207 0.88434,-1.37353c0.08295,-0.08235 0.1659,-0.16472 0.25137,-0.24959c0.47262,-0.46637 0.95034,-0.92776 1.44927,-1.364c0.23494,-0.20577 0.46602,-0.41466 0.69626,-0.62598c1.1856,-1.08382 2.41468,-2.09159 3.68541,-3.06627c0.095,-0.07313 0.18998,-0.14626 0.28786,-0.2216c1.241,-0.95216 2.50262,-1.84798 3.82552,-2.67393c0.22707,-0.14227 0.45264,-0.28675 0.67794,-0.43197c8.96545,-5.7318 19.28017,-9.0403 29.78185,-9.78392c0.16266,-0.01158 0.32532,-0.02319 0.49291,-0.03514c1.57227,-0.10482 3.14189,-0.1239 4.71707,-0.12213c0.1317,0.00009 0.26341,0.00017 0.39909,0.00024c3.32956,0.00546 6.59981,0.24327 9.89933,0.69973c0.15142,0.02009 0.30285,0.0402 0.45886,0.06091c0.26677,0.03696 0.53308,0.07789 0.79843,0.12442c0.55325,0.0866 0.80517,0.12552 1.30318,-0.16826c0.11158,-0.11371 0.22317,-0.2274 0.33813,-0.34454c0.13031,-0.12465 0.26139,-0.24846 0.39315,-0.37146c0.06672,-0.06294 0.13345,-0.1259 0.2022,-0.19076c0.60474,-0.53923 1.31333,-0.95337 1.99764,-1.3747c0.13125,-0.08095 0.13125,-0.08095 0.26516,-0.16354c6.03404,-3.68054 13.32826,-5.13762 20.2173,-5.89951c0.26039,-0.02902 0.52065,-0.05934 0.7809,-0.08973c6.50831,-0.74245 13.33131,-0.60018 19.84031,0.0606z" fill="#4c8927"/><path d="M269.45049,153.04508c0.22803,-0.00044 0.45602,-0.00088 0.68408,-0.00135c0.47555,-0.00078 0.95108,-0.00103 1.4266,-0.00096c0.47555,0.00002 0.95108,-0.00089 1.42666,-0.00272c4.23697,-0.01597 8.46183,0.10942 12.68155,0.51563c0.11371,0.01074 0.22745,0.02148 0.34461,0.03254c4.88837,0.4673 9.72126,1.25818 14.52649,2.2603c0,0.08741 0,0.17482 0,0.26488c0.07297,0.01144 0.1459,0.02287 0.2211,0.03467c8.99124,1.51811 17.83985,5.00624 25.98523,9.02096c0.40402,0.19868 0.80908,0.39502 1.21457,0.59067c1.69675,0.82483 3.32587,1.74514 4.94528,2.71208c0.34533,0.2056 0.69202,0.40864 1.0394,0.61079c3.29538,1.92905 6.45572,4.11402 9.46225,6.46576c0.22744,0.17748 0.45593,0.35363 0.68448,0.5297c0.8451,0.65389 1.66232,1.32192 2.44604,2.04969c0.27393,0.25577 0.27393,0.25577 0.66126,0.50026c0,0.08742 0,0.17484 0,0.26488c0.12302,0.06146 0.12302,0.06146 0.24854,0.12416c0.18225,0.09105 0.36453,0.1821 0.54678,0.27316c0,0.0874 0,0.17482 0,0.26488c0.08747,0 0.17498,0 0.26511,0c0,0.17482 0,0.34964 0,0.52975c-10.20828,0.02497 -20.4165,0.04812 -30.62482,0.06169c-0.15106,0.00018 -0.30219,0.00038 -0.45783,0.0006c-3.28357,0.00437 -6.56717,0.00841 -9.85077,0.0121c-1.61026,0.00181 -3.22055,0.00371 -4.83081,0.00563c-0.24036,0.00029 -0.24035,0.00029 -0.48559,0.00058c-5.19376,0.00621 -10.38748,0.01714 -15.58121,0.03055c-5.33731,0.01373 -10.67462,0.02271 -16.01196,0.02567c-0.75387,0.00043 -1.50775,0.0009 -2.26163,0.0014c-0.2226,0.00016 -0.2226,0.00015 -0.44965,0.00031c-2.38831,0.00171 -4.77655,0.00847 -7.16483,0.01712c-2.40116,0.00858 -4.80222,0.01184 -7.20337,0.0097c-1.42655,-0.00111 -2.85293,0.00185 -4.27943,0.01062c-0.95343,0.00549 -1.90676,0.00563 -2.86019,0.00151c-0.543,-0.00218 -1.08574,-0.00212 -1.62873,0.00445c-3.85237,0.04391 -3.85237,0.04391 -5.10281,-1.07603c-0.18983,-0.18598 -0.37734,-0.37431 -0.56481,-0.56273c-0.28868,-0.21696 -0.58533,-0.41074 -0.88854,-0.60787c-0.14209,-0.0947 -0.28415,-0.18939 -0.43054,-0.28694c-0.21646,-0.14299 -0.21646,-0.14299 -0.43729,-0.28886c-0.07691,-0.05095 -0.15379,-0.1019 -0.23303,-0.15439c-6.63435,-4.39484 -13.61917,-8.25152 -20.94273,-11.37605c0,-0.17482 0,-0.34964 0,-0.52976c3.43619,-1.8247 7.07707,-3.19772 10.73701,-4.50293c0.17217,-0.06183 0.34433,-0.12367 0.51649,-0.18553c10.89293,-3.90183 22.41928,-6.28467 42.22702,-7.65059z" fill="#154f25"/><path d="M352.32339,147.87204c0.31787,0.03078 0.6359,0.05972 0.95401,0.08817c9.50348,0.85493 19.03583,2.74748 27.96463,6.15834c0.09348,0.03565 0.18691,0.07132 0.2832,0.10805c1.04535,0.40135 2.06617,0.83062 3.05554,1.35706c-0.34189,0.34163 -0.63702,0.40373 -1.09875,0.5489c-0.17651,0.05649 -0.353,0.11305 -0.52948,0.16967c-0.09366,0.02981 -0.18732,0.05964 -0.28378,0.09035c-3.36883,1.07766 -6.61429,2.42503 -9.81275,3.93288c-0.30954,0.14519 -0.62021,0.28747 -0.9317,0.42848c-5.70301,2.59662 -11.19046,6.14749 -16.01401,10.13887c-0.30951,0.25421 -0.62426,0.50156 -0.93914,0.74904c-0.54983,0.43784 -1.07309,0.90036 -1.5917,1.37457c-0.27981,0.25329 -0.5625,0.50181 -0.84762,0.7491c-0.57181,0.49875 -1.12647,1.01421 -1.67817,1.53496c-0.14801,0.13956 -0.14801,0.13955 -0.29898,0.28193c-1.44211,1.36222 -1.44211,1.36221 -2.74411,2.85571c-0.21283,0.18986 -0.21283,0.18987 -0.74304,0.18987c-0.31482,-0.21417 -0.31482,-0.21418 -0.66278,-0.5132c-0.13004,-0.10996 -0.26008,-0.21988 -0.39405,-0.33316c-0.13241,-0.11405 -0.26486,-0.22809 -0.40131,-0.34558c-1.36673,-1.16876 -2.79379,-2.24523 -4.24176,-3.31097c-0.08234,-0.06076 -0.16464,-0.1215 -0.24945,-0.18411c-4.18683,-3.07812 -8.66519,-5.73583 -13.28967,-8.09778c-0.36942,-0.18918 -0.73757,-0.38067 -1.10568,-0.57236c-3.60776,-1.8597 -7.38428,-3.41852 -11.20355,-4.78695c-0.08789,-0.03159 -0.17578,-0.06319 -0.26636,-0.0957c-2.80438,-1.0065 -5.63171,-1.8897 -8.50491,-2.67827c-0.45334,-0.12474 -0.90594,-0.25166 -1.35837,-0.37973c-1.36084,-0.38231 -2.72302,-0.70897 -4.10974,-0.98346c-0.47431,-0.10088 -0.4743,-0.10087 -0.73941,-0.23332c0.13254,-0.39731 0.13253,-0.39731 0.44577,-0.59162c0.13842,-0.06717 0.27686,-0.13433 0.41947,-0.20354c0.15528,-0.0756 0.31057,-0.15121 0.47058,-0.22911c0.17047,-0.08088 0.34103,-0.16161 0.51169,-0.24219c0.12927,-0.06169 0.12928,-0.06169 0.26114,-0.1246c1.73526,-0.82641 3.50329,-1.54053 5.31448,-2.18479c0.12805,-0.046 0.25614,-0.09197 0.38807,-0.13935c6.84836,-2.43721 14.11328,-3.76201 21.3341,-4.46781c0.27929,-0.02792 0.55838,-0.05783 0.83747,-0.08821c7.13373,-0.76361 14.66546,-0.67067 21.80014,0.02984z" fill="#5f9a46"/><path d="M101.0442,152.53757c0.17595,0.01686 0.17594,0.01686 0.35545,0.03404c9.78669,0.9402 21.77445,2.14775 30.66257,6.58789c0,0.13111 0,0.26223 0,0.39731c-0.10557,0.0318 -0.21119,0.0636 -0.31996,0.09636c-7.9937,2.41996 -15.79759,5.60296 -23.00983,9.83655c-0.12237,0.07178 -0.24473,0.14359 -0.37081,0.21755c-3.62438,2.13925 -7.15112,4.48813 -10.41138,7.15201c-0.20615,0.16822 -0.41339,0.33504 -0.62071,0.50176c-0.72786,0.58769 -1.41521,1.19647 -2.07947,1.85569c-0.30343,0.2059 -0.30343,0.2059 -0.61048,0.21884c-0.52288,-0.21368 -0.92052,-0.54624 -1.35818,-0.89862c-7.62825,-5.97688 -16.65094,-10.88265 -25.90635,-13.81501c-0.20175,-0.06576 -0.40336,-0.13195 -0.60479,-0.19866c-0.08587,-0.02842 -0.17172,-0.05683 -0.26019,-0.08611c-0.23938,-0.08216 -0.47751,-0.16794 -0.71482,-0.25586c-1.20101,-0.44312 -2.40963,-0.79385 -3.64786,-1.11487c-0.09773,-0.02559 -0.19547,-0.05118 -0.29617,-0.07753c-2.24389,-0.58708 -4.50013,-1.14952 -6.80385,-1.44551c0.06542,-0.54889 0.33343,-0.74765 0.75391,-1.08435c6.64404,-5.2218 15.68081,-7.0147 23.89591,-7.89235c0.26956,-0.02902 0.53897,-0.05934 0.80838,-0.08973c6.73738,-0.74245 13.80053,-0.60018 20.53862,0.0606z" fill="#499f30"/><path d="M484.40899,180.01673c0,0.5935 0,1.18704 0,1.79853c-3.83471,0.13571 -7.66743,0.14807 -11.50421,0.14786c-0.9409,-0.00001 -1.88178,0.00072 -2.82268,0.00147c-1.76197,0.00138 -3.52394,0.00217 -5.28592,0.00265c-1.78852,0.00048 -3.57706,0.00124 -5.36561,0.00234c-0.17063,0.00009 -0.17062,0.00009 -0.34466,0.0002c-0.58055,0.00035 -1.16109,0.00071 -1.74164,0.00108c-4.21305,0.00261 -8.42611,0.00461 -12.63913,0.00632c-4.22853,0.00171 -8.45703,0.0037 -12.68551,0.00606c-0.13279,0.00006 -0.26554,0.00014 -0.40233,0.00022c-1.35113,0.00075 -2.70225,0.00149 -4.05338,0.00226c-2.90127,0.00163 -5.80256,0.00323 -8.7038,0.0048c-0.13884,0.00009 -0.2777,0.00016 -0.42071,0.00023c-6.50928,0.00355 -13.01853,0.00669 -19.52779,0.00979c-9.87249,0.0047 -19.74499,0.00966 -29.61745,0.01501c-0.14866,0.00009 -0.29731,0.00016 -0.45048,0.00024c-4.66212,0.00253 -9.3242,0.0051 -13.98632,0.00766c-0.14892,0.00009 -0.29788,0.00016 -0.45131,0.00025c-5.86058,0.00324 -11.72117,0.0065 -17.5817,0.00978c-0.14846,0.00009 -0.29694,0.00017 -0.44989,0.00025c-1.3492,0.00076 -2.6984,0.00152 -4.04758,0.00228c-4.05749,0.00228 -8.11502,0.00453 -12.17251,0.00678c-14.2491,0.00784 -28.49818,0.01568 -87.78484,0.06514c-0.64731,0.00068 -1.29462,0.00135 -1.94193,0.00202c-7.78852,0.00805 -15.57706,0.01633 -23.36556,0.02473c-13.5872,0.01467 -27.17438,0.02878 -40.76156,0.04135c-0.16,0.00015 -0.32002,0.00031 -0.48486,0.00046c-13.06464,0.01208 -26.12929,0.02242 -97.03002,0.03981c-0.82343,0.00003 -1.64684,0.00007 -2.47026,0.00012c-0.13545,0.00001 -0.13545,0.00001 -0.27363,0.00001c-2.80573,0.00014 -5.61143,0.00039 -8.41716,0.00074c-0.17925,0.00001 -0.35852,0.00005 -0.53776,0.00006c-0.71394,0.00009 -1.42787,0.00016 -2.1418,0.00027c-6.58688,0.0008 -13.17373,0.00113 -19.76058,0.00054c-0.63018,-0.00005 -1.26033,-0.00012 -1.89051,-0.00016c-0.15463,-0.00001 -0.30924,-0.00003 -0.46855,-0.00005c-2.29295,-0.00019 -4.5859,-0.00007 -6.87888,0.00026c-2.55713,0.00035 -5.11432,0.00028 -7.67146,-0.0004c-1.28497,-0.00034 -2.56991,-0.00048 -3.85486,-0.00005c-8.80719,0.00284 -8.80718,0.00284 -12.35457,-0.07427c-0.11966,-0.0025 -0.23934,-0.00499 -0.36261,-0.00756c-0.32284,-0.00706 -0.64562,-0.01505 -0.96842,-0.02361c-0.09169,-0.0021 -0.18335,-0.00418 -0.27782,-0.00634c-0.382,-0.01155 -0.68233,-0.04047 -1.04778,-0.16217c0,-0.46634 0,-0.93267 0,-1.41313c0.09725,0.00005 0.19453,0.00012 0.29473,0.00016c6.71967,0.0034 13.43933,-0.00171 20.159,-0.00992c0.10435,-0.00012 0.20872,-0.00025 0.31623,-0.00038c2.80793,-0.00343 5.61582,-0.00701 8.42374,-0.01066c1.70191,-0.0022 3.40384,-0.00437 5.10571,-0.00654c0.24978,-0.00031 0.49953,-0.00062 0.74928,-0.00093c0.12425,-0.00016 0.24846,-0.00031 0.37641,-0.00048c0.12463,-0.00016 0.24922,-0.00031 0.37758,-0.00048c0.18747,-0.00024 0.18747,-0.00024 0.37874,-0.00049c5.04195,-0.00637 10.08395,-0.01289 15.1259,-0.01944c0.69218,-0.0009 1.38439,-0.00179 2.07661,-0.00271c0.20646,-0.00026 0.20646,-0.00027 0.41709,-0.00053c2.10451,-0.00274 4.20901,-0.00544 6.31353,-0.00815c0.14,-0.00017 0.27998,-0.00036 0.42419,-0.00055c0.56683,-0.00071 1.13367,-0.00145 1.7005,-0.00217c14.11829,-0.01813 28.23659,-0.03644 68.27338,-0.09682c0.59089,-0.00099 1.18175,-0.00199 1.77264,-0.00299c4.00057,-0.0067 8.00112,-0.01346 12.00169,-0.02024c1.74878,-0.00296 3.49757,-0.00592 5.24637,-0.00887c0.29375,-0.0005 0.5875,-0.00101 0.88123,-0.00149c6.32106,-0.01068 12.64212,-0.02116 18.96318,-0.03113c0.15767,-0.00025 0.15767,-0.00025 0.31853,-0.0005c12.52872,-0.01974 25.05743,-0.03596 75.16405,-0.08878c7.592,-0.0077 15.18397,-0.01553 22.77598,-0.0234c0.16254,-0.00016 0.32509,-0.00033 0.49255,-0.00052c14.74076,-0.01528 29.48151,-0.03068 44.22224,-0.04644c0.71575,-0.00078 1.43149,-0.00152 2.14721,-0.00229c12.49624,-0.01332 24.99249,-0.02703 44.43804,-0.05213c1.48129,-0.00196 2.9626,-0.00388 4.44389,-0.00578c10.90986,-0.01404 21.81969,-0.02912 62.12786,-0.13974c0.83578,-0.0029 1.67153,-0.00575 2.50735,-0.00861c0.11741,-0.00042 0.2348,-0.00081 0.35579,-0.00123c0.11725,-0.0004 0.23448,-0.00081 0.35532,-0.00123c8.72236,-0.02986 17.44476,-0.06027 26.16712,-0.09623c2.19002,-0.00903 4.38003,-0.01794 6.57005,-0.0262c0.1492,-0.00056 0.1492,-0.00056 0.30144,-0.00115c0.98596,-0.00372 1.97185,-0.0074 2.9578,-0.01101c2.06197,-0.00761 4.12393,-0.01583 6.18588,-0.02548c1.46107,-0.00681 2.92216,-0.01269 4.38324,-0.01764c0.77957,-0.00268 1.55911,-0.00577 2.33868,-0.01007c0.70873,-0.0039 1.41747,-0.00656 2.12617,-0.00827c0.25393,-0.00081 0.50782,-0.00209 0.76172,-0.00384c1.5147,-0.0103 2.98143,0.06522 4.48136,0.28152z" fill="#549f15"/></g><path d="M0.31171,187.04097v-5.38614h484.75219v5.38614z" fill="#496f2d" stroke-width="0"/><g stroke-width="1"><path d="M355.73818,169.80924c0.43428,0.26133 0.62581,0.44368 0.75102,0.9446c0.07547,0 0.15096,0 0.22873,0c0.32297,0.0975 0.3321,0.13005 0.48405,0.40962c0.15592,0.28419 0.26396,0.40254 0.56384,0.52667c0.40939,0.17646 0.59823,0.4432 0.76598,0.85117c0.03557,0.18353 0.03557,0.18353 0.0532,0.36174c0.00196,0.31126 0.00196,0.31126 0.15925,0.47878c0.24738,0.34958 0.17826,0.79278 0.12799,1.20229c-0.09261,0.24621 -0.20884,0.45169 -0.34044,0.68093c0.02808,0.05618 0.05618,0.11235 0.08511,0.17024c0.05277,0.5075 -0.01816,0.82299 -0.25532,1.27676c0.02367,0.20376 0.02367,0.20376 0.08511,0.42559c0.00863,0.2555 0.00501,0.51048 0,0.76606c0.05398,0.02523 0.10795,0.05047 0.16357,0.07647c0.22783,0.12078 0.26948,0.18843 0.34709,0.43423c0.04413,0.54724 -0.01045,0.89232 -0.36904,1.33062c-0.42956,0.43379 -0.9135,0.48577 -1.50336,0.54195c-0.02897,0.1422 -0.02897,0.1422 -0.05851,0.28727c-0.06968,0.28465 -0.17017,0.51137 -0.31385,0.76606c-0.51621,1.00801 -0.60593,2.1053 -0.56628,3.22056c0.01636,0.51705 -0.00591,1.01809 -0.16778,1.51408c-0.17554,0.13299 -0.17554,0.13299 -0.42554,0.17023c-0.05453,0.00888 -0.10906,0.01778 -0.16523,0.02693c-1.34181,0.18965 -1.34181,0.18965 -1.67591,-0.03542c-0.17453,-0.24258 -0.14365,-0.43878 -0.1383,-0.73462c0.0006,-0.05645 0.00121,-0.11291 0.00183,-0.17106c0.00138,-0.12058 0.00333,-0.24115 0.00578,-0.36171c0.00614,-0.31136 0.00776,-0.62276 0.01001,-0.93417c0.00055,-0.06051 0.00109,-0.12102 0.00165,-0.18336c0.00939,-1.13754 0.01526,-2.31184 -0.59309,-3.30944c0,-0.05618 0,-0.11235 0,-0.17024c-0.11421,0.01367 -0.11421,0.01367 -0.23072,0.02761c-0.74388,0.07375 -1.39809,0.10219 -2.02467,-0.35211c-0.15275,-0.22279 -0.22707,-0.43722 -0.29788,-0.6969c-0.31997,0.20211 -0.41481,0.29289 -0.50002,0.6703c-0.01141,0.05871 -0.02282,0.1174 -0.03457,0.17788c-0.11254,0.31869 -0.37481,0.5119 -0.65694,0.68393c-0.29042,0.10301 -0.57684,0.09929 -0.883,0.10107c-0.09369,0.00121 -0.18739,0.00241 -0.28392,0.00366c-0.2897,-0.0203 -0.5203,-0.08654 -0.79058,-0.18986c-0.0357,0.11045 -0.0357,0.11045 -0.07215,0.2231c-0.09292,0.27249 -0.1973,0.53692 -0.30553,0.80363c-0.21549,0.55717 -0.357,1.11192 -0.47342,1.69702c-0.01558,0.07483 -0.03115,0.14966 -0.04721,0.22676c-0.13997,0.71286 -0.21371,1.43495 -0.29323,2.15651c0.05618,0 0.11234,0 0.17022,0c-0.02807,0.14045 -0.05617,0.2809 -0.0851,0.4256c-0.47587,0.08612 -0.91235,0.08132 -1.39366,0.04787c-0.13718,-0.00896 -0.27437,-0.01772 -0.41159,-0.02627c-0.10051,-0.0064 -0.10051,-0.0064 -0.20305,-0.01293c-0.2722,-0.01155 -0.54297,-0.00435 -0.81514,0.00626c-0.15538,-0.01494 -0.15538,-0.01494 -0.3256,-0.18518c-0.06437,-0.36481 0.08184,-0.58556 0.24802,-0.90204c0.36578,-0.80928 0.40008,-1.71417 0.42749,-2.58842c0.00491,-0.15499 0.01184,-0.30993 0.019,-0.46482c0.01561,-0.53751 -0.04626,-0.91713 -0.26896,-1.4071c-0.02807,-0.08427 -0.05617,-0.16852 -0.0851,-0.25534c-0.10351,0.03686 -0.10351,0.03686 -0.20911,0.07448c-0.73378,0.24604 -1.35694,0.36307 -2.12074,0.20747c-0.38905,-0.19455 -0.6571,-0.47509 -0.81918,-0.87778c-0.00993,-0.14871 -0.01489,-0.29781 -0.01596,-0.44686c-0.03762,-0.55114 -0.28412,-0.79794 -0.66491,-1.17036c-0.14783,-0.29568 -0.12436,-0.61302 -0.08511,-0.9363c0.18927,-0.37154 0.40745,-0.63755 0.76598,-0.85117c0.15718,-0.02854 0.31512,-0.053 0.47342,-0.07448c0.39307,-0.05586 0.39307,-0.05586 0.67555,-0.34046c0.04213,-0.08778 0.08427,-0.17555 0.12767,-0.26599c0.08415,-0.11421 0.16884,-0.22803 0.25532,-0.34047c-0.09479,-0.08953 -0.09479,-0.08953 -0.19149,-0.18088c-0.41623,-0.4352 -0.63651,-0.77645 -0.6729,-1.3805c0.03156,-0.53641 0.23338,-1.00008 0.62502,-1.36985c0.37458,-0.28579 0.81307,-0.4307 1.27597,-0.50206c0.16797,-0.04135 0.16797,-0.04135 0.22906,-0.20182c0.02387,-0.08871 0.02387,-0.08871 0.04821,-0.17921c0.11693,-0.34896 0.23879,-0.49793 0.55852,-0.6969c0.04718,-0.03159 0.09436,-0.0632 0.14296,-0.09575c0.49801,-0.2976 0.99112,-0.32021 1.55922,-0.24472c0.37598,0.11251 0.61254,0.25076 0.8511,0.56391c0.0851,0.20215 0.0851,0.20215 0.0851,0.37239c0.07109,-0.02371 0.07109,-0.02371 0.14363,-0.04789c0.19681,-0.03724 0.19681,-0.03724 0.40427,0.02128c0.23147,0.05367 0.23147,0.05367 0.42554,-0.12768c0.07196,-0.06145 0.14394,-0.12289 0.21809,-0.18619c0.50162,-0.2389 1.11939,-0.27438 1.64965,-0.10573c0.46915,0.21988 0.67865,0.45713 0.85574,0.94094c0.02063,0.05947 0.04126,0.11894 0.06251,0.1802c0.06948,0.17373 0.15383,0.31313 0.25666,0.46881c0.19113,0.37571 0.18791,0.65704 0.15426,1.06929c0.04224,-0.02458 0.08447,-0.04916 0.128,-0.07448c0.40904,-0.22356 0.6834,-0.30477 1.14863,-0.26599c0,-0.08427 0,-0.16853 0,-0.25536c-0.05222,-0.01986 -0.10444,-0.03972 -0.15825,-0.06018c-0.33964,-0.20516 -0.41464,-0.59597 -0.52262,-0.96123c-0.06886,-0.49925 0.0479,-0.87389 0.34043,-1.27676c0.55967,-0.53947 1.09241,-0.70104 1.85778,-0.69523c0.18484,0.01429 0.18484,0.01429 0.35506,0.09942c0.0316,-0.09744 0.0316,-0.09744 0.06383,-0.19683c0.14949,-0.32144 0.33592,-0.42248 0.63831,-0.5905c0.5276,-0.14391 0.97848,0.01502 1.44054,0.26832zM350.19113,175.69063c-0.10799,0.13711 -0.10798,0.13711 -0.17022,0.34047c0.0537,0.19946 0.11088,0.39798 0.17022,0.59582c0,0.11532 -0.00359,0.23069 -0.01064,0.34579c0.01299,0.40928 0.10175,0.53416 0.35107,0.84585c0.18612,-0.16586 0.18612,-0.16586 0.28193,-0.42026c0.15768,-0.28618 0.28002,-0.37535 0.56916,-0.51602c-0.1132,-0.30568 -0.29867,-0.45665 -0.55121,-0.655c-0.18339,-0.15708 -0.31969,-0.34861 -0.4701,-0.53664c-0.05617,0 -0.11234,0 -0.17022,0zM350.70179,178.15903c0.0851,0.34047 0.08511,0.34047 0.08511,0.34047zM345.12349,179.65191c-0.29892,0.36576 -0.29892,0.36576 -0.38464,0.81592c0.09745,0.26373 0.21074,0.50884 0.34575,0.75541c0.23044,-0.20484 0.41228,-0.42711 0.58513,-0.68093c0.03839,-0.05618 0.0768,-0.11235 0.11636,-0.17024c0.08624,-0.17155 0.08624,-0.17155 -0.00133,-0.34978c-0.1136,-0.17514 -0.22372,-0.34271 -0.35972,-0.50139c-0.18105,-0.02003 -0.18105,-0.02003 -0.30154,0.13101zM354.87213,179.69115c-0.19788,0.10755 -0.19788,0.10755 -0.34044,0.25534c0.02413,0.1225 0.04914,0.24482 0.07447,0.36707c0.01384,0.06813 0.02765,0.13628 0.04189,0.20647c0.04917,0.21405 0.04917,0.21406 0.22408,0.44787c0.22469,-0.30898 0.44938,-0.61796 0.68087,-0.93629c-0.23351,-0.1557 -0.411,-0.26806 -0.68087,-0.34047z" fill="#355116"/><path d="M345.48686,171.53086c0.25129,0.28143 0.33729,0.55546 0.36371,0.92532c0.21065,0.04213 0.21065,0.04213 0.42554,0.08511c0.02808,-0.11235 0.05618,-0.22471 0.08511,-0.34047c0.15426,0.04256 0.15426,0.04256 0.34044,0.17023c0.27101,0.53241 0.30716,1.02496 0.25532,1.61723c-0.02808,0.05618 -0.05617,0.11235 -0.08511,0.17024c-0.05618,0 -0.11234,0 -0.17022,0c0.00444,0.11093 0.00444,0.11093 0.00897,0.22409c0.02441,1.0392 0.02441,1.0392 -0.2643,1.39313c-0.28192,0.14364 -0.28192,0.14364 -0.59576,0.25536c-0.07548,0.04916 -0.15096,0.09831 -0.22873,0.14896c-0.37186,0.14034 -0.66631,0.09554 -1.05621,0.04888c-0.24397,-0.03343 -0.24397,-0.03343 -0.4784,-0.01895c-0.3037,-0.01352 -0.41603,-0.22061 -0.61971,-0.43424c-0.23565,-0.13257 -0.46226,-0.23855 -0.71744,-0.32717c-0.47492,-0.21366 -0.9574,-0.72338 -1.15495,-1.20493c-0.05983,-0.31707 -0.05887,-0.50479 0.11869,-0.77936c0.3385,-0.40712 0.60863,-0.62867 1.14598,-0.69988c0.08119,-0.00516 0.16237,-0.01032 0.24602,-0.01563c0.29251,0.00427 0.29251,0.00427 0.53193,-0.12235c0.00703,-0.10534 0.01405,-0.21066 0.02128,-0.31919c0.03336,-0.29498 0.06588,-0.36434 0.26065,-0.61178c0.3973,-0.30494 1.12184,-0.45579 1.5672,-0.16458z" fill="#297329"/><path d="M346.61655,180.11673c0.23938,0.20215 0.23938,0.20215 0.42554,0.42559c0.08427,0.05618 0.16852,0.11235 0.25533,0.17023c-0.05667,0.36494 -0.18586,0.68414 -0.3298,1.02141c-0.24157,0.5852 -0.40173,1.1648 -0.52129,1.78746c-0.01547,0.07461 -0.03094,0.14922 -0.04687,0.2261c-0.14064,0.71295 -0.21404,1.43541 -0.29357,2.15718c0.05618,0 0.11234,0 0.17022,0c-0.02807,0.14045 -0.05617,0.2809 -0.0851,0.4256c-0.47587,0.08612 -0.91235,0.08132 -1.39366,0.04787c-0.13718,-0.00896 -0.27437,-0.01772 -0.41159,-0.02627c-0.10051,-0.0064 -0.10051,-0.0064 -0.20305,-0.01293c-0.2722,-0.01155 -0.54297,-0.00434 -0.81514,0.00626c-0.15538,-0.01494 -0.15538,-0.01494 -0.3256,-0.18518c-0.06437,-0.36481 0.08184,-0.58556 0.24802,-0.90204c0.36578,-0.80928 0.40008,-1.71417 0.42749,-2.58842c0.00491,-0.15499 0.01184,-0.30992 0.019,-0.46482c0.01564,-0.53897 -0.04926,-0.91491 -0.26896,-1.4071c-0.03041,-0.11295 -0.05933,-0.22636 -0.0851,-0.34046c0.08476,-0.00774 0.08476,-0.00774 0.17122,-0.01563c0.55639,-0.05235 0.55639,-0.05235 1.10542,-0.15461c0.1736,0.27621 0.31194,0.54527 0.42554,0.85117c0.25203,-0.23366 0.40718,-0.49376 0.58014,-0.788c0.21856,-0.32175 0.59876,-0.29588 0.95182,-0.2334z" fill="#5c4012"/><path d="M356.04238,179.93053c0.08909,-0.0012 0.17817,-0.00241 0.26995,-0.00366c0.26374,0.01976 0.44945,0.0783 0.68752,0.18986c0.05384,0.46663 -0.00585,0.72673 -0.23404,1.13844c-0.55187,1.0463 -0.66092,2.13747 -0.61949,3.30573c0.0164,0.51704 -0.00591,1.01807 -0.16777,1.51403c-0.17554,0.13299 -0.17554,0.13299 -0.42554,0.17023c-0.08178,0.01334 -0.08178,0.01334 -0.16523,0.02693c-1.34181,0.18965 -1.34181,0.18965 -1.67591,-0.03542c-0.17453,-0.24258 -0.14365,-0.43878 -0.1383,-0.73462c0.0006,-0.05645 0.00121,-0.11291 0.00183,-0.17106c0.00138,-0.12058 0.00333,-0.24115 0.00578,-0.36171c0.00614,-0.31136 0.00776,-0.62276 0.01001,-0.93417c0.00083,-0.09076 0.00083,-0.09076 0.00165,-0.18336c0.00939,-1.13754 0.01526,-2.31184 -0.59309,-3.30944c0,-0.05618 0,-0.11235 0,-0.17024c0.23054,-0.11528 0.42634,-0.09066 0.68088,-0.08512c0,-0.05618 0,-0.11235 0,-0.17023c0.28086,-0.02808 0.56171,-0.05618 0.85108,-0.08512c0.11234,0.28088 0.22469,0.56177 0.34044,0.85117c0.04202,-0.06047 0.08404,-0.12092 0.12733,-0.18321c0.08178,-0.11735 0.08179,-0.11735 0.16523,-0.23707c0.05431,-0.07801 0.10861,-0.15601 0.16457,-0.23639c0.22913,-0.32149 0.31565,-0.29316 0.71312,-0.29559z" fill="#5c4012"/><path d="M348.77619,175.98854c0.39269,0.05417 0.48865,0.16236 0.73408,0.46815c0.0674,0.30654 0.08502,0.59991 0.10638,0.91269c0.07962,0.34796 0.21072,0.41163 0.48938,0.61943c0.07517,0.26101 0.05154,0.50071 0,0.76606c-0.14895,0.25534 -0.14895,0.25534 -0.34044,0.42559c-0.16851,0.04213 -0.16851,0.04213 -0.34044,0.08511c0,0.2528 0,0.50558 0,0.76606c-0.51858,0.30732 -0.92794,0.43716 -1.53196,0.34046c-0.30803,-0.10685 -0.5819,-0.23213 -0.80388,-0.47513c-0.16814,-0.15337 -0.28668,-0.16429 -0.50998,-0.19517c-0.27892,-0.05633 -0.38058,-0.08935 -0.60641,-0.27663c-0.17162,-0.34328 -0.16486,-0.54287 -0.12234,-0.92565c0.08245,-0.11543 0.16718,-0.22933 0.25532,-0.34047c-0.01995,-0.28289 -0.01995,-0.28289 -0.17021,-0.5107c-0.05976,-0.59763 -0.05976,-0.59764 0.17553,-0.92565c0.554,-0.4008 1.17991,-0.3783 1.83915,-0.39865c0.38067,-0.0505 0.45469,-0.28049 0.82582,-0.33548z" fill="#8bc839"/><path d="M342.36111,176.0311c0.42683,0.0019 0.74936,0.0199 1.06385,0.32982c0.16413,0.18148 0.218,0.28167 0.29789,0.52135c0.21064,0.04214 0.21064,0.04214 0.42554,0.08511c0.02808,-0.08427 0.05618,-0.16853 0.08511,-0.25534c0.23404,-0.0266 0.23404,-0.0266 0.51065,0c0.30708,0.30712 0.41211,0.55332 0.45746,0.98416c-0.00251,0.4523 -0.21915,0.99055 -0.54256,1.314c-0.0079,0.1422 -0.0079,0.1422 -0.01596,0.28727c-0.06916,0.30855 -0.06916,0.30855 -0.29789,0.47346c-0.2877,0.09229 -0.49306,0.12448 -0.79257,0.09044c-0.05618,-0.05618 -0.11234,-0.11235 -0.17022,-0.17023c-0.28975,0.01705 -0.49264,0.12059 -0.73939,0.26067c-0.39038,0.20186 -0.78654,0.26067 -1.21812,0.16492c-0.23938,-0.13632 -0.23938,-0.13632 -0.42555,-0.34047c-0.01761,-0.27596 -0.01761,-0.27596 0.01596,-0.58518c0.03031,-0.42875 0.03031,-0.42875 -0.15991,-0.79199c-0.17387,-0.12505 -0.34736,-0.2262 -0.53691,-0.32518c-0.05618,-0.05618 -0.11234,-0.11235 -0.17022,-0.17023c0,-0.30732 0.08587,-0.42651 0.28192,-0.66498c0.38468,-0.30248 0.87286,-0.21986 1.33515,-0.18619c0.00703,-0.09305 0.01405,-0.18609 0.02128,-0.28196c0.06383,-0.31387 0.06383,-0.31387 0.22873,-0.47878c0.17554,-0.09044 0.17554,-0.09044 0.34576,-0.09044c0,-0.05617 0,-0.11234 0,-0.17023z" fill="#8cc839"/><path d="M353.51039,173.22223c0.24463,0.16311 0.3127,0.25729 0.40426,0.53198c0.00703,0.04916 0.01405,0.09832 0.02128,0.14896c0.16851,0 0.33703,0 0.51066,0c0.02807,-0.14045 0.05617,-0.28089 0.0851,-0.42559c0.48938,-0.09576 0.48938,-0.09576 0.68088,0c0.03524,0.17589 0.03524,0.17589 0.05319,0.38835c0.00636,0.07033 0.01273,0.14066 0.01929,0.21313c0.00416,0.05431 0.00834,0.10862 0.01263,0.16458c-0.05617,0 -0.11234,0 -0.17022,0c-0.01756,0.10885 -0.03511,0.21768 -0.05319,0.32983c-0.00987,0.06122 -0.01975,0.12245 -0.02993,0.18553c-0.00065,0.05464 -0.00132,0.10928 -0.00199,0.16557c0.05617,0.05618 0.11234,0.11235 0.17022,0.17024c-0.01929,0.42432 -0.1487,0.70193 -0.42554,1.0214c-0.27082,0.14661 -0.55716,0.22407 -0.85442,0.29925c-0.14235,0.03632 -0.28257,0.08074 -0.42222,0.12634c-0.02808,0.08427 -0.05618,0.16853 -0.08511,0.25536c-0.22755,0.00398 -0.45343,0.00321 -0.68087,0c-0.14482,0.00262 -0.14482,0.00262 -0.29256,0.00532c-0.48225,-0.14384 -0.74375,-0.48549 -1.06919,-0.85649c-0.06604,-0.07329 -0.13209,-0.14659 -0.20013,-0.2221c-0.47058,-0.54878 -0.47058,-0.54878 -0.51398,-0.89174c0.04672,-0.34857 0.16658,-0.45662 0.43419,-0.66863c0.36814,-0.17026 0.74485,-0.08182 1.13102,-0.00498c0.00318,-0.05333 0.00636,-0.10665 0.00965,-0.1616c0.00559,-0.06956 0.01119,-0.13912 0.01695,-0.21079c0.00494,-0.06913 0.00987,-0.13826 0.01497,-0.20947c0.12374,-0.52338 0.81971,-0.4055 1.23507,-0.35444z" fill="#297329"/><path d="M357.08496,172.20083c0.27856,0.11549 0.4684,0.29821 0.68087,0.5107c0.03724,0.20216 0.03724,0.20216 0,0.42559c-0.14042,0.11524 -0.28233,0.2287 -0.42554,0.34047c-0.07484,0.22426 -0.07484,0.22426 -0.0851,0.42559c0.32616,0.00759 0.61837,-0.01033 0.9362,-0.08512c0.04589,0.52332 -0.00774,0.73584 -0.33612,1.1401c-0.11296,0.14362 -0.11296,0.14361 -0.07879,0.38137c0.05906,0.17638 0.05906,0.17638 0.15957,0.26599c-0.02019,0.61602 -0.02019,0.61602 -0.29256,0.88841c-0.28234,0.17218 -0.43264,0.23135 -0.76066,0.23407c-0.06561,0.00121 -0.13121,0.00241 -0.1988,0.00366c-0.2168,-0.02184 -0.34317,-0.09012 -0.53526,-0.18986c-0.14794,-0.03631 -0.29703,-0.06815 -0.44682,-0.09575c-0.07593,-0.01427 -0.15184,-0.02853 -0.23006,-0.04323c-0.08624,-0.01547 -0.08624,-0.01547 -0.17421,-0.03125c0.02457,-0.05156 0.04916,-0.10313 0.07447,-0.15628c0.2101,-0.47422 0.30044,-0.84598 0.26963,-1.36487c-0.00366,-0.1812 -0.00366,-0.1812 0.08146,-0.43656c0.05617,0 0.11233,0 0.17021,0c-0.02173,-0.17927 -0.0451,-0.35832 -0.06915,-0.53729c-0.01926,-0.14961 -0.01926,-0.14961 -0.03889,-0.30224c-0.06359,-0.2731 -0.11045,-0.34817 -0.3175,-0.52234c0,-0.27404 0.10682,-0.36441 0.29256,-0.56922c0.40205,-0.36287 0.80026,-0.33741 1.32451,-0.28195z" fill="#216c13"/><path d="M348.95173,171.83377c0.21809,0.19683 0.2181,0.19683 0.29256,0.40963c0.00921,0.18422 0.01064,0.3688 0.01064,0.55325c0.06846,0.02633 0.13692,0.05268 0.20746,0.0798c0.21808,0.09044 0.21809,0.09044 0.3032,0.17555c0.0113,0.15427 0.0113,0.15427 0.01064,0.34047c0.00034,0.09216 0.00034,0.09216 0.00066,0.18619c-0.0113,0.15428 -0.0113,0.15428 -0.09641,0.2394c-0.04261,0.20554 -0.04261,0.20554 0,0.42559c0.205,0.15853 0.205,0.15853 0.42555,0.25534c-0.00828,0.34761 -0.08472,0.55355 -0.32448,0.79797c-0.35949,0.28719 -0.69819,0.26214 -1.14199,0.23308c-0.21949,-0.00898 -0.37372,-0.00876 -0.57615,0.07547c-0.02808,0.08427 -0.05618,0.16853 -0.08511,0.25536c-0.30895,0 -0.61789,0 -0.9362,0c0.04059,-0.26249 0.0814,-0.52492 0.12234,-0.78734c0.0172,-0.11143 0.0172,-0.11142 0.03475,-0.22509c0.01125,-0.07187 0.02249,-0.14375 0.03407,-0.21778c0.01026,-0.06597 0.0205,-0.13193 0.03107,-0.19992c0.0331,-0.1871 0.0331,-0.1871 0.07896,-0.36814c0.05052,-0.20523 0.05049,-0.39511 0.04989,-0.6063c-0.00022,-0.08228 -0.00045,-0.16458 -0.00068,-0.24937c-0.00879,-0.21143 -0.03515,-0.40497 -0.07381,-0.61244c-0.02127,-0.30855 -0.02127,-0.30855 0.12234,-0.55326c0.46211,-0.42468 0.94689,-0.48428 1.51069,-0.20747z" fill="#297229"/><path d="M354.17529,176.93547c0.34113,0.04014 0.47136,0.11372 0.69684,0.37239c0.03934,0.36065 -0.01263,0.66928 -0.08511,1.02141c0.02807,0.02808 0.05617,0.05617 0.08511,0.08511c0.05037,0.29381 0.00135,0.42314 -0.14363,0.68625c-0.30029,0.33972 -0.72936,0.41311 -1.15295,0.52567c-0.22595,0.04138 -0.22595,0.04138 -0.3205,0.14995c-1.30968,0.08493 -1.30968,0.08493 -1.8724,-0.25536c-0.05617,-0.05618 -0.11233,-0.11235 -0.17021,-0.17023c0.01064,-0.29259 0.01064,-0.2926 0.08511,-0.59582c0.11143,-0.0878 0.22477,-0.17326 0.34044,-0.25536c0.02845,-0.22354 0.02845,-0.22354 0,-0.42559c-0.08425,-0.02808 -0.16852,-0.05618 -0.25533,-0.08512c0.0266,-0.20216 0.0266,-0.20216 0.08511,-0.42559c0.29081,-0.19388 0.45336,-0.20982 0.7979,-0.2394c0.09545,-0.00933 0.19089,-0.01865 0.28923,-0.02826c0.31078,0.01392 0.4485,0.09222 0.70015,0.26766c0.1865,0.05922 0.1865,0.05922 0.34044,0.08512c0.02457,-0.08075 0.04915,-0.16151 0.07447,-0.24471c0.11615,-0.32265 0.16013,-0.42211 0.50533,-0.46815z" fill="#8cc839"/><path d="M354.71787,170.29102c0.37025,0.00956 0.6008,0.09685 0.88832,0.3285c0.19622,0.22522 0.23586,0.43892 0.28724,0.73014c0.22469,0 0.44938,0 0.68087,0c0,0.08427 0,0.16853 0,0.25536c-0.30808,0.11203 -0.5188,0.17023 -0.85108,0.17023c0,0.05618 0,0.11235 0,0.17023c-0.06496,0.04741 -0.1299,0.0948 -0.19682,0.14364c-0.25463,0.18392 -0.25463,0.18392 -0.32447,0.50539c-0.15958,0.28727 -0.15958,0.28727 -0.38333,0.36341c-0.23768,0.04219 -0.47196,0.07409 -0.71246,0.0941c0,-0.05618 0,-0.11235 0,-0.17023c-0.08075,-0.02633 -0.16149,-0.05268 -0.24469,-0.0798c-0.26597,-0.09044 -0.26597,-0.09044 -0.43619,-0.17555c-0.5115,-0.04708 -0.8402,-0.02707 -1.27663,0.25536c-0.1915,-0.0532 -0.1915,-0.0532 -0.34044,-0.17024c-0.11684,-0.35055 -0.17132,-0.65724 -0.08512,-1.0214c0.23546,-0.28966 0.51723,-0.51399 0.8511,-0.68094c0.12328,-0.0071 0.24687,-0.00913 0.37035,-0.00831c0.07241,0.00026 0.14482,0.00054 0.21942,0.00083c0.0757,0.00072 0.15141,0.00143 0.22939,0.00215c0.07636,0.00039 0.15273,0.00077 0.2314,0.00116c0.18884,0.00101 0.37767,0.00242 0.5665,0.00416c-0.0035,-0.08075 -0.00702,-0.1615 -0.01064,-0.24471c0.01613,-0.40332 0.16583,-0.4626 0.53725,-0.47346z" fill="#216c13"/></g></g></g></svg>